<svg width="24" height="24" viewBox="0 0 24 24" fill="none" xmlns="http://www.w3.org/2000/svg">
<path fill-rule="evenodd" clip-rule="evenodd" d="M6.5 3.25C4.29086 3.25 2.5 5.04086 2.5 7.25V13.25C2.5 15.4591 4.29086 17.25 6.5 17.25H17.5C19.7091 17.25 21.5 15.4591 21.5 13.25V7.25C21.5 5.04086 19.7091 3.25 17.5 3.25H6.5ZM8.21053 19.25C7.81811 19.25 7.5 19.5858 7.5 20C7.5 20.4142 7.81811 20.75 8.21053 20.75H15.7895C16.1819 20.75 16.5 20.4142 16.5 20C16.5 19.5858 16.1819 19.25 15.7895 19.25H8.21053ZM14.5839 9.87402C14.9286 10.1038 15.3942 10.0107 15.624 9.66605C15.8538 9.32141 15.7606 8.85575 15.416 8.62598L12.4162 6.62598C12.1643 6.45802 11.8361 6.45801 11.5842 6.62595L8.58395 8.62595C8.2393 8.8557 8.14615 9.32135 8.37591 9.66601C8.60566 10.0107 9.07131 10.1038 9.41596 9.87405L11.25 8.65146L11.25 13.25C11.25 13.6642 11.5858 14 12 14C12.4142 14 12.75 13.6642 12.75 13.25L12.75 8.65132L14.5839 9.87402Z" fill="#222222"/>
</svg>
