<svg width="24" height="24" viewBox="0 0 24 24" fill="none" xmlns="http://www.w3.org/2000/svg">
<path d="M11.5 9.75C11.5 9.33579 11.8358 9 12.25 9C12.6642 9 13 9.33579 13 9.75V14.25C13 14.6642 12.6642 15 12.25 15C11.8358 15 11.5 14.6642 11.5 14.25V9.75Z" fill="#222222"/>
<path d="M18.25 10.5C18.6642 10.5 19 10.1642 19 9.75C19 9.33579 18.6642 9 18.25 9H15.5C14.9477 9 14.5 9.44772 14.5 10V14.25C14.5 14.6642 14.8358 15 15.25 15C15.6642 15 16 14.6642 16 14.25V13H17.75C18.1642 13 18.5 12.6642 18.5 12.25C18.5 11.8358 18.1642 11.5 17.75 11.5H16V10.5H18.25Z" fill="#222222"/>
<path d="M9 9H6C5.4 9 5 9.5 5 10V14C5 14.5 5.4 15 6 15H9C9.6 15 10 14.5 10 14V12.75C10 12.3358 9.66421 12 9.25 12C8.83579 12 8.5 12.3358 8.5 12.75V13.5H6.5V10.5C6.5 10.5 8 10.5 9 10.5C10 10.5 10 9 9 9Z" fill="#222222"/>
</svg>
