<svg width="24" height="24" viewBox="0 0 24 24" fill="none" xmlns="http://www.w3.org/2000/svg">
<path fill-rule="evenodd" clip-rule="evenodd" d="M3.25 9.87012C3.66421 9.87012 4 10.2059 4 10.6201V16.6201C4 18.415 5.45507 19.8701 7.25 19.8701H13.25C13.6642 19.8701 14 20.2059 14 20.6201C14 21.0343 13.6642 21.3701 13.25 21.3701H7.25C4.62665 21.3701 2.5 19.2435 2.5 16.6201V10.6201C2.5 10.2059 2.83579 9.87012 3.25 9.87012Z" fill="#222222"/>
<path fill-rule="evenodd" clip-rule="evenodd" d="M8.5 2.37012C6.84315 2.37012 5.5 3.71326 5.5 5.37012V15.3701C5.5 17.027 6.84315 18.3701 8.5 18.3701H18.5C20.1569 18.3701 21.5 17.027 21.5 15.3701V5.37012C21.5 3.71326 20.1569 2.37012 18.5 2.37012H8.5ZM9.5 11C10.33 11 11 10.33 11 9.5V8.5C11 7.67 10.33 7 9.5 7H8C7.44772 7 7 7.44772 7 8V12.25C7 12.6642 7.33579 13 7.75 13C8.16421 13 8.5 12.6642 8.5 12.25V11H9.5ZM14.5 13C15.33 13 16 12.33 16 11.5V8.5C16 7.67 15.33 7 14.5 7H13C12.4477 7 12 7.44772 12 8V12C12 12.5523 12.4477 13 13 13H14.5ZM19.25 8.5H18.5V9.5H19.25C19.6642 9.5 20 9.83579 20 10.25C20 10.6642 19.6642 11 19.25 11H18.5V12.25C18.5 12.6642 18.1642 13 17.75 13C17.3358 13 17 12.6642 17 12.25V8C17 7.44772 17.4477 7 18 7H19.25C19.6642 7 20 7.33579 20 7.75C20 8.16421 19.6642 8.5 19.25 8.5ZM9 9.5C8.72386 9.5 8.5 9.27614 8.5 9C8.5 8.72386 8.72386 8.5 9 8.5C9.27614 8.5 9.5 8.72386 9.5 9C9.5 9.27614 9.27614 9.5 9 9.5ZM13.7308 11.5C14.1556 11.5 14.5 11.1556 14.5 10.7308V9.26923C14.5 8.8444 14.1556 8.5 13.7308 8.5C13.6033 8.5 13.5 8.60332 13.5 8.73077V11.2692C13.5 11.3967 13.6033 11.5 13.7308 11.5Z" fill="#222222"/>
</svg>
