<svg width="24" height="24" viewBox="0 0 24 24" fill="none" xmlns="http://www.w3.org/2000/svg">
<path fill-rule="evenodd" clip-rule="evenodd" d="M19.9293 5.84493C20.1695 5.69084 20.1695 5.30916 19.9293 5.15507L19.4951 4.87655C19.4385 4.82681 19.3744 4.78545 19.3047 4.75442L16.6555 3.055C16.4134 2.89971 16.1094 3.09173 16.1094 3.39993V4.68994H8C5.92893 4.68994 4.25 6.36887 4.25 8.43994V9.93994C4.25 10.3542 4.58579 10.6899 5 10.6899C5.41421 10.6899 5.75 10.3542 5.75 9.93994V8.43994C5.75 7.1973 6.75736 6.18994 8 6.18994H16.1094V7.60007C16.1094 7.90827 16.4134 8.10029 16.6555 7.945L19.9293 5.84493ZM19.75 13.44C19.75 13.0258 19.4142 12.69 19 12.69C18.5858 12.69 18.25 13.0258 18.25 13.44V14.94C18.25 16.1826 17.2426 17.19 16 17.19H8V15.8399C8 15.5317 7.69598 15.3397 7.4539 15.495L4.73867 17.2368C4.63709 17.2745 4.5459 17.3337 4.47058 17.4087L4.18016 17.595C3.93995 17.7491 3.93995 18.1308 4.18016 18.2849L4.47056 18.4712C4.54589 18.5463 4.63709 18.6054 4.73869 18.6432L7.4539 20.385C7.69598 20.5403 8 20.3482 8 20.04V18.69H16C18.0711 18.69 19.75 17.011 19.75 14.94V13.44Z" fill="#222222"/>
<path d="M12.5978 14.1566H11.6861V10.3363L10.5978 10.7033V9.89737L12.5 9.15662H12.5978V14.1566Z" fill="#222222"/>
</svg>
