<svg width="24" height="24" viewBox="0 0 24 24" fill="none" xmlns="http://www.w3.org/2000/svg">
<path d="M11.6604 1.85538C11.3885 1.94205 11.2897 2.31072 11.4819 2.52174L14.1005 5.39755C14.2942 5.61021 14.6375 5.50341 14.7173 5.20571L15.0796 3.85368L15.1428 3.87032C18.7689 4.84193 21.0103 8.46139 20.3758 12.1684C20.3106 12.5494 20.5286 12.9333 20.9021 13.0334C21.2755 13.1334 21.6624 12.9115 21.7331 12.5314C22.5589 8.09217 19.8956 3.69445 15.5052 2.51803L15.4419 2.50134L15.8044 1.14869C15.8841 0.850995 15.6402 0.586827 15.3661 0.674173L11.6604 1.85538Z" fill="#222222"/>
<path d="M12.5185 21.4782C12.7107 21.6892 12.6119 22.0578 12.34 22.1445L8.63426 23.3257C8.36023 23.4131 8.11627 23.1489 8.19604 22.8512L8.55848 21.4986L8.49525 21.4819C4.10477 20.3054 1.44154 15.9077 2.26732 11.4685C2.33802 11.0884 2.72492 10.8665 3.09834 10.9665C3.47177 11.0666 3.68981 11.4505 3.62459 11.8315C2.99012 15.5385 5.23152 19.158 8.8576 20.1296L8.92084 20.1462L9.28312 18.7942C9.36288 18.4965 9.70624 18.3897 9.89988 18.6023L12.5185 21.4782Z" fill="#222222"/>
<path fill-rule="evenodd" clip-rule="evenodd" d="M8.96368 4.80367C9.61626 4.14242 10.6766 4.14923 11.3292 4.80184L19.1964 12.6691C19.8577 13.3216 19.8509 14.382 19.1983 15.0346L15.0365 19.1964C14.3839 19.8577 13.3235 19.8509 12.6709 19.1983L4.80367 11.331C4.14242 10.6785 4.14923 9.61812 4.80184 8.96551L8.96368 4.80367ZM10.3534 5.77765C10.2343 5.65853 10.0525 5.66458 9.94547 5.77346L9.94134 5.77767L9.94132 5.77765L5.77765 9.94132C5.65853 10.0604 5.66458 10.2422 5.77346 10.3492L5.77767 10.3534L5.77765 10.3534L13.6467 18.2225C13.7658 18.3416 13.9476 18.3355 14.0546 18.2267L14.0588 18.2224L14.0588 18.2225L18.2225 14.0588C18.3416 13.9397 18.3355 13.7579 18.2267 13.6509L18.2224 13.6467L18.2225 13.6467L10.3534 5.77765Z" fill="#222222"/>
</svg>
