<svg width="24" height="24" viewBox="0 0 24 24" fill="none" xmlns="http://www.w3.org/2000/svg">
<path fill-rule="evenodd" clip-rule="evenodd" d="M4.13042 4.26044C2.8064 4.378 1.75 5.47387 1.75 6.83333V17.1667C1.75 18.6061 2.93432 19.75 4.36667 19.75H14.6333C15.9969 19.75 17.1357 18.7133 17.2419 17.3719L4.13042 4.26044ZM21.3684 16.7384C21.5204 16.7655 21.6802 16.7455 21.8249 16.676C22.0847 16.5511 22.25 16.2883 22.25 16V8.00001C22.25 7.7117 22.0847 7.44892 21.8249 7.32403C21.565 7.19914 21.2566 7.23425 21.0315 7.41436L17.25 10.4395V6.83333C17.25 5.39391 16.0657 4.25 14.6333 4.25H8.88002L21.3684 16.7384Z" fill="#222222"/>
<path fill-rule="evenodd" clip-rule="evenodd" d="M2.96967 2.96967C3.26256 2.67678 3.73744 2.67678 4.03033 2.96967L21.0303 19.9697C21.3232 20.2626 21.3232 20.7374 21.0303 21.0303C20.7374 21.3232 20.2626 21.3232 19.9697 21.0303L2.96967 4.03033C2.67678 3.73744 2.67678 3.26256 2.96967 2.96967Z" fill="#222222"/>
</svg>
