<svg width="24" height="24" viewBox="0 0 24 24" fill="none" xmlns="http://www.w3.org/2000/svg">
<path fill-rule="evenodd" clip-rule="evenodd" d="M5.5 5.37012C5.5 3.71326 6.84315 2.37012 8.5 2.37012H18.5C20.1569 2.37012 21.5 3.71326 21.5 5.37012V15.3701C21.5 16.7311 20.5937 17.8805 19.3516 18.2475L14.9414 12.8998L12.9846 10.4093C12.0764 9.25334 10.4196 9.01613 9.22353 9.87077L8.41146 10.451L5.5 12.6745V5.37012ZM17.5 7.87012C17.5 8.69854 16.8284 9.37012 16 9.37012C15.1716 9.37012 14.5 8.69854 14.5 7.87012C14.5 7.04169 15.1716 6.37012 16 6.37012C16.8284 6.37012 17.5 7.04169 17.5 7.87012Z" fill="#222222"/>
<path fill-rule="evenodd" clip-rule="evenodd" d="M3.25 9.87012C3.66421 9.87012 4 10.2059 4 10.6201V16.6201C4 18.415 5.45507 19.8701 7.25 19.8701H13.25C13.6642 19.8701 14 20.2059 14 20.6201C14 21.0343 13.6642 21.3701 13.25 21.3701H7.25C4.62665 21.3701 2.5 19.2435 2.5 16.6201V10.6201C2.5 10.2059 2.83579 9.87012 3.25 9.87012Z" fill="#222222"/>
<path d="M6.25 5.35938C6.25 4.11673 7.25736 3.10938 8.5 3.10938H18.5C19.7426 3.10938 20.75 4.11673 20.75 5.35938V15.5C20.75 16.7426 19.7426 17.75 18.5 17.75H8.5C7.25736 17.75 6.25 16.7426 6.25 15.5V5.35938Z" stroke="#222222" stroke-width="1.5"/>
</svg>
