<svg width="24" height="24" viewBox="0 0 24 24" fill="none" xmlns="http://www.w3.org/2000/svg">
<path fill-rule="evenodd" clip-rule="evenodd" d="M8.45437 2.18171C8.45437 1.72984 8.08806 1.36353 7.63619 1.36353C7.18432 1.36353 6.818 1.72984 6.818 2.18171V3.27262L5.45437 3.27262C3.64689 3.27262 2.18164 4.73787 2.18164 6.54534V18.5453C2.18164 20.3528 3.64689 21.8181 5.45437 21.8181H18.5453C20.3528 21.8181 21.818 20.3528 21.818 18.5453V6.54534C21.818 4.73787 20.3528 3.27262 18.5453 3.27262H17.1816V2.18171C17.1816 1.72984 16.8153 1.36353 16.3635 1.36353C15.9116 1.36353 15.5453 1.72984 15.5453 2.18171V3.27262L8.45437 3.27262V2.18171ZM9.0743 12.2398C8.80788 11.9227 8.33479 11.8815 8.01762 12.1479C7.70046 12.4144 7.65932 12.8875 7.92574 13.2046L10.2591 15.9824C10.3972 16.1468 10.5991 16.2441 10.8138 16.2497C11.0284 16.2554 11.2351 16.1687 11.3816 16.0117L16.0483 11.0117C16.3309 10.7089 16.3146 10.2343 16.0118 9.95171C15.7089 9.66908 15.2344 9.68545 14.9517 9.98826L10.8629 14.3691L9.0743 12.2398Z" fill="#222222"/>
</svg>
