<svg width="24" height="24" viewBox="0 0 24 24" fill="none" xmlns="http://www.w3.org/2000/svg">
<path d="M20.9058 11C21.4935 11 21.9588 10.4934 21.8425 9.91727C21.0526 6.00583 17.9854 2.92862 14.0968 2.15305C13.5229 2.03859 13.0193 2.50204 13.018 3.08725L13.0023 9.99772C13.001 10.5509 13.4491 11 14.0023 11H20.9058Z" fill="#222222"/>
<path d="M10.784 3.13244C10.784 2.53106 10.2546 2.06201 9.67011 2.20341C5.26894 3.26802 2 7.23284 2 11.9612C2 17.5055 6.49454 22 12.0388 22C16.7672 22 20.732 18.7311 21.7966 14.3299C21.938 13.7454 21.4689 13.216 20.8676 13.216H11.784C11.2317 13.216 10.784 12.7683 10.784 12.216V3.13244Z" fill="#222222"/>
</svg>
