<svg width="24" height="24" viewBox="0 0 24 24" fill="none" xmlns="http://www.w3.org/2000/svg">
<path fill-rule="evenodd" clip-rule="evenodd" d="M12 2C17.5228 2 22 6.47715 22 12C22 17.5228 17.5228 22 12 22C6.47715 22 2 17.5228 2 12C2 6.47715 6.47715 2 12 2ZM12 7C12.4142 7 12.75 7.35346 12.75 7.78947V11.25H16.2105C16.6465 11.25 17 11.5858 17 12C17 12.4142 16.6465 12.75 16.2105 12.75H12.75V16.2105C12.75 16.6465 12.4142 17 12 17C11.5858 17 11.25 16.6465 11.25 16.2105V12.75H7.78947C7.35346 12.75 7 12.4142 7 12C7 11.5858 7.35346 11.25 7.78947 11.25H11.25V7.78947C11.25 7.35346 11.5858 7 12 7Z" fill="#222222"/>
</svg>
