<svg width="24" height="24" viewBox="0 0 24 24" fill="none" xmlns="http://www.w3.org/2000/svg">
<path d="M12 2.75C17.1086 2.75 21.25 6.89137 21.25 12C21.25 17.1086 17.1086 21.25 12 21.25C6.89137 21.25 2.75 17.1086 2.75 12C2.75 6.89137 6.89137 2.75 12 2.75Z" stroke="#222222" stroke-width="1.5" stroke-linecap="round"/>
<path fill-rule="evenodd" clip-rule="evenodd" d="M12.75 7.78947C12.75 7.35346 12.4142 7 12 7C11.5858 7 11.25 7.35346 11.25 7.78947V11.25H7.78947C7.35346 11.25 7 11.5858 7 12C7 12.4142 7.35346 12.75 7.78947 12.75H11.25V16.2105C11.25 16.6465 11.5858 17 12 17C12.4142 17 12.75 16.6465 12.75 16.2105V12.75H16.2105C16.6465 12.75 17 12.4142 17 12C17 11.5858 16.6465 11.25 16.2105 11.25H12.75V7.78947Z" fill="#222222"/>
</svg>
