<svg width="24" height="24" viewBox="0 0 24 24" fill="none" xmlns="http://www.w3.org/2000/svg">
<path fill-rule="evenodd" clip-rule="evenodd" d="M11.5594 4C9.01744 4 6.89881 4.42498 5.41027 4.99481C4.66677 5.27942 4.07411 5.6026 3.66392 5.93201C3.4499 6.10389 3.29029 6.27318 3.18116 6.43825C3.07489 6.59899 3 6.78134 3 6.9709C3 7.16041 3.07486 7.34261 3.18124 7.50318C3.29044 7.668 3.4501 7.83684 3.66414 8.00814C4.07438 8.33644 4.66707 8.65812 5.41054 8.94124C6.89904 9.50807 9.01758 9.93007 11.5594 9.93007C14.1013 9.93007 16.2199 9.50807 17.7084 8.94124C18.4518 8.65812 19.0445 8.33644 19.4548 8.00814C19.6688 7.83684 19.8285 7.668 19.9377 7.50318C20.044 7.3426 20.1189 7.16041 20.1189 6.9709C20.1189 6.78134 20.044 6.59899 19.9377 6.43825C19.8286 6.27318 19.669 6.10389 19.455 5.93201C19.0448 5.6026 18.4521 5.27942 17.7086 4.99481C16.2201 4.42498 14.1015 4 11.5594 4ZM3.63989 9.33849C3.50123 9.2725 3.33841 9.2822 3.20857 9.3642C3.07873 9.4462 3 9.58904 3 9.74261V12C3 12.3645 3.25914 12.7315 3.66202 13.0648C4.07218 13.4041 4.66494 13.7372 5.40869 14.0305C6.89768 14.6177 9.01687 15.0557 11.5594 15.0557C14.102 15.0557 16.2212 14.6177 17.7102 14.0305C18.454 13.7372 19.0467 13.4041 19.4569 13.0648C19.8598 12.7315 20.1189 12.3645 20.1189 12V9.74261C20.1189 9.58904 20.0402 9.4462 19.9103 9.3642C19.7805 9.2822 19.6177 9.2725 19.479 9.33849C17.0051 10.5159 14.2992 11.0851 11.5736 10.9988C11.5642 10.9985 11.5547 10.9985 11.5453 10.9988C8.81969 11.0851 6.11377 10.5159 3.63989 9.33849ZM3.64116 14.2851C3.50248 14.2186 3.33935 14.2279 3.20917 14.3098C3.07899 14.3917 3 14.5348 3 14.6886V16.9564C3 17.321 3.25928 17.6873 3.66224 18.0195C4.07245 18.3577 4.66524 18.6892 5.40897 18.981C6.89792 19.5651 9.01701 20 11.5594 20C14.1019 20 16.221 19.5651 17.7099 18.981C18.4537 18.6892 19.0464 18.3577 19.4567 18.0195C19.8596 17.6873 20.1189 17.321 20.1189 16.9564V14.6886C20.1189 14.5348 20.0399 14.3917 19.9097 14.3098C19.7795 14.2279 19.6164 14.2186 19.4777 14.2851C17.0068 15.4707 14.3002 16.0435 11.5739 15.9552C11.5643 15.9549 11.5546 15.9549 11.545 15.9552C8.81867 16.0435 6.11213 15.4707 3.64116 14.2851Z" fill="#222222"/>
</svg>
