<svg width="24" height="24" viewBox="0 0 24 24" fill="none" xmlns="http://www.w3.org/2000/svg">
<path fill-rule="evenodd" clip-rule="evenodd" d="M1.63623 5.45462C1.63623 3.64714 3.10148 2.18188 4.90896 2.18188H9.67793C11.0687 2.18188 12.3075 3.06082 12.7669 4.37347L13.209 5.63643H19.0908C20.8983 5.63643 22.3635 7.10168 22.3635 8.90916V18.4849C22.3635 20.2924 20.8983 21.7576 19.0908 21.7576H4.90896C3.10148 21.7576 1.63623 20.2924 1.63623 18.4849V5.45462ZM3.27259 18.4849C3.27259 19.3887 4.00522 20.1213 4.90896 20.1213H19.0908C19.9945 20.1213 20.7271 19.3887 20.7271 18.4849V8.90916C20.7271 8.00542 19.9945 7.27279 19.0908 7.27279H13.209H3.27259V18.4849Z" fill="#222222"/>
</svg>
