<svg width="24" height="24" viewBox="0 0 24 24" fill="none" xmlns="http://www.w3.org/2000/svg">
<path fill-rule="evenodd" clip-rule="evenodd" d="M21.0308 19.9697C21.3237 20.2626 21.3237 20.7374 21.0308 21.0303C20.7379 21.3232 20.2631 21.3232 19.9702 21.0303L16.669 17.7291H3.81359C3.4339 17.7291 3.12609 17.4213 3.12609 17.0416C3.12609 16.6619 3.4339 16.3541 3.81359 16.3541H4.55871V10.3958C4.55871 9.02255 4.92474 7.73477 5.56456 6.62473L2.97016 4.03033C2.67727 3.73744 2.67727 3.26256 2.97016 2.96967C3.26305 2.67678 3.73793 2.67678 4.03082 2.96967L21.0308 19.9697ZM12.1212 2.83331C10.5375 2.83331 9.06746 3.32014 7.85262 4.1523L19.6837 15.9834V10.3958C19.6837 6.21916 16.2979 2.83331 12.1212 2.83331ZM20.3136 16.3541H20.0545L20.9643 17.264C20.9882 17.1943 21.0011 17.1195 21.0011 17.0416C21.0011 16.6619 20.6933 16.3541 20.3136 16.3541ZM15.7301 19.5625C16.1098 19.5625 16.4176 19.8703 16.4176 20.25C16.4176 20.6297 16.1098 20.9375 15.7301 20.9375H8.39676C8.01706 20.9375 7.70926 20.6297 7.70926 20.25C7.70926 19.8703 8.01706 19.5625 8.39676 19.5625H15.7301Z" fill="#222222"/>
</svg>
