<svg width="24" height="24" viewBox="0 0 24 24" fill="none" xmlns="http://www.w3.org/2000/svg">
<path fill-rule="evenodd" clip-rule="evenodd" d="M4.41748 10.3959C4.41748 6.21922 7.80333 2.83337 11.98 2.83337C16.1566 2.83337 19.5425 6.21922 19.5425 10.3959V16.3542H20.2876C20.6673 16.3542 20.9751 16.662 20.9751 17.0417C20.9751 17.4214 20.6673 17.7292 20.2876 17.7292H3.7876C3.4079 17.7292 3.1001 17.4214 3.1001 17.0417C3.1001 16.662 3.4079 16.3542 3.7876 16.3542H4.41748V10.3959ZM8.37109 19.5626C7.9914 19.5626 7.68359 19.8704 7.68359 20.2501C7.68359 20.6298 7.9914 20.9376 8.37109 20.9376H15.7044C16.0841 20.9376 16.3919 20.6298 16.3919 20.2501C16.3919 19.8704 16.0841 19.5626 15.7044 19.5626H8.37109Z" fill="#222222"/>
</svg>
