<svg width="24" height="24" viewBox="0 0 24 24" fill="none" xmlns="http://www.w3.org/2000/svg">
<path fill-rule="evenodd" clip-rule="evenodd" d="M21.0308 19.9697C21.3237 20.2626 21.3237 20.7374 21.0308 21.0303C20.7379 21.3232 20.2631 21.3232 19.9702 21.0303L16.669 17.7291H5.95871H4.55871H4.00135H3.81359C3.4339 17.7291 3.12609 17.4213 3.12609 17.0416C3.12609 16.6619 3.4339 16.3541 3.81359 16.3541H4.00135H4.55871V16.3291V14.9541V10.3958C4.55871 9.02255 4.92474 7.73477 5.56456 6.62473L2.97016 4.03033C2.67727 3.73744 2.67727 3.26256 2.97016 2.96967C3.26305 2.67678 3.73793 2.67678 4.03082 2.96967L21.0308 19.9697ZM15.269 16.3291L6.59818 7.65835C6.18863 8.4828 5.95871 9.41177 5.95871 10.3958V16.3291H15.269ZM8.86373 5.16342L18.2837 14.5834L18.6545 14.9541L19.6837 15.9834V14.9541V14.0035V10.3958C19.6837 6.21916 16.2979 2.83331 12.1212 2.83331C11.0582 2.83331 10.0464 3.05263 9.12869 3.44848C8.67909 3.6424 8.25206 3.87868 7.85261 4.1523L8.86373 5.16342ZM21.0011 17.0416C21.0011 17.1195 20.9882 17.1943 20.9643 17.264L20.7419 17.0416L20.3136 16.6133L20.0544 16.3541H20.3136C20.6933 16.3541 21.0011 16.6619 21.0011 17.0416ZM10.2139 4.53374L18.2837 12.6035V10.3958C18.2837 6.99236 15.5247 4.23331 12.1212 4.23331C11.4547 4.23331 10.8139 4.33871 10.2139 4.53374ZM15.7301 19.5625H15.5423H8.58452H8.39676C8.01706 19.5625 7.70926 19.8703 7.70926 20.25C7.70926 20.6297 8.01706 20.9375 8.39676 20.9375H8.58452H15.5423H15.7301C16.1098 20.9375 16.4176 20.6297 16.4176 20.25C16.4176 19.8703 16.1098 19.5625 15.7301 19.5625Z" fill="#222222"/>
</svg>
