<svg width="24" height="24" viewBox="0 0 24 24" fill="none" xmlns="http://www.w3.org/2000/svg">
<path fill-rule="evenodd" clip-rule="evenodd" d="M15.7646 5.41176C14.8585 5.41176 14.1233 6.14343 14.1176 7.04818L14.1177 7.05884L14.1176 7.06966C14.1234 7.97431 14.8586 8.70587 15.7646 8.70587C16.6743 8.70587 17.4117 7.96846 17.4117 7.05881C17.4117 6.14917 16.6743 5.41176 15.7646 5.41176ZM15.7646 4C14.3182 4 13.1063 5.00392 12.7877 6.35296H4.00007C3.61022 6.35296 3.29419 6.66899 3.29419 7.05884C3.29419 7.44869 3.61022 7.76472 4.00007 7.76472H12.7877C13.1063 9.11374 14.3182 10.1176 15.7646 10.1176C17.211 10.1176 18.4229 9.11374 18.7416 7.76472H20C20.3898 7.76472 20.7059 7.44869 20.7059 7.05884C20.7059 6.66899 20.3898 6.35296 20 6.35296L18.7416 6.35296C18.4229 5.00392 17.211 4 15.7646 4ZM6.58831 16.9429V18.5881H9.88242V16.9462C9.8824 16.9445 9.8824 16.9428 9.8824 16.9411C9.8824 16.9394 9.8824 16.9377 9.88242 16.936V15.294H6.58831V16.9393C6.58831 16.9399 6.58831 16.9405 6.58831 16.9411C6.58831 16.9417 6.58831 16.9423 6.58831 16.9429ZM11.2942 16.2352V14.5881C11.2942 14.1983 10.9781 13.8823 10.5883 13.8823H5.88243C5.49258 13.8823 5.17655 14.1983 5.17655 14.5881V16.2352H4.00009C3.61024 16.2352 3.29421 16.5513 3.2942 16.9411C3.2942 17.3309 3.61024 17.647 4.00008 17.647H5.17655V19.294C5.17655 19.6839 5.49258 19.9999 5.88243 19.9999H10.5883C10.9781 19.9999 11.2942 19.6839 11.2942 19.294V17.647L20 17.647C20.3899 17.647 20.7059 17.3309 20.7059 16.9411C20.7059 16.5513 20.3899 16.2352 20 16.2352L11.2942 16.2352Z" fill="#222222"/>
</svg>
