<svg width="24" height="24" viewBox="0 0 24 24" fill="none" xmlns="http://www.w3.org/2000/svg">
<path fill-rule="evenodd" clip-rule="evenodd" d="M2.63504 3.63497C2.28433 3.98567 2.28433 4.55427 2.63504 4.90497L4.74004 7.00997C3.69908 7.81891 2.79968 8.79694 2.08131 9.90214C1.25336 11.1759 1.25392 12.8238 2.08042 14.0985C4.18765 17.3485 7.84134 19.5 12 19.5C13.55 19.5 15.03 19.2 16.38 18.66L16.8 19.08L19.0945 21.3666C19.4457 21.7166 20.0139 21.7161 20.3645 21.3655C20.7155 21.0145 20.7155 20.4454 20.3645 20.0944L3.90504 3.63497C3.55433 3.28427 2.98574 3.28427 2.63504 3.63497ZM7.53004 9.79996L9.08004 11.35C9.03004 11.56 9.00004 11.78 9.00004 12C9.00004 13.66 10.34 15 12 15C12.22 15 12.44 14.97 12.65 14.92L14.2 16.47C13.53 16.8 12.79 17 12 17C9.24004 17 7.00004 14.76 7.00004 12C7.00004 11.21 7.20004 10.47 7.53004 9.79996Z" fill="#222222"/>
<path d="M17 12C17 9.23997 14.76 6.99997 12 6.99997C11.35 6.99997 10.74 7.12997 10.17 7.35997L8.01005 5.19997C9.25004 4.74997 10.59 4.49997 11.99 4.49997C16.1503 4.49997 19.8052 6.65307 21.9121 9.90511C22.7366 11.1779 22.7381 12.8226 21.9135 14.0953C21.266 15.0944 20.4713 15.9896 19.56 16.75L16.64 13.83C16.87 13.26 17 12.65 17 12Z" fill="#222222"/>
<path d="M11.8398 9.02001L14.9898 12.17L15.0098 12.01C15.0098 10.35 13.6698 9.01001 12.0098 9.01001L11.8398 9.02001Z" fill="#222222"/>
</svg>
