<svg width="24" height="24" viewBox="0 0 24 24" fill="none" xmlns="http://www.w3.org/2000/svg">
<path fill-rule="evenodd" clip-rule="evenodd" d="M2.08046 14.0989C1.25378 12.824 1.25378 11.176 2.08046 9.90109C4.18772 6.65131 7.8413 4.5 11.9998 4.5C16.1584 4.5 19.812 6.65132 21.9192 9.9011C22.7459 11.176 22.7459 12.824 21.9192 14.0989C19.812 17.3487 16.1584 19.5 11.9998 19.5C7.8413 19.5 4.18772 17.3487 2.08046 14.0989ZM6.99985 12C6.99985 14.76 9.23985 17 11.9998 17C14.7598 17 16.9998 14.76 16.9998 12C16.9998 9.24 14.7598 7 11.9998 7C9.23985 7 6.99985 9.24 6.99985 12Z" fill="#222222"/>
<path d="M12 9C10.34 9 9 10.34 9 12C9 13.66 10.34 15 12 15C13.66 15 15 13.66 15 12C15 10.34 13.66 9 12 9Z" fill="#222222"/>
</svg>
