<svg width="24" height="24" viewBox="0 0 24 24" fill="none" xmlns="http://www.w3.org/2000/svg">
<path fill-rule="evenodd" clip-rule="evenodd" d="M9.54627 2.13107L3.99585 5.34447C2.76059 6.05962 2 7.37882 2 8.80617V15.6938C2 17.1211 2.76058 18.4403 3.99585 19.1555L9.54627 22.3689C10.7589 23.0709 12.2504 23.0873 13.4781 22.412L19.4277 19.1397C20.7059 18.4367 21.5 17.0936 21.5 15.6349V8.86505C21.5 7.40628 20.7059 6.06319 19.4277 5.36018L13.4781 2.08791C12.2504 1.41267 10.7589 1.42904 9.54627 2.13107ZM19.6985 7.60989C19.9139 7.99563 19.7758 8.48299 19.3901 8.69842L13.6007 11.9318C13.6496 12.1129 13.6757 12.3034 13.6757 12.5C13.6757 13.3951 13.1351 14.164 12.3625 14.498V20C12.3625 20.4418 12.0043 20.8 11.5625 20.8C11.1207 20.8 10.7625 20.4418 10.7625 20V14.5475C9.92389 14.2454 9.32432 13.4427 9.32432 12.5C9.32432 12.2419 9.36927 11.9943 9.45175 11.7646L4.57214 8.67594C4.19881 8.43964 4.08773 7.94543 4.32403 7.57211C4.56034 7.19878 5.05454 7.0877 5.42787 7.32401L10.5286 10.5526C10.821 10.4065 11.1509 10.3243 11.5 10.3243C11.9141 10.3243 12.3013 10.44 12.6308 10.6409L18.6099 7.30152C18.9957 7.08608 19.483 7.22414 19.6985 7.60989Z" fill="#222222"/>
<path fill-rule="evenodd" clip-rule="evenodd" d="M7.5 12.5C7.5 10.2909 9.29086 8.5 11.5 8.5C13.7091 8.5 15.5 10.2909 15.5 12.5C15.5 14.7091 13.7091 16.5 11.5 16.5C9.29086 16.5 7.5 14.7091 7.5 12.5ZM11.5 10.3243C10.2984 10.3243 9.32432 11.2984 9.32432 12.5C9.32432 13.7016 10.2984 14.6757 11.5 14.6757C12.7016 14.6757 13.6757 13.7016 13.6757 12.5C13.6757 11.2984 12.7016 10.3243 11.5 10.3243Z" fill="#222222"/>
</svg>
