<svg width="24" height="24" viewBox="0 0 24 24" fill="none" xmlns="http://www.w3.org/2000/svg">
<path d="M12.75 17.0001H14.4C15.1559 17.0001 15.8808 16.6998 16.4153 16.1654C16.9497 15.6309 17.25 14.906 17.25 14.1501V12.3551C17.6803 12.1811 18.0366 11.8628 18.2579 11.4548C18.4793 11.0469 18.5518 10.5746 18.4632 10.119C18.3745 9.66343 18.1302 9.25286 17.772 8.95767C17.4138 8.66248 16.9641 8.50105 16.5 8.50105C16.0359 8.50105 15.5862 8.66248 15.228 8.95767C14.8698 9.25286 14.6255 9.66343 14.5368 10.119C14.4482 10.5746 14.5207 11.0469 14.7421 11.4548C14.9634 11.8628 15.3197 12.1811 15.75 12.3551V14.1501C15.75 14.5081 15.6078 14.8515 15.3546 15.1047C15.1014 15.3579 14.758 15.5001 14.4 15.5001H12.75V3.4171C12.75 2.7101 13.153 2.0061 13.86 2.0061C14.942 2.0061 16.03 2.3641 16.861 3.0121C17.508 3.5151 18.015 4.2101 18.214 5.0491C18.634 5.1191 19.008 5.3331 19.31 5.6161C19.79 6.0671 20.132 6.7191 20.348 7.3901C20.566 8.0711 20.676 8.8361 20.643 9.5711C20.626 9.9471 20.571 10.3311 20.465 10.6981L20.531 10.7281C20.901 10.9021 21.201 11.1751 21.425 11.5381C21.85 12.2231 22 13.2091 22 14.4661C22 15.9111 21.448 16.8921 20.738 17.5011C20.3682 17.8183 19.9353 18.0534 19.468 18.1911C19.2981 18.9726 18.9493 19.7041 18.449 20.3281C17.726 21.2321 16.603 21.9961 15.092 21.9961C14.5485 21.9937 14.0136 21.861 13.532 21.6091C13.002 21.3371 12.75 20.7441 12.75 20.1481V17.0001ZM8 8.5001C8 8.3675 8.05268 8.24032 8.14645 8.14655C8.24021 8.05278 8.36739 8.0001 8.5 8.0001C8.63261 8.0001 8.75979 8.05278 8.85355 8.14655C8.94732 8.24032 9 8.3675 9 8.5001C9 8.63271 8.94732 8.75989 8.85355 8.85366C8.75979 8.94743 8.63261 9.0001 8.5 9.0001C8.36739 9.0001 8.24021 8.94743 8.14645 8.85366C8.05268 8.75989 8 8.63271 8 8.5001ZM8.5 15.0001C8.36739 15.0001 8.24021 15.0528 8.14645 15.1465C8.05268 15.2403 8 15.3675 8 15.5001C8 15.6327 8.05268 15.7599 8.14645 15.8537C8.24021 15.9474 8.36739 16.0001 8.5 16.0001C8.63261 16.0001 8.75979 15.9474 8.85355 15.8537C8.94732 15.7599 9 15.6327 9 15.5001C9 15.3675 8.94732 15.2403 8.85355 15.1465C8.75979 15.0528 8.63261 15.0001 8.5 15.0001ZM16 10.5001C16 10.6327 16.0527 10.7599 16.1464 10.8537C16.2402 10.9474 16.3674 11.0001 16.5 11.0001C16.6326 11.0001 16.7598 10.9474 16.8536 10.8537C16.9473 10.7599 17 10.6327 17 10.5001C17 10.3675 16.9473 10.2403 16.8536 10.1465C16.7598 10.0528 16.6326 10.0001 16.5 10.0001C16.3674 10.0001 16.2402 10.0528 16.1464 10.1465C16.0527 10.2403 16 10.3675 16 10.5001Z" fill="#222222"/>
<path d="M10.14 2.0061C10.847 2.0061 11.25 2.7101 11.25 3.4171V7.7501H10.355C10.1809 7.31984 9.86267 6.9635 9.45471 6.74217C9.04675 6.52083 8.57451 6.44827 8.11892 6.53693C7.66333 6.62559 7.25276 6.86994 6.95757 7.22811C6.66238 7.58628 6.50095 8.03597 6.50095 8.5001C6.50095 8.96424 6.66238 9.41393 6.95757 9.7721C7.25276 10.1303 7.66333 10.3746 8.11892 10.4633C8.57451 10.5519 9.04675 10.4794 9.45471 10.258C9.86267 10.0367 10.1809 9.68037 10.355 9.2501H11.25V20.1481C11.25 20.7441 10.998 21.3371 10.467 21.6081C9.9855 21.8603 9.45054 21.9934 8.907 21.9961C7.397 21.9961 6.274 21.2321 5.551 20.3281C5.05028 19.7043 4.70113 18.9727 4.531 18.1911C4.06402 18.0533 3.63152 17.8181 3.262 17.5011C2.552 16.8901 2 15.9101 2 14.4661C2 13.7111 2.054 13.0531 2.19 12.5001H6.4C7.078 12.5001 7.64 13.0001 7.735 13.6511C7.30642 13.8284 6.95278 14.1492 6.73462 14.5585C6.51646 14.9678 6.44734 15.4402 6.53908 15.8948C6.63083 16.3495 6.87773 16.7581 7.23755 17.0507C7.59736 17.3434 8.04771 17.5019 8.51151 17.4992C8.97531 17.4964 9.42373 17.3325 9.78002 17.0356C10.1363 16.7386 10.3783 16.3271 10.4646 15.8714C10.5509 15.4157 10.4762 14.9441 10.2531 14.5374C10.0301 14.1308 9.67267 13.8143 9.242 13.6421C9.18947 12.9242 8.86725 12.2528 8.34007 11.7627C7.81289 11.2727 7.11979 11.0002 6.4 11.0001H3.535C3.4931 10.7629 3.39885 10.1451 3.357 9.5711C3.324 8.8361 3.434 8.0711 3.652 7.3901C3.868 6.7201 4.21 6.0671 4.69 5.6161C4.9911 5.32271 5.37257 5.12536 5.786 5.0491C5.985 4.2091 6.492 3.5151 7.139 3.0121C7.97 2.3641 9.059 2.0061 10.139 2.0061H10.14Z" fill="#222222"/>
</svg>
