<svg width="24" height="25" viewBox="0 0 24 25" fill="none" xmlns="http://www.w3.org/2000/svg">
<path d="M13.9946 12.6484C13.9946 13.753 13.0992 14.6484 11.9946 14.6484C10.8901 14.6484 9.99463 13.753 9.99463 12.6484C9.99463 11.5439 10.8901 10.6484 11.9946 10.6484C13.0992 10.6484 13.9946 11.5439 13.9946 12.6484Z" fill="#222222"/>
<path fill-rule="evenodd" clip-rule="evenodd" d="M4.22437 9.19259C4.61489 9.58312 4.61489 10.2163 4.22437 10.6068L2.10305 12.7281L4.22437 14.8494C4.61489 15.24 4.61489 15.8731 4.22437 16.2637C3.83384 16.6542 3.20068 16.6542 2.81015 16.2637L0.688832 14.1423C-0.0889856 13.3645 -0.0889856 12.0917 0.688832 11.3139L2.81015 9.19259C3.20068 8.80207 3.83384 8.80207 4.22437 9.19259ZM8.46701 21.9205C8.07648 21.53 8.07648 20.8968 8.46701 20.5063C8.85753 20.1158 9.4907 20.1158 9.88122 20.5063L12.0025 22.6276L14.1239 20.5063C14.5144 20.1158 15.1475 20.1158 15.5381 20.5063C15.9286 20.8968 15.9286 21.53 15.5381 21.9205L13.4168 24.0418C12.6389 24.8197 11.3661 24.8197 10.5883 24.0418L8.46701 21.9205ZM10.5883 1.41442L8.46701 3.53574C8.07648 3.92626 8.07648 4.55943 8.46701 4.94995C8.85753 5.34048 9.4907 5.34048 9.88122 4.94995L12.0025 2.82863L14.1239 4.94995C14.5144 5.34048 15.1475 5.34048 15.5381 4.94995C15.9286 4.55943 15.9286 3.92626 15.5381 3.53574L13.4168 1.41442C12.6389 0.6366 11.3661 0.6366 10.5883 1.41442ZM19.7807 16.2637C19.3902 15.8731 19.3902 15.24 19.7807 14.8494L21.902 12.7281L19.7807 10.6068C19.3902 10.2163 19.3902 9.58312 19.7807 9.19259C20.1712 8.80207 20.8044 8.80207 21.1949 9.19259L23.3162 11.3139C24.0941 12.0917 24.0941 13.3645 23.3162 14.1423L21.1949 16.2637C20.8044 16.6542 20.1712 16.6542 19.7807 16.2637Z" fill="#222222"/>
</svg>
