<svg width="24" height="25" viewBox="0 0 24 25" fill="none" xmlns="http://www.w3.org/2000/svg">
<path d="M13.9946 12.6484C13.9946 13.753 13.0992 14.6484 11.9946 14.6484C10.8901 14.6484 9.99463 13.753 9.99463 12.6484C9.99463 11.5439 10.8901 10.6484 11.9946 10.6484C13.0992 10.6484 13.9946 11.5439 13.9946 12.6484Z" fill="#222222"/>
<path fill-rule="evenodd" clip-rule="evenodd" d="M4.22461 9.19235C4.61513 9.58287 4.61513 10.216 4.22461 10.6066L2.10329 12.7279L4.22461 14.8492C4.61513 15.2397 4.61513 15.8729 4.22461 16.2634C3.83409 16.6539 3.20092 16.6539 2.8104 16.2634L0.689076 14.1421C-0.0887415 13.3643 -0.0887415 12.0915 0.689076 11.3137L2.8104 9.19235C3.20092 8.80182 3.83409 8.80182 4.22461 9.19235ZM8.46725 21.9203C8.07673 21.5297 8.07673 20.8966 8.46725 20.5061C8.85777 20.1155 9.49094 20.1155 9.88146 20.5061L12.0028 22.6274L14.1241 20.5061C14.5146 20.1155 15.1478 20.1155 15.5383 20.5061C15.9288 20.8966 15.9288 21.5297 15.5383 21.9203L13.417 24.0416C12.6392 24.8194 11.3664 24.8194 10.5886 24.0416L8.46725 21.9203ZM10.5886 1.41417L8.46725 3.53549C8.07673 3.92602 8.07673 4.55918 8.46725 4.94971C8.85777 5.34023 9.49094 5.34023 9.88146 4.94971L12.0028 2.82839L14.1241 4.94971C14.5146 5.34023 15.1478 5.34023 15.5383 4.94971C15.9288 4.55918 15.9288 3.92602 15.5383 3.53549L13.417 1.41417C12.6392 0.636356 11.3664 0.636356 10.5886 1.41417ZM19.781 16.2634C19.3904 15.8729 19.3904 15.2397 19.781 14.8492L21.9023 12.7279L19.781 10.6066C19.3904 10.216 19.3904 9.58287 19.781 9.19235C20.1715 8.80182 20.8046 8.80182 21.1952 9.19235L23.3165 11.3137C24.0943 12.0915 24.0943 13.3643 23.3165 14.1421L21.1952 16.2634C20.8046 16.6539 20.1715 16.6539 19.781 16.2634Z" fill="#222222"/>
</svg>
