<svg width="24" height="24" viewBox="0 0 24 24" fill="none" xmlns="http://www.w3.org/2000/svg">
<path fill-rule="evenodd" clip-rule="evenodd" d="M4.51402 3.16674C3.84312 3.31921 3.31922 3.84312 3.16674 4.51402C2.94442 5.4922 2.94442 6.5078 3.16674 7.48598C3.31922 8.15688 3.84312 8.68079 4.51402 8.83326C5.4922 9.05558 6.5078 9.05558 7.48598 8.83326C7.65065 8.79584 7.80646 8.73604 7.9501 8.65719L9.34282 10.0499C9.26396 10.1935 9.20416 10.3494 9.16674 10.514C8.94442 11.4922 8.94442 12.5078 9.16674 13.486C9.20208 13.6415 9.25738 13.7891 9.32984 13.926L7.92602 15.3298C7.7891 15.2574 7.64149 15.2021 7.48598 15.1667C6.5078 14.9444 5.4922 14.9444 4.51402 15.1667C3.84312 15.3192 3.31921 15.8431 3.16674 16.514C2.94442 17.4922 2.94442 18.5078 3.16674 19.486C3.31921 20.1569 3.84312 20.6808 4.51402 20.8333C5.4922 21.0556 6.5078 21.0556 7.48598 20.8333C8.15688 20.6808 8.68079 20.1569 8.83326 19.486C9.05558 18.5078 9.05558 17.4922 8.83326 16.514C8.79377 16.3402 8.72935 16.1763 8.64391 16.0262L10.0262 14.6439C10.1763 14.7293 10.3402 14.7938 10.514 14.8333C11.4922 15.0556 12.5078 15.0556 13.486 14.8333C13.6506 14.7958 13.8065 14.736 13.9501 14.6572L15.3428 16.0499C15.264 16.1935 15.2042 16.3494 15.1667 16.514C14.9444 17.4922 14.9444 18.5078 15.1667 19.486C15.3192 20.1569 15.8431 20.6808 16.514 20.8333C17.4922 21.0556 18.5078 21.0556 19.486 20.8333C20.1569 20.6808 20.6808 20.1569 20.8333 19.486C21.0556 18.5078 21.0556 17.4922 20.8333 16.514C20.6808 15.8431 20.1569 15.3192 19.486 15.1667C18.5078 14.9444 17.4922 14.9444 16.514 15.1667C16.3494 15.2042 16.1936 15.264 16.0499 15.3428L14.6572 13.9501C14.736 13.8064 14.7958 13.6506 14.8333 13.486C15.0556 12.5078 15.0556 11.4922 14.8333 10.514C14.7938 10.3402 14.7294 10.1763 14.6439 10.0262L16.0262 8.64391C16.1763 8.72935 16.3402 8.79377 16.514 8.83326C17.4922 9.05558 18.5078 9.05558 19.486 8.83326C20.1569 8.68079 20.6808 8.15688 20.8333 7.48598C21.0556 6.5078 21.0556 5.4922 20.8333 4.51402C20.6808 3.84312 20.1569 3.31921 19.486 3.16674C18.5078 2.94442 17.4922 2.94442 16.514 3.16674C15.8431 3.31921 15.3192 3.84312 15.1667 4.51402C14.9444 5.4922 14.9444 6.5078 15.1667 7.48598C15.2021 7.64149 15.2574 7.7891 15.3298 7.92601L13.926 9.32983C13.7891 9.25738 13.6415 9.20208 13.486 9.16674C12.5078 8.94442 11.4922 8.94442 10.514 9.16674C10.3494 9.20416 10.1936 9.26395 10.0499 9.3428L8.6572 7.95008C8.73605 7.80644 8.79584 7.65064 8.83327 7.48598C9.05558 6.5078 9.05558 5.4922 8.83327 4.51402C8.68079 3.84312 8.15689 3.31921 7.48598 3.16674C6.5078 2.94442 5.4922 2.94442 4.51402 3.16674ZM4.76335 4.26376C4.51457 4.3203 4.3203 4.51457 4.26376 4.76335C4.07875 5.5774 4.07875 6.4226 4.26376 7.23665C4.3203 7.48543 4.51457 7.6797 4.76335 7.73624C5.5774 7.92125 6.4226 7.92125 7.23666 7.73624C7.48543 7.6797 7.6797 7.48543 7.73624 7.23665C7.92126 6.4226 7.92126 5.5774 7.73624 4.76335C7.6797 4.51457 7.48543 4.3203 7.23666 4.26376C6.4226 4.07875 5.5774 4.07875 4.76335 4.26376ZM16.2638 4.76335C16.3203 4.51457 16.5146 4.3203 16.7633 4.26376C17.5774 4.07875 18.4226 4.07875 19.2367 4.26376C19.4854 4.3203 19.6797 4.51457 19.7362 4.76335C19.9213 5.5774 19.9213 6.4226 19.7362 7.23665C19.6797 7.48543 19.4854 7.6797 19.2367 7.73624C18.4226 7.92125 17.5774 7.92125 16.7633 7.73624C16.5146 7.6797 16.3203 7.48543 16.2638 7.23665C16.0787 6.4226 16.0787 5.5774 16.2638 4.76335ZM16.2638 16.7633C16.3203 16.5146 16.5146 16.3203 16.7633 16.2638C17.5774 16.0787 18.4226 16.0787 19.2367 16.2638C19.4854 16.3203 19.6797 16.5146 19.7362 16.7633C19.9213 17.5774 19.9213 18.4226 19.7362 19.2367C19.6797 19.4854 19.4854 19.6797 19.2367 19.7362C18.4226 19.9213 17.5774 19.9213 16.7633 19.7362C16.5146 19.6797 16.3203 19.4854 16.2638 19.2367C16.0787 18.4226 16.0787 17.5774 16.2638 16.7633ZM4.76334 16.2638C4.51457 16.3203 4.3203 16.5146 4.26376 16.7633C4.07875 17.5774 4.07875 18.4226 4.26376 19.2367C4.3203 19.4854 4.51457 19.6797 4.76334 19.7362C5.5774 19.9213 6.4226 19.9213 7.23665 19.7362C7.48543 19.6797 7.6797 19.4854 7.73624 19.2367C7.92125 18.4226 7.92125 17.5774 7.73624 16.7633C7.6797 16.5146 7.48543 16.3203 7.23665 16.2638C6.4226 16.0787 5.5774 16.0787 4.76334 16.2638Z" fill="#222222"/>
</svg>
