<svg width="24" height="24" viewBox="0 0 24 24" fill="none" xmlns="http://www.w3.org/2000/svg">
<path fill-rule="evenodd" clip-rule="evenodd" d="M19.7778 3H4.22222C2.98889 3 2 4.0125 2 5.25V18.75C2 19.9875 2.98889 21 4.22222 21H19.7778C21 21 22 19.9875 22 18.75V5.25C22 4.0125 21.0111 3 19.7778 3ZM20.3333 6.9375H3.66667V18.1875C3.66667 18.8088 4.16413 19.3125 4.77778 19.3125H19.2222C19.8359 19.3125 20.3333 18.8088 20.3333 18.1875V6.9375Z" fill="#222222"/>
<path d="M9.98836 16.4617C9.85262 16.8237 10.036 17.2271 10.398 17.3629C10.76 17.4986 11.1635 17.3152 11.2992 16.9532L13.9481 9.88958C14.0838 9.5276 13.9004 9.12411 13.5385 8.98836C13.1765 8.85262 12.773 9.03602 12.6372 9.39801L9.98836 16.4617Z" fill="#222222"/>
<path d="M9.00003 16.1527C9.29046 16.5012 9.24337 17.0192 8.89486 17.3096C8.54635 17.6001 8.02838 17.553 7.73796 17.2045L4.88082 13.7759C4.62697 13.4713 4.62697 13.0288 4.88082 12.7242L7.73796 9.29561C8.02838 8.9471 8.54635 8.90001 8.89486 9.19044C9.24337 9.48086 9.29046 9.99883 9.00003 10.3473L6.58112 13.25L9.00003 16.1527Z" fill="#222222"/>
<path d="M14.8808 10.3231C14.5904 9.97462 14.6375 9.45665 14.986 9.16623C15.3345 8.8758 15.8525 8.92289 16.1429 9.2714L19 12.7C19.2539 13.0046 19.2539 13.4471 19 13.7517L16.1429 17.1802C15.8525 17.5288 15.3345 17.5758 14.986 17.2854C14.6375 16.995 14.5904 16.477 14.8808 16.1285L17.2997 13.2258L14.8808 10.3231Z" fill="#222222"/>
</svg>
