<svg width="24" height="24" viewBox="0 0 24 24" fill="none" xmlns="http://www.w3.org/2000/svg">
<path fill-rule="evenodd" clip-rule="evenodd" d="M19.7778 3H4.22222C2.98889 3 2 4.0125 2 5.25V18.75C2 19.9875 2.98889 21 4.22222 21H19.7778C21 21 22 19.9875 22 18.75V5.25C22 4.0125 21.0111 3 19.7778 3ZM20.3333 6.9375H3.66667V18.1875C3.66667 18.8088 4.16413 19.3125 4.77778 19.3125H19.2222C19.8359 19.3125 20.3333 18.8088 20.3333 18.1875V6.9375Z" fill="#222222"/>
<path d="M9.98812 16.4614C9.85237 16.8234 10.0358 17.2269 10.3978 17.3626C10.7597 17.4984 11.1632 17.315 11.299 16.953L13.9479 9.88934C14.0836 9.52735 13.9002 9.12386 13.5382 8.98812C13.1762 8.85237 12.7727 9.03578 12.637 9.39776L9.98812 16.4614Z" fill="#222222"/>
<path d="M9.00003 16.1527C9.29046 16.5012 9.24337 17.0192 8.89486 17.3096C8.54635 17.6001 8.02838 17.553 7.73796 17.2045L4.88082 13.7759C4.62697 13.4713 4.62697 13.0288 4.88082 12.7242L7.73796 9.29561C8.02838 8.9471 8.54635 8.90001 8.89486 9.19044C9.24337 9.48086 9.29046 9.99883 9.00003 10.3473L6.58112 13.25L9.00003 16.1527Z" fill="#222222"/>
<path d="M14.8808 10.3229C14.5904 9.97437 14.6375 9.45641 14.986 9.16598C15.3345 8.87556 15.8525 8.92264 16.1429 9.27116L19 12.6997C19.2539 13.0043 19.2539 13.4468 19 13.7514L16.1429 17.18C15.8525 17.5285 15.3345 17.5756 14.986 17.2852C14.6375 16.9947 14.5904 16.4768 14.8808 16.1283L17.2997 13.2256L14.8808 10.3229Z" fill="#222222"/>
</svg>
