<svg width="24" height="24" viewBox="0 0 24 24" fill="none" xmlns="http://www.w3.org/2000/svg">
<path d="M21.8803 7.42815C22.4683 7.42815 22.9363 6.91873 22.7774 6.35262C22.2101 4.33233 20.6117 2.74346 18.5858 2.18977C18.0215 2.03555 17.5162 2.50158 17.5148 3.08651L17.5072 6.42586C17.5059 6.97904 17.954 7.42815 18.5072 7.42815H21.8803Z" fill="#222222"/>
<path d="M16.25 3.13244C16.25 2.53106 15.7181 2.05983 15.1461 2.24549C12.7397 3.02651 11 5.28688 11 7.95358C11 11.2673 13.6863 13.9536 17 13.9536C19.6667 13.9536 21.9271 12.2139 22.7081 9.80752C22.8937 9.23552 22.4225 8.70358 21.8211 8.70358H17.25C16.6977 8.70358 16.25 8.25586 16.25 7.70358V3.13244Z" fill="#222222"/>
<path d="M9.75 21.25C9.75 22.2165 8.9665 23 8 23C7.0335 23 6.25 22.2165 6.25 21.25V10.75C6.25 9.7835 7.0335 9 8 9C8.9665 9 9.75 9.7835 9.75 10.75V21.25Z" fill="#222222"/>
<path d="M15 21.25C15 22.2165 14.2165 23 13.25 23C12.2835 23 11.5 22.2165 11.5 21.25V17.75C11.5 16.7835 12.2835 16 13.25 16C14.2165 16 15 16.7835 15 17.75V21.25Z" fill="#222222"/>
<path d="M2.75 13.375C3.7165 13.375 4.5 14.1585 4.5 15.125V21.25C4.5 22.2165 3.7165 23 2.75 23C1.7835 23 1 22.2165 1 21.25V15.125C1 14.1585 1.7835 13.375 2.75 13.375Z" fill="#222222"/>
</svg>
