<svg width="24" height="24" viewBox="0 0 24 24" fill="none" xmlns="http://www.w3.org/2000/svg">
<path d="M15 6C15 4.89543 15.8954 4 17 4H21C22.1046 4 23 4.89543 23 6V10C23 11.1046 22.1046 12 21 12H17C15.8954 12 15 11.1046 15 10V8.78822C13.4425 9.02873 12.25 10.3751 12.25 12V14.5C12.25 17.1234 10.1234 19.25 7.5 19.25H6.31253C5.9125 20.2743 4.91599 21 3.75 21C2.23122 21 1 19.7688 1 18.25C1 16.7312 2.23122 15.5 3.75 15.5C5.09803 15.5 6.21953 16.4699 6.45466 17.75H7.5C9.29493 17.75 10.75 16.2949 10.75 14.5V12C10.75 10.7428 11.2384 9.59965 12.0359 8.75H6.31253C5.9125 9.77434 4.91599 10.5 3.75 10.5C2.23122 10.5 1 9.26878 1 7.75C1 6.23122 2.23122 5 3.75 5C5.09803 5 6.21953 5.96994 6.45466 7.25H15V6Z" fill="#222222"/>
</svg>
