<svg width="24" height="24" viewBox="0 0 24 24" fill="none" xmlns="http://www.w3.org/2000/svg">
<path fill-rule="evenodd" clip-rule="evenodd" d="M8 2C4.68629 2 2 4.68629 2 8V16C2 19.3137 4.68629 22 8 22H16C19.3137 22 22 19.3137 22 16V8C22 4.68629 19.3137 2 16 2H8ZM12.5218 16.5063V7.49401L15.1523 9.44977C15.3773 9.61706 15.7056 9.58315 15.8856 9.37402C16.0656 9.16489 16.0291 8.85974 15.8041 8.69245L12.3362 6.11413C12.2538 6.04951 12.1496 6.00819 12.0352 6.00112C11.9083 5.99311 11.7788 6.02816 11.6738 6.10627L8.19582 8.69247C7.97082 8.85977 7.93435 9.16493 8.11436 9.37404C8.29437 9.58316 8.62269 9.61706 8.84769 9.44975L11.4782 7.49371L11.4782 16.506L8.8477 14.5502C8.62269 14.3829 8.29437 14.4169 8.11438 14.626C7.93438 14.8351 7.97087 15.1403 8.19588 15.3076L11.6637 17.8859C11.7462 17.9505 11.8504 17.9918 11.9648 17.9989C12.0917 18.0069 12.2212 17.9718 12.3262 17.8937L15.8042 15.3075C16.0292 15.1402 16.0657 14.8351 15.8856 14.626C15.7056 14.4168 15.3773 14.3829 15.1523 14.5502L12.5218 16.5063Z" fill="#222222"/>
</svg>
