<svg width="24" height="24" viewBox="0 0 24 24" fill="none" xmlns="http://www.w3.org/2000/svg">
<path fill-rule="evenodd" clip-rule="evenodd" d="M18.0561 13.8C15.7054 13.8 13.7998 15.7057 13.7998 18.0564C13.7998 20.4071 15.7054 22.3127 18.0561 22.3127C19.0221 22.3127 19.9132 21.9908 20.6276 21.4484L22.2092 23.0301C22.4358 23.2567 22.8032 23.2567 23.0298 23.0301C23.2565 22.8035 23.2565 22.4361 23.0298 22.2094L21.4482 20.6278C21.9905 19.9135 22.3125 19.0223 22.3125 18.0564C22.3125 15.7057 20.4069 13.8 18.0561 13.8ZM14.9604 18.0564C14.9604 16.3466 16.3464 14.9606 18.0561 14.9606C19.7659 14.9606 21.1519 16.3466 21.1519 18.0564C21.1519 19.7661 19.7659 21.1522 18.0561 21.1522C16.3464 21.1522 14.9604 19.7661 14.9604 18.0564Z" fill="#222222"/>
<path fill-rule="evenodd" clip-rule="evenodd" d="M12.429 20.1819H4.90936C4.60811 20.1819 4.3639 19.9377 4.3639 19.6364V8.39214C4.3639 7.97432 4.52373 7.57233 4.81061 7.26858L7.58494 4.33105C7.89407 4.00374 8.32439 3.81825 8.7746 3.81825H19.0912C19.3924 3.81825 19.6366 4.06246 19.6366 4.3637V12.2398C20.2249 12.4123 20.7755 12.6731 21.273 13.0069V4.3637C21.273 3.15872 20.2962 2.18188 19.0912 2.18188H8.7746C7.87418 2.18188 7.01354 2.55286 6.39528 3.20748L3.62095 6.14501C3.04718 6.75253 2.72754 7.55651 2.72754 8.39214V19.6364C2.72754 20.8414 3.70437 21.8182 4.90936 21.8182H13.4198C13.0071 21.3336 12.6706 20.7819 12.429 20.1819ZM7.81818 7C7.36631 7 7 7.36631 7 7.81818C7 8.27005 7.36631 8.63636 7.81818 8.63636H14.6818C15.1337 8.63636 15.5 8.27005 15.5 7.81818C15.5 7.36631 15.1337 7 14.6818 7H7.81818ZM7 11.3182C7 10.8663 7.36631 10.5 7.81818 10.5H10.3636C10.8155 10.5 11.1818 10.8663 11.1818 11.3182C11.1818 11.7701 10.8155 12.1364 10.3636 12.1364H7.81818C7.36631 12.1364 7 11.7701 7 11.3182Z" fill="#222222"/>
</svg>
