<svg width="24" height="24" viewBox="0 0 24 24" fill="none" xmlns="http://www.w3.org/2000/svg">
<circle cx="12" cy="7" r="2.35" stroke="#222222" stroke-width="1.3"/>
<path fill-rule="evenodd" clip-rule="evenodd" d="M12.0001 8.7998C12.3867 8.7998 12.7001 9.11321 12.7001 9.4998V13.1719L15.4334 15.4497C15.6101 15.3851 15.801 15.3498 16.0001 15.3498H19.0001C19.9114 15.3498 20.6501 16.0885 20.6501 16.9998V19.9998C20.6501 20.9111 19.9114 21.6498 19.0001 21.6498H16.0001C15.0888 21.6498 14.3501 20.9111 14.3501 19.9998V16.9998C14.3501 16.8063 14.3834 16.6206 14.4446 16.4481L12.0001 14.411L9.5556 16.4481C9.61679 16.6206 9.6501 16.8063 9.6501 16.9998V19.9998C9.6501 20.9111 8.91137 21.6498 8.0001 21.6498H5.0001C4.08883 21.6498 3.3501 20.9111 3.3501 19.9998V16.9998C3.3501 16.0885 4.08883 15.3498 5.0001 15.3498H8.0001C8.1992 15.3498 8.39008 15.3851 8.5668 15.4497L11.3001 13.1719V9.4998C11.3001 9.11321 11.6135 8.7998 12.0001 8.7998ZM5.0001 16.6498C4.8068 16.6498 4.6501 16.8065 4.6501 16.9998V19.9998C4.6501 20.1931 4.8068 20.3498 5.0001 20.3498H8.0001C8.1934 20.3498 8.3501 20.1931 8.3501 19.9998V16.9998C8.3501 16.8065 8.1934 16.6498 8.0001 16.6498H5.0001ZM15.6501 16.9998C15.6501 16.8065 15.8068 16.6498 16.0001 16.6498H19.0001C19.1934 16.6498 19.3501 16.8065 19.3501 16.9998V19.9998C19.3501 20.1931 19.1934 20.3498 19.0001 20.3498H16.0001C15.8068 20.3498 15.6501 20.1931 15.6501 19.9998V16.9998Z" fill="#222222"/>
</svg>
