<svg width="24" height="24" viewBox="0 0 24 24" fill="none" xmlns="http://www.w3.org/2000/svg">
<path fill-rule="evenodd" clip-rule="evenodd" d="M7.49143 3.45719C7.14568 2.60217 6.30783 2 5.33019 2C4.04326 2 3 3.04326 3 4.33019C3 5.61712 4.04326 6.66038 5.33019 6.66038C6.37989 6.66038 7.26834 5.96602 7.55953 5.01073L7.63695 4.75676H9.13212C9.7164 4.75676 10.216 5.1583 10.3512 5.71417L10.3536 5.72415L10.3759 5.84571L11.0155 10.9623H7.61236L7.52788 10.7232C7.20782 9.81772 6.34421 9.16981 5.33019 9.16981C4.04326 9.16981 3 10.2131 3 11.5C3 12.7869 4.04326 13.8302 5.33019 13.8302C6.34421 13.8302 7.20782 13.1823 7.52788 12.2768L7.61236 12.0377H11.0016L10.3759 17.0431L10.3536 17.1647L10.3512 17.1747C10.216 17.7305 9.7164 18.1321 9.13212 18.1321H7.61236L7.52788 17.8931C7.20782 16.9875 6.34421 16.3396 5.33019 16.3396C4.04326 16.3396 3 17.3829 3 18.6698C3 19.9567 4.04326 21 5.33019 21C6.34421 21 7.20782 20.3521 7.52788 19.4466L7.61236 19.2075H9.12677L9.27761 19.2031C10.3881 19.1344 11.3046 18.284 11.4443 17.1664L12.0854 12.0377H15.5952L15.6797 12.2768C15.9997 13.1823 16.8633 13.8302 17.8774 13.8302C19.1643 13.8302 20.2075 12.7869 20.2075 11.5C20.2075 10.2131 19.1643 9.16981 17.8774 9.16981C16.8633 9.16981 15.9997 9.81772 15.6797 10.7232L15.5952 10.9623H12.0993L11.4443 5.72245C11.3046 4.60482 10.3881 3.75438 9.27759 3.68577L9.1268 3.68129H7.58205L7.49143 3.45719ZM5.33019 3.07547C6.02315 3.07547 6.58491 3.63723 6.58491 4.33019C6.58491 5.02315 6.02315 5.58491 5.33019 5.58491C4.63723 5.58491 4.07547 5.02315 4.07547 4.33019C4.07547 3.63723 4.63723 3.07547 5.33019 3.07547ZM5.33019 10.2453C6.02315 10.2453 6.58491 10.807 6.58491 11.5C6.58491 12.193 6.02315 12.7547 5.33019 12.7547C4.63723 12.7547 4.07547 12.193 4.07547 11.5C4.07547 10.807 4.63723 10.2453 5.33019 10.2453ZM5.33019 17.4151C6.02315 17.4151 6.58491 17.9768 6.58491 18.6698C6.58491 19.3628 6.02315 19.9245 5.33019 19.9245C4.63723 19.9245 4.07547 19.3628 4.07547 18.6698C4.07547 17.9768 4.63723 17.4151 5.33019 17.4151Z" fill="#222222"/>
</svg>
