<svg width="24" height="24" viewBox="0 0 24 24" fill="none" xmlns="http://www.w3.org/2000/svg">
<path fill-rule="evenodd" clip-rule="evenodd" d="M16.1177 3.50321C16.4744 2.62119 17.3387 2 18.3472 2C19.6748 2 20.751 3.0762 20.751 4.40377C20.751 5.73133 19.6748 6.80754 18.3472 6.80754C17.2644 6.80754 16.3479 6.09126 16.0475 5.10579L15.9676 4.84381H14.4252C13.8225 4.84381 13.3072 5.25803 13.1677 5.83145L13.1652 5.84175L13.1422 5.96715L12.4824 11.2453H15.993L16.0801 10.9987C16.4103 10.0646 17.3012 9.39621 18.3472 9.39621C19.6748 9.39621 20.751 10.4724 20.751 11.8C20.751 13.1275 19.6748 14.2038 18.3472 14.2038C17.3012 14.2038 16.4103 13.5354 16.0801 12.6013L15.993 12.3547H12.4968L13.1422 17.5181L13.1652 17.6435L13.1677 17.6538C13.3072 18.2273 13.8225 18.6415 14.4252 18.6415H15.993L16.0801 18.3949C16.4103 17.4608 17.3012 16.7924 18.3472 16.7924C19.6748 16.7924 20.751 17.8686 20.751 19.1962C20.751 20.5238 19.6748 21.6 18.3472 21.6C17.3012 21.6 16.4103 20.9316 16.0801 19.9975L15.993 19.7509H14.4307L14.2751 19.7463C13.1296 19.6755 12.1841 18.7982 12.04 17.6453L11.3787 12.3547H7.75807L7.67092 12.6013C7.34076 13.5354 6.44987 14.2038 5.40384 14.2038C4.07627 14.2038 3.00007 13.1275 3.00007 11.8C3.00007 10.4724 4.07627 9.39621 5.40384 9.39621C6.44987 9.39621 7.34076 10.0646 7.67092 10.9987L7.75807 11.2453H11.3644L12.04 5.84C12.1841 4.68707 13.1296 3.80977 14.2752 3.739L14.4307 3.73438H16.0242L16.1177 3.50321ZM18.3472 3.10943C17.6324 3.10943 17.0529 3.68893 17.0529 4.40377C17.0529 5.11861 17.6324 5.69811 18.3472 5.69811C19.062 5.69811 19.6415 5.11861 19.6415 4.40377C19.6415 3.68893 19.062 3.10943 18.3472 3.10943ZM18.3472 10.5056C17.6324 10.5056 17.0529 11.0851 17.0529 11.8C17.0529 12.5148 17.6324 13.0943 18.3472 13.0943C19.062 13.0943 19.6415 12.5148 19.6415 11.8C19.6415 11.0851 19.062 10.5056 18.3472 10.5056ZM18.3472 17.9019C17.6324 17.9019 17.0529 18.4813 17.0529 19.1962C17.0529 19.911 17.6324 20.4905 18.3472 20.4905C19.062 20.4905 19.6415 19.911 19.6415 19.1962C19.6415 18.4813 19.062 17.9019 18.3472 17.9019Z" fill="#222222"/>
</svg>
