<svg width="24" height="24" viewBox="0 0 24 24" fill="none" xmlns="http://www.w3.org/2000/svg">
<path fill-rule="evenodd" clip-rule="evenodd" d="M11 4L11 20C11 20.55 10.55 21 10 21H4C3.45 21 3 20.55 3 20L3 4C3 3.45 3.45 3 4 3H10C10.55 3 11 3.45 11 4ZM7 6C6.175 6 5.5 6.675 5.5 7.5C5.5 8.325 6.175 9 7 9C7.825 9 8.5 8.325 8.5 7.5C8.5 6.675 7.825 6 7 6Z" fill="#222222"/>
<path fill-rule="evenodd" clip-rule="evenodd" d="M21 4L21 20C21 20.55 20.55 21 20 21H14C13.45 21 13 20.55 13 20V4C13 3.45 13.45 3 14 3H20C20.55 3 21 3.45 21 4ZM17 5.91405C16.175 5.91405 15.5 6.58905 15.5 7.41405C15.5 8.23905 16.175 8.91405 17 8.91405C17.825 8.91405 18.5 8.23905 18.5 7.41405C18.5 6.58905 17.825 5.91405 17 5.91405Z" fill="#222222"/>
</svg>
