<svg width="24" height="24" viewBox="0 0 24 24" fill="none" xmlns="http://www.w3.org/2000/svg">
<path d="M11.201 10.9883C9.85738 11.2858 8.85245 12.4842 8.85245 13.9174C8.85245 14.2917 8.921 14.65 9.04624 14.9804L5.14812 17.6262L4.28162 16.3495C4.08381 16.0581 3.67757 16.0686 3.5519 16.3684L1.85245 20.4226C1.72775 20.7201 1.97272 21.081 2.29522 21.0749L6.69042 20.9924C7.01543 20.9863 7.17517 20.6127 6.97736 20.3213L6.11086 19.0446L10.0889 16.3445C10.5839 16.7048 11.1934 16.9174 11.8525 16.9174C12.5866 16.9174 13.2592 16.6536 13.7807 16.2157L17.9485 19.0446L17.082 20.3213C16.8842 20.6127 17.0439 20.9863 17.369 20.9924L21.7642 21.0749C22.0867 21.081 22.3316 20.7201 22.2069 20.4226L20.5075 16.3684C20.3818 16.0686 19.9756 16.0581 19.7778 16.3495L18.9113 17.6262L14.7251 14.7849C14.8079 14.5103 14.8525 14.219 14.8525 13.9174C14.8525 12.6347 14.0475 11.5401 12.9153 11.1111L11.201 10.9883Z" fill="#222222"/>
<path d="M15.1016 13.4985C15.1016 15.4315 13.5346 16.9985 11.6016 16.9985C9.66857 16.9985 8.10156 15.4315 8.10156 13.4985C8.10156 11.5655 9.66857 9.99854 11.6016 9.99854C13.5346 9.99854 15.1016 11.5655 15.1016 13.4985Z" fill="#222222"/>
<path d="M14.3516 5.8484C14.5284 6.1212 14.3081 6.46265 13.9559 6.46174L12.3118 6.4575L12.3119 11.2065C12.3119 11.4554 12.0432 11.6572 11.7119 11.6572C11.3805 11.6572 10.6679 11.4554 10.6679 11.2065L10.6678 6.45326L9.15572 6.44936C8.80349 6.44845 8.58491 6.10587 8.76309 5.83398L11.1727 2.15723C11.3495 1.88745 11.7857 1.88857 11.9611 2.15926L14.3516 5.8484Z" fill="#222222"/>
</svg>
