<svg width="24" height="24" viewBox="0 0 24 24" fill="none" xmlns="http://www.w3.org/2000/svg">
<path d="M11.201 10.9885C9.85738 11.286 8.85245 12.4845 8.85245 13.9176C8.85245 14.2919 8.921 14.6502 9.04624 14.9806L5.14812 17.6264L4.28162 16.3498C4.08381 16.0584 3.67757 16.0689 3.5519 16.3686L1.85245 20.4228C1.72775 20.7203 1.97272 21.0812 2.29522 21.0752L6.69042 20.9927C7.01543 20.9866 7.17517 20.6129 6.97736 20.3215L6.11086 19.0449L10.0889 16.3448C10.5839 16.7051 11.1934 16.9176 11.8525 16.9176C12.5866 16.9176 13.2592 16.6539 13.7807 16.216L17.9485 19.0449L17.082 20.3215C16.8842 20.6129 17.0439 20.9866 17.369 20.9927L21.7642 21.0752C22.0867 21.0812 22.3316 20.7203 22.2069 20.4228L20.5075 16.3686C20.3818 16.0689 19.9756 16.0584 19.7778 16.3498L18.9113 17.6264L14.7251 14.7851C14.8079 14.5105 14.8525 14.2193 14.8525 13.9176C14.8525 12.635 14.0475 11.5404 12.9153 11.1113L11.201 10.9885Z" fill="#222222"/>
<path d="M15.1015 13.4987C15.1015 15.4317 13.5345 16.9987 11.6015 16.9987C9.66853 16.9987 8.10153 15.4317 8.10153 13.4987C8.10153 11.5657 9.66853 9.99867 11.6015 9.99867C13.5345 9.99867 15.1015 11.5657 15.1015 13.4987Z" fill="#222222"/>
<path d="M14.3518 5.84865C14.5286 6.12145 14.3083 6.4629 13.956 6.46199L12.312 6.45775L12.312 11.2068C12.312 11.4557 12.0434 11.6575 11.712 11.6575C11.3807 11.6575 10.668 11.4557 10.668 11.2068L10.668 6.45351L9.15589 6.44961C8.80366 6.4487 8.58509 6.10611 8.76327 5.83423L11.1728 2.15747C11.3496 1.88769 11.7858 1.88882 11.9613 2.15951L14.3518 5.84865Z" fill="#222222"/>
</svg>
