<svg width="24" height="24" viewBox="0 0 24 24" fill="none" xmlns="http://www.w3.org/2000/svg">
<path fill-rule="evenodd" clip-rule="evenodd" d="M17.0351 17.6567C16.5303 17.6567 16.2774 17.0463 16.6344 16.6893L18.383 14.9407L13.4999 10.0576L10.207 13.3505C10.1556 13.4019 10.0999 13.4466 10.0411 13.4846C10.0341 13.492 10.027 13.4993 10.0198 13.5065C9.62923 13.897 8.99607 13.897 8.60554 13.5065L2.70696 7.60792C2.31643 7.21739 2.31643 6.58423 2.70696 6.1937C3.09748 5.80318 3.73065 5.80318 4.12117 6.1937L9.32827 11.4008L12.7928 7.93629C13.1833 7.54576 13.8165 7.54576 14.207 7.93629L14.2097 7.93902L14.2127 7.942L19.7972 13.5265L21.4999 11.8239C21.8569 11.4669 22.4673 11.7197 22.4673 12.2246V17.09C22.4673 17.403 22.2136 17.6567 21.9006 17.6567H17.0351Z" fill="#222222"/>
</svg>
