<svg width="24" height="24" viewBox="0 0 24 24" fill="none" xmlns="http://www.w3.org/2000/svg">
<path fill-rule="evenodd" clip-rule="evenodd" d="M11 21.1667C11 20.7064 10.6269 20.3333 10.1667 20.3333H4.72222C4.4154 20.3333 4.16667 20.0846 4.16667 19.7778V8.32526C4.16667 7.89971 4.32945 7.49027 4.62164 7.18089L7.44736 4.18896C7.76221 3.85559 8.2005 3.66667 8.65904 3.66667H19.1667C19.4735 3.66667 19.7222 3.9154 19.7222 4.22222V11.1667C19.7222 11.6269 20.0953 12 20.5556 12C21.0158 12 21.3889 11.6269 21.3889 11.1667V4.22222C21.3889 2.99492 20.394 2 19.1667 2H8.65904C7.74195 2 6.86537 2.37785 6.23567 3.04459L3.40996 6.03652C2.82556 6.65528 2.5 7.47415 2.5 8.32526V19.7778C2.5 21.0051 3.49492 22 4.72222 22H10.1667C10.6269 22 11 21.6269 11 21.1667Z" fill="#222222"/>
<path d="M20.7442 15.388C21.0733 15.0589 21.0866 14.5387 20.774 14.226C20.4613 13.9134 19.9411 13.9267 19.612 14.2558L17 16.8678L14.388 14.2558C14.0589 13.9267 13.5387 13.9134 13.226 14.226C12.9134 14.5387 12.9267 15.0589 13.2558 15.388L15.8678 18L13.2558 20.612C12.9267 20.9411 12.9134 21.4613 13.226 21.774C13.5387 22.0866 14.0589 22.0733 14.388 21.7442L17 19.1322L19.612 21.7442C19.9411 22.0733 20.4613 22.0866 20.774 21.774C21.0866 21.4613 21.0733 20.9411 20.7442 20.612L18.1322 18L20.7442 15.388Z" fill="#222222"/>
</svg>
