<svg width="26" height="25" viewBox="0 0 26 25" fill="none" xmlns="http://www.w3.org/2000/svg">
<path fill-rule="evenodd" clip-rule="evenodd" d="M8.02075 3.338L11.5849 1.33546C12.3636 0.897971 13.3213 0.887769 14.1097 1.30857L17.9301 3.3478C18.7509 3.7859 19.2609 4.62289 19.2609 5.53197V9.75083C19.2609 10.1019 19.1848 10.4422 19.0442 10.7529C19.3222 10.799 19.5944 10.89 19.8488 11.0258L23.6693 13.065C24.4901 13.5031 25 14.3401 25 15.2492V19.468C25 20.3771 24.4901 21.2141 23.6693 21.6522L19.8488 23.6914C19.0604 24.1122 18.1027 24.102 17.324 23.6645L13.7599 21.662C13.4525 21.4893 13.1908 21.26 12.9857 20.9922C12.7738 21.2584 12.5052 21.4845 12.191 21.6522L8.37054 23.6914C7.58218 24.1122 6.62442 24.102 5.84576 23.6645L2.28162 21.662C1.4884 21.2163 1 20.3942 1 19.5047V15.2125C1 14.323 1.4884 13.5009 2.28162 13.0552L5.84577 11.0527C6.18234 10.8636 6.55238 10.7543 6.92774 10.7252C6.80503 10.4319 6.73913 10.1143 6.73913 9.78752V5.49529C6.73913 4.60578 7.22753 3.78368 8.02075 3.338ZM12.3283 13.1437C12.2835 13.1162 12.2378 13.09 12.191 13.065L9.67277 11.7209L8.53553 11.0819C8.0596 10.8145 7.76655 10.3212 7.76655 9.78752V5.49529C7.76655 5.46873 7.76728 5.44227 7.76872 5.41594L12.3258 8.07896V13.0943C12.3258 13.111 12.3266 13.1275 12.3283 13.1437ZM17.7069 10.8767C17.5757 10.9246 17.4476 10.9832 17.324 11.0527L14.9069 12.4108L13.6145 13.1006C13.5254 13.1481 13.4327 13.1865 13.3378 13.2157C13.3479 13.1768 13.3532 13.1362 13.3532 13.0943V8.09687L18.2334 5.58048V9.75083C18.2334 10.1873 18.0375 10.5961 17.7069 10.8767ZM9.16773 12.5892L7.87541 11.8994C7.40239 11.647 6.82774 11.6531 6.36054 11.9156L2.7964 13.9181C2.65216 13.9992 2.52472 14.1009 2.41715 14.2183C2.46254 14.2301 2.50701 14.2482 2.54929 14.2729L7.11617 16.9417L12.1725 14.3345C12.1118 14.2582 12.0433 14.1874 11.9678 14.1233C11.8366 14.0755 11.7085 14.0168 11.5849 13.9473L9.16773 12.5892ZM15.4119 13.2792L14.2747 13.9181C14.1304 13.9992 14.003 14.1009 13.8954 14.2183C13.9408 14.2301 13.9853 14.2482 14.0275 14.2729L18.5944 16.9417L23.6508 14.3345C23.5237 14.1749 23.3626 14.0392 23.1741 13.9387L19.3537 11.8994C18.9974 11.7093 18.5835 11.6658 18.2013 11.7681C18.1153 11.8287 18.0248 11.8845 17.9301 11.935L15.4119 13.2792ZM12.0997 2.19838L8.53553 4.20092C8.39129 4.28196 8.26385 4.38374 8.15628 4.5011C8.20167 4.51292 8.24614 4.53102 8.28842 4.55573L12.8553 7.2245L17.9117 4.6173C17.7845 4.45765 17.6234 4.32204 17.435 4.22147L13.6145 2.18224C13.1415 1.92976 12.5669 1.93588 12.0997 2.19838ZM12.4783 19.5047V15.306L7.61405 17.8141V22.8115C7.61405 22.8534 7.60873 22.8941 7.5987 22.9329C7.69361 22.9037 7.78631 22.8653 7.87541 22.8178L11.6959 20.7785C12.1326 20.5455 12.4226 20.1242 12.4827 19.6515C12.4798 19.6028 12.4783 19.5539 12.4783 19.5047ZM14.2747 20.7991C13.8455 20.558 13.5651 20.1332 13.5141 19.6607C13.5192 19.597 13.5217 19.5327 13.5217 19.468V15.2492C13.5217 15.2126 13.5209 15.1761 13.5193 15.1398L18.0649 17.7962V22.8115C18.0649 22.845 18.0683 22.8778 18.0748 22.9095C17.9939 22.8804 17.9149 22.8444 17.8388 22.8016L14.2747 20.7991ZM2.02959 15.1331C2.02815 15.1595 2.02742 15.1859 2.02742 15.2125V19.5047C2.02742 20.0384 2.32047 20.5317 2.79639 20.7991L6.36054 22.8016C6.43666 22.8444 6.51564 22.8804 6.59656 22.9095C6.59005 22.8778 6.58663 22.845 6.58663 22.8115V17.7962L2.02959 15.1331ZM19.077 22.9329C19.1719 22.9037 19.2646 22.8653 19.3537 22.8178L23.1741 20.7785C23.6666 20.5157 23.9726 20.0135 23.9726 19.468V15.2977L19.0923 17.8141V22.8115C19.0923 22.8534 19.087 22.8941 19.077 22.9329Z" fill="#222222" stroke="#222222" stroke-width="0.2" stroke-linecap="round"/>
</svg>
