<svg width="24" height="24" viewBox="0 0 24 24" fill="none" xmlns="http://www.w3.org/2000/svg">
<path fill-rule="evenodd" clip-rule="evenodd" d="M10 7.3H6C5.6134 7.3 5.3 7.6134 5.3 8V11C5.3 11.3866 5.6134 11.7 6 11.7H10C10.3866 11.7 10.7 11.3866 10.7 11V8C10.7 7.6134 10.3866 7.3 10 7.3ZM6 6C4.89543 6 4 6.89543 4 8V11C4 12.1046 4.89543 13 6 13H10C11.1046 13 12 12.1046 12 11V8C12 6.89543 11.1046 6 10 6H6Z" fill="#222222"/>
<rect x="1.7" y="3.7" width="20.6" height="15.6" rx="2.3" stroke="#222222" stroke-width="1.4"/>
<path d="M19 7.75C19 8.16421 18.6642 8.5 18.25 8.5H14.75C14.3358 8.5 14 8.16421 14 7.75C14 7.33579 14.3358 7 14.75 7H18.25C18.6642 7 19 7.33579 19 7.75Z" fill="#222222"/>
<path d="M18.2927 12C18.7069 12 19.0427 11.6642 19.0427 11.25C19.0427 10.8358 18.7069 10.5 18.2927 10.5H14.7927C14.3785 10.5 14.0427 10.8358 14.0427 11.25C14.0427 11.6642 14.3785 12 14.7927 12H18.2927Z" fill="#222222"/>
<path d="M18.75 16.5C19.1642 16.5 19.5 16.1642 19.5 15.75C19.5 15.3358 19.1642 15 18.75 15H4.75C4.33579 15 4 15.3358 4 15.75C4 16.1642 4.33579 16.5 4.75 16.5H18.75Z" fill="#222222"/>
</svg>
