<svg width="22" height="22" viewBox="0 0 22 22" fill="none" xmlns="http://www.w3.org/2000/svg">
<path fill-rule="evenodd" clip-rule="evenodd" d="M1 11C1 5.47892 5.47608 1.00175 10.9968 1H11C16.5232 1 21 5.47784 21 11C21 16.5222 16.5232 21 11 21C5.47783 21 1 16.5222 1 11ZM19.5719 10.3C19.2765 6.63246 16.6796 3.61399 13.2264 2.691C14.2234 4.36389 14.9026 7.12847 14.9904 10.3H19.5719ZM19.5719 11.7H14.9904C14.9026 14.8716 14.2234 17.6361 13.2264 19.309C16.6796 18.386 19.2764 15.3676 19.5719 11.7ZM13.5898 10.3C13.5213 7.96117 13.1135 5.91133 12.5286 4.44888C12.2057 3.64167 11.8562 3.08239 11.5398 2.7478C11.2262 2.41617 11.0433 2.4 11 2.4L10.999 2.4C10.9538 2.40027 10.7714 2.41876 10.4602 2.7478C10.1438 3.08239 9.79432 3.64167 9.47144 4.44888C8.88646 5.91133 8.47869 7.96117 8.41021 10.3H13.5898ZM8.41021 11.7H13.5898C13.5213 14.0389 13.1135 16.0887 12.5286 17.5511C12.2057 18.3583 11.8562 18.9176 11.5398 19.2522C11.2262 19.5838 11.0433 19.6 11 19.6C10.9567 19.6 10.7738 19.5838 10.4602 19.2522C10.1438 18.9176 9.79432 18.3583 9.47144 17.5511C8.88647 16.0887 8.4787 14.0389 8.41021 11.7ZM7.00965 10.3C7.09736 7.12855 7.7766 4.36402 8.7735 2.69112C5.32085 3.61426 2.72361 6.63268 2.42809 10.3H7.00965ZM2.42809 11.7H7.00965C7.09737 14.8715 7.77661 17.636 8.7735 19.3089C5.32088 18.3857 2.72366 15.3674 2.42809 11.7Z" fill="#222222"/>
</svg>
