<svg width="24" height="24" viewBox="0 0 24 24" fill="none" xmlns="http://www.w3.org/2000/svg">
<path d="M13.2437 11.7319C13.2437 12.5604 12.5721 13.2319 11.7437 13.2319C10.9152 13.2319 10.2437 12.5604 10.2437 11.7319C10.2437 10.9035 10.9152 10.2319 11.7437 10.2319C12.5721 10.2319 13.2437 10.9035 13.2437 11.7319Z" fill="#222222"/>
<path d="M4.17771 4.24878C-0.0591943 8.48569 -0.0593047 15.3559 4.17779 19.5919C4.50977 19.9238 5.04796 19.9238 5.37987 19.5918C5.71177 19.2598 5.7117 18.7216 5.37971 18.3897C1.8068 14.8177 1.80669 9.02396 5.37979 5.45086C5.71174 5.11892 5.71174 4.58073 5.37979 4.24878C5.04784 3.91684 4.50965 3.91684 4.17771 4.24878Z" fill="#222222"/>
<path d="M19.4512 19.592C23.6881 15.3551 23.6882 8.48489 19.4511 4.24888C19.1191 3.91698 18.5809 3.91705 18.249 4.24904C17.9171 4.58102 17.9172 5.11921 18.2492 5.45112C21.8221 9.02311 21.8222 14.8169 18.2491 18.39C17.9172 18.7219 17.9172 19.2601 18.2491 19.592C18.5811 19.924 19.1193 19.924 19.4512 19.592Z" fill="#222222"/>
<path d="M5 11.739C5 13.4231 5.66898 15.0382 6.85977 16.2291C7.19171 16.561 7.7299 16.561 8.06185 16.2291C8.39381 15.8971 8.39382 15.359 8.06188 15.027C7.18988 14.155 6.7 12.9722 6.7 11.739C6.7 10.5058 7.18988 9.32309 8.06188 8.45105C8.39382 8.1191 8.39381 7.58091 8.06185 7.24897C7.7299 6.91703 7.19171 6.91705 6.85977 7.249C5.66898 8.43985 5 10.055 5 11.739Z" fill="#222222"/>
<path d="M18.311 11.739C18.311 10.0549 17.6421 8.43982 16.4513 7.24897C16.1193 6.91702 15.5811 6.91701 15.2492 7.24895C14.9172 7.58088 14.9172 8.11907 15.2492 8.45103C16.1212 9.32307 16.611 10.5058 16.611 11.739C16.611 12.9722 16.1212 14.1549 15.2492 15.027C14.9172 15.3589 14.9172 15.8971 15.2492 16.2291C15.5811 16.561 16.1193 16.561 16.4513 16.229C17.6421 15.0382 18.311 13.4231 18.311 11.739Z" fill="#222222"/>
</svg>
