<svg width="24" height="24" viewBox="0 0 24 24" fill="none" xmlns="http://www.w3.org/2000/svg">
<path d="M13.2437 11.7322C13.2437 12.5606 12.5721 13.2322 11.7437 13.2322C10.9152 13.2322 10.2437 12.5606 10.2437 11.7322C10.2437 10.9038 10.9152 10.2322 11.7437 10.2322C12.5721 10.2322 13.2437 10.9038 13.2437 11.7322Z" fill="#222222"/>
<path d="M4.17771 4.24903C-0.0591943 8.48593 -0.0593047 15.3562 4.17779 19.5922C4.50977 19.9241 5.04796 19.924 5.37987 19.592C5.71177 19.26 5.7117 18.7218 5.37971 18.3899C1.8068 14.818 1.80669 9.02421 5.37979 5.45111C5.71174 5.11916 5.71174 4.58097 5.37979 4.24903C5.04784 3.91708 4.50965 3.91708 4.17771 4.24903Z" fill="#222222"/>
<path d="M19.451 19.592C23.6879 15.3551 23.688 8.48489 19.4509 4.24888C19.1189 3.91698 18.5807 3.91705 18.2488 4.24904C17.9169 4.58102 17.917 5.11921 18.2489 5.45112C21.8219 9.02311 21.822 14.8169 18.2489 18.39C17.9169 18.7219 17.9169 19.2601 18.2489 19.592C18.5808 19.924 19.119 19.924 19.451 19.592Z" fill="#222222"/>
<path d="M5 11.739C5 13.4231 5.66898 15.0382 6.85977 16.2291C7.19171 16.561 7.7299 16.561 8.06185 16.2291C8.39381 15.8971 8.39382 15.359 8.06188 15.027C7.18988 14.155 6.7 12.9722 6.7 11.739C6.7 10.5058 7.18988 9.32309 8.06188 8.45105C8.39382 8.1191 8.39381 7.58091 8.06185 7.24897C7.7299 6.91703 7.19171 6.91705 6.85977 7.249C5.66898 8.43985 5 10.055 5 11.739Z" fill="#222222"/>
<path d="M18.3108 11.739C18.3108 10.0549 17.6418 8.43982 16.451 7.24897C16.1191 6.91702 15.5809 6.91701 15.2489 7.24895C14.917 7.58088 14.917 8.11907 15.2489 8.45103C16.1209 9.32307 16.6108 10.5058 16.6108 11.739C16.6108 12.9722 16.1209 14.1549 15.2489 15.027C14.917 15.3589 14.917 15.8971 15.2489 16.2291C15.5809 16.561 16.1191 16.561 16.451 16.229C17.6418 15.0382 18.3108 13.4231 18.3108 11.739Z" fill="#222222"/>
</svg>
