<svg width="24" height="24" viewBox="0 0 24 24" fill="none" xmlns="http://www.w3.org/2000/svg">
<path d="M2.19922 3.75C2.19922 3.33579 2.53501 3 2.94922 3H5.25C5.66421 3 6 3.33579 6 3.75C6 4.16421 5.66421 4.5 5.25 4.5H2.94922C2.53501 4.5 2.19922 4.16421 2.19922 3.75Z" fill="#222222"/>
<path d="M21.0547 21.8008C20.6405 21.8008 20.3047 21.465 20.3047 21.0508L20.3047 18.75C20.3047 18.3358 20.6405 18 21.0547 18C21.4689 18 21.8047 18.3358 21.8047 18.75L21.8047 21.0508C21.8047 21.465 21.4689 21.8008 21.0547 21.8008Z" fill="#222222"/>
<path fill-rule="evenodd" clip-rule="evenodd" d="M3.99995 3.19995C4.44178 3.19995 4.79995 3.55812 4.79995 3.99995V19.2H21C21.4418 19.2 21.7999 19.5581 21.7999 20C21.7999 20.4418 21.4418 20.7999 21 20.7999H3.99995C3.55812 20.7999 3.19995 20.4418 3.19995 20V3.99995C3.19995 3.55812 3.55812 3.19995 3.99995 3.19995Z" fill="#222222"/>
<path fill-rule="evenodd" clip-rule="evenodd" d="M20.3579 3.28434C20.753 3.48193 20.9132 3.96247 20.7156 4.35765L16.7156 12.3577C16.6095 12.5698 16.4148 12.724 16.1839 12.7785C15.953 12.833 15.7099 12.7822 15.5201 12.6399L12.2451 10.1836L8.69468 16.3968C8.47547 16.7804 7.98679 16.9137 7.60318 16.6945C7.21956 16.4753 7.08629 15.9866 7.30549 15.603L11.3055 8.60297C11.4193 8.40374 11.6133 8.26299 11.838 8.21648C12.0627 8.16998 12.2965 8.2222 12.4801 8.35988L15.7132 10.7847L19.2845 3.64211C19.4821 3.24693 19.9627 3.08675 20.3579 3.28434Z" fill="#222222"/>
</svg>
