<svg width="24" height="24" viewBox="0 0 24 24" fill="none" xmlns="http://www.w3.org/2000/svg">
<path d="M2.19922 3.75C2.19922 3.33579 2.53501 3 2.94922 3H5.25C5.66421 3 6 3.33579 6 3.75C6 4.16421 5.66421 4.5 5.25 4.5H2.94922C2.53501 4.5 2.19922 4.16421 2.19922 3.75Z" fill="#222222"/>
<path d="M21.0547 21.8008C20.6405 21.8008 20.3047 21.465 20.3047 21.0508L20.3047 18.75C20.3047 18.3358 20.6405 18 21.0547 18C21.4689 18 21.8047 18.3358 21.8047 18.75L21.8047 21.0508C21.8047 21.465 21.4689 21.8008 21.0547 21.8008Z" fill="#222222"/>
<path fill-rule="evenodd" clip-rule="evenodd" d="M4.0002 3.2002C4.44202 3.2002 4.8002 3.55837 4.8002 4.0002V19.2002H21.0002C21.442 19.2002 21.8002 19.5584 21.8002 20.0002C21.8002 20.442 21.442 20.8002 21.0002 20.8002H4.0002C3.55837 20.8002 3.2002 20.442 3.2002 20.0002V4.0002C3.2002 3.55837 3.55837 3.2002 4.0002 3.2002Z" fill="#222222"/>
<path fill-rule="evenodd" clip-rule="evenodd" d="M20.3576 3.28434C20.7528 3.48193 20.913 3.96247 20.7154 4.35765L16.7154 12.3577C16.6093 12.5698 16.4145 12.724 16.1836 12.7785C15.9528 12.833 15.7096 12.7822 15.5198 12.6399L12.2448 10.1836L8.69444 16.3968C8.47523 16.7804 7.98655 16.9137 7.60293 16.6945C7.21932 16.4753 7.08604 15.9866 7.30525 15.603L11.3052 8.60297C11.4191 8.40374 11.613 8.26299 11.8377 8.21648C12.0624 8.16998 12.2963 8.2222 12.4798 8.35988L15.713 10.7847L19.2843 3.64211C19.4819 3.24693 19.9624 3.08675 20.3576 3.28434Z" fill="#222222"/>
</svg>
