<svg width="24" height="24" viewBox="0 0 24 24" fill="none" xmlns="http://www.w3.org/2000/svg">
<path fill-rule="evenodd" clip-rule="evenodd" d="M4.3999 4.9999C4.3999 3.56396 5.56396 2.3999 6.9999 2.3999C8.43584 2.3999 9.5999 3.56396 9.5999 4.9999C9.5999 6.13133 8.87698 7.09494 7.8666 7.45206L7.5999 7.54633V14.5433L8.28172 13.8664C9.05339 13.1003 10.0191 12.6132 11.1863 12.4282L11.6635 12.3582L12.7865 12.2216L13.2106 12.1634L13.608 12.0973L13.9568 12.0248L13.9667 12.0225C14.5733 11.88 15.0628 11.6723 15.4334 11.3006C15.8046 10.9283 16.0121 10.4361 16.1481 9.81709L16.2174 9.50134L15.9232 9.3673C15.0238 8.95748 14.3999 8.05113 14.3999 6.9999C14.3999 5.56396 15.564 4.3999 16.9999 4.3999C18.4358 4.3999 19.5999 5.56396 19.5999 6.9999C19.5999 8.20869 18.7746 9.22573 17.6562 9.51647L17.4125 9.57981L17.3642 9.82693C17.1215 11.0698 16.7064 11.8391 16.0783 12.3538C15.439 12.8776 14.5245 13.1837 13.1815 13.378L12.6993 13.4411L12.6964 13.4414L11.7089 13.563L11.3789 13.6126L11.3759 13.6131C9.88984 13.8482 8.8051 14.707 8.10535 16.2148L7.94957 16.5504L8.27213 16.7318C9.06544 17.1779 9.5999 18.0268 9.5999 18.9999C9.5999 20.4358 8.43584 21.5999 6.9999 21.5999C5.56396 21.5999 4.3999 20.4358 4.3999 18.9999C4.3999 17.8685 5.12283 16.9049 6.1332 16.5477L6.3999 16.4535V7.54633L6.1332 7.45206C5.12283 7.09494 4.3999 6.13133 4.3999 4.9999ZM6.9999 3.5999C6.2267 3.5999 5.5999 4.2267 5.5999 4.9999C5.5999 5.7731 6.2267 6.3999 6.9999 6.3999C7.7731 6.3999 8.3999 5.7731 8.3999 4.9999C8.3999 4.2267 7.7731 3.5999 6.9999 3.5999ZM16.9999 5.5999C16.2267 5.5999 15.5999 6.2267 15.5999 6.9999C15.5999 7.7731 16.2267 8.3999 16.9999 8.3999C17.7731 8.3999 18.3999 7.7731 18.3999 6.9999C18.3999 6.2267 17.7731 5.5999 16.9999 5.5999ZM6.9999 17.5999C6.2267 17.5999 5.5999 18.2267 5.5999 18.9999C5.5999 19.7731 6.2267 20.3999 6.9999 20.3999C7.7731 20.3999 8.3999 19.7731 8.3999 18.9999C8.3999 18.2267 7.7731 17.5999 6.9999 17.5999Z" fill="#222222"/>
</svg>
