<svg width="24" height="24" viewBox="0 0 24 24" fill="none" xmlns="http://www.w3.org/2000/svg">
<path d="M0 10.9999C0 10.5857 0.335786 10.2499 0.75 10.2499H8.25C8.66421 10.2499 9 10.5857 9 10.9999C9 11.4141 8.66421 11.7499 8.25 11.7499H0.75C0.335786 11.7499 0 11.4141 0 10.9999Z" fill="#222222"/>
<path d="M2 13.7499C2 13.3357 2.33579 12.9999 2.75 12.9999H8.25C8.66421 12.9999 9 13.3357 9 13.7499C9 14.1641 8.66421 14.4999 8.25 14.4999H2.75C2.33579 14.4999 2 14.1641 2 13.7499Z" fill="#222222"/>
<path d="M4 16.7499C4 16.3357 4.33579 15.9999 4.75 15.9999H8.25C8.66421 15.9999 9 16.3357 9 16.7499C9 17.1641 8.66421 17.4999 8.25 17.4999H4.75C4.33579 17.4999 4 17.1641 4 16.7499Z" fill="#222222"/>
<path d="M8.25 2.6499C8.25 2.23569 8.58579 1.8999 9 1.8999H15C15.4142 1.8999 15.75 2.23569 15.75 2.6499C15.75 3.06412 15.4142 3.3999 15 3.3999H9C8.58579 3.3999 8.25 3.06412 8.25 2.6499Z" fill="#222222"/>
<path d="M12 6.6499C15.8662 6.6499 19 9.78439 19 13.6499C19 17.5154 15.8662 20.6499 12 20.6499C10.2801 20.6499 8.70485 20.0293 7.48606 18.9999H5.39489C6.95339 20.9215 9.33346 22.1499 12 22.1499C16.6948 22.1499 20.5 18.3437 20.5 13.6499C20.5 8.95607 16.6948 5.1499 12 5.1499C9.0224 5.1499 6.40201 6.68157 4.88387 8.99988H6.76798C8.05025 7.55821 9.91924 6.6499 12 6.6499Z" fill="#222222"/>
<path d="M12.75 10.6499C12.75 10.2357 12.4142 9.8999 12 9.8999C11.5858 9.8999 11.25 10.2357 11.25 10.6499V13.8499C11.25 14.0625 11.3402 14.2651 11.4983 14.4074L13.4983 16.2074C13.8062 16.4845 14.2804 16.4595 14.5575 16.1516C14.8346 15.8437 14.8096 15.3695 14.5017 15.0924L12.75 13.5159V10.6499Z" fill="#222222"/>
</svg>
