<svg width="24" height="24" viewBox="0 0 24 24" fill="none" xmlns="http://www.w3.org/2000/svg">
<path fill-rule="evenodd" clip-rule="evenodd" d="M2 12C2 6.49 6.49 2 12 2C17.51 2 22 6.49 22 12C22 17.51 17.51 22 12 22C6.49 22 2 17.51 2 12ZM13.3684 8.29662L11.761 13.779L10.037 9.57355C9.70883 8.7731 8.58797 8.73874 8.21141 9.51758L7.397 11.202L5.53431 11.2023C5.0925 11.2024 4.73438 11.5605 4.73438 12.0024C4.73438 12.4442 5.09257 12.8024 5.53444 12.8024H7.55626C7.98136 12.8024 8.36 12.5337 8.50026 12.1324L8.981 10.7569L11.036 15.6317C11.4014 16.4985 12.6526 16.4272 12.9171 15.5245L14.444 10.313L15.0247 11.6148C15.3463 12.3357 16.0618 12.8 16.8512 12.8H18.2C18.6418 12.8 19 12.4418 19 12C19 11.5582 18.6418 11.2 18.2 11.2H16.592L15.2413 8.17074C14.8625 7.32099 13.6302 7.40381 13.3684 8.29662Z" fill="#222222"/>
</svg>
