<svg width="24" height="24" viewBox="0 0 24 24" fill="none" xmlns="http://www.w3.org/2000/svg">
<mask id="path-1-inside-1_21375_9322" fill="white">
<path d="M3.99969 8.29816C3.70836 8.40442 3.37837 8.15321 3.40324 7.84411L3.74226 3.63149C3.76732 3.31998 4.13344 3.18352 4.39991 3.38637L5.61883 4.3143L6.81235 5.22288L8.03125 6.15079C8.29772 6.35363 8.26364 6.74287 7.97005 6.84996L3.99969 8.29816Z"/>
</mask>
<path d="M3.99969 8.29816C3.70836 8.40442 3.37837 8.15321 3.40324 7.84411L3.74226 3.63149C3.76732 3.31998 4.13344 3.18352 4.39991 3.38637L5.61883 4.3143L6.81235 5.22288L8.03125 6.15079C8.29772 6.35363 8.26364 6.74287 7.97005 6.84996L3.99969 8.29816Z" fill="#222222"/>
<path d="M3.40324 7.84411L4.40002 7.92432L3.40324 7.84411ZM3.99969 8.29816L4.34235 9.23761L4.34236 9.23761L3.99969 8.29816ZM3.74226 3.63149L4.73903 3.71171L4.73903 3.71171L3.74226 3.63149ZM4.39991 3.38637L5.00563 2.59069L5.00563 2.59069L4.39991 3.38637ZM5.61883 4.3143L5.01311 5.10998L5.01311 5.10998L5.61883 4.3143ZM8.03125 6.15079L8.63697 5.35511L8.63697 5.35511L8.03125 6.15079ZM6.81235 5.22288L6.20663 6.01856L6.20663 6.01856L6.81235 5.22288ZM7.97005 6.84996L7.62738 5.9105L7.62738 5.9105L7.97005 6.84996ZM2.40646 7.76389C2.32313 8.79942 3.36638 9.5936 4.34235 9.23761L3.65702 7.3587C3.88006 7.27735 4.07742 7.34657 4.18861 7.43121C4.2998 7.51586 4.41906 7.68767 4.40002 7.92432L2.40646 7.76389ZM2.74548 3.55127L2.40646 7.76389L4.40002 7.92432L4.73903 3.71171L2.74548 3.55127ZM5.00563 2.59069C4.60237 2.28371 4.08425 2.2102 3.63131 2.37902C3.16825 2.55161 2.79156 2.97865 2.74548 3.55127L4.73903 3.71171C4.71802 3.97282 4.53692 4.17588 4.32981 4.25308C4.13281 4.3265 3.93098 4.28619 3.79418 4.18205L5.00563 2.59069ZM6.22456 3.51862L5.00563 2.59069L3.79418 4.18205L5.01311 5.10998L6.22456 3.51862ZM8.63697 5.35511L7.41807 4.4272L6.20663 6.01856L7.42553 6.94646L8.63697 5.35511ZM8.31272 7.78941C8.85241 7.59256 9.16377 7.11578 9.20686 6.62349C9.24902 6.14194 9.04023 5.6621 8.63697 5.35511L7.42553 6.94646C7.28873 6.84232 7.19615 6.65852 7.21448 6.44908C7.23376 6.22889 7.38128 6.00026 7.62738 5.9105L8.31272 7.78941ZM4.34236 9.23761L8.31272 7.78941L7.62738 5.9105L3.65702 7.3587L4.34236 9.23761ZM7.41807 4.4272L6.22455 3.51862L5.01311 5.10998L6.20663 6.01856L7.41807 4.4272Z" fill="#222222" mask="url(#path-1-inside-1_21375_9322)"/>
<path fill-rule="evenodd" clip-rule="evenodd" d="M10.1275 19.8277C12.0596 20.2302 14.0719 19.9225 15.7954 18.9609C17.5188 17.9994 18.8376 16.4486 19.5098 14.5931C20.182 12.7375 20.1624 10.7019 19.4547 8.85961C18.7471 7.01735 17.3987 5.49212 15.6571 4.56384C13.9156 3.63555 11.8977 3.3665 9.97373 3.80606C8.04979 4.24561 6.34892 5.36429 5.18327 6.95677C4.92231 7.31329 4.42174 7.39076 4.06521 7.1298C3.70869 6.86883 3.63122 6.36826 3.89219 6.01173C5.28528 4.10852 7.31803 2.77157 9.61736 2.24625C11.9167 1.72093 14.3284 2.04248 16.4097 3.15189C18.4911 4.2613 20.1026 6.08413 20.9483 8.28586C21.7941 10.4876 21.8175 12.9205 21.0141 15.138C20.2108 17.3556 18.6346 19.209 16.5749 20.3582C14.5152 21.5073 12.1102 21.8751 9.80118 21.3941C7.49218 20.913 5.43414 19.6153 4.00477 17.7392C2.5754 15.8631 1.87059 13.5344 2.0197 11.1805C2.04763 10.7396 2.42773 10.4048 2.86868 10.4327C3.30962 10.4606 3.64443 10.8407 3.6165 11.2817C3.49173 13.2512 4.08147 15.1997 5.27748 16.7695C6.47348 18.3393 8.19552 19.4252 10.1275 19.8277Z" fill="#222222"/>
<path d="M10.9688 15.1875C10.9688 15.6362 11.3325 16 11.7812 16C12.23 16 12.5938 15.6362 12.5938 15.1875V7.8125C12.5938 7.36377 12.23 7 11.7812 7C11.3325 7 10.9688 7.36377 10.9688 7.8125V15.1875Z" fill="#222222"/>
<path d="M14.6406 9.8125C14.2005 9.8125 13.8438 10.1693 13.8438 10.6094V15.2031C13.8438 15.6432 14.2005 16 14.6406 16C15.0807 16 15.4375 15.6432 15.4375 15.2031V10.6094C15.4375 10.1693 15.0807 9.8125 14.6406 9.8125Z" fill="#222222"/>
<path d="M8.79688 11.5C8.35677 11.5 8 11.8568 8 12.2969V15.2031C8 15.6432 8.35677 16 8.79688 16C9.23698 16 9.59375 15.6432 9.59375 15.2031V12.2969C9.59375 11.8568 9.23698 11.5 8.79688 11.5Z" fill="#222222"/>
</svg>
