<svg width="24" height="24" viewBox="0 0 24 24" fill="none" xmlns="http://www.w3.org/2000/svg">
<path fill-rule="evenodd" clip-rule="evenodd" d="M11.1624 18.9504C7.6913 18.5365 5 15.5825 5 12C5 9.32262 6.50313 6.99632 8.71153 5.81894C9.21968 5.54803 9.7858 5.95201 9.7858 6.52787C9.7858 6.85986 9.58793 7.1559 9.30054 7.32211C7.68618 8.25571 6.6 10.001 6.6 12C6.6 14.6416 8.49684 16.8402 11.0028 17.3081C11.0009 17.3718 11 17.4358 11 17.5C11 17.9986 11.0561 18.484 11.1624 18.9504ZM19 11.1739V7.51055L19.0001 7.49748L19.0002 4.5203L21.7407 6.77781C22.0936 7.0601 22.6084 7.00291 22.8907 6.65007C23.173 6.29723 23.1158 5.78235 22.763 5.50006L18.6565 2.17931C18.3577 1.94024 17.9331 1.94023 17.6343 2.17927L13.5 5.49999C13.1471 5.78225 13.0899 6.29713 13.3722 6.64999C13.6545 7.00285 14.1693 7.06008 14.5222 6.77781L17.3986 4.52071L17.3986 7.49748C17.3986 7.51584 17.399 7.53406 17.4 7.55211V11.0008C17.4333 11.0003 17.4666 11 17.5 11C18.0163 11 18.5185 11.0602 19 11.1739ZM11.5986 14.7716C10.2425 14.5768 9.2002 13.4102 9.2002 12.0002C9.2002 10.4538 10.4538 9.2002 12.0002 9.2002C13.4102 9.2002 14.5768 10.2425 14.7716 11.5986C13.3744 12.2457 12.2457 13.3744 11.5986 14.7716Z" fill="#222222"/>
<path fill-rule="evenodd" clip-rule="evenodd" d="M12.3682 17.4997C12.3682 14.6657 14.6657 12.3682 17.4997 12.3682C20.3338 12.3682 22.6313 14.6657 22.6313 17.4997C22.6313 20.3338 20.3338 22.6313 17.4997 22.6313C14.6657 22.6313 12.3682 20.3338 12.3682 17.4997ZM17.4962 14.0787C17.8722 14.0787 18.177 14.4098 18.177 14.8184V17.7771C18.177 18.1856 17.8722 18.5168 17.4962 18.5168C17.1202 18.5168 16.8154 18.1856 16.8154 17.7771V14.8184C16.8154 14.4098 17.1202 14.0787 17.4962 14.0787ZM16.8154 20.1811C16.8154 19.7726 17.1202 19.4414 17.4962 19.4414H17.503C17.879 19.4414 18.1839 19.7726 18.1839 20.1811C18.1839 20.5896 17.879 20.9208 17.503 20.9208H17.4962C17.1202 20.9208 16.8154 20.5896 16.8154 20.1811Z" fill="#F44336"/>
</svg>
