<svg width="24" height="24" viewBox="0 0 24 24" fill="none" xmlns="http://www.w3.org/2000/svg">
<path fill-rule="evenodd" clip-rule="evenodd" d="M9 1.8999C8.58579 1.8999 8.25 2.23569 8.25 2.6499C8.25 3.06412 8.58579 3.3999 9 3.3999H15C15.4142 3.3999 15.75 3.06412 15.75 2.6499C15.75 2.23569 15.4142 1.8999 15 1.8999H9ZM19 13.6499C19 9.78439 15.8662 6.6499 12 6.6499C8.13458 6.6499 5 9.78449 5 13.6499C5 17.5153 8.13458 20.6499 12 20.6499C15.8662 20.6499 19 17.5154 19 13.6499ZM20.5 13.6499C20.5 8.95607 16.6948 5.1499 12 5.1499C7.30616 5.1499 3.5 8.95607 3.5 13.6499C3.5 18.3437 7.30616 22.1499 12 22.1499C16.6948 22.1499 20.5 18.3437 20.5 13.6499ZM12 9.8999C12.4142 9.8999 12.75 10.2357 12.75 10.6499V13.5159L14.5017 15.0924C14.8096 15.3695 14.8346 15.8437 14.5575 16.1516C14.2804 16.4595 13.8062 16.4845 13.4983 16.2074L11.4983 14.4074C11.3402 14.2651 11.25 14.0625 11.25 13.8499V10.6499C11.25 10.2357 11.5858 9.8999 12 9.8999Z" fill="#222222"/>
</svg>
