<svg width="24" height="24" viewBox="0 0 24 24" fill="none" xmlns="http://www.w3.org/2000/svg">
<path fill-rule="evenodd" clip-rule="evenodd" d="M4.68868 5.33019C4.68868 4.04326 5.73194 3 7.01887 3C8.3058 3 9.34906 4.04326 9.34906 5.33019C9.34906 5.84289 9.18389 6.31596 8.90378 6.7005L8.7544 6.90558L11.098 10.3148L11.3427 10.2491C11.5354 10.1975 11.7382 10.1698 11.9481 10.1698C12.3082 10.1698 12.6483 10.2512 12.9518 10.3964L13.1806 10.5057L15.3315 8.35559L15.222 8.12672C15.0768 7.8231 14.9953 7.48289 14.9953 7.12264C14.9953 5.83571 16.0385 4.79245 17.3255 4.79245C18.6124 4.79245 19.6557 5.83571 19.6557 7.12264C19.6557 8.40957 18.6124 9.45283 17.3255 9.45283C16.9651 9.45283 16.6247 9.37126 16.321 9.22592L16.0922 9.11641L13.9419 11.2667L14.0514 11.4956C14.1967 11.7993 14.2783 12.1396 14.2783 12.5C14.2783 12.7435 14.2411 12.9776 14.1723 13.1973L14.0965 13.4392L17.6154 16.0783L17.8265 15.9374C18.196 15.6909 18.6396 15.5472 19.1179 15.5472C20.4049 15.5472 21.4481 16.5904 21.4481 17.8774C21.4481 19.1643 20.4049 20.2075 19.1179 20.2075C17.831 20.2075 16.7877 19.1643 16.7877 17.8774C16.7877 17.6339 16.825 17.3997 16.8938 17.18L16.9695 16.9381L13.4509 14.2989L13.2398 14.4398C12.8702 14.6864 12.4265 14.8302 11.9481 14.8302C11.7735 14.8302 11.6038 14.811 11.4408 14.7749L11.1934 14.72L9.61763 18.0199L9.77579 18.2183C10.0934 18.6165 10.283 19.1205 10.283 19.6698C10.283 20.9567 9.23974 22 7.95281 22C6.66588 22 5.62262 20.9567 5.62262 19.6698C5.62262 18.3829 6.66588 17.3396 7.95281 17.3396C8.12707 17.3396 8.29645 17.3587 8.45914 17.3947L8.70641 17.4495L10.283 14.1496L10.1249 13.9512C9.93032 13.7072 9.78382 13.4234 9.69956 13.1139C9.64633 12.9184 9.61792 12.7126 9.61792 12.5C9.61792 12.4036 9.62376 12.3086 9.6351 12.2154C9.68408 11.8126 9.83572 11.442 10.0631 11.1298L10.2125 10.9247L7.86872 7.51552L7.62402 7.58112C7.43144 7.63274 7.22866 7.66038 7.01887 7.66038C5.73194 7.66038 4.68868 6.61712 4.68868 5.33019ZM7.01887 4.07547C6.32591 4.07547 5.76415 4.63723 5.76415 5.33019C5.76415 6.02315 6.32591 6.58491 7.01887 6.58491C7.71183 6.58491 8.27358 6.02315 8.27358 5.33019C8.27358 4.63723 7.71183 4.07547 7.01887 4.07547ZM19.1179 16.6226C18.425 16.6226 17.8632 17.1844 17.8632 17.8774C17.8632 18.5703 18.425 19.1321 19.1179 19.1321C19.8109 19.1321 20.3726 18.5703 20.3726 17.8774C20.3726 17.1844 19.8109 16.6226 19.1179 16.6226ZM7.95281 18.4151C7.25985 18.4151 6.69809 18.9769 6.69809 19.6698C6.69809 20.3628 7.25985 20.9245 7.95281 20.9245C8.64577 20.9245 9.20753 20.3628 9.20753 19.6698C9.20753 18.9769 8.64577 18.4151 7.95281 18.4151Z" fill="#222222"/>
<path d="M9.69956 13.1139C9.64633 12.9184 9.61792 12.7126 9.61792 12.5C9.61792 12.4036 9.62376 12.3086 9.6351 12.2154L5.44643 13.0627C5.17567 12.4163 4.53709 11.9623 3.79245 11.9623C2.80251 11.9623 2 12.7648 2 13.7547C2 14.7447 2.80251 15.5472 3.79245 15.5472C4.71699 15.5472 5.47805 14.8472 5.57457 13.9483L9.69956 13.1139Z" fill="#222222"/>
</svg>
