<svg width="24" height="24" viewBox="0 0 24 24" fill="none" xmlns="http://www.w3.org/2000/svg">
<path fill-rule="evenodd" clip-rule="evenodd" d="M9.62876 2C9.14036 2 8.74443 2.39593 8.74443 2.88433V4.63935C6.43404 4.81082 4.60924 6.72674 4.58253 9.07463H3.42925C2.94085 9.07463 2.54492 9.47055 2.54492 9.95896C2.54492 10.4474 2.94085 10.8433 3.42925 10.8433H4.58224V13.791H3.42925C2.94085 13.791 2.54492 14.187 2.54492 14.6754C2.54492 15.1638 2.94085 15.5597 3.42925 15.5597H4.62765C4.92352 17.6317 6.63077 19.2486 8.74443 19.4054V20.8657C8.74443 21.3541 9.14036 21.75 9.62876 21.75C10.1172 21.75 10.5131 21.3541 10.5131 20.8657V19.4179H13.4608V20.8657C13.4608 21.3541 13.8568 21.75 14.3452 21.75C14.8336 21.75 15.2295 21.3541 15.2295 20.8657V19.404C17.3347 19.2392 19.0329 17.6256 19.3279 15.5597H20.821C21.3094 15.5597 21.7054 15.1638 21.7054 14.6754C21.7054 14.187 21.3094 13.791 20.821 13.791H19.3733V10.8433H20.821C21.3094 10.8433 21.7054 10.4474 21.7054 9.95896C21.7054 9.47055 21.3094 9.07463 20.821 9.07463H19.373C19.3463 6.73299 17.5312 4.82101 15.2295 4.64076V2.88433C15.2295 2.39593 14.8336 2 14.3452 2C13.8568 2 13.4608 2.39593 13.4608 2.88433V4.62687H10.5131V2.88433C10.5131 2.39593 10.1172 2 9.62876 2ZM17.8733 14.9179C17.8733 16.5748 16.5301 17.9179 14.8733 17.9179H9.08224C7.42538 17.9179 6.08224 16.5748 6.08224 14.9179V9.12687C6.08224 7.47001 7.42538 6.12687 9.08224 6.12687H14.8733C16.5301 6.12687 17.8733 7.47001 17.8733 9.12687V14.9179Z" fill="#222222"/>
<path fill-rule="evenodd" clip-rule="evenodd" d="M14.8733 17.9179C16.5301 17.9179 17.8733 16.5748 17.8733 14.9179V9.12687C17.8733 7.47001 16.5301 6.12687 14.8733 6.12687H9.08224C7.42538 6.12687 6.08224 7.47001 6.08224 9.12687V14.9179C6.08224 16.5748 7.42538 17.9179 9.08224 17.9179H14.8733ZM15.0001 11C15.0001 9.89543 14.1047 9 13.0001 9H11.0001C9.89558 9 9.00015 9.89543 9.00015 11V13C9.00015 14.1046 9.89558 15 11.0001 15H13.0001C14.1047 15 15.0001 14.1046 15.0001 13V11Z" fill="#222222"/>
<path d="M13.0001 10.3H11.0001C10.6135 10.3 10.3001 10.6134 10.3001 11V13C10.3001 13.3866 10.6135 13.7 11.0001 13.7H13.0001C13.3867 13.7 13.7001 13.3866 13.7001 13V11C13.7001 10.6134 13.3867 10.3 13.0001 10.3Z" fill="#222222"/>
</svg>
