<svg width="24" height="24" viewBox="0 0 24 24" fill="none" xmlns="http://www.w3.org/2000/svg">
<path fill-rule="evenodd" clip-rule="evenodd" d="M11.9998 3.2998C10.5086 3.2998 9.2998 4.50864 9.2998 5.9998V17.9998C9.2998 19.491 10.5086 20.6998 11.9998 20.6998C13.491 20.6998 14.6998 19.491 14.6998 17.9998V5.9998C14.6998 4.50864 13.491 3.2998 11.9998 3.2998ZM10.6998 5.9998C10.6998 5.28183 11.2818 4.6998 11.9998 4.6998C12.7178 4.6998 13.2998 5.28183 13.2998 5.9998V17.9998C13.2998 18.7178 12.7178 19.2998 11.9998 19.2998C11.2818 19.2998 10.6998 18.7178 10.6998 17.9998V5.9998Z" fill="#222222"/>
<path fill-rule="evenodd" clip-rule="evenodd" d="M17.9998 8.2998C16.5086 8.2998 15.2998 9.50864 15.2998 10.9998V17.9998C15.2998 19.491 16.5086 20.6998 17.9998 20.6998C19.491 20.6998 20.6998 19.491 20.6998 17.9998V10.9998C20.6998 9.50864 19.491 8.2998 17.9998 8.2998ZM16.6998 10.9998C16.6998 10.2818 17.2818 9.6998 17.9998 9.6998C18.7178 9.6998 19.2998 10.2818 19.2998 10.9998V17.9998C19.2998 18.7178 18.7178 19.2998 17.9998 19.2998C17.2818 19.2998 16.6998 18.7178 16.6998 17.9998V10.9998Z" fill="#222222"/>
<path fill-rule="evenodd" clip-rule="evenodd" d="M5.9998 11.2998C4.50864 11.2998 3.2998 12.5086 3.2998 13.9998V17.9998C3.2998 19.491 4.50864 20.6998 5.9998 20.6998C7.49097 20.6998 8.6998 19.491 8.6998 17.9998V13.9998C8.6998 12.5086 7.49097 11.2998 5.9998 11.2998ZM4.6998 13.9998C4.6998 13.2818 5.28183 12.6998 5.9998 12.6998C6.71777 12.6998 7.2998 13.2818 7.2998 13.9998V17.9998C7.2998 18.7178 6.71777 19.2998 5.9998 19.2998C5.28183 19.2998 4.6998 18.7178 4.6998 17.9998V13.9998Z" fill="#222222"/>
</svg>
