<svg width="24" height="24" viewBox="0 0 24 24" fill="none" xmlns="http://www.w3.org/2000/svg">
<path d="M14 15.25C14 15.6642 13.6642 16 13.25 16H10.75C10.3358 16 10 15.6642 10 15.25C10 14.8358 10.3358 14.5 10.75 14.5H13.25C13.6642 14.5 14 14.8358 14 15.25Z" fill="#222222"/>
<path d="M14 10.75C14 11.1642 13.6642 11.5 13.25 11.5H10.75C10.3358 11.5 10 11.1642 10 10.75C10 10.3358 10.3358 10 10.75 10H13.25C13.6642 10 14 10.3358 14 10.75Z" fill="#222222"/>
<path fill-rule="evenodd" clip-rule="evenodd" d="M16.1181 10.1705C16.0353 9.7574 15.8919 9.36618 15.6976 9.00653C15.6742 8.97184 15.652 8.9362 15.6309 8.89963C15.3158 8.35359 14.8824 7.88531 14.3578 7.5286C14.3304 7.50993 14.3035 7.49056 14.2773 7.47052C13.8992 7.22605 13.4793 7.04069 13.0306 6.92752C13.0209 6.92535 13.0111 6.9231 13.0014 6.92077C12.6696 6.84143 12.3401 6.80013 12 6.80013C11.6585 6.80013 11.3319 6.84177 11.0174 6.91865C10.9879 6.92585 10.9584 6.93229 10.9288 6.93797C10.3682 7.08541 9.85335 7.34583 9.41017 7.69342C8.99099 8.02612 8.63681 8.43567 8.36913 8.89963C8.34804 8.9362 8.32577 8.97184 8.30238 9.00653C8.10807 9.36618 7.96469 9.7574 7.88192 10.1705C7.87877 10.2036 7.8747 10.2367 7.86969 10.2698C7.824 10.5713 7.8 10.796 7.8 11.0001V12.0001V14.0001V15.0001C7.8 15.2042 7.824 15.429 7.86969 15.7305C7.8747 15.7635 7.87877 15.7966 7.88192 15.8297C7.96469 16.2429 8.10807 16.6341 8.30239 16.9937C8.32475 17.0269 8.3461 17.061 8.36638 17.0959C9.08301 18.3293 10.3886 19.1593 11.8884 19.1987C11.9255 19.1996 11.9627 19.2001 12 19.2001C12.0362 19.2001 12.0724 19.1997 12.1084 19.1988C13.6095 19.1605 14.9165 18.3302 15.6336 17.0959C15.6539 17.061 15.6752 17.0269 15.6976 16.9937C15.8919 16.6341 16.0353 16.2429 16.1181 15.8297C16.1212 15.7966 16.1253 15.7635 16.1303 15.7305C16.176 15.429 16.2 15.2042 16.2 15.0001V14.0001V12.0001V11.0001C16.2 10.796 16.176 10.5713 16.1303 10.2698C16.1253 10.2367 16.1212 10.2036 16.1181 10.1705ZM7.70473 3.7054C7.44427 3.96586 7.35752 4.33437 7.44469 4.6668C7.4879 4.83159 7.57385 4.98752 7.70255 5.11702L8.62 6.04013C8.12243 6.38305 7.67911 6.79831 7.30524 7.27071C7.12309 7.50087 6.95742 7.7446 6.81 8.00013H5C4.44772 8.00013 4 8.44784 4 9.00013C4 9.28893 4.12242 9.54913 4.3182 9.73168C4.49683 9.89822 4.73651 10.0001 5 10.0001H6.09C6.04 10.3301 6 10.6601 6 11.0001V11.8001V12.0001H5C4.44772 12.0001 4 12.4478 4 13.0001C4 13.5524 4.44772 14.0001 5 14.0001H6V14.2001V15.0001C6 15.3401 6.04 15.6701 6.09 16.0001H5C4.73651 16.0001 4.49682 16.102 4.3182 16.2686C4.12242 16.4511 4 16.7113 4 17.0001C4 17.5524 4.44772 18.0001 5 18.0001H6.81C7.85 19.7901 9.78 21.0001 12 21.0001C14.22 21.0001 16.15 19.7901 17.19 18.0001H19C19.5523 18.0001 20 17.5524 20 17.0001C20 16.7113 19.8776 16.4511 19.6818 16.2686C19.5032 16.102 19.2635 16.0001 19 16.0001H17.91C17.96 15.6701 18 15.3401 18 15.0001V14.2001V14.0001H19C19.5523 14.0001 20 13.5524 20 13.0001C20 12.4478 19.5523 12.0001 19 12.0001H18V11.8001V11.0001C18 10.6601 17.96 10.3301 17.91 10.0001H19C19.2635 10.0001 19.5032 9.89822 19.6818 9.73168C19.8776 9.54913 20 9.28893 20 9.00013C20 8.44784 19.5523 8.00013 19 8.00013H17.19C17.0415 7.74266 16.8744 7.49717 16.6902 7.26547C16.3165 6.79524 15.8724 6.38178 15.37 6.04013L16.295 5.11513C16.4227 4.98738 16.5086 4.83359 16.5525 4.67084C16.6424 4.33757 16.5566 3.96674 16.295 3.70513C15.9056 3.31577 15.2744 3.31577 14.885 3.70513L13.42 5.17013C12.96 5.06013 12.49 5.00013 12 5.00013C11.51 5.00013 11.04 5.06013 10.59 5.17013L9.11689 3.70378C8.72622 3.3149 8.0945 3.31563 7.70473 3.7054Z" fill="#222222"/>
</svg>
