<svg width="24" height="24" viewBox="0 0 24 24" fill="none" xmlns="http://www.w3.org/2000/svg">
<path fill-rule="evenodd" clip-rule="evenodd" d="M5.7448 4.79842C7.34517 4.26739 9.49914 4 11.75 4C14.0009 4 16.1548 4.26739 17.7552 4.79842C18.5545 5.06364 19.2317 5.39982 19.7136 5.81445C20.1989 6.23204 20.5 6.74303 20.5 7.34348V17.1565C20.5 17.757 20.1989 18.268 19.7136 18.6855C19.2317 19.1002 18.5545 19.4364 17.7552 19.7016C16.1548 20.2326 14.0009 20.5 11.75 20.5C9.49914 20.5 7.34517 20.2326 5.7448 19.7016C4.94552 19.4364 4.26828 19.1002 3.78639 18.6855C3.30108 18.268 3 17.757 3 17.1565V7.34348C3 6.74303 3.30108 6.23204 3.78639 5.81445C4.26828 5.39982 4.94552 5.06364 5.7448 4.79842ZM4.5 7.75524C4.5 7.62563 4.60693 7.40918 4.94384 7.13862C5.26771 6.87852 5.75677 6.60782 6.39718 6.36267C7.67568 5.87325 9.51982 5.5 11.75 5.5C13.9802 5.5 15.8243 5.87325 17.1028 6.36267C17.7432 6.60782 18.2323 6.87852 18.5562 7.13862C18.8931 7.40918 19 7.62563 19 7.75524C19 7.88464 18.8933 8.10041 18.5565 8.36996C18.2327 8.62909 17.7437 8.89853 17.1032 9.14242C15.8247 9.62931 13.9804 10 11.75 10C9.51961 10 7.67534 9.62931 6.39677 9.14242C5.75633 8.89853 5.26731 8.62909 4.94351 8.36996C4.60669 8.10041 4.5 7.88464 4.5 7.75524ZM4.5 16.6798V14.6529C6.76596 15.7402 9.24869 16.2658 11.75 16.1848C14.2513 16.2658 16.734 15.7402 19 14.6529V16.6798C19 16.8199 18.8893 17.0446 18.5537 17.3213C18.2298 17.5883 17.741 17.8658 17.1009 18.1169C15.823 18.6182 13.9795 19 11.75 19C9.52045 19 7.67701 18.6182 6.3991 18.1169C5.75905 17.8658 5.27019 17.5883 4.94633 17.3213C4.61072 17.0446 4.5 16.8199 4.5 16.6798ZM4.5 10.2325V12.25C4.5 12.3904 4.61096 12.6157 4.94667 12.8935C5.2706 13.1615 5.7595 13.4402 6.39952 13.6926C7.67736 14.1966 9.52067 14.581 11.75 14.581C13.9793 14.581 15.8226 14.1966 17.1005 13.6926C17.7405 13.4402 18.2294 13.1615 18.5533 12.8935C18.889 12.6157 19 12.3904 19 12.25V10.2325C16.7318 11.312 14.2502 11.8341 11.75 11.755C9.24984 11.8341 6.76819 11.312 4.5 10.2325Z" fill="#222222"/>
</svg>
