<svg width="24" height="24" viewBox="0 0 24 24" fill="none" xmlns="http://www.w3.org/2000/svg">
<path fill-rule="evenodd" clip-rule="evenodd" d="M0.299805 11.9998C0.299805 8.30321 3.30321 5.2998 6.9998 5.2998C9.73816 5.2998 12.0906 6.94531 13.1254 9.2998H20.9998C22.491 9.2998 23.6998 10.5086 23.6998 11.9998C23.6998 13.491 22.491 14.6998 20.9998 14.6998H20.1998V15.9998C20.1998 17.491 18.991 18.6998 17.4998 18.6998C16.0086 18.6998 14.7998 17.491 14.7998 15.9998V14.6998H13.1254C12.0906 17.0543 9.73816 18.6998 6.9998 18.6998C3.30321 18.6998 0.299805 15.6964 0.299805 11.9998ZM6.9998 6.6998C4.0764 6.6998 1.6998 9.0764 1.6998 11.9998C1.6998 14.9232 4.0764 17.2998 6.9998 17.2998C9.30355 17.2998 11.265 15.8261 11.9895 13.7674L12.1541 13.2998H16.1998V15.9998C16.1998 16.7178 16.7818 17.2998 17.4998 17.2998C18.2178 17.2998 18.7998 16.7178 18.7998 15.9998V13.2998H20.9998C21.7178 13.2998 22.2998 12.7178 22.2998 11.9998C22.2998 11.2818 21.7178 10.6998 20.9998 10.6998H12.1541L11.9895 10.2322C11.265 8.17355 9.30355 6.6998 6.9998 6.6998ZM6.9998 10.6998C6.2864 10.6998 5.6998 11.2864 5.6998 11.9998C5.6998 12.7132 6.2864 13.2998 6.9998 13.2998C7.7132 13.2998 8.2998 12.7132 8.2998 11.9998C8.2998 11.2864 7.7132 10.6998 6.9998 10.6998ZM4.2998 11.9998C4.2998 10.5132 5.51321 9.2998 6.9998 9.2998C8.4864 9.2998 9.6998 10.5132 9.6998 11.9998C9.6998 13.4864 8.4864 14.6998 6.9998 14.6998C5.51321 14.6998 4.2998 13.4864 4.2998 11.9998Z" fill="#222222"/>
</svg>
