<svg width="24" height="24" viewBox="0 0 24 24" fill="none" xmlns="http://www.w3.org/2000/svg">
<path fill-rule="evenodd" clip-rule="evenodd" d="M19 8.00013C19.5523 8.00013 20 8.44784 20 9.00013C20 9.55241 19.5523 10.0001 19 10.0001H17.91C17.96 10.3301 18 10.6601 18 11.0001V12.0001H19C19.5523 12.0001 20 12.4478 20 13.0001C20 13.5524 19.5523 14.0001 19 14.0001H18V15.0001C18 15.3401 17.96 15.6701 17.91 16.0001H19C19.5523 16.0001 20 16.4478 20 17.0001C20 17.5524 19.5523 18.0001 19 18.0001H17.19C16.15 19.7901 14.22 21.0001 12 21.0001C9.78 21.0001 7.85 19.7901 6.81 18.0001H5C4.44772 18.0001 4 17.5524 4 17.0001C4 16.4478 4.44772 16.0001 5 16.0001H6.09C6.04 15.6701 6 15.3401 6 15.0001V14.0001H5C4.44772 14.0001 4 13.5524 4 13.0001C4 12.4478 4.44772 12.0001 5 12.0001H6V11.0001C6 10.6601 6.04 10.3301 6.09 10.0001H5C4.44772 10.0001 4 9.55241 4 9.00013C4 8.44784 4.44772 8.00013 5 8.00013H6.81C7.26 7.22013 7.88 6.55013 8.62 6.04013L7.70255 5.11702C7.31419 4.72626 7.31517 4.09496 7.70473 3.7054C8.0945 3.31563 8.72622 3.3149 9.11689 3.70378L10.59 5.17013C11.04 5.06013 11.51 5.00013 12 5.00013C12.49 5.00013 12.96 5.06013 13.42 5.17013L14.885 3.70513C15.2744 3.31577 15.9056 3.31577 16.295 3.70513C16.6844 4.09449 16.6844 4.72577 16.295 5.11513L15.37 6.04013C16.12 6.55013 16.74 7.22013 17.19 8.00013H19ZM13.25 11.5001C13.6642 11.5001 14 11.1643 14 10.7501C14 10.3359 13.6642 10.0001 13.25 10.0001H10.75C10.3358 10.0001 10 10.3359 10 10.7501C10 11.1643 10.3358 11.5001 10.75 11.5001H13.25ZM13.25 16.0001C13.6642 16.0001 14 15.6643 14 15.2501C14 14.8359 13.6642 14.5001 13.25 14.5001H10.75C10.3358 14.5001 10 14.8359 10 15.2501C10 15.6643 10.3358 16.0001 10.75 16.0001H13.25Z" fill="#222222"/>
</svg>
