<svg width="24" height="24" viewBox="0 0 24 24" fill="none" xmlns="http://www.w3.org/2000/svg">
<path d="M9 12.105L10.929 14L15 10" stroke="#222222" stroke-width="1.6" stroke-linecap="round" stroke-linejoin="round"/>
<path fill-rule="evenodd" clip-rule="evenodd" d="M9.26862 2.22079C10.7258 0.593073 13.2742 0.593071 14.7314 2.22078L15.0459 2.5721C15.4172 2.98688 15.9569 3.21043 16.5128 3.1797L16.9836 3.15367C19.1649 3.03308 20.9669 4.83509 20.8463 7.01643L20.8203 7.48724C20.7896 8.04309 21.0131 8.58279 21.4279 8.95411L21.7792 9.26862C23.4069 10.7258 23.4069 13.2742 21.7792 14.7314L21.4279 15.0459C21.0131 15.4172 20.7896 15.9569 20.8203 16.5128L20.8463 16.9836C20.9669 19.1649 19.1649 20.9669 16.9836 20.8463L16.5128 20.8203C15.9569 20.7896 15.4172 21.0131 15.0459 21.4279L14.7314 21.7792C13.2742 23.4069 10.7258 23.4069 9.26862 21.7792L8.95411 21.4279C8.58279 21.0131 8.04309 20.7896 7.48724 20.8203L7.01643 20.8463C4.83509 20.9669 3.03308 19.1649 3.15367 16.9836L3.1797 16.5128C3.21043 15.9569 2.98688 15.4172 2.5721 15.0459L2.22079 14.7314C0.593073 13.2742 0.593071 10.7258 2.22078 9.26862L2.5721 8.95411C2.98688 8.58279 3.21043 8.04309 3.1797 7.48724L3.15367 7.01643C3.03308 4.83509 4.83509 3.03308 7.01643 3.15367L7.48724 3.1797C8.04309 3.21043 8.58279 2.98688 8.95411 2.5721L9.26862 2.22079ZM13.3657 3.44339C12.6371 2.62953 11.3629 2.62953 10.6343 3.44339L10.3198 3.7947C9.57716 4.62426 8.49777 5.07136 7.38606 5.0099L6.91525 4.98387C5.82458 4.92357 4.92357 5.82458 4.98387 6.91525L5.0099 7.38606C5.07136 8.49777 4.62426 9.57716 3.7947 10.3198L3.44339 10.6343C2.62953 11.3629 2.62953 12.6371 3.44339 13.3657L3.7947 13.6802C4.62426 14.4228 5.07136 15.5022 5.0099 16.6139L4.98387 17.0848C4.92357 18.1754 5.82458 19.0764 6.91525 19.0161L7.38606 18.9901C8.49777 18.9286 9.57716 19.3757 10.3198 20.2053L10.6343 20.5566C11.3629 21.3705 12.6371 21.3705 13.3657 20.5566L13.6802 20.2053C14.4228 19.3757 15.5022 18.9286 16.6139 18.9901L17.0848 19.0161C18.1754 19.0764 19.0764 18.1754 19.0161 17.0848L18.9901 16.6139C18.9286 15.5022 19.3757 14.4228 20.2053 13.6802L20.5566 13.3657C21.3705 12.6371 21.3705 11.3629 20.5566 10.6343L20.2053 10.3198C19.3757 9.57716 18.9286 8.49777 18.9901 7.38606L19.0161 6.91525C19.0764 5.82458 18.1754 4.92357 17.0848 4.98387L16.6139 5.0099C15.5022 5.07136 14.4228 4.62426 13.6802 3.7947L13.3657 3.44339Z" fill="#222222"/>
</svg>
