<svg width="24" height="24" viewBox="0 0 24 24" fill="none" xmlns="http://www.w3.org/2000/svg">
<path fill-rule="evenodd" clip-rule="evenodd" d="M15.7644 5.41176C14.8583 5.41176 14.1231 6.14343 14.1174 7.04818L14.1174 7.05884L14.1174 7.06966C14.1232 7.97431 14.8584 8.70587 15.7644 8.70587C16.674 8.70587 17.4114 7.96846 17.4114 7.05881C17.4114 6.14917 16.674 5.41176 15.7644 5.41176ZM15.7644 4C14.318 4 13.1061 5.00392 12.7874 6.35296H3.99983C3.60998 6.35296 3.29395 6.66899 3.29395 7.05884C3.29395 7.44869 3.60998 7.76472 3.99983 7.76472H12.7874C13.1061 9.11374 14.318 10.1176 15.7644 10.1176C17.2108 10.1176 18.4227 9.11374 18.7413 7.76472H19.9998C20.3896 7.76472 20.7056 7.44869 20.7056 7.05884C20.7056 6.66899 20.3896 6.35296 19.9998 6.35296L18.7413 6.35296C18.4227 5.00392 17.2108 4 15.7644 4ZM6.58807 16.9429V18.5881H9.88217V16.9462C9.88216 16.9445 9.88215 16.9428 9.88215 16.9411C9.88215 16.9394 9.88216 16.9377 9.88217 16.936V15.294H6.58807V16.9393C6.58807 16.9399 6.58807 16.9405 6.58807 16.9411C6.58807 16.9417 6.58807 16.9423 6.58807 16.9429ZM11.2939 16.2352V14.5881C11.2939 14.1983 10.9779 13.8823 10.5881 13.8823H5.88219C5.49234 13.8823 5.17631 14.1983 5.17631 14.5881V16.2352H3.99984C3.60999 16.2352 3.29396 16.5513 3.29396 16.9411C3.29396 17.3309 3.60999 17.647 3.99984 17.647H5.17631V19.294C5.17631 19.6839 5.49234 19.9999 5.88219 19.9999H10.5881C10.9779 19.9999 11.2939 19.6839 11.2939 19.294V17.647L19.9998 17.647C20.3896 17.647 20.7056 17.3309 20.7056 16.9411C20.7056 16.5513 20.3896 16.2352 19.9998 16.2352L11.2939 16.2352Z" fill="#222222"/>
</svg>
