<svg width="24" height="24" viewBox="0 0 24 24" fill="none" xmlns="http://www.w3.org/2000/svg">
<path fill-rule="evenodd" clip-rule="evenodd" d="M4.72222 20.3333H19.1667C19.4735 20.3333 19.7222 20.0846 19.7222 19.7778V4.22222C19.7222 3.9154 19.4735 3.66667 19.1667 3.66667H8.65904C8.2005 3.66667 7.76221 3.85559 7.44736 4.18896L4.62164 7.18089C4.32945 7.49027 4.16667 7.89971 4.16667 8.32526V19.7778C4.16667 20.0846 4.4154 20.3333 4.72222 20.3333ZM4.72222 22H19.1667C20.394 22 21.3889 21.0051 21.3889 19.7778V4.22222C21.3889 2.99492 20.394 2 19.1667 2H8.65904C7.74195 2 6.86537 2.37785 6.23567 3.04459L3.40996 6.03652C2.82556 6.65528 2.5 7.47415 2.5 8.32526V19.7778C2.5 21.0051 3.49492 22 4.72222 22Z" fill="#222222"/>
<path d="M12.9463 17.6748C12.9463 18.2271 12.4986 18.6748 11.9463 18.6748C11.394 18.6748 10.9463 18.2271 10.9463 17.6748C10.9463 17.1225 11.394 16.6748 11.9463 16.6748C12.4986 16.6748 12.9463 17.1225 12.9463 17.6748Z" fill="#222222"/>
<path d="M14.6586 11.6548L13.8443 12.4871C13.7313 12.6017 13.6256 12.6992 13.5281 12.7891C13.0653 13.2158 12.7875 13.472 12.7857 14.5846L12.7858 14.5953C12.7858 15.0949 12.3807 15.5 11.881 15.5C11.3813 15.5 10.9763 15.0949 10.9763 14.5953C10.9763 13.6 11.3833 12.6952 12.0348 12.0348L13.1567 10.8948C13.4914 10.569 13.6905 10.1167 13.6905 9.61905C13.6905 8.62381 12.8762 7.80952 11.881 7.80952C10.8857 7.80952 10.0714 8.62381 10.0714 9.61905C10.0714 10.1187 9.66635 10.5238 9.16667 10.5238C8.66698 10.5238 8.2619 10.1187 8.2619 9.61906C8.2619 7.61953 9.88143 6 11.881 6C13.8805 6 15.5 7.61952 15.5 9.61905C15.5 10.4152 15.1743 11.139 14.6586 11.6548Z" fill="#222222"/>
</svg>
