<svg width="24" height="24" viewBox="0 0 24 24" fill="none" xmlns="http://www.w3.org/2000/svg">
<path fill-rule="evenodd" clip-rule="evenodd" d="M1.5 4.5C1.5 2.84315 2.84315 1.5 4.5 1.5H6C7.65685 1.5 9 2.84315 9 4.5L12.75 4.5C12.75 2.84315 14.0931 1.5 15.75 1.5H17.25C18.9069 1.5 20.25 2.84315 20.25 4.5V6C20.25 7.65685 18.9069 9 17.25 9H15.75C14.0931 9 12.75 7.65685 12.75 6H9C9 7.65685 7.65685 9 6 9V12.75C7.65685 12.75 9 14.0931 9 15.75V17.25C9 18.9069 7.65685 20.25 6 20.25H4.5C2.84315 20.25 1.5 18.9069 1.5 17.25V15.75C1.5 14.0931 2.84315 12.75 4.5 12.75L4.5 9C2.84315 9 1.5 7.65685 1.5 6V4.5Z" fill="#222222"/>
<path d="M14.8704 17.9792C12.7328 17.9792 11 19.9126 11 22.2974C11 22.674 11.2736 22.9792 11.6111 22.9792H21.3889C21.7264 22.9792 22 22.674 22 22.2974C22 19.9126 20.2672 17.9792 18.1296 17.9792H14.8704Z" fill="#222222"/>
<path d="M19.5 14C19.5 15.6569 18.1569 17 16.5 17C14.8431 17 13.5 15.6569 13.5 14C13.5 12.3432 14.8431 11 16.5 11C18.1569 11 19.5 12.3432 19.5 14Z" fill="#222222"/>
</svg>
