<svg width="24" height="24" viewBox="0 0 24 24" fill="none" xmlns="http://www.w3.org/2000/svg">
<path fill-rule="evenodd" clip-rule="evenodd" d="M5.25 2C4.00736 2 3 3.00736 3 4.25V17.75C3 18.9926 4.00736 20 5.25 20H8.75C9.99264 20 11 18.9926 11 17.75V4.25C11 3.00736 9.99264 2 8.75 2H5.25ZM4.5 4.25C4.5 3.83579 4.83579 3.5 5.25 3.5H8.75C9.16421 3.5 9.5 3.83579 9.5 4.25V17.75C9.5 18.1642 9.16421 18.5 8.75 18.5H5.25C4.83579 18.5 4.5 18.1642 4.5 17.75V4.25Z" fill="#222222"/>
<path fill-rule="evenodd" clip-rule="evenodd" d="M13 19.75C13 20.9926 14.0074 22 15.25 22H18.75C19.9926 22 21 20.9926 21 19.75V6.25C21 5.00736 19.9926 4 18.75 4H15.25C14.0074 4 13 5.00736 13 6.25L13 19.75ZM15.25 20.5C14.8358 20.5 14.5 20.1642 14.5 19.75L14.5 6.25C14.5 5.83579 14.8358 5.5 15.25 5.5L18.75 5.5C19.1642 5.5 19.5 5.83579 19.5 6.25V19.75C19.5 20.1642 19.1642 20.5 18.75 20.5H15.25Z" fill="#222222"/>
</svg>
