<svg width="24" height="24" viewBox="0 0 24 24" fill="none" xmlns="http://www.w3.org/2000/svg">
<path fill-rule="evenodd" clip-rule="evenodd" d="M3.1001 4.7001C3.1001 3.26416 4.26416 2.1001 5.7001 2.1001C7.13604 2.1001 8.3001 3.26416 8.3001 4.7001C8.3001 5.83155 7.57715 6.79515 6.5668 7.15226L6.3001 7.24652V14.1537L6.5668 14.2479C7.57715 14.605 8.3001 15.5686 8.3001 16.7001C8.3001 18.136 7.13604 19.3001 5.7001 19.3001C4.26416 19.3001 3.1001 18.136 3.1001 16.7001C3.1001 15.5686 3.82305 14.605 4.8334 14.2479L5.1001 14.1537V7.24652L4.8334 7.15226C3.82305 6.79515 3.1001 5.83155 3.1001 4.7001ZM5.7001 3.3001C4.9269 3.3001 4.3001 3.9269 4.3001 4.7001C4.3001 5.4733 4.9269 6.1001 5.7001 6.1001C6.4733 6.1001 7.1001 5.4733 7.1001 4.7001C7.1001 3.9269 6.4733 3.3001 5.7001 3.3001ZM16.1001 6.7001C16.1001 5.26416 17.2642 4.1001 18.7001 4.1001C20.136 4.1001 21.3001 5.26416 21.3001 6.7001C21.3001 7.83155 20.5771 8.79515 19.5668 9.15226L19.3001 9.24652V16.1537L19.5668 16.2479C20.5771 16.605 21.3001 17.5686 21.3001 18.7001C21.3001 20.136 20.136 21.3001 18.7001 21.3001C17.2642 21.3001 16.1001 20.136 16.1001 18.7001C16.1001 17.5686 16.823 16.605 17.8334 16.2479L18.1001 16.1537V9.24652L17.8334 9.15226C16.823 8.79515 16.1001 7.83155 16.1001 6.7001ZM18.7001 17.3001C17.9269 17.3001 17.3001 17.9269 17.3001 18.7001C17.3001 19.4733 17.9269 20.1001 18.7001 20.1001C19.4733 20.1001 20.1001 19.4733 20.1001 18.7001C20.1001 17.9269 19.4733 17.3001 18.7001 17.3001Z" fill="#222222"/>
<path d="M11.5 7.93617V6H12.5V7.93617H11.5Z" fill="#222222"/>
<path d="M11.5 13.4681V11.5319H12.5V13.4681H11.5Z" fill="#222222"/>
<path d="M11.5 19V17.0638H12.5V19H11.5Z" fill="#222222"/>
</svg>
