<svg width="24" height="24" viewBox="0 0 24 24" fill="none" xmlns="http://www.w3.org/2000/svg">
<path fill-rule="evenodd" clip-rule="evenodd" d="M3 5.77708C3 4.24334 4.24334 3 5.77708 3C7.31082 3 8.55417 4.24334 8.55417 5.77708C8.55417 6.15994 8.4769 6.52383 8.33744 6.85472L8.24815 7.06656L15.7154 15.2127L15.9675 15.0572C16.1722 14.931 16.3943 14.8307 16.6293 14.7608L16.8854 14.6846V8.51544L16.6293 8.43921C15.4819 8.09773 14.6458 7.03458 14.6458 5.77708C14.6458 4.24334 15.8892 3 17.4229 3C18.9567 3 20.2 4.24334 20.2 5.77708C20.2 7.03458 19.3639 8.09773 18.2165 8.43921L17.9604 8.51544V14.6846L18.2165 14.7608C19.3639 15.1023 20.2 16.1654 20.2 17.4229C20.2 18.9567 18.9567 20.2 17.4229 20.2C15.8892 20.2 14.6458 18.9567 14.6458 17.4229C14.6458 17.0023 14.7391 16.6045 14.9057 16.2482L15.0073 16.031L7.57122 7.91897L7.31574 8.08935C7.08857 8.24086 6.838 8.35966 6.5707 8.43921L6.31458 8.51544V14.6846L6.5707 14.7608C7.71809 15.1023 8.55417 16.1654 8.55417 17.4229C8.55417 18.9567 7.31082 20.2 5.77708 20.2C4.24334 20.2 3 18.9567 3 17.4229C3 16.1654 3.83608 15.1023 4.98346 14.7608L5.23958 14.6846V8.51544L4.98346 8.43921C3.83608 8.09773 3 7.03458 3 5.77708ZM5.77708 4.075C4.83705 4.075 4.075 4.83705 4.075 5.77708C4.075 6.71712 4.83705 7.47917 5.77708 7.47917C6.71712 7.47917 7.47917 6.71712 7.47917 5.77708C7.47917 4.83705 6.71712 4.075 5.77708 4.075ZM17.4229 4.075C16.4829 4.075 15.7208 4.83705 15.7208 5.77708C15.7208 6.71712 16.4829 7.47917 17.4229 7.47917C18.363 7.47917 19.125 6.71712 19.125 5.77708C19.125 4.83705 18.363 4.075 17.4229 4.075ZM5.77708 15.7208C4.83705 15.7208 4.075 16.4829 4.075 17.4229C4.075 18.3629 4.83705 19.125 5.77708 19.125C6.71712 19.125 7.47917 18.3629 7.47917 17.4229C7.47917 16.4829 6.71712 15.7208 5.77708 15.7208ZM17.4229 15.7208C16.4829 15.7208 15.7208 16.4829 15.7208 17.4229C15.7208 18.3629 16.4829 19.125 17.4229 19.125C18.363 19.125 19.125 18.363 19.125 17.4229C19.125 16.4829 18.363 15.7208 17.4229 15.7208Z" fill="#222222"/>
</svg>
