<svg width="24" height="24" viewBox="0 0 24 24" fill="none" xmlns="http://www.w3.org/2000/svg">
<path d="M6.18441 2.18326C5.83535 2.16712 5.46296 2.28839 5.10336 2.4756C4.74209 2.66368 4.38286 2.92405 4.05674 3.20044C3.41083 3.74786 2.87727 4.37336 2.70319 4.65864C1.97173 5.66081 2.03738 6.96053 2.72682 8.47691C3.6296 10.6859 5.77256 13.4434 8.20868 15.8635C10.6448 18.2836 13.3938 20.3859 15.5223 21.2722C17.0502 21.982 18.3397 22.0095 19.3399 21.2973C19.4541 21.2305 19.6639 21.0687 19.9099 20.8494C20.1627 20.624 20.4608 20.3315 20.7451 20.0035C21.029 19.676 21.3015 19.3103 21.5006 18.9388C21.6988 18.5688 21.83 18.1824 21.8171 17.8165L21.8168 17.8105C21.7817 17.3873 21.5267 17.0243 21.2539 16.7451C20.9413 16.425 20.2041 15.8161 19.4889 15.2773C19.1303 15.0071 18.7743 14.7524 18.4766 14.5583C18.3278 14.4614 18.1922 14.3786 18.0771 14.3164C17.9656 14.2561 17.8623 14.2089 17.782 14.1921C17.1647 14.0635 16.6709 14.348 16.2295 14.6024L16.1556 14.6449C15.6836 14.9153 15.3749 15.2773 14.7216 14.9354C11.9999 13 10.4999 11.5 9.0633 9.27943C8.66376 8.66185 9.08337 8.31667 9.35386 7.84461L9.39671 7.77014C9.65113 7.32888 9.93566 6.8354 9.8077 6.2184C9.79089 6.13799 9.74365 6.03443 9.68333 5.92279C9.62113 5.80767 9.53836 5.67196 9.4414 5.52319C9.24733 5.22543 8.99259 4.86952 8.72238 4.51094C8.18352 3.79586 7.57465 3.05901 7.25449 2.74636C6.97419 2.47254 6.61222 2.21863 6.18906 2.18356L6.18441 2.18326Z" fill="#222222"/>
</svg>
