<svg width="24" height="24" viewBox="0 0 24 24" fill="none" xmlns="http://www.w3.org/2000/svg">
<path fill-rule="evenodd" clip-rule="evenodd" d="M16.2803 6.71967C16.5732 7.01256 16.5732 7.48744 16.2803 7.78033L12.2803 11.7803C11.9874 12.0732 11.5126 12.0732 11.2197 11.7803C10.9268 11.4874 10.9268 11.0126 11.2197 10.7197L15.2197 6.71967C15.5126 6.42678 15.9874 6.42678 16.2803 6.71967ZM7.24828 11.1925C7.55616 10.9154 8.03038 10.9404 8.30748 11.2483L12.2787 15.6607L20.7197 7.21967C21.0126 6.92678 21.4874 6.92678 21.7803 7.21967C22.0732 7.51256 22.0732 7.98744 21.7803 8.28033L12.7803 17.2803C12.6348 17.4258 12.436 17.5051 12.2303 17.4997C12.0246 17.4943 11.8302 17.4047 11.6925 17.2517L7.19254 12.2517C6.91544 11.9438 6.9404 11.4696 7.24828 11.1925ZM6.21967 16.7803C6.51256 17.0732 6.98744 17.0732 7.28033 16.7803C7.57322 16.4874 7.57322 16.0126 7.28033 15.7197L3.28033 11.7197C2.98744 11.4268 2.51256 11.4268 2.21967 11.7197C1.92678 12.0126 1.92678 12.4874 2.21967 12.7803L6.21967 16.7803Z" fill="#222222"/>
</svg>
