<svg width="24" height="24" viewBox="0 0 24 24" fill="none" xmlns="http://www.w3.org/2000/svg">
<path fill-rule="evenodd" clip-rule="evenodd" d="M17.25 6.83333V10.4395L21.0315 7.41436C21.2566 7.23425 21.565 7.19914 21.8249 7.32403C22.0847 7.44892 22.25 7.7117 22.25 8.00001V16C22.25 16.2883 22.0847 16.5511 21.8249 16.676C21.565 16.8009 21.2566 16.7658 21.0315 16.5857L17.25 13.5605V17.1667C17.25 18.6061 16.0657 19.75 14.6333 19.75H4.36667C2.93432 19.75 1.75 18.6061 1.75 17.1667V6.83333C1.75 5.39391 2.93432 4.25 4.36667 4.25H14.6333C16.0657 4.25 17.25 5.39391 17.25 6.83333Z" fill="#222222"/>
</svg>
