<svg width="24" height="24" viewBox="0 0 24 24" fill="none" xmlns="http://www.w3.org/2000/svg">
<path fill-rule="evenodd" clip-rule="evenodd" d="M3.25 6.83333C3.25 6.24771 3.73715 5.75 4.36667 5.75H14.6333C15.2628 5.75 15.75 6.24771 15.75 6.83333V12V17.1667C15.75 17.7523 15.2628 18.25 14.6333 18.25H4.36667C3.73715 18.25 3.25 17.7523 3.25 17.1667V6.83333ZM17.25 10.4395V6.83333C17.25 5.39391 16.0657 4.25 14.6333 4.25H4.36667C2.93432 4.25 1.75 5.39391 1.75 6.83333V17.1667C1.75 18.6061 2.93432 19.75 4.36667 19.75H14.6333C16.0657 19.75 17.25 18.6061 17.25 17.1667V13.5605L21.0315 16.5857C21.2566 16.7658 21.565 16.8009 21.8249 16.676C22.0847 16.5511 22.25 16.2883 22.25 16V8.00001C22.25 7.7117 22.0847 7.44892 21.8249 7.32403C21.565 7.19914 21.2566 7.23425 21.0315 7.41436L17.25 10.4395ZM20.75 14.4395L17.7006 12L20.75 9.56048V14.4395Z" fill="#222222"/>
</svg>
