<svg width="24" height="24" viewBox="0 0 24 24" fill="none" xmlns="http://www.w3.org/2000/svg">
<path fill-rule="evenodd" clip-rule="evenodd" d="M7.63619 1.36353C8.08806 1.36353 8.45437 1.72984 8.45437 2.18171V3.27262L15.5453 3.27262V2.18171C15.5453 1.72984 15.9116 1.36353 16.3635 1.36353C16.8153 1.36353 17.1816 1.72984 17.1816 2.18171V3.27262H18.5453C20.3528 3.27262 21.818 4.73787 21.818 6.54534V18.5453C21.818 20.3528 20.3528 21.8181 18.5453 21.8181H5.45437C3.64689 21.8181 2.18164 20.3528 2.18164 18.5453V6.54534C2.18164 4.73787 3.64689 3.27262 5.45437 3.27262L6.818 3.27262V2.18171C6.818 1.72984 7.18432 1.36353 7.63619 1.36353ZM5.45437 4.90898H18.5453C19.449 4.90898 20.1816 5.64161 20.1816 6.54534V18.5453C20.1816 19.4491 19.449 20.1817 18.5453 20.1817H5.45437C4.55063 20.1817 3.818 19.4491 3.818 18.5453V6.54534C3.818 5.64161 4.55063 4.90898 5.45437 4.90898Z" fill="#222222"/>
<path d="M13.3569 15.014C13.6764 15.3336 14.1944 15.3336 14.5139 15.014C14.8335 14.6945 14.8335 14.1765 14.5139 13.857L13.1641 12.5071L14.5139 11.1572C14.8334 10.8377 14.8334 10.3196 14.5139 10.0001C14.1944 9.68061 13.6764 9.68061 13.3568 10.0001L12.007 11.35L10.657 10C10.3375 9.6805 9.81944 9.6805 9.49992 10C9.18039 10.3195 9.18039 10.8376 9.49991 11.1571L10.8499 12.5071L9.49989 13.8571C9.18037 14.1766 9.18037 14.6946 9.49989 15.0142C9.81941 15.3337 10.3375 15.3337 10.657 15.0142L12.007 13.6642L13.3569 15.014Z" fill="#222222"/>
</svg>
