<svg width="24" height="24" viewBox="0 0 24 24" fill="none" xmlns="http://www.w3.org/2000/svg">
<path d="M19.4012 15.4295L17.4844 12.4414C17.3426 12.2205 17.5179 11.943 17.7992 11.943L19.0315 11.943C19.0315 8.03593 15.8639 4.86913 11.9577 4.86913C9.96508 4.86913 8.16472 5.69312 6.87894 7.01904C6.73056 7.17205 6.52922 7.26511 6.31609 7.26511C5.72279 7.26511 5.38387 6.61166 5.78906 6.17827C7.32999 4.53011 9.52367 3.5 11.9577 3.5C16.62 3.5 20.4006 7.27969 20.4006 11.943H21.6329C21.9142 11.943 22.0895 12.2205 21.9477 12.4414L20.0309 15.4295C19.8902 15.6488 19.5419 15.6488 19.4012 15.4295Z" fill="#222222"/>
<path d="M6.51357 11.5585L4.59672 8.57043C4.45607 8.35117 4.10769 8.35117 3.96704 8.57042L2.0502 11.5585C1.90846 11.7795 2.08373 12.057 2.36504 12.057H3.59732C3.59732 16.7203 7.37795 20.4999 12.0403 20.4999C14.1521 20.4999 16.0831 19.7245 17.5637 18.4426C18.0456 18.0255 17.7137 17.3053 17.0763 17.3053C16.8876 17.3053 16.7067 17.3768 16.5616 17.4975C15.3356 18.5174 13.7595 19.1308 12.0403 19.1308C8.134 19.1308 4.96645 15.964 4.96645 12.057L6.19873 12.057C6.48004 12.057 6.65531 11.7795 6.51357 11.5585Z" fill="#222222"/>
</svg>
