<svg width="24" height="24" viewBox="0 0 24 24" fill="none" xmlns="http://www.w3.org/2000/svg">
<path fill-rule="evenodd" clip-rule="evenodd" d="M21.2803 4.21967C21.5732 4.51256 21.5732 4.98744 21.2803 5.28033L5.28033 21.2803C4.98744 21.5732 4.51256 21.5732 4.21967 21.2803C3.92678 20.9874 3.92678 20.5126 4.21967 20.2197L20.2197 4.21967C20.5126 3.92678 20.9874 3.92678 21.2803 4.21967Z" fill="#222222"/>
<path d="M17.2342 5.35161C15.7887 4.19299 13.954 3.5 11.9577 3.5C9.52367 3.5 7.32999 4.53011 5.78906 6.17827C5.38387 6.61166 5.72279 7.26511 6.31609 7.26511C6.52922 7.26511 6.73056 7.17205 6.87894 7.01904C8.16472 5.69312 9.96508 4.86913 11.9577 4.86913C13.5757 4.86913 15.0671 5.4125 16.259 6.32677L17.2342 5.35161Z" fill="#222222"/>
<path d="M18.6366 6.77759L17.6591 7.75508C18.5218 8.9275 19.0315 10.3757 19.0315 11.943L17.7992 11.943C17.5179 11.943 17.3426 12.2205 17.4844 12.4414L19.4012 15.4295C19.5419 15.6488 19.8902 15.6488 20.0309 15.4295L21.9477 12.4414C22.0895 12.2205 21.9142 11.943 21.6329 11.943H20.4006C20.4006 9.99722 19.7424 8.2053 18.6366 6.77759Z" fill="#222222"/>
<path d="M6.3397 16.2461C5.47651 15.0735 4.96645 13.6248 4.96645 12.057L6.19873 12.057C6.48004 12.057 6.65531 11.7795 6.51357 11.5585L4.59672 8.57043C4.45607 8.35117 4.10769 8.35117 3.96704 8.57042L2.0502 11.5585C1.90846 11.7795 2.08373 12.057 2.36504 12.057H3.59732C3.59732 14.0033 4.25588 15.7956 5.36224 17.2235L6.3397 16.2461Z" fill="#222222"/>
<path d="M6.76494 18.6493L7.74011 17.6741C8.93186 18.5878 10.4227 19.1308 12.0403 19.1308C13.7595 19.1308 15.3356 18.5174 16.5616 17.4975C16.7067 17.3768 16.8876 17.3053 17.0763 17.3053C17.7137 17.3053 18.0456 18.0255 17.5637 18.4426C16.0831 19.7245 14.1521 20.4999 12.0403 20.4999C10.0445 20.4999 8.21022 19.8073 6.76494 18.6493Z" fill="#222222"/>
</svg>
