<svg width="24" height="24" viewBox="0 0 24 24" fill="none" xmlns="http://www.w3.org/2000/svg">
<path fill-rule="evenodd" clip-rule="evenodd" d="M18.8979 4.98173C18.1159 4.07012 16.9743 3.54547 15.7728 3.54547H3.01841C1.35139 3.54547 0 4.89584 0 6.5616V17.5293C0 19.1951 1.35139 20.5455 3.01841 20.5455H15.7728C16.9743 20.5455 18.1159 20.0208 18.8979 19.1092L23.2733 14.0083C24.2422 12.8788 24.2422 11.2121 23.2733 10.0826L18.8979 4.98173ZM15.7728 5.19063C16.4937 5.19063 17.1786 5.50542 17.6478 6.05239L22.0233 11.1533C22.4637 11.6667 22.4637 12.4243 22.0233 12.9377L17.6478 18.0386C17.1786 18.5855 16.4937 18.9003 15.7728 18.9003H3.01841C2.26067 18.9003 1.6464 18.2865 1.6464 17.5293V6.5616C1.6464 5.80444 2.26067 5.19063 3.01841 5.19063H15.7728Z" fill="#222222"/>
</svg>
