<svg width="24" height="24" viewBox="0 0 24 24" fill="none" xmlns="http://www.w3.org/2000/svg">
<g clip-path="url(#clip0_25520_18291)">
<path fill-rule="evenodd" clip-rule="evenodd" d="M6.2984 11.515C6.70407 12.115 6.70407 12.885 6.2984 13.485L2.44883 19.1786L16.6435 19.1786C17.2953 19.1786 17.9025 18.8634 18.2549 18.3421L21.9829 12.8283C22.1181 12.6283 22.1181 12.3717 21.9829 12.1717L18.2549 6.65791C17.9025 6.13657 17.2953 5.82143 16.6435 5.82143L2.44883 5.82143L6.2984 11.515ZM23.5943 13.8133C24.1352 13.0133 24.1352 11.9867 23.5943 11.1867L19.8664 5.67295C19.1614 4.63029 17.9472 4 16.6435 4L1.2792 4C0.268795 4 -0.341466 5.0628 0.204923 5.87092L4.68698 12.5L0.204924 19.1291C-0.341465 19.9372 0.268793 21 1.2792 21L16.6435 21C17.9472 21 19.1614 20.3697 19.8664 19.327L23.5943 13.8133Z" fill="#222222"/>
</g>
<defs>
<clipPath id="clip0_25520_18291">
<rect width="24" height="24" fill="white"/>
</clipPath>
</defs>
</svg>
