<svg width="24" height="24" viewBox="0 0 24 24" fill="none" xmlns="http://www.w3.org/2000/svg">
<path fill-rule="evenodd" clip-rule="evenodd" d="M18.6599 9.26493C17.6225 9.05744 16.5488 9.12428 15.5451 9.45885L14.3613 9.85345C14.0352 9.96214 13.6828 9.78592 13.5741 9.45986C13.4654 9.1338 13.6416 8.78137 13.9677 8.67268L15.1515 8.27808C16.3607 7.87501 17.6542 7.79448 18.904 8.04445L19.5523 8.17412C19.8894 8.24152 20.1079 8.56938 20.0405 8.9064C19.9731 9.24343 19.6453 9.462 19.3082 9.39459L18.6599 9.26493Z" fill="#222222"/>
<path fill-rule="evenodd" clip-rule="evenodd" d="M18.6599 12.1372C17.6225 11.9297 16.5488 11.9966 15.5451 12.3312L14.3613 12.7258C14.0352 12.8345 13.6828 12.6582 13.5741 12.3322C13.4654 12.0061 13.6416 11.6537 13.9677 11.545L15.1515 11.1504C16.3607 10.7473 17.6542 10.6668 18.904 10.9168L19.5523 11.0464C19.8894 11.1138 20.1079 11.4417 20.0405 11.7787C19.9731 12.1157 19.6453 12.3343 19.3082 12.2669L18.6599 12.1372Z" fill="#222222"/>
<path fill-rule="evenodd" clip-rule="evenodd" d="M18.6599 15.0094C17.6225 14.8019 16.5488 14.8688 15.5451 15.2034L14.3613 15.598C14.0352 15.7066 13.6828 15.5304 13.5741 15.2044C13.4654 14.8783 13.6416 14.5259 13.9677 14.4172L15.1515 14.0226C16.3607 13.6195 17.6542 13.539 18.904 13.789L19.5523 13.9186C19.8894 13.986 20.1079 14.3139 20.0405 14.6509C19.9731 14.9879 19.6453 15.2065 19.3082 15.1391L18.6599 15.0094Z" fill="#222222"/>
<path fill-rule="evenodd" clip-rule="evenodd" d="M1.69275 4.57795C2.41957 4.17529 3.81433 3.75793 6.02645 3.75793C8.42971 3.75793 10.2793 4.9207 11.1821 5.4883L11.1981 5.49833C11.2169 5.51013 11.231 5.51232 11.2439 5.51163C11.2584 5.51085 11.2842 5.50519 11.3165 5.48171C12.163 4.86565 13.9015 3.75793 16.5581 3.75793C19.0668 3.75793 20.9346 4.17247 21.9657 4.52472C22.6627 4.76282 23.0212 5.43035 22.999 6.07257L22.5857 18.0603C22.5468 19.1886 21.4493 19.9206 20.4155 19.6557C19.2861 19.3663 17.7963 19.0766 16.5581 19.0766C15.8705 19.0766 15.0676 19.2734 14.2703 19.5705C13.481 19.8645 12.7418 20.2399 12.196 20.5578C11.6386 20.8824 10.9459 20.8824 10.3885 20.5578C9.84272 20.2399 9.10349 19.8645 8.31419 19.5705C7.51693 19.2734 6.71402 19.0766 6.02645 19.0766C5.0558 19.0766 4.11788 19.2555 3.36536 19.4698C2.29908 19.7734 1 19.0323 1 17.7669V5.82999C1 5.40994 1.16978 4.86768 1.69275 4.57795ZM2.43718 5.80818C2.43654 5.81454 2.43613 5.82183 2.43613 5.82999V17.7669C2.43613 17.8482 2.4775 17.9424 2.59055 18.0193C2.70741 18.0988 2.852 18.1228 2.97204 18.0886C3.81494 17.8486 4.8887 17.6405 6.02645 17.6405C6.95655 17.6405 7.94214 17.8993 8.81557 18.2247C9.69696 18.5531 10.5106 18.967 11.1112 19.3168C11.2219 19.3812 11.3626 19.3812 11.4733 19.3168C12.0739 18.967 12.8876 18.5531 13.7689 18.2247C14.6424 17.8993 15.628 17.6405 16.5581 17.6405C17.9755 17.6405 19.602 17.9647 20.772 18.2645C20.9774 18.3172 21.1452 18.161 21.1504 18.0108L21.5638 6.02308C21.5655 5.9739 21.5522 5.93678 21.5385 5.91501C21.5264 5.8959 21.5145 5.88819 21.5014 5.88373C20.6264 5.5848 18.916 5.19406 16.5581 5.19406C14.3321 5.19406 12.8902 6.11265 12.1615 6.64291C11.3165 7.25786 11.1821 7.18461 10.4338 6.71418C9.53773 6.15092 7.99265 5.19406 6.02645 5.19406C4.04233 5.19406 2.91694 5.55878 2.43718 5.80818Z" fill="#222222"/>
</svg>
