<svg width="24" height="24" viewBox="0 0 24 24" fill="none" xmlns="http://www.w3.org/2000/svg">
<path fill-rule="evenodd" clip-rule="evenodd" d="M12 3C15.3137 3 18 5.68629 18 9C19.6569 9 21 10.3431 21 12V19C21 20.6569 19.6569 22 18 22H6C4.34315 22 3 20.6569 3 19V12C3 10.3431 4.34315 9 6 9C6 5.68629 8.68629 3 12 3ZM12 5C14.2091 5 16 6.79086 16 9H8C8 6.79086 9.79086 5 12 5ZM12 17.5C13.1046 17.5 14 16.6046 14 15.5C14 14.3954 13.1046 13.5 12 13.5C10.8954 13.5 10 14.3954 10 15.5C10 16.6046 10.8954 17.5 12 17.5Z" fill="#222222"/>
</svg>
