<svg width="24" height="24" viewBox="0 0 24 24" fill="none" xmlns="http://www.w3.org/2000/svg">
<path fill-rule="evenodd" clip-rule="evenodd" d="M6 10.4C5.11634 10.4 4.4 11.1163 4.4 12V19C4.4 19.8837 5.11634 20.6 6 20.6H18C18.8837 20.6 19.6 19.8837 19.6 19V12C19.6 11.1163 18.8837 10.4 18 10.4H6ZM8.25184 7.6C8.81934 6.08133 10.2834 5 12 5C13.7166 5 15.1807 6.08133 15.7482 7.6C15.911 8.03573 16 8.50747 16 9H8C8 8.50747 8.08902 8.03573 8.25184 7.6ZM12 3C15.3137 3 18 5.68629 18 9C19.6569 9 21 10.3431 21 12V19C21 20.6569 19.6569 22 18 22H6C4.34315 22 3 20.6569 3 19V12C3 10.3431 4.34315 9 6 9C6 5.68629 8.68629 3 12 3Z" fill="#222222"/>
<path fill-rule="evenodd" clip-rule="evenodd" d="M11.9998 14.2C11.2818 14.2 10.6998 14.782 10.6998 15.5C10.6998 16.218 11.2818 16.8 11.9998 16.8C12.7178 16.8 13.2998 16.218 13.2998 15.5C13.2998 14.782 12.7178 14.2 11.9998 14.2ZM9.2998 15.5C9.2998 14.0088 10.5086 12.8 11.9998 12.8C13.491 12.8 14.6998 14.0088 14.6998 15.5C14.6998 16.9912 13.491 18.2 11.9998 18.2C10.5086 18.2 9.2998 16.9912 9.2998 15.5Z" fill="#222222"/>
</svg>
