<svg width="24" height="24" viewBox="0 0 24 24" fill="none" xmlns="http://www.w3.org/2000/svg">
<path fill-rule="evenodd" clip-rule="evenodd" d="M14.2799 2.25969C14.5178 2.22108 14.7599 2.29921 14.9303 2.46968L21.5303 9.06968C21.7008 9.24015 21.7789 9.48218 21.7403 9.72015C21.7017 9.95812 21.551 10.163 21.3354 10.2708L18.8869 11.4951C18.1963 11.8404 17.566 12.2947 17.02 12.8406C16.1361 13.7246 15.4982 14.8239 15.1693 16.0299L13.9236 20.5973C13.8532 20.8553 13.6509 21.0563 13.3925 21.1249C13.1341 21.1935 12.8587 21.1194 12.6697 20.9303L8.4 16.6607L3.53033 21.5303C3.23744 21.8232 2.76256 21.8232 2.46967 21.5303C2.17678 21.2374 2.17678 20.7626 2.46967 20.4697L7.33934 15.6L3.06967 11.3303C2.88062 11.1413 2.8065 10.8659 2.87513 10.6075C2.94375 10.3491 3.14473 10.1468 3.40266 10.0764L7.97015 8.83076C9.17615 8.50185 10.2754 7.8639 11.1594 6.97998C11.7053 6.43406 12.1596 5.80369 12.5049 5.11315L13.7292 2.6646C13.837 2.44897 14.0419 2.29831 14.2799 2.25969ZM14.6055 4.26613L13.8465 5.78397C13.4292 6.61871 12.88 7.38072 12.22 8.04064C11.1515 9.10915 9.82267 9.88031 8.36482 10.2779L5.04418 11.1835L12.8165 18.9558L13.7221 15.6352C14.1197 14.1773 14.8909 12.8485 15.9594 11.78C16.6193 11.1201 17.3813 10.5708 18.216 10.1535L19.7339 9.39455L14.6055 4.26613Z" fill="#222222"/>
</svg>
