<svg width="24" height="24" viewBox="0 0 24 24" fill="none" xmlns="http://www.w3.org/2000/svg">
<path fill-rule="evenodd" clip-rule="evenodd" d="M3.25 6.83333C3.25 6.24771 3.73715 5.75 4.36667 5.75H4.93333C5.34755 5.75 5.68333 5.41421 5.68333 5C5.68333 4.58579 5.34755 4.25 4.93333 4.25H4.36667C2.93432 4.25 1.75 5.39391 1.75 6.83333V17.1667C1.75 18.6061 2.93432 19.75 4.36667 19.75H14.6333C16.0657 19.75 17.25 18.6061 17.25 17.1667V16.5833C17.25 16.1691 16.9142 15.8333 16.5 15.8333C16.0858 15.8333 15.75 16.1691 15.75 16.5833V17.1667C15.75 17.7523 15.2628 18.25 14.6333 18.25H4.36667C3.73715 18.25 3.25 17.7523 3.25 17.1667V6.83333ZM11.8428 4.25C11.4286 4.25 11.0928 4.58579 11.0928 5C11.0928 5.41421 11.4286 5.75 11.8428 5.75H14.7273C15.0082 5.75 15.265 5.85216 15.444 6.01503C15.6206 6.17574 15.7046 6.37769 15.7046 6.57143V11.9814C15.7046 12.3042 15.9084 12.5793 16.1944 12.6851C16.4424 12.7955 16.742 12.7669 16.9686 12.5857L20.75 9.56047V16C20.75 16.4142 21.0858 16.75 21.5 16.75C21.9143 16.75 22.25 16.4142 22.25 16V8C22.25 7.7117 22.0848 7.44891 21.8249 7.32402C21.5651 7.19913 21.2567 7.23425 21.0315 7.41435L17.2046 10.4759V6.57143C17.2046 5.93163 16.9246 5.33418 16.4534 4.90549C15.9846 4.47896 15.3626 4.25 14.7273 4.25H11.8428Z" fill="#222222"/>
<path fill-rule="evenodd" clip-rule="evenodd" d="M2.96967 2.96967C3.26256 2.67678 3.73744 2.67678 4.03033 2.96967L21.0303 19.9697C21.3232 20.2626 21.3232 20.7374 21.0303 21.0303C20.7374 21.3232 20.2626 21.3232 19.9697 21.0303L2.96967 4.03033C2.67678 3.73744 2.67678 3.26256 2.96967 2.96967Z" fill="#222222"/>
</svg>
