<svg width="24" height="24" viewBox="0 0 24 24" fill="none" xmlns="http://www.w3.org/2000/svg">
<path d="M5.22653 4.43781C4.88836 4.0726 4.93404 3.52276 5.32855 3.20971C5.72306 2.89666 6.31701 2.93894 6.65518 3.30415L14.1819 11.4328C14.4839 11.759 14.4839 12.2403 14.1819 12.5664L6.65521 20.6958C6.31706 21.061 5.72311 21.1034 5.32858 20.7903C4.93406 20.4773 4.88836 19.9274 5.2265 19.5622L12.2284 11.9996L5.22653 4.43781Z" fill="#222222"/>
<path d="M18.1897 21C18.6372 21 19 20.6546 19 20.2286V3.77143C19 3.34538 18.6372 3 18.1897 3C17.7422 3 17.3794 3.34538 17.3794 3.77143L17.3794 20.2286C17.3794 20.6546 17.7422 21 18.1897 21Z" fill="#222222"/>
</svg>
