<svg width="24" height="24" viewBox="0 0 24 24" fill="none" xmlns="http://www.w3.org/2000/svg">
<path d="M4.43782 5.22653C4.0726 4.88836 3.52276 4.93404 3.20971 5.32855C2.89666 5.72306 2.93894 6.31701 3.30415 6.65518L11.4328 14.1819C11.759 14.4839 12.2403 14.4839 12.5664 14.1819L20.6958 6.65521C21.061 6.31706 21.1034 5.72311 20.7903 5.32858C20.4773 4.93406 19.9274 4.88836 19.5622 5.22651L11.9996 12.2284L4.43782 5.22653Z" fill="#222222"/>
<path d="M21 18.1897C21 18.6372 20.6546 19 20.2286 19L3.77143 19C3.34538 19 3 18.6372 3 18.1897C3 17.7422 3.34538 17.3794 3.77143 17.3794L20.2286 17.3794C20.6546 17.3794 21 17.7422 21 18.1897Z" fill="#222222"/>
</svg>
