<svg width="24" height="24" viewBox="0 0 24 24" fill="none" xmlns="http://www.w3.org/2000/svg">
<path fill-rule="evenodd" clip-rule="evenodd" d="M19.0711 19.0711C15.1658 22.9763 8.83418 22.9763 4.92893 19.0711C1.02369 15.1658 1.02369 8.83418 4.92893 4.92893C8.83418 1.02369 15.1658 1.02369 19.0711 4.92893C22.9763 8.83418 22.9763 15.1658 19.0711 19.0711ZM12.6905 7.3463C12.441 6.88457 11.8172 6.88457 11.5677 7.34629L9.27779 11.5838L5.97047 9.80211C5.72557 9.67018 5.44755 9.9026 5.50852 10.1883L6.63371 15.4614C6.70095 15.7765 6.96324 16 7.26575 16H16.7342C17.0368 16 17.299 15.7765 17.3663 15.4614L18.4915 10.1883C18.5524 9.9026 18.2744 9.67018 18.0295 9.80211L14.9222 11.4761L12.6905 7.3463Z" fill="#222222"/>
</svg>
