<svg width="24" height="24" viewBox="0 0 24 24" fill="none" xmlns="http://www.w3.org/2000/svg">
<path fill-rule="evenodd" clip-rule="evenodd" d="M8.45437 2.18171C8.45437 1.72984 8.08806 1.36353 7.63619 1.36353C7.18432 1.36353 6.818 1.72984 6.818 2.18171V3.27262L5.45437 3.27262C3.64689 3.27262 2.18164 4.73787 2.18164 6.54534V18.5453C2.18164 20.3528 3.64689 21.8181 5.45437 21.8181H18.5453C20.3528 21.8181 21.818 20.3528 21.818 18.5453V6.54534C21.818 4.73787 20.3528 3.27262 18.5453 3.27262H17.1816V2.18171C17.1816 1.72984 16.8153 1.36353 16.3635 1.36353C15.9116 1.36353 15.5453 1.72984 15.5453 2.18171V3.27262L8.45437 3.27262V2.18171ZM14.5139 15.0142C14.1944 15.3337 13.6764 15.3337 13.3569 15.0142L12.007 13.6643L10.657 15.0143C10.3375 15.3338 9.81941 15.3338 9.49989 15.0143C9.18037 14.6948 9.18037 14.1767 9.49989 13.8572L10.8499 12.5072L9.49991 11.1572C9.18039 10.8377 9.1804 10.3197 9.49992 10.0001C9.81944 9.68062 10.3375 9.68062 10.657 10.0001L12.007 11.3501L13.3568 10.0003C13.6764 9.68073 14.1944 9.68073 14.5139 10.0003C14.8334 10.3198 14.8334 10.8378 14.5139 11.1573L13.1641 12.5072L14.5139 13.8571C14.8335 14.1766 14.8335 14.6946 14.5139 15.0142Z" fill="#222222"/>
</svg>
