<svg width="1000" height="384" viewBox="0 0 1000 384" fill="none" xmlns="http://www.w3.org/2000/svg">
<rect width="1000" height="384" rx="16" fill="url(#paint0_linear_299_2251)"/>
<rect x="58" y="180" width="230" height="44" rx="4" fill="#5478F6"/>
<path d="M129.602 197.562V198.42H133.983C133.762 201.189 132.202 203.425 129.069 204.92L129.641 205.791C133.515 203.893 135.062 200.929 135.062 197.562H129.602ZM137.415 196.301V207.962H138.481V196.301H137.415ZM141.652 201.475C143.537 201.189 145.253 200.253 145.89 198.901C146.527 200.253 148.243 201.189 150.128 201.475L150.531 200.617C148.464 200.344 146.579 199.187 146.579 197.757V197.731H150.206V196.873H141.574V197.731H145.201V197.757C145.201 199.187 143.316 200.344 141.249 200.617L141.652 201.475ZM143.03 204.413H141.964V207.702H149.985V206.831H143.03V204.413ZM146.41 202.593V200.656H145.344V202.593H140.599V203.464H151.194V202.593H146.41ZM155.569 207H160.938V205.973H156.778V197.471H155.569V207ZM162.251 207H163.434V199.941H162.251V207ZM162.849 198.485C163.317 198.485 163.668 198.16 163.668 197.718C163.668 197.237 163.317 196.951 162.849 196.951C162.381 196.951 162.03 197.237 162.03 197.718C162.03 198.16 162.381 198.485 162.849 198.485ZM165.571 207H166.754V201.878C167.469 201.163 167.963 200.799 168.691 200.799C169.627 200.799 170.03 201.358 170.03 202.684V207H171.213V202.528C171.213 200.721 170.537 199.759 169.055 199.759C168.093 199.759 167.365 200.292 166.689 200.955H166.65L166.546 199.941H165.571V207ZM175.312 207.169C176.287 207.169 176.989 206.662 177.652 205.895H177.691L177.782 207H178.77V199.941H177.587V204.946C176.911 205.791 176.404 206.142 175.676 206.142C174.74 206.142 174.35 205.583 174.35 204.27V199.941H173.167V204.413C173.167 206.207 173.83 207.169 175.312 207.169ZM179.893 207H181.141L182.09 205.349C182.337 204.92 182.571 204.491 182.818 204.088H182.883C183.143 204.491 183.403 204.92 183.637 205.349L184.677 207H185.977L183.65 203.438L185.795 199.941H184.56L183.689 201.501C183.481 201.891 183.273 202.281 183.052 202.671H183C182.766 202.281 182.519 201.891 182.298 201.501L181.349 199.941H180.075L182.22 203.321L179.893 207ZM191.667 209.561L192.408 209.21C191.277 207.364 190.744 205.167 190.744 202.957C190.744 200.747 191.277 198.563 192.408 196.704L191.667 196.366C190.471 198.303 189.756 200.409 189.756 202.957C189.756 205.518 190.471 207.611 191.667 209.561ZM195.202 198.446H196.801C198.296 198.446 199.115 198.888 199.115 200.149C199.115 201.384 198.296 201.982 196.801 201.982H195.202V198.446ZM200.597 207L198.153 202.827C199.453 202.515 200.311 201.631 200.311 200.149C200.311 198.16 198.92 197.471 196.983 197.471H193.993V207H195.202V202.957H196.918L199.232 207H200.597ZM205.287 197.315H204.234V199.408C204.234 201.527 202.908 203.763 201.231 204.621L201.868 205.479C203.181 204.777 204.26 203.321 204.767 201.618C205.3 203.217 206.353 204.582 207.588 205.245L208.251 204.4C206.613 203.581 205.287 201.462 205.287 199.408V197.315ZM212.268 201.033H210.344V196.314H209.278V207.962H210.344V201.917H212.268V201.033ZM213.671 209.561C214.88 207.611 215.595 205.518 215.595 202.957C215.595 200.409 214.88 198.303 213.671 196.366L212.943 196.704C214.061 198.563 214.607 200.747 214.607 202.957C214.607 205.167 214.061 207.364 212.943 209.21L213.671 209.561Z" fill="white"/>
<rect x="404" y="180" width="230" height="44" rx="4" fill="#5478F6"/>
<path d="M493.739 207H494.948V203.217H496.521C498.601 203.217 500.031 202.281 500.031 200.266C500.031 198.186 498.601 197.471 496.456 197.471H493.739V207ZM494.948 202.242V198.446H496.313C497.99 198.446 498.835 198.888 498.835 200.266C498.835 201.631 498.042 202.242 496.365 202.242H494.948ZM501.589 207H502.772V202.463C503.24 201.254 503.968 200.838 504.553 200.838C504.839 200.838 505.008 200.864 505.242 200.955L505.463 199.915C505.242 199.798 505.021 199.759 504.709 199.759C503.916 199.759 503.201 200.331 502.707 201.228H502.668L502.564 199.941H501.589V207ZM508.972 207.169C510.701 207.169 512.248 205.817 512.248 203.477C512.248 201.124 510.701 199.759 508.972 199.759C507.243 199.759 505.696 201.124 505.696 203.477C505.696 205.817 507.243 207.169 508.972 207.169ZM508.972 206.181C507.75 206.181 506.931 205.102 506.931 203.477C506.931 201.852 507.75 200.747 508.972 200.747C510.194 200.747 511.026 201.852 511.026 203.477C511.026 205.102 510.194 206.181 508.972 206.181ZM513.957 207H519.326V205.973H515.166V197.471H513.957V207ZM520.639 207H521.822V199.941H520.639V207ZM521.237 198.485C521.705 198.485 522.056 198.16 522.056 197.718C522.056 197.237 521.705 196.951 521.237 196.951C520.769 196.951 520.418 197.237 520.418 197.718C520.418 198.16 520.769 198.485 521.237 198.485ZM523.959 207H525.142V201.878C525.857 201.163 526.351 200.799 527.079 200.799C528.015 200.799 528.418 201.358 528.418 202.684V207H529.601V202.528C529.601 200.721 528.925 199.759 527.443 199.759C526.481 199.759 525.753 200.292 525.077 200.955H525.038L524.934 199.941H523.959V207ZM533.7 207.169C534.675 207.169 535.377 206.662 536.04 205.895H536.079L536.17 207H537.158V199.941H535.975V204.946C535.299 205.791 534.792 206.142 534.064 206.142C533.128 206.142 532.738 205.583 532.738 204.27V199.941H531.555V204.413C531.555 206.207 532.218 207.169 533.7 207.169ZM538.282 207H539.53L540.479 205.349C540.726 204.92 540.96 204.491 541.207 204.088H541.272C541.532 204.491 541.792 204.92 542.026 205.349L543.066 207H544.366L542.039 203.438L544.184 199.941H542.949L542.078 201.501C541.87 201.891 541.662 202.281 541.441 202.671H541.389C541.155 202.281 540.908 201.891 540.687 201.501L539.738 199.941H538.464L540.609 203.321L538.282 207Z" fill="white"/>
<rect x="58" y="232" width="230" height="44" rx="4" fill="#494C54"/>
<path d="M161.579 259H162.788V254.502H167.234V259H168.43V249.471H167.234V253.462H162.788V249.471H161.579V259ZM169.62 261.327H170.491L174.378 248.691H173.52L169.62 261.327ZM176.661 259H178.091L179.508 253.254C179.664 252.5 179.833 251.811 179.989 251.083H180.041C180.197 251.811 180.34 252.5 180.509 253.254L181.952 259H183.395L185.371 249.471H184.214L183.213 254.658C183.031 255.672 182.849 256.699 182.667 257.739H182.602C182.381 256.699 182.16 255.672 181.926 254.658L180.587 249.471H179.495L178.182 254.658C177.948 255.685 177.714 256.712 177.493 257.739H177.441C177.259 256.712 177.064 255.685 176.882 254.658L175.881 249.471H174.633L176.661 259Z" fill="white"/>
<rect x="404" y="232" width="230" height="44" rx="4" fill="#494C54"/>
<path d="M507.579 259H508.788V254.502H513.234V259H514.43V249.471H513.234V253.462H508.788V249.471H507.579V259ZM515.62 261.327H516.491L520.378 248.691H519.52L515.62 261.327ZM522.661 259H524.091L525.508 253.254C525.664 252.5 525.833 251.811 525.989 251.083H526.041C526.197 251.811 526.34 252.5 526.509 253.254L527.952 259H529.395L531.371 249.471H530.214L529.213 254.658C529.031 255.672 528.849 256.699 528.667 257.739H528.602C528.381 256.699 528.16 255.672 527.926 254.658L526.587 249.471H525.495L524.182 254.658C523.948 255.685 523.714 256.712 523.493 257.739H523.441C523.259 256.712 523.064 255.685 522.882 254.658L521.881 249.471H520.633L522.661 259Z" fill="white"/>
<rect x="58" y="75" width="74" height="87" rx="4" fill="white"/>
<path d="M85.7332 109.126L86.2012 107.67C86.5392 106.591 86.8512 105.564 87.1502 104.446H87.2022C87.5142 105.551 87.8132 106.591 88.1642 107.67L88.6192 109.126H85.7332ZM89.8282 113H91.1022L87.8652 103.471H86.5262L83.2892 113H84.5112L85.4342 110.088H88.9182L89.8282 113ZM92.0827 115.977H93.2657V113.585L93.2397 112.35C93.8767 112.87 94.5527 113.169 95.1897 113.169C96.8147 113.169 98.2577 111.778 98.2577 109.36C98.2577 107.189 97.2697 105.759 95.4497 105.759C94.6307 105.759 93.8377 106.227 93.2007 106.747H93.1617L93.0577 105.941H92.0827V115.977ZM94.9947 112.181C94.5267 112.181 93.9027 111.986 93.2657 111.44V107.735C93.9547 107.098 94.5657 106.76 95.1637 106.76C96.5027 106.76 97.0227 107.813 97.0227 109.373C97.0227 111.128 96.1647 112.181 94.9947 112.181ZM99.8842 115.977H101.067V113.585L101.041 112.35C101.678 112.87 102.354 113.169 102.991 113.169C104.616 113.169 106.059 111.778 106.059 109.36C106.059 107.189 105.071 105.759 103.251 105.759C102.432 105.759 101.639 106.227 101.002 106.747H100.963L100.859 105.941H99.8842V115.977ZM102.796 112.181C102.328 112.181 101.704 111.986 101.067 111.44V107.735C101.756 107.098 102.367 106.76 102.965 106.76C104.304 106.76 104.824 107.813 104.824 109.373C104.824 111.128 103.966 112.181 102.796 112.181ZM89.2321 134H89.9991L90.3631 131.036H92.2871L91.9361 134H92.7161L93.0671 131.036H94.4061V130.204H93.1711L93.4441 128.046H94.6921V127.227H93.5351L93.8601 124.562H93.1061L92.7551 127.227H90.8311L91.1561 124.562H90.3891L90.0511 127.227H88.7251V128.046H89.9601L89.6871 130.204H88.4391V131.036H89.5831L89.2321 134ZM90.4671 130.204L90.7271 128.046H92.6641L92.3911 130.204H90.4671ZM96.014 134H101.24V133.012H99.329V124.471H98.419C97.899 124.77 97.288 124.991 96.443 125.147V125.901H98.133V133.012H96.014V134Z" fill="black"/>
<rect x="136" y="75" width="74" height="87" rx="4" fill="#FBFBFB"/>
<path d="M163.733 109.126L164.201 107.67C164.539 106.591 164.851 105.564 165.15 104.446H165.202C165.514 105.551 165.813 106.591 166.164 107.67L166.619 109.126H163.733ZM167.828 113H169.102L165.865 103.471H164.526L161.289 113H162.511L163.434 110.088H166.918L167.828 113ZM170.083 115.977H171.266V113.585L171.24 112.35C171.877 112.87 172.553 113.169 173.19 113.169C174.815 113.169 176.258 111.778 176.258 109.36C176.258 107.189 175.27 105.759 173.45 105.759C172.631 105.759 171.838 106.227 171.201 106.747H171.162L171.058 105.941H170.083V115.977ZM172.995 112.181C172.527 112.181 171.903 111.986 171.266 111.44V107.735C171.955 107.098 172.566 106.76 173.164 106.76C174.503 106.76 175.023 107.813 175.023 109.373C175.023 111.128 174.165 112.181 172.995 112.181ZM177.884 115.977H179.067V113.585L179.041 112.35C179.678 112.87 180.354 113.169 180.991 113.169C182.616 113.169 184.059 111.778 184.059 109.36C184.059 107.189 183.071 105.759 181.251 105.759C180.432 105.759 179.639 106.227 179.002 106.747H178.963L178.859 105.941H177.884V115.977ZM180.796 112.181C180.328 112.181 179.704 111.986 179.067 111.44V107.735C179.756 107.098 180.367 106.76 180.965 106.76C182.304 106.76 182.824 107.813 182.824 109.373C182.824 111.128 181.966 112.181 180.796 112.181ZM167.232 134H167.999L168.363 131.036H170.287L169.936 134H170.716L171.067 131.036H172.406V130.204H171.171L171.444 128.046H172.692V127.227H171.535L171.86 124.562H171.106L170.755 127.227H168.831L169.156 124.562H168.389L168.051 127.227H166.725V128.046H167.96L167.687 130.204H166.439V131.036H167.583L167.232 134ZM168.467 130.204L168.727 128.046H170.664L170.391 130.204H168.467ZM173.442 134H179.435V132.973H176.796C176.315 132.973 175.73 133.025 175.236 133.064C177.472 130.945 178.967 129.008 178.967 127.11C178.967 125.407 177.901 124.289 176.198 124.289C174.989 124.289 174.17 124.848 173.39 125.693L174.079 126.369C174.599 125.745 175.275 125.264 176.055 125.264C177.238 125.264 177.81 126.057 177.81 127.149C177.81 128.787 176.432 130.685 173.442 133.298V134Z" fill="black"/>
<rect x="214" y="75" width="74" height="87" rx="4" fill="#F7F7F7"/>
<path d="M241.733 109.126L242.201 107.67C242.539 106.591 242.851 105.564 243.15 104.446H243.202C243.514 105.551 243.813 106.591 244.164 107.67L244.619 109.126H241.733ZM245.828 113H247.102L243.865 103.471H242.526L239.289 113H240.511L241.434 110.088H244.918L245.828 113ZM248.083 115.977H249.266V113.585L249.24 112.35C249.877 112.87 250.553 113.169 251.19 113.169C252.815 113.169 254.258 111.778 254.258 109.36C254.258 107.189 253.27 105.759 251.45 105.759C250.631 105.759 249.838 106.227 249.201 106.747H249.162L249.058 105.941H248.083V115.977ZM250.995 112.181C250.527 112.181 249.903 111.986 249.266 111.44V107.735C249.955 107.098 250.566 106.76 251.164 106.76C252.503 106.76 253.023 107.813 253.023 109.373C253.023 111.128 252.165 112.181 250.995 112.181ZM255.884 115.977H257.067V113.585L257.041 112.35C257.678 112.87 258.354 113.169 258.991 113.169C260.616 113.169 262.059 111.778 262.059 109.36C262.059 107.189 261.071 105.759 259.251 105.759C258.432 105.759 257.639 106.227 257.002 106.747H256.963L256.859 105.941H255.884V115.977ZM258.796 112.181C258.328 112.181 257.704 111.986 257.067 111.44V107.735C257.756 107.098 258.367 106.76 258.965 106.76C260.304 106.76 260.824 107.813 260.824 109.373C260.824 111.128 259.966 112.181 258.796 112.181ZM245.232 134H245.999L246.363 131.036H248.287L247.936 134H248.716L249.067 131.036H250.406V130.204H249.171L249.444 128.046H250.692V127.227H249.535L249.86 124.562H249.106L248.755 127.227H246.831L247.156 124.562H246.389L246.051 127.227H244.725V128.046H245.96L245.687 130.204H244.439V131.036H245.583L245.232 134ZM246.467 130.204L246.727 128.046H248.664L248.391 130.204H246.467ZM254.302 134.169C255.992 134.169 257.357 133.155 257.357 131.452C257.357 130.152 256.46 129.294 255.329 129.034V128.982C256.343 128.605 257.032 127.838 257.032 126.681C257.032 125.147 255.862 124.289 254.263 124.289C253.158 124.289 252.313 124.77 251.598 125.433L252.235 126.187C252.768 125.654 253.444 125.264 254.211 125.238C255.199 125.264 255.823 125.849 255.823 126.772C255.823 127.799 255.147 128.592 253.184 128.592V129.502C255.381 129.502 256.148 130.269 256.148 131.413C256.148 132.505 255.342 133.181 254.211 133.181C253.132 133.181 252.404 132.674 251.845 132.089L251.247 132.869C251.871 133.545 252.807 134.169 254.302 134.169Z" fill="black"/>
<rect x="51.5" y="68.5" width="243" height="100" rx="6.5" stroke="#FF4244" stroke-width="3" stroke-linejoin="round" stroke-dasharray="7 7"/>
<rect x="404" y="75" width="74" height="87" rx="4" fill="white"/>
<path d="M431.733 109.126L432.201 107.67C432.539 106.591 432.851 105.564 433.15 104.446H433.202C433.514 105.551 433.813 106.591 434.164 107.67L434.619 109.126H431.733ZM435.828 113H437.102L433.865 103.471H432.526L429.289 113H430.511L431.434 110.088H434.918L435.828 113ZM438.083 115.977H439.266V113.585L439.24 112.35C439.877 112.87 440.553 113.169 441.19 113.169C442.815 113.169 444.258 111.778 444.258 109.36C444.258 107.189 443.27 105.759 441.45 105.759C440.631 105.759 439.838 106.227 439.201 106.747H439.162L439.058 105.941H438.083V115.977ZM440.995 112.181C440.527 112.181 439.903 111.986 439.266 111.44V107.735C439.955 107.098 440.566 106.76 441.164 106.76C442.503 106.76 443.023 107.813 443.023 109.373C443.023 111.128 442.165 112.181 440.995 112.181ZM445.884 115.977H447.067V113.585L447.041 112.35C447.678 112.87 448.354 113.169 448.991 113.169C450.616 113.169 452.059 111.778 452.059 109.36C452.059 107.189 451.071 105.759 449.251 105.759C448.432 105.759 447.639 106.227 447.002 106.747H446.963L446.859 105.941H445.884V115.977ZM448.796 112.181C448.328 112.181 447.704 111.986 447.067 111.44V107.735C447.756 107.098 448.367 106.76 448.965 106.76C450.304 106.76 450.824 107.813 450.824 109.373C450.824 111.128 449.966 112.181 448.796 112.181ZM435.232 134H435.999L436.363 131.036H438.287L437.936 134H438.716L439.067 131.036H440.406V130.204H439.171L439.444 128.046H440.692V127.227H439.535L439.86 124.562H439.106L438.755 127.227H436.831L437.156 124.562H436.389L436.051 127.227H434.725V128.046H435.96L435.687 130.204H434.439V131.036H435.583L435.232 134ZM436.467 130.204L436.727 128.046H438.664L438.391 130.204H436.467ZM442.014 134H447.24V133.012H445.329V124.471H444.419C443.899 124.77 443.288 124.991 442.443 125.147V125.901H444.133V133.012H442.014V134Z" fill="black"/>
<rect x="482" y="75" width="74" height="87" rx="4" fill="#FBFBFB"/>
<path d="M509.733 109.126L510.201 107.67C510.539 106.591 510.851 105.564 511.15 104.446H511.202C511.514 105.551 511.813 106.591 512.164 107.67L512.619 109.126H509.733ZM513.828 113H515.102L511.865 103.471H510.526L507.289 113H508.511L509.434 110.088H512.918L513.828 113ZM516.083 115.977H517.266V113.585L517.24 112.35C517.877 112.87 518.553 113.169 519.19 113.169C520.815 113.169 522.258 111.778 522.258 109.36C522.258 107.189 521.27 105.759 519.45 105.759C518.631 105.759 517.838 106.227 517.201 106.747H517.162L517.058 105.941H516.083V115.977ZM518.995 112.181C518.527 112.181 517.903 111.986 517.266 111.44V107.735C517.955 107.098 518.566 106.76 519.164 106.76C520.503 106.76 521.023 107.813 521.023 109.373C521.023 111.128 520.165 112.181 518.995 112.181ZM523.884 115.977H525.067V113.585L525.041 112.35C525.678 112.87 526.354 113.169 526.991 113.169C528.616 113.169 530.059 111.778 530.059 109.36C530.059 107.189 529.071 105.759 527.251 105.759C526.432 105.759 525.639 106.227 525.002 106.747H524.963L524.859 105.941H523.884V115.977ZM526.796 112.181C526.328 112.181 525.704 111.986 525.067 111.44V107.735C525.756 107.098 526.367 106.76 526.965 106.76C528.304 106.76 528.824 107.813 528.824 109.373C528.824 111.128 527.966 112.181 526.796 112.181ZM513.232 134H513.999L514.363 131.036H516.287L515.936 134H516.716L517.067 131.036H518.406V130.204H517.171L517.444 128.046H518.692V127.227H517.535L517.86 124.562H517.106L516.755 127.227H514.831L515.156 124.562H514.389L514.051 127.227H512.725V128.046H513.96L513.687 130.204H512.439V131.036H513.583L513.232 134ZM514.467 130.204L514.727 128.046H516.664L516.391 130.204H514.467ZM519.442 134H525.435V132.973H522.796C522.315 132.973 521.73 133.025 521.236 133.064C523.472 130.945 524.967 129.008 524.967 127.11C524.967 125.407 523.901 124.289 522.198 124.289C520.989 124.289 520.17 124.848 519.39 125.693L520.079 126.369C520.599 125.745 521.275 125.264 522.055 125.264C523.238 125.264 523.81 126.057 523.81 127.149C523.81 128.787 522.432 130.685 519.442 133.298V134Z" fill="black"/>
<rect x="560" y="75" width="74" height="87" rx="4" fill="#F7F7F7"/>
<path d="M587.733 109.126L588.201 107.67C588.539 106.591 588.851 105.564 589.15 104.446H589.202C589.514 105.551 589.813 106.591 590.164 107.67L590.619 109.126H587.733ZM591.828 113H593.102L589.865 103.471H588.526L585.289 113H586.511L587.434 110.088H590.918L591.828 113ZM594.083 115.977H595.266V113.585L595.24 112.35C595.877 112.87 596.553 113.169 597.19 113.169C598.815 113.169 600.258 111.778 600.258 109.36C600.258 107.189 599.27 105.759 597.45 105.759C596.631 105.759 595.838 106.227 595.201 106.747H595.162L595.058 105.941H594.083V115.977ZM596.995 112.181C596.527 112.181 595.903 111.986 595.266 111.44V107.735C595.955 107.098 596.566 106.76 597.164 106.76C598.503 106.76 599.023 107.813 599.023 109.373C599.023 111.128 598.165 112.181 596.995 112.181ZM601.884 115.977H603.067V113.585L603.041 112.35C603.678 112.87 604.354 113.169 604.991 113.169C606.616 113.169 608.059 111.778 608.059 109.36C608.059 107.189 607.071 105.759 605.251 105.759C604.432 105.759 603.639 106.227 603.002 106.747H602.963L602.859 105.941H601.884V115.977ZM604.796 112.181C604.328 112.181 603.704 111.986 603.067 111.44V107.735C603.756 107.098 604.367 106.76 604.965 106.76C606.304 106.76 606.824 107.813 606.824 109.373C606.824 111.128 605.966 112.181 604.796 112.181ZM591.232 134H591.999L592.363 131.036H594.287L593.936 134H594.716L595.067 131.036H596.406V130.204H595.171L595.444 128.046H596.692V127.227H595.535L595.86 124.562H595.106L594.755 127.227H592.831L593.156 124.562H592.389L592.051 127.227H590.725V128.046H591.96L591.687 130.204H590.439V131.036H591.583L591.232 134ZM592.467 130.204L592.727 128.046H594.664L594.391 130.204H592.467ZM600.302 134.169C601.992 134.169 603.357 133.155 603.357 131.452C603.357 130.152 602.46 129.294 601.329 129.034V128.982C602.343 128.605 603.032 127.838 603.032 126.681C603.032 125.147 601.862 124.289 600.263 124.289C599.158 124.289 598.313 124.77 597.598 125.433L598.235 126.187C598.768 125.654 599.444 125.264 600.211 125.238C601.199 125.264 601.823 125.849 601.823 126.772C601.823 127.799 601.147 128.592 599.184 128.592V129.502C601.381 129.502 602.148 130.269 602.148 131.413C602.148 132.505 601.342 133.181 600.211 133.181C599.132 133.181 598.404 132.674 597.845 132.089L597.247 132.869C597.871 133.545 598.807 134.169 600.302 134.169Z" fill="black"/>
<rect x="397.5" y="68.5" width="243" height="100" rx="6.5" stroke="#FF4244" stroke-width="3" stroke-linejoin="round"/>
<rect x="700" y="30" width="250" height="60" rx="4" fill="#5478F6"/>
<path d="M726.522 55.836V56.76H731.24C731.002 59.742 729.322 62.15 725.948 63.76L726.564 64.698C730.736 62.654 732.402 59.462 732.402 55.836H726.522ZM734.936 54.478V67.036H736.084V54.478H734.936ZM739.499 60.05C741.529 59.742 743.377 58.734 744.063 57.278C744.749 58.734 746.597 59.742 748.627 60.05L749.061 59.126C746.835 58.832 744.805 57.586 744.805 56.046V56.018H748.711V55.094H739.415V56.018H743.321V56.046C743.321 57.586 741.291 58.832 739.065 59.126L739.499 60.05ZM740.983 63.214H739.835V66.756H748.473V65.818H740.983V63.214ZM744.623 61.254V59.168H743.475V61.254H738.365V62.192H749.775V61.254H744.623ZM754.487 66H760.269V64.894H755.789V55.738H754.487V66ZM761.683 66H762.957V58.398H761.683V66ZM762.327 56.83C762.831 56.83 763.209 56.48 763.209 56.004C763.209 55.486 762.831 55.178 762.327 55.178C761.823 55.178 761.445 55.486 761.445 56.004C761.445 56.48 761.823 56.83 762.327 56.83ZM765.258 66H766.532V60.484C767.302 59.714 767.834 59.322 768.618 59.322C769.626 59.322 770.06 59.924 770.06 61.352V66H771.334V61.184C771.334 59.238 770.606 58.202 769.01 58.202C767.974 58.202 767.19 58.776 766.462 59.49H766.42L766.308 58.398H765.258V66ZM775.749 66.182C776.799 66.182 777.555 65.636 778.269 64.81H778.311L778.409 66H779.473V58.398H778.199V63.788C777.471 64.698 776.925 65.076 776.141 65.076C775.133 65.076 774.713 64.474 774.713 63.06V58.398H773.439V63.214C773.439 65.146 774.153 66.182 775.749 66.182ZM780.683 66H782.027L783.049 64.222C783.315 63.76 783.567 63.298 783.833 62.864H783.903C784.183 63.298 784.463 63.76 784.715 64.222L785.835 66H787.235L784.729 62.164L787.039 58.398H785.709L784.771 60.078C784.547 60.498 784.323 60.918 784.085 61.338H784.029C783.777 60.918 783.511 60.498 783.273 60.078L782.251 58.398H780.879L783.189 62.038L780.683 66ZM792.298 58.244C792.298 57.068 793.222 56.256 794.51 56.256C795.784 56.256 796.708 57.068 796.708 58.244C796.708 59.434 795.784 60.218 794.51 60.218C793.222 60.218 792.298 59.434 792.298 58.244ZM795.084 61.156C796.694 60.946 797.828 59.812 797.828 58.244C797.828 56.48 796.428 55.29 794.51 55.29C792.564 55.29 791.178 56.48 791.178 58.244C791.178 59.812 792.298 60.96 793.936 61.156V63.326C792.76 63.354 791.612 63.368 790.618 63.368L790.772 64.334C792.984 64.334 795.91 64.292 798.57 63.844L798.472 63.004C797.394 63.158 796.232 63.228 795.084 63.284V61.156ZM802.406 59.658H800.418V54.464H799.27V67.036H800.418V60.624H802.406V59.658ZM806.698 66H812.326V64.936H810.268V55.738H809.288C808.728 56.06 808.07 56.298 807.16 56.466V57.278H808.98V64.936H806.698V66ZM816.844 66.182C818.79 66.182 820.036 64.404 820.036 60.834C820.036 57.278 818.79 55.542 816.844 55.542C814.884 55.542 813.638 57.264 813.638 60.834C813.638 64.404 814.884 66.182 816.844 66.182ZM816.844 65.16C815.668 65.16 814.884 63.858 814.884 60.834C814.884 57.838 815.668 56.578 816.844 56.578C818.006 56.578 818.79 57.838 818.79 60.834C818.79 63.858 818.006 65.16 816.844 65.16ZM824.329 66.182C826.275 66.182 827.521 64.404 827.521 60.834C827.521 57.278 826.275 55.542 824.329 55.542C822.369 55.542 821.123 57.264 821.123 60.834C821.123 64.404 822.369 66.182 824.329 66.182ZM824.329 65.16C823.153 65.16 822.369 63.858 822.369 60.834C822.369 57.838 823.153 56.578 824.329 56.578C825.491 56.578 826.275 57.838 826.275 60.834C826.275 63.858 825.491 65.16 824.329 65.16ZM830.793 62.024C832.207 62.024 833.131 60.834 833.131 58.762C833.131 56.704 832.207 55.542 830.793 55.542C829.393 55.542 828.469 56.704 828.469 58.762C828.469 60.834 829.393 62.024 830.793 62.024ZM830.793 61.226C829.995 61.226 829.435 60.4 829.435 58.762C829.435 57.124 829.995 56.326 830.793 56.326C831.605 56.326 832.165 57.124 832.165 58.762C832.165 60.4 831.605 61.226 830.793 61.226ZM831.101 66.182H831.955L837.625 55.542H836.757L831.101 66.182ZM837.947 66.182C839.347 66.182 840.271 65.006 840.271 62.934C840.271 60.876 839.347 59.714 837.947 59.714C836.547 59.714 835.609 60.876 835.609 62.934C835.609 65.006 836.547 66.182 837.947 66.182ZM837.947 65.398C837.135 65.398 836.575 64.572 836.575 62.934C836.575 61.296 837.135 60.498 837.947 60.498C838.745 60.498 839.305 61.296 839.305 62.934C839.305 64.572 838.745 65.398 837.947 65.398ZM849.812 66.14C847.824 66.14 846.662 65.65 846.662 64.768C846.662 63.886 847.824 63.396 849.812 63.396C851.772 63.396 852.934 63.886 852.934 64.768C852.934 65.65 851.772 66.14 849.812 66.14ZM849.812 62.5C847.124 62.5 845.5 63.312 845.5 64.768C845.5 66.224 847.124 67.036 849.812 67.036C852.472 67.036 854.096 66.224 854.096 64.768C854.096 63.312 852.472 62.5 849.812 62.5ZM850.386 60.68V59.224H854.166V58.3H846.704V55.976H854.082V55.052H845.556V59.224H849.238V60.68H844.128V61.604H855.496V60.68H850.386ZM867.031 54.478H865.883V60.918H867.031V54.478ZM858.127 57.726C858.127 56.634 859.037 55.864 860.255 55.864C861.487 55.864 862.383 56.634 862.383 57.726C862.383 58.804 861.487 59.574 860.255 59.574C859.037 59.574 858.127 58.804 858.127 57.726ZM863.503 57.726C863.503 56.06 862.131 54.926 860.255 54.926C858.379 54.926 857.021 56.06 857.021 57.726C857.021 59.378 858.379 60.498 860.255 60.498C862.131 60.498 863.503 59.378 863.503 57.726ZM860.059 65.958V64.572H867.031V61.534H858.897V62.444H865.897V63.718H858.925V66.868H867.451V65.958H860.059ZM872.919 55.836V56.76H877.637C877.399 59.742 875.719 62.15 872.345 63.76L872.961 64.698C877.133 62.654 878.799 59.462 878.799 55.836H872.919ZM881.333 54.478V67.036H882.481V54.478H881.333ZM894.842 57.978H887.464V54.744H886.316V58.902H894.842V57.978ZM890.446 66.098C888.472 66.098 887.31 65.58 887.31 64.712C887.31 63.816 888.472 63.312 890.446 63.312C892.42 63.312 893.582 63.816 893.582 64.712C893.582 65.58 892.406 66.098 890.446 66.098ZM890.446 62.416C887.772 62.416 886.148 63.242 886.148 64.712C886.148 66.168 887.772 66.994 890.446 66.994C893.12 66.994 894.744 66.168 894.744 64.712C894.744 63.242 893.12 62.416 890.446 62.416ZM884.79 60.358V61.296H896.144V60.358H884.79ZM903.908 56.886H906.148V55.948H900.422V56.886H902.802V58.02C902.802 60.33 901.822 62.612 900.072 63.662L900.772 64.516C902.018 63.732 902.928 62.262 903.362 60.54C903.796 62.136 904.664 63.48 905.882 64.208L906.582 63.368C904.846 62.388 903.908 60.204 903.908 58.02V56.886ZM907.268 58.986H905.196V59.924H907.268V66.378H908.36V54.758H907.268V58.986ZM909.788 54.464V67.022H910.894V54.464H909.788ZM921.603 56.186C921.603 57.166 921.603 58.09 921.267 59.378L922.387 59.504C922.737 58.216 922.737 57.194 922.737 56.186V55.122H914.183V56.046H921.603V56.186ZM918.453 66.126C916.493 66.126 915.233 65.594 915.233 64.726C915.233 63.83 916.493 63.298 918.453 63.298C920.427 63.298 921.687 63.83 921.687 64.726C921.687 65.594 920.427 66.126 918.453 66.126ZM918.453 62.416C915.779 62.416 914.085 63.27 914.085 64.726C914.085 66.154 915.779 67.022 918.453 67.022C921.127 67.022 922.835 66.154 922.835 64.726C922.835 63.27 921.127 62.416 918.453 62.416ZM918.635 60.33V57.922H917.487V60.33H912.853V61.268H924.151V60.33H918.635Z" fill="white"/>
<path d="M729.428 101.766V102.942H733.936C733.684 105.854 732.116 108.08 728.798 109.676L729.568 110.824C733.908 108.724 735.42 105.532 735.42 101.766H729.428ZM737.702 100.436V113.078H739.144V100.436H737.702ZM742.461 106.106C744.645 105.826 746.339 104.804 747.011 103.404C747.697 104.804 749.405 105.826 751.603 106.106L752.135 104.958C749.755 104.664 748.089 103.474 747.977 102.172H751.701V101.024H742.363V102.172H746.059C745.947 103.474 744.309 104.664 741.915 104.958L742.461 106.106ZM744.197 109.242H742.741V112.84H751.463V111.664H744.197V109.242ZM747.725 107.156V105.224H746.283V107.156H741.299V108.318H752.765V107.156H747.725ZM758.946 106.246H763.356V101.556H757.462V102.732H761.9V105.084H757.49V110.096H758.568C760.794 110.096 762.684 110.026 764.854 109.648L764.7 108.472C762.698 108.794 760.948 108.892 758.946 108.906V106.246ZM765.75 100.408V113.106H767.206V100.408H765.75ZM779.525 103.796H772.287V100.674H770.845V104.972H779.525V103.796ZM780.813 107.31V106.148H769.375V107.31H774.359V108.878H770.677V110.04H777.957V113.19H779.399V108.878H775.815V107.31H780.813ZM792.936 106.61C790.444 106.162 788.414 104.216 788.414 102.2V101.248H786.888V102.2C786.888 104.202 784.858 106.148 782.366 106.61L782.982 107.8C785.04 107.38 786.818 106.064 787.644 104.328C788.47 106.064 790.248 107.38 792.306 107.8L792.936 106.61ZM781.974 110.264V111.454H793.426V110.264H781.974ZM796.337 104.258C796.337 103.152 797.177 102.452 798.325 102.452C799.473 102.452 800.299 103.152 800.299 104.258C800.299 105.364 799.473 106.05 798.325 106.05C797.177 106.05 796.337 105.364 796.337 104.258ZM799.053 107.226C800.621 106.946 801.699 105.812 801.699 104.258C801.699 102.466 800.271 101.22 798.325 101.22C796.379 101.22 794.937 102.466 794.937 104.258C794.937 105.812 796.043 106.96 797.611 107.24V109.228C796.477 109.256 795.385 109.256 794.433 109.256L794.629 110.446C796.799 110.446 799.697 110.432 802.343 109.97L802.217 108.906C801.209 109.046 800.131 109.13 799.053 109.172V107.226ZM806.263 105.532H804.401V100.436H802.959V113.064H804.401V106.736H806.263V105.532ZM815.721 111.972C813.873 111.972 812.837 111.566 812.837 110.782C812.837 110.012 813.873 109.592 815.721 109.592C817.569 109.592 818.619 110.012 818.619 110.782C818.619 111.566 817.569 111.972 815.721 111.972ZM815.721 108.486C813.019 108.486 811.367 109.326 811.367 110.782C811.367 112.252 813.019 113.092 815.721 113.092C818.437 113.092 820.075 112.252 820.075 110.782C820.075 109.326 818.437 108.486 815.721 108.486ZM816.477 106.54V105.28H820.159V104.118H812.893V102.144H820.075V100.996H811.465V105.28H815.035V106.54H810.051V107.716H821.475V106.54H816.477ZM833.051 100.422H831.609V106.848H833.051V100.422ZM824.273 103.698C824.273 102.69 825.085 102.032 826.177 102.032C827.283 102.032 828.109 102.69 828.109 103.698C828.109 104.706 827.283 105.364 826.177 105.364C825.085 105.364 824.273 104.706 824.273 103.698ZM829.509 103.698C829.509 102.032 828.095 100.842 826.177 100.842C824.273 100.842 822.873 102.032 822.873 103.698C822.873 105.364 824.273 106.54 826.177 106.54C828.095 106.54 829.509 105.364 829.509 103.698ZM826.205 111.79V110.67H833.051V107.422H824.763V108.556H831.623V109.606H824.791V112.924H833.429V111.79H826.205ZM842.71 101.878H839.7V100.422H838.258V101.878H835.248V103.026H842.71V101.878ZM837.292 106.008C837.292 105.21 837.978 104.734 838.972 104.734C839.98 104.734 840.666 105.21 840.666 106.008C840.666 106.806 839.98 107.282 838.972 107.282C837.978 107.282 837.292 106.806 837.292 106.008ZM842.038 106.008C842.038 104.58 840.792 103.614 838.972 103.614C837.166 103.614 835.906 104.58 835.906 106.008C835.906 107.45 837.166 108.402 838.972 108.402C840.792 108.402 842.038 107.45 842.038 106.008ZM838.552 109.186H837.096V112.84H845.608V111.664H838.552V109.186ZM845.104 104.468V100.436H843.662V109.914H845.104V105.658H846.896V104.468H845.104ZM853.064 103.11H854.352V108.794C853.918 108.808 853.498 108.836 853.064 108.85V103.11ZM855.668 103.11H856.606V101.948H850.81V103.11H851.762V108.878C851.328 108.878 850.908 108.878 850.572 108.878L850.726 110.068C852.322 110.068 854.912 110.012 856.886 109.62L856.774 108.57C856.424 108.626 856.06 108.668 855.668 108.71V103.11ZM860.12 100.422V105.42H858.762V100.688H857.404V112.448H858.762V106.596H860.12V113.078H861.492V100.422H860.12ZM864.193 101.696V102.872H868.631C868.575 103.572 868.463 104.23 868.281 104.846L863.549 105.14L863.745 106.386L867.833 106.008C867.063 107.562 865.691 108.878 863.465 109.984L864.249 111.118C868.869 108.808 870.073 105.462 870.073 101.696H864.193ZM872.285 100.436V113.078H873.727V100.436H872.285ZM880.558 102.886H883.372V101.696H876.288V102.886H879.102V104.09C879.102 106.26 877.8 108.612 875.84 109.522L876.666 110.67C878.15 109.956 879.284 108.458 879.844 106.694C880.432 108.332 881.566 109.704 883.036 110.348L883.834 109.214C881.86 108.374 880.558 106.19 880.558 104.09V102.886ZM884.842 100.436V113.078H886.298V100.436H884.842ZM888.886 114.8C890.328 114.254 891.182 113.12 891.182 111.65C891.182 110.572 890.72 109.914 889.936 109.914C889.32 109.914 888.816 110.32 888.816 110.95C888.816 111.622 889.32 111.986 889.894 111.986C889.95 111.986 889.992 111.986 890.048 111.972C890.034 112.798 889.474 113.498 888.522 113.89L888.886 114.8ZM900.933 111.972C899.085 111.972 898.049 111.566 898.049 110.782C898.049 110.012 899.085 109.592 900.933 109.592C902.781 109.592 903.831 110.012 903.831 110.782C903.831 111.566 902.781 111.972 900.933 111.972ZM900.933 108.486C898.231 108.486 896.579 109.326 896.579 110.782C896.579 112.252 898.231 113.092 900.933 113.092C903.649 113.092 905.287 112.252 905.287 110.782C905.287 109.326 903.649 108.486 900.933 108.486ZM901.689 106.54V105.28H905.371V104.118H898.105V102.144H905.287V100.996H896.677V105.28H900.247V106.54H895.263V107.716H906.687V106.54H901.689ZM918.264 100.422H916.822V106.848H918.264V100.422ZM909.486 103.698C909.486 102.69 910.298 102.032 911.39 102.032C912.496 102.032 913.322 102.69 913.322 103.698C913.322 104.706 912.496 105.364 911.39 105.364C910.298 105.364 909.486 104.706 909.486 103.698ZM914.722 103.698C914.722 102.032 913.308 100.842 911.39 100.842C909.486 100.842 908.086 102.032 908.086 103.698C908.086 105.364 909.486 106.54 911.39 106.54C913.308 106.54 914.722 105.364 914.722 103.698ZM911.418 111.79V110.67H918.264V107.422H909.976V108.556H916.836V109.606H910.004V112.924H918.642V111.79H911.418ZM733.712 121.924H730.674V118.522H733.712V121.924ZM737.744 119.558V120.888H735.112V119.558H737.744ZM735.112 122.064H737.744V123.884H739.186V116.436H737.744V118.382H735.112V117.374H729.26V123.072H735.112V122.064ZM734.972 127.958C733.18 127.958 732.158 127.496 732.158 126.656C732.158 125.83 733.18 125.368 734.972 125.368C736.764 125.368 737.8 125.83 737.8 126.656C737.8 127.496 736.764 127.958 734.972 127.958ZM734.972 124.234C732.34 124.234 730.716 125.13 730.716 126.656C730.716 128.182 732.34 129.078 734.972 129.078C737.618 129.078 739.242 128.182 739.242 126.656C739.242 125.13 737.618 124.234 734.972 124.234ZM750.343 124.206H751.785V116.45H750.343V118.284H748.075V119.46H750.343V120.874H748.075V122.05H750.343V124.206ZM747.879 122.176C746.507 122.414 745.345 122.456 743.245 122.47V120.846H747.277V117.122H741.789V118.284H745.849V119.754H741.817V123.646H742.741C745.219 123.646 746.507 123.604 748.033 123.338L747.879 122.176ZM747.571 128.042C745.765 128.042 744.757 127.594 744.757 126.782C744.757 125.97 745.765 125.522 747.571 125.522C749.377 125.522 750.413 125.97 750.413 126.782C750.413 127.594 749.377 128.042 747.571 128.042ZM747.571 124.416C744.939 124.416 743.315 125.298 743.315 126.782C743.315 128.28 744.939 129.148 747.571 129.148C750.231 129.148 751.855 128.28 751.855 126.782C751.855 125.298 750.231 124.416 747.571 124.416ZM757.314 124.99C756.236 124.99 755.494 123.814 755.494 121.812C755.494 119.852 756.236 118.662 757.314 118.662C758.406 118.662 759.148 119.852 759.148 121.812C759.148 123.814 758.406 124.99 757.314 124.99ZM762.956 116.422V121.14H760.492C760.296 118.816 759.008 117.36 757.314 117.36C755.452 117.36 754.122 119.096 754.122 121.812C754.122 124.556 755.452 126.278 757.314 126.278C759.05 126.278 760.338 124.766 760.506 122.316H762.956V129.106H764.412V116.422H762.956ZM773.799 117.486H772.357V119.558C772.357 121.896 771.125 124.29 769.151 125.256L770.033 126.418C771.475 125.676 772.539 124.206 773.085 122.456C773.631 124.108 774.639 125.48 775.997 126.18L776.879 125.032C774.975 124.094 773.799 121.812 773.799 119.558V117.486ZM781.135 121.448H779.161V116.436H777.719V129.078H779.161V122.638H781.135V121.448ZM787.658 127.972C785.81 127.972 784.774 127.58 784.774 126.81C784.774 126.054 785.81 125.648 787.658 125.648C789.506 125.648 790.556 126.054 790.556 126.81C790.556 127.58 789.506 127.972 787.658 127.972ZM787.658 124.542C784.942 124.542 783.304 125.368 783.304 126.81C783.304 128.266 784.942 129.078 787.658 129.078C790.388 129.078 792.012 128.266 792.012 126.81C792.012 125.368 790.388 124.542 787.658 124.542ZM786.118 121.294C786.58 121.364 787.126 121.406 787.686 121.406C788.246 121.406 788.764 121.364 789.226 121.294V122.582H786.118V121.294ZM787.686 117.766C789.562 117.766 790.696 118.214 790.696 119.026C790.696 119.838 789.562 120.3 787.686 120.3C785.796 120.3 784.662 119.838 784.662 119.026C784.662 118.214 785.796 117.766 787.686 117.766ZM790.668 122.582V120.916C791.634 120.496 792.194 119.852 792.194 119.026C792.194 117.542 790.444 116.646 787.686 116.646C784.914 116.646 783.178 117.542 783.178 119.026C783.178 119.852 783.724 120.496 784.676 120.902V122.582H781.96V123.73H793.398V122.582H790.668ZM795.189 117.766V118.942H799.613C799.319 121.854 797.653 124.08 794.559 125.662L795.357 126.768C799.487 124.682 801.055 121.434 801.055 117.766H795.189ZM806.277 121.42H804.359V116.422H802.917V129.064H804.359V122.624H806.277V121.42ZM817.308 119.796H810.112V116.674H808.67V120.958H817.308V119.796ZM812.856 127.93C811.008 127.93 809.972 127.496 809.972 126.726C809.972 125.928 811.008 125.522 812.856 125.522C814.704 125.522 815.754 125.928 815.754 126.726C815.754 127.496 814.704 127.93 812.856 127.93ZM812.856 124.388C810.154 124.388 808.502 125.242 808.502 126.726C808.502 128.196 810.154 129.05 812.856 129.05C815.572 129.05 817.21 128.196 817.21 126.726C817.21 125.242 815.572 124.388 812.856 124.388ZM807.172 122.232V123.408H818.61V122.232H807.172Z" fill="#181818"/>
<circle cx="710" cy="106" r="2" fill="#181818"/>
<rect x="700" y="151" width="250" height="60" rx="4" fill="#5478F6"/>
<path d="M785.782 176.836V177.76H790.5C790.262 180.742 788.582 183.15 785.208 184.76L785.824 185.698C789.996 183.654 791.662 180.462 791.662 176.836H785.782ZM794.196 175.478V188.036H795.344V175.478H794.196ZM798.759 181.05C800.789 180.742 802.637 179.734 803.323 178.278C804.009 179.734 805.857 180.742 807.887 181.05L808.321 180.126C806.095 179.832 804.065 178.586 804.065 177.046V177.018H807.971V176.094H798.675V177.018H802.581V177.046C802.581 178.586 800.551 179.832 798.325 180.126L798.759 181.05ZM800.243 184.214H799.095V187.756H807.733V186.818H800.243V184.214ZM803.883 182.254V180.168H802.735V182.254H797.625V183.192H809.035V182.254H803.883ZM815.02 182.828L815.524 181.26C815.888 180.098 816.224 178.992 816.546 177.788H816.602C816.938 178.978 817.26 180.098 817.638 181.26L818.128 182.828H815.02ZM819.43 187H820.802L817.316 176.738H815.874L812.388 187H813.704L814.698 183.864H818.45L819.43 187ZM821.858 190.206H823.132V187.63L823.104 186.3C823.79 186.86 824.518 187.182 825.204 187.182C826.954 187.182 828.508 185.684 828.508 183.08C828.508 180.742 827.444 179.202 825.484 179.202C824.602 179.202 823.748 179.706 823.062 180.266H823.02L822.908 179.398H821.858V190.206ZM824.994 186.118C824.49 186.118 823.818 185.908 823.132 185.32V181.33C823.874 180.644 824.532 180.28 825.176 180.28C826.618 180.28 827.178 181.414 827.178 183.094C827.178 184.984 826.254 186.118 824.994 186.118ZM830.26 190.206H831.534V187.63L831.506 186.3C832.192 186.86 832.92 187.182 833.606 187.182C835.356 187.182 836.91 185.684 836.91 183.08C836.91 180.742 835.846 179.202 833.886 179.202C833.004 179.202 832.15 179.706 831.464 180.266H831.422L831.31 179.398H830.26V190.206ZM833.396 186.118C832.892 186.118 832.22 185.908 831.534 185.32V181.33C832.276 180.644 832.934 180.28 833.578 180.28C835.02 180.28 835.58 181.414 835.58 183.094C835.58 184.984 834.656 186.118 833.396 186.118ZM851.718 177.312H847.224V175.674H846.076V177.312H841.526V178.25H851.718V177.312ZM843.682 181.484C843.682 180.56 844.816 180 846.65 180C848.456 180 849.576 180.56 849.576 181.484C849.576 182.422 848.456 182.982 846.65 182.982C844.816 182.982 843.682 182.422 843.682 181.484ZM847.224 185.628V183.864C849.408 183.724 850.738 182.884 850.738 181.484C850.738 179.972 849.156 179.104 846.65 179.104C844.102 179.104 842.52 179.972 842.52 181.484C842.52 182.884 843.864 183.738 846.076 183.864V185.628H840.966V186.566H852.348V185.628H847.224ZM861.027 176.71H858.003V175.436H856.855V176.71H853.817V177.564H861.027V176.71ZM855.581 180.014C855.581 179.342 856.295 178.908 857.429 178.908C858.535 178.908 859.263 179.342 859.263 180.014C859.263 180.714 858.535 181.134 857.429 181.134C856.295 181.134 855.581 180.714 855.581 180.014ZM861.405 182.492C860.327 182.674 859.151 182.772 858.003 182.828V181.932C859.445 181.778 860.355 181.092 860.355 180.014C860.355 178.824 859.179 178.096 857.429 178.096C855.665 178.096 854.489 178.824 854.489 180.014C854.489 181.092 855.413 181.792 856.855 181.932V182.884C855.651 182.926 854.489 182.94 853.509 182.94L853.635 183.864C855.819 183.85 858.829 183.808 861.489 183.318L861.405 182.492ZM856.505 184.662H855.357V187.756H863.743V186.818H856.505V184.662ZM863.295 179.86V175.478H862.147V185.306H863.295V180.812H865.143V179.86H863.295Z" fill="white"/>
<path d="M729.428 222.766V223.942H733.936C733.684 226.854 732.116 229.08 728.798 230.676L729.568 231.824C733.908 229.724 735.42 226.532 735.42 222.766H729.428ZM737.702 221.436V234.078H739.144V221.436H737.702ZM742.461 227.106C744.645 226.826 746.339 225.804 747.011 224.404C747.697 225.804 749.405 226.826 751.603 227.106L752.135 225.958C749.755 225.664 748.089 224.474 747.977 223.172H751.701V222.024H742.363V223.172H746.059C745.947 224.474 744.309 225.664 741.915 225.958L742.461 227.106ZM744.197 230.242H742.741V233.84H751.463V232.664H744.197V230.242ZM747.725 228.156V226.224H746.283V228.156H741.299V229.318H752.765V228.156H747.725ZM758.946 227.246H763.356V222.556H757.462V223.732H761.9V226.084H757.49V231.096H758.568C760.794 231.096 762.684 231.026 764.854 230.648L764.7 229.472C762.698 229.794 760.948 229.892 758.946 229.906V227.246ZM765.75 221.408V234.106H767.206V221.408H765.75ZM779.525 224.796H772.287V221.674H770.845V225.972H779.525V224.796ZM780.813 228.31V227.148H769.375V228.31H774.359V229.878H770.677V231.04H777.957V234.19H779.399V229.878H775.815V228.31H780.813ZM792.936 227.61C790.444 227.162 788.414 225.216 788.414 223.2V222.248H786.888V223.2C786.888 225.202 784.858 227.148 782.366 227.61L782.982 228.8C785.04 228.38 786.818 227.064 787.644 225.328C788.47 227.064 790.248 228.38 792.306 228.8L792.936 227.61ZM781.974 231.264V232.454H793.426V231.264H781.974ZM800.257 232.972C798.409 232.972 797.373 232.58 797.373 231.81C797.373 231.054 798.409 230.648 800.257 230.648C802.105 230.648 803.155 231.054 803.155 231.81C803.155 232.58 802.105 232.972 800.257 232.972ZM800.257 229.542C797.541 229.542 795.903 230.368 795.903 231.81C795.903 233.266 797.541 234.078 800.257 234.078C802.987 234.078 804.611 233.266 804.611 231.81C804.611 230.368 802.987 229.542 800.257 229.542ZM798.717 226.294C799.179 226.364 799.725 226.406 800.285 226.406C800.845 226.406 801.363 226.364 801.825 226.294V227.582H798.717V226.294ZM800.285 222.766C802.161 222.766 803.295 223.214 803.295 224.026C803.295 224.838 802.161 225.3 800.285 225.3C798.395 225.3 797.261 224.838 797.261 224.026C797.261 223.214 798.395 222.766 800.285 222.766ZM803.267 227.582V225.916C804.233 225.496 804.793 224.852 804.793 224.026C804.793 222.542 803.043 221.646 800.285 221.646C797.513 221.646 795.777 222.542 795.777 224.026C795.777 224.852 796.323 225.496 797.275 225.902V227.582H794.559V228.73H805.997V227.582H803.267ZM813.621 233.182C815.875 233.182 817.247 231.838 817.247 230.186C817.247 228.674 816.365 227.918 815.147 227.4L813.733 226.798C812.893 226.462 812.067 226.126 812.067 225.244C812.067 224.418 812.753 223.914 813.803 223.914C814.713 223.914 815.427 224.264 816.071 224.838L816.925 223.802C816.141 223.004 815.007 222.5 813.803 222.5C811.843 222.5 810.415 223.718 810.415 225.342C810.415 226.84 811.521 227.624 812.515 228.044L813.943 228.66C814.895 229.08 815.595 229.374 815.595 230.312C815.595 231.18 814.895 231.768 813.649 231.768C812.655 231.768 811.647 231.292 810.905 230.55L809.953 231.67C810.891 232.622 812.207 233.182 813.621 233.182ZM819.982 233H821.942L823.3 227.274C823.468 226.462 823.636 225.692 823.776 224.908H823.846C823.986 225.692 824.14 226.462 824.322 227.274L825.708 233H827.71L829.74 222.696H828.186L827.206 228.058C827.038 229.136 826.856 230.242 826.688 231.362H826.618C826.38 230.242 826.156 229.136 825.918 228.058L824.574 222.696H823.146L821.816 228.058C821.578 229.15 821.34 230.256 821.116 231.362H821.06L820.514 228.058L819.548 222.696H817.868L819.982 233ZM835.37 224.502C835.37 223.634 836.112 223.074 837.162 223.074C838.226 223.074 838.94 223.634 838.94 224.502C838.94 225.384 838.226 225.944 837.162 225.944C836.112 225.944 835.37 225.384 835.37 224.502ZM841.082 227.764C840.074 227.918 838.982 228.002 837.904 228.072V226.98C839.332 226.742 840.284 225.79 840.284 224.502C840.284 223.004 838.996 221.982 837.162 221.982C835.328 221.982 834.026 223.004 834.026 224.502C834.026 225.804 835.006 226.756 836.462 226.98V228.128C835.328 228.17 834.25 228.17 833.34 228.17L833.522 229.346C835.636 229.346 838.576 229.304 841.18 228.814L841.082 227.764ZM836.532 230.284H835.09V233.826H843.7V232.664H836.532V230.284ZM843.266 225.58V221.45H841.824V231.11H843.266V226.77H845.002V225.58H843.266ZM847.913 230.76H854.997V234.092H856.439V229.598H847.913V230.76ZM852.365 225.972V224.558H854.997V225.972H852.365ZM850.951 227.162H847.969V225.244H850.951V227.162ZM854.997 221.436V223.382H852.365V222.178H850.951V224.124H847.969V222.178H846.541V228.324H852.365V227.134H854.997V228.968H856.439V221.436H854.997ZM872.295 223.158H867.857V221.604H866.415V223.158H861.949V224.32H872.295V223.158ZM864.385 227.47C864.385 226.644 865.393 226.168 867.115 226.168C868.851 226.168 869.859 226.644 869.859 227.47C869.859 228.31 868.851 228.786 867.115 228.786C865.393 228.786 864.385 228.31 864.385 227.47ZM867.857 231.516V229.892C870.027 229.724 871.329 228.87 871.329 227.47C871.329 225.944 869.705 225.048 867.115 225.048C864.539 225.048 862.915 225.944 862.915 227.47C862.915 228.87 864.245 229.738 866.415 229.892V231.516H861.417V232.706H872.883V231.516H867.857ZM881.464 222.57H878.594V221.38H877.138V222.57H874.24V223.634H881.464V222.57ZM876.2 226.028C876.2 225.426 876.844 225.062 877.852 225.062C878.86 225.062 879.504 225.426 879.504 226.028C879.504 226.616 878.86 226.966 877.852 226.966C876.844 226.966 876.2 226.616 876.2 226.028ZM881.814 228.408C880.792 228.562 879.686 228.646 878.594 228.716V227.918C879.994 227.75 880.862 227.05 880.862 226.028C880.862 224.824 879.672 224.082 877.852 224.082C876.032 224.082 874.842 224.824 874.842 226.028C874.842 227.064 875.724 227.75 877.138 227.918V228.786C875.976 228.814 874.856 228.828 873.918 228.828L874.086 229.976C876.27 229.962 879.28 229.906 881.926 229.402L881.814 228.408ZM877.194 230.69H875.752V233.84H884.362V232.664H877.194V230.69ZM883.928 225.72V221.422H882.486V231.32H883.928V226.91H885.664V225.72H883.928ZM892.341 222.71C894.301 222.71 895.351 223.088 895.351 223.816C895.351 224.53 894.301 224.908 892.341 224.908C890.381 224.908 889.331 224.53 889.331 223.816C889.331 223.088 890.381 222.71 892.341 222.71ZM892.341 225.986C895.169 225.986 896.849 225.216 896.849 223.816C896.849 222.402 895.169 221.632 892.341 221.632C889.499 221.632 887.833 222.402 887.833 223.816C887.833 225.216 889.499 225.986 892.341 225.986ZM889.429 231.81H896.625V228.786H887.973V229.878H895.211V230.788H888.001V233.966H896.989V232.86H889.429V231.81ZM886.615 226.728V227.876H898.067V226.728H886.615ZM907.776 233C905.872 233 904.878 232.692 904.878 232.02C904.878 231.376 905.872 231.054 907.776 231.054C909.694 231.054 910.688 231.376 910.688 232.02C910.688 232.692 909.694 233 907.776 233ZM907.776 229.99C905.032 229.99 903.422 230.69 903.422 232.02C903.422 233.364 905.032 234.078 907.776 234.078C910.534 234.078 912.13 233.364 912.13 232.02C912.13 230.69 910.534 229.99 907.776 229.99ZM908.518 228.044V227.008H912.228V225.902H904.976V224.922H911.836V223.844H904.976V222.892H912.144V221.786H903.534V227.008H907.062V228.044H902.064V229.206H913.502V228.044H908.518ZM917.771 230.046C916.917 230.046 916.315 229.36 916.315 228.31C916.315 227.26 916.917 226.56 917.771 226.56C918.625 226.56 919.227 227.26 919.227 228.31C919.227 229.36 918.625 230.046 917.771 230.046ZM917.771 225.37C916.175 225.37 915.027 226.56 915.027 228.31C915.027 230.046 916.175 231.25 917.771 231.25C919.367 231.25 920.515 230.046 920.515 228.31C920.515 226.56 919.367 225.37 917.771 225.37ZM918.485 221.8H917.057V223.494H914.663V224.656H920.851V223.494H918.485V221.8ZM924.085 221.436V226.672H922.741V221.702H921.397V233.49H922.741V227.862H924.085V234.078H925.457V221.436H924.085ZM737.66 237.422V250.106H739.116V237.422H737.66ZM732.382 238.36C730.506 238.36 729.134 240.096 729.134 242.812C729.134 245.556 730.506 247.278 732.382 247.278C734.272 247.278 735.644 245.556 735.644 242.812C735.644 240.096 734.272 238.36 732.382 238.36ZM732.382 239.662C733.488 239.662 734.258 240.852 734.258 242.812C734.258 244.8 733.488 245.99 732.382 245.99C731.29 245.99 730.52 244.8 730.52 242.812C730.52 240.852 731.29 239.662 732.382 239.662ZM751.729 237.436H750.273V243.96H751.729V237.436ZM749.097 242.658C747.179 242.112 746.059 240.726 746.017 239.256H748.719V238.094H741.803V239.256H744.547C744.519 240.824 743.371 242.322 741.411 242.91L742.097 244.044C743.637 243.554 744.743 242.532 745.303 241.244C745.877 242.406 746.955 243.344 748.453 243.764L749.097 242.658ZM744.883 248.846V247.726H751.729V244.534H743.441V245.626H750.301V246.69H743.469V249.966H752.107V248.846H744.883ZM754.416 238.192V239.368H758.756C758.518 241.286 756.796 242.826 753.842 243.61L754.402 244.758C758.14 243.764 760.31 241.468 760.31 238.192H754.416ZM757.132 246.256H762.354V248.762H757.132V246.256ZM755.704 249.924H763.782V245.108H755.704V249.924ZM765.574 240.362H763.782V237.422H762.34V244.562H763.782V241.552H765.574V240.362ZM770.929 240.894C770.929 239.844 771.727 239.158 772.833 239.158C773.939 239.158 774.751 239.844 774.751 240.894C774.751 241.958 773.939 242.658 772.833 242.658C771.727 242.658 770.929 241.958 770.929 240.894ZM778.405 241.468V244.128H779.847V237.45H778.405V240.278H776.053C775.773 238.892 774.499 237.968 772.833 237.968C770.943 237.968 769.543 239.172 769.543 240.894C769.543 242.644 770.943 243.848 772.833 243.848C774.513 243.848 775.787 242.896 776.067 241.468H778.405ZM773.939 248.818H772.133V247.348H773.939V248.818ZM773.939 244.856V246.284H772.133V244.856H770.789V249.924H775.269V244.856H773.939ZM778.937 244.758H777.509V245.766C777.509 247.012 776.795 248.328 775.269 248.958L775.997 250.05C777.075 249.602 777.789 248.79 778.209 247.838C778.601 248.804 779.329 249.616 780.449 250.05L781.163 248.958C779.637 248.398 778.937 247.11 778.937 245.766V244.758ZM792.124 241.062H784.886V237.884H783.444V242.238H792.124V241.062ZM784.802 246.074H783.36V249.798H792.194V248.636H784.802V246.074ZM781.96 243.75V244.912H793.44V243.75H781.96ZM801.862 238.486H800.42V240.558C800.42 242.896 799.188 245.29 797.214 246.256L798.096 247.418C799.538 246.676 800.602 245.206 801.148 243.456C801.694 245.108 802.702 246.48 804.06 247.18L804.942 246.032C803.038 245.094 801.862 242.812 801.862 240.558V238.486ZM809.198 242.448H807.224V237.436H805.782V250.078H807.224V243.638H809.198V242.448ZM815.721 248.972C813.873 248.972 812.837 248.58 812.837 247.81C812.837 247.054 813.873 246.648 815.721 246.648C817.569 246.648 818.619 247.054 818.619 247.81C818.619 248.58 817.569 248.972 815.721 248.972ZM815.721 245.542C813.005 245.542 811.367 246.368 811.367 247.81C811.367 249.266 813.005 250.078 815.721 250.078C818.451 250.078 820.075 249.266 820.075 247.81C820.075 246.368 818.451 245.542 815.721 245.542ZM814.181 242.294C814.643 242.364 815.189 242.406 815.749 242.406C816.309 242.406 816.827 242.364 817.289 242.294V243.582H814.181V242.294ZM815.749 238.766C817.625 238.766 818.759 239.214 818.759 240.026C818.759 240.838 817.625 241.3 815.749 241.3C813.859 241.3 812.725 240.838 812.725 240.026C812.725 239.214 813.859 238.766 815.749 238.766ZM818.731 243.582V241.916C819.697 241.496 820.257 240.852 820.257 240.026C820.257 238.542 818.507 237.646 815.749 237.646C812.977 237.646 811.241 238.542 811.241 240.026C811.241 240.852 811.787 241.496 812.739 241.902V243.582H810.023V244.73H821.461V243.582H818.731ZM826.116 238.766V239.942H830.54C830.246 242.854 828.58 245.08 825.486 246.662L826.284 247.768C830.414 245.682 831.982 242.434 831.982 238.766H826.116ZM837.204 242.42H835.286V237.422H833.844V250.064H835.286V243.624H837.204V242.42ZM848.235 240.796H841.039V237.674H839.597V241.958H848.235V240.796ZM843.783 248.93C841.935 248.93 840.899 248.496 840.899 247.726C840.899 246.928 841.935 246.522 843.783 246.522C845.631 246.522 846.681 246.928 846.681 247.726C846.681 248.496 845.631 248.93 843.783 248.93ZM843.783 245.388C841.081 245.388 839.429 246.242 839.429 247.726C839.429 249.196 841.081 250.05 843.783 250.05C846.499 250.05 848.137 249.196 848.137 247.726C848.137 246.242 846.499 245.388 843.783 245.388ZM838.099 243.232V244.408H849.537V243.232H838.099Z" fill="#181818"/>
<circle cx="710" cy="227" r="2" fill="#181818"/>
<path d="M385 119L370 110.34V127.66L385 119ZM305 120.5H371.5V117.5H305V120.5Z" fill="url(#paint1_linear_299_2251)"/>
<path d="M338.578 97.158H334.14V95.604H332.698V97.158H328.232V98.32H338.578V97.158ZM330.668 101.47C330.668 100.644 331.676 100.168 333.398 100.168C335.134 100.168 336.142 100.644 336.142 101.47C336.142 102.31 335.134 102.786 333.398 102.786C331.676 102.786 330.668 102.31 330.668 101.47ZM334.14 105.516V103.892C336.31 103.724 337.612 102.87 337.612 101.47C337.612 99.944 335.988 99.048 333.398 99.048C330.822 99.048 329.198 99.944 329.198 101.47C329.198 102.87 330.528 103.738 332.698 103.892V105.516H327.7V106.706H339.166V105.516H334.14ZM347.747 96.57H344.877V95.38H343.421V96.57H340.523V97.634H347.747V96.57ZM342.483 100.028C342.483 99.426 343.127 99.062 344.135 99.062C345.143 99.062 345.787 99.426 345.787 100.028C345.787 100.616 345.143 100.966 344.135 100.966C343.127 100.966 342.483 100.616 342.483 100.028ZM348.097 102.408C347.075 102.562 345.969 102.646 344.877 102.716V101.918C346.277 101.75 347.145 101.05 347.145 100.028C347.145 98.824 345.955 98.082 344.135 98.082C342.315 98.082 341.125 98.824 341.125 100.028C341.125 101.064 342.007 101.75 343.421 101.918V102.786C342.259 102.814 341.139 102.828 340.201 102.828L340.369 103.976C342.553 103.962 345.563 103.906 348.209 103.402L348.097 102.408ZM343.477 104.69H342.035V107.84H350.645V106.664H343.477V104.69ZM350.211 99.72V95.422H348.769V105.32H350.211V100.91H351.947V99.72H350.211Z" fill="#181818"/>
<path d="M325.398 216.972C323.55 216.972 322.514 216.566 322.514 215.782C322.514 215.012 323.55 214.592 325.398 214.592C327.246 214.592 328.296 215.012 328.296 215.782C328.296 216.566 327.246 216.972 325.398 216.972ZM325.398 213.486C322.696 213.486 321.044 214.326 321.044 215.782C321.044 217.252 322.696 218.092 325.398 218.092C328.114 218.092 329.752 217.252 329.752 215.782C329.752 214.326 328.114 213.486 325.398 213.486ZM326.154 211.54V210.28H329.836V209.118H322.57V207.144H329.752V205.996H321.142V210.28H324.712V211.54H319.728V212.716H331.152V211.54H326.154ZM333.853 208.726C333.853 207.69 334.665 207.004 335.785 207.004C336.877 207.004 337.689 207.69 337.689 208.726C337.689 209.762 336.877 210.448 335.785 210.448C334.665 210.448 333.853 209.762 333.853 208.726ZM341.329 207.97V209.44H338.977C339.033 209.216 339.061 208.964 339.061 208.726C339.061 208.46 339.033 208.208 338.963 207.97H341.329ZM341.329 210.574V211.848H342.785V205.422H341.329V206.836H338.347C337.759 206.192 336.849 205.814 335.785 205.814C333.881 205.814 332.481 207.018 332.481 208.726C332.481 210.42 333.881 211.638 335.785 211.638C336.863 211.638 337.801 211.232 338.375 210.574H341.329ZM335.995 216.79V215.67H342.785V212.45H334.553V213.57H341.357V214.606H334.567V217.924H343.205V216.79H335.995ZM348.49 206.766V207.942H352.998C352.746 210.854 351.178 213.08 347.86 214.676L348.63 215.824C352.97 213.724 354.482 210.532 354.482 206.766H348.49ZM356.764 205.436V218.078H358.206V205.436H356.764ZM370.511 208.796H363.315V205.674H361.873V209.958H370.511V208.796ZM366.059 216.93C364.211 216.93 363.175 216.496 363.175 215.726C363.175 214.928 364.211 214.522 366.059 214.522C367.907 214.522 368.957 214.928 368.957 215.726C368.957 216.496 367.907 216.93 366.059 216.93ZM366.059 213.388C363.357 213.388 361.705 214.242 361.705 215.726C361.705 217.196 363.357 218.05 366.059 218.05C368.775 218.05 370.413 217.196 370.413 215.726C370.413 214.242 368.775 213.388 366.059 213.388ZM360.375 211.232V212.408H371.813V211.232H360.375Z" fill="#181818"/>
<path d="M328.571 198H334.451V196.67H332.435V187.696H331.217C330.629 188.06 329.943 188.298 328.977 188.48V189.502H330.825V196.67H328.571V198ZM339.062 198.182C341.078 198.182 342.394 196.39 342.394 192.806C342.394 189.25 341.078 187.5 339.062 187.5C337.032 187.5 335.73 189.236 335.73 192.806C335.73 196.39 337.032 198.182 339.062 198.182ZM339.062 196.908C338.012 196.908 337.27 195.788 337.27 192.806C337.27 189.852 338.012 188.774 339.062 188.774C340.112 188.774 340.854 189.852 340.854 192.806C340.854 195.788 340.112 196.908 339.062 196.908ZM346.766 198.182C348.782 198.182 350.098 196.39 350.098 192.806C350.098 189.25 348.782 187.5 346.766 187.5C344.736 187.5 343.434 189.236 343.434 192.806C343.434 196.39 344.736 198.182 346.766 198.182ZM346.766 196.908C345.716 196.908 344.974 195.788 344.974 192.806C344.974 189.852 345.716 188.774 346.766 188.774C347.816 188.774 348.558 189.852 348.558 192.806C348.558 195.788 347.816 196.908 346.766 196.908ZM353.392 194.024C354.834 194.024 355.814 192.82 355.814 190.748C355.814 188.676 354.834 187.5 353.392 187.5C351.95 187.5 350.984 188.676 350.984 190.748C350.984 192.82 351.95 194.024 353.392 194.024ZM353.392 193.072C352.678 193.072 352.16 192.33 352.16 190.748C352.16 189.152 352.678 188.452 353.392 188.452C354.12 188.452 354.638 189.152 354.638 190.748C354.638 192.33 354.12 193.072 353.392 193.072ZM353.714 198.182H354.722L360.378 187.5H359.356L353.714 198.182ZM360.714 198.182C362.142 198.182 363.122 196.992 363.122 194.92C363.122 192.848 362.142 191.672 360.714 191.672C359.272 191.672 358.292 192.848 358.292 194.92C358.292 196.992 359.272 198.182 360.714 198.182ZM360.714 197.244C359.986 197.244 359.468 196.502 359.468 194.92C359.468 193.324 359.986 192.624 360.714 192.624C361.428 192.624 361.946 193.324 361.946 194.92C361.946 196.502 361.428 197.244 360.714 197.244Z" fill="#181818"/>
<rect x="700" y="271" width="250" height="60" rx="4" fill="#5478F6"/>
<path d="M774.758 307H776.06V302.156H780.848V307H782.136V296.738H780.848V301.036H776.06V296.738H774.758V307ZM785.797 307H787.337L788.863 300.812C789.031 300 789.213 299.258 789.381 298.474H789.437C789.605 299.258 789.759 300 789.941 300.812L791.495 307H793.049L795.177 296.738H793.931L792.853 302.324C792.657 303.416 792.461 304.522 792.265 305.642H792.195C791.957 304.522 791.719 303.416 791.467 302.324L790.025 296.738H788.849L787.435 302.324C787.183 303.43 786.931 304.536 786.693 305.642H786.637C786.441 304.536 786.231 303.43 786.035 302.324L784.957 296.738H783.613L785.797 307ZM806.147 301.554C804.299 300.938 803.109 299.468 803.109 297.83V297.34H805.881V296.416H799.147V297.34H801.961V297.83C801.961 299.636 800.701 301.26 798.811 301.918L799.399 302.828C800.897 302.296 802.031 301.176 802.563 299.748C803.095 300.994 804.173 301.988 805.601 302.45L806.147 301.554ZM804.621 307.112C802.745 307.112 801.625 306.594 801.625 305.698C801.625 304.816 802.745 304.298 804.621 304.298C806.469 304.298 807.603 304.816 807.603 305.698C807.603 306.594 806.469 307.112 804.621 307.112ZM804.621 303.388C802.045 303.388 800.477 304.242 800.477 305.698C800.477 307.168 802.045 308.022 804.621 308.022C807.169 308.022 808.751 307.168 808.751 305.698C808.751 304.242 807.169 303.388 804.621 303.388ZM808.611 298.656V295.492H807.463V303.066H808.611V299.622H810.473V298.656H808.611ZM820.594 295.478V308.05H821.742V295.478H820.594ZM812.18 296.542V305.012H818.088V296.542H816.954V299.86H813.314V296.542H812.18ZM813.314 300.77H816.954V304.074H813.314V300.77ZM825.605 299.244C825.605 298.068 826.529 297.256 827.817 297.256C829.091 297.256 830.015 298.068 830.015 299.244C830.015 300.434 829.091 301.218 827.817 301.218C826.529 301.218 825.605 300.434 825.605 299.244ZM828.391 302.156C830.001 301.946 831.135 300.812 831.135 299.244C831.135 297.48 829.735 296.29 827.817 296.29C825.871 296.29 824.485 297.48 824.485 299.244C824.485 300.812 825.605 301.96 827.243 302.156V304.326C826.067 304.354 824.919 304.368 823.925 304.368L824.079 305.334C826.291 305.334 829.217 305.292 831.877 304.844L831.779 304.004C830.701 304.158 829.539 304.228 828.391 304.284V302.156ZM835.713 300.658H833.725V295.464H832.577V308.036H833.725V301.624H835.713V300.658ZM840.738 296.402C838.792 296.402 837.378 297.592 837.378 299.356C837.378 301.106 838.792 302.31 840.738 302.31C842.698 302.31 844.098 301.106 844.098 299.356C844.098 297.592 842.698 296.402 840.738 296.402ZM840.738 297.382C842.04 297.382 842.978 298.18 842.978 299.356C842.978 300.518 842.04 301.33 840.738 301.33C839.436 301.33 838.498 300.518 838.498 299.356C838.498 298.18 839.436 297.382 840.738 297.382ZM845.75 295.478V308.064H846.898V295.478H845.75ZM836.888 305.306C839.156 305.306 842.194 305.292 845.022 304.76L844.924 303.906C842.18 304.326 839.03 304.34 836.748 304.34L836.888 305.306ZM863.659 297.312H859.165V295.674H858.017V297.312H853.467V298.25H863.659V297.312ZM855.623 301.484C855.623 300.56 856.757 300 858.591 300C860.397 300 861.517 300.56 861.517 301.484C861.517 302.422 860.397 302.982 858.591 302.982C856.757 302.982 855.623 302.422 855.623 301.484ZM859.165 305.628V303.864C861.349 303.724 862.679 302.884 862.679 301.484C862.679 299.972 861.097 299.104 858.591 299.104C856.043 299.104 854.461 299.972 854.461 301.484C854.461 302.884 855.805 303.738 858.017 303.864V305.628H852.907V306.566H864.289V305.628H859.165ZM872.967 296.71H869.943V295.436H868.795V296.71H865.757V297.564H872.967V296.71ZM867.521 300.014C867.521 299.342 868.235 298.908 869.369 298.908C870.475 298.908 871.203 299.342 871.203 300.014C871.203 300.714 870.475 301.134 869.369 301.134C868.235 301.134 867.521 300.714 867.521 300.014ZM873.345 302.492C872.267 302.674 871.091 302.772 869.943 302.828V301.932C871.385 301.778 872.295 301.092 872.295 300.014C872.295 298.824 871.119 298.096 869.369 298.096C867.605 298.096 866.429 298.824 866.429 300.014C866.429 301.092 867.353 301.792 868.795 301.932V302.884C867.591 302.926 866.429 302.94 865.449 302.94L865.575 303.864C867.759 303.85 870.769 303.808 873.429 303.318L873.345 302.492ZM868.445 304.662H867.297V307.756H875.683V306.818H868.445V304.662ZM875.235 299.86V295.478H874.087V305.306H875.235V300.812H877.083V299.86H875.235Z" fill="white"/>
<path d="M728.224 353H729.946L731.262 350.438C731.514 349.92 731.766 349.388 732.06 348.758H732.116C732.438 349.388 732.704 349.92 732.97 350.438L734.328 353H736.134L733.166 347.764L735.938 342.696H734.23L733.012 345.104C732.774 345.58 732.578 346.042 732.312 346.658H732.242C731.934 346.042 731.71 345.58 731.458 345.104L730.212 342.696H728.406L731.178 347.68L728.224 353ZM740.064 353.182C742.052 353.182 743.396 352.006 743.396 350.48C743.396 349.08 742.584 348.282 741.66 347.75V347.68C742.304 347.204 743.018 346.308 743.018 345.258C743.018 343.648 741.898 342.528 740.106 342.528C738.412 342.528 737.166 343.578 737.166 345.188C737.166 346.28 737.782 347.05 738.552 347.596V347.666C737.6 348.17 736.704 349.08 736.704 350.438C736.704 352.034 738.132 353.182 740.064 353.182ZM740.736 347.274C739.588 346.826 738.608 346.308 738.608 345.188C738.608 344.264 739.238 343.69 740.078 343.69C741.086 343.69 741.66 344.404 741.66 345.356C741.66 346.042 741.352 346.7 740.736 347.274ZM740.092 352.02C738.986 352.02 738.132 351.306 738.132 350.284C738.132 349.388 738.622 348.618 739.336 348.128C740.736 348.702 741.87 349.178 741.87 350.438C741.87 351.404 741.142 352.02 740.092 352.02ZM748.048 351.95C746.942 351.95 746.2 350.984 746.032 348.94C746.648 348.058 747.348 347.736 747.95 347.736C749.056 347.736 749.644 348.478 749.644 349.808C749.644 351.138 748.944 351.95 748.048 351.95ZM750.974 343.606C750.386 342.99 749.546 342.5 748.398 342.5C746.368 342.5 744.506 344.082 744.506 348.044C744.506 351.544 746.102 353.182 748.062 353.182C749.742 353.182 751.142 351.852 751.142 349.808C751.142 347.624 749.98 346.56 748.244 346.56C747.502 346.56 746.606 347.008 746.004 347.75C746.074 344.81 747.166 343.816 748.482 343.816C749.084 343.816 749.714 344.138 750.092 344.586L750.974 343.606ZM759.603 347.386C757.671 346.77 756.621 345.3 756.621 343.732V343.494H759.267V342.332H752.477V343.494H755.165V343.746C755.165 345.468 754.059 347.092 752.071 347.778L752.799 348.912C754.311 348.394 755.375 347.316 755.935 345.972C756.481 347.148 757.489 348.058 758.903 348.506L759.603 347.386ZM757.979 352.944C756.215 352.944 755.193 352.496 755.193 351.684C755.193 350.858 756.215 350.424 757.979 350.424C759.743 350.424 760.765 350.858 760.765 351.684C760.765 352.496 759.743 352.944 757.979 352.944ZM757.979 349.29C755.375 349.29 753.765 350.172 753.765 351.684C753.765 353.182 755.375 354.078 757.979 354.078C760.583 354.078 762.193 353.182 762.193 351.684C762.193 350.172 760.583 349.29 757.979 349.29ZM762.053 344.516V341.436H760.611V348.996H762.053V345.706H763.845V344.516H762.053ZM773.728 341.422V354.106H775.184V341.422H773.728ZM765.454 342.472V351.096H771.53V342.472H770.088V345.692H766.882V342.472H765.454ZM766.882 346.84H770.088V349.934H766.882V346.84ZM791.888 343.158H787.45V341.604H786.008V343.158H781.542V344.32H791.888V343.158ZM783.978 347.47C783.978 346.644 784.986 346.168 786.708 346.168C788.444 346.168 789.452 346.644 789.452 347.47C789.452 348.31 788.444 348.786 786.708 348.786C784.986 348.786 783.978 348.31 783.978 347.47ZM787.45 351.516V349.892C789.62 349.724 790.922 348.87 790.922 347.47C790.922 345.944 789.298 345.048 786.708 345.048C784.132 345.048 782.508 345.944 782.508 347.47C782.508 348.87 783.838 349.738 786.008 349.892V351.516H781.01V352.706H792.476V351.516H787.45ZM801.057 342.57H798.187V341.38H796.731V342.57H793.833V343.634H801.057V342.57ZM795.793 346.028C795.793 345.426 796.437 345.062 797.445 345.062C798.453 345.062 799.097 345.426 799.097 346.028C799.097 346.616 798.453 346.966 797.445 346.966C796.437 346.966 795.793 346.616 795.793 346.028ZM801.407 348.408C800.385 348.562 799.279 348.646 798.187 348.716V347.918C799.587 347.75 800.455 347.05 800.455 346.028C800.455 344.824 799.265 344.082 797.445 344.082C795.625 344.082 794.435 344.824 794.435 346.028C794.435 347.064 795.317 347.75 796.731 347.918V348.786C795.569 348.814 794.449 348.828 793.511 348.828L793.679 349.976C795.863 349.962 798.873 349.906 801.519 349.402L801.407 348.408ZM796.787 350.69H795.345V353.84H803.955V352.664H796.787V350.69ZM803.521 345.72V341.422H802.079V351.32H803.521V346.91H805.257V345.72H803.521ZM814.528 343.886H817.342V342.696H810.258V343.886H813.072V345.09C813.072 347.26 811.77 349.612 809.81 350.522L810.636 351.67C812.12 350.956 813.254 349.458 813.814 347.694C814.402 349.332 815.536 350.704 817.006 351.348L817.804 350.214C815.83 349.374 814.528 347.19 814.528 345.09V343.886ZM818.812 341.436V354.078H820.268V341.436H818.812ZM829.017 348.856V349.864H831.495V351.04H832.937V341.422H831.495V348.856H829.017ZM826.497 342.976C827.533 342.976 828.247 343.424 828.247 344.138C828.247 344.852 827.533 345.3 826.497 345.3C825.447 345.3 824.733 344.852 824.733 344.138C824.733 343.424 825.447 342.976 826.497 342.976ZM826.497 346.364C828.345 346.364 829.619 345.482 829.619 344.138C829.619 342.794 828.345 341.912 826.497 341.912C824.635 341.912 823.361 342.794 823.361 344.138C823.361 345.482 824.635 346.364 826.497 346.364ZM825.923 350.634H827.365V348.198C828.443 348.142 829.549 348.016 830.613 347.834L830.501 346.798C827.827 347.134 824.719 347.162 822.395 347.176L822.577 348.352C823.571 348.352 824.719 348.338 825.923 348.282V350.634ZM825.545 352.664V350.102H824.103V353.84H833.231V352.664H825.545Z" fill="#181818"/>
<circle cx="710" cy="347" r="2" fill="#181818"/>
<defs>
<linearGradient id="paint0_linear_299_2251" x1="-4.65325e-06" y1="192.573" x2="1009.5" y2="192.573" gradientUnits="userSpaceOnUse">
<stop stop-color="#E4FFFC"/>
<stop offset="1" stop-color="#CCC3E3" stop-opacity="0.54"/>
</linearGradient>
<linearGradient id="paint1_linear_299_2251" x1="388.855" y1="119" x2="293.434" y2="119" gradientUnits="userSpaceOnUse">
<stop stop-color="#FF4244"/>
<stop offset="1" stop-color="#FF4244" stop-opacity="0.04"/>
</linearGradient>
</defs>
</svg>
