<svg width="24" height="24" viewBox="0 0 24 24" fill="none" xmlns="http://www.w3.org/2000/svg">
<path fill-rule="evenodd" clip-rule="evenodd" d="M8 19.4C5.56995 19.4 3.6 17.4301 3.6 15C3.6 12.5699 5.56995 10.6 8 10.6C10.4301 10.6 12.4 12.5699 12.4 15C12.4 17.4301 10.4301 19.4 8 19.4ZM8 21C4.68629 21 2 18.3137 2 15C2 11.6863 4.68629 9 8 9C11.3137 9 14 11.6863 14 15C14 18.3137 11.3137 21 8 21Z" fill="#222222"/>
<path fill-rule="evenodd" clip-rule="evenodd" d="M17.5 21.4C15.8984 21.4 14.6 20.1016 14.6 18.5C14.6 16.8984 15.8984 15.6 17.5 15.6C19.1016 15.6 20.4 16.8984 20.4 18.5C20.4 20.1016 19.1016 21.4 17.5 21.4ZM17.5 23C15.0147 23 13 20.9853 13 18.5C13 16.0147 15.0147 14 17.5 14C19.9853 14 22 16.0147 22 18.5C22 20.9853 19.9853 23 17.5 23Z" fill="#222222"/>
<path fill-rule="evenodd" clip-rule="evenodd" d="M15.5 11.4C13.8984 11.4 12.6 10.1016 12.6 8.5C12.6 6.89837 13.8984 5.6 15.5 5.6C17.1016 5.6 18.4 6.89837 18.4 8.5C18.4 10.1016 17.1016 11.4 15.5 11.4ZM15.5 13C13.0147 13 11 10.9853 11 8.5C11 6.01472 13.0147 4 15.5 4C17.9853 4 20 6.01472 20 8.5C20 10.9853 17.9853 13 15.5 13Z" fill="#222222"/>
<circle r="2.5" transform="matrix(-1 0 0 1 6.5 4.5)" fill="#222222"/>
</svg>
