<svg width="24" height="24" viewBox="0 0 24 24" fill="none" xmlns="http://www.w3.org/2000/svg">
<path fill-rule="evenodd" clip-rule="evenodd" d="M22.1552 23.1553C22.4481 22.8624 22.4144 22.3539 22.0799 22.0194L2.66617 2.60563C2.3317 2.27115 1.82311 2.23744 1.53022 2.53033C1.23732 2.82322 1.27104 3.33181 1.60551 3.66629L21.0193 23.08C21.3537 23.4145 21.8623 23.4482 22.1552 23.1553Z" fill="#222222"/>
<path fill-rule="evenodd" clip-rule="evenodd" d="M4.0331 4.9078C4.20602 5.96183 5.03817 6.79398 6.0922 6.9669L4.0331 4.9078ZM8.1266 9.00131C8.08451 9.00044 8.0423 9 8 9C4.68629 9 2 11.6863 2 15C2 18.3137 4.68629 21 8 21C10.0895 21 11.9295 19.9319 13.0039 18.312C13.0013 18.3743 13 18.437 13 18.5C13 20.9853 15.0147 23 17.5 23C18.8139 23 19.9963 22.4369 20.819 21.5389C20.7044 21.5239 20.6053 21.48 20.5302 21.4049L19.6123 20.487C19.0834 21.0491 18.3327 21.4 17.5 21.4C15.8984 21.4 14.6 20.1016 14.6 18.5C14.6 17.6673 14.9509 16.9166 15.513 16.3877L14.3813 15.256C14.229 15.4024 14.087 15.5594 13.9565 15.7259C13.9852 15.4879 14 15.2457 14 15C14 14.9577 13.9996 14.9155 13.9987 14.8734L11.6121 12.4868C12.1088 13.1993 12.4 14.0656 12.4 15C12.4 17.4301 10.4301 19.4 8 19.4C5.56995 19.4 3.6 17.4301 3.6 15C3.6 12.5699 5.56995 10.6 8 10.6C8.93436 10.6 9.8007 10.8912 10.5132 11.3879L8.1266 9.00131ZM15.8602 12.9858L11.0142 8.13982C11.1977 5.82294 13.136 4 15.5 4C17.9853 4 20 6.01472 20 8.5C20 10.864 18.1771 12.8023 15.8602 12.9858ZM16.9124 14.038L18.7633 15.8889C19.3502 16.1733 19.8267 16.6498 20.1111 17.2367L21.962 19.0876C21.9871 18.8953 22 18.6992 22 18.5C22 16.0147 19.9853 14 17.5 14C17.3008 14 17.1047 14.0129 16.9124 14.038ZM8.65033 5.77594L5.40473 2.53034C5.33544 2.46105 5.24577 2.41835 5.14239 2.40039C5.53333 2.14708 5.99949 2 6.5 2C7.88071 2 9 3.11929 9 4.5C9 4.96611 8.87244 5.40242 8.65033 5.77594ZM15.5 11.4C13.8984 11.4 12.6 10.1016 12.6 8.5C12.6 6.89837 13.8984 5.6 15.5 5.6C17.1016 5.6 18.4 6.89837 18.4 8.5C18.4 10.1016 17.1016 11.4 15.5 11.4Z" fill="#222222"/>
</svg>
