<svg width="24" height="24" viewBox="0 0 24 24" fill="none" xmlns="http://www.w3.org/2000/svg">
<path fill-rule="evenodd" clip-rule="evenodd" d="M8.99149 2.5064C9.06942 1.91358 9.5816 1.5 10.153 1.5H14.0782C14.6496 1.5 15.1618 1.91357 15.2397 2.50638L15.5579 4.72507C15.9553 4.91297 16.3313 5.13296 16.6883 5.38165L18.7884 4.53824L18.7991 4.53435C19.2935 4.35456 19.9295 4.51698 20.2306 5.05795L22.194 8.45472L22.1981 8.46219C22.4664 8.95405 22.3679 9.59123 21.9029 9.95831L21.9004 9.96027L20.131 11.3439C20.15 11.5536 20.1623 11.7715 20.1623 12C20.1623 12.2285 20.15 12.4464 20.131 12.6561L21.9029 14.0417C22.3679 14.4088 22.4664 15.0459 22.1981 15.5378L22.194 15.5453L20.2305 18.9421C19.9409 19.4625 19.3203 19.6698 18.7835 19.4598L18.7778 19.4576L16.6849 18.617C16.3319 18.8606 15.957 19.0837 15.558 19.274L15.2397 21.4936C15.1618 22.0864 14.6496 22.5 14.0782 22.5H10.153C9.5816 22.5 9.06943 22.0864 8.99149 21.4936L8.67334 19.2749C8.27593 19.087 7.89992 18.867 7.54293 18.6183L5.44281 19.4618L5.43212 19.4657C4.93774 19.6454 4.30172 19.483 4.00069 18.9421L2.03719 15.5453L2.03312 15.5378C1.76483 15.0459 1.86331 14.4088 2.32827 14.0417L2.33077 14.0397L4.10039 12.6559C4.0813 12.4434 4.06887 12.2233 4.06887 12C4.06887 11.7767 4.0813 11.5566 4.10039 11.3441L2.33077 9.96027L2.32827 9.95831C1.88344 9.60712 1.73628 8.96762 2.04276 8.44509L4.00069 5.05787C4.2903 4.53751 4.91086 4.33016 5.44769 4.54022L5.45338 4.54245L7.54628 5.383C7.89934 5.1394 8.2742 4.91629 8.67321 4.72597L8.99149 2.5064ZM12.1156 9.25234C10.601 9.25234 9.36793 10.4854 9.36793 12C9.36793 13.5146 10.601 14.7477 12.1156 14.7477C13.6301 14.7477 14.8633 13.5146 14.8633 12C14.8633 10.4854 13.6301 9.25234 12.1156 9.25234Z" fill="#222222"/>
</svg>
