<svg width="24" height="24" viewBox="0 0 24 24" fill="none" xmlns="http://www.w3.org/2000/svg">
<path fill-rule="evenodd" clip-rule="evenodd" d="M7.21429 18.1071C5.44 18.1071 4 16.6671 4 14.8929C4 13.6071 4.75857 12.5143 5.83857 12C4.75857 11.4857 4 10.3929 4 9.10714C4 7.33286 5.44 5.89286 7.21429 5.89286C7.89571 5.89286 8.52571 6.09857 9.04 6.45857L9.01429 6.21429C9.01429 4.44 10.4543 3 12.2286 3C14.0029 3 15.4429 4.44 15.4429 6.21429L15.4171 6.45857C15.9443 6.09857 16.5614 5.89286 17.2429 5.89286C19.0171 5.89286 20.4571 7.33286 20.4571 9.10714C20.4571 10.3929 19.6986 11.4857 18.6186 12C19.6986 12.5143 20.4571 13.6071 20.4571 14.8929C20.4571 16.6671 19.0171 18.1071 17.2429 18.1071C16.5614 18.1071 15.9314 17.9014 15.4171 17.5414L15.4429 17.7857C15.4429 19.56 14.0029 21 12.2286 21C10.4543 21 9.01429 19.56 9.01429 17.7857L9.04 17.5414C8.51286 17.9014 7.89571 18.1071 7.21429 18.1071ZM15.4427 12C15.4427 10.2257 14.0027 8.78571 12.2284 8.78571C10.4542 8.78571 9.01416 10.2257 9.01416 12C9.01416 13.7743 10.4542 15.2143 12.2284 15.2143C14.0027 15.2143 15.4427 13.7743 15.4427 12Z" fill="#222222"/>
</svg>
