<svg width="121" height="21" viewBox="0 0 121 21" fill="none" xmlns="http://www.w3.org/2000/svg">
<path fill-rule="evenodd" clip-rule="evenodd" d="M19.5258 11.129H19.5657C20.6142 9.68826 22.1215 9.15117 23.7016 9.15117C24.9837 9.15117 26.2928 9.81617 26.466 11.0883C27.4494 9.83526 29.0597 9.12699 30.6443 9.08435C32.9202 9.08435 34.2911 10.5435 33.7961 12.8554L32.292 19.8586H28.2874L29.6075 13.7107C29.7857 12.6887 29.7722 11.5878 28.5294 11.5878C26.5483 11.5878 26.3379 13.7336 26.3109 13.8558L25.021 19.8586H21.019L22.3436 13.7107C22.5174 12.6887 22.5026 11.5878 21.2585 11.5878C19.2813 11.5878 19.0721 13.7336 19.0451 13.8558L17.7553 19.8586H13.752L15.4228 12.0861C15.6242 11.1494 15.7375 10.527 15.8733 9.39871H19.8348L19.5258 11.129Z" fill="white"/>
<path fill-rule="evenodd" clip-rule="evenodd" d="M44.4106 19.8585C44.5336 18.6061 44.5497 18.1499 44.6462 17.7108L45.7983 12.336C46.3473 9.98087 43.9459 9.08423 41.7988 9.08423C40.6197 9.08423 39.2244 9.21023 38.0215 9.71105C36.8443 10.1915 35.8795 11.0455 35.5834 12.5257H39.3557C39.4689 11.8995 39.9851 10.9628 40.9641 10.9189C42.5789 10.8565 42.0795 12.1916 41.8825 13.108H40.6197C37.1648 13.108 34.582 14.151 33.9924 16.692C33.4878 18.8371 34.5105 20.1659 37.0174 20.1659C38.9991 20.1659 40.1126 19.1884 40.7588 18.4388H40.8032C40.6397 19.1884 40.5657 19.5231 40.5824 19.8585H44.4106ZM37.9127 16.501C38.0665 15.7737 38.6104 15.3982 39.2656 15.1061C39.8712 14.835 40.6603 14.879 41.5015 14.879C41.2041 16.2745 40.7105 17.8788 38.9837 17.8788C38.2255 17.8788 37.7479 17.2526 37.9127 16.501Z" fill="white"/>
<path fill-rule="evenodd" clip-rule="evenodd" d="M49.266 19.8585H45.1797L49.9122 14.3978L47.8488 9.39856H52.4616L53.1232 12.6058L55.2227 9.39856H59.2685L54.9459 14.3978L57.3569 19.8585H52.6798L51.8456 15.9837L49.266 19.8585Z" fill="white"/>
<path fill-rule="evenodd" clip-rule="evenodd" d="M70.7578 9.47158C70.8948 7.94113 69.9371 7.37603 68.7265 7.37603C66.1617 7.37603 64.8757 9.70322 64.281 12.4701C64.0828 13.3922 63.2821 17.2085 66.5704 17.2085C68.8179 17.2085 69.4004 15.5947 69.6115 15.0067H74.0209C72.9802 19.7482 68.0198 20.1453 66.0246 20.1453C64.5391 20.1453 61.9647 19.8952 60.6452 18.1319C59.3503 16.3717 59.5704 13.9605 59.9064 12.3868C60.3543 10.3103 61.2869 8.23449 63.0781 6.61749C65.027 4.85794 67.1413 4.39722 69.3675 4.39722C71.8487 4.39722 73.6103 4.98522 74.548 6.24331C75.498 7.54276 75.2264 8.90649 75.1286 9.47158H70.7578Z" fill="white"/>
<path fill-rule="evenodd" clip-rule="evenodd" d="M77.3158 4.71191H81.303L78.0502 19.8516H74.061L77.3158 4.71191Z" fill="white"/>
<path fill-rule="evenodd" clip-rule="evenodd" d="M84.4397 17.0638C84.7351 17.8612 85.4463 17.9012 85.8061 17.9012C87.5458 17.9012 88.2866 16.0361 88.602 14.5667C88.9939 12.7422 88.8781 11.2124 87.2884 11.2124C85.5268 11.2124 84.8053 12.9949 84.4661 14.5667C84.3181 15.2591 84.1604 16.2862 84.4397 17.0638ZM87.7711 8.96606C91.2279 8.96606 93.552 10.6887 92.7501 14.4222C92.4193 15.9527 91.6405 17.5022 90.3024 18.5936C89.2263 19.454 87.7724 20.1024 85.5886 20.1024C83.2342 20.1024 81.8273 19.5373 81.0015 18.5529C80.0187 17.3992 80.0586 15.8273 80.3367 14.547C81.0292 11.3174 83.5509 8.96606 87.7711 8.96606Z" fill="white"/>
<path fill-rule="evenodd" clip-rule="evenodd" d="M98.892 9.32556L97.5719 15.469C97.4451 16.0557 97.1272 17.5238 98.7195 17.5238C100.395 17.5238 100.72 16.0157 100.844 15.4264L102.156 9.32556H106.146L104.273 18.0291C104.123 18.9283 104.1 19.0358 103.946 19.8517H100.022L100.29 18.2156C98.8418 19.9166 97.4805 20.0407 96.5441 20.0407C92.8542 20.0407 93.2178 17.2725 93.6491 15.259L94.9247 9.32556H98.892Z" fill="white"/>
<path fill-rule="evenodd" clip-rule="evenodd" d="M114.292 14.5469C114.671 12.7867 114.394 11.402 112.995 11.402C111.214 11.402 110.5 13.6248 110.291 14.6106C110.074 15.6173 109.821 17.7752 111.581 17.7752C113.025 17.7752 113.903 16.3491 114.292 14.5469ZM120.349 4.71191L117.66 17.2305C117.47 18.1112 117.326 18.9703 117.202 19.8516H113.425L113.675 18.3015C113.121 18.9092 112.037 20.1024 109.682 20.1024C106.012 20.1024 105.605 17.1668 106.159 14.5876C106.641 12.3457 107.482 11.2957 108.369 10.5213C109.567 9.49355 110.839 9.09455 112.177 9.09455C113.957 9.09455 114.565 9.82891 115.106 10.5626L116.363 4.71191H120.349Z" fill="white"/>
<path fill-rule="evenodd" clip-rule="evenodd" d="M5.9193 8.76021H2.02026L2.92519 4.5564H16.9921L16.0878 8.76021H12.1856L9.72887 20.2014H3.46197L5.9193 8.76021Z" fill="white"/>
<path fill-rule="evenodd" clip-rule="evenodd" d="M7.51572 6.82996H0.1875L1.7354 0.0927734H9.06877L7.51572 6.82996Z" fill="#D0232B"/>
</svg>
