<svg width="24" height="24" viewBox="0 0 24 24" fill="none" xmlns="http://www.w3.org/2000/svg">
<path fill-rule="evenodd" clip-rule="evenodd" d="M21 11C21 9.34315 19.6569 8 18 8H13.5V17C13.5 17.4142 13.1642 17.75 12.75 17.75C12.3358 17.75 12 17.4142 12 17V8V7.5V6C12 4.34315 10.6569 3 9 3H6C4.34315 3 3 4.34315 3 6V18C3 19.6569 4.34315 21 6 21H18C19.6569 21 21 19.6569 21 18V11ZM6 7.5C6 7.08579 6.33579 6.75 6.75 6.75H8.75C9.16421 6.75 9.5 7.08579 9.5 7.5C9.5 7.91421 9.16421 8.25 8.75 8.25H6.75C6.33579 8.25 6 7.91421 6 7.5ZM6.75 10.75C6.33579 10.75 6 11.0858 6 11.5C6 11.9142 6.33579 12.25 6.75 12.25H8.75C9.16421 12.25 9.5 11.9142 9.5 11.5C9.5 11.0858 9.16421 10.75 8.75 10.75H6.75ZM15 12.75C15 12.3358 15.3358 12 15.75 12H17.75C18.1642 12 18.5 12.3358 18.5 12.75C18.5 13.1642 18.1642 13.5 17.75 13.5H15.75C15.3358 13.5 15 13.1642 15 12.75ZM6.75 14.75C6.33579 14.75 6 15.0858 6 15.5C6 15.9142 6.33579 16.25 6.75 16.25H8.75C9.16421 16.25 9.5 15.9142 9.5 15.5C9.5 15.0858 9.16421 14.75 8.75 14.75H6.75Z" fill="#222222"/>
</svg>
