<svg width="24" height="24" viewBox="0 0 24 24" fill="none" xmlns="http://www.w3.org/2000/svg">
<path fill-rule="evenodd" clip-rule="evenodd" d="M13 9.5V17C13 17.4142 12.6642 17.75 12.25 17.75C11.8358 17.75 11.5 17.4142 11.5 17V8V7.5V6C11.5 5.17157 10.8284 4.5 10 4.5H6C5.17157 4.5 4.5 5.17157 4.5 6V18C4.5 18.8284 5.17157 19.5 6 19.5H18C18.8284 19.5 19.5 18.8284 19.5 18V11C19.5 10.1716 18.8284 9.5 18 9.5H13ZM21 11C21 9.34315 19.6569 8 18 8H13V7.5V6C13 4.34315 11.6569 3 10 3H6C4.34315 3 3 4.34315 3 6V18C3 19.6569 4.34315 21 6 21H18C19.6569 21 21 19.6569 21 18V11ZM6.25 7.5C6.25 7.08579 6.58579 6.75 7 6.75H9C9.41421 6.75 9.75 7.08579 9.75 7.5C9.75 7.91421 9.41421 8.25 9 8.25H7C6.58579 8.25 6.25 7.91421 6.25 7.5ZM7 10.75C6.58579 10.75 6.25 11.0858 6.25 11.5C6.25 11.9142 6.58579 12.25 7 12.25H9C9.41421 12.25 9.75 11.9142 9.75 11.5C9.75 11.0858 9.41421 10.75 9 10.75H7ZM14.5 13.5C14.5 13.0858 14.8358 12.75 15.25 12.75H17.25C17.6642 12.75 18 13.0858 18 13.5C18 13.9142 17.6642 14.25 17.25 14.25H15.25C14.8358 14.25 14.5 13.9142 14.5 13.5ZM7 14.75C6.58579 14.75 6.25 15.0858 6.25 15.5C6.25 15.9142 6.58579 16.25 7 16.25H9C9.41421 16.25 9.75 15.9142 9.75 15.5C9.75 15.0858 9.41421 14.75 9 14.75H7Z" fill="#222222"/>
</svg>
