<svg width="24" height="24" viewBox="0 0 24 24" fill="none" xmlns="http://www.w3.org/2000/svg">
<path fill-rule="evenodd" clip-rule="evenodd" d="M14.7314 2.22078C13.2742 0.593071 10.7258 0.593073 9.26862 2.22079L8.95411 2.5721C8.58279 2.98688 8.04309 3.21043 7.48724 3.1797L7.01643 3.15367C4.83509 3.03308 3.03308 4.83509 3.15367 7.01643L3.1797 7.48724C3.21043 8.04309 2.98688 8.58279 2.5721 8.95411L2.22078 9.26862C0.593071 10.7258 0.593073 13.2742 2.22079 14.7314L2.5721 15.0459C2.98688 15.4172 3.21043 15.9569 3.1797 16.5128L3.15367 16.9836C3.03308 19.1649 4.83509 20.9669 7.01643 20.8463L7.48724 20.8203C8.04309 20.7896 8.58279 21.0131 8.95411 21.4279L9.26862 21.7792C10.7258 23.4069 13.2742 23.4069 14.7314 21.7792L15.0459 21.4279C15.4172 21.0131 15.9569 20.7896 16.5128 20.8203L16.9836 20.8463C19.1649 20.9669 20.9669 19.1649 20.8463 16.9836L20.8203 16.5128C20.7896 15.9569 21.0131 15.4172 21.4279 15.0459L21.7792 14.7314C23.4069 13.2742 23.4069 10.7258 21.7792 9.26862L21.4279 8.95411C21.0131 8.58279 20.7896 8.04309 20.8203 7.48724L20.8463 7.01643C20.9669 4.83509 19.1649 3.03308 16.9836 3.15367L16.5128 3.1797C15.9569 3.21043 15.4172 2.98688 15.0459 2.5721L14.7314 2.22078ZM15.5607 10.5706C15.8758 10.261 15.8803 9.75447 15.5706 9.43931C15.261 9.12416 14.7545 9.1197 14.4393 9.42936L10.9289 12.8785L9.56063 11.5343C9.24545 11.2247 8.73894 11.2292 8.42931 11.5444C8.11968 11.8596 8.12418 12.3661 8.43937 12.6757L10.3684 14.5707C10.6796 14.8765 11.1785 14.8764 11.4897 14.5706L15.5607 10.5706Z" fill="#222222"/>
</svg>
