<svg width="24" height="24" viewBox="0 0 24 24" fill="none" xmlns="http://www.w3.org/2000/svg">
<path fill-rule="evenodd" clip-rule="evenodd" d="M19.7895 1.5C21.1847 1.5 22.3158 2.63107 22.3158 4.02632C23.0134 4.02632 23.5789 4.59185 23.5789 5.28947V8.23684C23.5789 8.93447 23.0134 9.5 22.3158 9.5H17.2632C16.5655 9.5 16 8.93447 16 8.23684V5.28947C16 4.59185 16.5655 4.02632 17.2632 4.02632C17.2632 2.63107 18.3942 1.5 19.7895 1.5ZM19.7895 2.34211C20.7196 2.34211 21.4737 3.09615 21.4737 4.02632H18.1053C18.1053 3.09615 18.8593 2.34211 19.7895 2.34211ZM19.7895 7.60526C20.2546 7.60526 20.6316 7.22824 20.6316 6.76316C20.6316 6.29808 20.2546 5.92105 19.7895 5.92105C19.3244 5.92105 18.9474 6.29808 18.9474 6.76316C18.9474 7.22824 19.3244 7.60526 19.7895 7.60526Z" fill="#222222"/>
<path fill-rule="evenodd" clip-rule="evenodd" d="M19.2 12C19.2 11.694 19.164 11.397 19.128 11.1H20.955C20.982 11.397 21 11.694 21 12C21 16.968 16.968 21 12 21C7.032 21 3 16.968 3 12C3 7.032 7.032 3 12 3C12.945 3 13.845 3.144 14.7 3.414V5.7C14.7 6.69 13.89 7.5 12.9 7.5H11.1V9.3C11.1 9.795 10.695 10.2 10.2 10.2H8.4V12H13.8C14.295 12 14.7 12.405 14.7 12.9V15.6H15.6C16.41 15.6 17.076 16.122 17.31 16.851C18.48 15.573 19.2 13.872 19.2 12ZM4.8 12C4.8 15.672 7.545 18.696 11.1 19.137V17.4C10.11 17.4 9.3 16.59 9.3 15.6V14.7L4.989 10.389C4.872 10.911 4.8 11.442 4.8 12Z" fill="#222222"/>
</svg>
