<svg width="24" height="24" viewBox="0 0 24 24" fill="none" xmlns="http://www.w3.org/2000/svg">
<path fill-rule="evenodd" clip-rule="evenodd" d="M12 8.5C12 10.1569 10.6569 11.5 9 11.5C7.34315 11.5 6 10.1569 6 8.5C6 6.84315 7.34315 5.5 9 5.5C10.6569 5.5 12 6.84315 12 8.5ZM13.5 8.5C13.5 10.9853 11.4853 13 9 13C6.51472 13 4.5 10.9853 4.5 8.5C4.5 6.01472 6.51472 4 9 4C11.4853 4 13.5 6.01472 13.5 8.5ZM16.1696 4.26955C15.7661 4.17599 15.3631 4.42725 15.2695 4.83076C15.176 5.23427 15.4273 5.63722 15.8308 5.73078C16.5423 5.89578 17.1596 6.26762 17.5927 6.77293C18.0245 7.2767 18.2502 7.88472 18.2502 8.50017C18.2502 9.11561 18.0245 9.72363 17.5927 10.2274C17.1596 10.7327 16.5423 11.1046 15.8308 11.2695C15.4273 11.3631 15.176 11.7661 15.2695 12.1696C15.3631 12.5731 15.7661 12.8243 16.1696 12.7308C17.1743 12.4978 18.0784 11.9657 18.7316 11.2036C19.3862 10.4399 19.7502 9.48916 19.7502 8.50017C19.7502 7.51118 19.3862 6.56039 18.7316 5.79674C18.0784 5.03462 17.1743 4.50252 16.1696 4.26955ZM2.25 19.5C2.25 16.8766 4.37665 14.75 7 14.75H11C13.6234 14.75 15.75 16.8766 15.75 19.5C15.75 19.9142 15.4142 20.25 15 20.25C14.5858 20.25 14.25 19.9142 14.25 19.5C14.25 17.7051 12.7949 16.25 11 16.25H7C5.20507 16.25 3.75 17.7051 3.75 19.5C3.75 19.9142 3.41421 20.25 3 20.25C2.58579 20.25 2.25 19.9142 2.25 19.5ZM16.75 14.75C16.3358 14.75 16 15.0858 16 15.5C16 15.9142 16.3358 16.25 16.75 16.25H17.5C19.0188 16.25 20.25 17.4812 20.25 19V19.5C20.25 19.9142 20.5858 20.25 21 20.25C21.4142 20.25 21.75 19.9142 21.75 19.5V19C21.75 16.6528 19.8472 14.75 17.5 14.75H16.75Z" fill="#222222"/>
</svg>
