<svg width="24" height="24" viewBox="0 0 24 24" fill="none" xmlns="http://www.w3.org/2000/svg">
<path fill-rule="evenodd" clip-rule="evenodd" d="M8.79312 2.5064C8.87106 1.91358 9.38323 1.5 9.95462 1.5H13.8799C14.4512 1.5 14.9634 1.91357 15.0413 2.50638L15.3595 4.72507C15.7569 4.91297 16.1329 5.13296 16.4899 5.38165L18.59 4.53824L18.6007 4.53435C19.0951 4.35456 19.7312 4.51698 20.0322 5.05795L21.9956 8.45472L21.9997 8.46219C22.268 8.95405 22.1695 9.59123 21.7046 9.95831L21.7021 9.96027L19.9327 11.3439C19.9516 11.5536 19.964 11.7715 19.964 12C19.964 12.2285 19.9516 12.4464 19.9327 12.6561L21.7046 14.0417C22.1695 14.4088 22.268 15.0459 21.9997 15.5378L21.9956 15.5453L20.0321 18.9421C19.7425 19.4625 19.122 19.6698 18.5851 19.4598L18.5795 19.4576L16.4866 18.617C16.1335 18.8606 15.7586 19.0837 15.3596 19.274L15.0413 21.4936C14.9634 22.0864 14.4512 22.5 13.8799 22.5H9.95462C9.38324 22.5 8.87107 22.0864 8.79312 21.4936L8.47497 19.2749C8.07757 19.087 7.70155 18.867 7.34456 18.6183L5.24445 19.4618L5.23376 19.4657C4.73938 19.6454 4.10335 19.483 3.80232 18.9421L1.83883 15.5453L1.83475 15.5378C1.56647 15.0459 1.66494 14.4088 2.12991 14.0417L2.1324 14.0397L3.90203 12.6559C3.88294 12.4434 3.8705 12.2233 3.8705 12C3.8705 11.7767 3.88294 11.5566 3.90203 11.3441L2.13241 9.96027L2.12991 9.95831C1.68508 9.60712 1.53791 8.96762 1.8444 8.44509L3.80233 5.05787C4.09193 4.53751 4.7125 4.33016 5.24932 4.54022L5.25502 4.54245L7.34791 5.383C7.70098 5.1394 8.07584 4.91629 8.47484 4.72597L8.79312 2.5064ZM10.1283 2.87383L9.72505 5.68609L9.36137 5.83514C8.82833 6.0536 8.32938 6.35467 7.85462 6.71075L7.54528 6.94275L4.91113 5.88486L3.118 8.98698L5.35603 10.7371L5.30772 11.1235C5.27023 11.4235 5.24434 11.7161 5.24434 12C5.24434 12.2839 5.27023 12.5765 5.30772 12.8765L5.35603 13.2629L3.118 15.013L4.91113 18.1151L7.55042 17.0552L7.86129 17.2943C8.32676 17.6524 8.8235 17.9444 9.36137 18.1649L9.72505 18.3139L10.1283 21.1262H13.7062L14.1094 18.3139L14.4731 18.1649C15.0061 17.9464 15.5051 17.6453 15.9799 17.2893L16.2892 17.0573L18.9233 18.1151L20.7165 15.013L18.4784 13.2629L18.5267 12.8765C18.5643 12.5759 18.5901 12.2933 18.5901 12C18.5901 11.7067 18.5643 11.4241 18.5267 11.1235L18.4784 10.7371L20.7165 8.98698L18.9233 5.88486L16.284 6.94481L15.9732 6.70568C15.5077 6.34763 15.011 6.05558 14.4731 5.83514L14.1094 5.68609L13.7062 2.87383H10.1283ZM11.9172 9.25234C10.4027 9.25234 9.16957 10.4854 9.16957 12C9.16957 13.5146 10.4027 14.7477 11.9172 14.7477C13.4318 14.7477 14.6649 13.5146 14.6649 12C14.6649 10.4854 13.4318 9.25234 11.9172 9.25234ZM7.79574 12C7.79574 9.7267 9.64394 7.8785 11.9172 7.8785C14.1905 7.8785 16.0387 9.7267 16.0387 12C16.0387 14.2733 14.1905 16.1215 11.9172 16.1215C9.64394 16.1215 7.79574 14.2733 7.79574 12Z" fill="#222222"/>
</svg>
