<svg width="24" height="24" viewBox="0 0 24 24" fill="none" xmlns="http://www.w3.org/2000/svg">
<path d="M12 3C12.4519 3 12.8182 3.36631 12.8182 3.81818V15.2066L16.9435 11.9065C17.2964 11.6243 17.8113 11.6815 18.0935 12.0344C18.3758 12.3872 18.3186 12.9021 17.9657 13.1844L12.5108 17.548C12.212 17.787 11.7874 17.787 11.4886 17.548L6.03439 13.1843C5.68155 12.902 5.62436 12.3872 5.90665 12.0343C6.18895 11.6815 6.70382 11.6243 7.05666 11.9066L11.1819 15.207V3.81818C11.1819 3.36631 11.5482 3 12 3Z" fill="#222222"/>
<path d="M3.27277 19.9091C2.8209 19.9091 2.45459 20.2754 2.45459 20.7273C2.45459 21.1791 2.8209 21.5455 3.27277 21.5455L20.7273 21.5455C21.1792 21.5455 21.5455 21.1791 21.5455 20.7273C21.5455 20.2754 21.1792 19.9091 20.7273 19.9091L3.27277 19.9091Z" fill="#222222"/>
</svg>
