<svg width="24" height="24" viewBox="0 0 24 24" fill="none" xmlns="http://www.w3.org/2000/svg">
<path d="M3.54554 6.00003C3.54554 4.64442 4.64448 3.54548 6.00009 3.54548H12.0001C12.452 3.54548 12.8183 3.17917 12.8183 2.7273C12.8183 2.27543 12.452 1.90912 12.0001 1.90912H6.00009C3.74074 1.90912 1.90918 3.74068 1.90918 6.00003V18C1.90918 20.2594 3.74074 22.0909 6.00009 22.0909H18.0001C20.2594 22.0909 22.091 20.2594 22.091 18V12C22.091 11.5482 21.7247 11.1818 21.2728 11.1818C20.821 11.1818 20.4546 11.5482 20.4546 12V18C20.4546 19.3556 19.3557 20.4546 18.0001 20.4546H6.00009C4.64448 20.4546 3.54554 19.3556 3.54554 18V6.00003Z" fill="#222222"/>
<path d="M16.3637 1.90912C15.9119 1.90912 15.5455 2.27543 15.5455 2.7273C15.5455 3.17917 15.9119 3.54548 16.3637 3.54548H19.2975L10.8761 11.9669C10.5566 12.2864 10.5566 12.8045 10.8761 13.124C11.1956 13.4435 11.7137 13.4435 12.0332 13.124L20.4546 4.70252V7.63639C20.4546 8.08826 20.8209 8.45457 21.2728 8.45457C21.7247 8.45457 22.091 8.08826 22.091 7.63639V2.7273C22.091 2.27543 21.7247 1.90912 21.2728 1.90912H16.3637Z" fill="#222222"/>
</svg>
