<svg width="24" height="24" viewBox="0 0 24 24" fill="none" xmlns="http://www.w3.org/2000/svg">
<path fill-rule="evenodd" clip-rule="evenodd" d="M8.89112 2.75C8.89112 2.33579 9.2269 2 9.64112 2L17.2522 2C19.3233 2 21.0022 3.67894 21.0022 5.75L21.0022 17.25C21.0022 19.3211 19.3233 21 17.2522 21H9.64111C9.2269 21 8.89111 20.6642 8.89111 20.25C8.89111 19.8358 9.2269 19.5 9.64111 19.5L17.2522 19.5C18.4949 19.5 19.5022 18.4926 19.5022 17.25L19.5022 5.75C19.5022 4.50736 18.4949 3.5 17.2522 3.5L9.64112 3.5C9.2269 3.5 8.89112 3.16421 8.89112 2.75ZM9.40267 14.959C9.1605 15.2819 9.22592 15.7399 9.54878 15.9821C9.87165 16.2243 10.3297 16.1589 10.5719 15.836L13.4949 11.9389C13.6898 11.6791 13.6898 11.3218 13.495 11.062L10.5719 7.16421C10.3298 6.84132 9.87171 6.77587 9.54883 7.01801C9.22595 7.26015 9.16049 7.7182 9.40263 8.04108L11.4486 10.7693L2.73077 10.7693C2.32718 10.7693 2 11.0965 2 11.5001C2 11.9037 2.32718 12.2309 2.73077 12.2309L11.449 12.2309L9.40267 14.959Z" fill="#222222"/>
</svg>
