<svg width="24" height="24" viewBox="0 0 24 24" fill="none" xmlns="http://www.w3.org/2000/svg">
<path fill-rule="evenodd" clip-rule="evenodd" d="M15.4312 6.73813C15.1616 6.42364 15.198 5.95017 15.5125 5.68059C15.827 5.41101 16.3004 5.44742 16.57 5.7619L19.57 9.26166C19.6968 9.40962 19.7569 9.59467 19.7501 9.77773C19.7504 9.78739 19.7506 9.7971 19.7506 9.80685C19.7506 10.0785 19.6062 10.3165 19.3899 10.448L16.57 13.7381C16.3005 14.0526 15.827 14.089 15.5125 13.8195C15.198 13.5499 15.1616 13.0764 15.4311 12.7619L17.3211 10.5568H8.38889C6.94259 10.591 5.72144 11.8734 5.7505 13.5151C5.75065 13.524 5.75065 13.5328 5.7505 13.5417C5.72144 15.1834 6.94259 16.4658 8.38888 16.5H17.0006C17.4148 16.5 17.7506 16.8357 17.7506 17.25C17.7506 17.6642 17.4148 18 17.0006 18H8.38061L8.36508 17.9998C6.01322 17.9511 4.21513 15.9111 4.25051 13.5284C4.21513 11.1457 6.01322 9.10573 8.36508 9.05701L8.38061 9.05685H17.4188L15.4312 6.73813Z" fill="#222222"/>
</svg>
