<svg width="24" height="24" viewBox="0 0 24 24" fill="none" xmlns="http://www.w3.org/2000/svg">
<path d="M2.51256 10.9749C1.82914 11.6583 1.82915 12.7663 2.51256 13.4498L8.21398 19.1512C8.50687 19.4441 8.98175 19.4441 9.27464 19.1512C9.56753 18.8583 9.56753 18.3834 9.27464 18.0905L3.57322 12.3891C3.47559 12.2915 3.47559 12.1332 3.57322 12.0356L9.27464 6.33414C9.56753 6.04124 9.56753 5.56637 9.27464 5.27348C8.98174 4.98058 8.50687 4.98058 8.21398 5.27348L2.51256 10.9749Z" fill="#222222"/>
<path d="M13.1278 15.1095C13.1278 14.298 13.7731 13.6337 14.5842 13.6102C17.4561 13.5268 19.7223 14.3167 21.4101 15.4025C20.8241 13.6564 19.9034 12.5303 18.9218 11.8007C17.5823 10.8049 15.9863 10.4434 14.6238 10.4398C13.7969 10.4376 13.1278 9.76666 13.1278 8.93979V7.16221L7.76274 12.2308L13.1278 17.2995V15.1095Z" fill="#222222"/>
<path fill-rule="evenodd" clip-rule="evenodd" d="M16.1278 15.157C18.745 15.4059 20.6415 16.4996 21.8917 17.6707C22.3634 18.1126 23.4514 17.7477 23.3529 17.1089C22.3535 10.627 17.8308 8.94832 14.6278 8.93979V6.00198C14.6278 5.12471 13.5787 4.67262 12.941 5.27509L6.34793 11.5039C5.93025 11.8985 5.93025 12.5631 6.34793 12.9577L12.941 19.1866C13.5787 19.7891 14.6278 19.337 14.6278 18.4597V15.1095C14.8783 15.1023 15.1233 15.1024 15.3628 15.1095C15.6243 15.1173 15.8793 15.1333 16.1278 15.157ZM14.5842 13.6102C13.7731 13.6337 13.1278 14.298 13.1278 15.1095V17.2995L7.76274 12.2308L13.1278 7.16221V8.93979C13.1278 9.76666 13.7969 10.4376 14.6238 10.4398C15.9863 10.4434 17.5823 10.8049 18.9218 11.8007C19.9034 12.5303 20.8241 13.6564 21.4101 15.4025C19.7223 14.3167 17.4561 13.5268 14.5842 13.6102Z" fill="#222222"/>
</svg>
