<svg width="24" height="24" viewBox="0 0 24 24" fill="none" xmlns="http://www.w3.org/2000/svg">
<path fill-rule="evenodd" clip-rule="evenodd" d="M15.8198 5.34493C16.0601 5.19084 16.0601 4.80916 15.8198 4.65507L12.5461 2.555C12.304 2.39971 12 2.59173 12 2.89993V4.25C12 4.25 12 4.25 12 4.25C7.4433 4.25 3.75 7.94422 3.75 12.5C3.75 17.0558 7.4433 20.75 12 20.75C16.5558 20.75 20.25 17.0558 20.25 12.5C20.25 12.0858 19.9142 11.75 19.5 11.75C19.0858 11.75 18.75 12.0858 18.75 12.5C18.75 16.2274 15.7274 19.25 12 19.25C8.27183 19.25 5.25 16.2275 5.25 12.5C5.25 8.77254 8.27183 5.75 12 5.75C12 5.75 12 5.75 12 5.75V7.10007C12 7.40827 12.304 7.60029 12.5461 7.445L15.8198 5.34493Z" fill="#222222"/>
</svg>
