<svg width="24" height="24" viewBox="0 0 24 24" fill="none" xmlns="http://www.w3.org/2000/svg">
<path d="M7.75 13C6.50736 13 5.5 11.9926 5.5 10.75V6.75C5.5 6.33579 5.16421 6 4.75 6C4.33579 6 4 6.33579 4 6.75V10.75C4 12.8211 5.67893 14.5 7.75 14.5H18.1194L16.1806 16.7619C15.911 17.0764 15.9474 17.5498 16.2619 17.8194C16.5764 18.089 17.0499 18.0526 17.3194 17.7381L20.3194 14.2383C20.3628 14.1877 20.3983 14.1328 20.426 14.0752C20.4317 14.0633 20.4371 14.0514 20.4422 14.0392C20.4747 13.9615 20.4945 13.877 20.499 13.7886C20.4997 13.7758 20.5 13.7629 20.5 13.75C20.5 13.5585 20.4282 13.3838 20.3102 13.2513L17.3195 9.76191C17.0499 9.44741 16.5764 9.41097 16.2619 9.68053C15.9474 9.95009 15.911 10.4236 16.1805 10.7381L18.1192 13L7.75 13Z" fill="#222222"/>
</svg>
