<svg width="24" height="24" viewBox="0 0 24 24" fill="none" xmlns="http://www.w3.org/2000/svg">
<path d="M16.9944 3.07972C16.7382 2.88441 16.3725 3.07022 16.3725 3.39574V4.82771H7.98804C5.91075 4.82771 4.22677 6.48577 4.22677 8.53109V11.2354C4.22677 11.6577 4.56357 12 4.97903 12C5.39448 12 5.73128 11.6577 5.73128 11.2354V8.53109C5.73128 7.3039 6.74166 6.30906 7.98804 6.30906H16.3725V7.74103C16.3725 8.06655 16.7382 8.25237 16.9944 8.05705L19.8446 5.88441C20.0519 5.7264 20.0519 5.41038 19.8446 5.25237L16.9944 3.07972Z" fill="#222222"/>
<path d="M19.7733 15.4705V13.1864C19.7733 12.7642 19.4365 12.4219 19.021 12.4219C18.6056 12.4219 18.2688 12.7642 18.2688 13.1864V15.4705C18.2688 16.6977 17.2584 17.6925 16.012 17.6925H7.62753V16.2606C7.62753 15.935 7.26189 15.7492 7.00567 15.9445L4.15547 18.1172C3.94818 18.2752 3.94818 18.5912 4.15547 18.7492L7.00567 20.9219C7.26189 21.1172 7.62753 20.9314 7.62753 20.6059V19.1739H16.012C18.0893 19.1739 19.7733 17.5158 19.7733 15.4705Z" fill="#222222"/>
</svg>
