<svg width="24" height="24" viewBox="0 0 24 24" fill="none" xmlns="http://www.w3.org/2000/svg">
<path fill-rule="evenodd" clip-rule="evenodd" d="M8.56946 6.73813C8.83904 6.42364 8.80263 5.95017 8.48815 5.68059C8.17366 5.41101 7.70019 5.44742 7.43061 5.7619L4.43061 9.26166C4.30377 9.40962 4.24375 9.59467 4.25055 9.77773C4.25019 9.78739 4.25 9.7971 4.25 9.80685C4.25 10.0785 4.39445 10.3165 4.61074 10.448L7.43058 13.7381C7.70013 14.0526 8.17361 14.089 8.48811 13.8195C8.80261 13.5499 8.83905 13.0764 8.56949 12.7619L6.67955 10.5568H15.6117C17.058 10.591 18.2792 11.8734 18.2501 13.5151C18.25 13.524 18.25 13.5328 18.2501 13.5417C18.2792 15.1834 17.058 16.4658 15.6117 16.5H7C6.58579 16.5 6.25 16.8357 6.25 17.25C6.25 17.6642 6.58579 18 7 18H15.62L15.6355 17.9998C17.9874 17.9511 19.7855 15.9111 19.7501 13.5284C19.7855 11.1457 17.9874 9.10573 15.6355 9.05701L15.62 9.05685H6.58185L8.56946 6.73813Z" fill="#222222"/>
</svg>
