<svg width="24" height="24" viewBox="0 0 24 24" fill="none" xmlns="http://www.w3.org/2000/svg">
<path d="M12.6403 2.23178C12.2694 1.92274 11.7307 1.92274 11.3599 2.23178L5.35989 7.23178C4.93561 7.58534 4.87829 8.21591 5.23185 8.64018C5.58542 9.06446 6.21598 9.12179 6.64026 8.76822L12.0001 4.30171L17.3599 8.76822C17.7842 9.12179 18.4147 9.06446 18.7683 8.64018C19.1219 8.21591 19.0645 7.58534 18.6403 7.23178L12.6403 2.23178Z" fill="#222222"/>
<path d="M5.35984 16.7682L11.3598 21.7682C11.7307 22.0773 12.2694 22.0773 12.6402 21.7682L18.6402 16.7682C19.0645 16.4147 19.1218 15.7841 18.7682 15.3598C18.4147 14.9355 17.7841 14.8782 17.3598 15.2318L12 19.6983L6.64021 15.2318C6.21593 14.8782 5.58537 14.9355 5.2318 15.3598C4.87824 15.7841 4.93556 16.4147 5.35984 16.7682Z" fill="#222222"/>
</svg>
