<svg width="24" height="24" viewBox="0 0 24 24" fill="none" xmlns="http://www.w3.org/2000/svg">
<path d="M17.5371 20.7973C17.361 21.0676 16.9248 21.0676 16.7486 20.7973L14.3486 17.1144C14.1711 16.842 14.3906 16.5 14.7428 16.5H16.2857V4.125C16.2857 3.65901 16.6695 3.28125 17.1429 3.28125C17.6162 3.28125 18 3.65901 18 4.125V16.5H19.5429C19.8952 16.5 20.1146 16.842 19.9371 17.1144L17.5371 20.7973Z" fill="#222222"/>
<path d="M7.25135 3.20268L9.65143 6.88564C9.82891 7.15798 9.60945 7.5 9.25722 7.5H7.71429V19.875C7.71429 20.341 7.33053 20.7188 6.85714 20.7188C6.38376 20.7188 6 20.341 6 19.875L6 7.5H4.45707C4.10484 7.5 3.88538 7.15798 4.06286 6.88564L6.46293 3.20268C6.63904 2.93244 7.07525 2.93244 7.25135 3.20268Z" fill="#222222"/>
</svg>
