<svg width="24" height="24" viewBox="0 0 24 24" fill="none" xmlns="http://www.w3.org/2000/svg">
<path fill-rule="evenodd" clip-rule="evenodd" d="M12.2883 2.20436C12.0673 2.00483 11.735 1.94514 11.4463 2.05313C11.1577 2.16111 10.9694 2.41551 10.9694 2.69769V10.3157L6.31888 6.85552C6.01717 6.58306 5.52799 6.58306 5.22628 6.85552C4.92457 7.12798 4.92457 7.56972 5.22628 7.84218L10.6494 12L5.22628 16.1578C4.92457 16.4303 4.92457 16.872 5.22628 17.1445C5.52799 17.4169 6.01717 17.4169 6.31888 17.1445L10.9694 13.6843V21.3023C10.9694 21.5845 11.1577 21.8389 11.4463 21.9469C11.735 22.0549 12.0673 21.9952 12.2883 21.7956L17.4388 17.1445C17.7405 16.872 17.7405 16.4303 17.4388 16.1578L12.8346 12L17.4388 7.84218C17.7405 7.56972 17.7405 7.12798 17.4388 6.85552L12.2883 2.20436ZM15.7999 16.6512L12.5146 13.6843V19.618L15.7999 16.6512ZM12.5146 4.38202V10.3157L15.7999 7.34885L12.5146 4.38202Z" fill="#222222"/>
<path d="M21.3838 8.87384C21.082 8.60154 20.5928 8.60178 20.2912 8.87439C19.9897 9.147 19.99 9.58874 20.2918 9.86105C20.6031 10.1418 20.85 10.4753 21.0185 10.8423C21.187 11.2093 21.2737 11.6027 21.2737 12C21.2737 12.3973 21.187 12.7907 21.0185 13.1577C20.85 13.5247 20.6031 13.8582 20.2918 14.1389C19.99 14.4113 19.9897 14.853 20.2912 15.1256C20.5928 15.3982 21.082 15.3985 21.3838 15.1262C21.8388 14.7158 22.1997 14.2285 22.4459 13.6921C22.6921 13.1557 22.8189 12.5807 22.8189 12C22.8189 11.4193 22.6921 10.8443 22.4459 10.3079C22.1997 9.77153 21.8388 9.28421 21.3838 8.87384Z" fill="#222222"/>
<path d="M17.8189 11C17.2666 11 16.8189 11.4477 16.8189 12C16.8189 12.5523 17.2666 13 17.8189 13C18.3712 13 18.8189 12.5523 18.8189 12C18.8189 11.4477 18.3712 11 17.8189 11Z" fill="#222222"/>
</svg>
