<?xml version="1.0" encoding="UTF-8"?>
<svg width="158px" height="28px" viewBox="0 0 158 28" version="1.1" xmlns="http://www.w3.org/2000/svg" xmlns:xlink="http://www.w3.org/1999/xlink">
    <!-- Generator: Sketch 63 (92445) - https://sketch.com -->
    <title>img_tmaxcloudLogo</title>
    <desc>Created with Sketch.</desc>
    <g id="Portal" stroke="none" stroke-width="1" fill="none" fill-rule="evenodd">
        <g id="1_0_0_main" transform="translate(-200.000000, -21.000000)">
            <g id="GNB">
                <g id="Logo" transform="translate(200.000000, 21.000000)">
                    <polygon id="Fill-1" fill="#00448D" points="3.59302139 5.92567594 2.40590909 11.508061 7.52443316 11.508061 4.29768449 26.6980289 12.5246684 26.6980289 15.7505722 11.508061 20.8733209 11.508061 22.0595882 5.92567594"></polygon>
                    <polygon id="Fill-2" fill="#E00113" points="2.03110267 -0.000337967914 -8.44919786e-05 8.94567273 9.62017219 8.94567273 11.6589636 -0.000337967914"></polygon>
                    <g id="Group-19" transform="translate(17.743316, 5.575288)" fill="#00448D">
                        <path d="M7.64305989,9.07790267 L7.69544492,9.07790267 C9.07181925,7.16500428 11.0506214,6.45189198 13.1248995,6.45189198 C14.8079797,6.45189198 16.5265465,7.33483316 16.7538299,9.02382781 C18.0448674,7.36018075 20.1588567,6.41978503 22.2390492,6.3631754 C25.2266856,6.3631754 27.0263647,8.30057647 26.3766214,11.3701701 L24.4020439,20.6685123 L19.1449529,20.6685123 L20.8778834,12.5057422 C21.1119262,11.1488011 21.0941829,9.68708984 19.4626428,9.68708984 C16.8619797,9.68708984 16.5856909,12.5361594 16.5502043,12.698384 L14.856985,20.6685123 L9.6032738,20.6685123 L11.3421187,12.5057422 C11.5702471,11.1488011 11.5508139,9.68708984 9.91758396,9.68708984 C7.32199037,9.68708984 7.04739144,12.5361594 7.01190481,12.698384 L5.31868556,20.6685123 L0.063284492,20.6685123 L2.25669626,10.348662 C2.52115615,9.10494011 2.66986203,8.27860856 2.84814011,6.78056578 L8.04862139,6.78056578 L7.64305989,9.07790267 Z" id="Fill-3"></path>
                        <path d="M40.311123,20.6683433 C40.4725027,19.0055412 40.4936257,18.3997337 40.6203636,17.816739 L42.1327701,10.6805465 C42.8534866,7.5534984 39.7010909,6.36300642 36.8824385,6.36300642 C35.3345455,6.36300642 33.5027594,6.53030053 31.9236043,7.19525241 C30.378246,7.83316684 29.1117112,8.9670492 28.7230481,10.9323326 L33.675123,10.9323326 C33.8238289,10.1009316 34.5014545,8.85720963 35.7865775,8.79891016 C37.9064813,8.71610802 37.2508235,10.4887497 36.9922781,11.7054342 L35.3345455,11.7054342 C30.799016,11.7054342 27.4083529,13.0902578 26.6344064,16.4640225 C25.9719893,19.3122471 27.3145668,21.0764396 30.6055294,21.0764396 C33.2070374,21.0764396 34.6687487,19.7786428 35.5170481,18.7833273 L35.5753476,18.7833273 C35.360738,19.7786428 35.2635722,20.2230706 35.2855401,20.6683433 L40.311123,20.6683433 Z M31.7808128,16.2105465 C31.9827487,15.2448032 32.6967059,14.7463005 33.5568342,14.3584824 C34.3519037,13.9985465 35.3877754,14.056846 36.4920856,14.056846 C36.1017326,15.9097551 35.4536791,18.0397979 33.1867594,18.0397979 C32.1914439,18.0397979 31.5645134,17.2083968 31.7808128,16.2105465 L31.7808128,16.2105465 Z" id="Fill-5"></path>
                        <polygon id="Fill-7" points="46.6851134 20.6683433 41.3207176 20.6683433 47.5334128 13.4180866 44.8246 6.78039679 50.8801401 6.78039679 51.7487176 11.0387925 54.504846 6.78039679 59.8160118 6.78039679 54.1415305 13.4180866 57.3066 20.6683433 51.1665679 20.6683433 50.0715519 15.5236267"></polygon>
                        <path d="M74.8987594,6.87730909 C75.0787273,4.84527701 73.8214866,4.09498824 72.2321925,4.09498824 C68.8651872,4.09498824 67.1770374,7.18485989 66.3963316,10.8585711 C66.1360963,12.0828599 65.085016,17.1498439 69.4017112,17.1498439 C72.3521711,17.1498439 73.1168235,15.0071273 73.3939572,14.2264214 L79.1825027,14.2264214 C77.8162674,20.5219187 71.3044706,21.0491487 68.6852193,21.0491487 C66.7351444,21.0491487 63.3554652,20.7170952 61.6233797,18.3758225 C59.9234011,16.0387743 60.2123636,12.8373733 60.6534118,10.7478866 C61.2414759,7.99091337 62.4657647,5.23478503 64.8171765,3.08784385 C67.3755936,0.751640642 70.1511551,0.139918717 73.0737326,0.139918717 C76.3308984,0.139918717 78.6434439,0.920624599 79.874492,2.59103102 C81.1215936,4.31635722 80.7650374,6.12702032 80.6366096,6.87730909 L74.8987594,6.87730909 Z" id="Fill-9"></path>
                        <polygon id="Fill-11" points="83.507985 0.557816043 88.7422631 0.557816043 84.4720385 20.6593027 79.2352257 20.6593027"></polygon>
                        <path d="M92.8598952,16.9577936 C93.2477134,18.0164781 94.1813497,18.069708 94.6536599,18.069708 C96.9374781,18.069708 97.9099807,15.5932481 98.3239914,13.6423283 C98.8385476,11.2199433 98.686462,9.18875615 96.5995102,9.18875615 C94.2869647,9.18875615 93.3398096,11.5553765 92.8945369,13.6423283 C92.7002053,14.5616011 92.4932,15.9253016 92.8598952,16.9577936 M97.2332,6.2061893 C101.771264,6.2061893 104.82227,8.49338717 103.769499,13.4505316 C103.335211,15.4825636 102.312858,17.5399433 100.55627,18.9889807 C99.1435636,20.1313123 97.2348898,20.9922856 94.368077,20.9922856 C91.2773604,20.9922856 89.4303658,20.2419968 88.3463337,18.9349059 C87.0561412,17.4030663 87.1085262,15.3161144 87.4735316,13.6161358 C88.3826652,9.32816791 91.693061,6.2061893 97.2332,6.2061893" id="Fill-13"></path>
                        <path d="M111.832653,6.68348449 L110.099723,14.8403401 C109.933274,15.6193561 109.515883,17.5685861 111.606215,17.5685861 C113.806386,17.5685861 114.232226,15.5661262 114.395295,14.7837305 L116.118087,6.68348449 L121.354899,6.68348449 L118.897028,18.2394524 C118.699317,19.4333241 118.669744,19.5761155 118.466964,20.6593027 L113.316333,20.6593027 L113.667819,18.4870139 C111.76675,20.7454845 109.979744,20.9102439 108.750386,20.9102439 C103.906461,20.9102439 104.383841,17.2348428 104.949937,14.5615166 L106.624568,6.68348449 L111.832653,6.68348449 Z" id="Fill-15"></path>
                        <path d="M132.049641,13.6160513 C132.546453,11.2790032 132.183138,9.44045775 130.346282,9.44045775 C128.008389,9.44045775 127.070528,12.3917626 126.796774,13.7005433 C126.511191,15.0372064 126.179983,17.9023294 128.489994,17.9023294 C130.385994,17.9023294 131.538464,16.0088642 132.049641,13.6160513 L132.049641,13.6160513 Z M140.000336,0.557816043 L136.470261,17.1790781 C136.22101,18.3484471 136.031748,19.4890888 135.868678,20.6593027 L130.910689,20.6593027 L131.239363,18.6010781 C130.511887,19.4079765 129.089042,20.9922011 125.996635,20.9922011 C121.179748,20.9922011 120.644913,17.0945861 121.372389,13.6701262 C122.004389,10.6934738 123.108699,9.29935615 124.273844,8.27108877 C125.84624,6.90654332 127.516646,6.37677861 129.272389,6.37677861 C131.609437,6.37677861 132.407887,7.35181604 133.117619,8.32600856 L134.767748,0.557816043 L140.000336,0.557816043 Z" id="Fill-17"></path>
                    </g>
                </g>
            </g>
        </g>
    </g>
</svg>