<svg width="24" height="24" viewBox="0 0 24 24" fill="none" xmlns="http://www.w3.org/2000/svg">
<path d="M4 14.8929C4 16.6671 5.44 18.1071 7.21429 18.1071C7.89571 18.1071 8.51286 17.9014 9.04 17.5414L9.01429 17.7857C9.01429 19.56 10.4543 21 12.2286 21C14.0029 21 15.4429 19.56 15.4429 17.7857L15.4171 17.5414C15.9314 17.9014 16.5614 18.1071 17.2429 18.1071C19.0171 18.1071 20.4571 16.6671 20.4571 14.8929C20.4571 13.6071 19.6986 12.5143 18.6186 12C19.6986 11.4857 20.4571 10.3929 20.4571 9.10714C20.4571 7.33286 19.0171 5.89286 17.2429 5.89286C16.5614 5.89286 15.9443 6.09857 15.4171 6.45857L15.4429 6.21429C15.4429 4.44 14.0029 3 12.2286 3C10.4543 3 9.01429 4.44 9.01429 6.21429L9.04 6.45857C8.52571 6.09857 7.89571 5.89286 7.21429 5.89286C5.44 5.89286 4 7.33286 4 9.10714C4 10.3929 4.75857 11.4857 5.83857 12C4.75857 12.5143 4 13.6071 4 14.8929V14.8929Z" stroke="#222222" stroke-width="1.38" stroke-linejoin="round"/>
<path d="M12.2284 9.47564C13.6217 9.47564 14.7527 10.6067 14.7527 11.9999H16.1327C16.1327 9.84457 14.3838 8.09564 12.2284 8.09564V9.47564ZM14.7527 11.9999C14.7527 13.3931 13.6217 14.5242 12.2284 14.5242V15.9042C14.3838 15.9042 16.1327 14.1553 16.1327 11.9999H14.7527ZM12.2284 14.5242C10.8352 14.5242 9.70416 13.3931 9.70416 11.9999H8.32416C8.32416 14.1553 10.0731 15.9042 12.2284 15.9042V14.5242ZM9.70416 11.9999C9.70416 10.6067 10.8352 9.47564 12.2284 9.47564V8.09564C10.0731 8.09564 8.32416 9.84457 8.32416 11.9999H9.70416Z" fill="#222222"/>
</svg>
