<svg width="24" height="24" viewBox="0 0 24 24" fill="none" xmlns="http://www.w3.org/2000/svg">
<path fill-rule="evenodd" clip-rule="evenodd" d="M7.63619 1.36353C8.08806 1.36353 8.45437 1.72984 8.45437 2.18171V3.27262L15.5453 3.27262V2.18171C15.5453 1.72984 15.9116 1.36353 16.3635 1.36353C16.8153 1.36353 17.1816 1.72984 17.1816 2.18171V3.27262H18.5453C20.3528 3.27262 21.818 4.73787 21.818 6.54534V18.5453C21.818 20.3528 20.3528 21.8181 18.5453 21.8181H5.45437C3.64689 21.8181 2.18164 20.3528 2.18164 18.5453V6.54534C2.18164 4.73787 3.64689 3.27262 5.45437 3.27262L6.818 3.27262V2.18171C6.818 1.72984 7.18432 1.36353 7.63619 1.36353ZM5.45437 4.90898H18.5453C19.449 4.90898 20.1816 5.64161 20.1816 6.54534V18.5453C20.1816 19.4491 19.449 20.1817 18.5453 20.1817H5.45437C4.55063 20.1817 3.818 19.4491 3.818 18.5453V6.54534C3.818 5.64161 4.55063 4.90898 5.45437 4.90898Z" fill="#222222"/>
<path fill-rule="evenodd" clip-rule="evenodd" d="M8.01762 12.1479C8.33479 11.8815 8.80788 11.9227 9.0743 12.2398L10.8629 14.3691L14.9517 9.98826C15.2344 9.68545 15.7089 9.66908 16.0118 9.95171C16.3146 10.2343 16.3309 10.7089 16.0483 11.0117L11.3816 16.0117C11.2351 16.1687 11.0284 16.2554 10.8138 16.2497C10.5991 16.2441 10.3972 16.1468 10.2591 15.9824L7.92574 13.2046C7.65932 12.8875 7.70046 12.4144 8.01762 12.1479Z" fill="#222222"/>
</svg>
