<svg width="24" height="24" viewBox="0 0 24 24" fill="none" xmlns="http://www.w3.org/2000/svg">
<path fill-rule="evenodd" clip-rule="evenodd" d="M10.75 13C13.5114 13 15.75 10.7614 15.75 8C15.75 5.23858 13.5114 3 10.75 3C7.98858 3 5.75 5.23858 5.75 8C5.75 10.7614 7.98858 13 10.75 13Z" fill="#222222"/>
<path d="M19 9C19.4142 9 19.75 9.33579 19.75 9.75V11H21C21.4142 11 21.75 11.3358 21.75 11.75C21.75 12.1642 21.4142 12.5 21 12.5H19.75V13.75C19.75 14.1642 19.4142 14.5 19 14.5C18.5858 14.5 18.25 14.1642 18.25 13.75V12.5H17C16.5858 12.5 16.25 12.1642 16.25 11.75C16.25 11.3358 16.5858 11 17 11L18.25 11V9.75C18.25 9.33579 18.5858 9 19 9Z" fill="#222222"/>
<path d="M2 20C2 17.1005 4.35051 14.75 7.25 14.75H14.25C17.1495 14.75 19.5 17.1005 19.5 20V20.5C19.5 21.0523 19.0523 21.5 18.5 21.5H3C2.44772 21.5 2 21.0523 2 20.5V20Z" fill="#222222"/>
</svg>
