<svg width="24" height="24" viewBox="0 0 24 24" fill="none" xmlns="http://www.w3.org/2000/svg">
<path fill-rule="evenodd" clip-rule="evenodd" d="M10.75 11.5C12.683 11.5 14.25 9.933 14.25 8C14.25 6.067 12.683 4.5 10.75 4.5C8.81703 4.5 7.25003 6.067 7.25003 8C7.25003 9.933 8.81703 11.5 10.75 11.5ZM10.75 13C13.5115 13 15.75 10.7614 15.75 8C15.75 5.23858 13.5115 3 10.75 3C7.9886 3 5.75003 5.23858 5.75003 8C5.75003 10.7614 7.9886 13 10.75 13ZM2 20.5C2 17.6005 4.35053 14.75 7.25003 14.75H14.25C17.1495 14.75 19.5 17.6005 19.5 20.5C19.5 20.9142 19.1642 21.25 18.75 21.25C18.3358 21.25 18 20.9142 18 20.5C18 18.4289 16.3211 16.25 14.25 16.25H7.25003C5.17896 16.25 3.5 18.4289 3.5 20.5C3.5 20.9142 3.16421 21.25 2.75 21.25C2.33579 21.25 2 20.9142 2 20.5ZM19 9C19.4142 9 19.75 9.33579 19.75 9.75V11H21C21.4142 11 21.75 11.3358 21.75 11.75C21.75 12.1642 21.4142 12.5 21 12.5H19.75V13.75C19.75 14.1642 19.4142 14.5 19 14.5C18.5858 14.5 18.25 14.1642 18.25 13.75V12.5H17C16.5858 12.5 16.25 12.1642 16.25 11.75C16.25 11.3358 16.5858 11 17 11L18.25 11V9.75C18.25 9.33579 18.5858 9 19 9Z" fill="#222222"/>
</svg>
