<svg width="24" height="24" viewBox="0 0 24 24" fill="none" xmlns="http://www.w3.org/2000/svg">
<path fill-rule="evenodd" clip-rule="evenodd" d="M12 2C6.48 2 2 6.48 2 12C2 17.52 6.48 22 12 22C17.52 22 22 17.52 22 12C22 6.48 17.52 2 12 2ZM12 10.9C11.39 10.9 10.9 11.39 10.9 12C10.9 12.61 11.39 13.1 12 13.1C12.61 13.1 13.1 12.61 13.1 12C13.1 11.39 12.61 10.9 12 10.9ZM7.1556 15.5159C6.76219 16.3616 7.63841 17.2378 8.48409 16.8444L13.8591 14.344C14.0728 14.2445 14.2445 14.0728 14.344 13.8591L16.8444 8.48409C17.2378 7.63841 16.3616 6.76219 15.5159 7.1556L10.1409 9.65604C9.92721 9.75547 9.75547 9.92721 9.65604 10.1409L7.1556 15.5159Z" fill="#222222"/>
</svg>
