<svg width="24" height="24" viewBox="0 0 24 24" fill="none" xmlns="http://www.w3.org/2000/svg">
<path d="M10 18C10 19.1046 10.8954 20 12 20C13.1046 20 14 19.1046 14 18V6C14 4.89543 13.1046 4 12 4C10.8954 4 10 4.89543 10 6V18Z" fill="#222222"/>
<path d="M4 18C4 19.1046 4.89543 20 6 20C7.10457 20 8 19.1046 8 18V14C8 12.8954 7.10457 12 6 12C4.89543 12 4 12.8954 4 14V18Z" fill="#222222"/>
<path d="M18 9C16.8954 9 16 9.89543 16 11V18C16 19.1046 16.8954 20 18 20C19.1046 20 20 19.1046 20 18V11C20 9.89543 19.1046 9 18 9Z" fill="#222222"/>
</svg>
