<svg width="24" height="24" viewBox="0 0 24 24" fill="none" xmlns="http://www.w3.org/2000/svg">
<path fill-rule="evenodd" clip-rule="evenodd" d="M12 3.30005C10.5089 3.30005 9.30005 4.50888 9.30005 6.00005V18C9.30005 19.4912 10.5089 20.7001 12 20.7001C13.4912 20.7001 14.7001 19.4912 14.7001 18V6.00005C14.7001 4.50888 13.4912 3.30005 12 3.30005ZM10.7 6.00005C10.7 5.28208 11.2821 4.70005 12 4.70005C12.718 4.70005 13.3 5.28208 13.3 6.00005V18C13.3 18.718 12.718 19.3 12 19.3C11.2821 19.3 10.7 18.718 10.7 18V6.00005Z" fill="#222222"/>
<path fill-rule="evenodd" clip-rule="evenodd" d="M18 8.30005C16.5089 8.30005 15.3 9.50888 15.3 11V18C15.3 19.4912 16.5089 20.7001 18 20.7001C19.4912 20.7001 20.7001 19.4912 20.7001 18V11C20.7001 9.50888 19.4912 8.30005 18 8.30005ZM16.7001 11C16.7001 10.2821 17.2821 9.70005 18 9.70005C18.718 9.70005 19.3 10.2821 19.3 11V18C19.3 18.718 18.718 19.3 18 19.3C17.2821 19.3 16.7001 18.718 16.7001 18V11Z" fill="#222222"/>
<path fill-rule="evenodd" clip-rule="evenodd" d="M6.00005 11.3C4.50888 11.3 3.30005 12.5089 3.30005 14V18C3.30005 19.4912 4.50888 20.7001 6.00005 20.7001C7.49122 20.7001 8.70005 19.4912 8.70005 18V14C8.70005 12.5089 7.49122 11.3 6.00005 11.3ZM4.70005 14C4.70005 13.2821 5.28208 12.7001 6.00005 12.7001C6.71802 12.7001 7.30005 13.2821 7.30005 14V18C7.30005 18.718 6.71802 19.3 6.00005 19.3C5.28208 19.3 4.70005 18.718 4.70005 18V14Z" fill="#222222"/>
</svg>
