<svg width="24" height="24" viewBox="0 0 24 24" fill="none" xmlns="http://www.w3.org/2000/svg">
<path fill-rule="evenodd" clip-rule="evenodd" d="M5.10213 4.43626C5.8841 3.52465 7.02568 3 8.22724 3H20.9816C22.6486 3 24 4.35037 24 6.01613V16.9839C24 18.6496 22.6486 20 20.9816 20H8.22724C7.02568 20 5.8841 19.4753 5.10214 18.5637L0.726661 13.4629C-0.24222 12.3334 -0.242221 10.6666 0.726661 9.53713L5.10213 4.43626ZM10.2343 7.68884C10.5467 7.37642 11.0533 7.37642 11.3657 7.68884L14 10.3232L16.6343 7.68884C16.9467 7.37642 17.4533 7.37642 17.7657 7.68884C18.0781 8.00126 18.0781 8.50779 17.7657 8.82021L15.1314 11.4545L17.7657 14.0888C18.0781 14.4013 18.0781 14.9078 17.7657 15.2202C17.4533 15.5326 16.9467 15.5326 16.6343 15.2202L14 12.5859L11.3657 15.2202C11.0533 15.5326 10.5467 15.5326 10.2343 15.2202C9.9219 14.9078 9.9219 14.4013 10.2343 14.0888L12.8686 11.4545L10.2343 8.82021C9.9219 8.50779 9.9219 8.00126 10.2343 7.68884Z" fill="#222222"/>
</svg>
