<svg width="24" height="24" viewBox="0 0 24 24" fill="none" xmlns="http://www.w3.org/2000/svg">
<path fill-rule="evenodd" clip-rule="evenodd" d="M4.31726 10.5625C4.31726 6.38585 7.70311 3 11.8798 3C16.0564 3 19.4423 6.38585 19.4423 10.5625V16.5208H20.1875C20.5672 16.5208 20.875 16.8286 20.875 17.2083C20.875 17.588 20.5672 17.8958 20.1875 17.8958H3.6875C3.3078 17.8958 3 17.588 3 17.2083C3 16.8286 3.3078 16.5208 3.6875 16.5208H4.31726V10.5625ZM18.0673 10.5625V16.5208H5.69226V10.5625C5.69226 7.14524 8.4625 4.375 11.8798 4.375C15.297 4.375 18.0673 7.14524 18.0673 10.5625Z" fill="#222222"/>
<path d="M8.27083 19.7292C7.89114 19.7292 7.58333 20.037 7.58333 20.4167C7.58333 20.7964 7.89114 21.1042 8.27083 21.1042H15.6042C15.9839 21.1042 16.2917 20.7964 16.2917 20.4167C16.2917 20.037 15.9839 19.7292 15.6042 19.7292H8.27083Z" fill="#222222"/>
</svg>
