<svg width="24" height="24" viewBox="0 0 24 24" fill="none" xmlns="http://www.w3.org/2000/svg">
<path fill-rule="evenodd" clip-rule="evenodd" d="M8.5 3.87012H18.5C19.3284 3.87012 20 4.54169 20 5.37012V15.3701C20 16.1985 19.3284 16.8701 18.5 16.8701H18.061L12.9846 10.4093C12.0764 9.25336 10.4196 9.01615 9.22349 9.87079L7 11.4595V5.37012C7 4.54169 7.67157 3.87012 8.5 3.87012ZM11.8051 11.336L16.1533 16.8701H8.5C7.67157 16.8701 7 16.1985 7 15.3701V13.3031L10.0955 11.0913C10.6392 10.7028 11.3923 10.8106 11.8051 11.336ZM5.5 5.37012C5.5 3.71326 6.84315 2.37012 8.5 2.37012H18.5C20.1569 2.37012 21.5 3.71326 21.5 5.37012V15.3701C21.5 17.027 20.1569 18.3701 18.5 18.3701H8.5C6.84315 18.3701 5.5 17.027 5.5 15.3701V5.37012ZM15.25 7.87012C15.25 7.4559 15.5858 7.12012 16 7.12012C16.4142 7.12012 16.75 7.4559 16.75 7.87012C16.75 8.28433 16.4142 8.62012 16 8.62012C15.5858 8.62012 15.25 8.28433 15.25 7.87012ZM16 5.62012C14.7574 5.62012 13.75 6.62748 13.75 7.87012C13.75 9.11276 14.7574 10.1201 16 10.1201C17.2426 10.1201 18.25 9.11276 18.25 7.87012C18.25 6.62748 17.2426 5.62012 16 5.62012ZM4 10.6201C4 10.2059 3.66421 9.87012 3.25 9.87012C2.83579 9.87012 2.5 10.2059 2.5 10.6201V16.6201C2.5 19.2435 4.62665 21.3701 7.25 21.3701H13.25C13.6642 21.3701 14 21.0343 14 20.6201C14 20.2059 13.6642 19.8701 13.25 19.8701H7.25C5.45507 19.8701 4 18.415 4 16.6201V10.6201Z" fill="#222222"/>
</svg>
