<svg width="24" height="24" viewBox="0 0 24 24" fill="none" xmlns="http://www.w3.org/2000/svg">
<path d="M8.0885 21.7767C8.21024 21.9098 8.38067 21.9898 8.56229 21.9991H15.4377C15.5276 21.9945 15.6158 21.9725 15.6971 21.9343C15.7784 21.8961 15.8512 21.8426 15.9115 21.7767C15.9718 21.7108 16.0183 21.6339 16.0484 21.5503C16.0785 21.4667 16.0915 21.3781 16.0869 21.2895L15.7961 15.8306V15.827C15.7915 15.746 15.84 15.6334 15.968 15.5605C17.193 14.8716 18.2112 13.8758 18.9194 12.6742C19.6275 11.4725 20.0003 10.1078 20 8.71842C20.001 7.45115 19.6914 6.20236 19.0973 5.07825C18.5033 3.95414 17.6424 2.98793 16.5879 2.26179C16.3621 2.10213 16.0936 2.01152 15.8159 2.00127C15.5382 1.99102 15.2635 2.06159 15.0263 2.20416C14.5829 2.4671 14.2857 2.95608 14.2857 3.5198V7.76388C14.2857 7.80234 14.2757 7.84017 14.2567 7.87375C14.2376 7.90732 14.2102 7.93553 14.1769 7.95569L12.1198 9.20289C12.0466 9.24792 11.9534 9.24792 11.8802 9.20289L9.82309 7.95569C9.78983 7.93553 9.76236 7.90732 9.74332 7.87375C9.72427 7.84017 9.71427 7.80234 9.71429 7.76388V3.51889C9.71429 2.95608 9.41714 2.4671 8.97463 2.20416C8.73728 2.0614 8.46246 1.99073 8.18455 2.00098C7.90664 2.01123 7.63796 2.10195 7.41212 2.26179C6.35775 2.98784 5.49695 3.9539 4.9029 5.07785C4.30885 6.2018 3.99911 7.4504 4 8.71752C3.99944 10.107 4.37204 11.4718 5.08001 12.6736C5.78797 13.8754 6.8061 14.8714 8.03109 15.5605C8.16 15.6334 8.20846 15.746 8.20297 15.827V15.8306L7.91314 21.2895C7.90369 21.4684 7.96677 21.6436 8.0885 21.7767Z" fill="#222222"/>
</svg>
