<svg width="24" height="24" viewBox="0 0 24 24" fill="none" xmlns="http://www.w3.org/2000/svg">
<path fill-rule="evenodd" clip-rule="evenodd" d="M8.22857 3.3523C8.21806 3.35626 8.2082 3.36172 8.19931 3.36851C7.32547 3.96993 6.61204 4.77032 6.11969 5.70161C5.62734 6.6329 5.37064 7.66754 5.37143 8.71752C5.37088 9.86895 5.67965 11 6.2664 11.9959C6.85314 12.9919 7.69697 13.8171 8.71223 14.388C9.23337 14.6825 9.61006 15.248 9.57257 15.9027V15.9045L9.28274 21.3597C9.27329 21.5386 9.19207 21.7065 9.05696 21.8264C8.92184 21.9463 8.74391 22.0084 8.56229 21.9991C8.38067 21.9898 8.21024 21.9098 8.0885 21.7767C7.96677 21.6436 7.90369 21.4684 7.91314 21.2895L8.20297 15.8306V15.827C8.20846 15.746 8.16 15.6334 8.03109 15.5605C6.8061 14.8714 5.78797 13.8754 5.08001 12.6736C4.37204 11.4718 3.99944 10.107 4 8.71752C3.99911 7.4504 4.30885 6.2018 4.9029 5.07785C5.49695 3.9539 6.35775 2.98784 7.41212 2.26179C7.63796 2.10195 7.90664 2.01123 8.18455 2.00098C8.46246 1.99073 8.73728 2.0614 8.97463 2.20416C9.41714 2.4671 9.71429 2.95608 9.71429 3.51889V7.76388C9.71427 7.80234 9.72427 7.84017 9.74332 7.87375C9.76236 7.90732 9.78983 7.93553 9.82309 7.95569L11.8802 9.20289C11.9534 9.24792 12.0466 9.24792 12.1198 9.20289L14.1769 7.95569C14.2102 7.93553 14.2376 7.90732 14.2567 7.87375C14.2757 7.84017 14.2857 7.80234 14.2857 7.76388V3.5198C14.2857 2.95608 14.5829 2.4671 15.0263 2.20416C15.2635 2.06159 15.5382 1.99102 15.8159 2.00127C16.0936 2.01152 16.3621 2.10213 16.5879 2.26179C17.6424 2.98793 18.5033 3.95414 19.0973 5.07825C19.6914 6.20236 20.001 7.45115 20 8.71842C20.0003 10.1078 19.6275 11.4725 18.9194 12.6742C18.2112 13.8758 17.193 14.8716 15.968 15.5605C15.84 15.6334 15.7915 15.746 15.7961 15.827V15.8306L16.0869 21.2895C16.0915 21.3781 16.0785 21.4667 16.0484 21.5503C16.0183 21.6339 15.9718 21.7108 15.9115 21.7767C15.8512 21.8426 15.7784 21.8961 15.6971 21.9343C15.6158 21.9725 15.5276 21.9945 15.4377 21.9991C15.3478 22.0037 15.2578 21.9908 15.1729 21.9612C15.0881 21.9315 15.0099 21.8857 14.943 21.8264C14.8761 21.767 14.8218 21.6952 14.783 21.6152C14.7443 21.5351 14.7219 21.4483 14.7173 21.3597L14.4274 15.9045V15.9027C14.3899 15.248 14.7657 14.6825 15.2869 14.388C16.3023 13.8172 17.1463 12.992 17.7332 11.9961C18.3201 11.0002 18.629 9.86904 18.6286 8.71752C18.6294 7.66754 18.3727 6.6329 17.8803 5.70161C17.388 4.77032 16.6745 3.96993 15.8007 3.36851C15.7918 3.36172 15.7819 3.35626 15.7714 3.3523L15.7623 3.3514C15.7595 3.3514 15.7495 3.3514 15.7339 3.36041C15.701 3.38022 15.6571 3.43155 15.6571 3.5198V7.76298C15.6571 8.03207 15.587 8.29665 15.4537 8.53152C15.3204 8.7664 15.1282 8.96373 14.8955 9.10474L12.8384 10.3519C12.5863 10.5047 12.296 10.5856 12 10.5856C11.704 10.5856 11.4137 10.5047 11.1616 10.3519L9.10446 9.10564C8.8719 8.96472 8.67982 8.76752 8.54651 8.53282C8.4132 8.29811 8.34309 8.03372 8.34286 7.76478V3.51889C8.34286 3.43064 8.29897 3.37932 8.26606 3.36041C8.25769 3.35465 8.2479 3.35123 8.23771 3.3505L8.22857 3.3514V3.3523Z" fill="#222222"/>
</svg>
