<svg width="24" height="24" viewBox="0 0 24 24" fill="none" xmlns="http://www.w3.org/2000/svg">
<path fill-rule="evenodd" clip-rule="evenodd" d="M3.625 12.2502C3.21079 12.2502 2.875 11.9145 2.875 11.5002L2.875 7.50025C2.875 5.42918 4.55393 3.75025 6.625 3.75025L11.625 3.75025C12.0392 3.75025 12.375 4.08603 12.375 4.50025C12.375 4.91446 12.0392 5.25025 11.625 5.25025L6.625 5.25025C5.38236 5.25025 4.375 6.25761 4.375 7.50025L4.375 11.5002C4.375 11.9145 4.03921 12.2502 3.625 12.2502Z" fill="#222222"/>
<path fill-rule="evenodd" clip-rule="evenodd" d="M8.625 11L8.625 19C8.625 19.8284 9.29657 20.5 10.125 20.5H18.125C18.9534 20.5 19.625 19.8284 19.625 19V11C19.625 10.1716 18.9534 9.5 18.125 9.5H10.125C9.29657 9.5 8.625 10.1716 8.625 11ZM7.125 19C7.125 20.6569 8.46815 22 10.125 22H18.125C19.7819 22 21.125 20.6569 21.125 19V11C21.125 9.34315 19.7819 8 18.125 8H10.125C8.46815 8 7.125 9.34315 7.125 11L7.125 19Z" fill="#222222"/>
<path d="M14.4448 4.15507C14.6851 4.30916 14.6851 4.69084 14.4448 4.84493L11.1711 6.945C10.929 7.10029 10.625 6.90827 10.625 6.60007V2.39993C10.625 2.09173 10.929 1.89971 11.1711 2.055L14.4448 4.15507Z" fill="#222222"/>
</svg>
