<svg width="24" height="24" viewBox="0 0 24 24" fill="none" xmlns="http://www.w3.org/2000/svg">
<path fill-rule="evenodd" clip-rule="evenodd" d="M11.7498 3.62012C11.7498 3.2059 12.0855 2.87012 12.4998 2.87012L16.4998 2.87012C18.5708 2.87012 20.2498 4.54905 20.2498 6.62012V11.6201C20.2498 12.0343 19.914 12.3701 19.4998 12.3701C19.0855 12.3701 18.7498 12.0343 18.7498 11.6201V6.62012C18.7498 5.37748 17.7424 4.37012 16.4998 4.37012L12.4998 4.37012C12.0855 4.37012 11.7498 4.03433 11.7498 3.62012Z" fill="#222222"/>
<path fill-rule="evenodd" clip-rule="evenodd" d="M13 8.62012L5 8.62012C4.17157 8.62012 3.5 9.29169 3.5 10.1201L3.5 18.1201C3.5 18.9485 4.17157 19.6201 5 19.6201H13C13.8284 19.6201 14.5 18.9485 14.5 18.1201V10.1201C14.5 9.29169 13.8284 8.62012 13 8.62012ZM5 7.12012C3.34315 7.12012 2 8.46326 2 10.1201L2 18.1201C2 19.777 3.34315 21.1201 5 21.1201H13C14.6569 21.1201 16 19.777 16 18.1201V10.1201C16 8.46326 14.6569 7.12012 13 7.12012L5 7.12012Z" fill="#222222"/>
<path d="M19.8449 14.44C19.6908 14.6802 19.3092 14.6802 19.1551 14.44L17.055 11.1662C16.8997 10.9241 17.0917 10.6201 17.3999 10.6201L21.6001 10.6201C21.9083 10.6201 22.1003 10.9241 21.945 11.1662L19.8449 14.44Z" fill="#222222"/>
</svg>
