<svg width="24" height="24" viewBox="0 0 24 24" fill="none" xmlns="http://www.w3.org/2000/svg">
<rect x="3.69" y="7.69" width="16.62" height="12.62" rx="2.31" stroke="#222222" stroke-width="1.38"/>
<path d="M4 14.3101H20V15.6901H4V14.3101Z" fill="#222222"/>
<path d="M7.31 10C7.31 10.3811 7.61892 10.69 8 10.69C8.38108 10.69 8.69 10.3811 8.69 10H7.31ZM15.31 10C15.31 10.3811 15.6189 10.69 16 10.69C16.3811 10.69 16.69 10.3811 16.69 10H15.31ZM8.69 10V6H7.31V10H8.69ZM11 3.69H13V2.31H11V3.69ZM15.31 6V10H16.69V6H15.31ZM13 3.69C14.2758 3.69 15.31 4.72422 15.31 6H16.69C16.69 3.96207 15.0379 2.31 13 2.31V3.69ZM8.69 6C8.69 4.72422 9.72422 3.69 11 3.69V2.31C8.96207 2.31 7.31 3.96207 7.31 6H8.69Z" fill="#222222"/>
</svg>
