<svg width="24" height="24" viewBox="0 0 24 24" fill="none" xmlns="http://www.w3.org/2000/svg">
<path fill-rule="evenodd" clip-rule="evenodd" d="M4.24566 6.81409C3.57857 5.68288 4.41547 4.31006 5.6913 4.31006H18.2338C19.5399 4.31006 20.3684 5.73904 19.6546 6.8679C18.7692 8.26819 17.3662 10.414 15.9889 12.2151C15.302 13.1134 14.6069 13.9454 13.9752 14.5591C13.6601 14.8653 13.3438 15.1338 13.038 15.33C12.9309 15.3987 12.8142 15.4657 12.69 15.523V19.3101H16C16.3811 19.3101 16.69 19.619 16.69 20.0001C16.69 20.3811 16.3811 20.6901 16 20.6901H8.00003C7.61895 20.6901 7.31003 20.3811 7.31003 20.0001C7.31003 19.619 7.61895 19.3101 8.00003 19.3101H11.31V15.5552C11.1571 15.4976 11.0102 15.4253 10.8714 15.3456C10.5272 15.1481 10.1814 14.8759 9.84328 14.5639C9.16696 13.9399 8.45615 13.0959 7.77186 12.1888C6.39998 10.3704 5.06863 8.20964 4.24566 6.81409ZM5.6913 5.69006C5.44593 5.69006 5.32873 5.93398 5.43436 6.1131C6.24909 7.49467 7.54913 9.60219 8.87351 11.3577C9.53735 12.2376 10.1909 13.007 10.7791 13.5496C11.0731 13.821 11.3346 14.0204 11.5582 14.1487C11.788 14.2806 11.9306 14.3101 12 14.3101L12.0011 14.3096C12.0143 14.307 12.1052 14.2889 12.2928 14.1685C12.4908 14.0415 12.7328 13.8421 13.0136 13.5693C13.5738 13.0251 14.2212 12.255 14.8927 11.3769C16.2322 9.62511 17.6092 7.52045 18.4882 6.13036C18.6053 5.94528 18.4824 5.69006 18.2338 5.69006H5.6913Z" fill="#222222"/>
<path d="M6 9H18L16.5 10.38H7.5L6 9Z" fill="#222222"/>
</svg>
