<svg width="24" height="24" viewBox="0 0 24 24" fill="none" xmlns="http://www.w3.org/2000/svg">
<path fill-rule="evenodd" clip-rule="evenodd" d="M7 13C7 14.1046 6.10457 15 5 15C3.89543 15 3 14.1046 3 13C3 11.8954 3.89543 11 5 11C6.10457 11 7 11.8954 7 13ZM14 13C14 14.1046 13.1046 15 12 15C10.8954 15 10 14.1046 10 13C10 11.8954 10.8954 11 12 11C13.1046 11 14 11.8954 14 13ZM19 15C20.1046 15 21 14.1046 21 13C21 11.8954 20.1046 11 19 11C17.8954 11 17 11.8954 17 13C17 14.1046 17.8954 15 19 15Z" fill="#222222"/>
</svg>
