<svg width="24" height="24" viewBox="0 0 24 24" fill="none" xmlns="http://www.w3.org/2000/svg">
<path fill-rule="evenodd" clip-rule="evenodd" d="M3 11.7817C3 6.93168 7.02944 3 12 3C16.9706 3 21 6.93168 21 11.7817V16.5C21 16.85 20.7092 17.1337 20.3505 17.1337C19.9918 17.1337 19.701 16.85 19.701 16.5V11.7817C19.701 7.63168 16.2532 4.26746 12 4.26746C7.74684 4.26746 4.29897 7.63168 4.29897 11.7817V16.5C4.29897 16.85 4.00818 17.1337 3.64948 17.1337C3.29078 17.1337 3 16.85 3 16.5V11.7817Z" fill="#222222"/>
<path fill-rule="evenodd" clip-rule="evenodd" d="M3 15.5426C3 13.5861 4.61178 12 6.6 12C8.58823 12 10.2 13.5861 10.2 15.5426V17.4574C10.2 19.4139 8.58823 21 6.6 21C4.61178 21 3 19.4139 3 17.4574V15.5426ZM6.6 13.3404C5.36408 13.3404 4.36216 14.3264 4.36216 15.5426V17.4574C4.36216 18.6736 5.36408 19.6596 6.6 19.6596C7.83592 19.6596 8.83784 18.6736 8.83784 17.4574V15.5426C8.83784 14.3264 7.83592 13.3404 6.6 13.3404Z" fill="#222222"/>
<path fill-rule="evenodd" clip-rule="evenodd" d="M13.8 15.5426C13.8 13.5861 15.4118 12 17.4 12C19.3883 12 21 13.5861 21 15.5426V17.4574C21 19.4139 19.3883 21 17.4 21C15.4118 21 13.8 19.4139 13.8 17.4574V15.5426ZM17.4 13.3404C16.1641 13.3404 15.1622 14.3264 15.1622 15.5426V17.4574C15.1622 18.6736 16.1641 19.6596 17.4 19.6596C18.636 19.6596 19.6379 18.6736 19.6379 17.4574V15.5426C19.6379 14.3264 18.636 13.3404 17.4 13.3404Z" fill="#222222"/>
</svg>
