<svg width="24" height="24" viewBox="0 0 24 24" fill="none" xmlns="http://www.w3.org/2000/svg">
<rect x="3.69" y="3.69" width="16.62" height="12.62" rx="2.31" stroke="#222222" stroke-width="1.38"/>
<path d="M11 10.5C11 9.94772 11.4477 9.5 12 9.5C12.5523 9.5 13 9.94772 13 10.5C13 11.0523 12.5523 11.5 12 11.5C11.4477 11.5 11 11.0523 11 10.5Z" fill="#222222"/>
<path d="M11 7C11 6.44772 11.4477 6 12 6C12.5523 6 13 6.44772 13 7C13 7.55228 12.5523 8 12 8C11.4477 8 11 7.55228 11 7Z" fill="#222222"/>
<path d="M9 10.5C9 11.0523 8.55228 11.5 8 11.5C7.44772 11.5 7 11.0523 7 10.5C7 9.94772 7.44772 9.5 8 9.5C8.55228 9.5 9 9.94772 9 10.5Z" fill="#222222"/>
<path d="M9 7C9 7.55228 8.55228 8 8 8C7.44772 8 7 7.55228 7 7C7 6.44772 7.44772 6 8 6C8.55228 6 9 6.44772 9 7Z" fill="#222222"/>
<path d="M17 10.5C17 11.0523 16.5523 11.5 16 11.5C15.4477 11.5 15 11.0523 15 10.5C15 9.94772 15.4477 9.5 16 9.5C16.5523 9.5 17 9.94772 17 10.5Z" fill="#222222"/>
<path d="M17 7C17 7.55228 16.5523 8 16 8C15.4477 8 15 7.55228 15 7C15 6.44772 15.4477 6 16 6C16.5523 6 17 6.44772 17 7Z" fill="#222222"/>
<path d="M16 13.69C16 14.0711 15.6911 14.38 15.31 14.38H8.69C8.30892 14.38 8 14.0711 8 13.69C8 13.3089 8.30892 13 8.69 13H15.31C15.6911 13 16 13.3089 16 13.69Z" fill="#222222"/>
<path d="M11.678 21.8842C11.8558 22.0386 12.1442 22.0386 12.322 21.8842L14.8657 19.6751C15.1526 19.426 14.9494 19 14.5437 19H9.4563C9.05059 19 8.84741 19.426 9.13429 19.6751L11.678 21.8842Z" fill="#222222"/>
</svg>
