<svg width="24" height="24" viewBox="0 0 24 24" fill="none" xmlns="http://www.w3.org/2000/svg">
<path fill-rule="evenodd" clip-rule="evenodd" d="M17 6.38H7C6.1053 6.38 5.38 7.1053 5.38 8V15C5.38 15.8947 6.1053 16.62 7 16.62H17C17.8947 16.62 18.62 15.8947 18.62 15V8C18.62 7.1053 17.8947 6.38 17 6.38ZM7 5C5.34315 5 4 6.34315 4 8V15C4 16.6569 5.34315 18 7 18H17C18.6569 18 20 16.6569 20 15V8C20 6.34315 18.6569 5 17 5H7Z" fill="#222222"/>
<path d="M3 18.69C3 18.3089 3.30892 18 3.69 18H20.31C20.6911 18 21 18.3089 21 18.69C21 19.0711 20.6911 19.38 20.31 19.38H3.69C3.30892 19.38 3 19.0711 3 18.69Z" fill="#222222"/>
</svg>
