<svg width="24" height="24" viewBox="0 0 24 24" fill="none" xmlns="http://www.w3.org/2000/svg">
<path fill-rule="evenodd" clip-rule="evenodd" d="M10.8261 2.01174C11.8787 1.92679 12.9124 2.30577 13.6558 3.0492L21.5471 10.9405C22.5786 11.972 22.5722 13.6506 21.5329 14.6899L14.6899 21.5329C13.6506 22.5722 11.972 22.5786 10.9405 21.5471L3.0492 13.6558C2.30577 12.9124 1.92679 11.8787 2.01174 10.8261L2.48708 4.93642C2.59234 3.63223 3.63223 2.59234 4.93642 2.48708L10.8261 2.01174ZM12.6294 4.07564C12.1833 3.62958 11.5631 3.4022 10.9316 3.45317L5.04184 3.92851C4.44903 3.97635 3.97635 4.44903 3.92851 5.04184L3.45317 10.9316C3.4022 11.5631 3.62958 12.1833 4.07564 12.6294L11.967 20.5207C12.4358 20.9895 13.1988 20.9866 13.6712 20.5142L20.5142 13.6712C20.9866 13.1988 20.9895 12.4358 20.5207 11.967L12.6294 4.07564Z" fill="#222222"/>
<path d="M8.9999 7.33789C8.9999 8.16632 8.32833 8.83789 7.4999 8.83789C6.67148 8.83789 5.9999 8.16632 5.9999 7.33789C5.9999 6.50946 6.67148 5.83789 7.4999 5.83789C8.32833 5.83789 8.9999 6.50946 8.9999 7.33789Z" fill="#222222"/>
</svg>
