<svg width="24" height="24" viewBox="0 0 24 24" fill="none" xmlns="http://www.w3.org/2000/svg">
<path fill-rule="evenodd" clip-rule="evenodd" d="M19.9999 18.8441C19.9999 20.03 18.6745 20.7601 17.6377 20.1454L16.5475 19.4991C16.4324 19.4309 16.2842 19.4506 16.1919 19.5464L15.4656 20.2999C14.9339 20.8515 14.0681 20.9362 13.4352 20.4985L11.9929 19.5009C11.8865 19.4273 11.7428 19.4335 11.6435 19.516L10.6411 20.3479C9.99718 20.8823 9.0349 20.8167 8.47301 20.2L7.88562 19.5554C7.79505 19.456 7.64531 19.433 7.52796 19.5005L6.34415 20.181C5.30699 20.7772 4 20.0458 4 18.8691L4.00011 4.93366C4.00011 3.74781 5.3255 3.01767 6.36234 3.63235L7.45253 4.27865C7.56761 4.34688 7.71579 4.3272 7.80811 4.23142L8.53444 3.47788C9.06614 2.92626 9.93189 2.84158 10.5648 3.27929L12.0071 4.27689C12.1135 4.35044 12.2572 4.34424 12.3565 4.26181L13.3589 3.4299C14.0028 2.89546 14.9651 2.96107 15.527 3.57773L16.1144 4.22238C16.205 4.32178 16.3547 4.34478 16.472 4.27731L17.6559 3.59678C18.693 3.00055 20 3.73199 20 4.90865L19.9999 18.8441ZM5.27042 18.8691C5.27042 19.085 5.51016 19.2191 5.70041 19.1098L6.88422 18.4292C7.524 18.0614 8.34031 18.1868 8.83405 18.7287L9.42144 19.3733C9.52451 19.4864 9.70102 19.4985 9.81914 19.4004L10.8215 18.5685C11.3629 18.1192 12.1466 18.0854 12.7264 18.4864L14.1687 19.484C14.2848 19.5642 14.4436 19.5487 14.5412 19.4475L15.2675 18.694C15.7708 18.1719 16.5786 18.0646 17.206 18.4365L18.2962 19.0828C18.4864 19.1956 18.7295 19.0616 18.7295 18.8441L18.7296 4.90865C18.7296 4.69281 18.4898 4.55864 18.2996 4.66801L17.1158 5.34855C16.476 5.71633 15.6597 5.59097 15.166 5.0491L14.5786 4.40445C14.4755 4.29133 14.299 4.2793 14.1809 4.37733L13.1785 5.20924C12.6371 5.65858 11.8534 5.69239 11.2736 5.29142L9.83125 4.29382C9.71517 4.21353 9.55636 4.22906 9.45883 4.33025L8.73249 5.08379C8.22923 5.60591 7.42142 5.7132 6.79402 5.34126L5.70384 4.69496C5.51365 4.58221 5.27053 4.71614 5.27053 4.93366L5.27042 18.8691Z" fill="#222222"/>
<path fill-rule="evenodd" clip-rule="evenodd" d="M7 9.69C7 9.30892 7.36631 9 7.81818 9H14.5455C14.9973 9 15.3636 9.30892 15.3636 9.69C15.3636 10.0711 14.9973 10.38 14.5455 10.38H7.81818C7.36631 10.38 7 10.0711 7 9.69Z" fill="#222222"/>
<path fill-rule="evenodd" clip-rule="evenodd" d="M7 13.3961C7 13.015 7.36631 12.7061 7.81818 12.7061H11.2727C11.7246 12.7061 12.0909 13.015 12.0909 13.3961C12.0909 13.7771 11.7246 14.0861 11.2727 14.0861L7.81818 14.0861C7.36631 14.0861 7 13.7771 7 13.3961Z" fill="#222222"/>
</svg>
