<svg width="24" height="24" viewBox="0 0 24 24" fill="none" xmlns="http://www.w3.org/2000/svg">
<rect x="2.69" y="7.69" width="18.62" height="9.62" rx="2.31" stroke="#222222" stroke-width="1.38"/>
<path d="M6.58984 9.42682C6.58984 9.04574 6.89877 8.73682 7.27984 8.73682C7.66092 8.73682 7.96984 9.04574 7.96984 9.42682V11.0468C7.96984 11.4279 7.66092 11.7368 7.27984 11.7368C6.89877 11.7368 6.58984 11.4279 6.58984 11.0468V9.42682Z" fill="#222222"/>
<path d="M9.58984 9.42682C9.58984 9.04574 9.89877 8.73682 10.2798 8.73682C10.6609 8.73682 10.9698 9.04574 10.9698 9.42682V11.0468C10.9698 11.4279 10.6609 11.7368 10.2798 11.7368C9.89877 11.7368 9.58984 11.4279 9.58984 11.0468V9.42682Z" fill="#222222"/>
<path d="M12.5898 9.42682C12.5898 9.04574 12.8988 8.73682 13.2798 8.73682C13.6609 8.73682 13.9698 9.04574 13.9698 9.42682V11.0468C13.9698 11.4279 13.6609 11.7368 13.2798 11.7368C12.8988 11.7368 12.5898 11.4279 12.5898 11.0468V9.42682Z" fill="#222222"/>
<path d="M15.6201 9.45563C15.6201 9.07455 15.929 8.76562 16.3101 8.76562C16.6912 8.76562 17.0001 9.07455 17.0001 9.45562V11.0756C17.0001 11.4567 16.6912 11.7656 16.3101 11.7656C15.929 11.7656 15.6201 11.4567 15.6201 11.0756V9.45563Z" fill="#222222"/>
</svg>
