<svg width="24" height="24" viewBox="0 0 24 24" fill="none" xmlns="http://www.w3.org/2000/svg">
<path d="M21 9H21.69C21.69 8.74941 21.5541 8.51853 21.3351 8.39683L21 9ZM6 10.6667L6.33509 10.0635H6.33509L6 10.6667ZM18 10.6667L17.6649 10.0635L18 10.6667ZM20.31 18C20.31 18.3811 20.6189 18.69 21 18.69C21.3811 18.69 21.69 18.3811 21.69 18H20.31ZM17.0543 15.8644L16.6906 15.2781L17.0543 15.8644ZM12.9985 18.3806L12.6347 17.7942L12.9985 18.3806ZM4.57348 9.87416L4.23839 10.4773L4.57348 9.87416ZM12.9713 4.5396L12.6362 5.14277L12.9713 4.5396ZM7.02871 16.2382L7.36381 15.635L7.02871 16.2382ZM12.9713 13.4604L12.6362 12.8572L12.9713 13.4604ZM21.3351 8.39683L13.3064 3.93644L12.6362 5.14277L20.6649 9.60317L21.3351 8.39683ZM10.6936 3.93643L4.23839 7.52267L4.90858 8.72901L11.3638 5.14277L10.6936 3.93643ZM4.23839 10.4773L5.66491 11.2698L6.33509 10.0635L4.90858 9.27099L4.23839 10.4773ZM5.66491 11.2698L10.6936 14.0636L11.3638 12.8572L6.33509 10.0635L5.66491 11.2698ZM5.31 10.6667V14.4899H6.69V10.6667H5.31ZM6.69362 16.8413L10.6378 19.0325L11.308 17.8262L7.36381 15.635L6.69362 16.8413ZM13.3622 18.9669L17.4181 16.4508L16.6906 15.2781L12.6347 17.7942L13.3622 18.9669ZM13.3064 14.0636L18.3351 11.2698L17.6649 10.0635L12.6362 12.8572L13.3064 14.0636ZM18.3351 11.2698L21.3351 9.60317L20.6649 8.39683L17.6649 10.0635L18.3351 11.2698ZM18.69 14.1649V10.6667H17.31V14.1649H18.69ZM20.31 9V18H21.69V9H20.31ZM17.4181 16.4508C18.2089 15.9602 18.69 15.0956 18.69 14.1649H17.31C17.31 14.6181 17.0757 15.0392 16.6906 15.2781L17.4181 16.4508ZM10.6378 19.0325C11.4906 19.5063 12.5332 19.4812 13.3622 18.9669L12.6347 17.7942C12.231 18.0447 11.7233 18.0569 11.308 17.8262L10.6378 19.0325ZM4.23839 7.52267C3.07937 8.16657 3.07937 9.83343 4.23839 10.4773L4.90858 9.27099C4.69598 9.15288 4.69598 8.84712 4.90858 8.72901L4.23839 7.52267ZM13.3064 3.93644C12.4939 3.48508 11.5061 3.48508 10.6936 3.93643L11.3638 5.14277C11.7595 4.92297 12.2405 4.92297 12.6362 5.14277L13.3064 3.93644ZM5.31 14.4899C5.31 15.4668 5.83964 16.3669 6.69362 16.8413L7.36381 15.635C6.94793 15.404 6.69 14.9656 6.69 14.4899H5.31ZM10.6936 14.0636C11.5061 14.5149 12.4939 14.5149 13.3064 14.0636L12.6362 12.8572C12.2405 13.077 11.7595 13.077 11.3638 12.8572L10.6936 14.0636Z" fill="#222222"/>
</svg>
