<svg width="24" height="24" viewBox="0 0 24 24" fill="none" xmlns="http://www.w3.org/2000/svg">
<path fill-rule="evenodd" clip-rule="evenodd" d="M11.0185 14.9816V18.6842H12.4553V14.9816H16.158C17.1652 14.9816 17.9817 14.1651 17.9817 13.1579V10.9474H16.5448V13.1579C16.5448 13.3715 16.3716 13.5447 16.158 13.5447H12.4553V4.5H11.0185V13.5447H7.31587C7.10222 13.5447 6.92903 13.3715 6.92903 13.1579V10.3947H5.49219V13.1579C5.49219 14.1651 6.30868 14.9816 7.31587 14.9816H11.0185Z" fill="#222222"/>
<path fill-rule="evenodd" clip-rule="evenodd" d="M11.7369 20.5633C12.1642 20.5633 12.5106 20.2169 12.5106 19.7896C12.5106 19.3623 12.1642 19.0159 11.7369 19.0159C11.3096 19.0159 10.9632 19.3623 10.9632 19.7896C10.9632 20.2169 11.3096 20.5633 11.7369 20.5633ZM11.7369 22.0002C12.9577 22.0002 13.9474 21.0105 13.9474 19.7896C13.9474 18.5688 12.9577 17.5791 11.7369 17.5791C10.5161 17.5791 9.52637 18.5688 9.52637 19.7896C9.52637 21.0105 10.5161 22.0002 11.7369 22.0002Z" fill="#222222"/>
<path fill-rule="evenodd" clip-rule="evenodd" d="M6.21053 9.51058C6.63782 9.51058 6.98421 9.16419 6.98421 8.73689C6.98421 8.3096 6.63782 7.96321 6.21053 7.96321C5.78323 7.96321 5.43684 8.3096 5.43684 8.73689C5.43684 9.16419 5.78323 9.51058 6.21053 9.51058ZM6.21053 10.9474C7.43136 10.9474 8.42105 9.95773 8.42105 8.73689C8.42105 7.51605 7.43136 6.52637 6.21053 6.52637C4.98969 6.52637 4 7.51605 4 8.73689C4 9.95773 4.98969 10.9474 6.21053 10.9474Z" fill="#222222"/>
<path fill-rule="evenodd" clip-rule="evenodd" d="M16.4896 7.96321V9.51058H18.0369V7.96321H16.4896ZM16.158 6.52637C15.5476 6.52637 15.0527 7.02121 15.0527 7.63163V9.84215C15.0527 10.4526 15.5476 10.9474 16.158 10.9474H18.3685C18.9789 10.9474 19.4738 10.4526 19.4738 9.84215V7.63163C19.4738 7.02121 18.9789 6.52637 18.3685 6.52637H16.158Z" fill="#222222"/>
<path d="M11.5 2.13827C11.6257 1.95391 11.9399 1.95391 12.0656 2.13827L13.9491 4.90098C14.0748 5.08534 13.9177 5.31579 13.6663 5.31579H9.8993C9.64792 5.31579 9.49081 5.08534 9.6165 4.90098L11.5 2.13827Z" fill="#222222"/>
</svg>
