<svg width="24" height="24" viewBox="0 0 24 24" fill="none" xmlns="http://www.w3.org/2000/svg">
<path fill-rule="evenodd" clip-rule="evenodd" d="M15.8181 7.63637C15.8181 9.74509 14.1087 11.4546 12 11.4546C9.89123 11.4546 8.18177 9.74509 8.18177 7.63637C8.18177 5.52765 9.89123 3.81819 12 3.81819C14.1087 3.81819 15.8181 5.52765 15.8181 7.63637ZM17.4545 7.63637C17.4545 10.6488 15.0124 13.0909 12 13.0909C8.98749 13.0909 6.54541 10.6488 6.54541 7.63637C6.54541 4.62391 8.98749 2.18182 12 2.18182C15.0124 2.18182 17.4545 4.62391 17.4545 7.63637ZM7.09104 15C3.92796 15 1.36377 17.5642 1.36377 20.7273C1.36377 21.1791 1.73008 21.5455 2.18195 21.5455C2.63382 21.5455 3.00013 21.1791 3.00013 20.7273C3.00013 18.4679 4.8317 16.6364 7.09104 16.6364H16.9092C19.1686 16.6364 21.0001 18.4679 21.0001 20.7273C21.0001 21.1791 21.3664 21.5455 21.8183 21.5455C22.2702 21.5455 22.6365 21.1791 22.6365 20.7273C22.6365 17.5642 20.0723 15 16.9092 15H7.09104Z" fill="#222222"/>
</svg>
