<svg width="24" height="24" viewBox="0 0 24 24" fill="none" xmlns="http://www.w3.org/2000/svg">
<path fill-rule="evenodd" clip-rule="evenodd" d="M2 12C2 17.5222 6.47675 22 12 22C17.5222 22 22 17.5222 22 12C22 6.47784 17.5222 2 12 2C6.47675 2 2 6.47784 2 12ZM10.9998 7.95834C10.9998 7.40605 11.4475 6.95833 11.9998 6.95833C12.5521 6.95833 12.9998 7.40605 12.9998 7.95834C12.9998 8.51062 12.5521 8.95834 11.9998 8.95834C11.4475 8.95834 10.9998 8.51062 10.9998 7.95834ZM11.9999 10.1667C11.4937 10.1667 11.0833 10.5771 11.0833 11.0833L11.0833 16.5833C11.0833 17.0896 11.4937 17.5 11.9999 17.5C12.5062 17.5 12.9166 17.0896 12.9166 16.5833V11.0833C12.9166 10.5771 12.5062 10.1667 11.9999 10.1667Z" fill="#222222"/>
</svg>
