<svg width="24" height="24" viewBox="0 0 24 24" fill="none" xmlns="http://www.w3.org/2000/svg">
<path fill-rule="evenodd" clip-rule="evenodd" d="M12 20.5C7.30529 20.5 3.5 16.6938 3.5 12C3.5 7.30616 7.30529 3.5 12 3.5C16.6937 3.5 20.5 7.30627 20.5 12C20.5 16.6937 16.6937 20.5 12 20.5ZM12 22C6.47675 22 2 17.5222 2 12C2 6.47784 6.47675 2 12 2C17.5222 2 22 6.47784 22 12C22 17.5222 17.5222 22 12 22ZM11.083 11.0833C11.083 10.5771 11.4934 10.1667 11.9997 10.1667C12.5059 10.1667 12.9163 10.5771 12.9163 11.0833L12.9163 16.5833C12.9163 17.0896 12.5059 17.5 11.9997 17.5C11.4934 17.5 11.083 17.0896 11.083 16.5833L11.083 11.0833ZM11 7.95834C11 7.40605 11.4477 6.95834 12 6.95834C12.5523 6.95834 13 7.40605 13 7.95834C13 8.51062 12.5523 8.95834 12 8.95834C11.4477 8.95834 11 8.51062 11 7.95834Z" fill="#222222"/>
</svg>
