<svg width="24" height="24" viewBox="0 0 24 24" fill="none" xmlns="http://www.w3.org/2000/svg">
<path d="M4.64014 2C2.98328 2 1.64014 3.34315 1.64014 5V17C1.64014 17.929 2.06241 18.7594 2.72549 19.3097C2.69424 19.0055 2.70943 18.69 2.7777 18.3714L4.49199 10.3714C4.78839 8.9882 6.01078 8 7.42539 8H21.2892C21.4082 8 21.5253 8.00683 21.6401 8.0201V8C21.6401 6.34315 20.297 5 18.6401 5H14.6401C14.6401 3.34315 13.297 2 11.6401 2H4.64014Z" fill="#222222"/>
<path d="M8.94243 9.59998C7.56582 9.59998 6.36587 10.5369 6.032 11.8724L4.532 17.8724C4.05864 19.7658 5.49071 21.6 7.44243 21.6H19.2578C20.6344 21.6 21.8343 20.6631 22.1682 19.3276L23.6682 13.3276C24.1416 11.4341 22.7095 9.59998 20.7578 9.59998H8.94243Z" fill="#222222"/>
</svg>
