<svg width="24" height="24" viewBox="0 0 24 24" fill="none" xmlns="http://www.w3.org/2000/svg">
<path fill-rule="evenodd" clip-rule="evenodd" d="M22.2768 22C23.0446 22 23.526 21.1705 23.145 20.5039L12.8682 2.51942C12.4843 1.84761 11.5156 1.84761 11.1317 2.51943L0.854914 20.5039C0.473968 21.1705 0.955334 22 1.72316 22H22.2768ZM11.9999 9C12.4518 9 12.8181 9.36631 12.8181 9.81818V14.3636C12.8181 14.8155 12.4518 15.1818 11.9999 15.1818C11.548 15.1818 11.1817 14.8155 11.1817 14.3636V9.81818C11.1817 9.36631 11.548 9 11.9999 9ZM12 18.5C12.6025 18.5 13.0909 18.0116 13.0909 17.4091C13.0909 16.8066 12.6025 16.3182 12 16.3182C11.3975 16.3182 10.9091 16.8066 10.9091 17.4091C10.9091 18.0116 11.3975 18.5 12 18.5Z" fill="#222222"/>
</svg>
