<svg width="24" height="24" viewBox="0 0 24 24" fill="none" xmlns="http://www.w3.org/2000/svg">
<path d="M14.8002 12.0002C14.8002 10.4538 13.5466 9.2002 12.0002 9.2002C10.4538 9.2002 9.2002 10.4538 9.2002 12.0002C9.2002 13.5466 10.4538 14.8002 12.0002 14.8002C13.5466 14.8002 14.8002 13.5466 14.8002 12.0002Z" fill="#222222"/>
<path d="M19 7.51055V12C19 15.866 15.866 19 12 19C8.13401 19 5 15.866 5 12C5 9.32262 6.50313 6.99632 8.71153 5.81894C9.21968 5.54803 9.7858 5.95201 9.7858 6.52787C9.7858 6.85986 9.58793 7.1559 9.30054 7.32211C7.68618 8.25571 6.6 10.001 6.6 12C6.6 14.9823 9.01766 17.4 12 17.4C14.9823 17.4 17.4 14.9823 17.4 12V7.55211C17.399 7.53406 17.3986 7.51584 17.3986 7.49748L17.3986 4.52071L14.5222 6.77781C14.1693 7.06008 13.6545 7.00285 13.3722 6.64999C13.0899 6.29713 13.1471 5.78225 13.5 5.49999L17.6343 2.17927C17.9331 1.94023 18.3577 1.94024 18.6565 2.17931L22.763 5.50006C23.1158 5.78235 23.173 6.29723 22.8907 6.65007C22.6084 7.00291 22.0936 7.0601 21.7407 6.77781L19.0002 4.5203L19.0001 7.49748C19.0001 7.50184 19.0001 7.5062 19 7.51055Z" fill="#222222"/>
</svg>
