<svg width="24" height="24" viewBox="0 0 24 24" fill="none" xmlns="http://www.w3.org/2000/svg">
<path fill-rule="evenodd" clip-rule="evenodd" d="M18 4.5H6C5.17157 4.5 4.5 5.17157 4.5 6V13.5424L7.64266 11.4049C8.81689 10.6062 10.4061 10.833 11.3101 11.9282L17.5598 19.5H18C18.8284 19.5 19.5 18.8284 19.5 18V6C19.5 5.17157 18.8284 4.5 18 4.5ZM15.6149 19.5L10.1533 12.8831C9.74238 12.3852 9.02 12.2822 8.48626 12.6452L4.5 15.3565V18C4.5 18.8284 5.17157 19.5 6 19.5H15.6149ZM6 3C4.34315 3 3 4.34315 3 6V18C3 19.6569 4.34315 21 6 21H18C19.6569 21 21 19.6569 21 18V6C21 4.34315 19.6569 3 18 3H6ZM15 7.75C14.3096 7.75 13.75 8.30964 13.75 9C13.75 9.69036 14.3096 10.25 15 10.25C15.6904 10.25 16.25 9.69036 16.25 9C16.25 8.30964 15.6904 7.75 15 7.75ZM12.25 9C12.25 7.48122 13.4812 6.25 15 6.25C16.5188 6.25 17.75 7.48122 17.75 9C17.75 10.5188 16.5188 11.75 15 11.75C13.4812 11.75 12.25 10.5188 12.25 9Z" fill="#222222"/>
</svg>
