<svg width="16" height="16" viewBox="0 0 16 16" fill="none" xmlns="http://www.w3.org/2000/svg">
<circle cx="8.00065" cy="8.00001" r="6.66667" fill="#BDBDBD"/>
<path fill-rule="evenodd" clip-rule="evenodd" d="M10.3535 6.35355C10.5488 6.15829 10.5488 5.84171 10.3535 5.64645C10.1583 5.45118 9.84168 5.45118 9.64641 5.64645L7.99989 7.29297L6.35343 5.64651C6.15817 5.45125 5.84159 5.45125 5.64632 5.64651C5.45106 5.84177 5.45106 6.15835 5.64632 6.35362L7.29278 8.00008L5.6464 9.64646C5.45114 9.84172 5.45114 10.1583 5.6464 10.3536C5.84166 10.5488 6.15824 10.5488 6.35351 10.3536L7.99989 8.70718L9.64634 10.3536C9.8416 10.5489 10.1582 10.5489 10.3534 10.3536C10.5487 10.1584 10.5487 9.84179 10.3534 9.64652L8.707 8.00008L10.3535 6.35355Z" fill="white"/>
</svg>
