<svg width="11" height="9" viewBox="0 0 11 9" fill="none" xmlns="http://www.w3.org/2000/svg">
<path d="M9.9 0.996094C9.592 0.996094 9.317 1.12181 9.119 1.32752L4.4 6.24181L1.881 3.61324C1.683 3.40752 1.408 3.28181 1.1 3.28181C0.495 3.28181 0 3.79609 0 4.42467C0 4.74467 0.121 5.03038 0.319 5.23609L3.619 8.66467C3.817 8.87038 4.092 8.99609 4.4 8.99609C4.708 8.99609 4.983 8.87038 5.181 8.66467L10.681 2.95038C10.879 2.74467 11 2.45895 11 2.13895C11 1.51038 10.505 0.996094 9.9 0.996094Z" fill="white"/>
</svg>
