<svg width="24" height="24" viewBox="0 0 24 24" fill="none" xmlns="http://www.w3.org/2000/svg">
<path fill-rule="evenodd" clip-rule="evenodd" d="M12 3C7.032 3 3 7.032 3 12C3 16.968 7.032 21 12 21C16.968 21 21 16.968 21 12C21 7.032 16.968 3 12 3ZM11.1 19.137C7.545 18.696 4.8 15.672 4.8 12C4.8 11.442 4.872 10.911 4.989 10.389L9.3 14.7V15.6C9.3 16.59 10.11 17.4 11.1 17.4V19.137ZM15.6 15.6C16.41 15.6 17.076 16.122 17.31 16.851C18.48 15.573 19.2 13.872 19.2 12C19.2 8.98504 17.337 6.40204 14.7 5.33104V5.70004C14.7 6.69004 13.89 7.50004 12.9 7.50004H11.1V9.30004C11.1 9.79504 10.695 10.2 10.2 10.2H8.4V12H13.8C14.295 12 14.7 12.405 14.7 12.9V15.6H15.6Z" fill="#222222"/>
</svg>
