<svg width="24" height="24" viewBox="0 0 24 24" fill="none" xmlns="http://www.w3.org/2000/svg">
<path fill-rule="evenodd" clip-rule="evenodd" d="M10.1583 4.43402C10.8786 2.85532 13.1214 2.85533 13.8417 4.43402L15.6353 8.36466L19.566 10.1583C21.1447 10.8786 21.1447 13.1214 19.566 13.8417L15.6353 15.6353L13.8417 19.566C13.1214 21.1447 10.8786 21.1447 10.1583 19.566L8.36466 15.6353L4.43402 13.8417C2.85532 13.1214 2.85533 10.8786 4.43402 10.1583L8.36466 8.36466L10.1583 4.43402ZM12.4771 5.05672C12.2905 4.64776 11.7095 4.64776 11.5229 5.05672L9.49683 9.49683L5.05672 11.5229C4.64776 11.7095 4.64776 12.2905 5.05672 12.4771L9.49683 14.5032L11.5229 18.9433C11.7095 19.3522 12.2905 19.3522 12.4771 18.9433L14.5032 14.5032L18.9433 12.4771C19.3522 12.2905 19.3522 11.7095 18.9433 11.5229L14.5032 9.49683L12.4771 5.05672Z" fill="#222222"/>
</svg>
