<svg width="24" height="24" viewBox="0 0 24 24" fill="none" xmlns="http://www.w3.org/2000/svg">
<path d="M23.2079 8.79193C17.018 2.60308 6.98188 2.603 0.792905 8.79198C0.460959 9.12392 0.460959 9.66211 0.792905 9.99406C1.12485 10.326 1.66304 10.326 1.99499 9.99406C7.52001 4.46903 16.4799 4.46896 22.006 9.99411C22.3379 10.326 22.8761 10.326 23.208 9.99401C23.54 9.66203 23.5399 9.12384 23.2079 8.79193Z" fill="#222222"/>
<path d="M19.672 12.328C15.4351 8.09107 8.56483 8.09096 4.32883 12.3281C3.99692 12.66 3.99699 13.1982 4.32898 13.5301C4.66097 13.862 5.19916 13.862 5.53106 13.53C9.10306 9.95707 14.8968 9.95696 18.4699 13.5301C18.8018 13.862 19.34 13.862 19.672 13.5301C20.0039 13.1981 20.0039 12.6599 19.672 12.328Z" fill="#222222"/>
<path d="M11.9999 13.9432C10.3159 13.9432 8.70077 14.6122 7.50992 15.803C7.17797 16.1349 7.17795 16.6731 7.50989 17.005C7.84183 17.337 8.38002 17.337 8.71197 17.0051C9.58401 16.1331 10.7667 15.6432 11.9999 15.6432C13.2332 15.6432 14.4159 16.1331 15.2879 17.0051C15.6199 17.337 16.1581 17.337 16.49 17.005C16.8219 16.6731 16.8219 16.1349 16.49 15.803C15.2991 14.6122 13.684 13.9432 11.9999 13.9432Z" fill="#222222"/>
<path d="M11.9999 19.15C11.5305 19.15 11.1499 19.5306 11.1499 20C11.1499 20.4695 11.5305 20.85 11.9999 20.85H12.0099C12.4794 20.85 12.8599 20.4695 12.8599 20C12.8599 19.5306 12.4794 19.15 12.0099 19.15H11.9999Z" fill="#222222"/>
</svg>
