<svg width="24" height="24" viewBox="0 0 24 24" fill="none" xmlns="http://www.w3.org/2000/svg">
<path d="M11.2656 8.75C11.2656 8.33579 11.6014 8 12.0156 8C12.4298 8 12.7656 8.33579 12.7656 8.75V17.25C12.7656 17.6642 12.4298 18 12.0156 18C11.6014 18 11.2656 17.6642 11.2656 17.25V8.75Z" fill="#222222"/>
<path fill-rule="evenodd" clip-rule="evenodd" d="M23.2079 8.79187C17.018 2.60302 6.98188 2.60294 0.792905 8.79192C0.460959 9.12386 0.460959 9.66205 0.792905 9.994C1.12485 10.3259 1.66304 10.3259 1.99499 9.994C7.52001 4.46897 16.4799 4.4689 22.006 9.99405C22.3379 10.326 22.8761 10.3259 23.208 9.99395C23.54 9.66197 23.5399 9.12378 23.2079 8.79187ZM9 9.5712V11.3538C7.73283 11.7925 6.54294 12.5178 5.53106 13.5299C5.19916 13.8619 4.66097 13.862 4.32898 13.5301C3.99699 13.1982 3.99692 12.66 4.32883 12.328C5.67579 10.9807 7.28941 10.0617 9 9.5712ZM15 16.7403C15.0993 16.8242 15.1953 16.9124 15.2879 17.005C15.6199 17.337 16.1581 17.3369 16.49 17.005C16.8219 16.673 16.8219 16.1348 16.49 15.8029C16.0461 15.3591 15.5433 14.9877 15 14.6965V16.7403ZM15 11.3537C16.2674 11.7924 17.4576 12.5177 18.4699 13.53C18.8018 13.8619 19.34 13.8619 19.672 13.53C20.0039 13.1981 20.0039 12.6599 19.672 12.3279C18.3247 10.9806 16.7108 10.0616 15 9.57114V11.3537ZM9 14.6964V16.7403C8.90069 16.8241 8.80458 16.9124 8.71197 17.005C8.38002 17.337 7.84183 17.3369 7.50989 17.005C7.17795 16.673 7.17796 16.1348 7.50992 15.8029C7.9538 15.359 8.45663 14.9877 9 14.6964ZM11.9999 19.15C11.5305 19.15 11.1499 19.5305 11.1499 20C11.1499 20.4694 11.5305 20.85 11.9999 20.85H12.0099C12.4794 20.85 12.8599 20.4694 12.8599 20C12.8599 19.5305 12.4794 19.15 12.0099 19.15H11.9999Z" fill="#222222"/>
</svg>
