<svg width="24" height="24" viewBox="0 0 24 24" fill="none" xmlns="http://www.w3.org/2000/svg">
<path fill-rule="evenodd" clip-rule="evenodd" d="M19 7.99989C19.5523 7.99989 20 8.4476 20 8.99989C20 9.55217 19.5523 9.99989 19 9.99989H17.91C17.96 10.3299 18 10.6599 18 10.9999V11.9999H19C19.5523 11.9999 20 12.4476 20 12.9999C20 13.5522 19.5523 13.9999 19 13.9999H18V14.9999C18 15.3399 17.96 15.6699 17.91 15.9999H19C19.5523 15.9999 20 16.4476 20 16.9999C20 17.5522 19.5523 17.9999 19 17.9999H17.19C16.15 19.7899 14.22 20.9999 12 20.9999C9.78 20.9999 7.85 19.7899 6.81 17.9999H5C4.44772 17.9999 4 17.5522 4 16.9999C4 16.4476 4.44772 15.9999 5 15.9999H6.09C6.04 15.6699 6 15.3399 6 14.9999V13.9999H5C4.44772 13.9999 4 13.5522 4 12.9999C4 12.4476 4.44772 11.9999 5 11.9999H6V10.9999C6 10.6599 6.04 10.3299 6.09 9.99989H5C4.44772 9.99989 4 9.55217 4 8.99989C4 8.4476 4.44772 7.99989 5 7.99989H6.81C7.26 7.21989 7.88 6.54989 8.62 6.03989L7.70255 5.11678C7.31419 4.72602 7.31517 4.09472 7.70473 3.70516C8.0945 3.31539 8.72622 3.31466 9.11689 3.70354L10.59 5.16989C11.04 5.05989 11.51 4.99989 12 4.99989C12.49 4.99989 12.96 5.05989 13.42 5.16989L14.885 3.70489C15.2744 3.31552 15.9056 3.31552 16.295 3.70489C16.6844 4.09425 16.6844 4.72552 16.295 5.11489L15.37 6.03989C16.12 6.54989 16.74 7.21989 17.19 7.99989H19ZM13.25 11.4999C13.6642 11.4999 14 11.1641 14 10.7499C14 10.3357 13.6642 9.99989 13.25 9.99989H10.75C10.3358 9.99989 10 10.3357 10 10.7499C10 11.1641 10.3358 11.4999 10.75 11.4999H13.25ZM13.25 15.9999C13.6642 15.9999 14 15.6641 14 15.2499C14 14.8357 13.6642 14.4999 13.25 14.4999H10.75C10.3358 14.4999 10 14.8357 10 15.2499C10 15.6641 10.3358 15.9999 10.75 15.9999H13.25Z" fill="#222222"/>
</svg>
