<svg width="24" height="24" viewBox="0 0 24 24" fill="none" xmlns="http://www.w3.org/2000/svg">
<path fill-rule="evenodd" clip-rule="evenodd" d="M4.31726 14.5625C4.31726 10.3858 7.70311 7 11.8798 7C16.0564 7 19.4423 10.3858 19.4423 14.5625V20.5208H20.1875C20.5672 20.5208 20.875 20.8286 20.875 21.2083C20.875 21.588 20.5672 21.8958 20.1875 21.8958H3.6875C3.3078 21.8958 3 21.588 3 21.2083C3 20.8286 3.3078 20.5208 3.6875 20.5208H4.31726V14.5625ZM18.0673 14.5625V20.5208H5.69226V14.5625C5.69226 11.1452 8.4625 8.375 11.8798 8.375C15.297 8.375 18.0673 11.1452 18.0673 14.5625Z" fill="#222222"/>
<path fill-rule="evenodd" clip-rule="evenodd" d="M10.308 9.79194C10.6519 9.67001 11.0565 9.82182 11.201 10.1695C11.3503 10.5287 11.1477 10.9107 10.7961 11.0354C10.3168 11.2054 9.88076 11.455 9.50693 11.7663C8.66664 12.4661 8.14559 13.4721 8.14559 14.5864C8.14559 14.9712 7.8141 15.25 7.4478 15.25C7.0815 15.25 6.75 14.9712 6.75 14.5864C6.75 13.0659 7.46355 11.7035 8.58722 10.7678C9.08717 10.3514 9.66926 10.0185 10.308 9.79194Z" fill="#222222"/>
<path d="M11.5 5.25C11.9142 5.25 12.25 4.91421 12.25 4.5L12.25 2.5C12.25 2.08579 11.9142 1.75 11.5 1.75C11.0858 1.75 10.75 2.08579 10.75 2.5V4.5C10.75 4.91421 11.0858 5.25 11.5 5.25Z" fill="#222222"/>
<path d="M16.308 7.0646C16.6667 7.2717 17.1254 7.1488 17.3325 6.79008L18.3325 5.05803C18.5396 4.69931 18.4167 4.24062 18.058 4.03351C17.6992 3.8264 17.2406 3.94931 17.0334 4.30803L16.0334 6.04008C15.8263 6.3988 15.9492 6.85749 16.308 7.0646Z" fill="#222222"/>
<path d="M6.65169 6.94454C6.94458 6.65164 6.94458 6.17677 6.65169 5.88387L5.23747 4.46966C4.94458 4.17677 4.46971 4.17677 4.17681 4.46966C3.88392 4.76255 3.88392 5.23743 4.17681 5.53032L5.59103 6.94454C5.88392 7.23743 6.35879 7.23743 6.65169 6.94454Z" fill="#222222"/>
</svg>
