<svg width="24" height="24" viewBox="0 0 24 24" fill="none" xmlns="http://www.w3.org/2000/svg">
<path fill-rule="evenodd" clip-rule="evenodd" d="M13.1109 3.11111C13.1109 2.49746 12.6134 2 11.9998 2C11.3861 2 10.8887 2.49746 10.8887 3.11111V10.8888H3.11111C2.49746 10.8888 2 11.3863 2 11.9999C2 12.6136 2.49746 13.111 3.11111 13.111H10.8887V20.8889C10.8887 21.5025 11.3861 22 11.9998 22C12.6134 22 13.1109 21.5025 13.1109 20.8889V13.111H20.8889C21.5025 13.111 22 12.6136 22 11.9999C22 11.3863 21.5025 10.8888 20.8889 10.8888H13.1109V3.11111Z" fill="#222222"/>
</svg>
