<svg width="24" height="24" viewBox="0 0 24 24" fill="none" xmlns="http://www.w3.org/2000/svg">
<path fill-rule="evenodd" clip-rule="evenodd" d="M11.2456 2H18C19.1 2 20 2.9 20 4V20C20 21.1 19.1 22 18 22H6C4.9 22 4 21.1 4 20L4.01794 9.23678C4.01926 8.4446 4.33385 7.6851 4.89308 7.124L9.12072 2.88222C9.68361 2.31745 10.4482 2 11.2456 2ZM11 4C10.4477 4 10 4.44772 10 5V7C10 7.55228 10.4477 8 11 8C11.5523 8 12 7.55228 12 7V5C12 4.44772 11.5523 4 11 4ZM13 5C13 4.44772 13.4477 4 14 4C14.5523 4 15 4.44772 15 5V7C15 7.55228 14.5523 8 14 8C13.4477 8 13 7.55228 13 7V5ZM17 4C16.4477 4 16 4.44772 16 5V7C16 7.55228 16.4477 8 17 8C17.5523 8 18 7.55228 18 7V5C18 4.44772 17.5523 4 17 4Z" fill="#222222"/>
</svg>
