<svg width="48" height="48" viewBox="0 0 48 48" fill="none" xmlns="http://www.w3.org/2000/svg">
<path opacity="0.3" d="M8 24C8 32.14 14.12 38.88 22 39.86V8.14001C14.12 9.12001 8 15.86 8 24ZM26 39.86C33.22 38.96 38.96 33.22 39.86 26H26V39.86ZM26 8.14001V22H39.86C38.96 14.78 33.22 9.04001 26 8.14001Z" fill="white"/>
<path d="M24 4C12.96 4 4 12.96 4 24C4 35.04 12.96 44 24 44C35.04 44 44 35.04 44 24C44 12.96 35.04 4 24 4ZM22 39.86C14.12 38.88 8 32.14 8 24C8 15.86 14.12 9.12 22 8.14V39.86ZM26 39.86V26H39.86C38.96 33.22 33.22 38.96 26 39.86ZM26 22V8.14C33.22 9.04 38.96 14.78 39.86 22H26Z" fill="white"/>
</svg>
