<svg width="24" height="24" viewBox="0 0 24 24" fill="none" xmlns="http://www.w3.org/2000/svg">
<path fill-rule="evenodd" clip-rule="evenodd" d="M15.995 19.1609C14.2716 20.1224 12.2592 20.4302 10.3272 20.0276C8.39514 19.6251 6.6731 18.5393 5.4771 16.9695C4.28109 15.3997 3.69135 13.4512 3.81612 11.4816C3.84405 11.0407 3.50924 10.6606 3.0683 10.6326C2.62735 10.6047 2.24725 10.9395 2.21932 11.3805C2.07021 13.7343 2.77502 16.063 4.20439 17.9391C5.63376 19.8152 7.6918 21.1129 10.0008 21.594C12.3098 22.0751 14.7148 21.7073 16.7745 20.5581C18.8342 19.409 20.4104 17.5555 21.2137 15.338C22.0171 13.1204 21.9937 10.6875 21.148 8.48581C20.3022 6.28409 18.6907 4.46125 16.6094 3.35184C14.528 2.24243 12.1163 1.92088 9.81698 2.4462C8.30943 2.79063 6.91648 3.48395 5.74327 4.45701L4.59953 3.58632C4.33306 3.38347 3.96695 3.51993 3.94188 3.83144L3.60286 8.04406C3.57799 8.35316 3.90798 8.60437 4.19931 8.49811L8.16967 7.04991C8.46326 6.94282 8.49734 6.55358 8.23087 6.35074L7.05701 5.45712C7.97457 4.76399 9.03491 4.2661 10.1733 4.00601C12.0973 3.56645 14.1152 3.8355 15.8568 4.76379C17.5983 5.69207 18.9467 7.2173 19.6544 9.05956C20.3621 10.9018 20.3816 12.9375 19.7094 14.793C19.0372 16.6485 17.7184 18.1993 15.995 19.1609Z" fill="#222222"/>
</svg>
