<svg width="24" height="24" viewBox="0 0 24 24" fill="none" xmlns="http://www.w3.org/2000/svg">
<mask id="path-1-inside-1_25520_18160" fill="white">
<path d="M4.19939 8.49811C3.90807 8.60437 3.57807 8.35316 3.60295 8.04406L3.94196 3.83144C3.96703 3.51993 4.33315 3.38347 4.59961 3.58632L5.81854 4.51425L7.01206 5.42283L8.23096 6.35074C8.49742 6.55359 8.46335 6.94282 8.16975 7.04991L4.19939 8.49811Z"/>
</mask>
<path d="M4.19939 8.49811C3.90807 8.60437 3.57807 8.35316 3.60295 8.04406L3.94196 3.83144C3.96703 3.51993 4.33315 3.38347 4.59961 3.58632L5.81854 4.51425L7.01206 5.42283L8.23096 6.35074C8.49742 6.55359 8.46335 6.94282 8.16975 7.04991L4.19939 8.49811Z" fill="#222222"/>
<path d="M3.60295 8.04406L4.59973 8.12427L3.60295 8.04406ZM4.19939 8.49811L4.54206 9.43756L4.54206 9.43756L4.19939 8.49811ZM3.94196 3.83144L4.93874 3.91166L4.93874 3.91166L3.94196 3.83144ZM4.59961 3.58632L5.20533 2.79065L5.20533 2.79065L4.59961 3.58632ZM5.81854 4.51425L5.21282 5.30993L5.21282 5.30993L5.81854 4.51425ZM8.23096 6.35074L8.83668 5.55506L8.83668 5.55506L8.23096 6.35074ZM7.01206 5.42283L6.40634 6.21851L6.40634 6.21851L7.01206 5.42283ZM8.16975 7.04991L7.82709 6.11045L7.82709 6.11045L8.16975 7.04991ZM2.60617 7.96384C2.52284 8.99937 3.56609 9.79355 4.54206 9.43756L3.85672 7.55865C4.07977 7.4773 4.27712 7.54652 4.38832 7.63117C4.49951 7.71581 4.61877 7.88762 4.59973 8.12427L2.60617 7.96384ZM2.94519 3.75123L2.60617 7.96384L4.59973 8.12427L4.93874 3.91166L2.94519 3.75123ZM5.20533 2.79065C4.80207 2.48366 4.28396 2.41015 3.83101 2.57897C3.36796 2.75156 2.99127 3.17861 2.94519 3.75123L4.93874 3.91166C4.91773 4.17277 4.73663 4.37583 4.52952 4.45303C4.33251 4.52645 4.13069 4.48614 3.99389 4.382L5.20533 2.79065ZM6.42426 3.71857L5.20533 2.79065L3.99389 4.382L5.21282 5.30993L6.42426 3.71857ZM8.83668 5.55506L7.61778 4.62715L6.40634 6.21851L7.62524 7.14641L8.83668 5.55506ZM8.51242 7.98936C9.05211 7.79251 9.36347 7.31573 9.40657 6.82344C9.44872 6.3419 9.23994 5.86205 8.83668 5.55506L7.62524 7.14641C7.48844 7.04227 7.39585 6.85847 7.41419 6.64903C7.43346 6.42884 7.58099 6.20022 7.82709 6.11045L8.51242 7.98936ZM4.54206 9.43756L8.51242 7.98936L7.82709 6.11045L3.85672 7.55865L4.54206 9.43756ZM7.61778 4.62715L6.42426 3.71857L5.21282 5.30993L6.40634 6.21851L7.61778 4.62715Z" fill="#222222" mask="url(#path-1-inside-1_25520_18160)"/>
<path fill-rule="evenodd" clip-rule="evenodd" d="M11.5806 20.1893C11.1616 20.1679 10.7426 20.1142 10.3274 20.0276C8.39538 19.6251 6.67335 18.5393 5.47734 16.9695C4.28134 15.3997 3.6916 13.4512 3.81637 11.4816C3.8443 11.0407 3.50949 10.6606 3.06854 10.6326C2.6276 10.6047 2.2475 10.9395 2.21957 11.3805C2.07046 13.7343 2.77526 16.063 4.20464 17.9391C5.63401 19.8152 7.69205 21.1129 10.001 21.594C10.8646 21.7739 11.7415 21.8351 12.6088 21.7811C12.193 21.3065 11.8452 20.7708 11.5806 20.1893ZM20.1892 11.5807C20.1454 10.724 19.9671 9.87295 19.6546 9.05956C18.9469 7.2173 17.5986 5.69207 15.857 4.76379C14.1154 3.8355 12.0975 3.56645 10.1736 4.00601C8.24966 4.44556 6.54879 5.56424 5.38314 7.15672C5.12217 7.51324 4.6216 7.59071 4.26508 7.32975C3.90855 7.06878 3.83109 6.56821 4.09205 6.21168C5.48514 4.30847 7.51789 2.97152 9.81723 2.4462C12.1166 1.92088 14.5282 2.24243 16.6096 3.35184C18.691 4.46125 20.3024 6.28409 21.1482 8.48581C21.6565 9.80898 21.8677 11.2156 21.781 12.6089C21.3064 12.1931 20.7707 11.8453 20.1892 11.5807Z" fill="#222222"/>
<path fill-rule="evenodd" clip-rule="evenodd" d="M17.5 12.5C20.2614 12.5 22.5 14.7386 22.5 17.5C22.5 20.2614 20.2614 22.5 17.5 22.5C14.7386 22.5 12.5 20.2614 12.5 17.5C12.5 14.7386 14.7386 12.5 17.5 12.5ZM15.833 17.1845C15.6763 16.9894 15.398 16.964 15.2114 17.128C15.0249 17.2919 15.0007 17.5831 15.1574 17.7783L16.5299 19.4877C16.6112 19.5888 16.7299 19.6487 16.8562 19.6522C16.9825 19.6556 17.1041 19.6023 17.1903 19.5057L19.9353 16.4288C20.1016 16.2424 20.092 15.9504 19.9138 15.7765C19.7357 15.6025 19.4566 15.6126 19.2903 15.799L16.8851 18.4949L15.833 17.1845Z" fill="#00D97E"/>
</svg>
