<svg width="24" height="24" viewBox="0 0 24 24" fill="none" xmlns="http://www.w3.org/2000/svg">
<path d="M11.5594 4C9.01744 4 6.89881 4.42498 5.41027 4.99481C4.66677 5.27942 4.07411 5.6026 3.66392 5.93201C3.4499 6.10389 3.29029 6.27318 3.18116 6.43825C3.07489 6.59899 3 6.78134 3 6.9709C3 7.16041 3.07486 7.34261 3.18124 7.50318C3.29044 7.668 3.4501 7.83684 3.66414 8.00814C4.07438 8.33644 4.66707 8.65812 5.41054 8.94124C6.89904 9.50807 9.01758 9.93007 11.5594 9.93007C14.1013 9.93007 16.2199 9.50807 17.7084 8.94124C18.4518 8.65812 19.0445 8.33644 19.4548 8.00814C19.6688 7.83684 19.8285 7.668 19.9377 7.50318C20.044 7.3426 20.1189 7.16041 20.1189 6.9709C20.1189 6.78134 20.044 6.59899 19.9377 6.43825C19.8286 6.27318 19.669 6.10389 19.455 5.93201C19.0448 5.6026 18.4521 5.27942 17.7086 4.99481C16.2201 4.42498 14.1015 4 11.5594 4Z" fill="#222222"/>
<path d="M3.63989 9.33849C3.50123 9.2725 3.33841 9.2822 3.20857 9.3642C3.07873 9.4462 3 9.58904 3 9.74261V12C3 12.3645 3.25914 12.7315 3.66202 13.0648C4.07218 13.4041 4.66494 13.7372 5.40869 14.0305C6.74003 14.5556 8.57518 14.9613 10.7663 15.0413C10.8008 14.9287 10.8488 14.8178 10.9114 14.7106L11.9044 12.9927C12.2907 12.3079 13.1112 12.0396 13.8134 12.3144L13.8242 12.3186L14.2654 12.4958L14.3319 12.0324C14.4398 11.236 15.1247 10.7 15.8647 10.7H17.8647C18.6046 10.7 19.2895 11.236 19.3975 12.0323L19.3977 12.0337L19.464 12.4959L19.9298 12.3088L19.9454 12.3033C19.988 12.2878 20.0314 12.2743 20.0756 12.2627C20.1039 12.1753 20.1189 12.0876 20.1189 12V9.74261C20.1189 9.58904 20.0402 9.4462 19.9103 9.3642C19.7805 9.2822 19.6177 9.2725 19.479 9.33849C17.0051 10.5159 14.2992 11.0851 11.5736 10.9988C11.5642 10.9985 11.5547 10.9985 11.5453 10.9988C8.81969 11.0851 6.11377 10.5159 3.63989 9.33849Z" fill="#222222"/>
<path d="M10.7745 15.9626C10.8675 16.2514 11.0444 16.5122 11.2891 16.7054L11.6659 17L11.2939 17.2909L11.2891 17.2947C10.6658 17.7868 10.5493 18.6267 10.8934 19.2575L10.8993 19.2684L11.3214 19.9987C8.88466 19.9726 6.8512 19.5468 5.40897 18.981C4.66524 18.6892 4.07245 18.3577 3.66224 18.0195C3.25928 17.6873 3 17.321 3 16.9564V14.6886C3 14.5348 3.07899 14.3917 3.20917 14.3098C3.33935 14.2279 3.50248 14.2186 3.64116 14.2851C5.87913 15.3589 8.31035 15.93 10.7745 15.9626Z" fill="#222222"/>
<path fill-rule="evenodd" clip-rule="evenodd" d="M20.5053 17C20.5053 17.17 20.4903 17.33 20.4703 17.49L21.5253 18.315C21.6203 18.39 21.6453 18.525 21.5853 18.635L20.5853 20.365C20.5253 20.475 20.3953 20.52 20.2803 20.475L19.0353 19.975C18.7753 20.17 18.4953 20.34 18.1903 20.465L18.0003 21.79C17.9853 21.91 17.8803 22 17.7553 22H15.7553C15.6303 22 15.5253 21.91 15.5103 21.79L15.3203 20.465C15.0153 20.34 14.7353 20.175 14.4753 19.975L13.2303 20.475C13.1203 20.515 12.9853 20.475 12.9253 20.365L11.9253 18.635C11.8653 18.525 11.8903 18.39 11.9853 18.315L13.0403 17.49C13.0203 17.33 13.0053 17.165 13.0053 17C13.0053 16.835 13.0203 16.67 13.0403 16.51L11.9853 15.685C11.8903 15.61 11.8603 15.475 11.9253 15.365L12.9253 13.635C12.9853 13.525 13.1153 13.48 13.2303 13.525L14.4753 14.025C14.7353 13.83 15.0153 13.66 15.3203 13.535L15.5103 12.21C15.5253 12.09 15.6303 12 15.7553 12H17.7553C17.8803 12 17.9853 12.09 18.0003 12.21L18.1903 13.535C18.4953 13.66 18.7753 13.825 19.0353 14.025L20.2803 13.525C20.3903 13.485 20.5253 13.525 20.5853 13.635L21.5853 15.365C21.6453 15.475 21.6203 15.61 21.5253 15.685L20.4703 16.51C20.4903 16.67 20.5053 16.83 20.5053 17ZM15.0053 17C15.0053 17.965 15.7903 18.75 16.7553 18.75C17.7203 18.75 18.5053 17.965 18.5053 17C18.5053 16.035 17.7203 15.25 16.7553 15.25C15.7903 15.25 15.0053 16.035 15.0053 17Z" fill="#222222"/>
</svg>
