<svg width="24" height="24" viewBox="0 0 24 24" fill="none" xmlns="http://www.w3.org/2000/svg">
<path fill-rule="evenodd" clip-rule="evenodd" d="M2.56554 3.56571C2.87796 3.25329 3.39194 3.26074 3.71355 3.58235L7.20264 7.07013L8.95378 8.82258C8.95401 8.82237 8.95356 8.8228 8.95378 8.82258L9.94473 9.81222C9.94451 9.81243 9.94496 9.81201 9.94473 9.81222L14.187 14.0558C14.1872 14.0556 14.1868 14.0561 14.187 14.0558L15.1779 15.0454C15.1777 15.0457 15.1782 15.0452 15.1779 15.0454L16.9693 16.8381L20.0489 19.9177C20.3705 20.2393 20.3779 20.7533 20.0655 21.0657C19.7531 21.3781 19.2391 21.3707 18.9175 21.0491L16.4857 18.6172C15.1027 19.1862 13.5881 19.5 11.9998 19.5C7.8413 19.5 4.18772 17.3487 2.08046 14.0989C1.25378 12.824 1.25378 11.176 2.08046 9.90112C2.81663 8.76581 3.74152 7.76456 4.81073 6.94227L2.58218 4.71372C2.26057 4.39211 2.25312 3.87813 2.56554 3.56571ZM12.7694 14.9009L9.09897 11.2305C9.0343 11.476 8.99985 11.7339 8.99985 12C8.99985 13.66 10.3399 15 11.9999 15C12.266 15 12.5239 14.9656 12.7694 14.9009ZM8.00953 10.1411C7.74661 10.7055 7.59985 11.3354 7.59985 12C7.59985 14.4332 9.56666 16.4 11.9999 16.4C12.6645 16.4 13.2943 16.2533 13.8588 15.9904L15.4 17.5315C14.3343 17.9 13.1904 18.1 11.9998 18.1C8.33677 18.1 5.11594 16.207 3.25512 13.3372C2.72889 12.5257 2.72889 11.4743 3.25512 10.6628C3.93851 9.6089 4.80532 8.68672 5.81011 7.94165L8.00953 10.1411Z" fill="#222222"/>
<path d="M18.6541 15.6932C19.463 15.0194 20.1689 14.2251 20.7446 13.3372C21.2708 12.5257 21.2708 11.4743 20.7446 10.6628C18.8838 7.79308 15.6629 5.90002 11.9998 5.90002C11.0418 5.90002 10.1141 6.0295 9.23301 6.27207L8.11541 5.15447C9.33179 4.73048 10.6388 4.50002 11.9998 4.50002C16.1584 4.50002 19.812 6.65134 21.9192 9.90112C22.7459 11.176 22.7459 12.824 21.9192 14.0989C21.2905 15.0686 20.524 15.9405 19.6476 16.6866L18.6541 15.6932Z" fill="#222222"/>
<path d="M14.9999 12L14.9996 12.0387L16.2182 13.2573C16.3364 12.859 16.3999 12.4371 16.3999 12C16.3999 9.56683 14.4331 7.60003 11.9999 7.60003C11.5628 7.60003 11.1409 7.66348 10.7426 7.78168L11.9612 9.00027L11.9999 9.00003C13.6599 9.00003 14.9999 10.34 14.9999 12Z" fill="#222222"/>
</svg>
