<svg width="24" height="24" viewBox="0 0 24 24" fill="none" xmlns="http://www.w3.org/2000/svg">
<mask id="path-1-inside-1_25520_18239" fill="white">
<path fill-rule="evenodd" clip-rule="evenodd" d="M2.08046 14.0989C1.25378 12.824 1.25378 11.176 2.08046 9.90109C4.18772 6.65131 7.8413 4.5 11.9998 4.5C16.1584 4.5 19.812 6.65132 21.9192 9.9011C22.7459 11.176 22.7459 12.824 21.9192 14.0989C19.812 17.3487 16.1584 19.5 11.9998 19.5C7.8413 19.5 4.18772 17.3487 2.08046 14.0989Z"/>
</mask>
<path d="M21.9192 9.9011L23.0939 9.13941L21.9192 9.9011ZM21.9192 14.0989L20.7446 13.3372L21.9192 14.0989ZM2.08046 9.90109L3.25512 10.6628L2.08046 9.90109ZM2.08046 14.0989L0.905794 14.8606L2.08046 14.0989ZM11.9998 3.1C7.34582 3.1 3.2595 5.50957 0.905795 9.13941L3.25512 10.6628C5.11594 7.79306 8.33677 5.9 11.9998 5.9V3.1ZM23.0939 9.13941C20.7402 5.50957 16.6539 3.1 11.9998 3.1V5.9C15.6629 5.9 18.8838 7.79306 20.7446 10.6628L23.0939 9.13941ZM11.9998 20.9C16.6539 20.9 20.7402 18.4904 23.0939 14.8606L20.7446 13.3372C18.8838 16.2069 15.6629 18.1 11.9998 18.1V20.9ZM0.905794 14.8606C3.2595 18.4904 7.34582 20.9 11.9998 20.9V18.1C8.33677 18.1 5.11594 16.2069 3.25512 13.3372L0.905794 14.8606ZM20.7446 10.6628C21.2708 11.4743 21.2708 12.5257 20.7446 13.3372L23.0939 14.8606C24.221 13.1224 24.221 10.8776 23.0939 9.13941L20.7446 10.6628ZM0.905795 9.13941C-0.221332 10.8776 -0.221333 13.1224 0.905794 14.8606L3.25512 13.3372C2.72889 12.5257 2.72889 11.4743 3.25512 10.6628L0.905795 9.13941Z" fill="#222222" mask="url(#path-1-inside-1_25520_18239)"/>
<path d="M12 8.3C9.9534 8.3 8.3 9.9534 8.3 12C8.3 14.0466 9.9534 15.7 12 15.7C14.0466 15.7 15.7 14.0466 15.7 12C15.7 9.9534 14.0466 8.3 12 8.3Z" stroke="#222222" stroke-width="1.4"/>
</svg>
