<svg width="24" height="24" viewBox="0 0 24 24" fill="none" xmlns="http://www.w3.org/2000/svg">
<path fill-rule="evenodd" clip-rule="evenodd" d="M21.0482 20.4954C21.3144 20.1781 21.273 19.7051 20.9557 19.4388L2.53878 3.98515C2.22148 3.7189 1.74841 3.76028 1.48216 4.07759C1.21591 4.3949 1.2573 4.86796 1.5746 5.13421L19.9916 20.5879C20.3089 20.8541 20.7819 20.8127 21.0482 20.4954Z" fill="#222222"/>
<path fill-rule="evenodd" clip-rule="evenodd" d="M17.3682 16.8947L13.2279 20.1149C12.5057 20.6767 11.4944 20.6767 10.7721 20.1149L4.00948 14.8551C3.49749 14.4569 3.49749 13.683 4.00948 13.2848C4.36861 13.0055 4.87148 13.0055 5.23066 13.2847L11.99 18.54L15.7987 15.5777L17.3682 16.8947ZM19.5086 15.23L19.9844 14.8599C20.4997 14.4591 20.5 13.6804 19.9851 13.2792C19.6234 12.9974 19.1165 12.9971 18.7546 13.2786L17.939 13.913L19.5086 15.23ZM16.3729 12.5989L18.9703 10.5787C19.9998 9.77796 19.9998 8.22198 18.9703 7.42126L13.2279 2.95499C12.5057 2.39326 11.4944 2.39326 10.7721 2.95499L7.71422 5.33337L16.3729 12.5989ZM5.57389 6.99807L5.02979 7.42127C4.0003 8.22198 4.0003 9.77796 5.02979 10.5787L10.7721 15.045C11.4944 15.6067 12.5057 15.6067 13.2279 15.0449L14.2326 14.2636L5.57389 6.99807Z" fill="#222222"/>
</svg>
