<svg width="24" height="24" viewBox="0 0 24 24" fill="none" xmlns="http://www.w3.org/2000/svg">
<path d="M11.99 18.54L5.23063 13.2847C4.87145 13.0055 4.36858 13.0055 4.00946 13.2849C3.49746 13.6831 3.49746 14.4569 4.00946 14.8551L10.7721 20.115C11.4943 20.6767 12.5057 20.6767 13.2279 20.115L19.9844 14.8599C20.4997 14.4591 20.5 13.6804 19.9851 13.2792C19.6234 12.9974 19.1165 12.9972 18.7545 13.2787L11.99 18.54Z" fill="#222222"/>
<path d="M18.9702 10.5787C19.9997 9.77799 19.9997 8.22201 18.9702 7.4213L13.2279 2.95502C12.5057 2.39329 11.4943 2.39329 10.7721 2.95502L5.02976 7.4213C4.00027 8.22201 4.00027 9.77799 5.02976 10.5787L10.7721 15.045C11.4943 15.6067 12.5057 15.6067 13.2279 15.045L18.9702 10.5787Z" fill="#222222"/>
</svg>
