<svg width="24" height="24" viewBox="0 0 24 24" fill="none" xmlns="http://www.w3.org/2000/svg">
<path fill-rule="evenodd" clip-rule="evenodd" d="M2.32544 2.32544C2.75935 1.89152 3.46287 1.89152 3.89679 2.32544L12 10.4287L20.1032 2.32544C20.5371 1.89152 21.2406 1.89152 21.6746 2.32544C22.1085 2.75935 22.1085 3.46287 21.6746 3.89679L13.5713 12L21.6746 20.1032C22.1085 20.5371 22.1085 21.2406 21.6746 21.6746C21.2406 22.1085 20.5371 22.1085 20.1032 21.6746L12 13.5713L3.89679 21.6746C3.46287 22.1085 2.75935 22.1085 2.32544 21.6746C1.89152 21.2406 1.89152 20.5371 2.32544 20.1032L10.4287 12L2.32544 3.89679C1.89152 3.46287 1.89152 2.75935 2.32544 2.32544Z" fill="#222222"/>
</svg>
