<svg width="24" height="24" viewBox="0 0 24 24" fill="none" xmlns="http://www.w3.org/2000/svg">
<path fill-rule="evenodd" clip-rule="evenodd" d="M8.8811 20.9973H7.90637C7.37594 20.9973 6.86723 20.7866 6.49216 20.4115L2.58579 16.5051C1.80474 15.7241 1.80474 14.4577 2.58579 13.6767L12.6066 3.65585C13.3877 2.87481 14.654 2.87481 15.435 3.65586L21.4877 9.70852C22.2688 10.4896 22.2688 11.7559 21.4877 12.5369L14.5246 19.5001H19.8948C20.309 19.5001 20.6448 19.8359 20.6448 20.2501C20.6448 20.6643 20.309 21.0001 19.8948 21.0001H8.8811V20.9973ZM14.3744 4.71652L20.427 10.7692C20.6223 10.9644 20.6223 11.281 20.427 11.4763L12.4061 19.4973L7.90637 19.4973C7.77376 19.4973 7.64659 19.4446 7.55282 19.3508L3.64645 15.4445C3.45118 15.2492 3.45118 14.9326 3.64645 14.7374L13.6673 4.71651C13.8625 4.52125 14.1791 4.52125 14.3744 4.71652Z" fill="#222222"/>
<path d="M11.1329 15.8238L9.75682 17.1998L10.1874 18.0858L9.45984 18.8134L7.24235 14.1112L8.04916 13.3044L12.7514 15.5219L12.0189 16.2544L11.1329 15.8238ZM10.3904 15.4575L8.44514 14.5121L9.39054 16.4574L10.3904 15.4575Z" fill="#222222"/>
<path d="M13.5715 13.603L14.7099 12.4645L15.2593 13.0139L13.4279 14.8453L9.97301 11.3904L10.666 10.6975L13.5715 13.603Z" fill="#222222"/>
<path d="M16.0555 11.119L17.1939 9.98052L17.7433 10.5299L15.9119 12.3613L12.457 8.90643L13.15 8.21346L16.0555 11.119Z" fill="#222222"/>
</svg>
