<svg width="24" height="24" viewBox="0 0 24 24" fill="none" xmlns="http://www.w3.org/2000/svg">
<path fill-rule="evenodd" clip-rule="evenodd" d="M8.88123 20.9973H7.90649C7.37606 20.9973 6.86735 20.7866 6.49228 20.4115L2.58591 16.5051C1.80486 15.7241 1.80486 14.4577 2.58591 13.6767L12.6067 3.65585C13.3878 2.87481 14.6541 2.87481 15.4352 3.65586L21.4878 9.70852C22.2689 10.4896 22.2689 11.7559 21.4878 12.5369L14.5247 19.5001H19.8949C20.3091 19.5001 20.6449 19.8359 20.6449 20.2501C20.6449 20.6643 20.3091 21.0001 19.8949 21.0001H8.88123V20.9973ZM14.3745 4.71652L20.4272 10.7692C20.6224 10.9644 20.6224 11.281 20.4272 11.4763L14.5541 17.3493L7.79435 10.5896L13.6674 4.71651C13.8627 4.52125 14.1792 4.52125 14.3745 4.71652ZM6.73369 11.6502L3.64657 14.7374C3.45131 14.9326 3.45131 15.2492 3.64657 15.4445L7.55294 19.3508C7.64671 19.4446 7.77389 19.4973 7.90649 19.4973L12.4062 19.4973L13.4935 18.41L6.73369 11.6502Z" fill="#222222"/>
</svg>
