<svg width="24" height="24" viewBox="0 0 24 24" fill="none" xmlns="http://www.w3.org/2000/svg">
<path fill-rule="evenodd" clip-rule="evenodd" d="M4.63619 2.18176C3.28058 2.18176 2.18164 3.2807 2.18164 4.63631V8.45449C2.18164 9.8101 3.28058 10.909 4.63619 10.909H8.45437C9.80998 10.909 10.9089 9.8101 10.9089 8.45449V4.63631C10.9089 3.2807 9.80998 2.18176 8.45437 2.18176H4.63619ZM3.818 4.63631C3.818 4.18444 4.18432 3.81813 4.63619 3.81813H8.45437C8.90624 3.81813 9.27255 4.18444 9.27255 4.63631V8.45449C9.27255 8.90636 8.90624 9.27267 8.45437 9.27267H4.63619C4.18432 9.27267 3.818 8.90636 3.818 8.45449V4.63631ZM4.63619 13.0909C3.28058 13.0909 2.18164 14.1898 2.18164 15.5454V19.3636C2.18164 20.7192 3.28058 21.8181 4.63619 21.8181H8.45437C9.80998 21.8181 10.9089 20.7192 10.9089 19.3636V15.5454C10.9089 14.1898 9.80998 13.0909 8.45437 13.0909H4.63619ZM3.818 15.5454C3.818 15.0935 4.18432 14.7272 4.63619 14.7272H8.45437C8.90624 14.7272 9.27255 15.0935 9.27255 15.5454V19.3636C9.27255 19.8155 8.90624 20.1818 8.45437 20.1818H4.63619C4.18432 20.1818 3.818 19.8155 3.818 19.3636V15.5454ZM13.0907 15.5454C13.0907 14.1898 14.1897 13.0909 15.5453 13.0909H19.3635C20.7191 13.0909 21.818 14.1898 21.818 15.5454V19.3636C21.818 20.7192 20.7191 21.8181 19.3635 21.8181H15.5453C14.1897 21.8181 13.0907 20.7192 13.0907 19.3636V15.5454ZM15.5453 14.7272C15.0934 14.7272 14.7271 15.0935 14.7271 15.5454V19.3636C14.7271 19.8155 15.0934 20.1818 15.5453 20.1818H19.3635C19.8153 20.1818 20.1816 19.8155 20.1816 19.3636V15.5454C20.1816 15.0935 19.8153 14.7272 19.3635 14.7272H15.5453ZM15.5453 2.18176C14.1897 2.18176 13.0907 3.2807 13.0907 4.63631V8.45449C13.0907 9.8101 14.1897 10.909 15.5453 10.909H19.3635C20.7191 10.909 21.818 9.8101 21.818 8.45449V4.63631C21.818 3.2807 20.7191 2.18176 19.3635 2.18176H15.5453ZM14.7271 4.63631C14.7271 4.18444 15.0934 3.81813 15.5453 3.81813H19.3635C19.8153 3.81813 20.1816 4.18444 20.1816 4.63631V8.45449C20.1816 8.90636 19.8153 9.27267 19.3635 9.27267H15.5453C15.0934 9.27267 14.7271 8.90636 14.7271 8.45449V4.63631Z" fill="#222222"/>
</svg>
