<svg width="24" height="24" viewBox="0 0 24 24" fill="none" xmlns="http://www.w3.org/2000/svg">
<path fill-rule="evenodd" clip-rule="evenodd" d="M9.36364 22.5455C7.55616 22.5455 6.09091 21.0802 6.09091 19.2727L6.09091 8.36364C6.09091 6.55616 7.55616 5.09091 9.36364 5.09091L18.0909 5.09091C19.8984 5.09091 21.3636 6.55616 21.3636 8.36364V19.2727C21.3636 21.0802 19.8984 22.5455 18.0909 22.5455L9.36364 22.5455ZM9.36364 20.9091C8.4599 20.9091 7.72727 20.1765 7.72727 19.2727L7.72727 8.36364C7.72727 7.4599 8.4599 6.72727 9.36364 6.72727L18.0909 6.72727C18.9946 6.72727 19.7273 7.4599 19.7273 8.36364L19.7273 19.2727C19.7273 20.1765 18.9946 20.9091 18.0909 20.9091L9.36364 20.9091Z" fill="#222222"/>
<path d="M2 14.9091C2 15.361 2.36631 15.7273 2.81818 15.7273C3.27005 15.7273 3.63636 15.361 3.63636 14.9091L3.63636 5.09091C3.63636 3.7353 4.7353 2.63636 6.09091 2.63636L14.8182 2.63636C15.2701 2.63636 15.6364 2.27005 15.6364 1.81818C15.6364 1.36631 15.2701 1 14.8182 1L6.09091 1C3.83156 1 2 2.83156 2 5.09091L2 14.9091Z" fill="#222222"/>
</svg>
