<svg width="24" height="24" viewBox="0 0 24 24" fill="none" xmlns="http://www.w3.org/2000/svg">
<path fill-rule="evenodd" clip-rule="evenodd" d="M8 3C5.23858 3 3 5.23858 3 8V16C3 18.7614 5.23858 21 8 21H16C18.7614 21 21 18.7614 21 16V8C21 5.23858 18.7614 3 16 3H8ZM12 7.00732C12.4142 7.00732 12.75 7.34311 12.75 7.75732V11.2501L16.2426 11.2501C16.6568 11.2501 16.9926 11.5859 16.9926 12.0001C16.9926 12.4143 16.6568 12.7501 16.2426 12.7501H12.75V16.2426C12.75 16.6568 12.4142 16.9926 12 16.9926C11.5858 16.9926 11.25 16.6568 11.25 16.2426V12.7501H7.75732C7.34311 12.7501 7.00732 12.4143 7.00732 12.0001C7.00732 11.5859 7.34311 11.2501 7.75732 11.2501H11.25V7.75732C11.25 7.34311 11.5858 7.00732 12 7.00732Z" fill="#222222"/>
</svg>
