<svg width="24" height="24" viewBox="0 0 24 24" fill="none" xmlns="http://www.w3.org/2000/svg">
<path fill-rule="evenodd" clip-rule="evenodd" d="M20.7777 13.0187C20.5744 12.1242 19.8758 11.4256 18.9813 11.2223C17.6771 10.9259 16.3229 10.9259 15.0187 11.2223C14.1242 11.4256 13.4256 12.1242 13.2223 13.0187C12.9259 14.3229 12.9259 17.6771 13.2223 18.9813C13.4256 19.8758 14.1242 20.5744 15.0187 20.7777C16.3229 21.0741 17.6771 21.0741 18.9813 20.7777C19.8758 20.5744 20.5744 19.8758 20.7777 18.9813C21.0741 17.6771 21.0741 14.3229 20.7777 13.0187ZM17 4.60085L16.1501 4.6285L15.0637 4.67719C14.8334 4.68751 14.6374 4.87446 14.6255 5.12274L14.6 5.65425V6.34576L14.6255 6.87727C14.6374 7.12555 14.8334 7.3125 15.0637 7.32282L16.1501 7.3715L17 7.39915L17.8499 7.3715L18.9363 7.32282C19.1666 7.3125 19.3626 7.12555 19.3745 6.87727L19.4 6.34576V5.65425L19.3745 5.12273C19.3626 4.87446 19.1666 4.68751 18.9363 4.67719L17.8499 4.6285L17 4.60085ZM17.9117 3.02967L17 3L16.0883 3.02967L14.9921 3.07879C13.93 3.12639 13.0786 3.97886 13.0274 5.04602L13 5.61588V6.38413L13.0274 6.95398C13.0786 8.02115 13.93 8.87362 14.9921 8.92122L16.0883 8.97034L17 9L17.9117 8.97034L19.0079 8.92122C20.07 8.87362 20.9214 8.02115 20.9726 6.95398L21 6.38413V5.61588L20.9726 5.04602C20.9214 3.97886 20.07 3.12639 19.0079 3.07879L17.9117 3.02967ZM5.37329 4.78253C5.07911 4.84939 4.84939 5.07911 4.78253 5.37329C4.6765 5.83979 4.6 6.85251 4.6 8C4.6 9.14749 4.6765 10.1602 4.78253 10.6267C4.84939 10.9209 5.07911 11.1506 5.37329 11.2175C6.44411 11.4608 7.55589 11.4608 8.62671 11.2175C8.92089 11.1506 9.15061 10.9209 9.21747 10.6267C9.3235 10.1602 9.4 9.14749 9.4 8C9.4 6.85251 9.3235 5.83979 9.21747 5.37329C9.15061 5.07911 8.92089 4.84939 8.62671 4.78253C7.55589 4.53916 6.44411 4.53916 5.37329 4.78253ZM15.3733 12.7825C15.0791 12.8494 14.8494 13.0791 14.7825 13.3733C14.6765 13.8398 14.6 14.8525 14.6 16C14.6 17.1475 14.6765 18.1602 14.7825 18.6267C14.8494 18.9209 15.0791 19.1506 15.3733 19.2175C16.4441 19.4608 17.5559 19.4608 18.6267 19.2175C18.9209 19.1506 19.1506 18.9209 19.2175 18.6267C19.3235 18.1602 19.4 17.1475 19.4 16C19.4 14.8525 19.3235 13.8398 19.2175 13.3733C19.1506 13.0791 18.9209 12.8494 18.6267 12.7825C17.5559 12.5392 16.4441 12.5392 15.3733 12.7825ZM7 16.6008L6.15017 16.6285L5.06374 16.6772C4.83341 16.6875 4.63743 16.8745 4.62551 17.1227L4.6 17.6543V18.3457L4.62551 18.8773C4.63743 19.1255 4.83341 19.3125 5.06374 19.3228L6.15019 19.3715L7 19.3992L7.84981 19.3715L8.93626 19.3228C9.16659 19.3125 9.36257 19.1255 9.37449 18.8773L9.4 18.3457V17.6543L9.37449 17.1227C9.36257 16.8745 9.16659 16.6875 8.93626 16.6772L7.84982 16.6285L7 16.6008ZM7.91169 15.0297L7 15L6.08831 15.0297L4.99212 15.0788C3.92997 15.1264 3.07858 15.9789 3.02735 17.046L3 17.6159V18.3841L3.02735 18.954C3.07858 20.0212 3.92997 20.8736 4.99211 20.9212L6.08831 20.9703L7 21L7.91169 20.9703L9.00788 20.9212C10.07 20.8736 10.9214 20.0212 10.9726 18.954L11 18.3841V17.6159L10.9726 17.046C10.9214 15.9789 10.07 15.1264 9.00788 15.0788L7.91169 15.0297ZM3.22231 5.0187C3.42562 4.12416 4.12416 3.42562 5.0187 3.22231C6.32294 2.9259 7.67706 2.9259 8.9813 3.22231C9.87584 3.42562 10.5744 4.12416 10.7777 5.0187C11.0741 6.32294 11.0741 9.67706 10.7777 10.9813C10.5744 11.8758 9.87584 12.5744 8.9813 12.7777C7.67706 13.0741 6.32294 13.0741 5.0187 12.7777C4.12416 12.5744 3.42562 11.8758 3.22231 10.9813C2.9259 9.67706 2.9259 6.32294 3.22231 5.0187Z" fill="#222222"/>
</svg>
