<svg width="24" height="24" viewBox="0 0 24 24" fill="none" xmlns="http://www.w3.org/2000/svg">
<path fill-rule="evenodd" clip-rule="evenodd" d="M15 4C19.4183 4 23 7.58172 23 12C23 16.4183 19.4183 20 15 20C10.5817 20 7 16.4183 7 12C7 7.58172 10.5817 4 15 4ZM15.0002 8C15.51 8 15.9233 8.41328 15.9233 8.92308V11.0769H18.0769C18.5867 11.0769 19 11.4902 19 12C19 12.5098 18.5867 12.9231 18.0769 12.9231H15.9233V15.0769C15.9233 15.5867 15.51 16 15.0002 16C14.4904 16 14.0771 15.5867 14.0771 15.0769V12.9231H11.9231C11.4133 12.9231 11 12.5098 11 12C11 11.4902 11.4133 11.0769 11.9231 11.0769H14.0771V8.92308C14.0771 8.41328 14.4904 8 15.0002 8Z" fill="#222222"/>
<path fill-rule="evenodd" clip-rule="evenodd" d="M7.02393 3.55005C3.5565 4.79121 1.07568 8.10599 1.07568 12.0002C1.07568 15.8944 3.5565 19.2092 7.02393 20.4503V18.4897C4.5823 17.3498 2.89037 14.8726 2.89037 12.0002C2.89037 9.12778 4.5823 6.65054 7.02393 5.51069V3.55005Z" fill="#222222"/>
</svg>
