<svg width="24" height="24" viewBox="0 0 24 24" fill="none" xmlns="http://www.w3.org/2000/svg">
<path fill-rule="evenodd" clip-rule="evenodd" d="M16 5C15.0335 5 14.25 5.7835 14.25 6.75C14.25 7.7165 15.0335 8.5 16 8.5C16.9665 8.5 17.75 7.7165 17.75 6.75C17.75 5.7835 16.9665 5 16 5ZM3.5 6H12.837C13.1755 4.56665 14.4632 3.5 16 3.5C17.5368 3.5 18.8245 4.56665 19.163 6L20.5 6C20.9142 6 21.25 6.33579 21.25 6.75C21.25 7.16421 20.9142 7.5 20.5 7.5L19.163 7.5C18.8245 8.93335 17.5368 10 16 10C14.4632 10 13.1755 8.93335 12.837 7.5H3.5C3.08579 7.5 2.75 7.16421 2.75 6.75C2.75 6.33579 3.08579 6 3.5 6ZM6.25 17.251C6.25 17.2507 6.25 17.2503 6.25 17.25C6.25 16.2835 7.0335 15.5 8 15.5C8.9665 15.5 9.75 16.2835 9.75 17.25C9.75 17.2502 9.75 17.2505 9.75 17.2507C9.74961 18.2169 8.96626 19 8 19C7.03384 19 6.25054 18.217 6.25 17.251ZM4.83697 16.5L3.5 16.5C3.08579 16.5 2.75 16.8358 2.75 17.25C2.75 17.6642 3.08579 18 3.5 18L4.83697 18C5.17555 19.4333 6.46321 20.5 8 20.5C9.53679 20.5 10.8245 19.4333 11.163 18L20.5 18C20.9142 18 21.25 17.6642 21.25 17.25C21.25 16.8358 20.9142 16.5 20.5 16.5L11.163 16.5C10.8245 15.0666 9.53679 14 8 14C6.46321 14 5.17555 15.0666 4.83697 16.5Z" fill="#222222"/>
</svg>
