<svg width="24" height="24" viewBox="0 0 24 24" fill="none" xmlns="http://www.w3.org/2000/svg">
<path fill-rule="evenodd" clip-rule="evenodd" d="M5.96998 3.03823C6.4657 2.70549 6.99536 2.40977 7.55668 2.15641C8.11801 1.90304 8.69014 1.70144 9.2676 1.54978C9.69493 1.43754 10.1323 1.69298 10.2446 2.12032C10.3568 2.54765 10.1014 2.98506 9.67404 3.09729C9.1825 3.22639 8.69462 3.39821 8.21493 3.61473C7.73524 3.83125 7.28365 4.08348 6.86169 4.36671C6.49484 4.61295 5.99783 4.51517 5.7516 4.14832C5.50536 3.78148 5.60313 3.28447 5.96998 3.03823ZM13.134 2.03097C13.2191 1.59743 13.6396 1.315 14.0732 1.40016C15.264 1.63406 16.4089 2.06685 17.4567 2.67917C17.8382 2.9021 17.9667 3.39205 17.7438 3.77352C17.5209 4.15498 17.0309 4.28351 16.6495 4.06059C15.7562 3.5386 14.78 3.16956 13.7648 2.97016C13.3312 2.88501 13.0488 2.46452 13.134 2.03097ZM3.77327 6.25614C4.15474 6.47906 4.28326 6.96902 4.06034 7.35048C3.53836 8.24371 3.16931 9.21999 2.96992 10.2352C2.88476 10.6687 2.46427 10.9511 2.03073 10.866C1.59719 10.7808 1.31476 10.3603 1.39992 9.92678C1.63382 8.73594 2.06661 7.59101 2.67893 6.54321C2.90185 6.16174 3.39181 6.03321 3.77327 6.25614ZM2.12007 13.7554C2.54741 13.6431 2.98482 13.8986 3.09705 14.3259C3.22614 14.8174 3.39797 15.3053 3.61449 15.785C3.831 16.2647 4.08323 16.7163 4.36647 17.1383C4.6127 17.5051 4.51493 18.0021 4.14808 18.2484C3.78123 18.4946 3.28423 18.3968 3.03799 18.03C2.70525 17.5342 2.40953 17.0046 2.15616 16.4433C1.90279 15.8819 1.70119 15.3098 1.54953 14.7323C1.4373 14.305 1.69274 13.8676 2.12007 13.7554ZM19.8516 5.75184C20.2185 5.5056 20.7155 5.60338 20.9617 5.97022C21.2945 6.46595 21.5902 6.9956 21.8435 7.55693C22.0969 8.11825 22.2985 8.69039 22.4502 9.26784C22.5624 9.69518 22.307 10.1326 21.8796 10.2448C21.4523 10.3571 21.0149 10.1016 20.9027 9.67428C20.7736 9.18275 20.6017 8.69486 20.3852 8.21517C20.1687 7.73548 19.9165 7.28389 19.6332 6.86193C19.387 6.49509 19.4848 5.99808 19.8516 5.75184ZM6.25589 20.2267C6.47882 19.8452 6.96877 19.7167 7.35024 19.9396C8.24346 20.4616 9.21975 20.8306 10.2349 21.03C10.6685 21.1152 10.9509 21.5357 10.8657 21.9692C10.7806 22.4028 10.3601 22.6852 9.92654 22.6C8.73569 22.3661 7.59076 21.9333 6.54296 21.321C6.16149 21.0981 6.03297 20.6081 6.25589 20.2267ZM21.969 13.1342C22.4025 13.2194 22.6849 13.6399 22.5998 14.0734C22.3659 15.2643 21.9331 16.4092 21.3208 17.457C21.0979 17.8385 20.6079 17.967 20.2264 17.7441C19.845 17.5211 19.7164 17.0312 19.9394 16.6497C20.4613 15.7565 20.8304 14.7802 21.0298 13.765C21.1149 13.3315 21.5354 13.0491 21.969 13.1342ZM13.7551 21.8799C13.6429 21.4525 13.8983 21.0151 14.3257 20.9029C14.8172 20.7738 15.3051 20.602 15.7848 20.3855C16.2645 20.1689 16.7161 19.9167 17.138 19.6335C17.5049 19.3872 18.0019 19.485 18.2481 19.8519C18.4943 20.2187 18.3966 20.7157 18.0297 20.962C17.534 21.2947 17.0043 21.5904 16.443 21.8438C15.8817 22.0972 15.3096 22.2988 14.7321 22.4504C14.3048 22.5626 13.8674 22.3072 13.7551 21.8799Z" fill="#222222"/>
<path fill-rule="evenodd" clip-rule="evenodd" d="M11.9998 6.81812C12.4517 6.81812 12.818 7.18443 12.818 7.6363V11.1818H16.3635C16.8153 11.1818 17.1816 11.5481 17.1816 11.9999C17.1816 12.4518 16.8153 12.8181 16.3635 12.8181H11.9998C11.548 12.8181 11.1816 12.4518 11.1816 11.9999V7.6363C11.1816 7.18443 11.548 6.81812 11.9998 6.81812Z" fill="#222222"/>
</svg>
