<svg width="24" height="24" viewBox="0 0 24 24" fill="none" xmlns="http://www.w3.org/2000/svg">
<path d="M19.7781 12.7069L14.1211 18.3639C12.9959 19.4891 11.4699 20.1212 9.87862 20.1212C8.28739 20.1212 6.76133 19.4891 5.63613 18.3639C4.51099 17.2387 3.87891 15.7127 3.87891 14.1214C3.87891 12.5302 4.51099 11.0041 5.63613 9.87894L11.2931 4.22194C11.6646 3.85048 12.1055 3.55583 12.5908 3.35479C13.0762 3.15376 13.5963 3.05029 14.1216 3.05029C14.6469 3.05029 15.1671 3.15376 15.6524 3.35479C16.1377 3.55583 16.5787 3.85048 16.9501 4.22194C17.3216 4.59338 17.6162 5.03434 17.8173 5.51966C18.0183 6.00497 18.1218 6.52513 18.1218 7.05044C18.1218 7.57574 18.0183 8.0959 17.8173 8.58122C17.6162 9.06654 17.3216 9.5075 16.9501 9.87894L11.2931 15.5359C11.1074 15.7217 10.8869 15.8691 10.6442 15.9697C10.4015 16.0703 10.1413 16.122 9.87862 16.122C9.61591 16.122 9.35577 16.0703 9.11307 15.9697C8.87037 15.8691 8.64985 15.7217 8.46412 15.5359C8.27832 15.3502 8.13093 15.1297 8.03037 14.887C7.92981 14.6443 7.87805 14.3842 7.87805 14.1214C7.87805 13.8587 7.92981 13.5986 8.03037 13.3559C8.13093 13.1132 8.27832 12.8927 8.46412 12.7069L14.1211 7.04994" stroke="#222222" stroke-width="1.5" stroke-linecap="round" stroke-linejoin="round"/>
</svg>
