<svg width="24" height="24" viewBox="0 0 24 24" fill="none" xmlns="http://www.w3.org/2000/svg">
<path d="M19.7781 12.7071L14.1211 18.3641C12.9959 19.4892 11.4699 20.1213 9.87862 20.1213C8.28739 20.1213 6.76133 19.4892 5.63613 18.3641C4.51099 17.2389 3.87891 15.7128 3.87891 14.1216C3.87891 12.5303 4.51099 11.0043 5.63613 9.87906L11.2931 4.22206C11.6646 3.8506 12.1055 3.55595 12.5908 3.35492C13.0762 3.15388 13.5963 3.05042 14.1216 3.05042C14.6469 3.05042 15.1671 3.15388 15.6524 3.35492C16.1377 3.55595 16.5787 3.8506 16.9501 4.22206C17.3216 4.5935 17.6162 5.03446 17.8173 5.51978C18.0183 6.0051 18.1218 6.52526 18.1218 7.05056C18.1218 7.57587 18.0183 8.09603 17.8173 8.58134C17.6162 9.06666 17.3216 9.50762 16.9501 9.87906L11.2931 15.5361C11.1074 15.7219 10.8869 15.8693 10.6442 15.9698C10.4015 16.0704 10.1413 16.1221 9.87862 16.1221C9.61591 16.1221 9.35577 16.0704 9.11307 15.9698C8.87037 15.8693 8.64985 15.7219 8.46412 15.5361C8.27832 15.3503 8.13093 15.1298 8.03037 14.8871C7.92981 14.6444 7.87805 14.3843 7.87805 14.1216C7.87805 13.8588 7.92981 13.5987 8.03037 13.356C8.13093 13.1133 8.27832 12.8928 8.46412 12.7071L14.1211 7.05006" stroke="#222222" stroke-width="1.5" stroke-linecap="round" stroke-linejoin="round"/>
</svg>
