<svg width="24" height="24" viewBox="0 0 24 24" fill="none" xmlns="http://www.w3.org/2000/svg">
<path fill-rule="evenodd" clip-rule="evenodd" d="M17.4 12C17.4 9.01766 14.9823 6.6 12 6.6C9.01766 6.6 6.6 9.01766 6.6 12C6.6 14.9823 9.01766 17.4 12 17.4C14.9823 17.4 17.4 14.9823 17.4 12ZM12 5C15.866 5 19 8.13401 19 12C19 15.866 15.866 19 12 19C8.13401 19 5 15.866 5 12C5 8.13401 8.13401 5 12 5Z" fill="#222222"/>
<path d="M14.8002 12C14.8002 10.4536 13.5466 9.19995 12.0002 9.19995C10.4538 9.19995 9.2002 10.4536 9.2002 12C9.2002 13.5463 10.4538 14.8 12.0002 14.8C13.5466 14.8 14.8002 13.5463 14.8002 12Z" fill="#222222"/>
</svg>
