<svg width="24" height="24" viewBox="0 0 24 24" fill="none" xmlns="http://www.w3.org/2000/svg">
<path fill-rule="evenodd" clip-rule="evenodd" d="M14.2799 2.00969C14.5178 1.97108 14.7599 2.04921 14.9303 2.21968L21.5303 8.81968C21.7008 8.99015 21.7789 9.23218 21.7403 9.47015C21.7017 9.70812 21.551 9.91301 21.3354 10.0208L18.8869 11.2451C18.1963 11.5904 17.566 12.0447 17.02 12.5906C16.1361 13.4746 15.4982 14.5739 15.1693 15.7799L13.9236 20.3473C13.8532 20.6053 13.6509 20.8063 13.3925 20.8749C13.1341 20.9435 12.8587 20.8694 12.6697 20.6803L8.4 16.4107L3.53033 21.2803C3.23744 21.5732 2.76256 21.5732 2.46967 21.2803C2.17678 20.9874 2.17678 20.5126 2.46967 20.2197L7.33934 15.35L3.06967 11.0803C2.88062 10.8913 2.8065 10.6159 2.87513 10.3575C2.94375 10.0991 3.14473 9.89678 3.40266 9.82644L7.97015 8.58076C9.17615 8.25185 10.2754 7.6139 11.1594 6.72998C11.7053 6.18406 12.1596 5.55369 12.5049 4.86314L13.7292 2.4146C13.837 2.19897 14.0419 2.04831 14.2799 2.00969Z" fill="#222222"/>
</svg>
