<svg width="24" height="24" viewBox="0 0 24 24" fill="none" xmlns="http://www.w3.org/2000/svg">
<path d="M18.5407 5.45926C22.1531 9.07161 22.1531 14.9284 18.5407 18.5407C14.9284 22.1531 9.07161 22.1531 5.45926 18.5407C1.84691 14.9284 1.84691 9.07161 5.45926 5.45926C9.07161 1.84691 14.9284 1.84691 18.5407 5.45926Z" stroke="#222222" stroke-width="1.5" stroke-linecap="round"/>
<path d="M15.5078 9.55301C15.8161 9.2447 15.8286 8.75733 15.5357 8.46443C15.2429 8.17154 14.7555 8.18404 14.4472 8.49235L12.0002 10.9393L9.55325 8.49235C9.24494 8.18404 8.75757 8.17154 8.46468 8.46443C8.17179 8.75733 8.18428 9.2447 8.49259 9.55301L10.9396 12L8.49259 14.4469C8.18428 14.7552 8.17179 15.2426 8.46468 15.5355C8.75757 15.8284 9.24494 15.8159 9.55325 15.5076L12.0002 13.0606L14.4472 15.5076C14.7555 15.8159 15.2429 15.8284 15.5357 15.5355C15.8286 15.2426 15.8161 14.7552 15.5078 14.4469L13.0609 12L15.5078 9.55301Z" fill="#222222"/>
</svg>
