<svg width="24" height="24" viewBox="0 0 24 24" fill="none" xmlns="http://www.w3.org/2000/svg">
<path fill-rule="evenodd" clip-rule="evenodd" d="M5 3H19C20.1 3 21 3.9 21 5V19C21 20.1 20.1 21 19 21H5C3.89 21 3 20.1 3 19V5C3 3.9 3.89 3 5 3ZM12.0002 8C12.51 8 12.9233 8.41328 12.9233 8.92308V11.0769H15.0769C15.5867 11.0769 16 11.4902 16 12C16 12.5098 15.5867 12.9231 15.0769 12.9231H12.9233V15.0769C12.9233 15.5867 12.51 16 12.0002 16C11.4904 16 11.0772 15.5867 11.0772 15.0769V12.9231H8.92308C8.41328 12.9231 8 12.5098 8 12C8 11.4902 8.41328 11.0769 8.92308 11.0769H11.0772V8.92308C11.0772 8.41328 11.4904 8 12.0002 8Z" fill="#222222"/>
</svg>
