<svg width="24" height="24" viewBox="0 0 24 24" fill="none" xmlns="http://www.w3.org/2000/svg">
<path fill-rule="evenodd" clip-rule="evenodd" d="M9.07563 2.30651C9.4586 2.14871 9.89699 2.33125 10.0548 2.71422L11.1323 5.32927C11.2901 5.71225 11.1076 6.15064 10.7246 6.30844C10.3416 6.46625 9.90325 6.28371 9.74545 5.90073L8.66792 3.28568C8.51011 2.90271 8.69265 2.46432 9.07563 2.30651ZM16.252 21.1171C15.869 21.2749 15.4306 21.0923 15.2728 20.7094L14.1953 18.0943C14.0375 17.7113 14.22 17.273 14.603 17.1151C14.986 16.9573 15.4244 17.1399 15.5822 17.5229L16.6597 20.1379C16.8175 20.5209 16.635 20.9593 16.252 21.1171ZM4.8131 7.02995C4.42923 6.87433 3.99189 7.05936 3.83627 7.44323C3.68065 7.8271 3.86567 8.26444 4.24954 8.42006L6.87068 9.48269C7.25455 9.63831 7.69189 9.45328 7.84752 9.06942C8.00314 8.68555 7.81811 8.2482 7.43424 8.09258L4.8131 7.02995ZM21.4914 15.9804C21.3357 16.3642 20.8984 16.5493 20.5145 16.3936L17.8934 15.331C17.5095 15.1754 17.3245 14.738 17.4801 14.3542C17.6357 13.9703 18.0731 13.7853 18.457 13.9409L21.0781 15.0035C21.462 15.1591 21.647 15.5965 21.4914 15.9804ZM20.2184 3.98479C21.7634 5.52977 21.7634 8.03467 20.2184 9.57965L15.0364 14.7616C13.4915 16.3066 10.9866 16.3066 9.44157 14.7616C9.14868 14.4687 9.14868 13.9938 9.44157 13.7009C9.73447 13.4081 10.2093 13.4081 10.5022 13.7009C11.4614 14.6601 13.0166 14.6601 13.9758 13.7009L19.1577 8.51899C20.1169 7.5598 20.1169 6.00464 19.1577 5.04545C18.1985 4.08625 16.6434 4.08625 15.6842 5.04545L13.0932 7.63642C12.8003 7.92932 12.3254 7.92932 12.0325 7.63642C11.7397 7.34353 11.7397 6.86866 12.0325 6.57576L14.6235 3.98479C16.1685 2.43981 18.6734 2.43981 20.2184 3.98479ZM3.61186 20.5914C2.06688 19.0464 2.06688 16.5415 3.61186 14.9965L8.79381 9.81456C10.3388 8.26958 12.8437 8.26957 14.3887 9.81456C14.6816 10.1074 14.6816 10.5823 14.3887 10.8752C14.0958 11.1681 13.6209 11.1681 13.328 10.8752C12.3688 9.91602 10.8137 9.91602 9.85447 10.8752L4.67252 16.0572C3.71333 17.0164 3.71333 18.5715 4.67252 19.5307C5.63171 20.4899 7.18687 20.4899 8.14607 19.5307L10.737 16.9397C11.0299 16.6468 11.5048 16.6468 11.7977 16.9397C12.0906 17.2326 12.0906 17.7075 11.7977 18.0004L9.20673 20.5914C7.66175 22.1364 5.15684 22.1364 3.61186 20.5914Z" fill="#222222"/>
</svg>
