<svg width="24" height="24" viewBox="0 0 24 24" fill="none" xmlns="http://www.w3.org/2000/svg">
<path fill-rule="evenodd" clip-rule="evenodd" d="M14.9303 2.21968C14.7599 2.04921 14.5178 1.97108 14.2799 2.00969C14.0419 2.04831 13.837 2.19897 13.7292 2.4146L12.5049 4.86314C12.1596 5.55369 11.7053 6.18406 11.1594 6.72998C10.9332 6.95619 10.6929 7.16628 10.4403 7.35921L16.3908 13.3097C16.5837 13.0572 16.7938 12.8168 17.02 12.5906C17.566 12.0447 18.1963 11.5904 18.8869 11.2451L21.3354 10.0208C21.551 9.91301 21.7017 9.70812 21.7403 9.47015C21.7789 9.23218 21.7008 8.99015 21.5303 8.81968L14.9303 2.21968ZM15.5035 14.825L8.92496 8.24652C8.61597 8.37979 8.29698 8.49162 7.97015 8.58076L3.40266 9.82644C3.14473 9.89678 2.94375 10.0991 2.87513 10.3575C2.8065 10.6159 2.88062 10.8913 3.06967 11.0803L7.33934 15.35L2.46967 20.2197C2.17678 20.5126 2.17678 20.9874 2.46967 21.2803C2.76256 21.5732 3.23744 21.5732 3.53033 21.2803L8.4 16.4107L12.6697 20.6803C12.8587 20.8694 13.1341 20.9435 13.3925 20.8749C13.6509 20.8063 13.8532 20.6053 13.9236 20.3473L15.1693 15.7799C15.2584 15.453 15.3702 15.134 15.5035 14.825Z" fill="#222222"/>
<path fill-rule="evenodd" clip-rule="evenodd" d="M2.96967 3.21967C3.26256 2.92678 3.73744 2.92678 4.03033 3.21967L21.0303 20.2197C21.3232 20.5126 21.3232 20.9874 21.0303 21.2803C20.7374 21.5732 20.2626 21.5732 19.9697 21.2803L2.96967 4.28033C2.67678 3.98744 2.67678 3.51256 2.96967 3.21967Z" fill="#222222"/>
</svg>
