<svg width="24" height="24" viewBox="0 0 24 24" fill="none" xmlns="http://www.w3.org/2000/svg">
<path fill-rule="evenodd" clip-rule="evenodd" d="M17.0351 5.90088C16.5303 5.90088 16.2774 6.51129 16.6344 6.86828L18.383 8.61689L13.4999 13.5L10.207 10.2072C10.1556 10.1557 10.0999 10.111 10.0411 10.0731C10.0341 10.0657 10.027 10.0583 10.0198 10.0511C9.62923 9.66059 8.99607 9.66059 8.60554 10.0511L2.70696 15.9497C2.31643 16.3402 2.31643 16.9734 2.70696 17.3639C3.09748 17.7544 3.73065 17.7544 4.12117 17.3639L9.32827 12.1568L12.7928 15.6213C13.1833 16.0119 13.8165 16.0119 14.207 15.6213L14.2097 15.6186L14.2127 15.6156L19.7972 10.0311L21.4999 11.7338C21.8569 12.0908 22.4673 11.8379 22.4673 11.3331V6.46757C22.4673 6.15459 22.2136 5.90088 21.9006 5.90088H17.0351Z" fill="#222222"/>
</svg>
