<svg width="24" height="24" viewBox="0 0 24 24" fill="none" xmlns="http://www.w3.org/2000/svg">
<path fill-rule="evenodd" clip-rule="evenodd" d="M17.5455 2.63636C16.4911 2.63636 15.6364 3.49109 15.6364 4.54545C15.6364 5.59982 16.4911 6.45455 17.5455 6.45455C18.5998 6.45455 19.4545 5.59982 19.4545 4.54545C19.4545 3.49109 18.5998 2.63636 17.5455 2.63636ZM14 4.54545C14 2.58735 15.5874 1 17.5455 1C19.5036 1 21.0909 2.58735 21.0909 4.54545C21.0909 6.50355 19.5036 8.09091 17.5455 8.09091C16.383 8.09091 15.3512 7.53146 14.7046 6.66712L8.82454 10.2856C8.99621 10.7019 9.09091 11.1581 9.09091 11.6364C9.09091 12.2691 8.92515 12.8632 8.63468 13.3774L14.6833 16.6344C15.3284 15.7537 16.3701 15.1818 17.5455 15.1818C19.5036 15.1818 21.0909 16.7692 21.0909 18.7273C21.0909 20.6854 19.5036 22.2727 17.5455 22.2727C15.5874 22.2727 14 20.6854 14 18.7273C14 18.5307 14.016 18.338 14.0467 18.1501L7.4748 14.6114C6.91956 14.9722 6.25698 15.1818 5.54545 15.1818C3.58735 15.1818 2 13.5945 2 11.6364C2 9.67826 3.58735 8.09091 5.54545 8.09091C6.43234 8.09091 7.24318 8.41655 7.8649 8.9548L14.051 5.14798C14.0175 4.95215 14 4.75084 14 4.54545ZM7.08123 10.5021C7.07599 10.4954 7.07085 10.4885 7.0658 10.4816C6.7171 10.0232 6.16583 9.72727 5.54545 9.72727C4.49109 9.72727 3.63636 10.582 3.63636 11.6364C3.63636 12.6907 4.49109 13.5455 5.54545 13.5455C6.59982 13.5455 7.45455 12.6907 7.45455 11.6364C7.45455 11.2116 7.31583 10.8192 7.08123 10.5021ZM15.6364 18.7273C15.6364 17.6729 16.4911 16.8182 17.5455 16.8182C18.5998 16.8182 19.4545 17.6729 19.4545 18.7273C19.4545 19.7816 18.5998 20.6364 17.5455 20.6364C16.4911 20.6364 15.6364 19.7816 15.6364 18.7273Z" fill="#222222"/>
</svg>
