<svg width="24" height="24" viewBox="0 0 24 24" fill="none" xmlns="http://www.w3.org/2000/svg">
<path fill-rule="evenodd" clip-rule="evenodd" d="M2.18164 6.00002C2.18164 4.19255 3.64689 2.72729 5.45437 2.72729H9.67789C11.0686 2.72729 12.3074 3.60623 12.7669 4.91888L12.9109 5.33037C13.0513 5.73146 13.4298 6.00002 13.8548 6.00002H18.5453C20.3528 6.00002 21.818 7.46527 21.818 9.27275V18C21.818 19.8075 20.3528 21.2728 18.5453 21.2728H5.45437C3.64689 21.2728 2.18164 19.8075 2.18164 18V6.00002ZM12.818 10.6364C12.818 10.1845 12.4517 9.81824 11.9998 9.81824C11.548 9.81824 11.1816 10.1845 11.1816 10.6364V12.5455H9.27277C8.8209 12.5455 8.45459 12.9118 8.45459 13.3637C8.45459 13.8156 8.8209 14.1819 9.27277 14.1819H11.1816V16.091C11.1816 16.5428 11.548 16.9091 11.9998 16.9091C12.4517 16.9091 12.818 16.5428 12.818 16.091V14.1819H14.7273C15.1792 14.1819 15.5455 13.8156 15.5455 13.3637C15.5455 12.9118 15.1792 12.5455 14.7273 12.5455H12.818V10.6364Z" fill="#222222"/>
</svg>
