<svg width="24" height="24" viewBox="0 0 24 24" fill="none" xmlns="http://www.w3.org/2000/svg">
<path fill-rule="evenodd" clip-rule="evenodd" d="M4.90936 20.1819H19.0912C19.3924 20.1819 19.6366 19.9377 19.6366 19.6364V4.3637C19.6366 4.06246 19.3924 3.81825 19.0912 3.81825H8.7746C8.32439 3.81825 7.89407 4.00374 7.58494 4.33105L4.81061 7.26858C4.52373 7.57233 4.3639 7.97433 4.3639 8.39214V19.6364C4.3639 19.9377 4.60811 20.1819 4.90936 20.1819ZM4.90936 21.8182H19.0912C20.2962 21.8182 21.273 20.8414 21.273 19.6364V4.3637C21.273 3.15872 20.2962 2.18188 19.0912 2.18188H8.7746C7.87418 2.18188 7.01354 2.55286 6.39528 3.20748L3.62095 6.14501C3.04718 6.75253 2.72754 7.55651 2.72754 8.39214V19.6364C2.72754 20.8414 3.70437 21.8182 4.90936 21.8182ZM6.81845 9.81825C6.81845 9.36638 7.18476 9.00007 7.63663 9.00007H16.3639C16.8158 9.00007 17.1821 9.36638 17.1821 9.81825C17.1821 10.2701 16.8158 10.6364 16.3639 10.6364H7.63663C7.18476 10.6364 6.81845 10.2701 6.81845 9.81825ZM7.63663 13.9092C7.18476 13.9092 6.81845 14.2755 6.81845 14.7273C6.81845 15.1792 7.18476 15.5455 7.63663 15.5455H13.0912C13.543 15.5455 13.9094 15.1792 13.9094 14.7273C13.9094 14.2755 13.543 13.9092 13.0912 13.9092H7.63663Z" fill="#222222"/>
</svg>
