<svg width="24" height="24" viewBox="0 0 24 24" fill="none" xmlns="http://www.w3.org/2000/svg">
<path fill-rule="evenodd" clip-rule="evenodd" d="M1.63623 5.45462C1.63623 3.64714 3.10148 2.18188 4.90896 2.18188H9.67793C11.0687 2.18188 12.3075 3.06082 12.7669 4.37347L13.209 5.63643H19.0908C20.8983 5.63643 22.3635 7.10168 22.3635 8.90916V18.4849C22.3635 20.2924 20.8983 21.7576 19.0908 21.7576H4.90896C3.10148 21.7576 1.63623 20.2924 1.63623 18.4849V5.45462ZM13.209 7.27279C12.5136 7.27279 11.8942 6.83333 11.6645 6.177L11.2224 4.91404C10.9927 4.25771 10.3733 3.81825 9.67793 3.81825H4.90896C4.00522 3.81825 3.27259 4.55087 3.27259 5.45462V18.4849C3.27259 19.3887 4.00522 20.1213 4.90896 20.1213H19.0908C19.9945 20.1213 20.7271 19.3887 20.7271 18.4849V8.90916C20.7271 8.00542 19.9945 7.27279 19.0908 7.27279H13.209ZM11.9999 10.091C12.4517 10.091 12.818 10.4573 12.818 10.9092V12.8182H14.7271C15.179 12.8182 15.5453 13.1846 15.5453 13.6364C15.5453 14.0883 15.179 14.4546 14.7271 14.4546H12.818V16.3637C12.818 16.8156 12.4517 17.1819 11.9999 17.1819C11.548 17.1819 11.1817 16.8156 11.1817 16.3637V14.4546H9.27259C8.82072 14.4546 8.45441 14.0883 8.45441 13.6364C8.45441 13.1846 8.82072 12.8182 9.27259 12.8182H11.1817V10.9092C11.1817 10.4573 11.548 10.091 11.9999 10.091Z" fill="#222222"/>
</svg>
