<svg width="24" height="24" viewBox="0 0 24 24" fill="none" xmlns="http://www.w3.org/2000/svg">
<path fill-rule="evenodd" clip-rule="evenodd" d="M4.72754 21.8182C3.62297 21.8182 2.72754 20.9228 2.72754 19.8182V12.0001V8.28371C2.72754 7.51771 3.02055 6.78073 3.5465 6.22384L6.476 3.12201C7.04273 2.52195 7.83166 2.18188 8.65704 2.18188H12.0003H19.273C20.3776 2.18188 21.273 3.07732 21.273 4.18188V19.8182C21.273 20.9228 20.3776 21.8182 19.273 21.8182H4.72754ZM6.81836 9.81818C6.81836 9.36631 7.18467 9 7.63654 9H16.3638C16.8157 9 17.182 9.36631 17.182 9.81818C17.182 10.2701 16.8157 10.6364 16.3638 10.6364H7.63654C7.18467 10.6364 6.81836 10.2701 6.81836 9.81818ZM7.63654 13.9092C7.18467 13.9092 6.81836 14.2755 6.81836 14.7274C6.81836 15.1792 7.18467 15.5455 7.63654 15.5455H13.0911C13.543 15.5455 13.9093 15.1792 13.9093 14.7274C13.9093 14.2755 13.543 13.9092 13.0911 13.9092H7.63654Z" fill="#222222"/>
</svg>
