<svg width="24" height="24" viewBox="0 0 24 24" fill="none" xmlns="http://www.w3.org/2000/svg">
<path fill-rule="evenodd" clip-rule="evenodd" d="M4.5 19C4.5 19.2761 4.72386 19.5 5 19.5H19C19.1198 19.5 19.2298 19.4579 19.3159 19.3876L20.3779 20.4496C20.0192 20.7907 19.534 21 19 21H5C3.89543 21 3 20.1046 3 19V11.5V9.01022C3 8.23711 3.29846 7.49385 3.83313 6.93544L5.31554 5.38723L6.37646 6.44814L4.91657 7.97283C4.64923 8.25203 4.5 8.62366 4.5 9.01022V11.5V19ZM19.5 17.1691V4C19.5 3.72386 19.2761 3.5 19 3.5H12H9.83979C9.43067 3.5 9.0393 3.66711 8.75635 3.96261L7.55168 5.22076L6.49077 4.15985L7.67292 2.92522C8.23881 2.33422 9.02155 2 9.83979 2H12H19C20.1046 2 21 2.89543 21 4V18.6691L19.5 17.1691Z" fill="#222222"/>
<path fill-rule="evenodd" clip-rule="evenodd" d="M3.21967 4.21967C3.51256 3.92678 3.98744 3.92678 4.28033 4.21967L21.2803 21.2197C21.5732 21.5126 21.5732 21.9874 21.2803 22.2803C20.9874 22.5732 20.5126 22.5732 20.2197 22.2803L3.21967 5.28033C2.92678 4.98744 2.92678 4.51256 3.21967 4.21967Z" fill="#222222"/>
</svg>
