<svg width="24" height="24" viewBox="0 0 24 24" fill="none" xmlns="http://www.w3.org/2000/svg">
<path fill-rule="evenodd" clip-rule="evenodd" d="M1.63623 5.45462C1.63623 3.64714 3.10148 2.18188 4.90896 2.18188H9.67793C11.0687 2.18188 12.3075 3.06082 12.7669 4.37347L13.209 5.63643H19.0908C20.8983 5.63643 22.3635 7.10168 22.3635 8.90916V18.4849C22.3635 20.2924 20.8983 21.7576 19.0908 21.7576H4.90896C3.10148 21.7576 1.63623 20.2924 1.63623 18.4849V5.45462ZM13.209 7.27279C12.5136 7.27279 11.8942 6.83333 11.6645 6.177L11.2224 4.91404C10.9927 4.25771 10.3733 3.81825 9.67793 3.81825H4.90896C4.00522 3.81825 3.27259 4.55087 3.27259 5.45462V18.4849C3.27259 19.3887 4.00522 20.1213 4.90896 20.1213H19.0908C19.9945 20.1213 20.7271 19.3887 20.7271 18.4849V8.90916C20.7271 8.00542 19.9945 7.27279 19.0908 7.27279H13.209Z" fill="#222222"/>
<path d="M11.4011 9.85686C11.5796 9.46591 12.1118 9.46591 12.2904 9.85686L13.2372 11.9297L15.4167 12.2298C15.8278 12.2864 15.9923 12.8164 15.6914 13.1147L14.0974 14.6954L14.4976 16.9531C14.5732 17.3793 14.1426 17.7067 13.7782 17.5001L11.8457 16.4044L9.91319 17.5001C9.54886 17.7067 9.11825 17.3793 9.19379 16.9531L9.594 14.6954L8 13.1147C7.69911 12.8164 7.86364 12.2864 8.27474 12.2298L10.4542 11.9297L11.4011 9.85686Z" fill="#222222"/>
</svg>
