<svg width="24" height="24" viewBox="0 0 24 24" fill="none" xmlns="http://www.w3.org/2000/svg">
<path d="M11.9006 17.5C11.4488 17.5 11.0825 17.1337 11.0825 16.6818L11.0825 9.29344L7.75588 11.7727C7.40302 12.055 6.88815 11.9977 6.60588 11.6449C6.32361 11.292 6.38084 10.7772 6.7337 10.4949L11.3899 6.952C11.6887 6.71296 12.1133 6.71297 12.4121 6.95204L17.128 10.6227C17.4808 10.905 17.538 11.4199 17.2557 11.7727C16.9734 12.1255 16.4586 12.1827 16.1057 11.9004L12.7188 9.29303L12.7188 16.6818C12.7188 17.1337 12.3525 17.5 11.9006 17.5Z" fill="#222222"/>
<path d="M12 22.0908C12 22.5427 12.3676 22.9122 12.8182 22.8788C18.4614 22.4603 22.9091 17.7489 22.9091 11.9999C22.9091 6.25092 18.4614 1.53948 12.8182 1.12104C12.3676 1.08763 12 1.45712 12 1.90898C12 2.36086 12.3676 2.72341 12.8177 2.76275C17.5562 3.17679 21.2728 7.15486 21.2728 11.9999C21.2728 16.845 17.5562 20.8231 12.8177 21.2371C12.3676 21.2764 12 21.6389 12 22.0908Z" fill="#222222"/>
<path fill-rule="evenodd" clip-rule="evenodd" d="M5.96998 3.03821C6.4657 2.70547 6.99536 2.40975 7.55668 2.15638C8.11801 1.90301 8.69014 1.70141 9.2676 1.54975C9.69493 1.43752 10.1323 1.69296 10.2446 2.12029C10.3568 2.54763 10.1014 2.98504 9.67404 3.09727C9.1825 3.22637 8.69462 3.39819 8.21493 3.61471C7.73524 3.83122 7.28365 4.08345 6.86169 4.36669C6.49484 4.61292 5.99783 4.51515 5.7516 4.1483C5.50536 3.78145 5.60313 3.28445 5.96998 3.03821ZM3.77327 6.25611C4.15474 6.47904 4.28326 6.96899 4.06034 7.35046C3.53836 8.24368 3.16931 9.21997 2.96992 10.2351C2.88476 10.6687 2.46427 10.9511 2.03073 10.8659C1.59719 10.7808 1.31476 10.3603 1.39992 9.92676C1.63382 8.73591 2.06661 7.59098 2.67893 6.54318C2.90185 6.16172 3.39181 6.03319 3.77327 6.25611ZM2.12007 13.7553C2.54741 13.6431 2.98482 13.8986 3.09705 14.3259C3.22614 14.8174 3.39797 15.3053 3.61449 15.785C3.831 16.2647 4.08323 16.7163 4.36647 17.1382C4.6127 17.5051 4.51493 18.0021 4.14808 18.2483C3.78123 18.4946 3.28423 18.3968 3.03799 18.0299C2.70525 17.5342 2.40953 17.0046 2.15616 16.4432C1.90279 15.8819 1.70119 15.3098 1.54953 14.7323C1.4373 14.305 1.69274 13.8676 2.12007 13.7553ZM6.25589 20.2267C6.47882 19.8452 6.96877 19.7167 7.35024 19.9396C8.24346 20.4616 9.21975 20.8306 10.2349 21.03C10.6685 21.1152 10.9509 21.5357 10.8657 21.9692C10.7806 22.4027 10.3601 22.6852 9.92654 22.6C8.73569 22.3661 7.59076 21.9333 6.54296 21.321C6.16149 21.0981 6.03297 20.6081 6.25589 20.2267Z" fill="#222222"/>
</svg>
