<svg width="24" height="24" viewBox="0 0 24 24" fill="none" xmlns="http://www.w3.org/2000/svg">
<path fill-rule="evenodd" clip-rule="evenodd" d="M9 2C5.13401 2 2 5.13401 2 9V15C2 18.866 5.13401 22 9 22H15C18.866 22 22 18.866 22 15V9C22 5.13401 18.866 2 15 2H9ZM8.25 7.83333V15.9583H6.65042V11.2586C6.65042 11.0689 6.65395 10.8129 6.66102 10.4905C6.66808 10.168 6.67867 9.88545 6.6928 9.64268C6.65749 9.6882 6.58157 9.76975 6.46504 9.88734C6.34852 10.0049 6.24082 10.1092 6.14195 10.2003L5.2733 10.9513L4.5 9.91579L6.93644 7.83333H8.25ZM18.25 15.9583V7.83333H16.9364L14.5 9.91579L15.2733 10.9513L16.1419 10.2003C16.2408 10.1092 16.3485 10.0049 16.465 9.88734C16.5816 9.76975 16.6575 9.6882 16.6928 9.64268C16.6787 9.88545 16.6681 10.168 16.661 10.4905C16.654 10.8129 16.6504 11.0689 16.6504 11.2586V15.9583H18.25ZM12 11.1667C12.4602 11.1667 12.8333 10.7936 12.8333 10.3333C12.8333 9.8731 12.4602 9.5 12 9.5C11.5398 9.5 11.1667 9.8731 11.1667 10.3333C11.1667 10.7936 11.5398 11.1667 12 11.1667ZM12 15.3333C12.4602 15.3333 12.8333 14.9602 12.8333 14.5C12.8333 14.0398 12.4602 13.6667 12 13.6667C11.5398 13.6667 11.1667 14.0398 11.1667 14.5C11.1667 14.9602 11.5398 15.3333 12 15.3333Z" fill="#222222"/>
</svg>
