<svg width="24" height="24" viewBox="0 0 24 24" fill="none" xmlns="http://www.w3.org/2000/svg">
<path d="M12.9528 3.7106C12.8218 3.45705 13.0126 3.1265 13.2977 3.11316L17.1829 2.93132C17.4702 2.91787 17.6374 3.23618 17.4833 3.50309L16.7832 4.71584L16.8399 4.74833C20.9783 7.1376 22.3512 12.4717 19.9376 16.6522C18.6621 18.8613 16.5805 20.3146 14.292 20.8426C13.9153 20.9295 13.5394 20.6946 13.4525 20.3179C13.3656 19.9412 13.6005 19.5653 13.9772 19.4784C15.8996 19.0349 17.6501 17.8143 18.7252 15.9522C20.7625 12.4233 19.5908 7.9531 16.1399 5.96076L16.0831 5.92832L15.3833 7.14051C15.2292 7.40742 14.8699 7.42172 14.7379 7.16619L12.9528 3.7106Z" fill="#222222"/>
<path d="M10.7029 20.8869C10.988 20.8735 11.1788 20.543 11.0478 20.2894L9.26272 16.8338C9.13072 16.5783 8.77142 16.5926 8.61732 16.8595L7.91746 18.0717C7.8985 18.061 7.87958 18.0502 7.86068 18.0393C4.40984 16.0469 3.23806 11.5767 5.27545 8.04783C6.35054 6.18572 8.10096 4.96514 10.0234 4.52159C10.4001 4.43467 10.635 4.05883 10.5481 3.68213C10.4612 3.30543 10.0853 3.07051 9.70862 3.15743C7.42007 3.68546 5.33847 5.13868 4.06302 7.34783C1.64944 11.5283 3.02234 16.8624 7.16068 19.2517C7.17957 19.2626 7.19849 19.2734 7.21744 19.2842L6.51726 20.4969C6.36316 20.7638 6.53043 21.0821 6.81772 21.0687L10.7029 20.8869Z" fill="#222222"/>
<path d="M10.4495 13.7978C10.3423 13.7978 10.2408 13.7814 10.1562 13.7542C10.0659 13.7214 9.99263 13.6832 9.93059 13.6232C9.86855 13.5686 9.81779 13.5032 9.78395 13.4213C9.75011 13.3449 9.73319 13.2576 9.73319 13.1648H9C9 13.3613 9.03948 13.5359 9.11844 13.6832C9.1974 13.8306 9.30456 13.9561 9.43427 14.0597C9.56963 14.158 9.72191 14.2343 9.89675 14.2835C10.0659 14.338 10.2464 14.3653 10.4382 14.3653C10.6469 14.3653 10.8443 14.338 11.0191 14.2835C11.1996 14.2289 11.3575 14.147 11.4872 14.0434C11.6169 13.9397 11.7241 13.8087 11.7974 13.6505C11.8707 13.4922 11.9102 13.3176 11.9102 13.1212C11.9102 13.0175 11.8989 12.9138 11.8707 12.8156C11.8425 12.7174 11.803 12.6246 11.741 12.5373C11.6846 12.45 11.6056 12.3736 11.5154 12.3027C11.4195 12.2318 11.3067 12.1772 11.1714 12.1335C11.2842 12.0844 11.3801 12.0244 11.4646 11.9535C11.5492 11.8825 11.6169 11.8061 11.6733 11.7243C11.7297 11.6424 11.7692 11.5606 11.7974 11.4733C11.8256 11.386 11.8369 11.2987 11.8369 11.2114C11.8369 11.0149 11.803 10.8403 11.7354 10.6875C11.6677 10.5347 11.5718 10.4092 11.4477 10.311C11.3349 10.2074 11.1827 10.131 11.0135 10.0764C10.8386 10.0273 10.6469 10 10.4382 10C10.2351 10 10.049 10.0273 9.87419 10.0873C9.70499 10.1473 9.55271 10.2292 9.42863 10.3329C9.3102 10.4365 9.21432 10.5566 9.141 10.6984C9.07332 10.8403 9.03948 10.9931 9.03948 11.1623H9.77267C9.77267 11.0695 9.78959 10.9877 9.82343 10.9167C9.85727 10.8458 9.90239 10.7803 9.96443 10.7312C10.0265 10.6821 10.0941 10.6384 10.1787 10.6111C10.2633 10.5839 10.3479 10.5675 10.4495 10.5675C10.6751 10.5675 10.8443 10.6221 10.9514 10.7366C11.0586 10.8458 11.115 11.004 11.115 11.2059C11.115 11.3041 11.0981 11.3914 11.0699 11.4733C11.0417 11.5551 10.9909 11.6206 10.9289 11.6752C10.8668 11.7298 10.7879 11.7734 10.6976 11.8061C10.6074 11.8389 10.4946 11.8553 10.3705 11.8553H9.93623V12.4173H10.3705C10.4946 12.4173 10.6074 12.4282 10.7089 12.4555C10.8104 12.4828 10.895 12.5264 10.9627 12.581C11.0304 12.641 11.0868 12.7119 11.1263 12.7993C11.1657 12.8866 11.1827 12.9902 11.1827 13.1103C11.1827 13.334 11.115 13.5032 10.9853 13.6177C10.8555 13.7432 10.6751 13.7978 10.4495 13.7978Z" fill="#222222"/>
<path fill-rule="evenodd" clip-rule="evenodd" d="M14.705 10.1473C14.9451 10.2455 15.1525 10.3874 15.3271 10.5675C15.5017 10.7476 15.6381 10.9658 15.7363 11.2223C15.8291 11.4787 15.8782 11.7625 15.8782 12.079V12.2972C15.8782 12.6137 15.8291 12.8975 15.7363 13.1539C15.6436 13.4049 15.5072 13.6232 15.3326 13.8033C15.1579 13.9833 14.9451 14.1198 14.6996 14.218C14.454 14.3162 14.1757 14.3653 13.8756 14.3653H12.6206V10H13.9084C14.203 10 14.4704 10.0491 14.705 10.1473ZM15.0378 12.9084C15.0869 12.7229 15.1142 12.521 15.1142 12.2918V12.0736C15.1142 11.5989 15.0105 11.2387 14.8031 10.9877C14.6012 10.7367 14.3011 10.6112 13.9083 10.6112H13.379V13.7597H13.8755C14.0774 13.7597 14.2575 13.7269 14.4157 13.6615C14.5685 13.596 14.6995 13.4978 14.8031 13.3723C14.9068 13.2468 14.9832 13.0885 15.0378 12.9084Z" fill="#222222"/>
</svg>
