<svg width="24" height="24" viewBox="0 0 24 24" fill="none" xmlns="http://www.w3.org/2000/svg">
<path fill-rule="evenodd" clip-rule="evenodd" d="M2 7C2 5.34315 3.34315 4 5 4H19C20.6569 4 22 5.34315 22 7V17C22 18.6569 20.6569 20 19 20H5C3.34315 20 2 18.6569 2 17V7ZM7.5 10.5H10C11 10.5 11 9 10 9H7C6.45 9 6 9.45 6 10V14C6 14.55 6.45 15 7 15H10C11 15 11 13.5 10 13.5H7.5V10.5ZM17 10.5H14.5V13.5H17C18 13.5 18 15 17 15H14C13.45 15 13 14.55 13 14V10C13 9.45 13.45 9 14 9H17C18 9 18 10.5 17 10.5Z" fill="#222222"/>
</svg>
