<svg width="24" height="24" viewBox="0 0 24 24" fill="none" xmlns="http://www.w3.org/2000/svg">
<path fill-rule="evenodd" clip-rule="evenodd" d="M4.5 11H2.5V9.75C2.5 9.33579 2.16421 9 1.75 9C1.33579 9 1 9.33579 1 9.75V14.25C1 14.6642 1.33579 15 1.75 15C2.16421 15 2.5 14.6642 2.5 14.25V12.5H4.5V14.25C4.5 14.6642 4.83579 15 5.25 15C5.66421 15 6 14.6642 6 14.25V9.75C6 9.33579 5.66421 9 5.25 9C4.83579 9 4.5 9.33579 4.5 9.75V11ZM7 9.75C7 10.1642 7.33579 10.5 7.75 10.5H8.5V14.25C8.5 14.6642 8.83579 15 9.25 15C9.66421 15 10 14.6642 10 14.25V10.5H10.75C11.1642 10.5 11.5 10.1642 11.5 9.75C11.5 9.33579 11.1642 9 10.75 9H7.75C7.33579 9 7 9.33579 7 9.75ZM14 10.5H13.25C12.8358 10.5 12.5 10.1642 12.5 9.75C12.5 9.33579 12.8358 9 13.25 9H16.25C16.6642 9 17 9.33579 17 9.75C17 10.1642 16.6642 10.5 16.25 10.5H15.5V14.25C15.5 14.6642 15.1642 15 14.75 15C14.3358 15 14 14.6642 14 14.25V10.5ZM21.5 9H19C18.4477 9 18 9.44772 18 10V14.25C18 14.6642 18.3358 15 18.75 15C19.1642 15 19.5 14.6642 19.5 14.25V13H21.5C22.3 13 23 12.3 23 11.5V10.5C23 9.7 22.3 9 21.5 9ZM19.5 11C19.5 11.2761 19.7239 11.5 20 11.5H21C21.2761 11.5 21.5 11.2761 21.5 11C21.5 10.7239 21.2761 10.5 21 10.5H20C19.7239 10.5 19.5 10.7239 19.5 11Z" fill="#222222"/>
</svg>
