<svg width="24" height="24" viewBox="0 0 24 24" fill="none" xmlns="http://www.w3.org/2000/svg">
<path d="M18.6201 3.23847C18.8607 3.43619 19 3.73041 19 4.04083V13.7551C19 13.798 18.9974 13.8403 18.9923 13.8819C18.9974 13.9546 19 14.028 19 14.102C19 15.8265 17.5944 17.2245 15.8605 17.2245C14.1265 17.2245 12.7209 15.8265 12.7209 14.102C12.7209 12.3776 14.1265 10.9796 15.8605 10.9796C16.2274 10.9796 16.5796 11.0422 16.907 11.1573V5.30049L10.2791 6.56612V16.5306C10.2791 16.5735 10.2765 16.6158 10.2714 16.6574C10.2765 16.7301 10.2791 16.8035 10.2791 16.8776C10.2791 18.602 8.87345 20 7.13953 20C5.40562 20 4 18.602 4 16.8776C4 15.1531 5.40562 13.7551 7.13953 13.7551C7.50648 13.7551 7.85872 13.8177 8.18605 13.9328V5.70613C8.18605 5.20698 8.54235 4.7781 9.03523 4.68398L17.7562 3.01868C18.0627 2.96015 18.3795 3.04074 18.6201 3.23847Z" fill="#222222"/>
</svg>
