<svg width="24" height="24" viewBox="0 0 24 24" fill="none" xmlns="http://www.w3.org/2000/svg">
<path fill-rule="evenodd" clip-rule="evenodd" d="M12.9526 4.28736C13.2393 4.04989 13.6169 3.95256 13.9827 4.02186C15.1186 4.23709 16.5787 5.05357 17.7418 6.1731C18.9177 7.30494 20 8.95085 20 10.9342C20 11.6246 19.4404 12.1842 18.75 12.1842C18.0596 12.1842 17.5 11.6246 17.5 10.9342C17.5 9.88601 16.9156 8.84772 16.0082 7.97429C15.6778 7.65635 15.3321 7.38684 15 7.16731V16.25C15 16.9404 14.4404 17.5 13.75 17.5C13.0596 17.5 12.5 16.9404 12.5 16.25V5.25001C12.5 4.87774 12.6659 4.52484 12.9526 4.28736Z" fill="#222222"/>
<circle cx="10.5" cy="16.5002" r="4.5" fill="#222222"/>
</svg>
