<svg width="24" height="24" viewBox="0 0 24 24" fill="none" xmlns="http://www.w3.org/2000/svg">
<path fill-rule="evenodd" clip-rule="evenodd" d="M7.5 9H5C4.44772 9 4 9.44772 4 10V14.25C4 14.6642 4.33579 15 4.75 15C5.16421 15 5.5 14.6642 5.5 14.25V13H7.5C8.3 13 9 12.3 9 11.5V10.5C9 9.7 8.3 9 7.5 9ZM5.5 11C5.5 11.2761 5.72386 11.5 6 11.5H7C7.27614 11.5 7.5 11.2761 7.5 11C7.5 10.7239 7.27614 10.5 7 10.5H6C5.72386 10.5 5.5 10.7239 5.5 11Z" fill="#222222"/>
<path fill-rule="evenodd" clip-rule="evenodd" d="M11.6709 10.448C11.4922 10.4213 11.3333 10.5627 11.3333 10.7434V13.2566C11.3333 13.4373 11.4922 13.5788 11.6709 13.552C11.9201 13.5146 12.2089 13.4593 12.3432 13.3819C12.6806 13.1875 13 12.821 13 12C13 11.179 12.6806 10.8125 12.3432 10.6181C12.2089 10.5407 11.9201 10.4854 11.6709 10.448ZM12.9901 9.40732C13.7638 9.85315 14.3333 10.6911 14.3333 12C14.3333 13.3089 13.7638 14.1469 12.9901 14.5927C12.2717 15.0067 11.1149 15.0448 10.576 14.968C10.2459 14.9209 10 14.628 10 14.2821V9.71794C10 9.37198 10.2459 9.07912 10.576 9.03205C11.1149 8.95518 12.2717 8.99333 12.9901 9.40732Z" fill="#222222"/>
<path d="M19.25 10.5C19.6642 10.5 20 10.1642 20 9.75C20 9.33579 19.6642 9 19.25 9H16.5C15.9477 9 15.5 9.44772 15.5 10V14.25C15.5 14.6642 15.8358 15 16.25 15C16.6642 15 17 14.6642 17 14.25V13H18.75C19.1642 13 19.5 12.6642 19.5 12.25C19.5 11.8358 19.1642 11.5 18.75 11.5H17V10.5H19.25Z" fill="#222222"/>
</svg>
