<svg width="24" height="24" viewBox="0 0 24 24" fill="none" xmlns="http://www.w3.org/2000/svg">
<path fill-rule="evenodd" clip-rule="evenodd" d="M5 4C3.34315 4 2 5.34315 2 7V17C2 18.6569 3.34315 20 5 20H19C20.6569 20 22 18.6569 22 17V7C22 5.34315 20.6569 4 19 4H5ZM9 11.5C9 12.35 8.35 13 7.5 13H5.5V14.25C5.5 14.6642 5.16421 15 4.75 15C4.33579 15 4 14.6642 4 14.25V10C4 9.44772 4.44772 9 5 9H7.5C8.35 9 9 9.65 9 10.5V11.5ZM7 10.5C7.27614 10.5 7.5 10.7239 7.5 11C7.5 11.2761 7.27614 11.5 7 11.5H6C5.72386 11.5 5.5 11.2761 5.5 11C5.5 10.7239 5.72386 10.5 6 10.5H7ZM12.5 14.25C12.5 14.6642 12.1642 15 11.75 15C11.3358 15 11 14.6642 11 14.25V9.75C11 9.33579 11.3358 9 11.75 9C12.1642 9 12.5 9.33579 12.5 9.75V14.25ZM20 14.2046C20 14.6439 19.6439 15 19.2046 15C18.9504 15 18.7115 14.8785 18.5617 14.673L16.25 11.5V14.375C16.25 14.7202 15.9702 15 15.625 15C15.2798 15 15 14.7202 15 14.375V9.82529C15 9.3695 15.3695 9 15.8253 9C16.0918 9 16.3419 9.12872 16.4969 9.3456L18.75 12.5V9.625C18.75 9.27982 19.0298 9 19.375 9C19.7202 9 20 9.27982 20 9.625V14.2046Z" fill="#222222"/>
</svg>
