<svg width="24" height="24" viewBox="0 0 24 24" fill="none" xmlns="http://www.w3.org/2000/svg">
<path d="M11.6602 1.85538C11.3883 1.94205 11.2895 2.31072 11.4816 2.52174L14.1003 5.39755C14.2939 5.61021 14.6373 5.50341 14.717 5.20571L15.0793 3.85368L15.1426 3.87032C18.7686 4.84193 21.01 8.46139 20.3756 12.1684C20.3104 12.5494 20.5284 12.9333 20.9018 13.0334C21.2752 13.1334 21.6621 12.9115 21.7328 12.5314C22.5586 8.09217 19.8954 3.69445 15.5049 2.51803L15.4417 2.50134L15.8041 1.14869C15.8839 0.850995 15.6399 0.586827 15.3659 0.674173L11.6602 1.85538Z" fill="#222222"/>
<path d="M12.5183 21.4782C12.7104 21.6892 12.6117 22.0578 12.3397 22.1445L8.63401 23.3257C8.35999 23.4131 8.11603 23.1489 8.1958 22.8512L8.55824 21.4986L8.49501 21.4819C4.10452 20.3054 1.44129 15.9077 2.26708 11.4685C2.33778 11.0884 2.72467 10.8665 3.0981 10.9665C3.47152 11.0666 3.68956 11.4505 3.62434 11.8315C2.98987 15.5385 5.23128 19.158 8.85735 20.1296L8.9206 20.1462L9.28287 18.7942C9.36264 18.4965 9.706 18.3897 9.89964 18.6023L12.5183 21.4782Z" fill="#222222"/>
<path fill-rule="evenodd" clip-rule="evenodd" d="M8.96368 4.80367C9.61626 4.14242 10.6766 4.14923 11.3292 4.80184L19.1964 12.6691C19.8577 13.3216 19.8509 14.382 19.1983 15.0346L15.0365 19.1964C14.3839 19.8577 13.3235 19.8509 12.6709 19.1983L4.80367 11.331C4.14242 10.6785 4.14923 9.61812 4.80184 8.96551L8.96368 4.80367ZM10.3534 5.77765C10.2343 5.65853 10.0525 5.66458 9.94547 5.77346L9.94134 5.77767L9.94132 5.77765L5.77765 9.94132C5.65853 10.0604 5.66458 10.2422 5.77346 10.3492L5.77767 10.3534L5.77765 10.3534L13.6467 18.2225C13.7658 18.3416 13.9476 18.3355 14.0546 18.2267L14.0588 18.2224L14.0588 18.2225L18.2225 14.0588C18.3416 13.9397 18.3355 13.7579 18.2267 13.6509L18.2224 13.6467L18.2225 13.6467L10.3534 5.77765Z" fill="#222222"/>
</svg>
