<svg width="24" height="24" viewBox="0 0 24 24" fill="none" xmlns="http://www.w3.org/2000/svg">
<path fill-rule="evenodd" clip-rule="evenodd" d="M7 2H17C18.1 2 19 2.9 19 4V20C19 21.1 18.1 22 17 22L7 21.99C5.9 21.99 5 21.1 5 20V4C5 2.9 5.9 2 7 2ZM14 7C14 5.9 13.1 5 12 5C10.89 5 10 5.9 10 7C10 8.1 10.89 9 12 9C13.1 9 14 8.1 14 7ZM12 19C9.792 19 8 17.208 8 15C8 12.792 9.792 11 12 11C14.208 11 16 12.792 16 15C16 17.208 14.208 19 12 19ZM9 15C9 13.34 10.34 12 12 12C13.66 12 15 13.34 15 15C15 16.66 13.66 18 12 18C10.34 18 9 16.66 9 15Z" fill="#222222"/>
</svg>
