<svg width="24" height="24" viewBox="0 0 24 24" fill="none" xmlns="http://www.w3.org/2000/svg">
<path fill-rule="evenodd" clip-rule="evenodd" d="M2 7C2 5.34315 3.34315 4 5 4H19C20.6569 4 22 5.34315 22 7V17C22 18.6569 20.6569 20 19 20H5C3.34315 20 2 18.6569 2 17V7ZM5 12.75C5 12.3358 5.33579 12 5.75 12H7.25C7.66421 12 8 12.3358 8 12.75C8 13.1642 7.66421 13.5 7.25 13.5H5.75C5.33579 13.5 5 13.1642 5 12.75ZM13.25 17C13.6642 17 14 16.6642 14 16.25C14 15.8358 13.6642 15.5 13.25 15.5H5.75C5.33579 15.5 5 15.8358 5 16.25C5 16.6642 5.33579 17 5.75 17H13.25ZM19 16.25C19 16.6642 18.6642 17 18.25 17H16.75C16.3358 17 16 16.6642 16 16.25C16 15.8358 16.3358 15.5 16.75 15.5H18.25C18.6642 15.5 19 15.8358 19 16.25ZM18.25 13.5C18.6642 13.5 19 13.1642 19 12.75C19 12.3358 18.6642 12 18.25 12H10.75C10.3358 12 10 12.3358 10 12.75C10 13.1642 10.3358 13.5 10.75 13.5H18.25Z" fill="#222222"/>
</svg>
