<svg width="24" height="24" viewBox="0 0 24 24" fill="none" xmlns="http://www.w3.org/2000/svg">
<path fill-rule="evenodd" clip-rule="evenodd" d="M8.45437 2.18171C8.45437 1.72984 8.08806 1.36353 7.63619 1.36353C7.18432 1.36353 6.818 1.72984 6.818 2.18171V3.27262L5.45437 3.27262C3.64689 3.27262 2.18164 4.73787 2.18164 6.54534V18.5453C2.18164 20.3528 3.64689 21.8181 5.45437 21.8181H18.5453C20.3528 21.8181 21.818 20.3528 21.818 18.5453V6.54534C21.818 4.73787 20.3528 3.27262 18.5453 3.27262H17.1816V2.18171C17.1816 1.72984 16.8153 1.36353 16.3635 1.36353C15.9116 1.36353 15.5453 1.72984 15.5453 2.18171V3.27262L8.45437 3.27262V2.18171ZM6.27255 9.27262C6.27255 8.82075 6.63886 8.45443 7.09073 8.45443H16.9089C17.3608 8.45443 17.7271 8.82075 17.7271 9.27262C17.7271 9.72449 17.3608 10.0908 16.9089 10.0908H7.09073C6.63886 10.0908 6.27255 9.72449 6.27255 9.27262Z" fill="#222222"/>
</svg>
