<svg width="24" height="24" viewBox="0 0 24 24" fill="none" xmlns="http://www.w3.org/2000/svg">
<path fill-rule="evenodd" clip-rule="evenodd" d="M7.63619 1.36353C8.08806 1.36353 8.45437 1.72984 8.45437 2.18171V3.27262L15.5453 3.27262V2.18171C15.5453 1.72984 15.9116 1.36353 16.3635 1.36353C16.8153 1.36353 17.1816 1.72984 17.1816 2.18171V3.27262H18.5453C20.3528 3.27262 21.818 4.73787 21.818 6.54534V18.5453C21.818 20.3528 20.3528 21.8181 18.5453 21.8181H5.45437C3.64689 21.8181 2.18164 20.3528 2.18164 18.5453V6.54534C2.18164 4.73787 3.64689 3.27262 5.45437 3.27262L6.818 3.27262V2.18171C6.818 1.72984 7.18432 1.36353 7.63619 1.36353ZM5.45437 4.90898H18.5453C19.449 4.90898 20.1816 5.64161 20.1816 6.54534V18.5453C20.1816 19.4491 19.449 20.1817 18.5453 20.1817H5.45437C4.55063 20.1817 3.818 19.4491 3.818 18.5453V6.54534C3.818 5.6416 4.55063 4.90898 5.45437 4.90898ZM7.09073 8.45443C6.63886 8.45443 6.27255 8.82075 6.27255 9.27262C6.27255 9.72449 6.63886 10.0908 7.09073 10.0908H16.9089C17.3608 10.0908 17.7271 9.72449 17.7271 9.27262C17.7271 8.82075 17.3608 8.45443 16.9089 8.45443H7.09073Z" fill="#222222"/>
</svg>
