<svg width="24" height="24" viewBox="0 0 24 24" fill="none" xmlns="http://www.w3.org/2000/svg">
<path fill-rule="evenodd" clip-rule="evenodd" d="M4.36355 4.90908H19.6363C20.54 4.90908 21.2726 5.64171 21.2726 6.54545V17.4545C21.2726 18.3583 20.54 19.0909 19.6363 19.0909H4.36355C3.45981 19.0909 2.72718 18.3583 2.72718 17.4545V6.54545C2.72718 5.64171 3.45981 4.90908 4.36355 4.90908ZM1.09082 6.54545C1.09082 4.73797 2.55607 3.27272 4.36355 3.27272H19.6363C21.4438 3.27272 22.909 4.73797 22.909 6.54545V17.4545C22.909 19.262 21.4438 20.7273 19.6363 20.7273H4.36355C2.55607 20.7273 1.09082 19.262 1.09082 17.4545V6.54545ZM7.05639 8.08834C6.70354 7.80605 6.18866 7.86325 5.90638 8.2161C5.62409 8.56894 5.68129 9.08382 6.03414 9.36611L10.1255 12.6393C11.2212 13.5159 12.778 13.5159 13.8737 12.6394L17.9655 9.36612C18.3183 9.08385 18.3755 8.56897 18.0933 8.21612C17.811 7.86326 17.2961 7.80605 16.9433 8.08832L12.8515 11.3616C12.3535 11.76 11.6458 11.76 11.1478 11.3616L7.05639 8.08834Z" fill="#222222"/>
</svg>
