<svg width="24" height="24" viewBox="0 0 24 24" fill="none" xmlns="http://www.w3.org/2000/svg">
<path fill-rule="evenodd" clip-rule="evenodd" d="M10.849 16.2857H18.6667C19.5871 16.2857 20.3333 15.5182 20.3333 14.5714V5.42857C20.3333 4.4818 19.5871 3.71429 18.6667 3.71429H5.33333C4.41286 3.71429 3.66667 4.4818 3.66667 5.42857V14.5714C3.66667 15.5182 4.41286 16.2857 5.33333 16.2857H7.5L7.53775 19.7143L10.849 16.2857ZM2 5.42857C2 3.53502 3.49238 2 5.33333 2H18.6667C20.5076 2 22 3.53502 22 5.42857V14.5714C22 16.465 20.5076 18 18.6667 18H11.8113L8.40082 21.5793C8.14486 21.848 7.79001 22 7.41896 22C6.67494 22 6.06984 21.4006 6.06282 20.6566L6.03775 18H5.33333C3.49238 18 2 16.465 2 14.5714V5.42857ZM16.7222 7.71429C16.7222 8.18768 16.3491 8.57143 15.8888 8.57143H8.11106C7.65082 8.57143 7.27772 8.18768 7.27772 7.71429C7.27772 7.2409 7.65082 6.85715 8.11106 6.85715H15.8888C16.3491 6.85715 16.7222 7.2409 16.7222 7.71429ZM15.8888 13.1428C16.3491 13.1428 16.7222 12.7591 16.7222 12.2857C16.7222 11.8123 16.3491 11.4286 15.8888 11.4286H8.11106C7.65082 11.4286 7.27772 11.8123 7.27772 12.2857C7.27772 12.7591 7.65082 13.1428 8.11106 13.1428H15.8888Z" fill="#222222"/>
</svg>
