<svg width="24" height="24" viewBox="0 0 24 24" fill="none" xmlns="http://www.w3.org/2000/svg">
<path d="M21.2053 10.0459C21.2205 10.121 21.2008 10.1879 21.1507 10.2447C21.0975 10.305 21.0111 10.35 20.9058 10.35H14.0023C13.8087 10.35 13.6518 10.1928 13.6523 9.9992L13.668 3.08873C13.6683 2.98386 13.7131 2.89786 13.773 2.84495C13.8294 2.79516 13.8954 2.77569 13.9697 2.7905C17.5987 3.51429 20.4668 6.38882 21.2053 10.0459Z" stroke="#222222" stroke-width="1.3"/>
<path d="M10.784 3.13244C10.784 2.53106 10.2546 2.06201 9.67011 2.20341C5.26894 3.26802 2 7.23284 2 11.9612C2 17.5055 6.49454 22 12.0388 22C16.7672 22 20.732 18.7311 21.7966 14.3299C21.938 13.7454 21.4689 13.216 20.8676 13.216H11.784C11.2317 13.216 10.784 12.7683 10.784 12.216V3.13244Z" stroke="#222222" stroke-width="1.3"/>
</svg>
