<svg width="24" height="24" viewBox="0 0 24 24" fill="none" xmlns="http://www.w3.org/2000/svg">
<path fill-rule="evenodd" clip-rule="evenodd" d="M4.63643 2.18176C3.28082 2.18176 2.18188 3.2807 2.18188 4.63631V8.45449C2.18188 9.8101 3.28082 10.909 4.63643 10.909H8.45461C9.81022 10.909 10.9092 9.8101 10.9092 8.45449V4.63631C10.9092 3.2807 9.81022 2.18176 8.45461 2.18176H4.63643ZM3.81825 4.63631C3.81825 4.18444 4.18456 3.81813 4.63643 3.81813H8.45461C8.90648 3.81813 9.27279 4.18444 9.27279 4.63631V8.45449C9.27279 8.90636 8.90648 9.27267 8.45461 9.27267H4.63643C4.18456 9.27267 3.81825 8.90636 3.81825 8.45449V4.63631ZM4.63643 13.0909C3.28082 13.0909 2.18188 14.1898 2.18188 15.5454V19.3636C2.18188 20.7192 3.28082 21.8181 4.63643 21.8181H8.45461C9.81022 21.8181 10.9092 20.7192 10.9092 19.3636V15.5454C10.9092 14.1898 9.81022 13.0909 8.45461 13.0909H4.63643ZM3.81825 15.5454C3.81825 15.0935 4.18456 14.7272 4.63643 14.7272H8.45461C8.90648 14.7272 9.27279 15.0935 9.27279 15.5454V19.3636C9.27279 19.8155 8.90648 20.1818 8.45461 20.1818H4.63643C4.18456 20.1818 3.81825 19.8155 3.81825 19.3636V15.5454ZM13.091 15.5454C13.091 14.1898 14.1899 13.0909 15.5455 13.0909H19.3637C20.7193 13.0909 21.8182 14.1898 21.8182 15.5454V19.3636C21.8182 20.7192 20.7193 21.8181 19.3637 21.8181H15.5455C14.1899 21.8181 13.091 20.7192 13.091 19.3636V15.5454ZM15.5455 14.7272C15.0937 14.7272 14.7273 15.0935 14.7273 15.5454V19.3636C14.7273 19.8155 15.0937 20.1818 15.5455 20.1818H19.3637C19.8156 20.1818 20.1819 19.8155 20.1819 19.3636V15.5454C20.1819 15.0935 19.8156 14.7272 19.3637 14.7272H15.5455ZM15.5455 2.18176C14.1899 2.18176 13.091 3.2807 13.091 4.63631V8.45449C13.091 9.8101 14.1899 10.909 15.5455 10.909H19.3637C20.7193 10.909 21.8182 9.8101 21.8182 8.45449V4.63631C21.8182 3.2807 20.7193 2.18176 19.3637 2.18176H15.5455ZM14.7273 4.63631C14.7273 4.18444 15.0937 3.81813 15.5455 3.81813H19.3637C19.8156 3.81813 20.1819 4.18444 20.1819 4.63631V8.45449C20.1819 8.90636 19.8156 9.27267 19.3637 9.27267H15.5455C15.0937 9.27267 14.7273 8.90636 14.7273 8.45449V4.63631Z" fill="#222222"/>
</svg>
