<svg width="24" height="24" viewBox="0 0 24 24" fill="none" xmlns="http://www.w3.org/2000/svg">
<path fill-rule="evenodd" clip-rule="evenodd" d="M6.00009 1.90906C3.74074 1.90906 1.90918 3.74062 1.90918 5.99997V18C1.90918 20.2593 3.74074 22.0909 6.00009 22.0909H13.6365V21.6551C13.97 21.5518 14.2123 21.2409 14.2123 20.8734V14.9696C14.2123 14.819 14.3344 14.6969 14.485 14.6969H20.9533C21.298 14.6969 21.593 14.4836 21.7135 14.1818H22.091V5.99997C22.091 3.74062 20.2594 1.90906 18.0001 1.90906H6.00009ZM20.4546 13.0605V5.99997C20.4546 4.64436 19.3557 3.54542 18.0001 3.54542H6.00009C4.64448 3.54542 3.54554 4.64436 3.54554 5.99997V18C3.54554 19.3556 4.64448 20.4545 6.00009 20.4545H12.5759V14.9696C12.5759 13.9152 13.4306 13.0605 14.485 13.0605H20.4546Z" fill="#222222"/>
<path fill-rule="evenodd" clip-rule="evenodd" d="M21.8724 13.6251C22.1799 13.9562 22.1607 14.4739 21.8295 14.7813L14.1932 21.8723C13.8621 22.1797 13.3444 22.1606 13.0369 21.8294C12.7294 21.4983 12.7486 20.9806 13.0797 20.6731L20.7161 13.5822C21.0472 13.2748 21.5649 13.2939 21.8724 13.6251Z" fill="#222222"/>
</svg>
