<svg width="24" height="24" viewBox="0 0 24 24" fill="none" xmlns="http://www.w3.org/2000/svg">
<path fill-rule="evenodd" clip-rule="evenodd" d="M11.9999 2C9.16809 2 6.70817 3.60685 5.48294 5.95929L5.44577 6.03065L5.36576 6.03916C2.4314 6.35112 0.149902 8.83734 0.149902 11.85C0.149902 15.0772 2.77275 17.7 5.9999 17.7H7.325L7.75 16H5.9999C3.70706 16 1.8499 14.1428 1.8499 11.85C1.8499 9.55716 3.70706 7.7 5.9999 7.7C6.34968 7.7 6.66342 7.46362 6.81047 7.12226C7.67771 5.10912 9.66765 3.7 11.9999 3.7C15.1227 3.7 17.6499 6.22716 17.6499 9.35C17.6499 9.5433 17.8066 9.7 17.9999 9.7H18.9999C20.7427 9.7 22.1499 11.1072 22.1499 12.85C22.1499 14.5928 20.7427 16 18.9999 16H16.4375L16.7563 17.7H18.9999C21.6771 17.7 23.8499 15.5272 23.8499 12.85C23.8499 10.2903 21.8624 8.2143 19.3395 8.03964L19.2249 8.03171L19.2027 7.91901C18.5363 4.53791 15.5668 2 11.9999 2Z" fill="#222222"/>
<path d="M14.3339 14.3741C14.6785 14.6038 15.1442 14.5107 15.374 14.1661C15.6037 13.8214 15.5106 13.3558 15.166 13.126L12.1662 11.126C11.9143 10.958 11.5861 10.958 11.3342 11.126L8.33394 13.126C7.98929 13.3557 7.89614 13.8214 8.1259 14.166C8.35565 14.5107 8.8213 14.6038 9.16595 14.3741L11 13.1514L11 17.75C11 18.1642 11.3358 18.5 11.75 18.5C12.1642 18.5 12.5 18.1642 12.5 17.75L12.5 13.1514L14.3339 14.3741Z" fill="#222222"/>
</svg>
