<svg width="24" height="24" viewBox="0 0 24 24" fill="none" xmlns="http://www.w3.org/2000/svg">
<path fill-rule="evenodd" clip-rule="evenodd" d="M11.9999 2C9.16809 2 6.70817 3.60685 5.48294 5.95929L5.44577 6.03065L5.36576 6.03916C2.4314 6.35112 0.149902 8.83734 0.149902 11.85C0.149902 15.0772 2.77275 17.7 5.9999 17.7H7.325L7.75 16H5.9999C3.70706 16 1.8499 14.1428 1.8499 11.85C1.8499 9.55716 3.70706 7.7 5.9999 7.7C6.34968 7.7 6.66342 7.46362 6.81047 7.12226C7.67771 5.10912 9.66765 3.7 11.9999 3.7C15.1227 3.7 17.6499 6.22716 17.6499 9.35C17.6499 9.5433 17.8066 9.7 17.9999 9.7H18.9999C20.7427 9.7 22.1499 11.1072 22.1499 12.85C22.1499 14.5928 20.7427 16 18.9999 16H16.4375L16.7563 17.7H18.9999C21.6771 17.7 23.8499 15.5272 23.8499 12.85C23.8499 10.2903 21.8624 8.2143 19.3395 8.03964L19.2249 8.03171L19.2027 7.91901C18.5363 4.53791 15.5668 2 11.9999 2Z" fill="#222222"/>
<path d="M9.3741 19.1259C9.02946 18.8962 8.56381 18.9893 8.33403 19.3339C8.10426 19.6786 8.19737 20.1442 8.54201 20.374L11.5418 22.374C11.7937 22.542 12.1219 22.542 12.3739 22.374L15.3741 20.374C15.7187 20.1443 15.8119 19.6786 15.5821 19.334C15.3524 18.9893 14.8867 18.8962 14.5421 19.1259L12.708 20.3486L12.708 15.75C12.708 15.3358 12.3722 15 11.958 15C11.5438 15 11.208 15.3358 11.208 15.75L11.208 20.3486L9.3741 19.1259Z" fill="#222222"/>
</svg>
