<svg width="24" height="24" viewBox="0 0 24 24" fill="none" xmlns="http://www.w3.org/2000/svg">
<path fill-rule="evenodd" clip-rule="evenodd" d="M15.25 3.37012C15.25 2.9559 15.5858 2.62012 16 2.62012H20.5C20.9142 2.62012 21.25 2.9559 21.25 3.37012V7.87012C21.25 8.28433 20.9142 8.62012 20.5 8.62012C20.0858 8.62012 19.75 8.28433 19.75 7.87012V5.18074L15.0303 9.90041C14.7374 10.1933 14.2626 10.1933 13.9697 9.90041C13.6768 9.60751 13.6768 9.13264 13.9697 8.83975L18.6893 4.12012H16C15.5858 4.12012 15.25 3.78433 15.25 3.37012ZM9.5 4.37012C8.80964 4.37012 8.25 4.92976 8.25 5.62012V14.6201C8.25 15.3105 8.80964 15.8701 9.5 15.8701H18.5C19.1904 15.8701 19.75 15.3105 19.75 14.6201V11.9773C19.75 11.563 20.0858 11.2273 20.5 11.2273C20.9142 11.2273 21.25 11.563 21.25 11.9773V14.6201C21.25 16.1389 20.0188 17.3701 18.5 17.3701H9.5C7.98122 17.3701 6.75 16.1389 6.75 14.6201V5.62012C6.75 4.10133 7.98122 2.87012 9.5 2.87012H12.1429C12.5571 2.87012 12.8929 3.2059 12.8929 3.62012C12.8929 4.03433 12.5571 4.37012 12.1429 4.37012H9.5ZM4.25 10.6201C4.25 10.2059 3.91421 9.87012 3.5 9.87012C3.08579 9.87012 2.75 10.2059 2.75 10.6201V16.6201C2.75 19.2435 4.87665 21.3701 7.5 21.3701H13.5C13.9142 21.3701 14.25 21.0343 14.25 20.6201C14.25 20.2059 13.9142 19.8701 13.5 19.8701H7.5C5.70507 19.8701 4.25 18.415 4.25 16.6201V10.6201Z" fill="#222222"/>
</svg>
