<svg width="24" height="24" viewBox="0 0 24 24" fill="none" xmlns="http://www.w3.org/2000/svg">
<path d="M21 19.5C21 21.433 19.433 23 17.5 23C15.567 23 14 21.433 14 19.5C14 17.567 15.567 16 17.5 16C19.433 16 21 17.567 21 19.5Z" fill="#222222"/>
<path fill-rule="evenodd" clip-rule="evenodd" d="M11.9999 2.72718C17.1214 2.72718 21.2726 6.87936 21.2726 11.9999C21.2726 13.0741 21.0899 14.1058 20.7539 15.0653C21.2385 15.4215 21.6626 15.8552 22.0079 16.3482C22.5876 15.0159 22.909 13.5454 22.909 11.9999C22.909 5.97574 18.0253 1.09082 11.9999 1.09082C5.97573 1.09082 1.09082 5.97574 1.09082 11.9999C1.09082 18.0241 5.97573 22.909 11.9999 22.909C12.3842 22.909 12.7639 22.8891 13.1379 22.8504C12.7744 22.3778 12.4859 21.8444 12.2904 21.2682C12.1939 21.2711 12.0971 21.2726 11.9999 21.2726C6.87947 21.2726 2.72718 17.1203 2.72718 11.9999C2.72718 6.87948 6.87947 2.72718 11.9999 2.72718ZM14.3266 20.9783C14.5826 21.527 14.9768 21.9982 15.4643 22.3474C17.6376 21.6201 19.5059 20.2272 20.8272 18.4109C20.6379 17.832 20.3016 17.3196 19.8625 16.9176C18.6205 18.8992 16.6502 20.3779 14.3266 20.9783Z" fill="#222222"/>
<path fill-rule="evenodd" clip-rule="evenodd" d="M11.9998 6.81812C12.4517 6.81812 12.818 7.18443 12.818 7.6363V11.1818H16.3635C16.8153 11.1818 17.1816 11.5481 17.1816 11.9999C17.1816 12.4518 16.8153 12.8181 16.3635 12.8181H11.9998C11.548 12.8181 11.1816 12.4518 11.1816 11.9999V7.6363C11.1816 7.18443 11.548 6.81812 11.9998 6.81812Z" fill="#222222"/>
</svg>
