<svg width="24" height="24" viewBox="0 0 24 24" fill="none" xmlns="http://www.w3.org/2000/svg">
<path fill-rule="evenodd" clip-rule="evenodd" d="M13.4036 5.05714H3.77027C3.34486 5.05714 3 5.40252 3 5.82857C3 6.25462 3.34486 6.6 3.77027 6.6H13.4036C13.7389 7.78723 14.8288 8.65714 16.1216 8.65714C17.4144 8.65714 18.5043 7.78723 18.8396 6.6L20.2297 6.6C20.6551 6.6 21 6.25462 21 5.82857C21 5.40252 20.6551 5.05714 20.2297 5.05714L18.8396 5.05714C18.5043 3.86991 17.4144 3 16.1216 3C14.8288 3 13.7389 3.86991 13.4036 5.05714ZM14.8378 5.82857C14.8378 5.11849 15.4126 4.54286 16.1216 4.54286C16.8306 4.54286 17.4054 5.11849 17.4054 5.82857C17.4054 6.53865 16.8306 7.11429 16.1216 7.11429C15.4126 7.11429 14.8378 6.53865 14.8378 5.82857Z" fill="#222222"/>
<path fill-rule="evenodd" clip-rule="evenodd" d="M20.2297 12.7714L10.5964 12.7714C10.2611 13.9587 9.17118 14.8286 7.87838 14.8286C6.58558 14.8286 5.49566 13.9587 5.16037 12.7714H3.77027C3.34486 12.7714 3 12.426 3 12C3 11.574 3.34486 11.2286 3.77027 11.2286H5.16037C5.49566 10.0413 6.58558 9.17143 7.87838 9.17143C9.17118 9.17143 10.2611 10.0413 10.5964 11.2286L20.2297 11.2286C20.6551 11.2286 21 11.574 21 12C21 12.4261 20.6551 12.7714 20.2297 12.7714ZM7.87838 10.7143C8.58739 10.7143 9.16216 11.2899 9.16216 12C9.16216 12.7101 8.58739 13.2857 7.87838 13.2857C7.16936 13.2857 6.59459 12.7101 6.59459 12C6.59459 11.2899 7.16936 10.7143 7.87838 10.7143Z" fill="#222222"/>
<path fill-rule="evenodd" clip-rule="evenodd" d="M13.4036 17.4H3.77027C3.34486 17.4 3 17.7454 3 18.1714C3 18.5975 3.34486 18.9429 3.77027 18.9429H13.4036C13.7389 20.1301 14.8288 21 16.1216 21C17.4144 21 18.5043 20.1301 18.8396 18.9429H20.2297C20.6551 18.9429 21 18.5975 21 18.1714C21 17.7454 20.6551 17.4 20.2297 17.4H18.8396C18.5043 16.2128 17.4144 15.3429 16.1216 15.3429C14.8288 15.3429 13.7389 16.2128 13.4036 17.4ZM17.4054 18.1714C17.4054 17.4613 16.8306 16.8857 16.1216 16.8857C15.4126 16.8857 14.8378 17.4613 14.8378 18.1714C14.8378 18.8815 15.4126 19.4571 16.1216 19.4571C16.8306 19.4571 17.4054 18.8815 17.4054 18.1714Z" fill="#222222"/>
</svg>
