<svg width="24" height="24" viewBox="0 0 24 24" fill="none" xmlns="http://www.w3.org/2000/svg">
<path fill-rule="evenodd" clip-rule="evenodd" d="M5.35113 4.68501C5.01942 4.7604 4.7604 5.01942 4.68501 5.35113C4.43833 6.43654 4.43833 7.56346 4.68501 8.64887C4.7604 8.98058 5.01942 9.2396 5.35113 9.31499C6.43654 9.56167 7.56346 9.56167 8.64887 9.31499C8.98058 9.2396 9.2396 8.98058 9.31499 8.64887C9.56167 7.56346 9.56167 6.43654 9.31499 5.35113C9.2396 5.01942 8.98058 4.7604 8.64887 4.68501C7.56346 4.43833 6.43654 4.43833 5.35113 4.68501ZM15.3511 4.68501C15.0194 4.7604 14.7604 5.01942 14.685 5.35113C14.4383 6.43654 14.4383 7.56346 14.685 8.64887C14.7604 8.98058 15.0194 9.2396 15.3511 9.31499C16.4365 9.56167 17.5635 9.56167 18.6489 9.31499C18.9806 9.2396 19.2396 8.98058 19.315 8.64887C19.5617 7.56346 19.5617 6.43654 19.315 5.35113C19.2396 5.01942 18.9806 4.7604 18.6489 4.68501C17.5635 4.43833 16.4365 4.43833 15.3511 4.68501ZM15.3511 14.685C15.0194 14.7604 14.7604 15.0194 14.685 15.3511C14.4383 16.4365 14.4383 17.5635 14.685 18.6489C14.7604 18.9806 15.0194 19.2396 15.3511 19.315C16.4365 19.5617 17.5635 19.5617 18.6489 19.315C18.9806 19.2396 19.2396 18.9806 19.315 18.6489C19.5617 17.5635 19.5617 16.4365 19.315 15.3511C19.2396 15.0194 18.9806 14.7604 18.6489 14.685C17.5635 14.4383 16.4365 14.4383 15.3511 14.685ZM3.22231 5.0187C3.42562 4.12416 4.12416 3.42562 5.0187 3.22231C6.32294 2.9259 7.67706 2.9259 8.9813 3.22231C9.87584 3.42562 10.5744 4.12416 10.7777 5.0187C11.0741 6.32294 11.0741 7.67706 10.7777 8.9813C10.5744 9.87584 9.87584 10.5744 8.9813 10.7777C7.67706 11.0741 6.32294 11.0741 5.0187 10.7777C4.12416 10.5744 3.42562 9.87584 3.22231 8.9813C2.9259 7.67706 2.9259 6.32294 3.22231 5.0187ZM13.2223 5.0187C13.4256 4.12416 14.1242 3.42562 15.0187 3.22231C16.3229 2.9259 17.6771 2.9259 18.9813 3.22231C19.8758 3.42562 20.5744 4.12416 20.7777 5.0187C21.0741 6.32294 21.0741 7.67706 20.7777 8.9813C20.5744 9.87584 19.8758 10.5744 18.9813 10.7777C17.6771 11.0741 16.3229 11.0741 15.0187 10.7777C14.1242 10.5744 13.4256 9.87584 13.2223 8.9813C12.9259 7.67706 12.9259 6.32294 13.2223 5.0187ZM15.0187 13.2223C14.1242 13.4256 13.4256 14.1242 13.2223 15.0187C12.9259 16.3229 12.9259 17.6771 13.2223 18.9813C13.4256 19.8758 14.1242 20.5744 15.0187 20.7777C16.3229 21.0741 17.6771 21.0741 18.9813 20.7777C19.8758 20.5744 20.5744 19.8758 20.7777 18.9813C21.0741 17.6771 21.0741 16.3229 20.7777 15.0187C20.5744 14.1242 19.8758 13.4256 18.9813 13.2223C17.6771 12.9259 16.3229 12.9259 15.0187 13.2223Z" fill="#222222"/>
<path fill-rule="evenodd" clip-rule="evenodd" d="M8.9813 13.2223C7.67706 12.9259 6.32294 12.9259 5.0187 13.2223C4.12416 13.4256 3.42562 14.1242 3.22231 15.0187C2.9259 16.3229 2.9259 17.6771 3.22231 18.9813C3.42562 19.8758 4.12416 20.5744 5.0187 20.7777C6.32294 21.0741 7.67706 21.0741 8.9813 20.7777C9.87584 20.5744 10.5744 19.8758 10.7777 18.9813C11.0741 17.6771 11.0741 16.3229 10.7777 15.0187C10.5744 14.1242 9.87584 13.4256 8.9813 13.2223ZM5.35113 14.685C5.01942 14.7604 4.7604 15.0194 4.68501 15.3511C4.43833 16.4365 4.43833 17.5635 4.68501 18.6489C4.7604 18.9806 5.01942 19.2396 5.35113 19.315C6.43654 19.5617 7.56346 19.5617 8.64887 19.315C8.98058 19.2396 9.2396 18.9806 9.31499 18.6489C9.56167 17.5635 9.56167 16.4365 9.31499 15.3511C9.2396 15.0194 8.98058 14.7604 8.64887 14.685C7.56346 14.4383 6.43654 14.4383 5.35113 14.685Z" fill="#222222"/>
</svg>
