<svg width="24" height="24" viewBox="0 0 24 24" fill="none" xmlns="http://www.w3.org/2000/svg">
<path d="M12 22.0908C12 22.5427 12.3676 22.9122 12.8182 22.8788C18.4614 22.4603 22.9091 17.7489 22.9091 11.9999C22.9091 6.25092 18.4614 1.53948 12.8182 1.12104C12.3676 1.08763 12 1.45712 12 1.90898C12 2.36086 12.3676 2.72341 12.8177 2.76275C17.5562 3.17679 21.2728 7.15486 21.2728 11.9999C21.2728 16.845 17.5562 20.8231 12.8177 21.2371C12.3676 21.2764 12 21.6389 12 22.0908Z" fill="#222222"/>
<path fill-rule="evenodd" clip-rule="evenodd" d="M11.9998 6.81812C12.4517 6.81812 12.818 7.18443 12.818 7.6363V11.1818H16.3635C16.8153 11.1818 17.1816 11.5481 17.1816 11.9999C17.1816 12.4518 16.8153 12.8181 16.3635 12.8181H11.9998C11.548 12.8181 11.1816 12.4518 11.1816 11.9999V7.6363C11.1816 7.18443 11.548 6.81812 11.9998 6.81812Z" fill="#222222"/>
<path fill-rule="evenodd" clip-rule="evenodd" d="M5.97022 3.03821C6.46595 2.70547 6.9956 2.40975 7.55693 2.15638C8.11825 1.90301 8.69039 1.70141 9.26784 1.54975C9.69518 1.43752 10.1326 1.69296 10.2448 2.12029C10.3571 2.54763 10.1016 2.98504 9.67428 3.09727C9.18275 3.22637 8.69486 3.39819 8.21517 3.61471C7.73548 3.83122 7.28389 4.08345 6.86193 4.36669C6.49509 4.61292 5.99808 4.51515 5.75184 4.1483C5.5056 3.78145 5.60338 3.28445 5.97022 3.03821ZM3.77352 6.25611C4.15498 6.47904 4.28351 6.96899 4.06059 7.35046C3.5386 8.24368 3.16956 9.21997 2.97016 10.2351C2.88501 10.6687 2.46452 10.9511 2.03097 10.8659C1.59743 10.7808 1.315 10.3603 1.40016 9.92676C1.63406 8.73591 2.06685 7.59098 2.67917 6.54318C2.9021 6.16172 3.39205 6.03319 3.77352 6.25611ZM2.12032 13.7553C2.54765 13.6431 2.98506 13.8986 3.09729 14.3259C3.22639 14.8174 3.39821 15.3053 3.61473 15.785C3.83125 16.2647 4.08348 16.7163 4.36671 17.1382C4.61295 17.5051 4.51517 18.0021 4.14832 18.2483C3.78148 18.4946 3.28447 18.3968 3.03823 18.0299C2.70549 17.5342 2.40977 17.0046 2.15641 16.4432C1.90304 15.8819 1.70144 15.3098 1.54978 14.7323C1.43754 14.305 1.69298 13.8676 2.12032 13.7553ZM6.25614 20.2267C6.47906 19.8452 6.96902 19.7167 7.35048 19.9396C8.24371 20.4616 9.21999 20.8306 10.2352 21.03C10.6687 21.1152 10.9511 21.5357 10.866 21.9692C10.7808 22.4027 10.3603 22.6852 9.92678 22.6C8.73594 22.3661 7.59101 21.9333 6.54321 21.321C6.16174 21.0981 6.03321 20.6081 6.25614 20.2267Z" fill="#222222"/>
</svg>
