<svg width="24" height="24" viewBox="0 0 24 24" fill="none" xmlns="http://www.w3.org/2000/svg">
<path d="M3.27991 2.21997C3.21125 2.14628 3.12845 2.08718 3.03645 2.04619C2.94445 2.0052 2.84513 1.98316 2.74443 1.98138C2.64373 1.9796 2.5437 1.99813 2.45031 2.03585C2.35692 2.07357 2.27209 2.12971 2.20087 2.20093C2.12965 2.27215 2.07351 2.35698 2.03579 2.45037C1.99807 2.54376 1.97954 2.64379 1.98132 2.74449C1.98309 2.8452 2.00514 2.94451 2.04613 3.03651C2.08712 3.12851 2.14622 3.21131 2.21991 3.27997L7.99991 9.05997V12C7.99983 12.727 8.19789 13.4403 8.57281 14.0632C8.94773 14.6861 9.48533 15.195 10.1278 15.5353C10.7703 15.8755 11.4934 16.0343 12.2193 15.9944C12.9452 15.9545 13.6466 15.7176 14.2479 15.309L15.3939 16.455C14.487 17.135 13.3835 17.5018 12.2499 17.5H11.7499L11.5339 17.496C10.18 17.4402 8.90006 16.8631 7.96185 15.8854C7.02363 14.9077 6.49979 13.605 6.49991 12.25V11.75L6.49291 11.648C6.46701 11.4597 6.37062 11.2883 6.22321 11.1684C6.0758 11.0485 5.88837 10.989 5.69879 11.0019C5.50921 11.0149 5.33161 11.0993 5.20188 11.2382C5.07215 11.377 4.99997 11.5599 4.99991 11.75V12.25L5.00391 12.486C5.06192 14.148 5.73146 15.7301 6.88412 16.9289C8.03678 18.1277 9.59142 18.8588 11.2499 18.982V21.25L11.2569 21.352C11.2828 21.5402 11.3792 21.7116 11.5266 21.8315C11.674 21.9515 11.8614 22.011 12.051 21.998C12.2406 21.985 12.4182 21.9006 12.5479 21.7618C12.6777 21.6229 12.7499 21.44 12.7499 21.25L12.7509 18.982C14.1073 18.8829 15.4017 18.3745 16.4629 17.524L20.7189 21.78C20.8603 21.9167 21.0497 21.9923 21.2464 21.9907C21.443 21.9891 21.6312 21.9103 21.7703 21.7713C21.9094 21.6323 21.9884 21.4443 21.9902 21.2476C21.992 21.051 21.9165 20.8615 21.7799 20.72L3.27991 2.21997ZM17.1959 14.014L18.3419 15.16C18.7764 14.2515 19.0012 13.257 18.9999 12.25V11.75L18.9929 11.648C18.967 11.4597 18.8706 11.2883 18.7232 11.1684C18.5758 11.0485 18.3884 10.989 18.1988 11.0019C18.0092 11.0149 17.8316 11.0993 17.7019 11.2382C17.5722 11.377 17.5 11.5599 17.4999 11.75V12.25L17.4959 12.466C17.4747 12.9942 17.3735 13.5161 17.1959 14.014ZM8.13791 4.95597L15.9299 12.748C15.9759 12.506 15.9999 12.256 15.9999 12V5.99997C16.0005 5.0299 15.6485 4.09267 15.0095 3.36278C14.3705 2.63289 13.4881 2.16008 12.5265 2.03239C11.5648 1.90469 10.5895 2.13081 9.78222 2.66864C8.97489 3.20647 8.39052 4.01936 8.13791 4.95597Z" fill="#222222"/>
</svg>
