<svg width="24" height="24" viewBox="0 0 24 24" fill="none" xmlns="http://www.w3.org/2000/svg">
<path fill-rule="evenodd" clip-rule="evenodd" d="M11 4C11 3.44772 11.4477 3 12 3C12.5523 3 13 3.44772 13 4V12C13 12.5523 12.5523 13 12 13C11.4477 13 11 12.5523 11 12V4ZM17.2086 7.34309C16.8149 6.90822 16.7722 6.22782 17.187 5.81302C17.5502 5.44981 18.136 5.4226 18.4923 5.7926C20.0456 7.4057 21 9.58647 21 12C21 16.97 16.97 21 12 21C7.03 21 3 16.97 3 12C3 9.58541 3.9552 7.40379 5.50972 5.79047C5.86497 5.42179 6.4489 5.4489 6.81093 5.81093C7.22246 6.22246 7.18248 6.89676 6.79321 7.32942C5.68074 8.5659 5 10.2021 5 12C5 15.87 8.13 19 12 19C15.87 19 19 15.87 19 12C19 10.206 18.3223 8.57311 17.2086 7.34309Z" fill="#222222"/>
</svg>
