<svg width="24" height="24" viewBox="0 0 24 24" fill="none" xmlns="http://www.w3.org/2000/svg">
<path fill-rule="evenodd" clip-rule="evenodd" d="M15.4838 11.082L16.7213 9.91667C17.505 9.19467 18 8.18133 18 7.06667C18 4.26733 15.5387 2 12.5 2C9.46125 2 7 4.534 7 7.33333C7 8.06971 7.61561 8.66667 8.375 8.66667C9.13439 8.66667 9.75 8.06971 9.75 7.33333C9.75 5.94 10.9875 4.53333 12.5 4.53333C14.0125 4.53333 15.25 5.67333 15.25 7.06667C15.25 7.76333 14.9475 8.39667 14.4388 8.85267L12.7338 10.4487C11.7438 11.3733 11.5 12 11.125 13.0333C10.9089 13.6287 11.125 15.5 12.5 15.5C13.5 15.5 13.875 14.5 13.875 13.6667C13.875 12.3807 14.2434 12.0909 14.8665 11.6008C15.0509 11.4558 15.2576 11.2932 15.4838 11.082ZM10.6094 19.4153C10.6094 18.3659 11.4558 17.5153 12.4999 17.5153H12.5188C13.563 17.5153 14.4094 18.3659 14.4094 19.4153C14.4094 20.4646 13.563 21.3153 12.5188 21.3153H12.4999C11.4558 21.3153 10.6094 20.4646 10.6094 19.4153Z" fill="#222222"/>
</svg>
