<svg width="24" height="24" viewBox="0 0 24 24" fill="none" xmlns="http://www.w3.org/2000/svg">
<path fill-rule="evenodd" clip-rule="evenodd" d="M19.8845 6.7711L13.0293 2.3046C12.406 1.89847 11.594 1.89847 10.9707 2.3046L4.11555 6.7711C3.41861 7.22519 3 7.98965 3 8.80828V11.4649C3 16.7639 6.74211 21.7452 11.8459 22.9632L12 23L12.1541 22.9632C17.2579 21.7452 21 16.7639 21 11.4649V8.80828C21 7.98965 20.5814 7.22519 19.8845 6.7711ZM4.83608 7.82741L11.3505 3.58288V21.4985C7.28342 20.1224 4.29897 15.9414 4.29897 11.4649V8.80828C4.29897 8.41413 4.50052 8.04605 4.83608 7.82741Z" fill="#222222"/>
</svg>
