<svg width="24" height="24" viewBox="0 0 24 24" fill="none" xmlns="http://www.w3.org/2000/svg">
<path d="M12.8636 22.4991C14.3507 22.4842 15.7638 22.16 17.0417 21.5878C18.4503 20.9596 19.7417 20.01 20.7996 18.7492C22.5631 16.6475 23.3624 14.0579 23.245 11.5178C23.1824 10.1331 22.8516 8.81831 22.3034 7.6241C21.7029 6.31152 20.8215 5.10366 19.6676 4.09551C19.1858 3.67391 18.6652 3.29564 18.1117 2.96679C16.8444 2.21379 15.4052 1.71989 13.8671 1.5581C13.4987 1.51925 13.1291 1.49993 12.7597 1.5L12.756 1.5C11.1171 1.5 9.5657 1.87558 8.18339 2.54539C7.03987 3.09763 5.98079 3.86633 5.07052 4.84587C3.4385 6.59834 2.39863 8.90969 2.26974 11.4614H0.802272C0.470369 11.4614 0.263574 11.7888 0.430811 12.0495L2.69239 15.575C2.85833 15.8337 3.26937 15.8337 3.43531 15.575L5.69689 12.0495C5.86412 11.7888 5.65733 11.4614 5.32542 11.4614H3.88759C4.00447 9.50611 4.75375 7.72125 5.93361 6.30848C5.93927 6.30215 5.94485 6.29571 5.95034 6.28916C6.05529 6.16409 6.16296 6.04263 6.27317 5.92481C7.00764 5.14137 7.88247 4.49114 8.85751 4.01422C10.1036 3.40677 11.4694 3.10388 12.8381 3.11573C13.9595 3.12544 15.0829 3.34641 16.144 3.78423C16.9656 4.12328 17.75 4.59237 18.4671 5.1941C18.5089 5.2292 18.5503 5.26461 18.5914 5.30031C19.5403 6.12753 20.3119 7.15306 20.8415 8.31233C21.3111 9.34407 21.576 10.4518 21.6304 11.5714C21.6371 11.7134 21.6405 11.8562 21.6405 11.9998C21.6405 15.6225 19.4714 18.7393 16.3613 20.1221C15.2368 20.6202 14.0247 20.8766 12.8073 20.8842C12.7902 20.8843 12.7731 20.8843 12.756 20.8843C12.7537 20.8843 12.7514 20.8843 12.749 20.8843C10.7345 20.8838 8.70905 20.2019 7.04541 18.8059C6.7037 18.5192 6.19425 18.5638 5.90753 18.9055C5.6208 19.2472 5.66537 19.7566 6.00708 20.0434C8.00513 21.7199 10.4447 22.525 12.8636 22.4991Z" fill="#222222"/>
<path fill-rule="evenodd" clip-rule="evenodd" d="M12.4697 7.71967C12.8839 7.71967 13.2197 8.05545 13.2197 8.46967V12.659L15.5001 14.9393C15.7929 15.2322 15.7929 15.7071 15.5001 16C15.2072 16.2929 14.7323 16.2929 14.4394 16L11.9394 13.5C11.7987 13.3593 11.7197 13.1686 11.7197 12.9697V8.46967C11.7197 8.05545 12.0555 7.71967 12.4697 7.71967Z" fill="#222222"/>
</svg>
