<svg width="24" height="24" viewBox="0 0 24 24" fill="none" xmlns="http://www.w3.org/2000/svg">
<path fill-rule="evenodd" clip-rule="evenodd" d="M19.5908 20.591C19.8837 20.2981 19.8837 19.8232 19.5908 19.5303L2.59076 2.53034C2.29787 2.23745 1.823 2.23745 1.5301 2.53034C1.23721 2.82323 1.23721 3.29811 1.5301 3.591L18.5301 20.591C18.823 20.8839 19.2979 20.8839 19.5908 20.591Z" fill="#222222"/>
<path fill-rule="evenodd" clip-rule="evenodd" d="M13.7974 14.2029L16.5423 16.9478C16.5259 16.9675 16.5085 16.9866 16.49 17.005C16.1581 17.337 15.6199 17.337 15.2879 17.0051C14.4159 16.1331 13.2332 15.6432 11.9999 15.6432C10.7667 15.6432 9.58401 16.1331 8.71197 17.0051C8.38002 17.337 7.84183 17.337 7.50989 17.005C7.17795 16.6731 7.17797 16.1349 7.50992 15.803C8.70077 14.6122 10.3159 13.9432 11.9999 13.9432C12.614 13.9432 13.2189 14.0321 13.7974 14.2029ZM14.5565 11.2129C15.9893 11.6283 17.3405 12.4007 18.4699 13.5301C18.8018 13.862 19.34 13.862 19.672 13.5301C20.0039 13.1981 20.0039 12.6599 19.672 12.328C17.6821 10.3381 15.1115 9.28279 12.5056 9.16198L14.5565 11.2129ZM9.12951 9.53497L10.5584 10.9639C8.71777 11.256 6.9493 12.1114 5.53106 13.53C5.19916 13.862 4.66097 13.862 4.32898 13.5301C3.99699 13.1982 3.99692 12.66 4.32883 12.3281C5.7099 10.9466 7.37097 10.0156 9.12951 9.53497ZM9.42822 6.08459C13.8505 5.27146 18.5859 6.57461 22.006 9.99411C22.3379 10.326 22.8761 10.326 23.208 9.99401C23.54 9.66203 23.5399 9.12384 23.2079 8.79193C19.0876 4.67231 13.2631 3.29489 8.00338 4.65975L9.42822 6.08459ZM5.24935 5.65482L6.53754 6.943C4.88603 7.63313 3.3389 8.65015 1.99499 9.99406C1.66304 10.326 1.12485 10.326 0.792905 9.99406C0.460959 9.66211 0.460959 9.12392 0.792905 8.79198C2.1256 7.45928 3.63669 6.41356 5.24935 5.65482ZM11.1499 20C11.1499 19.5306 11.5305 19.15 11.9999 19.15H12.0099C12.4794 19.15 12.8599 19.5306 12.8599 20C12.8599 20.4695 12.4794 20.85 12.0099 20.85H11.9999C11.5305 20.85 11.1499 20.4695 11.1499 20Z" fill="#222222"/>
</svg>
