<svg width="24" height="24" viewBox="0 0 24 24" fill="none" xmlns="http://www.w3.org/2000/svg">
<path fill-rule="evenodd" clip-rule="evenodd" d="M5.48294 8.10931C6.70817 5.75688 9.16809 4.15002 11.9999 4.15002C15.5668 4.15002 18.5363 6.68793 19.2027 10.069L19.2249 10.1817L19.3395 10.1897C21.8624 10.3643 23.8499 12.4404 23.8499 15C23.8499 17.6772 21.6771 19.85 18.9999 19.85H5.9999C2.77275 19.85 0.149902 17.2272 0.149902 14C0.149902 10.9874 2.4314 8.50114 5.36576 8.18918L5.44577 8.18068L5.48294 8.10931ZM11.9999 5.85002C9.66765 5.85002 7.67771 7.25914 6.81047 9.27228C6.66342 9.61365 6.34968 9.85002 5.9999 9.85002C3.70706 9.85002 1.8499 11.7072 1.8499 14C1.8499 16.2929 3.70706 18.15 5.9999 18.15H18.9999C20.7427 18.15 22.1499 16.7429 22.1499 15C22.1499 13.2572 20.7427 11.85 18.9999 11.85H17.9999C17.8066 11.85 17.6499 11.6933 17.6499 11.5C17.6499 8.37718 15.1227 5.85002 11.9999 5.85002Z" fill="#222222"/>
</svg>
