<svg width="24" height="24" viewBox="0 0 24 24" fill="none" xmlns="http://www.w3.org/2000/svg">
<path fill-rule="evenodd" clip-rule="evenodd" d="M11.2455 2H17.9999C19.0999 2 19.9999 2.9 19.9999 4V17.1255L7.44143 4.56701L9.1206 2.88222C9.68349 2.31745 10.4481 2 11.2455 2ZM18.7801 21.8406L20.2618 23.3224C20.5836 23.6442 21.0819 23.6676 21.3748 23.3748C21.6677 23.0819 21.6443 22.5835 21.3224 22.2617L2.64344 3.5827C2.32162 3.26088 1.82329 3.23743 1.5304 3.53032C1.23751 3.82322 1.26096 4.32154 1.58278 4.64336L4.51983 7.58042C4.19578 8.06766 4.01881 8.64304 4.01782 9.23678L3.99988 20C3.99988 21.1 4.89988 22 5.99988 22H17.9999C18.2763 22 18.54 21.9432 18.7801 21.8406Z" fill="#222222"/>
</svg>
