<svg width="24" height="24" viewBox="0 0 24 24" fill="none" xmlns="http://www.w3.org/2000/svg">
<path fill-rule="evenodd" clip-rule="evenodd" d="M11.6457 2.17574C11.9293 2.04777 12.266 2.08419 12.5104 2.26777L18.5973 6.8392C18.79 6.98386 18.9001 7.20108 18.9001 7.42855C18.9001 7.65603 18.79 7.87324 18.5973 8.01791L13.2951 12L18.5973 15.982C18.79 16.1267 18.9001 16.3439 18.9001 16.5714C18.9001 16.7989 18.79 17.0161 18.5973 17.1608L12.5104 21.7322C12.266 21.9158 11.9293 21.9522 11.6457 21.8242C11.3627 21.6966 11.187 21.4304 11.187 21.1428V13.5832L6.42346 17.1608C6.07099 17.4255 5.55625 17.3705 5.27629 17.042C4.9996 16.7173 5.05401 16.244 5.40282 15.982L10.705 12L5.40282 8.01791C5.05401 7.75594 4.9996 7.28265 5.27629 6.95796C5.55625 6.62943 6.07099 6.57449 6.42346 6.8392L11.187 10.4168V2.85713C11.187 2.56958 11.3627 2.30341 11.6457 2.17574ZM16.792 7.42855L12.8131 4.44036V10.4168L16.792 7.42855ZM16.792 16.5714L12.8131 13.5832V19.5596L16.792 16.5714Z" fill="#222222"/>
</svg>
