<svg width="24" height="24" viewBox="0 0 24 24" fill="none" xmlns="http://www.w3.org/2000/svg">
<path fill-rule="evenodd" clip-rule="evenodd" d="M19.5908 22.591C19.8837 22.2981 19.8837 21.8232 19.5908 21.5303L2.59076 4.53034C2.29787 4.23745 1.823 4.23745 1.5301 4.53034C1.23721 4.82323 1.23721 5.29811 1.5301 5.591L18.5301 22.591C18.823 22.8839 19.2979 22.8839 19.5908 22.591Z" fill="#222222"/>
<path d="M21.3514 19.2422C22.8411 18.4142 23.8499 16.8242 23.8499 15C23.8499 12.4404 21.8624 10.3643 19.3395 10.1897L19.2249 10.1817L19.2027 10.069C18.5363 6.68793 15.5668 4.15002 11.9999 4.15002C10.3822 4.15002 8.88589 4.67439 7.67176 5.56257L8.89156 6.78237C9.78186 6.19304 10.8492 5.85002 11.9999 5.85002C15.1227 5.85002 17.6499 8.37718 17.6499 11.5C17.6499 11.6933 17.8066 11.85 17.9999 11.85H18.9999C20.7427 11.85 22.1499 13.2572 22.1499 15C22.1499 16.366 21.2855 17.5257 20.0726 17.9634L21.3514 19.2422Z" fill="#222222"/>
<path d="M16.0892 18.15L17.7892 19.85H5.9999C2.77275 19.85 0.149902 17.2272 0.149902 14C0.149902 10.9874 2.4314 8.50114 5.36576 8.18918L5.44577 8.18068L5.48294 8.10931C5.54707 7.98618 5.61458 7.8651 5.68535 7.74617L6.93732 8.99814C6.89271 9.08819 6.8504 9.1796 6.81047 9.27228C6.66342 9.61365 6.34968 9.85002 5.9999 9.85002C3.70706 9.85002 1.8499 11.7072 1.8499 14C1.8499 16.2929 3.70706 18.15 5.9999 18.15H16.0892Z" fill="#222222"/>
</svg>
