<svg width="24" height="24" viewBox="0 0 24 24" fill="none" xmlns="http://www.w3.org/2000/svg">
<path d="M11.6248 2.13017C11.9248 1.99482 12.2809 2.0331 12.5401 2.2278L18.6271 6.79923C18.8317 6.95291 18.9498 7.18466 18.9498 7.42856C18.9498 7.67247 18.8317 7.90422 18.6271 8.0579L14.9459 10.8225L13.5283 9.81694L16.7084 7.42856L12.8628 4.54045V9.34493L11.1368 8.12055V2.85714C11.1368 2.5487 11.3251 2.26541 11.6248 2.13017Z" fill="#222222"/>
<path fill-rule="evenodd" clip-rule="evenodd" d="M6.91834 9.21885L6.97887 9.13592L18.4917 17.3024L12.5401 21.7722C12.2809 21.9669 11.9248 22.0052 11.6248 21.8698C11.3251 21.7346 11.1368 21.4513 11.1368 21.1428V13.6833L6.45321 17.2008C6.08004 17.481 5.5354 17.4235 5.23795 17.0744C4.94218 16.7274 5.00114 16.221 5.37252 15.9421L10.6215 12L6.91834 9.21885ZM16.7084 16.5714L12.8628 13.6833V19.4595L16.7084 16.5714Z" fill="#222222"/>
<path fill-rule="evenodd" clip-rule="evenodd" d="M22.2668 20.3892C22.5064 20.0513 22.4268 19.5832 22.089 19.3435L2.47971 5.43392C2.14186 5.19428 1.67371 5.27388 1.43406 5.61173C1.19441 5.94958 1.27402 6.41773 1.61187 6.65738L21.2211 20.567C21.559 20.8066 22.0271 20.727 22.2668 20.3892Z" fill="#222222"/>
</svg>
