<svg width="24" height="24" viewBox="0 0 24 24" fill="none" xmlns="http://www.w3.org/2000/svg">
<path fill-rule="evenodd" clip-rule="evenodd" d="M12 4C7.03003 4 3 8.03004 3 13C3 17.97 7.03003 22 12 22C16.9709 22 21 17.9699 21 13C21 8.03006 16.9709 4 12 4ZM4.85455 13C4.85455 9.05428 8.05427 5.85455 12 5.85455C15.9466 5.85455 19.1454 9.05417 19.1454 13C19.1454 16.9458 15.9466 20.1454 12 20.1454C8.05427 20.1454 4.85455 16.9457 4.85455 13Z" fill="#222222"/>
<path d="M12 9C11.5235 9 11.1372 9.38626 11.1372 9.86275V12.1372H8.86274C8.38626 12.1372 8 12.5235 8 13C8 13.4765 8.38626 13.8627 8.86274 13.8627H11.1372V16.1373C11.1372 16.6137 11.5235 17 12 17C12.4765 17 12.8627 16.6137 12.8627 16.1373V13.8627H15.1373C15.6137 13.8627 16 13.4765 16 13C16 12.5235 15.6137 12.1372 15.1373 12.1372H12.8627V9.86275C12.8627 9.38626 12.4765 9 12 9Z" fill="#222222"/>
<path d="M7.11639 3.1705C7.53828 2.81663 7.59381 2.18791 7.24048 1.76557C6.88677 1.34278 6.25728 1.28684 5.83456 1.64064L2.7697 4.20579C2.34506 4.5612 2.29005 5.19401 2.64699 5.61736C3.00238 6.03887 3.63186 6.09325 4.05428 5.73894L7.11639 3.1705Z" fill="#222222"/>
<path d="M21.3538 5.62679C21.7107 5.2036 21.6561 4.57111 21.232 4.21529L18.1651 1.64169C17.7424 1.28705 17.1125 1.34141 16.7569 1.7632C16.4001 2.1864 16.4546 2.81889 16.8787 3.17471L19.9456 5.74831C20.3683 6.10295 20.9982 6.04859 21.3538 5.62679Z" fill="#222222"/>
</svg>
