<svg width="24" height="24" viewBox="0 0 24 24" fill="none" xmlns="http://www.w3.org/2000/svg">
<path d="M8.63158 2C8.28277 2 8 2.3078 8 2.6875C8 3.0672 8.28277 3.375 8.63158 3.375H15.3684C15.7172 3.375 16 3.0672 16 2.6875C16 2.3078 15.7172 2 15.3684 2H8.63158Z" fill="#222222"/>
<path fill-rule="evenodd" clip-rule="evenodd" d="M8.25 23C7.00736 23 6 21.9926 6 20.75V7.25C6 6.00736 7.00736 5 8.25 5H15.75C16.9926 5 18 6.00736 18 7.25V20.75C18 21.9926 16.9926 23 15.75 23H8.25ZM11 19.3C11 19.6123 11.4177 19.7167 11.5647 19.4412L14.7647 13.4412C14.8713 13.2413 14.7265 13 14.5 13H13.3C13.1343 13 13 12.8657 13 12.7V8.7C13 8.38769 12.5823 8.28326 12.4353 8.55882L9.23529 14.5588C9.12872 14.7587 9.27352 15 9.5 15H10.7C10.8657 15 11 15.1343 11 15.3V19.3Z" fill="#222222"/>
</svg>
