<svg width="24" height="24" viewBox="0 0 24 24" fill="none" xmlns="http://www.w3.org/2000/svg">
<path fill-rule="evenodd" clip-rule="evenodd" d="M11.9999 1.09088C18.0253 1.09088 22.909 5.9758 22.909 12C22.909 18.0241 18.0253 22.9091 11.9999 22.9091C5.97573 22.9091 1.09082 18.0241 1.09082 12C1.09082 5.9758 5.97573 1.09088 11.9999 1.09088ZM11.9998 6.81818C12.4517 6.81818 12.818 7.18449 12.818 7.63636V11.1818H16.3635C16.8153 11.1818 17.1816 11.5481 17.1816 12C17.1816 12.4519 16.8153 12.8182 16.3635 12.8182H11.9998C11.548 12.8182 11.1816 12.4519 11.1816 12V7.63636C11.1816 7.18449 11.548 6.81818 11.9998 6.81818Z" fill="#222222"/>
</svg>
