<svg width="24" height="24" viewBox="0 0 24 24" fill="none" xmlns="http://www.w3.org/2000/svg">
<path fill-rule="evenodd" clip-rule="evenodd" d="M11.9999 2.72724C17.1214 2.72724 21.2726 6.87942 21.2726 12C21.2726 17.1205 17.1214 21.2727 11.9999 21.2727C6.87947 21.2727 2.72718 17.1204 2.72718 12C2.72718 6.87954 6.87947 2.72724 11.9999 2.72724ZM11.9999 1.09088C18.0253 1.09088 22.909 5.9758 22.909 12C22.909 18.0241 18.0253 22.9091 11.9999 22.9091C5.97573 22.9091 1.09082 18.0241 1.09082 12C1.09082 5.9758 5.97573 1.09088 11.9999 1.09088ZM12.818 7.63636C12.818 7.18449 12.4517 6.81818 11.9998 6.81818C11.548 6.81818 11.1816 7.18449 11.1816 7.63636V12C11.1816 12.4519 11.548 12.8182 11.9998 12.8182H16.3635C16.8153 12.8182 17.1816 12.4519 17.1816 12C17.1816 11.5481 16.8153 11.1818 16.3635 11.1818H12.818V7.63636Z" fill="#222222"/>
</svg>
