<svg width="24" height="24" viewBox="0 0 24 24" fill="none" xmlns="http://www.w3.org/2000/svg">
<path d="M11.0671 1.50061C9.58 1.51554 8.16686 1.83972 6.88892 2.41192C5.48034 3.04017 4.18901 3.98978 3.13107 5.25058C1.36759 7.35222 0.568217 9.94182 0.685674 12.4819C0.748242 13.8666 1.07902 15.1814 1.62726 16.3756C2.22776 17.6882 3.10916 18.8961 4.26309 19.9042C4.74486 20.3258 5.26551 20.7041 5.81896 21.033C7.08624 21.786 8.52547 22.2799 10.0636 22.4417C10.4319 22.4805 10.8016 22.4998 11.171 22.4997L11.1746 22.4997C12.8136 22.4997 14.365 22.1242 15.7473 21.4544C16.8908 20.9021 17.9499 20.1334 18.8601 19.1539C20.4922 17.4014 21.532 15.0901 21.6609 12.5383L23.1284 12.5383C23.4603 12.5383 23.6671 12.2109 23.4999 11.9502L21.2383 8.42472C21.0723 8.16603 20.6613 8.16603 20.4954 8.42472L18.2338 11.9502C18.0665 12.2109 18.2733 12.5383 18.6052 12.5383L20.0431 12.5383C19.9262 14.4936 19.1769 16.2785 17.9971 17.6913C17.9914 17.6976 17.9858 17.704 17.9803 17.7106C17.8754 17.8357 17.7677 17.9571 17.6575 18.0749C16.923 18.8584 16.0482 19.5086 15.0732 19.9855C13.8271 20.593 12.4613 20.8959 11.0925 20.884C9.97114 20.8743 8.84777 20.6533 7.7867 20.2155C6.96502 19.8765 6.1807 19.4074 5.46359 18.8056C5.42175 18.7705 5.38032 18.7351 5.3393 18.6994C4.39037 17.8722 3.61879 16.8467 3.08921 15.6874C2.61952 14.6557 2.35467 13.5479 2.30031 12.4284C2.29357 12.2864 2.29017 12.1436 2.29017 11.9999C2.29017 8.37726 4.4593 5.26043 7.56938 3.8776C8.69387 3.3796 9.90596 3.12319 11.1234 3.11557C11.1405 3.11548 11.1575 3.11543 11.1746 3.11543C11.177 3.11543 11.1793 3.11542 11.1816 3.1154C13.1961 3.11594 15.2216 3.79788 16.8853 5.19383C17.227 5.48056 17.7364 5.43599 18.0231 5.09428C18.3099 4.75257 18.2653 4.24312 17.9236 3.9564C15.9255 2.27983 13.4859 1.47472 11.0671 1.50061Z" fill="#222222"/>
<path fill-rule="evenodd" clip-rule="evenodd" d="M10.75 8C11.1642 8 11.5 8.33579 11.5 8.75V12.9393L13.7803 15.2197C14.0732 15.5126 14.0732 15.9874 13.7803 16.2803C13.4874 16.5732 13.0126 16.5732 12.7197 16.2803L10.2197 13.7803C10.079 13.6397 10 13.4489 10 13.25V8.75C10 8.33579 10.3358 8 10.75 8Z" fill="#222222"/>
</svg>
