<svg width="24" height="24" viewBox="0 0 24 24" fill="none" xmlns="http://www.w3.org/2000/svg">
<path d="M7.95117 4.01653C7.95117 3.6424 8.25446 3.33911 8.62859 3.33911C9.00272 3.33911 9.30601 3.6424 9.30601 4.01653L9.30601 5.37137C9.30601 5.7455 9.00272 6.04879 8.62859 6.04879C8.25446 6.04879 7.95117 5.7455 7.95117 5.37137L7.95117 4.01653Z" fill="#222222"/>
<path d="M7.95117 8.51653C7.95117 8.1424 8.25446 7.83911 8.62859 7.83911C9.00272 7.83911 9.30601 8.1424 9.30601 8.51653L9.30601 9.87137C9.30601 10.2455 9.00272 10.5488 8.62859 10.5488C8.25446 10.5488 7.95117 10.2455 7.95117 9.87137L7.95117 8.51653Z" fill="#222222"/>
<path d="M10.6608 16.0488C10.2867 16.0488 9.98343 15.7455 9.98343 15.3714C9.98343 14.9972 10.2867 14.6939 10.6608 14.6939L12.0157 14.6939C12.3898 14.6939 12.6931 14.9972 12.6931 15.3714C12.6931 15.7455 12.3898 16.0488 12.0157 16.0488L10.6608 16.0488Z" fill="#222222"/>
<path d="M14.2738 15.3714C14.2738 15.7455 14.577 16.0488 14.9512 16.0488L16.306 16.0488C16.6801 16.0488 16.9834 15.7455 16.9834 15.3714C16.9834 14.9972 16.6801 14.6939 16.306 14.6939L14.9512 14.6939C14.577 14.6939 14.2738 14.9972 14.2738 15.3714Z" fill="#222222"/>
<path d="M19.0157 16.0488C18.6416 16.0488 18.3383 15.7455 18.3383 15.3714C18.3383 14.9972 18.6416 14.6939 19.0157 14.6939L20.3705 14.6939C20.7447 14.6939 21.0479 14.9972 21.0479 15.3714C21.0479 15.7455 20.7447 16.0488 20.3705 16.0488L19.0157 16.0488Z" fill="#222222"/>
<path d="M7.95117 12.8875C7.95117 12.5134 8.25446 12.2101 8.62859 12.2101C9.00272 12.2101 9.30601 12.5134 9.30601 12.8875L9.30601 14.2423C9.30601 14.6165 9.00272 14.9198 8.62859 14.9198C8.25446 14.9198 7.95117 14.6165 7.95117 14.2423L7.95117 12.8875Z" fill="#222222"/>
<path d="M21.0479 15.3712C21.0479 15.7453 20.7446 16.0486 20.3704 16.0486C19.9963 16.0486 19.693 15.7453 19.693 15.3712L19.693 14.0163C19.693 13.6422 19.9963 13.3389 20.3704 13.3389C20.7446 13.3389 21.0479 13.6422 21.0479 14.0163L21.0479 15.3712Z" fill="#222222"/>
<path d="M21.0479 10.8712C21.0479 11.2453 20.7446 11.5486 20.3704 11.5486C19.9963 11.5486 19.693 11.2453 19.693 10.8712L19.693 9.51633C19.693 9.1422 19.9963 8.83891 20.3704 8.83891C20.7446 8.83891 21.0479 9.1422 21.0479 9.51633L21.0479 10.8712Z" fill="#222222"/>
<path d="M18.3382 3.0483C18.7123 3.0483 19.0156 3.3516 19.0156 3.72572C19.0156 4.09985 18.7123 4.40314 18.3382 4.40314L16.9833 4.40314C16.6092 4.40314 16.3059 4.09985 16.3059 3.72572C16.3059 3.3516 16.6092 3.0483 16.9833 3.0483L18.3382 3.0483Z" fill="#222222"/>
<path d="M14.7253 3.72572C14.7253 3.3516 14.422 3.0483 14.0479 3.0483L12.693 3.0483C12.3189 3.0483 12.0156 3.3516 12.0156 3.72572C12.0156 4.09985 12.3189 4.40314 12.693 4.40314L14.0479 4.40314C14.422 4.40314 14.7253 4.09985 14.7253 3.72572Z" fill="#222222"/>
<path d="M9.98333 3.0483C10.3575 3.0483 10.6608 3.35159 10.6608 3.72572C10.6608 4.09985 10.3575 4.40314 9.98333 4.40314L8.6285 4.40314C8.25437 4.40314 7.95108 4.09985 7.95108 3.72572C7.95108 3.35159 8.25437 3.0483 8.6285 3.0483L9.98333 3.0483Z" fill="#222222"/>
<path d="M21.0479 6.5002C21.0479 6.87433 20.7446 7.17762 20.3704 7.17762C19.9963 7.17762 19.693 6.87433 19.693 6.5002L19.693 5.14536C19.693 4.77123 19.9963 4.46794 20.3704 4.46794C20.7446 4.46794 21.0479 4.77123 21.0479 5.14536L21.0479 6.5002Z" fill="#222222"/>
<path fill-rule="evenodd" clip-rule="evenodd" d="M7 8.49333H5.90244C4.95832 8.49333 4.24445 9.3807 4.24445 10.4L4.24445 17.6C4.24445 18.6193 4.95831 19.5067 5.90244 19.5067H14.0976C15.0417 19.5067 15.7556 18.6193 15.7556 17.6V17H17V17.6C17 19.4778 15.7005 21 14.0976 21H5.90244C4.29947 21 3 19.4778 3 17.6V10.4C3 8.52223 4.29947 7 5.90244 7H7V8.49333Z" fill="#222222"/>
</svg>
