<svg width="24" height="24" viewBox="0 0 24 24" fill="none" xmlns="http://www.w3.org/2000/svg">
<path fill-rule="evenodd" clip-rule="evenodd" d="M15.7556 10.4C15.7556 9.3807 15.0417 8.49333 14.0976 8.49333L5.90244 8.49333C4.95831 8.49333 4.24445 9.3807 4.24445 10.4L4.24445 17.6C4.24445 18.6193 4.95831 19.5067 5.90244 19.5067L14.0976 19.5067C15.0417 19.5067 15.7556 18.6193 15.7556 17.6L15.7556 10.4ZM17 10.4C17 8.52223 15.7005 7 14.0976 7L5.90244 7C4.29947 7 3 8.52223 3 10.4L3 17.6C3 19.4778 4.29947 21 5.90244 21L14.0976 21C15.7005 21 17 19.4778 17 17.6L17 10.4Z" fill="#222222"/>
<path d="M8.96795 3C8.59382 3 8.29053 3.30329 8.29053 3.67742C8.29053 4.05155 8.59382 4.35484 8.96795 4.35484H10.3228C10.6969 4.35484 11.0002 4.05155 11.0002 3.67742C11.0002 3.30329 10.6969 3 10.3228 3H8.96795Z" fill="#222222"/>
<path d="M13.4679 3C13.0938 3 12.7905 3.30329 12.7905 3.67742C12.7905 4.05155 13.0938 4.35484 13.4679 4.35484H14.8228C15.1969 4.35484 15.5002 4.05155 15.5002 3.67742C15.5002 3.30329 15.1969 3 14.8228 3H13.4679Z" fill="#222222"/>
<path d="M21.0002 5.70968C21.0002 5.33555 20.6969 5.03226 20.3228 5.03226C19.9487 5.03226 19.6454 5.33555 19.6454 5.70968V7.06452C19.6454 7.43864 19.9487 7.74194 20.3228 7.74194C20.6969 7.74194 21.0002 7.43864 21.0002 7.06452V5.70968Z" fill="#222222"/>
<path d="M20.3228 9.32258C20.6969 9.32258 21.0002 9.62587 21.0002 10V11.3548C21.0002 11.729 20.6969 12.0323 20.3228 12.0323C19.9487 12.0323 19.6454 11.729 19.6454 11.3548V10C19.6454 9.62587 19.9487 9.32258 20.3228 9.32258Z" fill="#222222"/>
<path d="M21.0002 14.0645C21.0002 13.6904 20.6969 13.3871 20.3228 13.3871C19.9487 13.3871 19.6454 13.6904 19.6454 14.0645V15.4194C19.6454 15.7935 19.9487 16.0968 20.3228 16.0968C20.6969 16.0968 21.0002 15.7935 21.0002 15.4194V14.0645Z" fill="#222222"/>
<path d="M17.8389 3C17.4648 3 17.1615 3.30329 17.1615 3.67742C17.1615 4.05155 17.4648 4.35484 17.8389 4.35484H19.1938C19.5679 4.35484 19.8712 4.05155 19.8712 3.67742C19.8712 3.30329 19.5679 3 19.1938 3H17.8389Z" fill="#222222"/>
<path d="M20.3226 16.0967C20.6967 16.0967 21 15.7934 21 15.4193C21 15.0451 20.6967 14.7418 20.3226 14.7418H18.9677C18.5936 14.7418 18.2903 15.0451 18.2903 15.4193C18.2903 15.7934 18.5936 16.0967 18.9677 16.0967H20.3226Z" fill="#222222"/>
<path d="M7.99972 5.03216C7.99972 5.40629 8.30301 5.70958 8.67714 5.70958C9.05126 5.70958 9.35456 5.40629 9.35456 5.03216V3.67733C9.35456 3.3032 9.05126 2.99991 8.67714 2.99991C8.30301 2.99991 7.99972 3.3032 7.99972 3.67733V5.03216Z" fill="#222222"/>
</svg>
