<svg width="24" height="24" viewBox="0 0 24 24" fill="none" xmlns="http://www.w3.org/2000/svg">
<path fill-rule="evenodd" clip-rule="evenodd" d="M19.0711 4.92893C22.9763 8.83417 22.9763 15.1658 19.0711 19.0711C15.1658 22.9763 8.83417 22.9763 4.92893 19.0711C1.02369 15.1658 1.02369 8.83417 4.92893 4.92893C8.83417 1.02369 15.1658 1.02369 19.0711 4.92893ZM15.5357 8.46443C15.8286 8.75733 15.8161 9.2447 15.5078 9.55301L13.0609 12L15.5078 14.4469C15.8161 14.7552 15.8286 15.2426 15.5357 15.5355C15.2429 15.8284 14.7555 15.8159 14.4472 15.5076L12.0002 13.0606L9.55325 15.5076C9.24494 15.8159 8.75757 15.8284 8.46468 15.5355C8.17179 15.2426 8.18428 14.7552 8.49259 14.4469L10.9396 12L8.49259 9.55301C8.18428 9.2447 8.17179 8.75733 8.46468 8.46444C8.75757 8.17154 9.24494 8.18404 9.55325 8.49235L12.0002 10.9393L14.4472 8.49235C14.7555 8.18404 15.2429 8.17154 15.5357 8.46443Z" fill="currentColor"/>
</svg>
