<svg width="24" height="24" viewBox="0 0 24 24" fill="none" xmlns="http://www.w3.org/2000/svg">
<path fill-rule="evenodd" clip-rule="evenodd" d="M20.2653 9.2536C21.8103 7.70862 21.8103 5.20372 20.2653 3.65874C18.7203 2.11375 16.2154 2.11376 14.6704 3.65873L12.0794 6.24971C11.7865 6.5426 11.7865 7.01748 12.0794 7.31037C12.3723 7.60326 12.8472 7.60326 13.1401 7.31037L15.7311 4.7194C16.6903 3.7602 18.2454 3.7602 19.2046 4.7194C20.1638 5.67859 20.1638 7.23375 19.2046 8.19294L14.0227 13.3749C13.0635 14.3341 11.5083 14.3341 10.5491 13.3749C10.2562 13.082 9.78136 13.082 9.48847 13.3749C9.19557 13.6678 9.19557 14.1427 9.48847 14.4356C11.0334 15.9805 13.5384 15.9805 15.0833 14.4356L20.2653 9.2536ZM3.65874 14.6703C2.11376 16.2153 2.11375 18.7202 3.65873 20.2652C5.20372 21.8102 7.70862 21.8102 9.2536 20.2652L11.8446 17.6742C12.1375 17.3813 12.1375 16.9065 11.8446 16.6136C11.5517 16.3207 11.0768 16.3207 10.7839 16.6136L8.19294 19.2045C7.23375 20.1637 5.67859 20.1637 4.71939 19.2045C3.7602 18.2453 3.7602 16.6902 4.7194 15.731L9.90135 10.549C10.8605 9.58985 12.4157 9.58985 13.3749 10.549C13.6678 10.8419 14.1427 10.8419 14.4356 10.549C14.7284 10.2561 14.7284 9.78127 14.4356 9.48838C12.8906 7.9434 10.3857 7.9434 8.84069 9.48838L3.65874 14.6703Z" fill="#222222"/>
</svg>
