<svg width="24" height="24" viewBox="0 0 24 24" fill="none" xmlns="http://www.w3.org/2000/svg">
<path d="M14.8002 12C14.8002 10.4536 13.5466 9.19995 12.0002 9.19995C10.4538 9.19995 9.2002 10.4536 9.2002 12C9.2002 13.5463 10.4538 14.8 12.0002 14.8C13.5466 14.8 14.8002 13.5463 14.8002 12Z" fill="#222222"/>
<path fill-rule="evenodd" clip-rule="evenodd" d="M12 6.4C8.90721 6.4 6.4 8.90721 6.4 12C6.4 15.0928 8.90721 17.6 12 17.6C15.0928 17.6 17.6 15.0928 17.6 12C17.6 8.90721 15.0928 6.4 12 6.4ZM5 12C5 8.13401 8.13401 5 12 5C15.866 5 19 8.13401 19 12C19 15.866 15.866 19 12 19C8.13401 19 5 15.866 5 12Z" fill="#EEEEEE"/>
<path fill-rule="evenodd" clip-rule="evenodd" d="M11.9646 6.3991L12 5C12.2418 5 12.4809 5.01228 12.7167 5.0363C16.2464 5.39571 19 8.37584 19 12C19 15.866 15.866 19 12 19C8.13401 19 5 15.866 5 12C5 11.6134 5.3134 11.3 5.7 11.3C6.0866 11.3 6.4 11.6134 6.4 12C6.4 15.0928 8.90721 17.6 12 17.6C15.0928 17.6 17.6 15.0928 17.6 12C17.6 9.10734 15.4062 6.72619 12.5921 6.43088L11.9646 6.3991Z" fill="#222222"/>
</svg>
