<svg width="24" height="24" viewBox="0 0 24 24" fill="none" xmlns="http://www.w3.org/2000/svg">
<path d="M16 9V8.3065H16.6935V9H16ZM4 9H3.3065V8.3065H4V9ZM16 9.6935H4V8.3065H16V9.6935ZM4.6935 9V19H3.3065V9H4.6935ZM7 21.3065H13V22.6935H7V21.3065ZM15.3065 19V9H16.6935V19H15.3065ZM13 21.3065C14.2738 21.3065 15.3065 20.2738 15.3065 19H16.6935C16.6935 21.0399 15.0399 22.6935 13 22.6935V21.3065ZM4.6935 19C4.6935 20.2738 5.72616 21.3065 7 21.3065V22.6935C4.96014 22.6935 3.3065 21.0399 3.3065 19H4.6935Z" fill="#222222"/>
<path d="M16 10H19C20.1046 10 21 10.8954 21 12V17C21 18.1046 20.1046 19 19 19H16" stroke="#222222" stroke-width="1.38" stroke-linecap="round" stroke-linejoin="round"/>
<path d="M5.5 4L5.45919 4.68879L5.98914 4.72019L6.15532 4.21599L5.5 4ZM10 2.71297L9.52354 3.21205L10 3.66693L10.4765 3.21205L10 2.71297ZM14.5 4L13.8447 4.21599L14.0109 4.72019L14.5408 4.68879L14.5 4ZM4 9L3.65233 9.59601L3.81346 9.69H4V9ZM16 9V9.69H16.1865L16.3477 9.59601L16 9ZM5.35208 3.30563C4.47655 3.30563 3.68561 3.58847 3.12104 4.21162C2.5649 4.82546 2.31 5.67962 2.31 6.66667H3.69C3.69 5.90372 3.88627 5.42235 4.14373 5.13818C4.39276 4.86331 4.77786 4.68563 5.35208 4.68563V3.30563ZM5.54081 3.31121C5.47827 3.3075 5.41534 3.30563 5.35208 3.30563V4.68563C5.3881 4.68563 5.42381 4.6867 5.45919 4.68879L5.54081 3.31121ZM8.25 1.31C7.50245 1.31 6.76571 1.6029 6.17434 2.03355C5.58281 2.46431 5.07823 3.07541 4.84468 3.78401L6.15532 4.21599C6.28096 3.8348 6.57915 3.44589 6.98671 3.1491C7.39441 2.8522 7.85308 2.69 8.25 2.69V1.31ZM10.4765 2.21389C9.8931 1.65695 9.11236 1.31 8.25 1.31V2.69C8.73226 2.69 9.17808 2.88224 9.52354 3.21205L10.4765 2.21389ZM10.4765 3.21205C10.8219 2.88224 11.2677 2.69 11.75 2.69V1.31C10.8876 1.31 10.1069 1.65695 9.52354 2.21389L10.4765 3.21205ZM11.75 2.69C12.1469 2.69 12.6056 2.8522 13.0133 3.1491C13.4208 3.44589 13.719 3.8348 13.8447 4.21599L15.1553 3.78401C14.9218 3.07541 14.4172 2.46431 13.8257 2.03355C13.2343 1.6029 12.4976 1.31 11.75 1.31V2.69ZM14.5408 4.68879C14.5762 4.6867 14.6119 4.68563 14.6479 4.68563V3.30563C14.5847 3.30563 14.5217 3.3075 14.4592 3.31121L14.5408 4.68879ZM14.6479 4.68563C15.2221 4.68563 15.6072 4.86331 15.8563 5.13817C16.1137 5.42235 16.31 5.90371 16.31 6.66667H17.69C17.69 5.67962 17.4351 4.82546 16.879 4.21162C16.3144 3.58847 15.5235 3.30563 14.6479 3.30563V4.68563ZM2.31 6.66667C2.31 7.68251 2.60304 8.40161 2.93094 8.8798C3.09245 9.11534 3.25757 9.28545 3.38938 9.40079C3.45529 9.45845 3.51304 9.50259 3.5582 9.53457C3.58079 9.55058 3.60029 9.56358 3.61614 9.57375C3.62406 9.57884 3.63109 9.58322 3.63714 9.58692C3.64017 9.58877 3.64295 9.59045 3.64548 9.59197C3.64675 9.59272 3.64796 9.59344 3.6491 9.59411C3.64967 9.59445 3.65022 9.59477 3.65076 9.59509C3.65103 9.59525 3.65142 9.59548 3.65156 9.59556C3.65194 9.59578 3.65233 9.59601 4 9C4.34767 8.40399 4.34805 8.40421 4.34842 8.40443C4.34854 8.4045 4.34891 8.40472 4.34915 8.40486C4.34963 8.40514 4.35009 8.40541 4.35054 8.40568C4.35144 8.40621 4.35228 8.40671 4.35307 8.40718C4.35464 8.40811 4.35599 8.40893 4.35712 8.40963C4.35939 8.41101 4.3608 8.41191 4.3614 8.41229C4.3626 8.41306 4.36061 8.41183 4.35586 8.40846C4.34633 8.40171 4.32596 8.3866 4.29812 8.36223C4.24243 8.31351 4.15755 8.22841 4.06906 8.09937C3.89696 7.84839 3.69 7.40082 3.69 6.66667H2.31ZM4 9.69H16V8.31H4V9.69ZM16 9C16.3477 9.59601 16.3481 9.59578 16.3484 9.59556C16.3486 9.59548 16.349 9.59525 16.3492 9.59509C16.3498 9.59477 16.3503 9.59445 16.3509 9.59411C16.352 9.59344 16.3532 9.59272 16.3545 9.59197C16.357 9.59045 16.3598 9.58877 16.3629 9.58692C16.3689 9.58322 16.3759 9.57884 16.3839 9.57375C16.3997 9.56358 16.4192 9.55058 16.4418 9.53457C16.487 9.50259 16.5447 9.45845 16.6106 9.40079C16.7424 9.28545 16.9076 9.11534 17.0691 8.8798C17.397 8.40161 17.69 7.68251 17.69 6.66667H16.31C16.31 7.40082 16.103 7.84839 15.9309 8.09937C15.8424 8.22841 15.7576 8.31351 15.7019 8.36223C15.674 8.3866 15.6537 8.40171 15.6441 8.40846C15.6394 8.41183 15.6374 8.41306 15.6386 8.41229C15.6392 8.41191 15.6406 8.41101 15.6429 8.40963C15.644 8.40893 15.6454 8.40811 15.6469 8.40718C15.6477 8.40671 15.6486 8.40621 15.6495 8.40568C15.6499 8.40541 15.6504 8.40514 15.6509 8.40486C15.6511 8.40472 15.6515 8.4045 15.6516 8.40443C15.652 8.40421 15.6523 8.40399 16 9Z" fill="#222222"/>
</svg>
