<svg width="24" height="24" viewBox="0 0 24 24" fill="none" xmlns="http://www.w3.org/2000/svg">
<path fill-rule="evenodd" clip-rule="evenodd" d="M10.5707 2.16071C11.2207 1.03171 12.8499 1.03172 13.4999 2.16071L14.4235 3.76482C14.691 4.19291 14.8269 4.68507 14.8269 5.20311C14.8269 6.50181 13.9377 7.60158 12.7251 7.90913V8.99982H16.4412C18.1305 8.99982 19.5 10.3693 19.5 12.0587V17.941C19.5 19.6303 18.1305 20.9998 16.4412 20.9998H7.55885C5.86949 20.9998 4.5 19.6303 4.5 17.941V12.0587C4.5 10.3693 5.86949 8.99982 7.55885 8.99982H11.2749V7.88912C10.1052 7.55647 9.24365 6.47671 9.24365 5.20311C9.24365 4.68507 9.37957 4.19291 9.64713 3.76482L10.5707 2.16071ZM5.90707 16.1319V17.941C5.90707 18.8532 6.6466 19.5927 7.55885 19.5927H16.4412C17.3534 19.5927 18.0929 18.8532 18.0929 17.941V16.1319C16.7151 16.1262 15.7694 15.6651 15.167 15.0502C15.129 15.0114 15.0925 14.972 15.0574 14.9323C15.0223 14.972 14.9857 15.0114 14.9477 15.0502C14.3416 15.6689 13.3879 16.1319 11.9961 16.1319C10.6332 16.1319 9.67722 15.7371 9.05828 15.1392C9.01372 15.0961 8.97125 15.0523 8.9308 15.0079C8.89328 15.0489 8.85404 15.0894 8.81304 15.1293C8.20056 15.7247 7.25539 16.1253 5.90707 16.1319ZM18.0929 14.7248C17.052 14.7193 16.482 14.3818 16.1722 14.0655C16.009 13.899 15.9032 13.7235 15.8392 13.5721C15.8071 13.4965 15.7867 13.4295 15.7747 13.3763C15.7687 13.3498 15.7651 13.3282 15.7631 13.3118C15.7626 13.3079 15.7622 13.3045 15.7619 13.3014C15.7616 13.298 15.7614 13.2951 15.7612 13.2927L15.7609 13.2874L15.7609 13.286C15.7609 12.8975 15.4459 12.582 15.0574 12.582C14.6688 12.582 14.3538 12.897 14.3538 13.2855L14.3538 13.2874L14.3535 13.2927C14.3532 13.2973 14.3526 13.3036 14.3516 13.3118C14.3496 13.3282 14.346 13.3498 14.3401 13.3763C14.328 13.4295 14.3076 13.4965 14.2755 13.5721C14.2115 13.7235 14.1057 13.899 13.9425 14.0655C13.6302 14.3844 13.0534 14.7249 11.9961 14.7249C10.91 14.7249 10.3354 14.4165 10.036 14.1272C9.72502 13.8268 9.63841 13.479 9.63841 13.2855C9.63841 12.897 9.32342 12.582 8.93487 12.582C8.54632 12.582 8.23134 12.897 8.23134 13.2855C8.23134 13.4653 8.14635 13.815 7.8322 14.1204C7.53447 14.4099 6.96833 14.7184 5.90707 14.7248V12.0587C5.90707 11.1464 6.6466 10.4069 7.55885 10.4069H16.4412C17.3534 10.4069 18.0929 11.1464 18.0929 12.0587V14.7248ZM12.304 2.84929C12.1847 2.64219 11.8859 2.64219 11.7666 2.84929L10.8291 4.47765L10.8213 4.48994C10.6951 4.68927 10.6237 4.92787 10.6237 5.20311C10.6237 5.97793 11.2605 6.61475 12.0353 6.61475C12.8184 6.61475 13.4469 5.98018 13.4469 5.20311C13.4469 4.92787 13.3755 4.68927 13.2493 4.48994L13.2415 4.47765L12.304 2.84929Z" fill="#222222"/>
</svg>
