<svg width="24" height="24" viewBox="0 0 24 24" fill="none" xmlns="http://www.w3.org/2000/svg">
<rect x="2.69" y="5.69" width="16.62" height="12.62" rx="2.31" stroke="#222222" stroke-width="1.38"/>
<path fill-rule="evenodd" clip-rule="evenodd" d="M11.1918 11.5111C10.0769 11.2489 9.71832 10.9778 9.71832 10.5556C9.71832 10.0711 10.2144 9.73333 11.0444 9.73333C11.6254 9.73333 11.9635 9.90015 12.1335 10.1751C12.2858 10.4212 12.4991 10.6667 12.7885 10.6667C13.0987 10.6667 13.3545 10.4008 13.2415 10.1119C13.0339 9.5811 12.5513 9.14338 11.7812 8.97333V8.73674C11.7812 8.32985 11.4513 8 11.0444 8C10.6376 8 10.3077 8.32985 10.3077 8.73674V8.96C9.35486 9.14667 8.58865 9.70667 8.58865 10.5644C8.58865 11.5911 9.52677 12.1022 10.8971 12.4C12.125 12.6667 12.3706 13.0578 12.3706 13.4711C12.3706 13.7778 12.1299 14.2667 11.0444 14.2667C10.3584 14.2667 9.95461 14.0787 9.74889 13.7941C9.58371 13.5657 9.36648 13.3333 9.08455 13.3333C8.76772 13.3333 8.50638 13.6091 8.63417 13.899C8.90942 14.5235 9.56603 14.8922 10.3077 15.0356V15.2633C10.3077 15.6702 10.6376 16 11.0444 16C11.4513 16 11.7812 15.6702 11.7812 15.2633V15.0444C12.7389 14.88 13.5002 14.3778 13.5002 13.4667C13.5002 12.2044 12.3067 11.7733 11.1918 11.5111Z" fill="#222222"/>
<path d="M23 11.6667C23 11.2985 22.7045 11 22.34 11C21.9755 11 21.68 11.2985 21.68 11.6667V18.6667C21.68 19.7712 20.7935 20.6667 19.7 20.6667H8.66C8.29549 20.6667 8 20.9651 8 21.3333C8 21.7015 8.29549 22 8.66 22H19.7C21.5225 22 23 20.5076 23 18.6667V11.6667Z" fill="#222222"/>
</svg>
