<svg width="24" height="24" viewBox="0 0 24 24" fill="none" xmlns="http://www.w3.org/2000/svg">
<mask id="path-1-inside-1_25520_18349" fill="white">
<path d="M17 9.43994C17 7.78309 15.6569 6.43994 14 6.43994H6C4.34315 6.43994 3 7.78309 3 9.43994V15.4399C3 18.7536 5.68629 21.4399 9 21.4399H11C14.3137 21.4399 17 18.7536 17 15.4399V9.43994Z"/>
</mask>
<path d="M14 7.82694H6V5.05294H14V7.82694ZM4.387 9.43994V15.4399H1.613V9.43994H4.387ZM9 20.0529H11V22.8269H9V20.0529ZM15.613 15.4399V9.43994H18.387V15.4399H15.613ZM11 20.0529C13.5477 20.0529 15.613 17.9876 15.613 15.4399H18.387C18.387 19.5197 15.0797 22.8269 11 22.8269V20.0529ZM4.387 15.4399C4.387 17.9876 6.45231 20.0529 9 20.0529V22.8269C4.92027 22.8269 1.613 19.5197 1.613 15.4399H4.387ZM6 7.82694C5.10917 7.82694 4.387 8.54911 4.387 9.43994H1.613C1.613 7.01707 3.57713 5.05294 6 5.05294V7.82694ZM14 5.05294C16.4229 5.05294 18.387 7.01707 18.387 9.43994H15.613C15.613 8.54911 14.8908 7.82694 14 7.82694V5.05294Z" fill="#222222" mask="url(#path-1-inside-1_25520_18349)"/>
<path d="M17 9.43994H19C20.1046 9.43994 21 10.3354 21 11.4399V14.4399C21 15.5445 20.1046 16.4399 19 16.4399H17" stroke="#222222" stroke-width="1.38" stroke-linecap="round" stroke-linejoin="round"/>
<path d="M8.0625 4.87939L8.74654 3.00001" stroke="#222222" stroke-width="1.38" stroke-linecap="round"/>
<path d="M11.6582 4.87939L12.3422 3.00001" stroke="#222222" stroke-width="1.38" stroke-linecap="round"/>
</svg>
