<svg width="24" height="24" viewBox="0 0 24 24" fill="none" xmlns="http://www.w3.org/2000/svg">
<rect x="3.69" y="6.69" width="16.62" height="14.62" rx="2.31" stroke="#222222" stroke-width="1.38"/>
<path d="M4 14H20V15.38H4V14Z" fill="#222222"/>
<path d="M12.6899 7.68994L12.6899 21.4999L11.3099 21.4999L11.3099 7.68994L12.6899 7.68994Z" fill="#222222"/>
<path fill-rule="evenodd" clip-rule="evenodd" d="M9.69 2C8.20435 2 7 3.20435 7 4.69C7 5.48398 7.34398 6.19761 7.89105 6.69C7.34398 7.1824 7 7.89603 7 8.69C7 10.1757 8.20435 11.38 9.69 11.38C10.8241 11.38 11.4662 10.6782 11.8618 9.68512C12.2574 10.6782 13.2276 11.38 14.3618 11.38C15.8474 11.38 17.0518 10.1757 17.0518 8.69C17.0518 7.89603 16.7078 7.1824 16.1607 6.69C16.7078 6.19761 17.0518 5.48398 17.0518 4.69C17.0518 3.20435 15.8474 2 14.3618 2C13.2276 2 12.2574 2.70184 11.8618 3.69489C11.4662 2.70184 10.8241 2 9.69 2ZM8.38 4.69C8.38 3.96651 8.96651 3.38 9.69 3.38C10.4135 3.38 11 3.96651 11 4.69V6H9.69C8.96651 6 8.38 5.41349 8.38 4.69ZM15.6718 4.69C15.6718 3.96651 15.0853 3.38 14.3618 3.38C13.6383 3.38 13.0518 3.96651 13.0518 4.69V6H14.3618C15.0853 6 15.6718 5.41349 15.6718 4.69ZM9.69 10C8.96651 10 8.38 9.4135 8.38 8.69C8.38 7.96651 8.96651 7.38 9.69 7.38H11V8.69C11 9.4135 10.4135 10 9.69 10ZM15.6718 8.69C15.6718 9.4135 15.0853 10 14.3618 10C13.6383 10 13.0518 9.4135 13.0518 8.69V7.38H14.3618C15.0853 7.38 15.6718 7.96651 15.6718 8.69Z" fill="#222222"/>
</svg>
