<svg width="24" height="24" viewBox="0 0 24 24" fill="none" xmlns="http://www.w3.org/2000/svg">
<path fill-rule="evenodd" clip-rule="evenodd" d="M5 6C5 4.34315 6.34315 3 8 3H16C17.6569 3 19 4.34315 19 6V18C19 19.6569 17.6569 21 16 21H8C6.34315 21 5 19.6569 5 18V6ZM16 4.38H8C7.1053 4.38 6.38 5.1053 6.38 6V10.38L17.62 10.38V6C17.62 5.1053 16.8947 4.38 16 4.38ZM6.38 18C6.38 18.8947 7.1053 19.62 8 19.62H16C16.8947 19.62 17.62 18.8947 17.62 18V11.76L6.38 11.76V18Z" fill="#222222"/>
<path d="M9.37988 14.49V15.81C9.37988 16.1911 9.07096 16.5 8.68988 16.5C8.30881 16.5 7.99988 16.1911 7.99988 15.81V14.49C7.99988 14.1089 8.30881 13.8 8.68988 13.8C9.07096 13.8 9.37988 14.1089 9.37988 14.49Z" fill="#222222"/>
<path d="M9.37988 7.29V8.31C9.37988 8.69108 9.07096 9 8.68988 9C8.30881 9 7.99988 8.69108 7.99988 8.31V7.29C7.99988 6.90892 8.30881 6.6 8.68988 6.6C9.07096 6.6 9.37988 6.90892 9.37988 7.29Z" fill="#222222"/>
</svg>
