<svg width="24" height="24" viewBox="0 0 24 24" fill="none" xmlns="http://www.w3.org/2000/svg">
<path fill-rule="evenodd" clip-rule="evenodd" d="M17.6875 14.25V9C17.6875 5.85888 15.1411 3.3125 12 3.3125C8.85888 3.3125 6.3125 5.85888 6.3125 9V14.25C6.3125 17.3911 8.85888 19.9375 12 19.9375C15.1411 19.9375 17.6875 17.3911 17.6875 14.25ZM12 2C8.13401 2 5 5.13401 5 9V14.25C5 18.116 8.13401 21.25 12 21.25C15.866 21.25 19 18.116 19 14.25V9C19 5.13401 15.866 2 12 2Z" fill="#222222"/>
<path d="M11.125 6.375C11.125 5.89175 11.5168 5.5 12 5.5C12.4832 5.5 12.875 5.89175 12.875 6.375V8.125C12.875 8.60825 12.4832 9 12 9C11.5168 9 11.125 8.60825 11.125 8.125V6.375Z" fill="#222222"/>
</svg>
