<svg width="24" height="24" viewBox="0 0 24 24" fill="none" xmlns="http://www.w3.org/2000/svg">
<path fill-rule="evenodd" clip-rule="evenodd" d="M11.01 7.50006H6.5V4.66173C6.5 3.41633 7.5096 2.40673 8.755 2.40673C10.0004 2.40673 11.01 3.41633 11.01 4.66173V7.50006ZM8.755 3.78673C8.27175 3.78673 7.88 4.17848 7.88 4.66173V6.12006H9.63V4.66173C9.63 4.17848 9.23825 3.78673 8.755 3.78673Z" fill="#222222"/>
<path fill-rule="evenodd" clip-rule="evenodd" d="M17.5002 7.50007H12.9902V4.66174C12.9902 3.41634 13.9998 2.40674 15.2452 2.40674C16.4906 2.40674 17.5002 3.41634 17.5002 4.66174V7.50007ZM15.2452 3.78674C14.762 3.78674 14.3702 4.17849 14.3702 4.66174V6.12007H16.1202V4.66174C16.1202 4.17849 15.7285 3.78674 15.2452 3.78674Z" fill="#222222"/>
<path fill-rule="evenodd" clip-rule="evenodd" d="M8.4999 6.22656C6.1398 6.22656 4.22656 8.1398 4.22656 10.4999V12.4999C4.22656 14.86 6.1398 16.7732 8.4999 16.7732H9.22656V19.9999C9.22656 21.5316 10.4682 22.7732 11.9999 22.7732C13.5316 22.7732 14.7732 21.5316 14.7732 19.9999V16.7732H15.4999C17.86 16.7732 19.7732 14.86 19.7732 12.4999V10.4999C19.7732 8.1398 17.86 6.22656 15.4999 6.22656H8.4999ZM10.5 20.2731V17.0465H10.5028V16.6898C10.5028 16.0326 10.2432 15.7266 9.586 15.7266H8.4999C6.994 15.7266 5.5 14.5058 5.5 12.9999V10.4999C5.5 8.99398 6.994 7.49988 8.4999 7.49988H15.4999C17.0058 7.49988 18.5 8.994 18.5 10.4999V12.9999C18.5 14.5058 17.0058 15.7266 15.4999 15.7266H14.4141C13.7569 15.7266 13.4976 16.0326 13.4976 16.6898V17.0465H13.5V20.2731C13.5 20.9506 12.6774 21.4999 11.9999 21.4999C11.3224 21.4999 10.5 20.9506 10.5 20.2731Z" fill="#222222"/>
</svg>
