<svg width="24" height="24" viewBox="0 0 24 24" fill="none" xmlns="http://www.w3.org/2000/svg">
<path d="M18 8.38H6C5.1053 8.38 4.38 9.1053 4.38 10V16C4.38 16.8947 5.1053 17.62 6 17.62V19C4.34315 19 3 17.6569 3 16V10C3 8.34315 4.34315 7 6 7H18C19.6569 7 21 8.34315 21 10V16C21 17.6569 19.6569 19 18 19V17.62C18.8947 17.62 19.62 16.8947 19.62 16V10C19.62 9.1053 18.8947 8.38 18 8.38Z" fill="#222222"/>
<path d="M17.31 10C17.6911 10 18 10.3089 18 10.69C18 11.0711 17.6911 11.38 17.31 11.38L15.69 11.38C15.3089 11.38 15 11.0711 15 10.69C15 10.3089 15.3089 10 15.69 10L17.31 10Z" fill="#222222"/>
<path d="M7.6875 4.125C7.3078 4.125 7 4.4328 7 4.8125C7 5.1922 7.3078 5.5 7.6875 5.5H16.3125C16.6922 5.5 17 5.1922 17 4.8125C17 4.4328 16.6922 4.125 16.3125 4.125H7.6875Z" fill="#222222"/>
<rect x="6.69" y="13.69" width="10.62" height="8.62" rx="2.31" stroke="#222222" stroke-width="1.38"/>
</svg>
