<svg width="24" height="24" viewBox="0 0 24 24" fill="none" xmlns="http://www.w3.org/2000/svg">
<rect x="3.69" y="9.69" width="16.62" height="9.62" rx="2.31" stroke="#222222" stroke-width="1.38"/>
<path d="M8.81 15.6201C9.19108 15.6201 9.5 15.929 9.5 16.3101C9.5 16.6912 9.19108 17.0001 8.81 17.0001L7.19 17.0001C6.80892 17.0001 6.5 16.6912 6.5 16.3101C6.5 15.929 6.80892 15.6201 7.19 15.6201L8.81 15.6201Z" fill="#222222"/>
<path d="M16.8271 4.19183C13.885 1.26942 9.11431 1.26934 6.17282 4.19189C5.94235 4.42088 5.9424 4.7921 6.17293 5.02103C6.40346 5.24996 6.77718 5.24991 7.00766 5.02092C9.48805 2.5565 13.5112 2.55642 15.9924 5.02097C16.2229 5.24993 16.5966 5.24993 16.8271 5.02097C17.0576 4.79201 17.0576 4.42079 16.8271 4.19183Z" fill="#222222"/>
<path d="M11.6457 4.71635C10.4763 4.71635 9.35478 5.17778 8.52785 5.99913C8.29735 6.22809 8.29734 6.5993 8.52784 6.82827C8.75833 7.05724 9.13205 7.05724 9.36256 6.82829C9.96811 6.22682 10.7894 5.88893 11.6457 5.88893C12.5021 5.88893 13.3234 6.22682 13.9289 6.82829C14.1594 7.05724 14.5331 7.05724 14.7636 6.82827C14.9941 6.5993 14.9941 6.22809 14.7636 5.99913C13.9367 5.17778 12.8152 4.71635 11.6457 4.71635Z" fill="#222222"/>
</svg>
