<svg width="24" height="24" viewBox="0 0 24 24" fill="none" xmlns="http://www.w3.org/2000/svg">
<path d="M17.2344 7.86683V11.7224H6.93522V7.86683C6.93522 7.38809 6.54713 7 6.06839 7C5.58966 7 5.20156 7.38809 5.20156 7.86683L5.20156 8.69455L4.73438 8.69455C4.18209 8.69455 3.73438 9.14226 3.73437 9.69455L3.73437 11.7224H2.77759C2.34814 11.7224 2 12.0705 2 12.5C2 12.9294 2.34814 13.2776 2.77759 13.2776H3.73437L3.73437 15.3054C3.73437 15.8577 4.18209 16.3054 4.73437 16.3054L5.20156 16.3054L5.20156 17.2016C5.20156 17.6425 5.55904 18 6 18C6.5 18 6.93522 17.5523 6.93522 17V13.2776H17.2344V17.1332C17.2344 17.6119 17.6225 18 18.1012 18C18.5799 18 18.968 17.6119 18.968 17.1332V16.3054L19.4352 16.3054C19.9875 16.3054 20.4352 15.8577 20.4352 15.3054V13.2776H21.392C21.8215 13.2776 22.1696 12.9294 22.1696 12.5C22.1696 12.0705 21.8215 11.7224 21.392 11.7224H20.4352V9.69455C20.4352 9.14226 19.9875 8.69455 19.4352 8.69455L18.968 8.69455V7.86683C18.968 7.38809 18.5799 7 18.1012 7C17.6225 7 17.2344 7.38809 17.2344 7.86683Z" fill="#222222"/>
</svg>
