<svg width="24" height="24" viewBox="0 0 24 24" fill="none" xmlns="http://www.w3.org/2000/svg">
<path fill-rule="evenodd" clip-rule="evenodd" d="M20.5908 22.0602C20.8837 21.7673 20.8837 21.2925 20.5908 20.9996L3.59076 3.99958C3.29787 3.70669 2.823 3.70668 2.5301 3.99958C2.23721 4.29247 2.23721 4.76735 2.5301 5.06024L19.5301 22.0602C19.823 22.3531 20.2979 22.3531 20.5908 22.0602Z" fill="#222222"/>
<path fill-rule="evenodd" clip-rule="evenodd" d="M20.9452 11C20.4847 6.82524 17.1748 3.51525 13 3.0548V2C13 1.44772 12.5523 1 12 1C11.4477 1 11 1.44772 11 2V3.0548C9.62834 3.20609 8.35004 3.66498 7.23549 4.3611L8.33137 5.45698C9.41593 4.84756 10.6674 4.5 12 4.5C16.1421 4.5 19.5 7.85786 19.5 12C19.5 13.3326 19.1524 14.5841 18.543 15.6686L19.6389 16.7645C20.335 15.65 20.7939 14.3717 20.9452 13H22C22.5523 13 23 12.5523 23 12C23 11.4477 22.5523 11 22 11H20.9452ZM17.9131 18.7878L16.848 17.7227C15.5406 18.8313 13.8484 19.5 12 19.5C7.85786 19.5 4.5 16.1421 4.5 12C4.5 10.1516 5.16866 8.45937 6.2773 7.15201L5.21216 6.08686C4.03982 7.43179 3.26115 9.12906 3.0548 11H2C1.44772 11 1 11.4477 1 12C1 12.5523 1.44772 13 2 13H3.0548C3.51525 17.1748 6.82524 20.4847 11 20.9452V22C11 22.5523 11.4477 23 12 23C12.5523 23 13 22.5523 13 22V20.9452C14.8709 20.7388 16.5682 19.9602 17.9131 18.7878Z" fill="#222222"/>
</svg>
