<svg width="24" height="24" viewBox="0 0 24 24" fill="none" xmlns="http://www.w3.org/2000/svg">
<path fill-rule="evenodd" clip-rule="evenodd" d="M3 6.38574C3 4.52178 4.51104 3.01074 6.375 3.01074H17.625C19.489 3.01074 21 4.52178 21 6.38574V17.6357C21 19.1669 19.9804 20.4599 18.5831 20.8728L13.6216 14.8566L11.4202 12.0548C10.3985 10.7544 8.5346 10.4875 7.18897 11.449L6.27539 12.1017L3 14.6031V6.38574ZM16.5 9.19824C16.5 10.1302 15.7445 10.8857 14.8125 10.8857C13.8805 10.8857 13.125 10.1302 13.125 9.19824C13.125 8.26626 13.8805 7.51074 14.8125 7.51074C15.7445 7.51074 16.5 8.26626 16.5 9.19824Z" fill="#222222"/>
<path d="M3.75 6C3.75 4.75736 4.75736 3.75 6 3.75H18C19.2426 3.75 20.25 4.75736 20.25 6V18C20.25 19.2426 19.2426 20.25 18 20.25H6C4.75736 20.25 3.75 19.2426 3.75 18V6Z" stroke="#222222" stroke-width="1.5"/>
</svg>
