<svg width="24" height="24" viewBox="0 0 24 24" fill="none" xmlns="http://www.w3.org/2000/svg">
<path d="M10.4932 15.4414H9.64648V12.1777L8.63574 12.4912V11.8027L10.4023 11.1699H10.4932V15.4414Z" fill="#222222"/>
<path fill-rule="evenodd" clip-rule="evenodd" d="M14.3838 15.0312C14.6279 14.7187 14.75 14.2676 14.75 13.6777V12.8926C14.7441 12.3203 14.6182 11.8813 14.3721 11.5757C14.126 11.27 13.7705 11.1172 13.3057 11.1172C12.8408 11.1172 12.4849 11.2715 12.2378 11.5801C11.9907 11.8887 11.8672 12.3408 11.8672 12.9365V13.7217C11.873 14.2939 11.999 14.7334 12.2451 15.04C12.4912 15.3467 12.8467 15.5 13.3115 15.5C13.7822 15.5 14.1396 15.3438 14.3838 15.0312ZM13.7583 12.0444C13.855 12.2056 13.9033 12.4629 13.9033 12.8164V13.8301C13.8994 14.1641 13.8516 14.4121 13.7598 14.5742C13.668 14.7363 13.5186 14.8174 13.3115 14.8174C13.1025 14.8174 12.9507 14.7329 12.856 14.564C12.7612 14.395 12.7139 14.1367 12.7139 13.7891V12.752C12.7197 12.4258 12.77 12.186 12.8647 12.0327C12.9595 11.8794 13.1064 11.8027 13.3057 11.8027C13.5107 11.8027 13.6616 11.8833 13.7583 12.0444Z" fill="#222222"/>
<path fill-rule="evenodd" clip-rule="evenodd" d="M7.83303 5.96185C7.57098 5.80142 7.57098 5.40406 7.83303 5.24363L11.4044 3.05726C11.6685 2.89558 12.0001 3.0955 12.0001 3.41637V4.82192C16.971 4.82198 21 8.66799 21 13.411C21 18.154 16.9709 22 12 22C7.02999 22 3 18.154 3 13.411C3 12.9797 3.36631 12.6301 3.81818 12.6301C4.27005 12.6301 4.63636 12.9797 4.63636 13.411C4.63636 17.2915 7.93373 20.4384 12 20.4384C16.0671 20.4384 19.3636 17.2916 19.3636 13.411C19.3636 9.53035 16.0672 6.38362 12.0001 6.38356V7.78911C12.0001 8.10998 11.6685 8.3099 11.4044 8.14822L7.83303 5.96185Z" fill="#222222"/>
</svg>
