<svg width="24" height="24" viewBox="0 0 24 24" fill="none" xmlns="http://www.w3.org/2000/svg">
<path d="M11.1074 15.4414H10.2607V12.1777L9.25 12.4912V11.8027L11.0166 11.1699H11.1074V15.4414Z" fill="#222222"/>
<path fill-rule="evenodd" clip-rule="evenodd" d="M14.998 15.0312C15.2422 14.7187 15.3643 14.2676 15.3643 13.6777V12.8926C15.3584 12.3203 15.2324 11.8813 14.9863 11.5757C14.7402 11.27 14.3848 11.1172 13.9199 11.1172C13.4551 11.1172 13.0991 11.2715 12.8521 11.5801C12.605 11.8887 12.4814 12.3408 12.4814 12.9365V13.7217C12.4873 14.2939 12.6133 14.7334 12.8594 15.04C13.1055 15.3467 13.4609 15.5 13.9258 15.5C14.3965 15.5 14.7539 15.3438 14.998 15.0312ZM14.3726 12.0444C14.4692 12.2056 14.5176 12.4629 14.5176 12.8164V13.8301C14.5137 14.1641 14.4658 14.4121 14.374 14.5742C14.2822 14.7363 14.1328 14.8174 13.9258 14.8174C13.7168 14.8174 13.5649 14.7329 13.4702 14.564C13.3755 14.395 13.3281 14.1367 13.3281 13.7891V12.752C13.334 12.4258 13.3843 12.186 13.479 12.0327C13.5737 11.8794 13.7207 11.8027 13.9199 11.8027C14.125 11.8027 14.2759 11.8833 14.3726 12.0444Z" fill="#222222"/>
<path fill-rule="evenodd" clip-rule="evenodd" d="M16.167 5.96185C16.429 5.80142 16.429 5.40406 16.167 5.24363L12.5956 3.05726C12.3315 2.89558 11.9999 3.0955 11.9999 3.41637V4.82192C7.02899 4.82198 3 8.66799 3 13.411C3 18.154 7.02905 22 12 22C16.97 22 21 18.154 21 13.411C21 12.9797 20.6337 12.6301 20.1818 12.6301C19.7299 12.6301 19.3636 12.9797 19.3636 13.411C19.3636 17.2915 16.0663 20.4384 12 20.4384C7.93291 20.4384 4.63636 17.2916 4.63636 13.411C4.63636 9.53035 7.93284 6.38362 11.9999 6.38356V7.78911C11.9999 8.10998 12.3315 8.3099 12.5956 8.14822L16.167 5.96185Z" fill="#222222"/>
</svg>
