<svg width="24" height="24" viewBox="0 0 24 24" fill="none" xmlns="http://www.w3.org/2000/svg">
<path fill-rule="evenodd" clip-rule="evenodd" d="M16.5013 14.2333C15.2251 14.2333 14.18 15.2454 14.18 16.5C14.18 17.7546 15.2251 18.7667 16.5013 18.7667C17.7775 18.7667 18.8227 17.7546 18.8227 16.5C18.8227 15.2454 17.7775 14.2333 16.5013 14.2333ZM15.2494 16.5C15.2494 15.8345 15.8071 15.2846 16.5013 15.2846C17.1955 15.2846 17.7532 15.8345 17.7532 16.5C17.7532 17.1655 17.1955 17.7154 16.5013 17.7154C15.8071 17.7154 15.2494 17.1655 15.2494 16.5Z" fill="#222222"/>
<path fill-rule="evenodd" clip-rule="evenodd" d="M14.7005 11.6627C14.7546 11.2664 15.1035 11 15.4804 11H17.5223C17.8992 11 18.2481 11.2664 18.3021 11.6627L18.4537 12.6927C18.6089 12.7686 18.7579 12.8534 18.9012 12.9462L19.9131 12.5502L19.9187 12.5483C20.2436 12.4332 20.6701 12.5328 20.8759 12.8917L21.8989 14.6162L21.9009 14.62C22.0811 14.942 22.0161 15.363 21.7008 15.6057L21.6991 15.6069L20.8556 16.2497C20.8612 16.3302 20.8646 16.4135 20.8646 16.5C20.8646 16.5865 20.8612 16.6698 20.8556 16.7503L21.7001 17.3938C22.0155 17.6365 22.0811 18.058 21.9009 18.38L21.8966 18.3877L20.8759 20.1084C20.6794 20.451 20.2629 20.5831 19.9067 20.4472L19.9023 20.4455L18.8991 20.0529C18.7577 20.1442 18.6095 20.2296 18.4538 20.3065L18.3021 21.3373C18.2481 21.7336 17.8992 22 17.5223 22H15.4804C15.1035 22 14.7544 21.7325 14.7004 21.3362L14.549 20.3073C14.3937 20.2314 14.2447 20.1466 14.1015 20.0538L13.0895 20.4497L13.0839 20.4517C12.759 20.5668 12.3326 20.4672 12.1267 20.1084L11.1038 18.3838L11.1017 18.38C10.9215 18.058 10.9865 17.637 11.3019 17.3943L11.3038 17.3928L12.1472 16.7502C12.1415 16.6688 12.1381 16.5851 12.1381 16.5C12.1381 16.4149 12.1415 16.3312 12.1472 16.2498L11.3035 15.6069L11.3019 15.6057C11.0034 15.376 10.9013 14.953 11.1095 14.6065L12.1268 12.8916C12.3233 12.549 12.7398 12.4169 13.096 12.5528L13.1004 12.5545L14.1035 12.9471C14.2449 12.8558 14.3932 12.7704 14.5488 12.6935L14.7005 11.6627ZM15.2376 13.5397C14.977 13.6438 14.7305 13.7883 14.4927 13.9621L14.2531 14.1371L12.9325 13.6203L12.1573 14.9273L13.2773 15.7808L13.2391 16.0783C13.2201 16.2266 13.2076 16.3666 13.2076 16.5C13.2076 16.6334 13.2201 16.7734 13.2391 16.9217L13.2773 17.2192L12.1573 18.0727L12.9325 19.3797L14.2571 18.8613L14.4979 19.0418C14.7284 19.2146 14.9733 19.3547 15.2376 19.4603L15.5216 19.5737L15.724 20.9487H17.2787L17.481 19.5737L17.765 19.4603C18.0256 19.3562 18.2722 19.2117 18.51 19.0379L18.7495 18.8629L20.0701 19.3797L20.8454 18.0727L19.7254 17.2192L19.7635 16.9217C19.7826 16.7729 19.7951 16.638 19.7951 16.5C19.7951 16.362 19.7826 16.2271 19.7635 16.0783L19.7254 15.7808L20.8454 14.9273L20.0701 13.6203L18.7455 14.1387L18.5048 13.9582C18.2742 13.7854 18.0294 13.6453 17.765 13.5397L17.481 13.4263L17.2787 12.0513H15.724L15.5216 13.4263L15.2376 13.5397Z" fill="#222222"/>
<path fill-rule="evenodd" clip-rule="evenodd" d="M9.75 3C7.49914 3 5.34517 3.26739 3.7448 3.79842C2.94552 4.06364 2.26828 4.39982 1.78639 4.81445C1.30108 5.23204 1 5.74303 1 6.34348V16.1565C1 16.757 1.30108 17.268 1.78639 17.6855C2.26828 18.1002 2.94552 18.4364 3.7448 18.7016C5.34517 19.2326 7.49914 19.5 9.75 19.5C9.83347 19.5 9.91682 19.4996 10 19.4989V17.9984C9.91722 17.9994 9.83389 18 9.75001 18C7.52046 18 5.67702 17.6182 4.39911 17.1169C3.75905 16.8658 3.2702 16.5883 2.94634 16.3213C2.61073 16.0446 2.50001 15.8199 2.50001 15.6798V13.6529C4.76597 14.7402 7.24869 15.2658 9.75001 15.1848C9.83336 15.1875 9.91669 15.1895 10 15.1909V13.5794C9.91722 13.5804 9.83389 13.581 9.75001 13.581C7.52068 13.581 5.67737 13.1966 4.39953 12.6926C3.75951 12.4402 3.2706 12.1615 2.94667 11.8935C2.61096 11.6157 2.50001 11.3904 2.50001 11.25V9.23245C4.7682 10.312 7.24984 10.8341 9.75001 10.755C12.2502 10.8341 14.7318 10.312 17 9.23245V10.3L18.5 10.15V6.34348C18.5 5.74303 18.1989 5.23204 17.7136 4.81445C17.2317 4.39982 16.5545 4.06364 15.7552 3.79842C14.1548 3.26739 12.0009 3 9.75 3ZM2.94385 6.13862C2.60694 6.40918 2.50001 6.62563 2.50001 6.75524C2.50001 6.88464 2.60669 7.10041 2.94351 7.36996C3.26731 7.62909 3.75633 7.89853 4.39678 8.14242C5.67535 8.62931 7.51962 9 9.75001 9C11.9804 9 13.8247 8.62931 15.1032 8.14242C15.7437 7.89853 16.2327 7.62909 16.5565 7.36996C16.8933 7.10041 17 6.88464 17 6.75524C17 6.62563 16.8931 6.40918 16.5562 6.13862C16.2323 5.87852 15.7432 5.60782 15.1028 5.36267C13.8243 4.87325 11.9802 4.5 9.75001 4.5C7.51983 4.5 5.67569 4.87325 4.39718 5.36267C3.75678 5.60782 3.26772 5.87852 2.94385 6.13862Z" fill="#222222"/>
</svg>
