<svg width="24" height="24" viewBox="0 0 24 24" fill="none" xmlns="http://www.w3.org/2000/svg">
<path d="M5.27806 12.1926C4.95343 11.9051 4.46468 11.9439 4.18641 12.2794C3.90814 12.6148 3.94572 13.1199 4.27036 13.4074L11.4958 19.8074C11.7857 20.0642 12.2136 20.0642 12.5035 19.8074L19.7296 13.4074C20.0543 13.1199 20.0919 12.6149 19.8136 12.2794C19.5354 11.9439 19.0466 11.9051 18.722 12.1926L11.9997 18.1463L5.27806 12.1926Z" fill="#222222"/>
<path d="M5.27806 5.19262C4.95342 4.90508 4.46468 4.94391 4.18641 5.27937C3.90814 5.61482 3.94572 6.11986 4.27036 6.40741L11.4958 12.8074C11.7857 13.0642 12.2136 13.0642 12.5035 12.8074L19.7296 6.40743C20.0543 6.1199 20.0919 5.61486 19.8136 5.2794C19.5354 4.94393 19.0466 4.90507 18.722 5.1926L11.9997 11.1463L5.27806 5.19262Z" fill="#222222"/>
</svg>
