<svg width="24" height="24" viewBox="0 0 24 24" fill="none" xmlns="http://www.w3.org/2000/svg">
<path d="M11.8074 5.27806C12.0949 4.95342 12.0561 4.46468 11.7206 4.18641C11.3852 3.90814 10.8801 3.94572 10.5926 4.27036L4.19261 11.4958C3.93581 11.7857 3.9358 12.2136 4.19258 12.5035L10.5926 19.7296C10.8801 20.0543 11.3851 20.0919 11.7206 19.8136C12.0561 19.5354 12.0949 19.0466 11.8074 18.722L5.85366 11.9997L11.8074 5.27806Z" fill="currentColor"/>
<path d="M18.8074 5.27806C19.0949 4.95342 19.0561 4.46468 18.7206 4.18641C18.3852 3.90814 17.8801 3.94572 17.5926 4.27036L11.1926 11.4958C10.9358 11.7857 10.9358 12.2136 11.1926 12.5035L17.5926 19.7296C17.8801 20.0543 18.3851 20.0919 18.7206 19.8136C19.0561 19.5354 19.0949 19.0466 18.8074 18.722L12.8537 11.9997L18.8074 5.27806Z" fill="currentColor"/>
</svg>
