<svg width="24" height="24" viewBox="0 0 24 24" fill="none" xmlns="http://www.w3.org/2000/svg">
<path d="M9.32432 12.5C9.32432 11.2984 10.2984 10.3243 11.5 10.3243C12.7016 10.3243 13.6757 11.2984 13.6757 12.5C13.6757 13.7016 12.7016 14.6757 11.5 14.6757C10.2984 14.6757 9.32432 13.7016 9.32432 12.5Z" fill="#222222"/>
<path fill-rule="evenodd" clip-rule="evenodd" d="M3.99585 5.34447L9.54627 2.13107C10.7589 1.42904 12.2504 1.41267 13.4781 2.08791L19.4277 5.36018C20.7059 6.06319 21.5 7.40628 21.5 8.86505V15.6349C21.5 17.0936 20.7059 18.4367 19.4277 19.1397L13.4781 22.412C12.2504 23.0873 10.7589 23.0709 9.54627 22.3689L3.99585 19.1555C2.76058 18.4403 2 17.1211 2 15.6938V8.80617C2 7.37882 2.76059 6.05962 3.99585 5.34447ZM10.3479 3.51575L4.79751 6.72915C4.5729 6.85919 4.37444 7.02252 4.20692 7.21085C4.27761 7.22981 4.34686 7.25886 4.41269 7.2985L8.99368 10.0569C8.62092 10.4393 8.33493 10.9066 8.16749 11.4271L3.60337 8.67884C3.60113 8.7211 3.6 8.76356 3.6 8.80617V15.6938C3.6 16.5502 4.05635 17.3417 4.79751 17.7708L10.3479 20.9842C10.4665 21.0528 10.5895 21.1105 10.7155 21.1573C10.7053 21.1064 10.7 21.0538 10.7 21V15.9081C10.9569 15.9682 11.2248 16 11.5 16C11.7752 16 12.0431 15.9682 12.3 15.9081V21C12.3 21.0672 12.2917 21.1325 12.2761 21.1949C12.4239 21.148 12.5683 21.0864 12.707 21.0101L18.6566 17.7378C19.4235 17.316 19.9 16.5101 19.9 15.6349V8.94289L14.8851 11.6073C14.7456 11.0767 14.4846 10.5954 14.1337 10.1948L19.3989 7.39731C19.2009 7.14111 18.95 6.92351 18.6566 6.76213L12.707 3.48986C11.9704 3.08471 11.0755 3.09453 10.3479 3.51575Z" fill="#222222"/>
</svg>
