<svg width="24" height="24" viewBox="0 0 24 24" fill="none" xmlns="http://www.w3.org/2000/svg">
<path fill-rule="evenodd" clip-rule="evenodd" d="M3.99585 5.34447L9.54627 2.13107C10.7589 1.42904 12.2504 1.41267 13.4781 2.08791L19.4277 5.36018C20.7059 6.06319 21.5 7.40628 21.5 8.86505V15.6349C21.5 17.0936 20.7059 18.4367 19.4277 19.1397L13.4781 22.412C12.2504 23.0873 10.7589 23.0709 9.54627 22.3689L3.99585 19.1555C2.76058 18.4403 2 17.1211 2 15.6938V8.80617C2 7.37882 2.76059 6.05962 3.99585 5.34447ZM19.3901 8.69842C19.7758 8.48299 19.9139 7.99563 19.6985 7.60989C19.483 7.22414 18.9957 7.08608 18.6099 7.30152L11.5881 11.2232L5.42787 7.32401C5.05454 7.0877 4.56034 7.19878 4.32403 7.57211C4.08773 7.94543 4.19881 8.43964 4.57214 8.67594L10.7625 12.5942V20C10.7625 20.4418 11.1207 20.8 11.5625 20.8C12.0043 20.8 12.3625 20.4418 12.3625 20V12.6233L19.3901 8.69842Z" fill="#222222"/>
</svg>
