<svg width="24" height="24" viewBox="0 0 24 24" fill="none" xmlns="http://www.w3.org/2000/svg">
<path fill-rule="evenodd" clip-rule="evenodd" d="M9.54627 2.53035L3.99585 5.69636C2.76059 6.40096 2 7.70071 2 9.10701V15.893C2 17.2993 2.76058 18.599 3.99585 19.3036L9.54627 22.4696C10.7589 23.1613 12.2504 23.1774 13.4781 22.5122L19.4277 19.2882C20.7059 18.5955 21.5 17.2722 21.5 15.835V9.16501C21.5 7.72776 20.7059 6.40448 19.4277 5.71184L13.4781 2.48783C12.2504 1.82255 10.7589 1.83868 9.54627 2.53035ZM4.79751 7.06062L10.3479 3.89461C11.0755 3.47961 11.9704 3.46993 12.707 3.8691L18.6566 7.09311C18.95 7.25211 19.2009 7.4665 19.3989 7.71892L11.5247 11.8409L4.41269 7.62157C4.34686 7.58251 4.27761 7.55389 4.20692 7.53521C4.37444 7.34966 4.5729 7.18874 4.79751 7.06062ZM3.60337 8.98155C3.60113 9.02319 3.6 9.06502 3.6 9.10701V15.893C3.6 16.7368 4.05635 17.5166 4.79751 17.9394L10.3479 21.1054C10.4665 21.173 10.5895 21.2299 10.7155 21.2759C10.7053 21.2258 10.7 21.174 10.7 21.1209V13.1918L3.60337 8.98155ZM12.2761 21.313C12.4239 21.2668 12.5683 21.2061 12.707 21.1309L18.6566 17.9069C19.4235 17.4913 19.9 16.6973 19.9 15.835V9.2417L12.3 13.2201V21.1209C12.3 21.1872 12.2917 21.2515 12.2761 21.313Z" fill="#222222"/>
</svg>
