<svg width="24" height="24" viewBox="0 0 24 24" fill="none" xmlns="http://www.w3.org/2000/svg">
<path fill-rule="evenodd" clip-rule="evenodd" d="M8 2C4.68629 2 2 4.68629 2 8V16C2 19.3137 4.68629 22 8 22H16C19.3137 22 22 19.3137 22 16V8C22 4.68629 19.3137 2 16 2H8ZM17 8.29411C16.7212 9.47451 15.6607 10.3529 14.3952 10.3529C13.1296 10.3529 12.0692 9.47451 11.7903 8.29411H6C5.65888 8.29411 5.38236 8.01758 5.38236 7.67647C5.38236 7.33535 5.65888 7.05882 6 7.05882H11.7903C12.0691 5.87842 13.1296 5 14.3952 5C15.6608 5 16.7212 5.87842 17 7.05882L18.3824 7.05882C18.7235 7.05882 19 7.33535 19 7.67647C19 8.01758 18.7235 8.29411 18.3824 8.29411H17ZM12.954 7.67646C12.954 6.88052 13.5992 6.23529 14.3952 6.23529C15.1901 6.23529 15.8347 6.87891 15.8363 7.67347L15.8363 7.67647L15.8363 7.6799C15.8345 8.47426 15.1899 9.11763 14.3952 9.11763C13.5992 9.11763 12.954 8.4724 12.954 7.67646ZM12.8069 14.2646V15.7058H18.3823C18.7234 15.7058 19 15.9824 19 16.3235C19 16.6646 18.7234 16.9411 18.3823 16.9411L12.8069 16.9411V18.3823C12.8069 18.7234 12.5304 18.9999 12.1893 18.9999H8.07163C7.73052 18.9999 7.45399 18.7234 7.45399 18.3823V16.9411H6C5.65888 16.9411 5.38236 16.6646 5.38236 16.3235C5.38236 15.9824 5.65888 15.7058 6 15.7058H7.45399V14.2646C7.45399 13.9235 7.73052 13.647 8.07163 13.647H12.1893C12.5304 13.647 12.8069 13.9235 12.8069 14.2646ZM8.68928 17.7646V16.326L8.68928 16.3235L8.68928 16.321V14.8823H11.5716V16.3207L11.5716 16.3235L11.5716 16.3263V17.7646H8.68928Z" fill="#222222"/>
</svg>
