<svg width="24" height="24" viewBox="0 0 24 24" fill="none" xmlns="http://www.w3.org/2000/svg">
<path fill-rule="evenodd" clip-rule="evenodd" d="M12.3682 17.5C12.3682 14.6659 14.6657 12.3684 17.4997 12.3684C20.3338 12.3684 22.6313 14.6659 22.6313 17.5C22.6313 20.3341 20.3338 22.6316 17.4997 22.6316C14.6657 22.6316 12.3682 20.3341 12.3682 17.5ZM17.4963 14.0789C17.8723 14.0789 18.1771 14.4101 18.1771 14.8186V17.7774C18.1771 18.1859 17.8723 18.5171 17.4963 18.5171C17.1203 18.5171 16.8155 18.1859 16.8155 17.7774V14.8186C16.8155 14.4101 17.1203 14.0789 17.4963 14.0789ZM16.8155 20.1814C16.8155 19.7728 17.1203 19.4417 17.4963 19.4417H17.5031C17.8791 19.4417 18.184 19.7728 18.184 20.1814C18.184 20.5899 17.8791 20.921 17.5031 20.921H17.4963C17.1203 20.921 16.8155 20.5899 16.8155 20.1814Z" fill="#F44336"/>
<path fill-rule="evenodd" clip-rule="evenodd" d="M11.4958 19.9944C11.0385 19.9774 10.5807 19.9221 10.1274 19.8276C8.19543 19.4251 6.4734 18.3393 5.27739 16.7695C4.08138 15.1997 3.49165 13.2512 3.61642 11.2816C3.64435 10.8407 3.30953 10.4606 2.86859 10.4326C2.42765 10.4047 2.04755 10.7395 2.01962 11.1805C1.8705 13.5343 2.57531 15.863 4.00468 17.7391C5.43406 19.6152 7.4921 20.9129 9.8011 21.394C10.6746 21.576 11.5619 21.6365 12.4391 21.5792C12.0539 21.1019 11.7348 20.569 11.4958 19.9944ZM12.5937 13.2362C11.9626 13.9619 11.4897 14.8289 11.229 15.7835C11.069 15.6351 10.9687 15.423 10.9687 15.1875V7.8125C10.9687 7.36377 11.3325 7 11.7812 7C12.23 7 12.5937 7.36377 12.5937 7.8125V13.2362ZM15.4375 11.334C14.8669 11.5248 14.3315 11.7926 13.8437 12.1251V10.6094C13.8437 10.1693 14.2005 9.8125 14.6406 9.8125C15.0807 9.8125 15.4375 10.1693 15.4375 10.6094V11.334ZM19.9944 11.4958C19.9611 10.6003 19.7811 9.70936 19.4547 8.85954C18.747 7.01729 17.3986 5.49206 15.6571 4.56377C13.9155 3.63549 11.8976 3.36644 9.97364 3.806C8.83525 4.06608 7.77496 4.56393 6.85742 5.25701L8.03141 6.15072C8.29787 6.35357 8.2638 6.7428 7.9702 6.84989L3.99984 8.29809C3.70852 8.40436 3.37852 8.15314 3.4034 7.84404L3.74241 3.63143C3.76748 3.31992 4.1336 3.18346 4.40006 3.38631L5.54368 4.2569C6.71686 3.28389 8.10977 2.5906 9.61728 2.24619C11.9166 1.72086 14.3283 2.04241 16.4096 3.15182C18.491 4.26123 20.1025 6.08407 20.9482 8.28579C21.4602 9.61851 21.6708 11.0359 21.5792 12.439C21.1019 12.0538 20.569 11.7348 19.9944 11.4958ZM8.79687 11.5C8.35677 11.5 8 11.8568 8 12.2969V15.2031C8 15.6432 8.35677 16 8.79687 16C9.23698 16 9.59375 15.6432 9.59375 15.2031V12.2969C9.59375 11.8568 9.23698 11.5 8.79687 11.5Z" fill="#222222"/>
</svg>
