<svg width="24" height="24" viewBox="0 0 24 24" fill="none" xmlns="http://www.w3.org/2000/svg">
<path d="M5.95185 20.06H5.95189L5.95181 20.0518L5.80181 5.39181L5.80168 5.37973L5.80119 5.36766C5.79341 5.17537 5.82373 4.98344 5.89039 4.80291C5.95706 4.62237 6.05875 4.4568 6.18963 4.31571C6.32052 4.17463 6.478 4.0608 6.65303 3.9808C6.82488 3.90224 7.01032 3.85781 7.19905 3.84992L16.766 3.80004C16.9562 3.80441 17.1439 3.8457 17.3185 3.92163C17.4955 3.99863 17.6557 4.10977 17.7898 4.24868C17.9239 4.3876 18.0293 4.55157 18.1001 4.73123C18.1708 4.91089 18.2054 5.10273 18.202 5.29578L18.2018 5.30671L18.2019 5.31764L18.3419 19.9776L18.3419 19.9778C18.3422 20.0129 18.3334 20.0474 18.3162 20.0779C18.2997 20.1071 18.2762 20.1317 18.2478 20.1494C18.2184 20.1655 18.1854 20.174 18.1518 20.174C18.1167 20.174 18.0822 20.1647 18.0518 20.1472L18.0519 20.1471L18.0397 20.1403L12.3397 16.9803L11.9324 16.7545L11.5349 16.9972L6.26173 20.217C6.22052 20.2385 6.17591 20.2526 6.12992 20.2588C6.08494 20.2538 6.04273 20.2337 6.01043 20.2014C5.97292 20.1639 5.95185 20.113 5.95185 20.06Z" stroke="#222222" stroke-width="1.6"/>
</svg>
