<svg width="24" height="24" viewBox="0 0 24 24" fill="none" xmlns="http://www.w3.org/2000/svg">
<path fill-rule="evenodd" clip-rule="evenodd" d="M19.2725 21.8181H4.72705C3.62248 21.8181 2.72705 20.9227 2.72705 19.8181V4.18176C2.72705 3.07719 3.62248 2.18176 4.72705 2.18176H14.2615C15.0814 2.18176 15.8655 2.51729 16.4316 3.11033L20.4426 7.31231C20.9753 7.87038 21.2725 8.61223 21.2725 9.38374V19.8181C21.2725 20.9227 20.3771 21.8181 19.2725 21.8181ZM4.23438 4.67969C4.23438 4.1274 4.68209 3.67969 5.23438 3.67969H12.3672V7.34375H4.23438V4.67969ZM16 15C16 17.2091 14.2091 19 12 19C9.79086 19 8 17.2091 8 15C8 12.7909 9.79086 11 12 11C14.2091 11 16 12.7909 16 15Z" fill="#222222"/>
</svg>
