<svg width="24" height="24" viewBox="0 0 24 24" fill="none" xmlns="http://www.w3.org/2000/svg">
<path fill-rule="evenodd" clip-rule="evenodd" d="M4.72701 20.3181H19.2725C19.5486 20.3181 19.7725 20.0943 19.7725 19.8181V9.38372C19.7725 8.99797 19.6238 8.62705 19.3575 8.34801L15.3465 4.14604C15.0635 3.84952 14.6714 3.68175 14.2615 3.68175H4.72701C4.45086 3.68175 4.22701 3.90561 4.22701 4.18175V19.8181C4.22701 20.0943 4.45086 20.3181 4.72701 20.3181ZM19.2725 21.8181H4.72701C3.62243 21.8181 2.72701 20.9227 2.72701 19.8181V4.18175C2.72701 3.07718 3.62244 2.18175 4.72701 2.18175H14.2615C15.0813 2.18175 15.8655 2.51728 16.4316 3.11032L20.4425 7.3123C20.9752 7.87037 21.2725 8.61222 21.2725 9.38372V19.8181C21.2725 20.9227 20.377 21.8181 19.2725 21.8181Z" fill="#222222"/>
<path fill-rule="evenodd" clip-rule="evenodd" d="M12 17.7C13.4912 17.7 14.7 16.4912 14.7 15C14.7 13.5088 13.4912 12.3 12 12.3C10.5088 12.3 9.3 13.5088 9.3 15C9.3 16.4912 10.5088 17.7 12 17.7ZM12 19C14.2091 19 16 17.2091 16 15C16 12.7909 14.2091 11 12 11C9.79086 11 8 12.7909 8 15C8 17.2091 9.79086 19 12 19Z" fill="#222222"/>
<path fill-rule="evenodd" clip-rule="evenodd" d="M12.35 7.35V3H13.65V8C13.65 8.35898 13.359 8.65 13 8.65H3V7.35H12.35Z" fill="#222222"/>
</svg>
