<svg width="24" height="24" viewBox="0 0 24 24" fill="none" xmlns="http://www.w3.org/2000/svg">
<path fill-rule="evenodd" clip-rule="evenodd" d="M16 6.5H8C7.17157 6.5 6.5 7.17157 6.5 8V16C6.5 16.8284 7.17157 17.5 8 17.5H16C16.8284 17.5 17.5 16.8284 17.5 16V8C17.5 7.17157 16.8284 6.5 16 6.5ZM8 5C6.34315 5 5 6.34315 5 8V16C5 17.6569 6.34315 19 8 19H16C17.6569 19 19 17.6569 19 16V8C19 6.34315 17.6569 5 16 5H8Z" fill="#222222"/>
<path fill-rule="evenodd" clip-rule="evenodd" d="M16 6.5H8C7.17157 6.5 6.5 7.17157 6.5 8V16C6.5 16.8284 7.17157 17.5 8 17.5H16C16.8284 17.5 17.5 16.8284 17.5 16V8C17.5 7.17157 16.8284 6.5 16 6.5ZM8 5C6.34315 5 5 6.34315 5 8V16C5 17.6569 6.34315 19 8 19H16C17.6569 19 19 17.6569 19 16V8C19 6.34315 17.6569 5 16 5H8Z" fill="#222222"/>
<path fill-rule="evenodd" clip-rule="evenodd" d="M10.2857 9C9.3 9 9 9.3 9 10.2857V13.7143C9 14.7 9.3 15 10.2857 15H13.7143C14.7 15 15 14.7 15 13.7143V10.2857C15 9.3 14.7 9 13.7143 9H10.2857Z" fill="#222222"/>
</svg>
