<svg width="24" height="24" viewBox="0 0 24 24" fill="none" xmlns="http://www.w3.org/2000/svg">
<path d="M12 10.9C11.39 10.9 10.9 11.39 10.9 12C10.9 12.61 11.39 13.1 12 13.1C12.61 13.1 13.1 12.61 13.1 12C13.1 11.39 12.61 10.9 12 10.9Z" fill="#222222"/>
<path fill-rule="evenodd" clip-rule="evenodd" d="M12 3.4C7.2532 3.4 3.4 7.2532 3.4 12C3.4 16.7468 7.2532 20.6 12 20.6C16.7468 20.6 20.6 16.7468 20.6 12C20.6 7.2532 16.7468 3.4 12 3.4ZM2 12C2 6.48 6.48 2 12 2C17.52 2 22 6.48 22 12C22 17.52 17.52 22 12 22C6.48 22 2 17.52 2 12Z" fill="#222222"/>
<path fill-rule="evenodd" clip-rule="evenodd" d="M16.2097 8.18883C16.3277 7.93513 16.0649 7.67226 15.8112 7.79029L10.4362 10.2907C10.3721 10.3206 10.3206 10.3721 10.2907 10.4362L7.79029 15.8112C7.67226 16.0649 7.93513 16.3277 8.18883 16.2097L13.5638 13.7093C13.6279 13.6794 13.6794 13.6279 13.7093 13.5638L16.2097 8.18883ZM15.2207 6.52092C16.6583 5.85212 18.1479 7.34169 17.4791 8.77934L14.9786 14.1543C14.8096 14.5177 14.5177 14.8096 14.1543 14.9786L8.77934 17.4791C7.34169 18.1479 5.85212 16.6583 6.52092 15.2207L9.02136 9.84569C9.19039 9.48234 9.48234 9.19039 9.84569 9.02136L15.2207 6.52092Z" fill="#222222"/>
</svg>
