<svg width="24" height="24" viewBox="0 0 24 24" fill="none" xmlns="http://www.w3.org/2000/svg">
<mask id="path-1-inside-1_25520_18295" fill="white">
<path fill-rule="evenodd" clip-rule="evenodd" d="M15.2198 6C14.7431 6 14.3327 5.66354 14.2392 5.19612L14.1608 4.80388C14.0673 4.33646 13.6569 4 13.1802 4H6C5.44772 4 5 4.44772 5 5V20C5 20.5523 5.44772 21 6 21C6.55228 21 7 20.5523 7 20V14H11.7802C12.2569 14 12.6673 14.3365 12.7608 14.8039L12.8392 15.1961C12.9327 15.6635 13.3431 16 13.8198 16H19C19.5523 16 20 15.5523 20 15V7C20 6.44772 19.5523 6 19 6H15.2198Z"/>
</mask>
<path d="M7 14V12.4H5.4V14H7ZM12.7608 14.8039L11.1918 15.1177L12.7608 14.8039ZM14.1608 4.80388L15.7297 4.4901L14.1608 4.80388ZM14.2392 5.19612L12.6703 5.5099L14.2392 5.19612ZM15.8082 4.88233L15.7297 4.4901L12.5918 5.11767L12.6703 5.5099L15.8082 4.88233ZM13.1802 2.4H6V5.6H13.1802V2.4ZM3.4 5V20H6.6V5H3.4ZM8.6 20V14H5.4V20H8.6ZM7 15.6H11.7802V12.4H7V15.6ZM11.1918 15.1177L11.2703 15.5099L14.4082 14.8823L14.3297 14.4901L11.1918 15.1177ZM13.8198 17.6H19V14.4H13.8198V17.6ZM21.6 15V7H18.4V15H21.6ZM19 4.4H15.2198V7.6H19V4.4ZM21.6 7C21.6 5.56406 20.4359 4.4 19 4.4V7.6C18.6686 7.6 18.4 7.33137 18.4 7H21.6ZM19 17.6C20.4359 17.6 21.6 16.4359 21.6 15H18.4C18.4 14.6686 18.6686 14.4 19 14.4V17.6ZM11.2703 15.5099C11.5134 16.7252 12.5804 17.6 13.8198 17.6V14.4C14.1058 14.4 14.3521 14.6019 14.4082 14.8823L11.2703 15.5099ZM11.7802 15.6C11.4942 15.6 11.2479 15.3981 11.1918 15.1177L14.3297 14.4901C14.0866 13.2748 13.0196 12.4 11.7802 12.4V15.6ZM6 22.6C7.43594 22.6 8.6 21.4359 8.6 20H5.4C5.4 19.6686 5.66863 19.4 6 19.4V22.6ZM3.4 20C3.4 21.4359 4.56406 22.6 6 22.6V19.4C6.33137 19.4 6.6 19.6686 6.6 20H3.4ZM6 2.4C4.56406 2.4 3.4 3.56406 3.4 5H6.6C6.6 5.33137 6.33137 5.6 6 5.6V2.4ZM15.7297 4.4901C15.4866 3.2748 14.4196 2.4 13.1802 2.4V5.6C12.8942 5.6 12.6479 5.39812 12.5918 5.11767L15.7297 4.4901ZM12.6703 5.5099C12.9134 6.7252 13.9804 7.6 15.2198 7.6V4.4C15.5058 4.4 15.7521 4.60188 15.8082 4.88233L12.6703 5.5099Z" fill="#222222" mask="url(#path-1-inside-1_25520_18295)"/>
</svg>
