<svg width="24" height="24" viewBox="0 0 24 24" fill="none" xmlns="http://www.w3.org/2000/svg">
<path fill-rule="evenodd" clip-rule="evenodd" d="M12 22C17.5228 22 22 17.5228 22 12C22 6.47715 17.5228 2 12 2C6.47715 2 2 6.47715 2 12C2 17.5228 6.47715 22 12 22ZM16.6127 12C16.6127 11.5843 16.156 11.2989 15.2426 10.728L11.5728 8.43437C10.5581 7.80014 10.0507 7.48303 9.66426 7.6972C9.27783 7.91138 9.27783 8.50971 9.27783 9.70637L9.27783 14.2936C9.27783 15.4903 9.27783 16.0886 9.66425 16.3028C10.0507 16.517 10.5581 16.1999 11.5728 15.5656L15.2426 13.272C16.156 12.7011 16.6127 12.4157 16.6127 12Z" fill="#222222"/>
</svg>
