<svg width="24" height="24" viewBox="0 0 24 24" fill="none" xmlns="http://www.w3.org/2000/svg">
<path fill-rule="evenodd" clip-rule="evenodd" d="M19 19.5H5C4.72386 19.5 4.5 19.2761 4.5 19V11.5V9.01022C4.5 8.62366 4.64923 8.25203 4.91657 7.97283L8.75635 3.96261C9.0393 3.66711 9.43067 3.5 9.83979 3.5H12H19C19.2761 3.5 19.5 3.72386 19.5 4V19C19.5 19.2761 19.2761 19.5 19 19.5ZM5 21H19C20.1046 21 21 20.1046 21 19V4C21 2.89543 20.1046 2 19 2H12H9.83979C9.02155 2 8.23881 2.33422 7.67292 2.92522L3.83313 6.93544C3.29846 7.49385 3 8.23711 3 9.01022V11.5V19C3 20.1046 3.89543 21 5 21Z" fill="#222222"/>
<path d="M11 5.54545L10.4889 5.14387C10.3798 5.28272 10.3319 5.45998 10.3562 5.63488C10.3805 5.80978 10.4749 5.96727 10.6177 6.07113L11 5.54545ZM13 7L13.4792 7.43922C13.6043 7.30272 13.6652 7.11934 13.6468 6.93509C13.6283 6.75085 13.5321 6.58323 13.3823 6.47432L13 7ZM11 9.18182L10.5208 8.7426C10.404 8.87002 10.3428 9.03872 10.3507 9.21139C10.3585 9.38407 10.4349 9.5465 10.5628 9.66278L11 9.18182ZM13 11L13.4596 11.4596C13.5853 11.3339 13.654 11.1622 13.6498 10.9845C13.6456 10.8068 13.5688 10.6386 13.4372 10.519L13 11ZM11 13L10.5404 12.5404C10.2865 12.7942 10.2865 13.2058 10.5404 13.4596L11 13ZM12.5404 15.4596C12.7942 15.7135 13.2058 15.7135 13.4596 15.4596C13.7135 15.2058 13.7135 14.7942 13.4596 14.5404L12.5404 15.4596ZM12.4889 2.59842L10.4889 5.14387L11.5111 5.94704L13.5111 3.40158L12.4889 2.59842ZM10.6177 6.07113L12.6177 7.52568L13.3823 6.47432L11.3823 5.01978L10.6177 6.07113ZM12.5208 6.56078L10.5208 8.7426L11.4792 9.62104L13.4792 7.43922L12.5208 6.56078ZM10.5628 9.66278L12.5628 11.481L13.4372 10.519L11.4372 8.70086L10.5628 9.66278ZM12.5404 10.5404L10.5404 12.5404L11.4596 13.4596L13.4596 11.4596L12.5404 10.5404ZM10.5404 13.4596L12.5404 15.4596L13.4596 14.5404L11.4596 12.5404L10.5404 13.4596Z" fill="#222222"/>
</svg>
