<svg width="24" height="24" viewBox="0 0 24 24" fill="none" xmlns="http://www.w3.org/2000/svg">
<path fill-rule="evenodd" clip-rule="evenodd" d="M4.90896 2.18188C3.10148 2.18188 1.63623 3.64714 1.63623 5.45462V18.4849C1.63623 20.2924 3.10148 21.7576 4.90896 21.7576H19.0908C20.8983 21.7576 22.3635 20.2924 22.3635 18.4849V8.90916C22.3635 7.10168 20.8983 5.63643 19.0908 5.63643H13.209L12.7669 4.37347C12.3075 3.06082 11.0687 2.18188 9.67793 2.18188H4.90896ZM11.6645 6.177C11.8942 6.83333 12.5136 7.27279 13.209 7.27279H19.0908C19.9945 7.27279 20.7271 8.00542 20.7271 8.90916V18.4849C20.7271 19.3887 19.9945 20.1213 19.0908 20.1213H4.90896C4.00522 20.1213 3.27259 19.3887 3.27259 18.4849V5.45462C3.27259 4.55087 4.00522 3.81825 4.90896 3.81825H9.67793C10.3733 3.81825 10.9927 4.25771 11.2224 4.91404L11.6645 6.177ZM12.2904 9.85686C12.1118 9.46591 11.5796 9.46591 11.4011 9.85686L10.4542 11.9297L8.27474 12.2298C7.86364 12.2864 7.69911 12.8164 8 13.1147L9.594 14.6954L9.19379 16.9531C9.11825 17.3793 9.54886 17.7067 9.91319 17.5001L11.8457 16.4044L13.7782 17.5001C14.1426 17.7067 14.5732 17.3793 14.4976 16.9531L14.0974 14.6954L15.6914 13.1147C15.9923 12.8164 15.8278 12.2864 15.4167 12.2298L13.2372 11.9297L12.2904 9.85686Z" fill="#222222"/>
</svg>
