<svg width="24" height="24" viewBox="0 0 24 24" fill="none" xmlns="http://www.w3.org/2000/svg">
<path fill-rule="evenodd" clip-rule="evenodd" d="M20.8289 10.4H8.98664C8.42785 10.4 7.94301 10.7857 7.81737 11.3302L6.20198 18.3302C6.02846 19.0821 6.59955 19.8 7.37125 19.8H19.2136C19.7723 19.8 20.2572 19.4143 20.3828 18.8698L21.9982 11.8698C22.1717 11.1179 21.6006 10.4 20.8289 10.4ZM8.98664 8.6C7.58967 8.6 6.37758 9.56423 6.06346 10.9254L4.44808 17.9254C4.01427 19.8053 5.442 21.6 7.37125 21.6H19.2136C20.6105 21.6 21.8226 20.6358 22.1367 19.2746L23.7521 12.2746C24.1859 10.3947 22.7582 8.6 20.8289 8.6H8.98664Z" fill="#222222"/>
<path d="M12.8401 5V6.8H18.6401C19.3029 6.8 19.8401 7.33726 19.8401 8V8.59998L20.8289 8.6C21.1115 8.6 21.3833 8.63848 21.6401 8.71012V8C21.6401 6.34315 20.297 5 18.6401 5H14.6401C14.6401 3.34315 13.297 2 11.6401 2H4.64014C2.98328 2 1.64014 3.34315 1.64014 5V17C1.64014 18.6569 2.98328 20 4.64014 20H4.71738C4.43137 19.46 4.3067 18.8279 4.40104 18.1762C3.85285 18.0653 3.44014 17.5809 3.44014 17V5C3.44014 4.33726 3.9774 3.8 4.64014 3.8H11.6401C12.3029 3.8 12.8401 4.33726 12.8401 5Z" fill="#222222"/>
</svg>
