<svg width="24" height="24" viewBox="0 0 24 24" fill="none" xmlns="http://www.w3.org/2000/svg">
<path fill-rule="evenodd" clip-rule="evenodd" d="M12.3249 4.32402C12.5847 4.44891 12.75 4.7117 12.75 5V19C12.75 19.2883 12.5847 19.5511 12.3249 19.676C12.065 19.8009 11.7566 19.7658 11.5315 19.5857L6.73691 15.75H3C2.58579 15.75 2.25 15.4142 2.25 15V9C2.25 8.58579 2.58579 8.25 3 8.25H6.73691L11.5315 4.41435C11.7566 4.23425 12.065 4.19913 12.3249 4.32402ZM11.25 6.56047L7.46852 9.58565C7.33554 9.69204 7.1703 9.75 7 9.75H3.75V14.25H7C7.1703 14.25 7.33554 14.308 7.46852 14.4143L11.25 17.4395V6.56047Z" fill="#222222"/>
<path fill-rule="evenodd" clip-rule="evenodd" d="M18.5398 4.39977C18.8327 4.10692 19.3076 4.10699 19.6004 4.39993C21.6158 6.41585 22.7479 9.14966 22.7479 12.0002C22.7479 14.8507 21.6158 17.5845 19.6004 19.6004C19.3076 19.8934 18.8327 19.8934 18.5398 19.6006C18.2469 19.3077 18.2468 18.8329 18.5396 18.5399C20.2737 16.8053 21.2479 14.4529 21.2479 12.0002C21.2479 9.54741 20.2737 7.19506 18.5396 5.46043C18.2468 5.16749 18.2469 4.69261 18.5398 4.39977ZM16.0098 7.92977C16.3027 7.63692 16.7776 7.63699 17.0704 7.92993C18.1484 9.00821 18.754 10.4705 18.754 11.9952C18.754 13.5199 18.1484 14.9821 17.0704 16.0604C16.7776 16.3534 16.3027 16.3534 16.0098 16.0606C15.7169 15.7677 15.7168 15.2929 16.0096 14.9999C16.8064 14.2029 17.254 13.1221 17.254 11.9952C17.254 10.8682 16.8064 9.78742 16.0096 8.99043C15.7168 8.69749 15.7169 8.22261 16.0098 7.92977Z" fill="#222222"/>
</svg>
