<svg width="24" height="24" viewBox="0 0 24 24" fill="none" xmlns="http://www.w3.org/2000/svg">
<path fill-rule="evenodd" clip-rule="evenodd" d="M12.3249 4.32403C12.5847 4.44892 12.75 4.7117 12.75 5.00001V19C12.75 19.2883 12.5847 19.5511 12.3249 19.676C12.065 19.8009 11.7566 19.7658 11.5315 19.5857L6.73691 15.75H3C2.58579 15.75 2.25 15.4142 2.25 15V9.00001C2.25 8.58579 2.58579 8.25001 3 8.25001H6.73691L11.5315 4.41436C11.7566 4.23425 12.065 4.19914 12.3249 4.32403ZM11.25 6.56048L7.46852 9.58566C7.33554 9.69205 7.1703 9.75001 7 9.75001H3.75V14.25H7C7.1703 14.25 7.33554 14.308 7.46852 14.4144L11.25 17.4395V6.56048Z" fill="#222222"/>
<path d="M22.5303 8.46967C22.8232 8.76256 22.8232 9.23744 22.5303 9.53033L20.0607 12L22.5303 14.4697C22.8232 14.7626 22.8232 15.2374 22.5303 15.5303C22.2374 15.8232 21.7626 15.8232 21.4697 15.5303L19 13.0607L16.5303 15.5303C16.2374 15.8232 15.7626 15.8232 15.4697 15.5303C15.1768 15.2374 15.1768 14.7626 15.4697 14.4697L17.9393 12L15.4697 9.53033C15.1768 9.23744 15.1768 8.76256 15.4697 8.46967C15.7626 8.17678 16.2374 8.17678 16.5303 8.46967L19 10.9393L21.4697 8.46967C21.7626 8.17678 22.2374 8.17678 22.5303 8.46967Z" fill="#222222"/>
</svg>
