<svg width="24" height="24" viewBox="0 0 24 24" fill="none" xmlns="http://www.w3.org/2000/svg">
<path fill-rule="evenodd" clip-rule="evenodd" d="M7.5 3.5H16.5C17.3284 3.5 18 4.17157 18 5V19C18 19.8284 17.3284 20.5 16.5 20.5H7.5C6.67157 20.5 6 19.8284 6 19V5C6 4.17157 6.67157 3.5 7.5 3.5ZM4.5 5C4.5 3.34315 5.84315 2 7.5 2H16.5C18.1569 2 19.5 3.34315 19.5 5V19C19.5 20.6569 18.1569 22 16.5 22H7.5C5.84315 22 4.5 20.6569 4.5 19V5ZM10 17.75C9.58579 17.75 9.25 18.0858 9.25 18.5C9.25 18.9142 9.58579 19.25 10 19.25H14C14.4142 19.25 14.75 18.9142 14.75 18.5C14.75 18.0858 14.4142 17.75 14 17.75H10Z" fill="#222222"/>
</svg>
