<svg width="24" height="24" viewBox="0 0 24 24" fill="none" xmlns="http://www.w3.org/2000/svg">
<path fill-rule="evenodd" clip-rule="evenodd" d="M5.48306 8.10928C6.70829 5.75684 9.16821 4.14999 12 4.14999C15.5669 4.14999 18.5364 6.6879 19.2029 10.069L19.2251 10.1817L19.3397 10.1896C21.8626 10.3643 23.85 12.4403 23.85 15C23.85 17.6772 21.6772 19.85 19 19.85H6.00002C2.77287 19.85 0.150024 17.2271 0.150024 14C0.150024 10.9873 2.43152 8.50111 5.36588 8.18915L5.44589 8.18065L5.48306 8.10928ZM12 5.84999C9.66777 5.84999 7.67783 7.25911 6.81059 9.27225C6.66354 9.61362 6.3498 9.84999 6.00002 9.84999C3.70718 9.84999 1.85002 11.7072 1.85002 14C1.85002 16.2928 3.70718 18.15 6.00002 18.15H19C20.7429 18.15 22.15 16.7428 22.15 15C22.15 13.2572 20.7429 11.85 19 11.85H18C17.8067 11.85 17.65 11.6933 17.65 11.5C17.65 8.37715 15.1229 5.84999 12 5.84999Z" fill="#222222"/>
</svg>
