<svg width="24" height="24" viewBox="0 0 24 24" fill="none" xmlns="http://www.w3.org/2000/svg">
<path d="M7.18823 19.0001V5.32739H12.6627C13.6685 5.32739 14.5075 5.47649 15.1796 5.77469C15.8516 6.07289 16.3568 6.48682 16.6951 7.01646C17.0333 7.54164 17.2024 8.14695 17.2024 8.83236C17.2024 9.36646 17.0956 9.83601 16.882 10.241C16.6683 10.6416 16.3746 10.971 16.0007 11.2291C15.6313 11.4828 15.2085 11.663 14.7323 11.7699V11.9034C15.253 11.9256 15.7404 12.0725 16.1943 12.344C16.6528 12.6155 17.0244 12.996 17.3093 13.4856C17.5941 13.9708 17.7365 14.5494 17.7365 15.2214C17.7365 15.9469 17.5563 16.5945 17.1958 17.1642C16.8397 17.7294 16.3123 18.1767 15.6135 18.5061C14.9147 18.8354 14.0535 19.0001 13.0299 19.0001H7.18823ZM10.079 16.6368H12.4357C13.2413 16.6368 13.8288 16.4832 14.1982 16.1761C14.5676 15.8646 14.7523 15.4506 14.7523 14.9344C14.7523 14.556 14.6611 14.2222 14.4786 13.9329C14.2961 13.6436 14.0357 13.4166 13.6975 13.252C13.3637 13.0873 12.9653 13.0049 12.5024 13.0049H10.079V16.6368ZM10.079 11.0488H12.222C12.6182 11.0488 12.9698 10.9799 13.2769 10.8419C13.5884 10.6995 13.8332 10.4992 14.0112 10.241C14.1937 9.98289 14.285 9.67356 14.285 9.31305C14.285 8.81901 14.1092 8.42067 13.7576 8.11802C13.4104 7.81537 12.9164 7.66404 12.2754 7.66404H10.079V11.0488Z" fill="#222222"/>
</svg>
