<svg width="24" height="24" viewBox="0 0 24 24" fill="none" xmlns="http://www.w3.org/2000/svg">
<path d="M11.656 6.61129C11.7695 6.52733 11.9059 6.49179 12.0367 6.5C12.1542 6.50728 12.2639 6.54937 12.353 6.61811L14.7785 8.41194C15.0288 8.59702 15.0785 8.9533 14.8684 9.19609C14.6717 9.42341 14.3276 9.45437 14.0908 9.27923L12.5653 8.15099L12.5652 12.847L14.0908 11.7186C14.3276 11.5434 14.6716 11.5744 14.8684 11.8017C15.0784 12.0444 15.0288 12.4007 14.7786 12.5858L12.3441 14.3865C12.2306 14.4704 12.0941 14.5059 11.9633 14.4978C11.8459 14.4905 11.7361 14.4484 11.647 14.3796L9.2215 12.5858C8.97125 12.4008 8.92159 12.0445 9.13167 11.8017C9.32837 11.5744 9.67241 11.5434 9.90923 11.7186L11.4348 12.8468L11.4348 8.15082L9.90926 9.27921C9.67245 9.45436 9.3284 9.42342 9.13169 9.19612C8.9216 8.95335 8.97123 8.59706 9.22147 8.41197L11.656 6.61129Z" fill="#222222"/>
<path d="M4 19H20V20.2818H4V19Z" fill="#222222"/>
<path d="M4 16H20V17.2818H4V16Z" fill="#222222"/>
<path d="M4 4H20V5.28182H4V4Z" fill="#222222"/>
</svg>
