<svg width="24" height="24" viewBox="0 0 24 24" fill="none" xmlns="http://www.w3.org/2000/svg">
<path fill-rule="evenodd" clip-rule="evenodd" d="M14.1582 7.02955C14.7279 7.40341 15.0528 7.9286 15.133 8.60511H16.7352C16.713 7.91525 16.4993 7.29882 16.0943 6.75582C15.6938 6.21283 15.1508 5.78556 14.4653 5.47401C13.7799 5.158 12.9966 5 12.1153 5C11.243 5 10.453 5.16023 9.74531 5.48068C9.04209 5.79669 8.4813 6.24176 8.06293 6.81591C7.64901 7.38561 7.44205 8.05322 7.44205 8.81875C7.44205 9.74006 7.7536 10.4856 8.3767 11.0553C8.7427 11.3899 9.18548 11.6792 9.70503 11.9232H5V13.4232H14.1604C14.4731 13.5843 14.7328 13.7809 14.9393 14.0128C15.193 14.2976 15.3199 14.667 15.3199 15.121C15.3199 15.6195 15.173 16.0557 14.8793 16.4295C14.5855 16.799 14.1872 17.0883 13.6842 17.2974C13.1813 17.5022 12.6138 17.6045 11.9818 17.6045C11.4388 17.6045 10.9314 17.5244 10.4597 17.3642C9.99233 17.1995 9.60511 16.9503 9.29801 16.6165C8.99536 16.2782 8.82178 15.8509 8.77727 15.3347H7.06818C7.12159 16.0824 7.3508 16.7389 7.75582 17.3041C8.16529 17.8694 8.72609 18.31 9.43821 18.626C10.1548 18.942 11.0027 19.1 11.9818 19.1C13.0322 19.1 13.9246 18.9242 14.6589 18.5726C15.3978 18.221 15.9586 17.747 16.3413 17.1506C16.7286 16.5542 16.9222 15.8866 16.9222 15.1477C16.9222 14.5068 16.7909 13.9661 16.5283 13.5254C16.5077 13.4909 16.4866 13.4568 16.4652 13.4232H19V11.9232H14.633C14.512 11.8672 14.3893 11.816 14.2651 11.7696C13.8289 11.6049 13.4328 11.4759 13.0767 11.3824L11.6881 11.0085C11.4344 10.9418 11.1562 10.855 10.8536 10.7482C10.5509 10.6369 10.2616 10.4967 9.98565 10.3276C9.70971 10.154 9.48272 9.93812 9.30469 9.67997C9.13111 9.41738 9.04432 9.1036 9.04432 8.73864C9.04432 8.30246 9.16894 7.91302 9.41818 7.57031C9.67188 7.2276 10.0235 6.95833 10.473 6.7625C10.927 6.56667 11.4566 6.46875 12.0619 6.46875C12.8898 6.46875 13.5885 6.65568 14.1582 7.02955Z" fill="#222222"/>
</svg>
