<svg width="20" height="20" viewBox="0 0 20 20" fill="none" xmlns="http://www.w3.org/2000/svg">
<rect width="20" height="20" rx="2.90909" fill="#FF0000" fill-opacity="0.5"/>
<rect x="0.363636" y="0.363636" width="19.2727" height="19.2727" rx="2.54545" stroke="white" stroke-opacity="0.4" stroke-width="0.727273"/>
<path d="M9.10891 8.1582L9.10908 8.15787C9.40283 7.61342 9.80999 7.19288 10.3312 6.89467L10.3315 6.89452C10.8594 6.58955 11.4567 6.43637 12.1251 6.43637C12.9446 6.43637 13.6421 6.65615 14.2213 7.09304C14.7771 7.51232 15.1569 8.0779 15.36 8.79315H13.6207C13.4763 8.50333 13.2737 8.27881 13.0128 8.12222C12.747 7.95866 12.4437 7.8777 12.1051 7.8777C11.5589 7.8777 11.1118 8.07214 10.7704 8.46195C10.4293 8.85133 10.2624 9.36831 10.2624 10.0051C10.2624 10.6419 10.4293 11.1589 10.7704 11.5482C11.1118 11.9381 11.5589 12.1325 12.1051 12.1325C12.4437 12.1325 12.747 12.0515 13.0128 11.888C13.2737 11.7314 13.4762 11.5069 13.6207 11.217H15.36C15.1569 11.9322 14.7772 12.4977 14.2215 12.917C13.6423 13.3472 12.9448 13.5636 12.1251 13.5636C11.4566 13.5636 10.8593 13.4138 10.3313 13.1156C9.80978 12.8104 9.40257 12.3897 9.10891 11.852C8.81545 11.3147 8.66781 10.6997 8.66781 10.0051C8.66781 9.31048 8.81545 8.69548 9.10891 8.1582ZM7.09235 6.51775V13.5128H5.52781V6.51775H7.09235Z" fill="white" stroke="#FF8080" stroke-width="0.145455"/>
</svg>
