<svg width="10" height="11" viewBox="0 0 10 11" fill="none" xmlns="http://www.w3.org/2000/svg">
<path fill-rule="evenodd" clip-rule="evenodd" d="M9.91597 0.811912C10.028 0.927014 10.028 1.11363 9.91597 1.22873L0.489744 10.9129C0.377708 11.028 0.196062 11.028 0.0840267 10.9129C-0.0280089 10.7978 -0.0280089 10.6112 0.0840267 10.4961L9.51026 0.811912C9.62229 0.696811 9.80394 0.696811 9.91597 0.811912Z" fill="#222222"/>
<path fill-rule="evenodd" clip-rule="evenodd" d="M9.91594 3.33828C10.028 3.45338 10.028 3.64 9.91594 3.7551L2.94873 10.913C2.83669 11.0281 2.65505 11.0281 2.54301 10.913C2.43098 10.7979 2.43098 10.6113 2.54301 10.4962L9.51022 3.33828C9.62226 3.22318 9.80391 3.22318 9.91594 3.33828Z" fill="#222222"/>
<path fill-rule="evenodd" clip-rule="evenodd" d="M9.9164 5.86367C10.0284 5.97877 10.0284 6.16539 9.9164 6.28049L5.4082 10.9121C5.29617 11.0272 5.11452 11.0272 5.00248 10.9121C4.89045 10.797 4.89045 10.6103 5.00248 10.4952L9.51068 5.86367C9.62272 5.74857 9.80436 5.74857 9.9164 5.86367Z" fill="#222222"/>
<path fill-rule="evenodd" clip-rule="evenodd" d="M9.91588 8.39101C10.0279 8.50612 10.0279 8.69273 9.91588 8.80783L7.8667 10.9131C7.75466 11.0282 7.57302 11.0282 7.46098 10.9131C7.34894 10.798 7.34894 10.6114 7.46098 10.4963L9.51016 8.39101C9.6222 8.27591 9.80384 8.27591 9.91588 8.39101Z" fill="#222222"/>
</svg>
