<svg width="24" height="24" viewBox="0 0 24 24" fill="none" xmlns="http://www.w3.org/2000/svg">
<path fill-rule="evenodd" clip-rule="evenodd" d="M17.5333 2.15058C16.2647 1.10191 14.3949 1.29093 13.357 2.57278L3.07045 15.2773C2.50715 15.973 2.28243 16.8874 2.45817 17.7685L3.09099 20.9414C3.26871 21.8325 4.04385 22.4733 4.94351 22.4727L8.14693 22.4708C9.03653 22.4703 9.87898 22.0666 10.4423 21.3709L18.6358 11.2513C18.6677 11.224 18.6979 11.1939 18.7261 11.1609C18.7639 11.1166 18.7962 11.0694 18.8231 11.0201L20.7288 8.66636C21.7667 7.38451 21.5796 5.49526 20.311 4.44659L17.5333 2.15058ZM18.0028 9.45002L19.4758 7.63066C19.9476 7.048 19.8626 6.18925 19.2859 5.71258L16.5083 3.41657C15.9316 2.9399 15.0817 3.02582 14.6099 3.60848L13.2413 5.29886L18.0028 9.45002ZM12.2159 6.56529L4.32341 16.313C4.06736 16.6293 3.96522 17.0449 4.0451 17.4454L4.67791 20.6183C4.7033 20.7456 4.81404 20.8372 4.94256 20.8371L8.14598 20.8352C8.55034 20.8349 8.93327 20.6514 9.18931 20.3352L16.9774 10.7164L12.2159 6.56529Z" fill="#222222"/>
</svg>
