<svg width="24" height="24" viewBox="0 0 24 24" fill="none" xmlns="http://www.w3.org/2000/svg">
<path fill-rule="evenodd" clip-rule="evenodd" d="M15.103 16.4137L13.9236 20.7381C13.8532 20.996 13.6509 21.197 13.3925 21.2656C13.1341 21.3343 12.8587 21.2601 12.6697 21.0711L8.4 16.8014L3.53033 21.6711C3.23744 21.964 2.76256 21.964 2.46967 21.6711C2.17678 21.3782 2.17678 20.9033 2.46967 20.6104L7.33934 15.7408L3.06967 11.4711C2.88062 11.282 2.8065 11.0067 2.87513 10.7483C2.94375 10.4899 3.14473 10.2875 3.40266 10.2172L7.7271 9.03779L2.96967 4.28036C2.67678 3.98747 2.67678 3.51259 2.96967 3.2197C3.26256 2.92681 3.73744 2.92681 4.03033 3.2197L21.0303 20.2197C21.3232 20.5126 21.3232 20.9875 21.0303 21.2804C20.7374 21.5733 20.2626 21.5733 19.9697 21.2804L15.103 16.4137ZM8.93217 10.2429C8.74548 10.3078 8.55626 10.3664 8.36482 10.4187L5.04418 11.3243L12.8165 19.0966L13.7221 15.7759C13.7743 15.5845 13.833 15.3953 13.8979 15.2086L8.93217 10.2429ZM17.02 12.9814C16.8597 13.1417 16.7075 13.3091 16.5638 13.4829L15.4992 12.4183C15.6457 12.2469 15.7992 12.0809 15.9594 11.9207C16.6193 11.2608 17.3813 10.7116 18.216 10.2942L19.7339 9.53529L14.6055 4.40688L13.8465 5.92471C13.4292 6.75946 12.88 7.52146 12.22 8.18139C12.0599 8.34154 11.8939 8.49501 11.7225 8.64154L10.6579 7.57696C10.8317 7.43322 10.9991 7.28102 11.1594 7.12073C11.7053 6.57481 12.1596 5.94444 12.5049 5.25389L13.7292 2.80535C13.837 2.58972 14.0419 2.43906 14.2799 2.40044C14.5178 2.36182 14.7599 2.43995 14.9303 2.61043L21.5303 9.21043C21.7008 9.3809 21.7789 9.62292 21.7403 9.86089C21.7017 10.0989 21.551 10.3038 21.3354 10.4116L18.8869 11.6359C18.1963 11.9811 17.566 12.4355 17.02 12.9814Z" fill="#222222"/>
</svg>
