<svg width="24" height="24" viewBox="0 0 24 24" fill="none" xmlns="http://www.w3.org/2000/svg">
<path d="M12.7827 6.39042L12.7827 17.6101L16.7285 14.4804C17.066 14.2127 17.5584 14.2669 17.8285 14.6015C18.0985 14.9361 18.0438 15.4244 17.7063 15.6921L12.4893 19.83C12.3317 19.9549 12.1376 20.011 11.9472 19.9982C11.7757 19.9869 11.6192 19.9208 11.4956 19.8174L6.29382 15.6921C5.95631 15.4244 5.90157 14.9362 6.17156 14.6016C6.44156 14.267 6.93404 14.2127 7.27155 14.4804L11.2173 17.6096L11.2173 6.38994L7.27154 9.5196C6.93404 9.78729 6.44155 9.73306 6.17154 9.39847C5.90152 9.06388 5.95623 8.57564 6.29372 8.30795L11.5107 4.17003C11.6683 4.04505 11.8624 3.98897 12.0528 4.00179C12.2243 4.01311 12.3807 4.07921 12.5044 4.18261L17.7062 8.30791C18.0437 8.57558 18.0984 9.06382 17.8284 9.39843C17.5584 9.73304 17.066 9.7873 16.7284 9.51964L12.7827 6.39042Z" fill="#222222"/>
</svg>
