<svg width="408" height="72" viewBox="0 0 408 72" fill="none" xmlns="http://www.w3.org/2000/svg">
<path fill-rule="evenodd" clip-rule="evenodd" d="M39.7206 28.1864C40.0561 28.4647 40.0949 28.9534 39.8074 29.2781L33.8537 35.9997L39.8074 42.722C40.0949 43.0466 40.0561 43.5354 39.7206 43.8136C39.3851 44.0919 38.8801 44.0543 38.5926 43.7296L32.1926 36.5035C31.9358 36.2136 31.9358 35.7857 32.1926 35.4958L38.5926 28.2704C38.8801 27.9457 39.3852 27.9081 39.7206 28.1864Z" fill="#222222"/>
<path fill-rule="evenodd" clip-rule="evenodd" d="M80.2794 43.8136C79.9439 43.5353 79.9051 43.0466 80.1926 42.7219L86.1463 36.0003L80.1926 29.278C79.9051 28.9534 79.9439 28.4646 80.2794 28.1864C80.6149 27.9081 81.1199 27.9457 81.4074 28.2704L87.8074 35.4965C88.0642 35.7864 88.0642 36.2143 87.8074 36.5042L81.4074 43.7296C81.1199 44.0543 80.6148 44.0919 80.2794 43.8136Z" fill="#222222"/>
<path fill-rule="evenodd" clip-rule="evenodd" d="M139.814 39.7206C139.535 40.0561 139.047 40.0949 138.722 39.8074L132 33.8537L125.278 39.8074C124.953 40.0949 124.465 40.0561 124.186 39.7206C123.908 39.3851 123.946 38.8801 124.27 38.5926L131.497 32.1926C131.786 31.9358 132.214 31.9358 132.504 32.1926L139.73 38.5926C140.054 38.8801 140.092 39.3852 139.814 39.7206Z" fill="#222222"/>
<path fill-rule="evenodd" clip-rule="evenodd" d="M172.186 32.2794C172.465 31.9439 172.953 31.9051 173.278 32.1926L180 38.1463L186.722 32.1926C187.047 31.9051 187.535 31.9439 187.814 32.2794C188.092 32.6149 188.054 33.1199 187.73 33.4074L180.503 39.8074C180.214 40.0642 179.786 40.0642 179.496 39.8074L172.27 33.4074C171.946 33.1199 171.908 32.6148 172.186 32.2794Z" fill="#222222"/>
<path d="M230.886 30.0243C230.573 29.7644 230.102 29.7987 229.832 30.1033L225.032 35.5224C224.789 35.7966 224.789 36.2028 225.032 36.477L229.832 41.8966C230.102 42.2012 230.573 42.2356 230.886 41.9756C231.203 41.7133 231.24 41.2495 230.968 40.942L226.591 35.9997L230.968 31.058C231.24 30.7505 231.203 30.2867 230.886 30.0243Z" fill="#222222"/>
<path d="M273.114 30.0243C273.427 29.7644 273.898 29.7987 274.168 30.1033L278.968 35.5224C279.211 35.7966 279.211 36.2028 278.968 36.477L274.168 41.8966C273.898 42.2012 273.427 42.2356 273.114 41.9756C272.798 41.7133 272.76 41.2495 273.032 40.942L277.409 35.9997L273.032 31.058C272.76 30.7505 272.798 30.2867 273.114 30.0243Z" fill="#222222"/>
<path d="M318.024 38.8862C317.764 38.5728 317.799 38.1019 318.103 37.8321L323.522 33.0321C323.797 32.7893 324.203 32.7893 324.477 33.0321L329.897 37.8321C330.201 38.1019 330.236 38.5728 329.976 38.8862C329.713 39.2024 329.25 39.2401 328.942 38.9678L324 34.5906L319.058 38.9678C318.751 39.2401 318.287 39.2025 318.024 38.8862Z" fill="#222222"/>
<path d="M377.976 33.1137C378.236 33.4271 378.201 33.898 377.897 34.1678L372.478 38.9678C372.203 39.2107 371.797 39.2107 371.523 38.9678L366.103 34.1679C365.799 33.8981 365.764 33.4272 366.024 33.1138C366.287 32.7975 366.751 32.7598 367.058 33.0321L372 37.4094L376.942 33.0322C377.25 32.7598 377.713 32.7975 377.976 33.1137Z" fill="#222222"/>
<rect x="0.5" y="0.5" width="407" height="71" rx="4.5" stroke="#9747FF" stroke-dasharray="10 5"/>
</svg>
