<svg width="216" height="72" viewBox="0 0 216 72" fill="none" xmlns="http://www.w3.org/2000/svg">
<path d="M43.1816 36.8178C43.6335 36.8178 43.9998 36.4515 43.9998 35.9997C43.9998 35.5478 43.6335 35.1815 43.1816 35.1815L30.7019 35.1815L34.0023 31.0563C34.2846 30.7034 34.2274 30.1886 33.8746 29.9063C33.5218 29.624 33.0069 29.6812 32.7246 30.034L28.3609 35.4882C28.1219 35.787 28.1219 36.2116 28.3609 36.5104L32.7245 41.9653C33.0068 42.3182 33.5217 42.3754 33.8746 42.0931C34.2274 41.8109 34.2846 41.296 34.0024 40.9431L30.7024 36.8178L43.1816 36.8178Z" fill="#222222"/>
<path d="M76.9998 36.8178C76.548 36.8178 76.1816 36.4515 76.1816 35.9997C76.1816 35.5478 76.548 35.1815 76.9998 35.1815L89.4795 35.1815L86.1791 31.0563C85.8968 30.7034 85.954 30.1886 86.3069 29.9063C86.6597 29.624 87.1746 29.6812 87.4569 30.034L91.8205 35.4882C92.0596 35.787 92.0596 36.2116 91.8206 36.5104L87.4569 41.9653C87.1746 42.3182 86.6598 42.3754 86.3069 42.0931C85.9541 41.8109 85.8968 41.296 86.1791 40.9431L89.4791 36.8178L76.9998 36.8178Z" fill="#222222"/>
<path d="M132.909 43.0906C132.909 43.5424 132.542 43.9088 132.091 43.9088C131.639 43.9088 131.272 43.5424 131.272 43.0906L131.272 30.6109L127.147 33.9113C126.794 34.1936 126.279 34.1364 125.997 33.7835C125.715 33.4307 125.772 32.9158 126.125 32.6335L131.579 28.2699C131.878 28.0308 132.303 28.0308 132.601 28.2698L138.056 32.6335C138.409 32.9158 138.466 33.4306 138.184 33.7835C137.902 34.1363 137.387 34.1936 137.034 33.9113L132.909 30.6113L132.909 43.0906Z" fill="#222222"/>
<path d="M180.909 28.9088C180.909 28.4569 180.543 28.0906 180.091 28.0906C179.639 28.0906 179.273 28.4569 179.273 28.9088L179.273 41.3885L175.148 38.0881C174.795 37.8058 174.28 37.863 173.998 38.2158C173.715 38.5686 173.773 39.0835 174.125 39.3658L179.58 43.7295C179.878 43.9685 180.303 43.9685 180.602 43.7295L186.057 39.3659C186.41 39.0836 186.467 38.5687 186.185 38.2158C185.902 37.863 185.387 37.8058 185.035 38.088L180.909 41.388L180.909 28.9088Z" fill="#222222"/>
<rect x="0.5" y="0.5" width="215" height="71" rx="4.5" stroke="#9747FF" stroke-dasharray="10 5"/>
</svg>
