<svg width="216" height="72" viewBox="0 0 216 72" fill="none" xmlns="http://www.w3.org/2000/svg">
<path d="M35.8074 29.2781C36.0949 28.9534 36.0561 28.4647 35.7206 28.1864C35.3852 27.9081 34.8801 27.9457 34.5926 28.2704L28.1926 35.4958C27.9358 35.7857 27.9358 36.2136 28.1926 36.5035L34.5926 43.7296C34.8801 44.0543 35.3851 44.0919 35.7206 43.8136C36.0561 43.5354 36.0949 43.0466 35.8074 42.722L29.8537 35.9997L35.8074 29.2781Z" fill="#222222"/>
<path d="M42.8074 29.2781C43.0949 28.9534 43.0561 28.4647 42.7206 28.1864C42.3852 27.9081 41.8801 27.9457 41.5926 28.2704L35.1926 35.4958C34.9358 35.7857 34.9358 36.2136 35.1926 36.5035L41.5926 43.7296C41.8801 44.0543 42.3851 44.0919 42.7206 43.8136C43.0561 43.5354 43.0949 43.0466 42.8074 42.722L36.8537 35.9997L42.8074 29.2781Z" fill="#222222"/>
<path d="M83.1926 29.2781C82.9051 28.9534 82.9439 28.4647 83.2794 28.1864C83.6148 27.9081 84.1199 27.9457 84.4074 28.2704L90.8074 35.4958C91.0642 35.7857 91.0642 36.2136 90.8074 36.5035L84.4074 43.7296C84.1199 44.0543 83.6149 44.0919 83.2794 43.8136C82.9439 43.5354 82.9051 43.0466 83.1926 42.722L89.1463 35.9997L83.1926 29.2781Z" fill="#222222"/>
<path d="M76.1926 29.2781C75.9051 28.9534 75.9439 28.4647 76.2794 28.1864C76.6148 27.9081 77.1199 27.9457 77.4074 28.2704L83.8074 35.4958C84.0642 35.7857 84.0642 36.2136 83.8074 36.5035L77.4074 43.7296C77.1199 44.0543 76.6149 44.0919 76.2794 43.8136C75.9439 43.5354 75.9051 43.0466 76.1926 42.722L82.1463 35.9997L76.1926 29.2781Z" fill="#222222"/>
<path d="M125.278 36.1926C124.953 35.9051 124.465 35.9439 124.186 36.2794C123.908 36.6148 123.946 37.1199 124.27 37.4074L131.496 43.8074C131.786 44.0642 132.214 44.0642 132.503 43.8074L139.73 37.4074C140.054 37.1199 140.092 36.6149 139.814 36.2794C139.535 35.9439 139.047 35.9051 138.722 36.1926L132 42.1463L125.278 36.1926Z" fill="#222222"/>
<path d="M125.278 29.1926C124.953 28.9051 124.465 28.9439 124.186 29.2794C123.908 29.6148 123.946 30.1199 124.27 30.4074L131.496 36.8074C131.786 37.0642 132.214 37.0642 132.503 36.8074L139.73 30.4074C140.054 30.1199 140.092 29.6149 139.814 29.2794C139.535 28.9439 139.047 28.9051 138.722 29.1926L132 35.1463L125.278 29.1926Z" fill="#222222"/>
<path d="M186.722 36.8074C187.047 37.0949 187.535 37.0561 187.814 36.7206C188.092 36.3852 188.054 35.8801 187.73 35.5926L180.504 29.1926C180.214 28.9358 179.786 28.9358 179.497 29.1926L172.27 35.5926C171.946 35.8801 171.908 36.3851 172.186 36.7206C172.465 37.0561 172.953 37.0949 173.278 36.8074L180 30.8537L186.722 36.8074Z" fill="#222222"/>
<path d="M186.722 43.8074C187.047 44.0949 187.535 44.0561 187.814 43.7206C188.092 43.3852 188.054 42.8801 187.73 42.5926L180.504 36.1926C180.214 35.9358 179.786 35.9358 179.497 36.1926L172.27 42.5926C171.946 42.8801 171.908 43.3851 172.186 43.7206C172.465 44.0561 172.953 44.0949 173.278 43.8074L180 37.8537L186.722 43.8074Z" fill="#222222"/>
<rect x="0.5" y="0.5" width="215" height="71" rx="4.5" stroke="#9747FF" stroke-dasharray="10 5"/>
</svg>
