<svg width="24" height="24" viewBox="0 0 24 24" fill="none" xmlns="http://www.w3.org/2000/svg">
<path d="M21.1552 9.41033C20.6845 9.41453 20.2996 9.04386 20.2955 8.58241L20.2621 4.86028L14.2002 10.9092C13.8703 11.2384 13.3307 11.2433 12.9949 10.9199C12.6592 10.5966 12.6544 10.0676 12.9843 9.73832L19.0463 3.68943L15.2497 3.72328C14.779 3.72748 14.3941 3.35681 14.3899 2.89536C14.3858 2.43392 14.764 2.05644 15.2347 2.05224L21.0889 2.00003C21.3149 1.99802 21.5324 2.08411 21.6937 2.23938C21.8549 2.39464 21.9466 2.60636 21.9486 2.82796L22 8.56721C22.0041 9.02866 21.6259 9.40613 21.1552 9.41033Z" fill="#222222"/>
<path d="M2.92504 14.9137C3.39573 14.9095 3.78064 15.2802 3.78477 15.7416L3.8181 19.4638L9.78416 13.5107C10.1141 13.1815 10.6537 13.1767 10.9894 13.5C11.3252 13.8233 11.3299 14.3523 11 14.6816L5.03394 20.6346L8.83058 20.6007C9.30127 20.5966 9.68618 20.9672 9.69031 21.4287C9.69444 21.8901 9.31623 22.2676 8.84554 22.2718L2.99139 22.324C2.76536 22.326 2.54779 22.2399 2.38656 22.0847C2.22533 21.9294 2.13364 21.7177 2.13166 21.4961L2.08027 15.7568C2.07614 15.2954 2.45436 14.9179 2.92504 14.9137Z" fill="#222222"/>
</svg>
