<svg width="24" height="24" viewBox="0 0 24 24" fill="none" xmlns="http://www.w3.org/2000/svg">
<path d="M3.54554 5.99997C3.54554 4.64436 4.64448 3.54542 6.00009 3.54542H12.0001C12.452 3.54542 12.8183 3.17911 12.8183 2.72724C12.8183 2.27537 12.452 1.90906 12.0001 1.90906H6.00009C3.74074 1.90906 1.90918 3.74062 1.90918 5.99997V18C1.90918 20.2593 3.74074 22.0909 6.00009 22.0909H18.0001C20.2594 22.0909 22.091 20.2593 22.091 18V12C22.091 11.5481 21.7247 11.1818 21.2728 11.1818C20.821 11.1818 20.4546 11.5481 20.4546 12V18C20.4546 19.3556 19.3557 20.4545 18.0001 20.4545H6.00009C4.64448 20.4545 3.54554 19.3556 3.54554 18V5.99997Z" fill="#222222"/>
<path d="M16.3637 1.90906C15.9119 1.90906 15.5455 2.27537 15.5455 2.72724C15.5455 3.17911 15.9119 3.54542 16.3637 3.54542H19.2975L10.8761 11.9668C10.5566 12.2864 10.5566 12.8044 10.8761 13.1239C11.1956 13.4434 11.7137 13.4434 12.0332 13.1239L20.4546 4.70246V7.63633C20.4546 8.0882 20.8209 8.45451 21.2728 8.45451C21.7247 8.45451 22.091 8.0882 22.091 7.63633V2.72724C22.091 2.27537 21.7247 1.90906 21.2728 1.90906H16.3637Z" fill="#222222"/>
</svg>
