<svg width="24" height="24" viewBox="0 0 24 24" fill="none" xmlns="http://www.w3.org/2000/svg">
<path d="M3.20268 17.5371C2.93244 17.361 2.93244 16.9248 3.20268 16.7486L6.88564 14.3486C7.15798 14.1711 7.5 14.3906 7.5 14.7428V16.2857L19.875 16.2857C20.341 16.2857 20.7188 16.6695 20.7188 17.1429C20.7188 17.6162 20.341 18 19.875 18L7.5 18L7.5 19.5429C7.5 19.8952 7.15798 20.1146 6.88564 19.9371L3.20268 17.5371Z" fill="#222222"/>
<path d="M20.7973 7.25135L17.1144 9.65143C16.842 9.82891 16.5 9.60945 16.5 9.25722V7.71429L4.125 7.71429C3.65901 7.71429 3.28125 7.33053 3.28125 6.85714C3.28125 6.38375 3.65901 6 4.125 6L16.5 6V4.45707C16.5 4.10484 16.842 3.88538 17.1144 4.06286L20.7973 6.46293C21.0676 6.63904 21.0676 7.07525 20.7973 7.25135Z" fill="#222222"/>
</svg>
