<svg width="24" height="24" viewBox="0 0 24 24" fill="none" xmlns="http://www.w3.org/2000/svg">
<path fill-rule="evenodd" clip-rule="evenodd" d="M17.6309 16.7368C17.3813 17.0856 17.4487 17.5804 17.7815 17.842C18.1143 18.1037 18.5865 18.033 18.8361 17.6842L21.8493 13.4741C22.0502 13.1934 22.0502 12.8074 21.8494 12.5267L18.8362 8.31586C18.5866 7.96704 18.1144 7.89633 17.7816 8.15792C17.4487 8.41951 17.3812 8.91435 17.6309 9.26317L19.74 12.2106L10.7533 12.2106C10.3373 12.2106 10 12.564 10 13.0001C10 13.4361 10.3373 13.7895 10.7533 13.7895L19.7402 13.7895L17.6309 16.7368Z" fill="#222222"/>
<path fill-rule="evenodd" clip-rule="evenodd" d="M15 21.25C15 21.6642 14.6673 22 14.2569 22L6.71559 22C4.66353 22 3 20.3211 3 18.25L3 6.75C3 4.67893 4.66353 3 6.7156 3L14.2569 3C14.6673 3 15 3.33579 15 3.75C15 4.16422 14.6673 4.5 14.2569 4.5L6.7156 4.5C5.48436 4.5 4.48624 5.50736 4.48624 6.75L4.48624 18.25C4.48624 19.4926 5.48435 20.5 6.71559 20.5L14.2569 20.5C14.6673 20.5 15 20.8358 15 21.25Z" fill="#222222"/>
</svg>
