<svg width="216" height="72" viewBox="0 0 216 72" fill="none" xmlns="http://www.w3.org/2000/svg">
<path d="M42.7735 28.4378C43.1116 28.0726 43.066 27.5228 42.6714 27.2097C42.2769 26.8967 41.683 26.9389 41.3448 27.3041L33.8181 35.4328C33.5161 35.759 33.5161 36.2403 33.8181 36.5664L41.3448 44.6958C41.6829 45.061 42.2769 45.1034 42.6714 44.7903C43.0659 44.4773 43.1116 43.9274 42.7735 43.5622L35.7716 35.9996L42.7735 28.4378Z" fill="#222222"/>
<path d="M29.8103 45C29.3628 45 29 44.6546 29 44.2286V27.7714C29 27.3454 29.3628 27 29.8103 27C30.2578 27 30.6206 27.3454 30.6206 27.7714L30.6206 44.2286C30.6206 44.6546 30.2578 45 29.8103 45Z" fill="#222222"/>
<path d="M77.2265 28.4378C76.8884 28.0726 76.934 27.5228 77.3286 27.2097C77.7231 26.8967 78.317 26.9389 78.6552 27.3041L86.1819 35.4328C86.4839 35.759 86.4839 36.2403 86.1819 36.5664L78.6552 44.6958C78.3171 45.061 77.7231 45.1034 77.3286 44.7903C76.9341 44.4773 76.8884 43.9274 77.2265 43.5622L84.2284 35.9996L77.2265 28.4378Z" fill="#222222"/>
<path d="M90.1897 45C90.6372 45 91 44.6546 91 44.2286V27.7714C91 27.3454 90.6372 27 90.1897 27C89.7422 27 89.3794 27.3454 89.3794 27.7714L89.3794 44.2286C89.3794 44.6546 89.7422 45 90.1897 45Z" fill="#222222"/>
<path d="M139.562 42.7735C139.927 43.1116 140.477 43.066 140.79 42.6714C141.103 42.2769 141.061 41.683 140.696 41.3448L132.567 33.8181C132.241 33.5161 131.76 33.5161 131.434 33.8181L123.304 41.3448C122.939 41.6829 122.897 42.2769 123.21 42.6714C123.523 43.0659 124.073 43.1116 124.438 42.7735L132 35.7716L139.562 42.7735Z" fill="#222222"/>
<path d="M123 29.8103C123 29.3628 123.345 29 123.771 29L140.229 29C140.655 29 141 29.3628 141 29.8103C141 30.2578 140.655 30.6206 140.229 30.6206L123.771 30.6206C123.345 30.6206 123 30.2578 123 29.8103Z" fill="#222222"/>
<path d="M172.438 29.2265C172.073 28.8884 171.523 28.934 171.21 29.3286C170.897 29.7231 170.939 30.317 171.304 30.6552L179.433 38.1819C179.759 38.4839 180.24 38.4839 180.566 38.1819L188.696 30.6552C189.061 30.3171 189.103 29.7231 188.79 29.3286C188.477 28.9341 187.927 28.8884 187.562 29.2265L180 36.2284L172.438 29.2265Z" fill="#222222"/>
<path d="M189 42.1897C189 42.6372 188.655 43 188.229 43L171.771 43C171.345 43 171 42.6372 171 42.1897C171 41.7422 171.345 41.3794 171.771 41.3794L188.229 41.3794C188.655 41.3794 189 41.7422 189 42.1897Z" fill="#222222"/>
<rect x="0.5" y="0.5" width="215" height="71" rx="4.5" stroke="#9747FF" stroke-dasharray="10 5"/>
</svg>
