<svg width="24" height="24" viewBox="0 0 24 24" fill="none" xmlns="http://www.w3.org/2000/svg">
<path d="M13.3891 3.82115C13.8605 3.82115 14.2426 4.1965 14.2426 4.65951V8.39426L20.2568 2.5C20.5901 2.1726 21.1305 2.1726 21.4638 2.5C21.7971 2.8274 21.7971 3.35822 21.4638 3.68561L15.4496 9.57987L19.2517 9.57987C19.723 9.57987 20.1051 9.95522 20.1051 10.4182C20.1051 10.8812 19.723 11.2566 19.2517 11.2566H13.3891C13.1628 11.2566 12.9457 11.1683 12.7856 11.011C12.6256 10.8538 12.5356 10.6406 12.5356 10.4182V4.65951C12.5356 4.1965 12.9178 3.82115 13.3891 3.82115Z" fill="#222222"/>
<path d="M10.5362 20.1899C10.0649 20.1899 9.68275 19.8145 9.68275 19.3515V15.6168L3.45697 21.7224C3.12367 22.0498 2.58328 22.0498 2.24998 21.7224C1.91667 21.395 1.91667 20.8642 2.24998 20.5368L8.47576 14.4312H4.67366C4.2023 14.4312 3.82019 14.0558 3.82019 13.5928C3.82019 13.1298 4.2023 12.7545 4.67366 12.7545H10.5362C10.7626 12.7545 10.9797 12.8428 11.1397 13C11.2998 13.1572 11.3897 13.3705 11.3897 13.5928L11.3897 19.3515C11.3897 19.8145 11.0076 20.1899 10.5362 20.1899Z" fill="#222222"/>
</svg>
