<svg width="24" height="24" viewBox="0 0 24 24" fill="none" xmlns="http://www.w3.org/2000/svg">
<path fill-rule="evenodd" clip-rule="evenodd" d="M15.9951 19.1609C14.2716 20.1224 12.2593 20.4302 10.3272 20.0276C8.39522 19.6251 6.67319 18.5393 5.47718 16.9695C4.28118 15.3997 3.69144 13.4512 3.81621 11.4816C3.84414 11.0407 3.50933 10.6606 3.06839 10.6326C2.62744 10.6047 2.24734 10.9395 2.21941 11.3805C2.0703 13.7343 2.7751 16.063 4.20448 17.9391C5.63385 19.8152 7.69189 21.1129 10.0009 21.594C12.3099 22.0751 14.7149 21.7073 16.7746 20.5581C18.8343 19.409 20.4105 17.5555 21.2138 15.338C22.0172 13.1204 21.9938 10.6875 21.148 8.48581C20.3023 6.28409 18.6908 4.46125 16.6094 3.35184C14.5281 2.24243 12.1164 1.92088 9.81707 2.4462C8.30952 2.79063 6.91656 3.48395 5.74335 4.45701L4.59961 3.58632C4.33315 3.38347 3.96703 3.51993 3.94196 3.83144L3.60295 8.04406C3.57807 8.35316 3.90807 8.60437 4.19939 8.49811L8.16975 7.04991C8.46335 6.94282 8.49742 6.55359 8.23096 6.35074L7.05709 5.45712C7.97465 4.76399 9.03499 4.2661 10.1734 4.00601C12.0974 3.56645 14.1153 3.83551 15.8568 4.76379C17.5984 5.69207 18.9468 7.2173 19.6545 9.05956C20.3621 10.9018 20.3817 12.9375 19.7095 14.793C19.0373 16.6485 17.7185 18.1993 15.9951 19.1609Z" fill="#222222"/>
</svg>
