<svg width="24" height="24" viewBox="0 0 24 24" fill="none" xmlns="http://www.w3.org/2000/svg">
<path d="M12.0004 18.048C11.5485 18.048 11.1822 17.6817 11.1822 17.2298L11.1822 5.84146L7.05693 9.14147C6.70407 9.42374 6.1892 9.36652 5.90693 9.01366C5.62466 8.6608 5.68189 8.14592 6.03475 7.86365L11.4897 3.50002C11.7885 3.26098 12.2131 3.26099 12.5119 3.50006L17.9661 7.86369C18.3189 8.14598 18.3761 8.66086 18.0938 9.0137C17.8115 9.36654 17.2966 9.42373 16.9438 9.14144L12.8186 5.84105L12.8186 17.2298C12.8186 17.6817 12.4523 18.048 12.0004 18.048Z" fill="#222222"/>
<path d="M20.7277 21.5C21.1796 21.5 21.5459 21.1337 21.5459 20.6818C21.5459 20.23 21.1796 19.8636 20.7277 19.8636L3.27317 19.8636C2.8213 19.8636 2.45499 20.2299 2.45499 20.6818C2.45499 21.1337 2.8213 21.5 3.27317 21.5L20.7277 21.5Z" fill="#222222"/>
</svg>
