<svg width="24" height="24" viewBox="0 0 24 24" fill="none" xmlns="http://www.w3.org/2000/svg">
<path fill-rule="evenodd" clip-rule="evenodd" d="M12.7777 5.77778C12.7777 5.34822 12.4295 5 12 5C11.5704 5 11.2222 5.34822 11.2222 5.77778V11.2222H5.77778C5.34822 11.2222 5 11.5704 5 12C5 12.4295 5.34822 12.7777 5.77778 12.7777H11.2222V18.2222C11.2222 18.6518 11.5704 19 12 19C12.4295 19 12.7777 18.6518 12.7777 18.2222V12.7777H18.2222C18.6518 12.7777 19 12.4295 19 12C19 11.5704 18.6518 11.2222 18.2222 11.2222H12.7777V5.77778Z" fill="currentColor"/>
</svg>
