<svg width="24" height="24" viewBox="0 0 24 24" fill="none" xmlns="http://www.w3.org/2000/svg">
<path d="M21.2498 12.1655C21.1798 12.446 20.9586 12.6579 20.6852 12.724L3.93932 21.7261C3.66737 21.8723 3.33371 21.8425 3.09238 21.6504C2.85105 21.4584 2.74899 21.1414 2.83331 20.8459L5.08701 12.9475H9.82996C10.2547 12.9475 10.5991 12.6054 10.5991 12.1835C10.5991 11.7616 10.2547 11.4196 9.82996 11.4196H5.09529L2.75578 3.15249C2.67237 2.85774 2.77418 2.54199 3.01448 2.35023C3.25477 2.15846 3.58712 2.12773 3.85893 2.27214L20.8661 11.308C21.1765 11.4729 21.3346 11.8261 21.2498 12.1655Z" fill="#222222"/>
</svg>
