<svg width="24" height="24" viewBox="0 0 24 24" fill="none" xmlns="http://www.w3.org/2000/svg">
<path fill-rule="evenodd" clip-rule="evenodd" d="M21.2856 12.7743C21.5039 12.7212 21.6996 12.5789 21.8139 12.3652C22.027 11.9667 21.8768 11.4709 21.4783 11.2578L3.38576 1.58037C3.09661 1.42571 2.74305 1.45862 2.48741 1.66401C2.23178 1.86939 2.12347 2.20755 2.2122 2.52323L4.92753 12.1831L2.29463 21.4728C2.20493 21.7893 2.31351 22.1288 2.57024 22.3345C2.82697 22.5401 3.18192 22.5721 3.47124 22.4155L21.2856 12.7743ZM19.3371 11.9682L4.30712 3.92893L6.36108 11.236L11.1193 11.2189C11.5712 11.2173 11.9388 11.5823 11.9404 12.0342C11.942 12.486 11.577 12.8537 11.1252 12.8553L6.43307 12.8721L4.39774 20.0534L19.3371 11.9682Z" fill="#222222"/>
</svg>
