<svg width="24" height="24" viewBox="0 0 24 24" fill="none" xmlns="http://www.w3.org/2000/svg">
<path d="M3.61172 11.1453C3.52734 10.8641 3.48516 10.5735 3.48516 10.2781C3.48516 9.61486 3.70312 8.97736 4.09687 8.45705C4.0125 8.1758 3.97031 7.88517 3.97031 7.58986C3.97031 6.92658 4.18828 6.28908 4.58203 5.76877C4.49766 5.48752 4.45547 5.19689 4.45547 4.90158C4.45547 3.69221 5.175 2.60236 6.29063 2.12658C6.48672 2.04204 6.69818 1.99895 6.91172 2.00002H21C21.4148 2.00002 21.75 2.33518 21.75 2.75002V11.2813C21.75 11.6961 21.4148 12.0313 21 12.0313H17.9695L15.9586 19.3156C15.6352 20.4898 14.557 21.3102 13.3383 21.3102C12.6422 21.3102 11.993 21.0336 11.5125 20.5273C11.032 20.0234 10.7859 19.3625 10.8211 18.6664L10.9617 15.7859H5.33906C5.05547 15.7859 4.77891 15.7109 4.53516 15.568C3.58828 15.0172 3 14.0188 3 12.9664C3 12.3031 3.21797 11.6656 3.61172 11.1453ZM20.0625 10.3414V3.68517H18.1641V10.3414H20.0625ZM5.3625 14.1008H12.7313L12.5063 18.7508C12.4922 19.0297 12.6164 19.2922 12.8484 19.4656C12.9914 19.5711 13.1672 19.625 13.343 19.6227C13.5675 19.6205 13.7853 19.5455 13.9637 19.409C14.142 19.2725 14.2713 19.0818 14.332 18.8656L16.6641 10.4164V3.68517H6.92812C6.69385 3.79017 6.4949 3.9606 6.35519 4.17598C6.21549 4.39136 6.14098 4.64251 6.14062 4.89924C6.14062 5.12658 6.19453 5.3422 6.30234 5.53908L6.62812 6.13439L6.11484 6.5797C5.97037 6.70483 5.85456 6.85962 5.77529 7.03353C5.69602 7.20744 5.65515 7.39639 5.65547 7.58752C5.65547 7.81486 5.70938 8.03048 5.81719 8.22736L6.14297 8.82267L5.62969 9.26798C5.48522 9.39311 5.3694 9.5479 5.29013 9.72181C5.21086 9.89572 5.16999 10.0847 5.17031 10.2758C5.17031 10.5031 5.22422 10.7188 5.33203 10.9156L5.66016 11.5133L5.14687 11.9586C5.0024 12.0837 4.88659 12.2385 4.80732 12.4124C4.72805 12.5863 4.68718 12.7753 4.6875 12.9664C4.6875 13.4141 4.94531 13.8453 5.3625 14.1008Z" fill="#222222"/>
</svg>
