<svg width="48" height="48" viewBox="0 0 48 48" fill="none" xmlns="http://www.w3.org/2000/svg">
<path opacity="0.3" d="M28.1399 30.46C28.3799 29.68 28.4999 28.86 28.4999 28C28.4999 27.14 28.3799 26.32 28.1399 25.54L31.1199 23.28L29.6599 20.74L26.1999 22.2C25.0799 21 23.5999 20.12 21.9399 19.74L21.4599 16H18.5399L18.0599 19.72C16.3999 20.1 14.9199 20.98 13.7999 22.18L10.3399 20.72L8.87988 23.26L11.8599 25.52C11.6199 26.3 11.4999 27.12 11.4999 27.98C11.4999 28.84 11.6199 29.66 11.8599 30.44L8.87988 32.7L10.3399 35.24L13.7999 33.78C14.9199 34.98 16.3999 35.86 18.0599 36.24L18.5399 40H21.4799L21.9399 36.28C23.5999 35.9 25.0799 35.02 26.1999 33.82L29.6599 35.28L31.1199 32.74L28.1399 30.46ZM19.9999 34C16.6799 34 13.9999 31.32 13.9999 28C13.9999 24.68 16.6799 22 19.9999 22C23.3199 22 25.9999 24.68 25.9999 28C25.9999 31.32 23.3199 34 19.9999 34Z" fill="white"/>
<path d="M19.9999 26C21.0999 26 21.9999 26.9 21.9999 28C21.9999 29.1 21.0999 30 19.9999 30C18.8999 30 17.9999 29.1 17.9999 28C17.9999 26.9 18.8999 26 19.9999 26ZM19.9999 22C16.6799 22 13.9999 24.68 13.9999 28C13.9999 31.32 16.6799 34 19.9999 34C23.3199 34 25.9999 31.32 25.9999 28C25.9999 24.68 23.3199 22 19.9999 22ZM36.9999 18L39.1799 13.18L43.9999 11L39.1799 8.82L36.9999 4L34.8199 8.82L29.9999 11L34.8199 13.18L36.9999 18ZM42.5599 25.44L40.9999 22L39.4399 25.44L35.9999 27L39.4399 28.56L40.9999 32L42.5599 28.56L45.9999 27L42.5599 25.44ZM32.4999 28C32.4999 27.76 32.4999 27.5 32.4799 27.26L36.3599 24.32L31.3599 15.66L26.8799 17.54C26.4799 17.28 26.0399 17.02 25.5999 16.8L24.9999 12H14.9999L14.3999 16.82C13.9599 17.04 13.5399 17.3 13.1199 17.56L8.63989 15.66L3.63989 24.32L7.51989 27.26C7.49989 27.5 7.49989 27.76 7.49989 28C7.49989 28.24 7.49989 28.5 7.51989 28.74L3.63989 31.68L8.63989 40.34L13.1199 38.46C13.5199 38.72 13.9599 38.98 14.3999 39.2L14.9999 44H24.9999L25.5999 39.18C26.0399 38.96 26.4599 38.72 26.8799 38.44L31.3599 40.32L36.3599 31.66L32.4799 28.72C32.4999 28.5 32.4999 28.24 32.4999 28ZM29.6599 35.28L26.1999 33.82C25.0799 35.02 23.5999 35.9 21.9399 36.28L21.4599 40H18.5399L18.0799 36.28C16.4199 35.9 14.9399 35.02 13.8199 33.82L10.3599 35.28L8.89989 32.74L11.8799 30.48C11.6399 29.7 11.5199 28.88 11.5199 28.02C11.5199 27.16 11.6399 26.34 11.8799 25.56L8.89989 23.3L10.3599 20.76L13.8199 22.22C14.9399 21.02 16.4199 20.14 18.0799 19.76L18.5399 16H21.4799L21.9399 19.72C23.5999 20.1 25.0799 20.98 26.1999 22.18L29.6599 20.72L31.1199 23.26L28.1399 25.52C28.3799 26.3 28.4999 27.12 28.4999 27.98C28.4999 28.84 28.3799 29.66 28.1399 30.44L31.1199 32.7L29.6599 35.28Z" fill="white"/>
</svg>
