<svg width="48" height="48" viewBox="0 0 48 48" fill="none" xmlns="http://www.w3.org/2000/svg">
<path d="M38.06 7.11998C34.72 4.33998 30.58 2.51998 26 2.09998V6.11998C29.46 6.49998 32.62 7.87998 35.22 9.95998L38.06 7.11998Z" fill="white"/>
<path d="M21.9999 6.11998V2.09998C17.4199 2.49998 13.2799 4.33998 9.93994 7.11998L12.7799 9.95998C15.3799 7.87998 18.5399 6.49998 21.9999 6.11998Z" fill="white"/>
<path d="M9.9601 12.78L7.1201 9.94C4.3401 13.28 2.5201 17.42 2.1001 22H6.1201C6.5001 18.54 7.8801 15.38 9.9601 12.78Z" fill="white"/>
<path d="M41.88 22H45.9C45.48 17.42 43.66 13.28 40.88 9.94L38.04 12.78C40.12 15.38 41.5 18.54 41.88 22Z" fill="white"/>
<path d="M14 24L20.88 27.12L24 34L27.12 27.12L34 24L27.12 20.88L24 14L20.88 20.88L14 24Z" fill="white"/>
<path d="M24 42C17.78 42 12.3 38.82 9.08 34H14V30H2V42H6V36.6C9.98 42.28 16.54 46 24 46C33.74 46 42 39.66 44.88 30.88L40.96 29.98C38.5 36.96 31.84 42 24 42Z" fill="white"/>
</svg>
