<svg width="48" height="48" viewBox="0 0 48 48" fill="none" xmlns="http://www.w3.org/2000/svg">
<path d="M20 30H31.76C32.3 29.38 33.1 29 34 29C35.66 29 37 30.34 37 32C37 33.66 35.66 35 34 35C33.12 35 32.32 34.62 31.76 34H23.8C22.88 38.56 18.84 42 14 42C8.48 42 4 37.52 4 32C4 27.16 7.44 23.12 12 22.2V26.34C9.68 27.16 8 29.4 8 32C8 35.3 10.7 38 14 38C17.3 38 20 35.3 20 32V30ZM25 8C28.3 8 31 10.7 31 14H35C35 8.48 30.52 4 25 4C19.48 4 15 8.48 15 14C15 16.86 16.2 19.42 18.1 21.24L13.4 29.04C12.04 29.32 11 30.54 11 32C11 33.66 12.34 35 14 35C15.66 35 17 33.66 17 32C17 31.68 16.96 31.38 16.86 31.1L23.62 19.84C20.98 19.22 19 16.84 19 14C19 10.7 21.7 8 25 8ZM34 26C32.72 26 31.54 26.4 30.56 27.08L24.46 16.94C23.06 16.7 22 15.48 22 14C22 12.34 23.34 11 25 11C26.66 11 28 12.34 28 14C28 14.3 27.96 14.58 27.88 14.86L32.26 22.16C32.82 22.06 33.4 22 34 22C39.52 22 44 26.48 44 32C44 37.52 39.52 42 34 42C30.3 42 27.06 39.98 25.34 37H30.68C31.64 37.64 32.78 38 34 38C37.3 38 40 35.3 40 32C40 28.7 37.3 26 34 26Z" fill="white"/>
</svg>
