<svg width="24" height="24" viewBox="0 0 24 24" fill="none" xmlns="http://www.w3.org/2000/svg">
<path fill-rule="evenodd" clip-rule="evenodd" d="M16.2219 17.2824C14.8371 18.4301 13.0592 19.12 11.1201 19.12C6.70184 19.12 3.12012 15.5383 3.12012 11.12C3.12012 6.70172 6.70184 3.12 11.1201 3.12C15.5384 3.12 19.1201 6.70172 19.1201 11.12C19.1201 13.0591 18.4302 14.837 17.2825 16.2218L20.6504 19.5897C20.9433 19.8826 20.9433 20.3574 20.6504 20.6503C20.3576 20.9432 19.8827 20.9432 19.5898 20.6503L16.2219 17.2824ZM17.6201 11.12C17.6201 14.7098 14.71 17.62 11.1201 17.62C7.53027 17.62 4.62012 14.7098 4.62012 11.12C4.62012 7.53014 7.53027 4.62 11.1201 4.62C14.71 4.62 17.6201 7.53014 17.6201 11.12Z" fill="#222222"/>
<path d="M8.36092 10.6888C8.05102 10.6888 7.7998 10.9401 7.7998 11.25C7.7998 11.5598 8.05102 11.8111 8.36092 11.8111H14.1387C14.4486 11.8111 14.6998 11.5598 14.6998 11.25C14.6998 10.9401 14.4486 10.6888 14.1387 10.6888H8.36092Z" fill="#222222"/>
</svg>
