<svg width="24" height="24" viewBox="0 0 24 24" fill="none" xmlns="http://www.w3.org/2000/svg">
<path fill-rule="evenodd" clip-rule="evenodd" d="M3.37724 11.173C3.47782 11.8183 3.64911 12.4402 3.88294 13.0306C4.85368 15.9979 6.53816 18.693 8.80015 20.8726L10.5216 22.5313C11.3708 23.3495 12.7164 23.3449 13.56 22.5209L15.2275 20.8921C17.4682 18.7034 19.1388 16.0117 20.1082 13.0528C20.5076 12.0525 20.7273 10.961 20.7273 9.81815C20.7273 4.99821 16.8199 1.09088 12 1.09088C7.18004 1.09088 3.27271 4.99821 3.27271 9.81815C3.27271 10.2006 3.2973 10.5772 3.34499 10.9466C3.35117 11.0219 3.36187 11.0975 3.37724 11.173ZM12 13.0909C13.9581 13.0909 15.5454 11.5035 15.5454 9.54543C15.5454 7.58733 13.9581 5.99997 12 5.99997C10.0419 5.99997 8.45452 7.58733 8.45452 9.54543C8.45452 11.5035 10.0419 13.0909 12 13.0909Z" fill="#222222"/>
</svg>
