<svg width="24" height="24" viewBox="0 0 24 24" fill="none" xmlns="http://www.w3.org/2000/svg">
<path fill-rule="evenodd" clip-rule="evenodd" d="M18.5885 12.446C18.5757 12.4781 18.5639 12.5106 18.5531 12.5434C17.6655 15.2528 16.1358 17.7174 14.0841 19.7215L12.4166 21.3503C12.2057 21.5563 11.8693 21.5575 11.657 21.3529L9.93557 19.6942C7.86672 17.7007 6.32606 15.2358 5.43819 12.5218C5.42785 12.4902 5.41655 12.4589 5.4043 12.428C5.21468 11.9492 5.07573 11.4448 4.99408 10.921C4.9902 10.8961 4.98573 10.8712 4.9807 10.8465C4.97833 10.8349 4.97676 10.8236 4.97587 10.8128C4.9738 10.7875 4.97113 10.7623 4.96789 10.7371C4.92914 10.437 4.90907 10.1303 4.90907 9.81815C4.90907 5.90195 8.08378 2.72725 12 2.72725C15.9162 2.72725 19.0909 5.90195 19.0909 9.81815C19.0909 10.7497 18.9121 11.6355 18.5885 12.446ZM3.37724 11.173C3.47782 11.8183 3.64911 12.4402 3.88294 13.0306C4.85368 15.9979 6.53816 18.693 8.80015 20.8726L10.5216 22.5313C11.3708 23.3495 12.7164 23.3449 13.56 22.5209L15.2275 20.8921C17.4682 18.7034 19.1388 16.0117 20.1082 13.0528C20.5076 12.0525 20.7273 10.961 20.7273 9.81815C20.7273 4.99821 16.8199 1.09088 12 1.09088C7.18004 1.09088 3.27271 4.99821 3.27271 9.81815C3.27271 10.2006 3.2973 10.5772 3.34499 10.9466C3.35117 11.0219 3.36187 11.0975 3.37724 11.173ZM10.0909 9.52359C10.0909 8.46923 10.9456 7.6145 12 7.6145C13.0543 7.6145 13.9091 8.46923 13.9091 9.52359C13.9091 10.5779 13.0543 11.4327 12 11.4327C10.9456 11.4327 10.0909 10.5779 10.0909 9.52359ZM12 5.97813C10.0419 5.97813 8.45452 7.56549 8.45452 9.52359C8.45452 11.4817 10.0419 13.069 12 13.069C13.9581 13.069 15.5454 11.4817 15.5454 9.52359C15.5454 7.56549 13.9581 5.97813 12 5.97813Z" fill="#222222"/>
</svg>
