<svg width="24" height="24" viewBox="0 0 24 24" fill="none" xmlns="http://www.w3.org/2000/svg">
<path fill-rule="evenodd" clip-rule="evenodd" d="M5 2H19C20.1 2 21 2.9 21 4V18C21 19.1 20.1 20 19 20H14L12.4341 22.7403C12.2422 23.0762 11.7578 23.0762 11.5659 22.7403L10 20H5C3.9 20 3 19.1 3 18V4C3 2.9 3.9 2 5 2ZM13.8335 12.9819C13.8635 12.9162 13.9162 12.8635 13.9819 12.8335L17.4019 11.2729C17.6358 11.1662 17.6358 10.8338 17.4019 10.7271L13.9819 9.16649C13.9162 9.13651 13.8635 9.08382 13.8335 9.01811L12.2729 5.59812C12.1662 5.36417 11.8338 5.36417 11.7271 5.59812L10.1665 9.01811C10.1365 9.08382 10.0838 9.13651 10.0181 9.16649L6.59812 10.7271C6.36417 10.8338 6.36417 11.1662 6.59812 11.2729L10.0181 12.8335C10.0838 12.8635 10.1365 12.9162 10.1665 12.9819L11.7271 16.4019C11.8338 16.6358 12.1662 16.6358 12.2729 16.4019L13.8335 12.9819Z" fill="#222222"/>
</svg>
