<svg width="24" height="24" viewBox="0 0 24 24" fill="none" xmlns="http://www.w3.org/2000/svg">
<path fill-rule="evenodd" clip-rule="evenodd" d="M2.30005 3.99999C2.30005 2.51339 3.51345 1.29999 5.00005 1.29999H19C20.4866 1.29999 21.7001 2.51339 21.7001 3.99999V18C21.7001 19.4866 20.4866 20.7 19 20.7H14.4063L13.0419 23.0876C12.5813 23.8938 11.4188 23.8938 10.9582 23.0876L9.59382 20.7H5.00005C3.51345 20.7 2.30005 19.4866 2.30005 18V3.99999ZM5.00005 2.69999C4.28665 2.69999 3.70005 3.28659 3.70005 3.99999V18C3.70005 18.7134 4.28665 19.3 5.00005 19.3H10.4063L12 22.0891L13.5938 19.3H19C19.7135 19.3 20.3 18.7134 20.3 18V3.99999C20.3 3.28659 19.7135 2.69999 19 2.69999H5.00005ZM12 6.68619L10.8034 9.30869C10.7034 9.52773 10.5278 9.70336 10.3087 9.80332L7.68625 11L10.3087 12.1967C10.5278 12.2966 10.7034 12.4722 10.8034 12.6913L12 15.3138L13.1967 12.6913C13.2967 12.4722 13.4723 12.2966 13.6913 12.1967L16.3138 11L13.6913 9.80332C13.4723 9.70336 13.2967 9.52773 13.1967 9.30869L12 6.68619ZM11.0903 5.30751C11.4461 4.52769 12.554 4.52769 12.9098 5.30751L14.4084 8.59164L17.6925 10.0902C18.4723 10.4461 18.4723 11.5539 17.6925 11.9097L14.4084 13.4083L12.9098 16.6925C12.554 17.4723 11.4461 17.4723 11.0903 16.6925L9.5917 13.4083L6.30757 11.9097C5.52775 11.5539 5.52775 10.4461 6.30757 10.0902L9.5917 8.59164L11.0903 5.30751ZM14.2725 8.52965C14.2724 8.52957 14.2727 8.52973 14.2725 8.52965V8.52965Z" fill="#222222"/>
</svg>
