<svg width="24" height="24" viewBox="0 0 24 24" fill="none" xmlns="http://www.w3.org/2000/svg">
<path fill-rule="evenodd" clip-rule="evenodd" d="M22.25 7.5C22.25 5.15279 20.3472 3.25 18 3.25H6C3.65279 3.25 1.75 5.15279 1.75 7.5V16.5C1.75 18.8472 3.65279 20.75 6 20.75H18C20.3472 20.75 22.25 18.8472 22.25 16.5V7.5ZM18 4.75C19.5188 4.75 20.75 5.98122 20.75 7.5V11.25H3.25L3.25 7.5C3.25 5.98122 4.48122 4.75 6 4.75L18 4.75ZM3.25 12.75L3.25 16.5C3.25 18.0188 4.48122 19.25 6 19.25H18C19.5188 19.25 20.75 18.0188 20.75 16.5V12.75H3.25ZM5.75 8.5C5.75 8.08579 6.08579 7.75 6.5 7.75H8.5C8.91421 7.75 9.25 8.08579 9.25 8.5C9.25 8.91421 8.91421 9.25 8.5 9.25H6.5C6.08579 9.25 5.75 8.91421 5.75 8.5ZM6.5 15.25C6.08579 15.25 5.75 15.5858 5.75 16C5.75 16.4142 6.08579 16.75 6.5 16.75H8.5C8.91421 16.75 9.25 16.4142 9.25 16C9.25 15.5858 8.91421 15.25 8.5 15.25H6.5Z" fill="#222222"/>
</svg>
