<svg width="24" height="24" viewBox="0 0 24 24" fill="none" xmlns="http://www.w3.org/2000/svg">
<path fill-rule="evenodd" clip-rule="evenodd" d="M3 6C3 4.34315 4.34315 3 6 3H18C19.6569 3 21 4.34315 21 6V18C21 19.6569 19.6569 21 18 21H6C4.34315 21 3 19.6569 3 18V6ZM12.75 8C12.75 7.58579 12.4142 7.25 12 7.25C11.5858 7.25 11.25 7.58579 11.25 8V16C11.25 16.4142 11.5858 16.75 12 16.75C12.4142 16.75 12.75 16.4142 12.75 16V8ZM8.5 12.25C8.91421 12.25 9.25 12.5858 9.25 13L9.25 16C9.25 16.4142 8.91421 16.75 8.5 16.75C8.08579 16.75 7.75 16.4142 7.75 16L7.75 13C7.75 12.5858 8.08579 12.25 8.5 12.25ZM16.25 11C16.25 10.5858 15.9142 10.25 15.5 10.25C15.0858 10.25 14.75 10.5858 14.75 11V16C14.75 16.4142 15.0858 16.75 15.5 16.75C15.9142 16.75 16.25 16.4142 16.25 16V11Z" fill="#222222"/>
</svg>
