<svg width="24" height="24" viewBox="0 0 24 24" fill="none" xmlns="http://www.w3.org/2000/svg">
<path fill-rule="evenodd" clip-rule="evenodd" d="M5.57173 8.15548C6.78044 5.83475 9.20698 4.25 12 4.25C15.5182 4.25 18.4474 6.75318 19.1047 10.0883L19.1417 10.2762L19.3327 10.2894C21.8042 10.4605 23.75 12.4939 23.75 15C23.75 17.6219 21.6219 19.75 19 19.75H6C2.82807 19.75 0.25 17.1719 0.25 14C0.25 11.0389 2.49249 8.5952 5.37643 8.2886L5.50978 8.27442L5.57173 8.15548ZM12 5.75C9.62619 5.75 7.60111 7.1844 6.71873 9.2327C6.58448 9.54433 6.30279 9.75 6 9.75C3.65193 9.75 1.75 11.6519 1.75 14C1.75 16.3481 3.65193 18.25 6 18.25H19C20.7981 18.25 22.25 16.7981 22.25 15C22.25 13.2019 20.7981 11.75 19 11.75H18C17.8619 11.75 17.75 11.6381 17.75 11.5C17.75 8.32193 15.1781 5.75 12 5.75Z" fill="#222222"/>
</svg>
