<svg width="24" height="24" viewBox="0 0 24 24" fill="none" xmlns="http://www.w3.org/2000/svg">
<path fill-rule="evenodd" clip-rule="evenodd" d="M19.75 6C19.75 5.58579 19.4142 5.25 19 5.25H5C4.58579 5.25 4.25 5.58579 4.25 6C4.25 6.41421 4.58579 6.75 5 6.75H19C19.4142 6.75 19.75 6.41421 19.75 6ZM19.75 17.75C19.75 17.3358 19.4142 17 19 17H5C4.58579 17 4.25 17.3358 4.25 17.75C4.25 18.1642 4.58579 18.5 5 18.5H19C19.4142 18.5 19.75 18.1642 19.75 17.75ZM11.75 12C11.75 11.5858 11.4142 11.25 11 11.25H5C4.58579 11.25 4.25 11.5858 4.25 12C4.25 12.4142 4.58579 12.75 5 12.75H11C11.4142 12.75 11.75 12.4142 11.75 12ZM18.6659 10.874C19.0105 10.6441 19.1036 10.1785 18.8738 9.83388C18.6439 9.48927 18.1783 9.3962 17.8337 9.62602L14.8349 11.6259C14.6263 11.765 14.501 11.9992 14.501 12.2499C14.501 12.5006 14.6262 12.7347 14.8348 12.8739L17.8336 14.8739C18.1782 15.1038 18.6439 15.0108 18.8737 14.6662C19.1036 14.3216 19.0105 13.8559 18.6659 13.626L16.6027 12.2499L18.6659 10.874Z" fill="#222222"/>
</svg>
