<svg width="24" height="24" viewBox="0 0 24 24" fill="none" xmlns="http://www.w3.org/2000/svg">
<circle cx="12" cy="12" r="9.25" stroke="#222222" stroke-width="1.5"/>
<path d="M12 13.4724C11.0166 13.4724 10.1873 13.135 9.51198 12.4604C8.83731 11.785 8.49998 10.9557 8.49998 9.97235C8.49998 8.98902 8.83731 8.15968 9.51198 7.48435C10.1847 6.81231 11.0102 6.47498 11.9885 6.47237C11.9923 6.47236 11.9961 6.47235 12 6.47235C12.9833 6.47235 13.8126 6.80968 14.488 7.48435C15.1626 8.15968 15.5 8.98902 15.5 9.97235C15.5 10.9557 15.1626 11.785 14.488 12.4604C13.8796 13.0681 13.1462 13.4022 12.2879 13.4624" fill="#222222"/>
<path d="M5.5 18C5.5 18 5.79427 17.1842 6 17C6.87935 16.2127 7.68686 15.9241 8.66433 15.5747L8.7 15.562C9.75 15.1873 10.85 15 12 15C13.15 15 14.25 15.1873 15.3 15.562L15.3357 15.5747C16.3131 15.9241 17.1206 16.2127 18 17C18.2057 17.1842 18.5 18 18.5 18C18.5 18 16.5 21 12 21C7.5 21 5.5 18 5.5 18Z" fill="#222222"/>
</svg>
