<svg width="24" height="24" viewBox="0 0 24 24" fill="none" xmlns="http://www.w3.org/2000/svg">
<path d="M14.3143 5.33333C14.3143 3.49238 15.8109 2 17.6571 2C19.5034 2 21 3.49238 21 5.33333C21 7.17428 19.5034 8.66667 17.6571 8.66667C16.6054 8.66667 15.6671 8.18233 15.0543 7.42514L9.44734 10.7614C9.60112 11.1443 9.68571 11.5623 9.68571 12C9.68571 12.434 9.60253 12.8487 9.45118 13.229L15.1319 16.4824C15.7449 15.7785 16.6489 15.3333 17.6571 15.3333C19.5034 15.3333 21 16.8257 21 18.6667C21 20.5076 19.5034 22 17.6571 22C15.8109 22 14.3143 20.5076 14.3143 18.6667C14.3143 18.4857 14.3287 18.3081 14.3566 18.135L8.32788 14.6823C7.77277 15.0914 7.08614 15.3333 6.34286 15.3333C4.49665 15.3333 3 13.841 3 12C3 10.1591 4.49665 8.66667 6.34286 8.66667C7.13247 8.66667 7.85813 8.93965 8.43012 9.39615L14.3573 5.86931C14.329 5.69482 14.3143 5.51579 14.3143 5.33333Z" fill="#222222"/>
</svg>
