<svg width="24" height="24" viewBox="0 0 24 24" fill="none" xmlns="http://www.w3.org/2000/svg">
<path fill-rule="evenodd" clip-rule="evenodd" d="M13 3.0548C17.1748 3.51525 20.4847 6.82524 20.9452 11H22C22.5523 11 23 11.4477 23 12C23 12.5523 22.5523 13 22 13H20.9452C20.4847 17.1748 17.1748 20.4847 13 20.9452V22C13 22.5523 12.5523 23 12 23C11.4477 23 11 22.5523 11 22V20.9452C6.82524 20.4847 3.51525 17.1748 3.0548 13H2C1.44772 13 1 12.5523 1 12C1 11.4477 1.44772 11 2 11H3.0548C3.51525 6.82524 6.82524 3.51525 11 3.0548V2C11 1.44772 11.4477 1 12 1C12.5523 1 13 1.44772 13 2V3.0548ZM4.5 12C4.5 7.85786 7.85786 4.5 12 4.5C16.1421 4.5 19.5 7.85786 19.5 12C19.5 16.1421 16.1421 19.5 12 19.5C7.85786 19.5 4.5 16.1421 4.5 12Z" fill="#222222"/>
</svg>
