<svg width="24" height="24" viewBox="0 0 24 24" fill="none" xmlns="http://www.w3.org/2000/svg">
<path d="M11.1926 5.27806C10.9051 4.95342 10.9439 4.46468 11.2794 4.18641C11.6148 3.90814 12.1199 3.94572 12.4074 4.27036L18.8074 11.4958C19.0642 11.7857 19.0642 12.2136 18.8074 12.5035L12.4074 19.7296C12.1199 20.0543 11.6149 20.0919 11.2794 19.8136C10.9439 19.5354 10.9051 19.0466 11.1926 18.722L17.1463 11.9997L11.1926 5.27806Z" fill="currentColor"/>
<path d="M4.19262 5.27806C3.90508 4.95342 3.94391 4.46468 4.27937 4.18641C4.61482 3.90814 5.11986 3.94572 5.4074 4.27036L11.8074 11.4958C12.0642 11.7857 12.0642 12.2136 11.8074 12.5035L5.40743 19.7296C5.1199 20.0543 4.61486 20.0919 4.2794 19.8136C3.94393 19.5354 3.90507 19.0466 4.1926 18.722L10.1463 11.9997L4.19262 5.27806Z" fill="currentColor"/>
</svg>
