<svg width="24" height="24" viewBox="0 0 24 24" fill="none" xmlns="http://www.w3.org/2000/svg">
<path d="M5.10336 2.4756L5.42661 3.0965L5.10336 2.4756ZM6.18441 2.18326L6.2295 1.4846L6.21675 1.48401L6.18441 2.18326ZM4.05674 3.20044L4.50932 3.73445L4.50932 3.73445L4.05674 3.20044ZM2.70319 4.65864L3.26861 5.07132C3.27997 5.05575 3.29069 5.03972 3.30073 5.02326L2.70319 4.65864ZM2.72682 8.47691L3.37479 8.2121C3.37137 8.20373 3.36779 8.19542 3.36404 8.18719L2.72682 8.47691ZM8.20868 15.8635L7.71534 16.3601H7.71534L8.20868 15.8635ZM15.5223 21.2722L15.8172 20.6373C15.8087 20.6334 15.8001 20.6296 15.7914 20.626L15.5223 21.2722ZM19.3399 21.2973L18.9865 20.6931C18.9684 20.7036 18.9509 20.715 18.9338 20.7271L19.3399 21.2973ZM19.9099 20.8494L19.444 20.3269L19.444 20.3269L19.9099 20.8494ZM20.7451 20.0035L21.2741 20.462H21.2741L20.7451 20.0035ZM21.5006 18.9388L22.1176 19.2694L22.1176 19.2694L21.5006 18.9388ZM21.8171 17.8165L22.5167 17.7919C22.5165 17.7863 22.5162 17.7808 22.5159 17.7752L21.8171 17.8165ZM21.8168 17.8105L22.5156 17.7692C22.5152 17.7637 22.5148 17.7582 22.5144 17.7527L21.8168 17.8105ZM21.2539 16.7451L20.7531 17.2342L20.7533 17.2343L21.2539 16.7451ZM19.4889 15.2773L19.0677 15.8364L19.4889 15.2773ZM18.4766 14.5583L18.0944 15.1447L18.0944 15.1447L18.4766 14.5583ZM18.0771 14.3164L17.7443 14.9322L17.7443 14.9322L18.0771 14.3164ZM17.782 14.1921L17.9255 13.507L17.9248 13.5068L17.782 14.1921ZM16.2295 14.6024L16.5785 15.2092L16.5791 15.2089L16.2295 14.6024ZM16.1556 14.6449L16.5035 15.2523L16.5046 15.2517L16.1556 14.6449ZM14.7216 14.9354L14.3159 15.5058C14.3418 15.5242 14.3689 15.5408 14.397 15.5556L14.7216 14.9354ZM9.0633 9.27943L8.47557 9.65966L9.0633 9.27943ZM9.35386 7.84461L8.74713 7.4955L8.74651 7.49659L9.35386 7.84461ZM9.39671 7.77014L8.79029 7.42049L8.78998 7.42103L9.39671 7.77014ZM9.8077 6.2184L10.4931 6.07625L10.4929 6.07515L9.8077 6.2184ZM9.68333 5.92279L10.2992 5.59005L10.2992 5.59005L9.68333 5.92279ZM9.4414 5.52319L10.0278 5.14097L10.0278 5.14097L9.4414 5.52319ZM8.72238 4.51094L8.16334 4.93221L8.16334 4.93221L8.72238 4.51094ZM7.25449 2.74636L6.76535 3.24709L6.76543 3.24718L7.25449 2.74636ZM6.18906 2.18356L6.24688 1.48584L6.23413 1.48501L6.18906 2.18356ZM5.42661 3.0965C5.73416 2.93638 5.97809 2.87447 6.15208 2.88251L6.21675 1.48401C5.69262 1.45977 5.19175 1.6404 4.78011 1.8547L5.42661 3.0965ZM4.50932 3.73445C4.81108 3.47871 5.12653 3.25272 5.42661 3.0965L4.78011 1.8547C4.35764 2.07465 3.95464 2.36939 3.60416 2.66643L4.50932 3.73445ZM3.30073 5.02326C3.42322 4.82253 3.89843 4.25218 4.50932 3.73445L3.60416 2.66643C2.92322 3.24353 2.33133 3.92419 2.10566 4.29402L3.30073 5.02326ZM3.36404 8.18719C2.72045 6.77164 2.75416 5.77616 3.26861 5.07132L2.13778 4.24596C1.1893 5.54545 1.3543 7.14943 2.08959 8.76664L3.36404 8.18719ZM8.70202 15.3669C6.28922 12.9699 4.22464 10.2916 3.37479 8.2121L2.07884 8.74173C3.03456 11.0803 5.25589 13.9168 7.71534 16.3601L8.70202 15.3669ZM15.7914 20.626C13.7868 19.7913 11.1143 17.7633 8.70202 15.3669L7.71534 16.3601C10.1754 18.804 13.0008 20.9805 15.2532 21.9184L15.7914 20.626ZM18.9338 20.7271C18.2206 21.235 17.2256 21.2916 15.8172 20.6373L15.2274 21.907C16.8748 22.6724 18.4588 22.7841 19.7459 21.8675L18.9338 20.7271ZM19.444 20.3269C19.3305 20.4282 19.2281 20.5136 19.1443 20.5791C19.0554 20.6486 19.0033 20.6833 18.9865 20.6931L19.6932 21.9016C19.8709 21.7977 20.1238 21.5965 20.3757 21.3719L19.444 20.3269ZM20.2161 19.545C19.9543 19.8471 19.6779 20.1184 19.444 20.3269L20.3757 21.3719C20.6474 21.1296 20.9673 20.8159 21.2741 20.462L20.2161 19.545ZM20.8836 18.6081C20.7171 18.9188 20.4795 19.2412 20.2161 19.545L21.2741 20.462C21.5785 20.1108 21.8859 19.7018 22.1176 19.2694L20.8836 18.6081ZM21.1176 17.8412C21.1243 18.0318 21.0539 18.2903 20.8836 18.6081L22.1176 19.2694C22.3437 18.8474 22.5358 18.333 22.5167 17.7919L21.1176 17.8412ZM21.118 17.8519L21.1184 17.8579L22.5159 17.7752L22.5156 17.7692L21.118 17.8519ZM20.7533 17.2343C20.9839 17.4703 21.1041 17.6865 21.1192 17.8683L22.5144 17.7527C22.4593 17.0881 22.0696 16.5783 21.7546 16.2559L20.7533 17.2343ZM19.0677 15.8364C19.7802 16.3731 20.4804 16.9549 20.7531 17.2342L21.7548 16.2561C21.4021 15.895 20.6281 15.2591 19.9101 14.7182L19.0677 15.8364ZM18.0944 15.1447C18.374 15.327 18.7161 15.5715 19.0677 15.8364L19.9101 14.7182C19.5444 14.4427 19.1746 14.1777 18.8588 13.9719L18.0944 15.1447ZM17.7443 14.9322C17.836 14.9818 17.9541 15.0533 18.0944 15.1447L18.8588 13.9719C18.7016 13.8694 18.5483 13.7754 18.41 13.7006L17.7443 14.9322ZM17.6385 14.8772C17.6248 14.8743 17.6184 14.872 17.6208 14.8728C17.6227 14.8735 17.6293 14.8758 17.641 14.8809C17.6653 14.8913 17.6993 14.9079 17.7443 14.9322L18.41 13.7006C18.2939 13.6378 18.1134 13.5463 17.9255 13.507L17.6385 14.8772ZM16.5791 15.2089C17.0489 14.9381 17.3179 14.8105 17.6393 14.8774L17.9248 13.5068C17.0115 13.3166 16.2928 13.758 15.88 13.9959L16.5791 15.2089ZM16.5046 15.2517L16.5785 15.2092L15.8805 13.9956L15.8066 14.0381L16.5046 15.2517ZM14.397 15.5556C14.8859 15.8114 15.3334 15.832 15.752 15.6753C15.9308 15.6084 16.0837 15.5165 16.1979 15.4444C16.3304 15.3608 16.4022 15.3104 16.5035 15.2523L15.8077 14.0375C15.673 14.1147 15.5292 14.2109 15.4506 14.2605C15.3538 14.3216 15.3002 14.3496 15.2612 14.3642C15.2318 14.3752 15.2196 14.3752 15.2089 14.3743C15.1942 14.3732 15.1442 14.3665 15.0462 14.3152L14.397 15.5556ZM8.47557 9.65966C9.97101 11.9712 11.5402 13.532 14.3159 15.5058L15.1272 14.3649C12.4596 12.468 11.0287 11.0288 9.65103 8.8992L8.47557 9.65966ZM8.74651 7.49659C8.6929 7.59014 8.63886 7.6661 8.55293 7.79704C8.47835 7.91068 8.37939 8.06701 8.30716 8.24805C8.23086 8.43927 8.17946 8.66875 8.20556 8.93052C8.23142 9.18995 8.32854 9.43238 8.47557 9.65966L9.65103 8.8992C9.59829 8.81769 9.59803 8.78538 9.59865 8.79163C9.59951 8.80024 9.59501 8.79812 9.60748 8.76685C9.62403 8.72538 9.65571 8.66831 9.7234 8.56516C9.77973 8.47932 9.87958 8.33511 9.96122 8.19263L8.74651 7.49659ZM8.78998 7.42103L8.74713 7.4955L9.9606 8.19371L10.0034 8.11924L8.78998 7.42103ZM9.12228 6.36055C9.18891 6.68184 9.06121 6.95061 8.79029 7.42049L10.0031 8.11978C10.241 7.70715 10.6824 6.98895 10.4931 6.07625L9.12228 6.36055ZM9.06747 6.25553C9.09169 6.30035 9.10827 6.33441 9.11874 6.35877C9.1238 6.37054 9.12618 6.37717 9.12688 6.37922C9.12772 6.38168 9.12537 6.37534 9.12251 6.36164L10.4929 6.07515C10.4536 5.88723 10.3622 5.70661 10.2992 5.59005L9.06747 6.25553ZM8.85496 5.90541C8.94638 6.04568 9.01787 6.16373 9.06747 6.25553L10.2992 5.59005C10.2244 5.4516 10.1303 5.29824 10.0278 5.14097L8.85496 5.90541ZM8.16334 4.93221C8.42822 5.28371 8.67272 5.6258 8.85496 5.90541L10.0278 5.14097C9.82194 4.82506 9.55697 4.45532 9.28142 4.08966L8.16334 4.93221ZM6.76543 3.24718C7.04474 3.51993 7.6266 4.21995 8.16334 4.93221L9.28142 4.08966C8.74044 3.37178 8.10457 2.59808 7.74356 2.24554L6.76543 3.24718ZM6.13124 2.88117C6.31325 2.89625 6.52845 3.01568 6.76535 3.24709L7.74364 2.24562C7.41993 1.92941 6.91118 1.541 6.24687 1.48595L6.13124 2.88117ZM6.13934 2.88181L6.14398 2.88211L6.23413 1.48501L6.22949 1.48471L6.13934 2.88181Z" fill="#222222"/>
</svg>
