<svg width="24" height="24" viewBox="0 0 24 24" fill="none" xmlns="http://www.w3.org/2000/svg">
<path d="M19.5622 18.7735C19.9274 19.1116 20.4772 19.066 20.7903 18.6714C21.1033 18.2769 21.0611 17.683 20.6958 17.3448L12.5672 9.81812C12.241 9.51611 11.7597 9.5161 11.4336 9.81809L3.30418 17.3448C2.93895 17.6829 2.89665 18.2769 3.20968 18.6714C3.52272 19.0659 4.07256 19.1116 4.43778 18.7735L12.0004 11.7716L19.5622 18.7735Z" fill="#222222"/>
<path d="M3 5.81029C3 5.36278 3.34538 5 3.77143 5L20.2286 5C20.6546 5 21 5.36278 21 5.81029C21 6.2578 20.6546 6.62058 20.2286 6.62058L3.77143 6.62058C3.34538 6.62058 3 6.2578 3 5.81029Z" fill="#222222"/>
</svg>
