<svg width="24" height="24" viewBox="0 0 24 24" fill="none" xmlns="http://www.w3.org/2000/svg">
<path d="M18.7735 4.43781C19.1116 4.0726 19.066 3.52276 18.6714 3.20971C18.2769 2.89666 17.683 2.93894 17.3448 3.30415L9.81812 11.4328C9.51611 11.759 9.5161 12.2403 9.81809 12.5664L17.3448 20.6958C17.6829 21.061 18.2769 21.1034 18.6714 20.7903C19.0659 20.4773 19.1116 19.9274 18.7735 19.5622L11.7716 11.9996L18.7735 4.43781Z" fill="#222222"/>
<path d="M5.81029 21C5.36278 21 5 20.6546 5 20.2286V3.77143C5 3.34538 5.36278 3 5.81029 3C6.2578 3 6.62058 3.34538 6.62058 3.77143L6.62058 20.2286C6.62058 20.6546 6.2578 21 5.81029 21Z" fill="#222222"/>
</svg>
