<svg width="24" height="24" viewBox="0 0 24 24" fill="none" xmlns="http://www.w3.org/2000/svg">
<path d="M18.7219 12.8074C19.0466 13.0949 19.5353 13.0561 19.8136 12.7206C20.0919 12.3852 20.0543 11.8801 19.7296 11.5926L12.5042 5.19261C12.2143 4.93581 11.7864 4.9358 11.4965 5.19258L4.27038 11.5926C3.94574 11.8801 3.90813 12.3851 4.18638 12.7206C4.46464 13.0561 4.95339 13.0949 5.27803 12.8074L12.0003 6.85366L18.7219 12.8074Z" fill="#222222"/>
<path d="M18.7219 19.8074C19.0466 20.0949 19.5353 20.0561 19.8136 19.7206C20.0919 19.3852 20.0543 18.8801 19.7296 18.5926L12.5042 12.1926C12.2143 11.9358 11.7864 11.9358 11.4965 12.1926L4.27038 18.5926C3.94574 18.8801 3.90813 19.3851 4.18638 19.7206C4.46464 20.0561 4.95339 20.0949 5.27803 19.8074L12.0003 13.8537L18.7219 19.8074Z" fill="#222222"/>
</svg>
