<svg width="24" height="24" viewBox="0 0 24 24" fill="none" xmlns="http://www.w3.org/2000/svg">
<path d="M5.21667 4.55005V7.45914H4.51355V4.55005H5.21667Z" fill="#222222"/>
<path d="M4.64502 10.5454V13.4545H3.94189V10.5454H4.64502ZM5.78849 10.5454V13.4545H5.08536V10.5454H5.78849Z" fill="#222222"/>
<path d="M4.07324 16.5405V19.4496H3.37012V16.5405H4.07324ZM5.21671 16.5405V19.4496H4.51358V16.5405H5.21671ZM6.36017 16.5405V19.4496H5.65705V16.5405H6.36017Z" fill="#222222"/>
<path fill-rule="evenodd" clip-rule="evenodd" d="M9.36523 6.00459C9.36523 5.59038 9.70102 5.25459 10.1152 5.25459H20.1152C20.5294 5.25459 20.8652 5.59038 20.8652 6.00459C20.8652 6.41881 20.5294 6.75459 20.1152 6.75459H10.1152C9.70102 6.75459 9.36523 6.41881 9.36523 6.00459Z" fill="#222222"/>
<path fill-rule="evenodd" clip-rule="evenodd" d="M9.36523 12.0046C9.36523 11.5904 9.70102 11.2546 10.1152 11.2546H20.1152C20.5294 11.2546 20.8652 11.5904 20.8652 12.0046C20.8652 12.4188 20.5294 12.7546 20.1152 12.7546H10.1152C9.70102 12.7546 9.36523 12.4188 9.36523 12.0046Z" fill="#222222"/>
<path fill-rule="evenodd" clip-rule="evenodd" d="M9.36523 18.0046C9.36523 17.5904 9.70102 17.2546 10.1152 17.2546H20.1152C20.5294 17.2546 20.8652 17.5904 20.8652 18.0046C20.8652 18.4188 20.5294 18.7546 20.1152 18.7546H10.1152C9.70102 18.7546 9.36523 18.4188 9.36523 18.0046Z" fill="#222222"/>
</svg>
