<svg width="24" height="24" viewBox="0 0 24 24" fill="none" xmlns="http://www.w3.org/2000/svg">
<path d="M4.46733 7.12216C4.32812 7.12216 4.20455 7.09896 4.09659 7.05256C3.98958 7.00521 3.90483 6.93419 3.84233 6.83949C3.78078 6.74384 3.75 6.62405 3.75 6.48011C3.75 6.3589 3.77131 6.25663 3.81392 6.1733C3.85653 6.08996 3.91525 6.02225 3.99006 5.97017C4.06487 5.91809 4.15104 5.87879 4.24858 5.85227C4.34612 5.82481 4.45028 5.80634 4.56108 5.79687C4.68513 5.78551 4.78504 5.77367 4.8608 5.76136C4.93655 5.74811 4.99148 5.72964 5.02557 5.70597C5.06061 5.68134 5.07812 5.64678 5.07812 5.60227V5.59517C5.07812 5.52225 5.05303 5.46591 5.00284 5.42614C4.95265 5.38636 4.88494 5.36648 4.79972 5.36648C4.70786 5.36648 4.634 5.38636 4.57812 5.42614C4.52225 5.46591 4.48674 5.52083 4.47159 5.59091L3.83097 5.56818C3.84991 5.43561 3.89867 5.31723 3.97727 5.21307C4.05682 5.10795 4.16572 5.02557 4.30398 4.96591C4.44318 4.9053 4.61032 4.875 4.8054 4.875C4.9446 4.875 5.07292 4.89157 5.19034 4.92472C5.30777 4.95691 5.41004 5.00426 5.49716 5.06676C5.58428 5.12831 5.65152 5.20407 5.69886 5.29403C5.74716 5.384 5.77131 5.48674 5.77131 5.60227V7.08523H5.1179V6.78125H5.10085C5.06203 6.85511 5.01231 6.91761 4.9517 6.96875C4.89205 7.01989 4.8215 7.05824 4.74006 7.08381C4.65956 7.10938 4.56866 7.12216 4.46733 7.12216ZM4.68182 6.66761C4.75663 6.66761 4.82386 6.65246 4.88352 6.62216C4.94413 6.59186 4.99242 6.55019 5.02841 6.49716C5.06439 6.44318 5.08239 6.38068 5.08239 6.30966V6.10227C5.0625 6.11269 5.03835 6.12216 5.00994 6.13068C4.98248 6.1392 4.95218 6.14725 4.91903 6.15483C4.88589 6.16241 4.8518 6.16903 4.81676 6.17472C4.78172 6.1804 4.74811 6.18561 4.71591 6.19034C4.65057 6.20076 4.5947 6.21686 4.5483 6.23864C4.50284 6.26042 4.4678 6.28883 4.44318 6.32386C4.41951 6.35795 4.40767 6.39867 4.40767 6.44602C4.40767 6.51799 4.43324 6.57292 4.48438 6.6108C4.53646 6.64867 4.60227 6.66761 4.68182 6.66761Z" fill="#222222"/>
<path d="M3.85229 13.1576V10.2485H4.5469V11.3494H4.5611C4.58951 11.2831 4.62976 11.2192 4.68184 11.1576C4.73487 11.0961 4.80211 11.0459 4.88354 11.0071C4.96593 10.9673 5.06442 10.9474 5.179 10.9474C5.33051 10.9474 5.47209 10.9872 5.60372 11.0667C5.73629 11.1463 5.8433 11.2689 5.92474 11.4346C6.00618 11.6003 6.0469 11.8115 6.0469 12.0681C6.0469 12.3153 6.0076 12.5222 5.929 12.6889C5.85135 12.8555 5.74623 12.9805 5.61366 13.0639C5.48203 13.1472 5.33572 13.1889 5.17474 13.1889C5.06489 13.1889 4.96972 13.1709 4.88923 13.1349C4.80873 13.0989 4.74103 13.0516 4.6861 12.9929C4.63212 12.9341 4.59046 12.8712 4.5611 12.8039H4.53979V13.1576H3.85229ZM4.53269 12.0667C4.53269 12.1841 4.54832 12.2864 4.57957 12.3735C4.61176 12.4607 4.65769 12.5284 4.71735 12.5767C4.77796 12.624 4.8504 12.6477 4.93468 12.6477C5.01991 12.6477 5.09235 12.624 5.15201 12.5767C5.21167 12.5284 5.25665 12.4607 5.28695 12.3735C5.3182 12.2864 5.33383 12.1841 5.33383 12.0667C5.33383 11.9493 5.3182 11.8475 5.28695 11.7613C5.25665 11.6751 5.21167 11.6084 5.15201 11.561C5.0933 11.5137 5.02086 11.49 4.93468 11.49C4.84945 11.49 4.77701 11.5132 4.71735 11.5596C4.65769 11.606 4.61176 11.6723 4.57957 11.7585C4.54832 11.8447 4.53269 11.9474 4.53269 12.0667Z" fill="#222222"/>
<path d="M4.87083 19.1242C4.64071 19.1242 4.44327 19.0769 4.2785 18.9822C4.11467 18.8875 3.98873 18.7559 3.90066 18.5873C3.81259 18.4178 3.76855 18.2218 3.76855 17.9992C3.76855 17.7757 3.81259 17.5797 3.90066 17.4112C3.98967 17.2416 4.11609 17.1095 4.27992 17.0148C4.44469 16.9202 4.64119 16.8728 4.86941 16.8728C5.07111 16.8728 5.24677 16.9093 5.3964 16.9822C5.54696 17.0551 5.66439 17.1583 5.74867 17.2918C5.8339 17.4244 5.87888 17.5802 5.88361 17.7592H5.23446C5.22121 17.6474 5.18333 17.5598 5.12083 17.4964C5.05927 17.4329 4.97878 17.4012 4.87935 17.4012C4.79886 17.4012 4.72831 17.4239 4.6677 17.4694C4.6071 17.5139 4.55975 17.5802 4.52566 17.6683C4.49251 17.7554 4.47594 17.8633 4.47594 17.9921C4.47594 18.1209 4.49251 18.2298 4.52566 18.3188C4.55975 18.4069 4.6071 18.4737 4.6677 18.5191C4.72831 18.5636 4.79886 18.5859 4.87935 18.5859C4.94374 18.5859 5.00056 18.5721 5.0498 18.5447C5.09999 18.5172 5.14119 18.477 5.17338 18.4239C5.20558 18.37 5.22594 18.3046 5.23446 18.2279H5.88361C5.87698 18.4078 5.832 18.565 5.74867 18.6995C5.66628 18.834 5.55028 18.9386 5.40066 19.0134C5.25198 19.0873 5.07537 19.1242 4.87083 19.1242Z" fill="#222222"/>
<path fill-rule="evenodd" clip-rule="evenodd" d="M8.75 5.99854C8.75 5.58432 9.08579 5.24854 9.5 5.24854H19.5C19.9142 5.24854 20.25 5.58432 20.25 5.99854C20.25 6.41275 19.9142 6.74854 19.5 6.74854H9.5C9.08579 6.74854 8.75 6.41275 8.75 5.99854Z" fill="#222222"/>
<path fill-rule="evenodd" clip-rule="evenodd" d="M8.75 11.9985C8.75 11.5843 9.08579 11.2485 9.5 11.2485H19.5C19.9142 11.2485 20.25 11.5843 20.25 11.9985C20.25 12.4127 19.9142 12.7485 19.5 12.7485H9.5C9.08579 12.7485 8.75 12.4127 8.75 11.9985Z" fill="#222222"/>
<path fill-rule="evenodd" clip-rule="evenodd" d="M8.75 17.9985C8.75 17.5843 9.08579 17.2485 9.5 17.2485H19.5C19.9142 17.2485 20.25 17.5843 20.25 17.9985C20.25 18.4127 19.9142 18.7485 19.5 18.7485H9.5C9.08579 18.7485 8.75 18.4127 8.75 17.9985Z" fill="#222222"/>
</svg>
