<svg width="24" height="24" viewBox="0 0 24 24" fill="none" xmlns="http://www.w3.org/2000/svg">
<path fill-rule="evenodd" clip-rule="evenodd" d="M16.7829 4.95767L17.238 6.75H19.1429C20.7209 6.75 22 7.86929 22 9.25V17.5C22 18.8807 20.7209 20 19.1429 20H4.85714C3.27912 20 2 18.8807 2 17.5V9.25C2 7.86929 3.27912 6.75 4.85714 6.75H6.76196L7.21711 4.95767C7.50764 3.81383 8.66713 3 10.0062 3H13.9938C15.3329 3 16.4924 3.81383 16.7829 4.95767ZM8.67095 5.32694L7.92866 8.25H4.85714C3.91316 8.25 3.5 8.87958 3.5 9.25V17.5C3.5 17.8704 3.91316 18.5 4.85714 18.5H19.1429C20.0868 18.5 20.5 17.8704 20.5 17.5V9.25C20.5 8.87958 20.0868 8.25 19.1429 8.25H16.0713L15.329 5.32687C15.237 4.9647 14.7747 4.5 13.9938 4.5H10.0062C9.22527 4.5 8.76298 4.96477 8.67095 5.32694ZM9.25 13C9.25 11.4812 10.4812 10.25 12 10.25C13.5188 10.25 14.75 11.4812 14.75 13C14.75 14.5188 13.5188 15.75 12 15.75C10.4812 15.75 9.25 14.5188 9.25 13ZM12 8.75C9.65279 8.75 7.75 10.6528 7.75 13C7.75 15.3472 9.65279 17.25 12 17.25C14.3472 17.25 16.25 15.3472 16.25 13C16.25 10.6528 14.3472 8.75 12 8.75Z" fill="#222222"/>
</svg>
