<svg width="24" height="24" viewBox="0 0 24 24" fill="none" xmlns="http://www.w3.org/2000/svg">
<path fill-rule="evenodd" clip-rule="evenodd" d="M16.7829 4.95767L17.238 6.75H19.1429C20.7209 6.75 22 7.86929 22 9.25V17.5C22 18.8807 20.7209 20 19.1429 20H4.85714C3.27912 20 2 18.8807 2 17.5V9.25C2 7.86929 3.27912 6.75 4.85714 6.75H6.76196L7.21711 4.95767C7.50764 3.81383 8.66713 3 10.0062 3H13.9938C15.3329 3 16.4924 3.81383 16.7829 4.95767ZM8.67095 5.32694L7.92866 8.25H4.85714C3.91316 8.25 3.5 8.87958 3.5 9.25V17.5C3.5 17.8704 3.91316 18.5 4.85714 18.5H19.1429C20.0868 18.5 20.5 17.8704 20.5 17.5V9.25C20.5 8.87958 20.0868 8.25 19.1429 8.25H16.0713L15.329 5.32687C15.237 4.9647 14.7747 4.5 13.9938 4.5H10.0062C9.22527 4.5 8.76298 4.96477 8.67095 5.32694ZM15.7798 12.8433C15.793 12.724 15.7998 12.6031 15.7998 12.4809C15.7998 10.5059 14.0771 9.0105 12.0889 9.0105C11.9369 9.0105 11.7868 9.01907 11.639 9.03579C11.5669 9.04395 11.4953 9.05406 11.4244 9.06606C11.016 9.13515 10.7409 9.52224 10.81 9.93065C10.8791 10.3391 11.2662 10.6141 11.6746 10.545C11.7185 10.5376 11.7629 10.5314 11.8077 10.5263C11.8995 10.5159 11.9934 10.5105 12.0889 10.5105C13.3708 10.5105 14.2998 11.4514 14.2998 12.4809C14.2998 12.5476 14.2961 12.6132 14.2889 12.6777C14.2813 12.7469 14.2832 12.815 14.2938 12.8806H13.4391C13.1925 12.8806 13.0389 13.1086 13.1631 13.2902L14.8432 15.7455C14.9665 15.9257 15.2718 15.9257 15.3951 15.7455L17.0751 13.2902C17.1994 13.1086 17.0458 12.8806 16.7992 12.8806H15.7747C15.7767 12.8683 15.7784 12.8559 15.7798 12.8433ZM10.5492 12.8806H9.6621C9.63395 13.0059 9.61914 13.1357 9.61914 13.2691C9.61914 14.2986 10.5481 15.2396 11.83 15.2396C12.0705 15.2396 12.3004 15.2054 12.5148 15.1431C12.9126 15.0274 13.3288 15.2561 13.4444 15.6538C13.5601 16.0516 13.3314 16.4678 12.9337 16.5834C12.5838 16.6852 12.2129 16.7396 11.83 16.7396C9.84184 16.7396 8.11914 15.2441 8.11914 13.2691C8.11914 13.1379 8.12695 13.0083 8.14218 12.8806H7.18909C6.94253 12.8806 6.78891 12.6526 6.91314 12.471L8.59319 10.0157C8.71647 9.83558 9.02181 9.83558 9.14509 10.0157L10.8251 12.471C10.9494 12.6526 10.7958 12.8806 10.5492 12.8806Z" fill="#222222"/>
</svg>
