<svg width="24" height="24" viewBox="0 0 24 24" fill="none" xmlns="http://www.w3.org/2000/svg">
<path d="M6 12C6 12.4142 6.33579 12.75 6.75 12.75H8.25C8.66421 12.75 9 12.4142 9 12C9 11.5858 8.66421 11.25 8.25 11.25H6.75C6.33579 11.25 6 11.5858 6 12Z" fill="#222222"/>
<path d="M11.25 17.25C11.25 17.6642 11.5858 18 12 18C12.4142 18 12.75 17.6642 12.75 17.25V15.75C12.75 15.3358 12.4142 15 12 15C11.5858 15 11.25 15.3358 11.25 15.75V17.25Z" fill="#222222"/>
<path d="M3 20.25C3 20.6642 3.33579 21 3.75 21C4.16421 21 4.5 20.6642 4.5 20.25V17.75C4.5 17.3358 4.16421 17 3.75 17C3.33579 17 3 17.3358 3 17.75V20.25Z" fill="#222222"/>
<path d="M3 13.25C3 13.6642 3.33579 14 3.75 14C4.16421 14 4.5 13.6642 4.5 13.25V10.75C4.5 10.3358 4.16421 10 3.75 10C3.33579 10 3 10.3358 3 10.75V13.25Z" fill="#222222"/>
<path d="M3 6.25C3 6.66421 3.33579 7 3.75 7C4.16421 7 4.5 6.66421 4.5 6.25V3.75C4.5 3.33579 4.16421 3 3.75 3C3.33579 3 3 3.33579 3 3.75V6.25Z" fill="#222222"/>
<path d="M10.5 12C10.5 12.4142 10.8358 12.75 11.25 12.75H12.75C13.1642 12.75 13.5 12.4142 13.5 12C13.5 11.5858 13.1642 11.25 12.75 11.25H11.25C10.8358 11.25 10.5 11.5858 10.5 12Z" fill="#222222"/>
<path d="M11.25 8.25C11.25 8.66421 11.5858 9 12 9C12.4142 9 12.75 8.66421 12.75 8.25V6.75C12.75 6.33579 12.4142 6 12 6C11.5858 6 11.25 6.33579 11.25 6.75V8.25Z" fill="#222222"/>
<path d="M15 12C15 12.4142 15.3358 12.75 15.75 12.75H17.25C17.6642 12.75 18 12.4142 18 12C18 11.5858 17.6642 11.25 17.25 11.25H15.75C15.3358 11.25 15 11.5858 15 12Z" fill="#222222"/>
<path d="M19.5 20.25C19.5 20.6642 19.8358 21 20.25 21C20.6642 21 21 20.6642 21 20.25V17.75C21 17.3358 20.6642 17 20.25 17C19.8358 17 19.5 17.3358 19.5 17.75V20.25Z" fill="#222222"/>
<path d="M19.5 13.25C19.5 13.6642 19.8358 14 20.25 14C20.6642 14 21 13.6642 21 13.25V10.75C21 10.3358 20.6642 10 20.25 10C19.8358 10 19.5 10.3358 19.5 10.75V13.25Z" fill="#222222"/>
<path d="M19.5 6.25C19.5 6.66421 19.8358 7 20.25 7C20.6642 7 21 6.66421 21 6.25V3.75C21 3.33579 20.6642 3 20.25 3C19.8358 3 19.5 3.33579 19.5 3.75V6.25Z" fill="#222222"/>
<path d="M12 10.5C11.5858 10.5 11.25 10.8358 11.25 11.25L11.25 12.75C11.25 13.1642 11.5858 13.5 12 13.5C12.4142 13.5 12.75 13.1642 12.75 12.75L12.75 11.25C12.75 10.8358 12.4142 10.5 12 10.5Z" fill="#222222"/>
<path d="M19.81 4.37988C20.1911 4.37988 20.5 4.07096 20.5 3.68988C20.5 3.30881 20.1911 2.99988 19.81 2.99988L17.19 2.99988C16.8089 2.99988 16.5 3.30881 16.5 3.68988C16.5 4.07096 16.8089 4.37988 17.19 4.37988L19.81 4.37988Z" fill="#222222"/>
<path d="M13.31 4.37988C13.6911 4.37988 14 4.07096 14 3.68988C14 3.30881 13.6911 2.99988 13.31 2.99988L10.69 2.99988C10.3089 2.99988 10 3.30881 10 3.68988C10 4.07096 10.3089 4.37988 10.69 4.37988L13.31 4.37988Z" fill="#222222"/>
<path d="M6.31 4.37988C6.69108 4.37988 7 4.07096 7 3.68988C7 3.30881 6.69108 2.99988 6.31 2.99988L3.69 2.99988C3.30892 2.99988 3 3.30881 3 3.68988C3 4.07096 3.30892 4.37988 3.69 4.37988L6.31 4.37988Z" fill="#222222"/>
<path d="M19.81 21C20.1911 21 20.5 20.6911 20.5 20.31C20.5 19.9289 20.1911 19.62 19.81 19.62L17.19 19.62C16.8089 19.62 16.5 19.9289 16.5 20.31C16.5 20.6911 16.8089 21 17.19 21L19.81 21Z" fill="#222222"/>
<path d="M13.31 21C13.6911 21 14 20.6911 14 20.31C14 19.9289 13.6911 19.62 13.31 19.62L10.69 19.62C10.3089 19.62 10 19.9289 10 20.31C10 20.6911 10.3089 21 10.69 21L13.31 21Z" fill="#222222"/>
<path d="M6.31 21C6.69108 21 7 20.6911 7 20.31C7 19.9289 6.69108 19.62 6.31 19.62L3.69 19.62C3.30892 19.62 3 19.9289 3 20.31C3 20.6911 3.30892 21 3.69 21L6.31 21Z" fill="#222222"/>
</svg>
