<svg width="24" height="24" viewBox="0 0 24 24" fill="none" xmlns="http://www.w3.org/2000/svg">
<path fill-rule="evenodd" clip-rule="evenodd" d="M19.3664 14.6338L21.293 12.7072C21.6835 12.3167 21.6835 11.6835 21.293 11.293L19.3664 9.36637C19.1788 9.17884 19.0735 8.92448 19.0735 8.65927V5.92671C19.0735 5.37442 18.6258 4.92671 18.0735 4.92671H15.3409C15.0757 4.92671 14.8213 4.82135 14.6338 4.63381L12.7072 2.7072C12.3167 2.31668 11.6835 2.31668 11.293 2.7072L9.36637 4.63381C9.17884 4.82135 8.92448 4.92671 8.65927 4.92671H5.92671C5.37442 4.92671 4.92671 5.37442 4.92671 5.92671V8.65927C4.92671 8.92448 4.82135 9.17884 4.63381 9.36637L2.7072 11.293C2.31668 11.6835 2.31668 12.3167 2.7072 12.7072L4.63381 14.6338C4.82135 14.8213 4.92671 15.0757 4.92671 15.3409V18.0735C4.92671 18.6258 5.37442 19.0735 5.92671 19.0735H8.65927C8.92448 19.0735 9.17884 19.1788 9.36637 19.3664L11.293 21.293C11.6835 21.6835 12.3167 21.6835 12.7072 21.293L14.6338 19.3664C14.8213 19.1788 15.0757 19.0735 15.3409 19.0735H18.0735C18.6258 19.0735 19.0735 18.6258 19.0735 18.0735V15.3409C19.0735 15.0757 19.1788 14.8213 19.3664 14.6338ZM7.00009 12.0001C7.00009 14.7584 9.24176 17.0001 12.0001 17.0001C14.7584 17.0001 17.0001 14.7584 17.0001 12.0001C17.0001 9.24176 14.7584 7.00009 12.0001 7.00009C9.24176 7.00009 7.00009 9.24176 7.00009 12.0001Z" fill="#222222"/>
</svg>
