<svg width="24" height="24" viewBox="0 0 24 24" fill="none" xmlns="http://www.w3.org/2000/svg">
<path fill-rule="evenodd" clip-rule="evenodd" d="M9 4C9 4.55228 8.55228 5 8 5H5V8C5 8.55228 4.55228 9 4 9C3.44772 9 3 8.55228 3 8V5C3 3.9 3.9 3 5 3H8C8.55228 3 9 3.44772 9 4ZM3 16C3 15.4477 3.44772 15 4 15C4.55228 15 5 15.4477 5 16V19H8C8.55228 19 9 19.4477 9 20C9 20.5523 8.55228 21 8 21H5C3.9 21 3 20.1 3 19V16ZM19 3H16C15.4477 3 15 3.44772 15 4C15 4.55228 15.4477 5 16 5H19V8C19 8.55228 19.4477 9 20 9C20.5523 9 21 8.55228 21 8V5C21 3.9 20.1 3 19 3ZM15 20C15 19.4477 15.4477 19 16 19H19V16C19 15.4477 19.4477 15 20 15C20.5523 15 21 15.4477 21 16V19C21 20.1 20.1 21 19 21H16C15.4477 21 15 20.5523 15 20Z" fill="#222222"/>
<path d="M12 9C10.34 9 9 10.34 9 12C9 13.66 10.34 15 12 15C13.66 15 15 13.66 15 12C15 10.34 13.66 9 12 9Z" fill="#222222"/>
</svg>
