<svg width="24" height="24" viewBox="0 0 24 24" fill="none" xmlns="http://www.w3.org/2000/svg">
<path fill-rule="evenodd" clip-rule="evenodd" d="M13.3472 5.26446C13.7533 5.3457 14.0168 5.74082 13.9355 6.14699L11.5355 18.1472C11.4542 18.5534 11.0591 18.8168 10.653 18.7355C10.2468 18.6543 9.98337 18.2592 10.0646 17.853L12.4647 5.85281C12.5459 5.44664 12.941 5.18323 13.3472 5.26446ZM16.2697 7.86971C16.5626 7.57682 17.0375 7.57682 17.3304 7.86971L20.9304 11.4698C21.0724 11.6117 21.1515 11.8047 21.1501 12.0054C21.1487 12.2062 21.0668 12.398 20.9229 12.5379L17.3228 16.0372C17.0258 16.3259 16.551 16.3191 16.2622 16.0221C15.9735 15.7251 15.9803 15.2503 16.2773 14.9616L19.3319 11.9925L16.2697 8.93037C15.9768 8.63748 15.9768 8.1626 16.2697 7.86971ZM7.73397 7.92382C8.02479 8.21877 8.02145 8.69363 7.72649 8.98445L4.66807 12.0001L7.72649 15.0157C8.02145 15.3065 8.02479 15.7814 7.73397 16.0763C7.44315 16.3713 6.96829 16.3746 6.67334 16.0838L3.07327 12.5341C2.93033 12.3932 2.84985 12.2008 2.84985 12.0001C2.84985 11.7993 2.93033 11.6069 3.07327 11.466L6.67334 7.91634C6.96829 7.62552 7.44315 7.62887 7.73397 7.92382Z" fill="#222222"/>
</svg>
