<svg width="24" height="24" viewBox="0 0 24 24" fill="none" xmlns="http://www.w3.org/2000/svg">
<path fill-rule="evenodd" clip-rule="evenodd" d="M5.50569 4.1138V2.73942C5.50569 2.33105 5.16991 2 4.75569 2C4.34148 2 4.00569 2.33105 4.00569 2.73942V4.1138L2.75 4.1138C2.33579 4.1138 2 4.44485 2 4.85322C2 5.26159 2.33579 5.59264 2.75 5.59264L4.00569 5.59264V6.86401C4.00079 6.93318 3.99829 7.00301 3.99829 7.07341V12.0029V16.9324C3.99829 18.5658 5.34144 19.89 6.99829 19.89H11.9983H16.9983C17.0501 19.89 17.1016 19.8888 17.1527 19.8862H18.4952V21.2606C18.4952 21.6689 18.8309 22 19.2452 22C19.6594 22 19.9952 21.6689 19.9952 21.2606V19.8862H21.2509C21.6651 19.8862 22.0009 19.5551 22.0009 19.1468C22.0009 18.7384 21.6651 18.4074 21.2509 18.4074H19.9952V17.0687C19.9972 17.0235 19.9983 16.9781 19.9983 16.9324V12.0029V7.07341C19.9983 5.43993 18.6551 4.11573 16.9983 4.11573H11.9983H7.74796V4.1138L5.50569 4.1138ZM18.4983 16.3276V12.0029V7.07341C18.4983 6.25667 17.8267 5.59457 16.9983 5.59457H11.9983H6.99829C6.22048 5.59457 5.58093 6.17824 5.50569 6.92557V7.67239H5.49829V12.0029V12.8064L7.95947 11.156C9.13371 10.3686 10.723 10.5921 11.6269 11.6719L17.0499 18.1494C17.1137 18.2256 17.1595 18.3107 17.1876 18.3995C17.8949 18.3117 18.4489 17.7383 18.4952 17.0287V16.3276H18.4983ZM15.3242 18.4112L10.4701 12.6133C10.0592 12.1225 9.33682 12.0209 8.80308 12.3788L5.49829 14.5949V16.9324C5.49829 17.7491 6.16986 18.4112 6.99829 18.4112H11.9983H15.3242ZM15.2473 8.05834C14.557 8.05834 13.9973 8.6101 13.9973 9.29071C13.9973 9.97133 14.557 10.5231 15.2473 10.5231C15.9377 10.5231 16.4973 9.97133 16.4973 9.29071C16.4973 8.6101 15.9377 8.05834 15.2473 8.05834ZM12.4973 9.29071C12.4973 7.79335 13.7285 6.5795 15.2473 6.5795C16.7661 6.5795 17.9973 7.79335 17.9973 9.29071C17.9973 10.7881 16.7661 12.0019 15.2473 12.0019C13.7285 12.0019 12.4973 10.7881 12.4973 9.29071Z" fill="#222222"/>
</svg>
