<svg width="24" height="24" viewBox="0 0 24 24" fill="none" xmlns="http://www.w3.org/2000/svg">
<path fill-rule="evenodd" clip-rule="evenodd" d="M5 18.4H3C2.66863 18.4 2.4 18.6686 2.4 19V21C2.4 21.3314 2.66863 21.6 3 21.6H5C5.33137 21.6 5.6 21.3314 5.6 21V19C5.6 18.6686 5.33137 18.4 5 18.4ZM3 17C1.89543 17 1 17.8954 1 19V21C1 22.1046 1.89543 23 3 23H5C6.10457 23 7 22.1046 7 21V19C7 17.8954 6.10457 17 5 17H3Z" fill="#222222"/>
<path fill-rule="evenodd" clip-rule="evenodd" d="M21 2.4H19C18.6686 2.4 18.4 2.66863 18.4 3V5C18.4 5.33137 18.6686 5.6 19 5.6H21C21.3314 5.6 21.6 5.33137 21.6 5V3C21.6 2.66863 21.3314 2.4 21 2.4ZM19 1C17.8954 1 17 1.89543 17 3V5C17 6.10457 17.8954 7 19 7H21C22.1046 7 23 6.10457 23 5V3C23 1.89543 22.1046 1 21 1H19Z" fill="#222222"/>
<path fill-rule="evenodd" clip-rule="evenodd" d="M21 18.4H19C18.6686 18.4 18.4 18.6686 18.4 19V21C18.4 21.3314 18.6686 21.6 19 21.6H21C21.3314 21.6 21.6 21.3314 21.6 21V19C21.6 18.6686 21.3314 18.4 21 18.4ZM19 17C17.8954 17 17 17.8954 17 19V21C17 22.1046 17.8954 23 19 23H21C22.1046 23 23 22.1046 23 21V19C23 17.8954 22.1046 17 21 17H19Z" fill="#222222"/>
<path fill-rule="evenodd" clip-rule="evenodd" d="M10.2396 14H13.7296L14.286 15.5037C14.3964 15.802 14.6808 16 14.9989 16C15.5306 16 15.898 15.4679 15.7096 14.9706L12.9343 7.64569C12.787 7.25705 12.4148 7 11.9992 7H11.9808C11.5649 7 11.1924 7.25749 11.0454 7.6466L8.27556 14.9785C8.08904 15.4722 8.45387 16 8.98165 16C9.29871 16 9.58197 15.8018 9.69069 15.504L10.2396 14ZM13.2999 12.74H10.6899L11.9999 8.91L13.2999 12.74Z" fill="#222222"/>
<path fill-rule="evenodd" clip-rule="evenodd" d="M5 2.4H3C2.66863 2.4 2.4 2.66863 2.4 3V5C2.4 5.33137 2.66863 5.6 3 5.6H5C5.33137 5.6 5.6 5.33137 5.6 5V3C5.6 2.66863 5.33137 2.4 5 2.4ZM3 1C1.89543 1 1 1.89543 1 3V5C1 6.10457 1.89543 7 3 7H5C6.10457 7 7 6.10457 7 5V3C7 1.89543 6.10457 1 5 1H3Z" fill="#222222"/>
<path d="M6 3H18V4.5H6V3Z" fill="#222222"/>
<path d="M6 19H18V20.5H6V19Z" fill="#222222"/>
<path d="M4.5 6L4.5 18L3 18L3 6L4.5 6Z" fill="#222222"/>
<path d="M20.5 6L20.5 18L19 18L19 6L19.75 6L20.5 6Z" fill="#222222"/>
</svg>
