<svg width="24" height="24" viewBox="0 0 24 24" fill="none" xmlns="http://www.w3.org/2000/svg">
<path fill-rule="evenodd" clip-rule="evenodd" d="M18 4.5L15.75 4.5V8.25L19.5 8.25V6C19.5 5.17157 18.8284 4.5 18 4.5ZM9.75 4.5L14.25 4.5V8.25H9.75L9.75 4.5ZM8.25 4.5L6 4.5C5.17157 4.5 4.5 5.17157 4.5 6V8.25H8.25L8.25 4.5ZM8.25 9.75H4.5V14.25H8.25L8.25 9.75ZM8.25 15.75H4.5V18C4.5 18.8284 5.17157 19.5 6 19.5H8.25L8.25 15.75ZM9.75 19.5L9.75 15.75H14.25V19.5H9.75ZM9.75 14.25L9.75 9.75H14.25L14.25 14.25H9.75ZM15.75 15.75V19.5H18C18.8284 19.5 19.5 18.8284 19.5 18V15.75H15.75ZM15.75 9.75L15.75 14.25H19.5V9.75L15.75 9.75ZM6 3C4.34315 3 3 4.34315 3 6V18C3 19.6569 4.34315 21 6 21H18C19.6569 21 21 19.6569 21 18V6C21 4.34315 19.6569 3 18 3H6Z" fill="#222222"/>
</svg>
