<svg width="24" height="24" viewBox="0 0 24 24" fill="none" xmlns="http://www.w3.org/2000/svg">
<path d="M2.70711 1.83586C2.31658 1.44534 1.68342 1.44534 1.29289 1.83586C0.902369 2.22639 0.902369 2.85955 1.29289 3.25008L19.2929 21.2501C19.6834 21.6406 20.3166 21.6406 20.7071 21.2501C21.0976 20.8596 21.0976 20.2264 20.7071 19.8359L2.70711 1.83586Z" fill="#222222"/>
<path d="M4.00644 3.17073L2.76985 4.2057C2.34521 4.56111 2.2902 5.19392 2.64714 5.61727C3.00253 6.03878 3.63201 6.09316 4.05443 5.73885L5.42497 4.58926L4.00644 3.17073Z" fill="#222222"/>
<path d="M7.11654 3.17041C7.02976 3.2432 6.90174 3.2376 6.82165 3.15751L5.81223 2.1481C5.66926 2.00512 5.67966 1.77032 5.83471 1.64055C6.25743 1.28676 6.88692 1.34269 7.24063 1.76548C7.59396 2.18782 7.53843 2.81654 7.11654 3.17041Z" fill="#222222"/>
<path d="M6.62027 5.78455C4.42292 7.4257 3.00015 10.0469 3.00015 12.9999C3.00015 17.9699 7.03018 21.9999 12.0002 21.9999C14.9537 21.9999 17.5747 20.5772 19.2157 18.38L17.8869 17.0512C16.5981 18.9202 14.4423 20.1454 12.0002 20.1454C8.05442 20.1454 4.8547 16.9456 4.8547 12.9999C4.8547 10.5582 6.07997 8.40225 7.94906 7.11335L6.62027 5.78455Z" fill="#222222"/>
<path d="M9.8484 6.18426L8.40919 4.74505C9.50928 4.26574 10.7237 3.99991 12.0002 3.99991C16.9711 3.99991 21.0001 8.02997 21.0001 12.9999C21.0001 14.2764 20.7344 15.4909 20.2551 16.591L18.8159 15.1517C19.0301 14.4726 19.1456 13.7497 19.1456 12.9999C19.1456 9.05408 15.9467 5.85446 12.0002 5.85446C11.2504 5.85446 10.5275 5.97001 9.8484 6.18426Z" fill="#222222"/>
<path d="M21.354 5.62671C21.7108 5.20351 21.6562 4.57102 21.2322 4.2152L18.1652 1.64161C17.7426 1.28697 17.1126 1.34132 16.757 1.76312C16.4002 2.18631 16.4548 2.8188 16.8788 3.17462L19.9458 5.74822C20.3684 6.10286 20.9984 6.0485 21.354 5.62671Z" fill="#222222"/>
</svg>
