<svg width="24" height="24" viewBox="0 0 24 24" fill="none" xmlns="http://www.w3.org/2000/svg">
<path fill-rule="evenodd" clip-rule="evenodd" d="M21.2927 12.7072C21.6833 12.3167 21.6833 11.6835 21.2927 11.293L19.3661 9.36637C19.1786 9.17884 19.0732 8.92448 19.0732 8.65927V5.92671C19.0732 5.37442 18.6255 4.92671 18.0732 4.92671H15.3407C15.0755 4.92671 14.8211 4.82135 14.6336 4.63381L12.707 2.7072C12.3164 2.31668 11.6833 2.31668 11.2927 2.7072L9.36613 4.63381C9.17859 4.82135 8.92424 4.92671 8.65902 4.92671H5.92646C5.37418 4.92671 4.92646 5.37442 4.92646 5.92671V8.65927C4.92646 8.92448 4.82111 9.17884 4.63357 9.36637L2.70696 11.293C2.31643 11.6835 2.31643 12.3167 2.70696 12.7072L4.63357 14.6338C4.82111 14.8213 4.92646 15.0757 4.92646 15.3409V18.0735C4.92646 18.6258 5.37418 19.0735 5.92646 19.0735H8.65902C8.92424 19.0735 9.17859 19.1788 9.36613 19.3664L11.2927 21.293C11.6833 21.6835 12.3164 21.6835 12.707 21.293L14.6336 19.3664C14.8211 19.1788 15.0755 19.0735 15.3407 19.0735H18.0732C18.6255 19.0735 19.0732 18.6258 19.0732 18.0735V15.3409C19.0732 15.0757 19.1786 14.8213 19.3661 14.6338L21.2927 12.7072ZM6.99985 12.0001C6.99985 14.7584 9.24152 17.0001 11.9998 17.0001C14.7582 17.0001 16.9998 14.7584 16.9998 12.0001C16.9998 9.24176 14.7582 7.00009 11.9998 7.00009C9.24152 7.00009 6.99985 9.24176 6.99985 12.0001Z" fill="#222222"/>
</svg>
