<svg width="24" height="24" viewBox="0 0 24 24" fill="none" xmlns="http://www.w3.org/2000/svg">
<path fill-rule="evenodd" clip-rule="evenodd" d="M10.1148 12.6201C9.07628 12.6201 8.24701 13.0501 7.69549 13.7668C7.35479 14.2095 7.13542 14.7402 7.02106 15.3092C6.91345 15.8446 6.84102 16.4466 6.39832 16.7664C6.21692 16.8974 6.03014 16.9638 5.82246 17.0157C5.74301 17.0356 5.69963 17.045 5.65163 17.0554C5.60834 17.0648 5.5613 17.0749 5.48065 17.0944C5.36572 17.122 5.20812 17.1639 5.05623 17.2398C4.89248 17.3217 4.71512 17.4529 4.58813 17.6665C4.46413 17.875 4.4248 18.1006 4.4248 18.3101C4.4248 18.6217 4.59708 18.8595 4.68577 18.9704C4.79819 19.1111 4.94123 19.2451 5.08973 19.3669C5.3901 19.6134 5.78826 19.8715 6.22104 20.1049C7.06197 20.5584 8.18551 21.0001 9.1148 21.0001C11.7059 21.0001 13.8048 18.9012 13.8048 16.3101C13.8048 14.269 12.1559 12.6201 10.1148 12.6201ZM12.4248 16.3101C12.4248 18.0837 11.0319 19.5302 9.27974 19.6161C9.1597 19.5975 8.85865 19.5102 8.61475 19.3101C8.38837 19.1403 8.18886 18.9614 8.05205 18.7904C7.90756 18.6098 7.8048 18.3101 7.8048 18.3101C7.8048 17.9145 7.85258 17.7004 7.9661 17.3599C8.09274 17.1005 8.10058 16.7258 8.10546 16.493C8.10719 16.4102 8.10855 16.3454 8.11475 16.3101C8.11475 15.5865 8.48898 14.9984 8.78912 14.6084C9.0726 14.2401 9.49333 14.0001 10.1148 14.0001C11.3937 14.0001 12.4248 15.0312 12.4248 16.3101Z" fill="#222222"/>
<path d="M19.3268 4.78883C20.0083 4.33058 20.9189 4.41893 21.4997 4.99966C22.0807 5.58069 22.1688 6.49187 21.7098 7.17346L20.0861 9.58477C19.3676 10.6518 18.4677 11.5849 17.4273 12.3415L14.1911 14.6952C13.7931 14.9846 13.2437 14.9415 12.8958 14.5935L12.0673 13.765C11.7358 13.4336 11.6791 12.9164 11.9307 12.521L13.7629 9.64225C14.5791 8.35985 15.6515 7.26004 16.913 6.41186L19.3268 4.78883Z" fill="#222222" stroke="#222222" stroke-width="1.38"/>
<path d="M5 13.5C5 14.3284 4.32843 15 3.5 15C2.67157 15 2 14.3284 2 13.5C2 12.6716 2.67157 12 3.5 12C4.32843 12 5 12.6716 5 13.5Z" fill="#222222" stroke="#222222"/>
</svg>
