<svg width="24" height="24" viewBox="0 0 24 24" fill="none" xmlns="http://www.w3.org/2000/svg">
<path fill-rule="evenodd" clip-rule="evenodd" d="M13.3474 5.26446C13.7536 5.3457 14.017 5.74082 13.9358 6.14699L11.5357 18.1472C11.4545 18.5534 11.0594 18.8168 10.6532 18.7355C10.247 18.6543 9.98362 18.2592 10.0649 17.853L12.4649 5.85281C12.5461 5.44664 12.9412 5.18323 13.3474 5.26446ZM16.27 7.86971C16.5629 7.57682 17.0377 7.57682 17.3306 7.86971L20.9307 11.4698C21.0726 11.6117 21.1518 11.8047 21.1503 12.0054C21.1489 12.2062 21.0671 12.398 20.9231 12.5379L17.323 16.0372C17.026 16.3259 16.5512 16.3191 16.2625 16.0221C15.9738 15.7251 15.9805 15.2503 16.2775 14.9616L19.3321 11.9925L16.27 8.93037C15.9771 8.63748 15.9771 8.1626 16.27 7.86971ZM7.73422 7.92382C8.02504 8.21877 8.02169 8.69363 7.72674 8.98445L4.66831 12.0001L7.72674 15.0157C8.02169 15.3065 8.02504 15.7814 7.73422 16.0763C7.44339 16.3713 6.96853 16.3746 6.67358 16.0838L3.07352 12.5341C2.93057 12.3932 2.8501 12.2008 2.8501 12.0001C2.8501 11.7993 2.93057 11.6069 3.07352 11.466L6.67358 7.91634C6.96853 7.62552 7.44339 7.62887 7.73422 7.92382Z" fill="#222222"/>
</svg>
