<svg width="24" height="24" viewBox="0 0 24 24" fill="none" xmlns="http://www.w3.org/2000/svg">
<path d="M5.7037 2.74074C5.7037 2.33164 6.03534 2 6.44444 2C6.85354 2 7.18518 2.33164 7.18518 2.74074V16.8148H21.2593C21.6684 16.8148 22 17.1465 22 17.5556C22 17.9647 21.6684 18.2963 21.2593 18.2963H18.2963V21.2593C18.2963 21.6684 17.9647 22 17.5556 22C17.1465 22 16.8148 21.6684 16.8148 21.2593V18.2963H7.37037C6.45413 18.2963 5.7037 17.5459 5.7037 16.6296V7.18518H2.74074C2.33164 7.18518 2 6.85354 2 6.44444C2 6.03534 2.33164 5.7037 2.74074 5.7037H5.7037V2.74074Z" fill="#222222"/>
<path d="M9.40741 6.44444C9.40741 6.03534 9.73905 5.7037 10.1481 5.7037H16.6296C17.5459 5.7037 18.2963 6.45413 18.2963 7.37037V13.8519C18.2963 14.261 17.9647 14.5926 17.5556 14.5926C17.1465 14.5926 16.8148 14.261 16.8148 13.8519V7.18518H10.1481C9.73905 7.18518 9.40741 6.85354 9.40741 6.44444Z" fill="#222222"/>
</svg>
