<svg width="24" height="24" viewBox="0 0 24 24" fill="none" xmlns="http://www.w3.org/2000/svg">
<path fill-rule="evenodd" clip-rule="evenodd" d="M3.94991 3.74332C4.41406 3.26738 5.04359 3 5.7 3H18.3C18.9564 3 19.5859 3.26738 20.0501 3.74332C20.5142 4.21926 20.775 4.86477 20.775 5.53785V8.30642C20.775 8.68868 20.4728 8.99856 20.1 8.99856C19.7272 8.99856 19.425 8.68868 19.425 8.30642V5.53785C19.425 5.23191 19.3065 4.93849 19.0955 4.72216C18.8845 4.50582 18.5984 4.38428 18.3 4.38428L5.7 4.38428C5.40163 4.38428 5.11548 4.50582 4.9045 4.72216C4.69353 4.93849 4.575 5.23191 4.575 5.53785L4.575 8.30642C4.575 8.68868 4.27279 8.99856 3.9 8.99856C3.52721 8.99856 3.225 8.68868 3.225 8.30642L3.225 5.53785C3.225 4.86477 3.48576 4.21926 3.94991 3.74332ZM20.1 15.7925C20.4728 15.7925 20.775 16.1023 20.775 16.4846V17.5393C20.775 17.8031 20.7461 18.0609 20.6911 18.3091C20.6084 18.6818 20.2467 18.9153 19.8832 18.8306C19.5197 18.7458 19.292 18.3749 19.3746 18.0022C19.4075 17.854 19.425 17.6992 19.425 17.5393V16.4846C19.425 16.1023 19.7272 15.7925 20.1 15.7925ZM18.6593 20.0856C18.7419 20.4583 18.5142 20.8292 18.1507 20.9139C17.9087 20.9704 17.6573 21 17.4 21H16.6286C16.2558 21 15.9536 20.6901 15.9536 20.3079C15.9536 19.9256 16.2558 19.6157 16.6286 19.6157H17.4C17.5559 19.6157 17.7069 19.5978 17.8514 19.5641C18.215 19.4793 18.5766 19.7128 18.6593 20.0856ZM13.4464 20.3079C13.4464 20.6901 13.1442 21 12.7714 21H11.2286C10.8558 21 10.5536 20.6901 10.5536 20.3079C10.5536 19.9256 10.8558 19.6157 11.2286 19.6157H12.7714C13.1442 19.6157 13.4464 19.9256 13.4464 20.3079ZM8.04643 20.3079C8.04643 20.6901 7.74422 21 7.37143 21H6.6C6.34271 21 6.09134 20.9704 5.84928 20.9139C5.48576 20.8292 5.25807 20.4583 5.34072 20.0856C5.42336 19.7128 5.78505 19.4793 6.14856 19.5641C6.2931 19.5978 6.44409 19.6157 6.6 19.6157H7.37143C7.74422 19.6157 8.04643 19.9256 8.04643 20.3079ZM4.11679 18.8306C3.75327 18.9153 3.39159 18.6818 3.30895 18.3091C3.25391 18.0609 3.225 17.8031 3.225 17.5393L3.225 16.4846C3.225 16.1023 3.52721 15.7925 3.9 15.7925C4.27279 15.7925 4.575 16.1023 4.575 16.4846V17.5393C4.575 17.6992 4.59249 17.854 4.62536 18.0022C4.708 18.3749 4.48031 18.7458 4.11679 18.8306ZM3.675 11.5362C3.30221 11.5362 3 11.8461 3 12.2283C3 12.6106 3.30221 12.9205 3.675 12.9205H20.325C20.6978 12.9205 21 12.6106 21 12.2283C21 11.8461 20.6978 11.5362 20.325 11.5362H3.675Z" fill="#222222"/>
</svg>
