<svg width="24" height="24" viewBox="0 0 24 24" fill="none" xmlns="http://www.w3.org/2000/svg">
<path fill-rule="evenodd" clip-rule="evenodd" d="M3.74332 20.0501C3.26738 19.5859 3 18.9564 3 18.3L3 5.7C3 5.04359 3.26738 4.41406 3.74332 3.94991C4.21926 3.48576 4.86477 3.225 5.53785 3.225L8.30642 3.225C8.68868 3.225 8.99856 3.52721 8.99856 3.9C8.99856 4.27279 8.68868 4.575 8.30642 4.575L5.53785 4.575C5.23191 4.575 4.93849 4.69353 4.72216 4.90451C4.50582 5.11548 4.38428 5.40163 4.38428 5.7V18.3C4.38428 18.5984 4.50582 18.8845 4.72216 19.0955C4.93849 19.3065 5.23191 19.425 5.53785 19.425H8.30642C8.68868 19.425 8.99856 19.7272 8.99856 20.1C8.99856 20.4728 8.68868 20.775 8.30642 20.775H5.53785C4.86478 20.775 4.21926 20.5142 3.74332 20.0501ZM15.7925 3.9C15.7925 3.52721 16.1023 3.225 16.4846 3.225L17.5393 3.225C17.8031 3.225 18.0609 3.25391 18.3091 3.30895C18.6818 3.39159 18.9153 3.75327 18.8306 4.11679C18.7458 4.48031 18.3749 4.708 18.0022 4.62535C17.854 4.5925 17.6992 4.575 17.5393 4.575L16.4846 4.575C16.1023 4.575 15.7925 4.27279 15.7925 3.9ZM20.0856 5.34072C20.4583 5.25807 20.8292 5.48576 20.9139 5.84928C20.9704 6.09134 21 6.3427 21 6.6V7.37143C21 7.74422 20.6901 8.04643 20.3079 8.04643C19.9256 8.04643 19.6157 7.74422 19.6157 7.37143V6.6C19.6157 6.44409 19.5978 6.2931 19.5641 6.14856C19.4793 5.78504 19.7128 5.42336 20.0856 5.34072ZM20.3079 10.5536C20.6901 10.5536 21 10.8558 21 11.2286V12.7714C21 13.1442 20.6901 13.4464 20.3079 13.4464C19.9256 13.4464 19.6157 13.1442 19.6157 12.7714V11.2286C19.6157 10.8558 19.9256 10.5536 20.3079 10.5536ZM20.3079 15.9536C20.6901 15.9536 21 16.2558 21 16.6286V17.4C21 17.6573 20.9704 17.9087 20.9139 18.1507C20.8292 18.5142 20.4583 18.7419 20.0856 18.6593C19.7128 18.5766 19.4793 18.215 19.5641 17.8514C19.5978 17.7069 19.6157 17.5559 19.6157 17.4V16.6286C19.6157 16.2558 19.9256 15.9536 20.3079 15.9536ZM18.8306 19.8832C18.9153 20.2467 18.6818 20.6084 18.3091 20.6911C18.0609 20.7461 17.8031 20.775 17.5393 20.775H16.4846C16.1023 20.775 15.7925 20.4728 15.7925 20.1C15.7925 19.7272 16.1023 19.425 16.4846 19.425H17.5393C17.6992 19.425 17.854 19.4075 18.0022 19.3746C18.3749 19.292 18.7458 19.5197 18.8306 19.8832ZM11.5362 20.325C11.5362 20.6978 11.8461 21 12.2283 21C12.6106 21 12.9205 20.6978 12.9205 20.325L12.9205 3.675C12.9205 3.30221 12.6106 3 12.2283 3C11.8461 3 11.5362 3.30221 11.5362 3.675V20.325Z" fill="#222222"/>
</svg>
