<svg width="24" height="24" viewBox="0 0 24 24" fill="none" xmlns="http://www.w3.org/2000/svg">
<path fill-rule="evenodd" clip-rule="evenodd" d="M19.75 6C19.75 5.58579 19.4142 5.25 19 5.25H5C4.58579 5.25 4.25 5.58579 4.25 6C4.25 6.41421 4.58579 6.75 5 6.75H19C19.4142 6.75 19.75 6.41421 19.75 6ZM19.75 12C19.75 11.5858 19.4142 11.25 19 11.25H8C7.58579 11.25 7.25 11.5858 7.25 12C7.25 12.4142 7.58579 12.75 8 12.75H19C19.4142 12.75 19.75 12.4142 19.75 12ZM19 17.25C19.4142 17.25 19.75 17.5858 19.75 18C19.75 18.4142 19.4142 18.75 19 18.75H11C10.5858 18.75 10.25 18.4142 10.25 18C10.25 17.5858 10.5858 17.25 11 17.25H19Z" fill="#222222"/>
</svg>
