<svg width="24" height="24" viewBox="0 0 24 24" fill="none" xmlns="http://www.w3.org/2000/svg">
<path fill-rule="evenodd" clip-rule="evenodd" d="M19 3H5C3.9 3 3 3.9 3 5V19C3 20.1 3.9 21 5 21H19C20.1 21 21 20.1 21 19V5C21 3.9 20.1 3 19 3ZM19 19H5L19 5V19ZM6.25 7.5C5.83579 7.5 5.5 7.83579 5.5 8.25C5.5 8.66421 5.83579 9 6.25 9H7.5V10.25C7.5 10.6642 7.83579 11 8.25 11C8.66421 11 9 10.6642 9 10.25V9H10.25C10.6642 9 11 8.66421 11 8.25C11 7.83579 10.6642 7.5 10.25 7.5H9V6.25C9 5.83579 8.66421 5.5 8.25 5.5C7.83579 5.5 7.5 5.83579 7.5 6.25V7.5H6.25Z" fill="#222222"/>
<path d="M16.25 17C16.6642 17 17 16.6642 17 16.25C17 15.8358 16.6642 15.5 16.25 15.5H12.75C12.3358 15.5 12 15.8358 12 16.25C12 16.6642 12.3358 17 12.75 17H16.25Z" fill="#222222"/>
</svg>
