<svg width="24" height="24" viewBox="0 0 24 24" fill="none" xmlns="http://www.w3.org/2000/svg">
<path d="M21 6L18.08 3.00002C17.69 2.61002 17.06 2.61002 16.67 3.00002L13.55 6.12002L12.6171 5.19854C12.2259 4.81208 11.596 4.81401 11.2072 5.20287C10.8166 5.59343 10.8166 6.22665 11.2072 6.6172L11.92 7.33004L3.58579 15.6642C3.21071 16.0393 3 16.548 3 17.0785V20C3 20.5523 3.44772 21 4 21L6.92157 21C7.45201 21 7.96071 20.7893 8.33579 20.4142L16.67 12.08L17.3759 12.7859C17.7703 13.1803 18.4097 13.1803 18.8041 12.7859C19.1913 12.3987 19.1994 11.7735 18.8223 11.3764L17.9425 10.45L20.99 7.42C21.39 7.02 21.39 6.39 21 6Z" fill="#222222"/>
<path d="M7.73281 19.2271C7.54528 19.4147 7.29092 19.52 7.02571 19.52H5.49992C4.94764 19.52 4.49992 19.0723 4.49992 18.52V16.9942C4.49992 16.729 4.60528 16.4747 4.79282 16.2871L12.5599 8.52004L15.4999 11.46L7.73281 19.2271Z" fill="white"/>
</svg>
