<svg width="24" height="24" viewBox="0 0 24 24" fill="none" xmlns="http://www.w3.org/2000/svg">
<path d="M11.5552 18.6696H13.3456L8.30596 5H6.61976L1.58009 18.6696H3.3705L4.74409 14.7572H10.1816L11.5552 18.6696ZM7.38708 7.20722H7.53864L9.67955 13.3079H5.24616L7.38708 7.20722Z" fill="#222222"/>
<path d="M17.5548 18.8496C18.9189 18.8496 20.0368 18.2528 20.6999 17.1634H20.8514V18.6696H22.405V11.6785C22.405 9.55654 21.0125 8.27768 18.5211 8.27768C16.3423 8.27768 14.7319 9.35761 14.514 10.9964H16.1623C16.3896 10.1912 17.2422 9.72706 18.4642 9.72706C19.9894 9.72706 20.7757 10.4186 20.7757 11.6785V12.6069L17.8295 12.7869C15.4518 12.9289 14.1066 13.9805 14.1066 15.8088C14.1066 17.675 15.575 18.8496 17.5548 18.8496ZM17.858 17.4192C16.6738 17.4192 15.7928 16.8129 15.7928 15.7709C15.7928 14.7478 16.4749 14.2078 18.0285 14.1036L20.7757 13.9236V14.8615C20.7757 16.3203 19.5347 17.4192 17.858 17.4192Z" fill="#222222"/>
</svg>
