<svg width="24" height="24" viewBox="0 0 24 24" fill="none" xmlns="http://www.w3.org/2000/svg">
<path d="M14.8929 16.0549C14.8929 16.5875 15.3247 17.0192 15.8572 17.0192C16.3898 17.0192 16.8215 16.5875 16.8215 16.0549V15.9066C16.8215 15.374 16.3898 14.9423 15.8572 14.9423C15.3247 14.9423 14.8929 15.374 14.8929 15.9066V16.0549Z" fill="#222222"/>
<path d="M12.9644 16.0549C12.9644 16.5875 12.5326 17.0192 12.0001 17.0192C11.4675 17.0192 11.0358 16.5875 11.0358 16.0549V15.9066C11.0358 15.374 11.4675 14.9423 12.0001 14.9423C12.5326 14.9423 12.9644 15.374 12.9644 15.9066V16.0549Z" fill="#222222"/>
<path d="M7.17865 16.0549C7.17865 16.5875 7.61037 17.0192 8.14293 17.0192C8.67549 17.0192 9.10722 16.5875 9.10722 16.0549V15.9066C9.10722 15.374 8.67549 14.9423 8.14293 14.9423C7.61037 14.9423 7.17865 15.374 7.17865 15.9066V16.0549Z" fill="#222222"/>
<path d="M13.8484 14.25C13.3158 14.25 12.8841 13.8183 12.8841 13.2857V13.1374C12.8841 12.6048 13.3158 12.1731 13.8484 12.1731C14.3809 12.1731 14.8127 12.6048 14.8127 13.1374V13.2857C14.8127 13.8183 14.3809 14.25 13.8484 14.25Z" fill="#222222"/>
<path d="M9.02694 13.2857C9.02694 13.8183 9.45867 14.25 9.99123 14.25C10.5238 14.25 10.9555 13.8183 10.9555 13.2857V13.1374C10.9555 12.6048 10.5238 12.1731 9.99123 12.1731C9.45867 12.1731 9.02694 12.6048 9.02694 13.1374V13.2857Z" fill="#222222"/>
<path d="M6.13409 12.1731C6.66665 12.1731 7.09837 12.6048 7.09837 13.1374V13.2857C7.09837 13.8183 6.66665 14.25 6.13409 14.25C5.60153 14.25 5.1698 13.8183 5.1698 13.2857V13.1374C5.1698 12.6048 5.60153 12.1731 6.13409 12.1731Z" fill="#222222"/>
<path d="M17.0625 13.2857C17.0625 13.8183 17.4942 14.25 18.0268 14.25C18.5593 14.25 18.9911 13.8183 18.9911 13.2857V13.1374C18.9911 12.6048 18.5593 12.1731 18.0268 12.1731C17.4942 12.1731 17.0625 12.6048 17.0625 13.1374V13.2857Z" fill="#222222"/>
<path fill-rule="evenodd" clip-rule="evenodd" d="M3 6C3 4.34315 4.34315 3 6 3H18C19.6569 3 21 4.34315 21 6V18C21 19.6569 19.6569 21 18 21H6C4.34315 21 3 19.6569 3 18V6ZM19.3125 10.875H16.8214C16.8148 11.4019 16.3857 11.8269 15.8572 11.8269C15.3288 11.8269 14.8996 11.4019 14.893 10.875H12.9643C12.9577 11.4019 12.5285 11.8269 12.0001 11.8269C11.4716 11.8269 11.0425 11.4019 11.0359 10.875H9.10714C9.10052 11.4019 8.67137 11.8269 8.14293 11.8269C7.6145 11.8269 7.18535 11.4019 7.17873 10.875H4.6875V18C4.6875 18.7249 5.27513 19.3125 6 19.3125H18C18.7249 19.3125 19.3125 18.7249 19.3125 18V10.875Z" fill="#222222"/>
</svg>
