<svg width="24" height="24" viewBox="0 0 24 24" fill="none" xmlns="http://www.w3.org/2000/svg">
<path d="M12.8717 3.88039L17.4902 8.37457C17.4903 8.37464 17.4904 8.37471 17.4904 8.37478C18.9983 9.84478 19.75 11.8033 19.75 13.679C19.75 15.5579 18.9962 17.5466 17.4902 19.0146C15.9792 20.4875 13.9917 21.2356 12 21.2356C10.0083 21.2356 8.02078 20.4875 6.50977 19.0146C5.00384 17.5466 4.25 15.5579 4.25 13.679C4.25 11.8033 5.00168 9.84478 6.50955 8.37478C6.50963 8.37471 6.5097 8.37464 6.50977 8.37457L11.1283 3.88039C11.6135 3.4082 12.3865 3.4082 12.8717 3.88039Z" stroke="#222222" stroke-width="1.5"/>
</svg>
