<svg width="24" height="24" viewBox="0 0 24 24" fill="none" xmlns="http://www.w3.org/2000/svg">
<path fill-rule="evenodd" clip-rule="evenodd" d="M9.18463 4.53735C9.6529 3.61088 11 3.95746 11 5.00442L11 18.9971C11 19.551 10.5688 20 10.0369 20H2.96439C2.23967 20 1.77461 19.1979 2.11214 18.5301L9.18463 4.53735ZM3.762 18.4957L9.55534 7.03374L9.55538 18.4957H3.762Z" fill="#222222"/>
<path fill-rule="evenodd" clip-rule="evenodd" d="M14.8154 4.53735C14.3471 3.61088 13 3.95746 13 5.00442L13 18.9971C13 19.551 13.4312 20 13.9631 20H21.0356C21.7603 20 22.2254 19.1979 21.8879 18.5301L14.8154 4.53735ZM20.238 18.4957L14.4447 7.03374L14.4446 18.4957H20.238Z" fill="#222222"/>
</svg>
