<svg width="24" height="24" viewBox="0 0 24 24" fill="none" xmlns="http://www.w3.org/2000/svg">
<path fill-rule="evenodd" clip-rule="evenodd" d="M4.25 6C4.25 5.58579 4.58579 5.25 5 5.25H19C19.4142 5.25 19.75 5.58579 19.75 6C19.75 6.41421 19.4142 6.75 19 6.75H5C4.58579 6.75 4.25 6.41421 4.25 6ZM4.25 17.75C4.25 17.3358 4.58579 17 5 17H19C19.4142 17 19.75 17.3358 19.75 17.75C19.75 18.1642 19.4142 18.5 19 18.5H5C4.58579 18.5 4.25 18.1642 4.25 17.75ZM12.25 12C12.25 11.5858 12.5858 11.25 13 11.25H19C19.4142 11.25 19.75 11.5858 19.75 12C19.75 12.4142 19.4142 12.75 19 12.75H13C12.5858 12.75 12.25 12.4142 12.25 12ZM6.16637 9.62603C5.82176 9.39621 5.35609 9.48926 5.12627 9.83387C4.89645 10.1785 4.98951 10.6442 5.33412 10.874L7.39735 12.2499L5.33409 13.626C4.98949 13.8559 4.89646 14.3216 5.12629 14.6662C5.35613 15.0108 5.8218 15.1038 6.1664 14.874L9.16521 12.8739C9.37379 12.7347 9.49906 12.5006 9.49906 12.2499C9.49905 11.9992 9.37377 11.765 9.16518 11.6259L6.16637 9.62603Z" fill="#222222"/>
</svg>
