<svg width="24" height="24" viewBox="0 0 24 24" fill="none" xmlns="http://www.w3.org/2000/svg">
<path d="M15.6284 5H17.2841V12.0528C17.2841 12.9875 17.0638 13.822 16.6232 14.5564C16.187 15.2863 15.5705 15.8627 14.7739 16.2855C13.9772 16.7039 13.0425 16.9131 11.9699 16.9131C10.8973 16.9131 9.96259 16.7039 9.16591 16.2855C8.36922 15.8627 7.75057 15.2863 7.30994 14.5564C6.87377 13.822 6.65568 12.9875 6.65568 12.0528V5H8.31136V11.9193C8.31136 12.5869 8.45824 13.1811 8.75199 13.7018C9.04574 14.2181 9.46411 14.6254 10.0071 14.9236C10.5545 15.2173 11.2088 15.3642 11.9699 15.3642C12.731 15.3642 13.3852 15.2173 13.9327 14.9236C14.4801 14.6254 14.8985 14.2181 15.1878 13.7018C15.4815 13.1811 15.6284 12.5869 15.6284 11.9193V5Z" fill="#222222"/>
<path d="M5 18.4114H18.9398V19.6932H5V18.4114Z" fill="#222222"/>
</svg>
