<svg width="24" height="24" viewBox="0 0 24 24" fill="none" xmlns="http://www.w3.org/2000/svg">
<path d="M7.18848 19.0001V5.32739H12.6629C13.6688 5.32739 14.5077 5.47649 15.1798 5.77469C15.8519 6.07289 16.357 6.48682 16.6953 7.01646C17.0336 7.54164 17.2027 8.14695 17.2027 8.83236C17.2027 9.36646 17.0959 9.83601 16.8822 10.241C16.6686 10.6416 16.3748 10.971 16.001 11.2291C15.6316 11.4828 15.2087 11.663 14.7325 11.7699V11.9034C15.2532 11.9256 15.7406 12.0725 16.1946 12.344C16.653 12.6155 17.0247 12.996 17.3095 13.4856C17.5943 13.9708 17.7368 14.5494 17.7368 15.2214C17.7368 15.9469 17.5565 16.5945 17.196 17.1642C16.8399 17.7294 16.3125 18.1767 15.6138 18.5061C14.915 18.8354 14.0538 19.0001 13.0301 19.0001H7.18848ZM10.0792 16.6368H12.4359C13.2415 16.6368 13.829 16.4832 14.1984 16.1761C14.5678 15.8646 14.7525 15.4506 14.7525 14.9344C14.7525 14.556 14.6613 14.2222 14.4788 13.9329C14.2963 13.6436 14.036 13.4166 13.6977 13.252C13.3639 13.0873 12.9656 13.0049 12.5027 13.0049H10.0792V16.6368ZM10.0792 11.0488H12.2223C12.6184 11.0488 12.97 10.9799 13.2771 10.8419C13.5887 10.6995 13.8335 10.4992 14.0115 10.241C14.194 9.98289 14.2852 9.67356 14.2852 9.31305C14.2852 8.81901 14.1094 8.42067 13.7578 8.11802C13.4106 7.81537 12.9166 7.66404 12.2757 7.66404H10.0792V11.0488Z" fill="#222222"/>
</svg>
