<svg width="24" height="24" viewBox="0 0 24 24" fill="none" xmlns="http://www.w3.org/2000/svg">
<path d="M13.165 14.3012L10.8064 11.9388L10.8343 11.9106C12.45 10.0847 13.6014 7.98588 14.2793 5.76471H16.1843C16.6348 5.76471 17 5.39951 17 4.94902C17 4.49853 16.6348 4.13333 16.1843 4.13333H10.5V2.92857C10.5 2.41574 10.0843 2 9.57143 2C9.05859 2 8.64286 2.41574 8.64286 2.92857V4.13333H2.81098C2.36309 4.13333 2 4.49642 2 4.94431C2 5.39221 2.36309 5.75529 2.81098 5.75529H12.515C11.8929 7.57177 10.9086 9.29412 9.57143 10.8C8.82009 9.95658 7.69623 8.55034 7.04375 7.46145C6.87631 7.18202 6.58035 6.99765 6.25459 6.99765C5.63031 6.99765 5.2265 7.63355 5.54602 8.16987C6.32979 9.48541 7.45178 10.9417 8.33643 11.9388L4.26724 16.0065C3.90356 16.3701 3.90152 16.959 4.26268 17.3251C4.62898 17.6963 5.22816 17.6963 5.59446 17.3251L9.57143 13.2941L12.4593 16.2212L13.165 14.3012Z" fill="#222222"/>
<path fill-rule="evenodd" clip-rule="evenodd" d="M17.4998 10C18.1013 10 18.6398 10.3731 18.851 10.9363L22.5252 20.7343C22.7548 21.3467 22.3021 22 21.648 22C21.258 22 20.9088 21.7584 20.7714 21.3934L19.8698 19H15.1198L14.227 21.3915C14.0904 21.7574 13.7409 22 13.3503 22C12.6969 22 12.2446 21.3474 12.474 20.7355L16.1487 10.9363C16.3599 10.3731 16.8983 10 17.4998 10ZM17.3124 13.1706L15.8797 16.9999H19.1197L17.687 13.1706C17.6222 12.9974 17.3772 12.9974 17.3124 13.1706Z" fill="#222222"/>
</svg>
