<svg width="24" height="24" viewBox="0 0 24 24" fill="none" xmlns="http://www.w3.org/2000/svg">
<path d="M13.165 14.3012L10.8064 11.9388L10.8343 11.9106C12.45 10.0847 13.6014 7.98588 14.2793 5.76471H16.1843C16.6348 5.76471 17 5.39951 17 4.94902C17 4.49853 16.6348 4.13333 16.1843 4.13333H10.5V2.92857C10.5 2.41574 10.0843 2 9.57143 2C9.05859 2 8.64286 2.41574 8.64286 2.92857V4.13333H2.81098C2.36309 4.13333 2 4.49642 2 4.94431C2 5.39221 2.36309 5.75529 2.81098 5.75529H12.515C11.8929 7.57177 10.9086 9.29412 9.57143 10.8C8.82009 9.95658 7.69623 8.55034 7.04375 7.46145C6.87631 7.18202 6.58035 6.99765 6.25459 6.99765C5.63031 6.99765 5.2265 7.63355 5.54602 8.16987C6.32979 9.48541 7.45178 10.9417 8.33643 11.9388L4.26724 16.0065C3.90356 16.3701 3.90152 16.959 4.26268 17.3251C4.62898 17.6963 5.22816 17.6963 5.59446 17.3251L9.57143 13.2941L12.4593 16.2212L13.165 14.3012Z" fill="#222222"/>
<path fill-rule="evenodd" clip-rule="evenodd" d="M17.5001 10C18.1016 10 18.64 10.3731 18.8512 10.9363L22.5254 20.7343C22.7551 21.3467 22.3024 22 21.6483 22C21.2583 22 20.9091 21.7584 20.7716 21.3934L19.8701 19H15.1201L14.2273 21.3915C14.0907 21.7574 13.7411 22 13.3505 22C12.6971 22 12.2448 21.3474 12.4743 20.7355L16.149 10.9363C16.3602 10.3731 16.8986 10 17.5001 10ZM17.3126 13.1706L15.88 16.9999H19.12L17.6873 13.1706C17.6225 12.9974 17.3775 12.9974 17.3126 13.1706Z" fill="#222222"/>
</svg>
