<svg width="24" height="24" viewBox="0 0 24 24" fill="none" xmlns="http://www.w3.org/2000/svg">
<path fill-rule="evenodd" clip-rule="evenodd" d="M4.25 4.5C3.97386 4.5 3.75 4.72386 3.75 5V7C3.75 7.27614 3.97386 7.5 4.25 7.5H6.25C6.52614 7.5 6.75 7.27614 6.75 7V5C6.75 4.72386 6.52614 4.5 6.25 4.5H4.25ZM9.5 5.25C9.08579 5.25 8.75 5.58579 8.75 6C8.75 6.41421 9.08579 6.75 9.5 6.75H19.5C19.9142 6.75 20.25 6.41421 20.25 6C20.25 5.58579 19.9142 5.25 19.5 5.25H9.5ZM9.5 11.25C9.08579 11.25 8.75 11.5858 8.75 12C8.75 12.4142 9.08579 12.75 9.5 12.75H19.5C19.9142 12.75 20.25 12.4142 20.25 12C20.25 11.5858 19.9142 11.25 19.5 11.25H9.5ZM8.75 18C8.75 17.5858 9.08579 17.25 9.5 17.25H19.5C19.9142 17.25 20.25 17.5858 20.25 18C20.25 18.4142 19.9142 18.75 19.5 18.75H9.5C9.08579 18.75 8.75 18.4142 8.75 18ZM3.75 11.25C3.75 10.9739 3.97386 10.75 4.25 10.75H6.25C6.52614 10.75 6.75 10.9739 6.75 11.25V13.25C6.75 13.5261 6.52614 13.75 6.25 13.75H4.25C3.97386 13.75 3.75 13.5261 3.75 13.25V11.25ZM4.25 16.5C3.97386 16.5 3.75 16.7239 3.75 17V19C3.75 19.2761 3.97386 19.5 4.25 19.5H6.25C6.52614 19.5 6.75 19.2761 6.75 19V17C6.75 16.7239 6.52614 16.5 6.25 16.5H4.25Z" fill="#222222"/>
</svg>
