<svg width="24" height="24" viewBox="0 0 24 24" fill="none" xmlns="http://www.w3.org/2000/svg">
<path d="M4.24794 18.3687C3.86159 18.7588 3.86246 19.3876 4.2499 19.7767C4.64117 20.1696 5.27755 20.1687 5.66772 19.7747L6.05167 19.387C6.43802 18.9968 6.43715 18.368 6.04971 17.979C5.65844 17.5861 5.02206 17.587 4.63189 17.981L4.24794 18.3687Z" fill="#222222"/>
<path d="M11 22C11 22.5523 11.4477 23 12 23C12.5523 23 13 22.5523 13 22V21.0377C13 20.4854 12.5523 20.0377 12 20.0377C11.4477 20.0377 11 20.4854 11 21.0377V22Z" fill="#222222"/>
<path d="M4 12.0042C4 11.4519 3.55228 11 3 11H2C1.44772 11 1 11.4519 1 12.0042C1 12.5565 1.44772 13.0084 2 13.0084H3C3.55228 13.0084 4 12.5565 4 12.0042Z" fill="#222222"/>
<path d="M21 11C20.4477 11 20 11.4519 20 12.0042C20 12.5565 20.4477 13.0084 21 13.0084H22C22.5523 13.0084 23 12.5565 23 12.0042C23 11.4519 22.5523 11 22 11H21Z" fill="#222222"/>
<path d="M17.9373 17.9921C17.5515 18.3794 17.5507 19.0055 17.9354 19.394L18.3243 19.7867C18.7134 20.1796 19.348 20.1805 19.7382 19.7887C20.1261 19.3992 20.1252 18.7691 19.7362 18.3807L19.3451 17.9901C18.956 17.6015 18.3254 17.6024 17.9373 17.9921Z" fill="#222222"/>
<path fill-rule="evenodd" clip-rule="evenodd" d="M12.0927 17.8999C8.34405 17.8999 5.29492 14.8508 5.29492 11.1021C5.29492 8.8093 6.8893 6.5737 8.5994 5.33993V2.13284C8.5994 1.50928 9.1088 0.999878 9.73236 0.999878H14.453C15.0766 0.999878 15.586 1.50928 15.586 2.13284V5.33993C17.2961 6.5737 18.8905 8.8093 18.8905 11.1021C18.8905 14.8508 15.8413 17.8999 12.0927 17.8999ZM6.61671 11.2595C6.61671 14.1903 9.06496 16.5781 12.0927 16.5781C15.1204 16.5781 17.5687 14.1903 17.5687 11.2595C17.5687 9.52855 16.6949 7.90105 15.2158 6.89974L15.2148 6.89906L14.1698 6.1819V2.54295H10.0156V6.1819L8.9706 6.89906L8.96961 6.89974C7.49046 7.90105 6.61671 9.52855 6.61671 11.2595Z" fill="#222222"/>
</svg>
