<svg width="24" height="24" viewBox="0 0 24 24" fill="none" xmlns="http://www.w3.org/2000/svg">
<path d="M6.04954 6.01807C6.44104 5.62755 6.4423 4.9924 6.05109 4.60159L5.66852 4.21941C5.27731 3.8286 4.6427 3.82997 4.25258 4.22187C3.8642 4.61203 3.86371 5.24319 4.25209 5.63335L4.63359 6.01658C5.0235 6.40828 5.65824 6.40838 6.04954 6.01807Z" fill="#222222"/>
<path d="M4 12C4 11.4477 3.55228 10.9954 3 10.9954H2C1.44772 10.9954 1 11.4477 1 12C1 12.5523 1.44772 13.0046 2 13.0046H3C3.55228 13.0046 4 12.5523 4 12Z" fill="#222222"/>
<path d="M13 2C13 1.44771 12.5523 1 12 1C11.4477 1 11 1.44772 11 2V2.96347C11 3.51575 11.4477 3.96347 12 3.96347C12.5523 3.96347 13 3.51575 13 2.96347V2Z" fill="#222222"/>
<path d="M19.7482 5.63284C20.1363 5.24297 20.1363 4.61273 19.7482 4.22286C19.3576 3.83046 18.7224 3.83046 18.3318 4.22286L17.9518 4.60459C17.5637 4.99447 17.5637 5.6247 17.9518 6.01458C18.3424 6.40697 18.9776 6.40697 19.3682 6.01458L19.7482 5.63284Z" fill="#222222"/>
<path d="M17.937 17.9904C17.5514 18.3779 17.5505 19.0039 17.9351 19.3924L18.324 19.7852C18.7132 20.1784 19.3482 20.1793 19.7384 19.7872C20.1262 19.3976 20.1254 18.7676 19.7365 18.3792L19.3454 17.9885C18.9561 17.5996 18.3252 17.6005 17.937 17.9904Z" fill="#222222"/>
<path d="M21 10.9954C20.4477 10.9954 20 11.4477 20 12C20 12.5523 20.4477 13.0046 21 13.0046H22C22.5523 13.0046 23 12.5523 23 12C23 11.4477 22.5523 10.9954 22 10.9954H21Z" fill="#222222"/>
<path d="M11 22C11 22.5523 11.4477 23 12 23C12.5523 23 13 22.5523 13 22V21.0365C13 20.4842 12.5523 20.0365 12 20.0365C11.4477 20.0365 11 20.4842 11 21.0365V22Z" fill="#222222"/>
<path d="M4.24767 18.3672C3.86142 18.7573 3.8623 19.3861 4.24963 19.7752C4.641 20.1683 5.27771 20.1674 5.66799 19.7732L6.05194 19.3853C6.43819 18.9951 6.43731 18.3664 6.04998 17.9773C5.65861 17.5842 5.0219 17.5851 4.63162 17.9793L4.24767 18.3672Z" fill="#222222"/>
<circle cx="12" cy="12" r="5.3" stroke="#222222" stroke-width="1.4"/>
</svg>
