<svg width="24" height="24" viewBox="0 0 24 24" fill="none" xmlns="http://www.w3.org/2000/svg">
<path d="M5 18.6409C5 18.2869 5.28694 18 5.64091 18H18.3591C18.7131 18 19 18.2869 19 18.6409C19 18.9949 18.7131 19.2818 18.3591 19.2818H5.64091C5.28694 19.2818 5 18.9949 5 18.6409Z" fill="#222222"/>
<path d="M5 4.64091C5 4.28694 5.28694 4 5.64091 4H18.3591C18.7131 4 19 4.28694 19 4.64091C19 4.99487 18.7131 5.28182 18.3591 5.28182H5.64091C5.28694 5.28182 5 4.99487 5 4.64091Z" fill="#222222"/>
<path d="M5.64091 9C5.28694 9 5 9.28694 5 9.64091C5 9.99487 5.28694 10.2818 5.64091 10.2818H13.3591C13.3755 10.2818 13.3917 10.2812 13.4077 10.28H17.25C18.25 10.28 18.72 11.1881 18.72 12C18.72 12.8119 18 14 17.25 14H11V15.28H17.25C19 15.28 20 13.5188 20 12C20 10.4812 18.5 9 17.25 9H5.64091Z" fill="#222222"/>
<path d="M13.7031 13.2493C14.0095 13.0404 14.0922 12.617 13.8879 12.3038C13.6835 11.9905 13.2695 11.9059 12.9631 12.1148L10.2968 13.9329C10.1114 14.0593 9.99998 14.2722 9.99998 14.5001C9.99997 14.728 10.1114 14.9408 10.2968 15.0673L12.9631 16.8855C13.2695 17.0945 13.6835 17.0099 13.8878 16.6966C14.0922 16.3833 14.0095 15.96 13.7031 15.7511L11.8686 14.5001L13.7031 13.2493Z" fill="#222222"/>
</svg>
