<svg width="24" height="24" viewBox="0 0 24 24" fill="none" xmlns="http://www.w3.org/2000/svg">
<path fill-rule="evenodd" clip-rule="evenodd" d="M2.25 5.41421C2.25 4.21895 3.21895 3.25 4.41421 3.25H19.5858C20.781 3.25 21.75 4.21895 21.75 5.41421C21.75 5.9882 21.522 6.53867 21.1161 6.94454L14.75 13.3107V20.1958C14.75 21.5703 13.2381 22.4082 12.0725 21.6798L10.0725 20.4297C9.56083 20.11 9.25 19.5491 9.25 18.9458V13.3107L2.88388 6.94454C2.47801 6.53867 2.25 5.9882 2.25 5.41421ZM4.41421 4.75C4.04738 4.75 3.75 5.04738 3.75 5.41421C3.75 5.59037 3.81998 5.75932 3.94454 5.88388L10.75 12.6893V18.9458C10.75 19.032 10.7944 19.1121 10.8675 19.1578L12.8675 20.4078C13.034 20.5118 13.25 20.3921 13.25 20.1958V12.6893L20.0555 5.88388C20.18 5.75932 20.25 5.59037 20.25 5.41421C20.25 5.04738 19.9526 4.75 19.5858 4.75H4.41421Z" fill="#222222"/>
</svg>
