<svg width="24" height="24" viewBox="0 0 24 24" fill="none" xmlns="http://www.w3.org/2000/svg">
<path fill-rule="evenodd" clip-rule="evenodd" d="M0.300049 12C0.300049 8.30345 3.30345 5.30005 7.00005 5.30005C9.7384 5.30005 12.0908 6.94555 13.1256 9.30005H21C22.4912 9.30005 23.7001 10.5089 23.7001 12C23.7001 13.4912 22.4912 14.7 21 14.7H20.2001V16C20.2001 17.4912 18.9912 18.7 17.5 18.7C16.0089 18.7 14.8 17.4912 14.8 16V14.7H13.1256C12.0908 17.0545 9.7384 18.7 7.00005 18.7C3.30345 18.7 0.300049 15.6966 0.300049 12ZM7.00005 6.70005C4.07665 6.70005 1.70005 9.07665 1.70005 12C1.70005 14.9234 4.07665 17.3 7.00005 17.3C9.30379 17.3 11.2652 15.8263 11.9897 13.7677L12.1543 13.3H16.2V16C16.2 16.718 16.7821 17.3 17.5 17.3C18.218 17.3 18.8 16.718 18.8 16V13.3H21C21.718 13.3 22.3 12.718 22.3 12C22.3 11.2821 21.718 10.7 21 10.7H12.1543L11.9897 10.2324C11.2652 8.17379 9.30379 6.70005 7.00005 6.70005ZM7.00005 10.7C6.28665 10.7 5.70005 11.2866 5.70005 12C5.70005 12.7134 6.28665 13.3 7.00005 13.3C7.71345 13.3 8.30005 12.7134 8.30005 12C8.30005 11.2866 7.71345 10.7 7.00005 10.7ZM4.30005 12C4.30005 10.5134 5.51345 9.30005 7.00005 9.30005C8.48665 9.30005 9.70005 10.5134 9.70005 12C9.70005 13.4866 8.48665 14.7 7.00005 14.7C5.51345 14.7 4.30005 13.4866 4.30005 12Z" fill="#222222"/>
</svg>
