<svg width="24" height="24" viewBox="0 0 24 24" fill="none" xmlns="http://www.w3.org/2000/svg">
<path d="M14 15.25C14 15.6642 13.6642 16 13.25 16H10.75C10.3358 16 10 15.6642 10 15.25C10 14.8358 10.3358 14.5 10.75 14.5H13.25C13.6642 14.5 14 14.8358 14 15.25Z" fill="#222222"/>
<path d="M14 10.75C14 11.1642 13.6642 11.5 13.25 11.5H10.75C10.3358 11.5 10 11.1642 10 10.75C10 10.3358 10.3358 10 10.75 10H13.25C13.6642 10 14 10.3358 14 10.75Z" fill="#222222"/>
<path fill-rule="evenodd" clip-rule="evenodd" d="M16.1181 10.1703C16.0353 9.75716 15.8919 9.36594 15.6976 9.00629C15.6742 8.9716 15.652 8.93595 15.6309 8.89939C15.3158 8.35334 14.8824 7.88507 14.3578 7.52835C14.3304 7.50968 14.3035 7.49031 14.2773 7.47028C13.8992 7.22581 13.4793 7.04045 13.0306 6.92727C13.0209 6.92511 13.0111 6.92286 13.0014 6.92053C12.6696 6.84119 12.3401 6.79989 12 6.79989C11.6585 6.79989 11.3319 6.84152 11.0174 6.9184C10.9879 6.92561 10.9584 6.93204 10.9288 6.93772C10.3682 7.08516 9.85335 7.34558 9.41017 7.69318C8.99099 8.02587 8.63681 8.43542 8.36913 8.89939C8.34804 8.93595 8.32577 8.9716 8.30238 9.00628C8.10807 9.36594 7.96469 9.75716 7.88192 10.1703C7.87877 10.2034 7.8747 10.2365 7.86969 10.2695C7.824 10.571 7.8 10.7958 7.8 10.9999V11.9999V13.9999V14.9999C7.8 15.204 7.824 15.4287 7.86969 15.7302C7.8747 15.7633 7.87877 15.7964 7.88192 15.8295C7.96469 16.2426 8.10807 16.6338 8.30239 16.9935C8.32475 17.0267 8.3461 17.0607 8.36638 17.0956C9.08301 18.3291 10.3886 19.1591 11.8884 19.1984C11.9255 19.1994 11.9627 19.1999 12 19.1999C12.0362 19.1999 12.0724 19.1994 12.1084 19.1985C13.6095 19.1603 14.9165 18.3299 15.6336 17.0956C15.6539 17.0607 15.6752 17.0267 15.6976 16.9935C15.8919 16.6338 16.0353 16.2426 16.1181 15.8295C16.1212 15.7964 16.1253 15.7633 16.1303 15.7302C16.176 15.4287 16.2 15.204 16.2 14.9999V13.9999V11.9999V10.9999C16.2 10.7958 16.176 10.571 16.1303 10.2695C16.1253 10.2365 16.1212 10.2034 16.1181 10.1703ZM7.70473 3.70516C7.44427 3.96561 7.35752 4.33412 7.44469 4.66656C7.4879 4.83135 7.57385 4.98727 7.70255 5.11678L8.62 6.03989C8.12243 6.38281 7.67911 6.79807 7.30524 7.27047C7.12309 7.50063 6.95742 7.74435 6.81 7.99989H5C4.44772 7.99989 4 8.4476 4 8.99989C4 9.28868 4.12242 9.54889 4.3182 9.73143C4.49683 9.89798 4.73651 9.99989 5 9.99989H6.09C6.04 10.3299 6 10.6599 6 10.9999V11.7999V11.9999H5C4.44772 11.9999 4 12.4476 4 12.9999C4 13.5522 4.44772 13.9999 5 13.9999H6V14.1999V14.9999C6 15.3399 6.04 15.6699 6.09 15.9999H5C4.73651 15.9999 4.49682 16.1018 4.3182 16.2683C4.12242 16.4509 4 16.7111 4 16.9999C4 17.5522 4.44772 17.9999 5 17.9999H6.81C7.85 19.7899 9.78 20.9999 12 20.9999C14.22 20.9999 16.15 19.7899 17.19 17.9999H19C19.5523 17.9999 20 17.5522 20 16.9999C20 16.7111 19.8776 16.4509 19.6818 16.2683C19.5032 16.1018 19.2635 15.9999 19 15.9999H17.91C17.96 15.6699 18 15.3399 18 14.9999V14.1999V13.9999H19C19.5523 13.9999 20 13.5522 20 12.9999C20 12.4476 19.5523 11.9999 19 11.9999H18V11.7999V10.9999C18 10.6599 17.96 10.3299 17.91 9.99989H19C19.2635 9.99989 19.5032 9.89798 19.6818 9.73143C19.8776 9.54889 20 9.28868 20 8.99989C20 8.4476 19.5523 7.99989 19 7.99989H17.19C17.0415 7.74241 16.8744 7.49693 16.6902 7.26523C16.3165 6.795 15.8724 6.38154 15.37 6.03989L16.295 5.11489C16.4227 4.98714 16.5086 4.83334 16.5525 4.6706C16.6424 4.33732 16.5566 3.9665 16.295 3.70489C15.9056 3.31552 15.2744 3.31552 14.885 3.70489L13.42 5.16989C12.96 5.05989 12.49 4.99989 12 4.99989C11.51 4.99989 11.04 5.05989 10.59 5.16989L9.11689 3.70354C8.72622 3.31466 8.0945 3.31539 7.70473 3.70516Z" fill="#222222"/>
</svg>
