<svg width="48" height="48" viewBox="0 0 48 48" fill="none" xmlns="http://www.w3.org/2000/svg">
<path d="M38.14 9.86L35.32 12.68C38.2 15.58 40 19.58 40 24C40 32.84 32.84 40 24 40C15.16 40 8 32.84 8 24C8 15.84 14.1 9.12 22 8.14V12.18C16.32 13.14 12 18.06 12 24C12 30.62 17.38 36 24 36C30.62 36 36 30.62 36 24C36 20.68 34.66 17.68 32.48 15.52L29.66 18.34C31.1 19.8 32 21.8 32 24C32 28.42 28.42 32 24 32C19.58 32 16 28.42 16 24C16 20.28 18.56 17.18 22 16.28V20.56C20.8 21.26 20 22.52 20 24C20 26.2 21.8 28 24 28C26.2 28 28 26.2 28 24C28 22.52 27.2 21.24 26 20.56V4H24C12.96 4 4 12.96 4 24C4 35.04 12.96 44 24 44C35.04 44 44 35.04 44 24C44 18.48 41.76 13.48 38.14 9.86Z" fill="white"/>
</svg>
