<svg width="24" height="24" viewBox="0 0 24 24" fill="none" xmlns="http://www.w3.org/2000/svg">
<path fill-rule="evenodd" clip-rule="evenodd" d="M22 12C22 6.47784 17.5232 2 12 2C6.47783 2 2 6.47784 2 12C2 17.5222 6.47783 22 12 22C17.5232 22 22 17.5222 22 12ZM12.9463 17.6748C12.9463 18.2271 12.4986 18.6748 11.9463 18.6748C11.394 18.6748 10.9463 18.2271 10.9463 17.6748C10.9463 17.1226 11.394 16.6748 11.9463 16.6748C12.4986 16.6748 12.9463 17.1226 12.9463 17.6748ZM13.8443 12.4871L14.6586 11.6548C15.1743 11.139 15.5 10.4152 15.5 9.61905C15.5 7.61952 13.8805 6 11.881 6C9.88143 6 8.2619 7.61953 8.2619 9.61906C8.2619 10.1187 8.66698 10.5238 9.16667 10.5238C9.66635 10.5238 10.0714 10.1187 10.0714 9.61905C10.0714 8.62381 10.8857 7.80952 11.881 7.80952C12.8762 7.80952 13.6905 8.62381 13.6905 9.61905C13.6905 10.1167 13.4914 10.569 13.1567 10.8948L12.0348 12.0348C11.3833 12.6952 10.9763 13.6 10.9763 14.5953C10.9763 15.0949 11.3813 15.5 11.881 15.5C12.3807 15.5 12.7858 15.0949 12.7858 14.5953L12.7857 14.5846C12.7875 13.472 13.0653 13.2158 13.5281 12.7891L13.5281 12.7891C13.6256 12.6992 13.7313 12.6017 13.8443 12.4871Z" fill="#222222"/>
</svg>
