<svg width="24" height="24" viewBox="0 0 24 24" fill="none" xmlns="http://www.w3.org/2000/svg">
<path d="M12.946 17.6749C12.946 18.2272 12.4983 18.6749 11.946 18.6749C11.3938 18.6749 10.946 18.2272 10.946 17.6749C10.946 17.1226 11.3938 16.6749 11.946 16.6749C12.4983 16.6749 12.946 17.1226 12.946 17.6749Z" fill="#222222"/>
<path fill-rule="evenodd" clip-rule="evenodd" d="M20.5 12C20.5 7.30616 16.6947 3.5 12 3.5C7.30626 3.5 3.5 7.30627 3.5 12C3.5 16.6937 7.30626 20.5 12 20.5C16.6947 20.5 20.5 16.6938 20.5 12ZM22 12C22 6.47784 17.5232 2 12 2C6.47783 2 2 6.47784 2 12C2 17.5222 6.47783 22 12 22C17.5232 22 22 17.5222 22 12Z" fill="#222222"/>
<path d="M14.6588 11.6548L13.8445 12.4871C13.7315 12.6017 13.6258 12.6992 13.5283 12.7891C13.0655 13.2158 12.7877 13.472 12.786 14.5846L12.786 14.5953C12.786 15.0949 12.381 15.5 11.8813 15.5C11.3816 15.5 10.9765 15.0949 10.9765 14.5953C10.9765 13.6 11.3836 12.6952 12.035 12.0348L13.1569 10.8948C13.4917 10.569 13.6907 10.1167 13.6907 9.61905C13.6907 8.62381 12.8764 7.80952 11.8812 7.80952C10.886 7.80952 10.0717 8.62381 10.0717 9.61905C10.0717 10.1187 9.6666 10.5238 9.16691 10.5238C8.66722 10.5238 8.26215 10.1187 8.26215 9.61906C8.26215 7.61953 9.88167 6 11.8812 6C13.8807 6 15.5002 7.61952 15.5002 9.61905C15.5002 10.4152 15.1745 11.139 14.6588 11.6548Z" fill="#222222"/>
</svg>
