<svg width="24" height="24" viewBox="0 0 24 24" fill="none" xmlns="http://www.w3.org/2000/svg">
<path fill-rule="evenodd" clip-rule="evenodd" d="M19.3655 4.96075C19.4519 4.75449 19.2447 4.54723 19.0384 4.63353L3.79093 11.0121L9.69854 13.3008C10.1582 13.4789 10.5214 13.8426 10.6989 14.3025L12.9784 20.2084L19.3655 4.96075ZM18.4595 3.24974C19.9037 2.64561 21.3538 4.09644 20.749 5.5403L14.3382 20.8447C14.1085 21.3931 13.572 21.75 12.9775 21.75C12.3677 21.75 11.8207 21.3748 11.6012 20.8059L9.29956 14.8426C9.2742 14.7769 9.22231 14.725 9.15665 14.6995L3.19251 12.3889C2.62442 12.1688 2.25 11.6222 2.25 11.0129C2.25 10.418 2.60728 9.88127 3.15612 9.65167L18.4595 3.24974Z" fill="#222222"/>
</svg>
