<svg width="24" height="24" viewBox="0 0 24 24" fill="none" xmlns="http://www.w3.org/2000/svg">
<path d="M3.23672 11.4914C3.15234 11.2102 3.11016 10.9195 3.11016 10.6242C3.11016 9.96094 3.32812 9.32344 3.72187 8.80313C3.6375 8.52188 3.59531 8.23125 3.59531 7.93594C3.59531 7.27266 3.81328 6.63516 4.20703 6.11484C4.12266 5.83359 4.08047 5.54297 4.08047 5.24766C4.08047 4.03828 4.8 2.94844 5.91563 2.47266C6.11172 2.38811 6.32318 2.34502 6.53672 2.34609H17.6016V12.3773H17.5945L15.5836 19.6617C15.2602 20.8359 14.182 21.6562 12.9633 21.6562C12.2672 21.6562 11.618 21.3797 11.1375 20.8734C10.657 20.3695 10.4109 19.7086 10.4461 19.0125L10.5867 16.132H4.96406C4.68047 16.132 4.40391 16.057 4.16016 15.9141C3.21328 15.3633 2.625 14.3648 2.625 13.3125C2.625 12.6492 2.84297 12.0117 3.23672 11.4914ZM21.375 3.09375V11.625C21.375 12.0398 21.0398 12.375 20.625 12.375H19.1016V2.34375H20.625C21.0398 2.34375 21.375 2.67891 21.375 3.09375Z" fill="#222222"/>
</svg>
