<svg width="24" height="24" viewBox="0 0 24 24" fill="none" xmlns="http://www.w3.org/2000/svg">
<path d="M12 2.75C17.1086 2.75 21.25 6.89137 21.25 12C21.25 17.1086 17.1086 21.25 12 21.25C6.89137 21.25 2.75 17.1086 2.75 12C2.75 6.89137 6.89137 2.75 12 2.75Z" stroke="#222222" stroke-width="1.5" stroke-linecap="round"/>
<path fill-rule="evenodd" clip-rule="evenodd" d="M7.31485 10.9513C7.68798 10.6234 8.24456 10.674 8.55799 11.0644L10.6622 13.6851L15.4726 8.29325C15.8051 7.92056 16.3634 7.90041 16.7197 8.24826C17.0759 8.59611 17.0952 9.18022 16.7627 9.55291L11.2725 15.7068C11.1002 15.8999 10.8569 16.0066 10.6044 15.9997C10.3519 15.9928 10.1143 15.873 9.95184 15.6706L7.20675 12.2518C6.89332 11.8615 6.94172 11.2792 7.31485 10.9513Z" fill="#222222"/>
</svg>
