<svg width="24" height="24" viewBox="0 0 24 24" fill="none" xmlns="http://www.w3.org/2000/svg">
<path fill-rule="evenodd" clip-rule="evenodd" d="M12 22C17.5228 22 22 17.5228 22 12C22 6.47715 17.5228 2 12 2C6.47715 2 2 6.47715 2 12C2 17.5228 6.47715 22 12 22ZM9.06667 16C9.65577 16 10.1333 15.5523 10.1333 15V9C10.1333 8.44772 9.65577 8 9.06667 8C8.47756 8 8 8.44772 8 9V15C8 15.5523 8.47756 16 9.06667 16ZM14.9333 16C15.5224 16 16 15.5523 16 15V9C16 8.44772 15.5224 8 14.9333 8C14.3442 8 13.8667 8.44772 13.8667 9V15C13.8667 15.5523 14.3442 16 14.9333 16Z" fill="#222222"/>
</svg>
