<svg width="24" height="24" viewBox="0 0 24 24" fill="none" xmlns="http://www.w3.org/2000/svg">
<path d="M17.5 9C19.43 9 21 7.43 21 5.5C21 3.57 19.43 2 17.5 2C15.57 2 14 3.57 14 5.5C14 7.43 15.57 9 17.5 9Z" fill="currentColor"/>
<path d="M11.98 2.83337C12.2877 2.83337 12.5911 2.85175 12.8891 2.88746C12.4506 3.65879 12.2001 4.55051 12.2001 5.50003C12.2001 8.42414 14.576 10.8 17.5001 10.8C18.2237 10.8 18.9137 10.6545 19.5425 10.3913L19.5425 16.3542H20.2876C20.6673 16.3542 20.9751 16.662 20.9751 17.0417C20.9751 17.4214 20.6673 17.7292 20.2876 17.7292H3.7876C3.4079 17.7292 3.1001 17.4214 3.1001 17.0417C3.1001 16.662 3.4079 16.3542 3.7876 16.3542H4.41748V10.3959C4.41748 6.21922 7.80333 2.83337 11.98 2.83337Z" fill="currentColor"/>
<path d="M8.37093 19.5625C7.99123 19.5625 7.68343 19.8703 7.68343 20.25C7.68343 20.6297 7.99123 20.9375 8.37093 20.9375H15.7043C16.084 20.9375 16.3918 20.6297 16.3918 20.25C16.3918 19.8703 16.084 19.5625 15.7043 19.5625H8.37093Z" fill="currentColor"/>
</svg>
