<svg width="24" height="24" viewBox="0 0 24 24" fill="none" xmlns="http://www.w3.org/2000/svg">
<path fill-rule="evenodd" clip-rule="evenodd" d="M12 2C17.5228 2 22 6.47715 22 12C22 17.5228 17.5228 22 12 22C6.47715 22 2 17.5228 2 12C2 6.47715 6.47715 2 12 2ZM8.55799 11.0644C8.24456 10.674 7.68798 10.6234 7.31485 10.9513C6.94172 11.2792 6.89332 11.8615 7.20675 12.2518L9.95184 15.6706C10.1143 15.873 10.3519 15.9928 10.6044 15.9997C10.8569 16.0066 11.1002 15.8999 11.2725 15.7068L16.7627 9.55291C17.0952 9.18022 17.0759 8.59611 16.7197 8.24826C16.3634 7.90041 15.8051 7.92056 15.4726 8.29325L10.6622 13.6851L8.55799 11.0644Z" fill="currentColor"/>
</svg>
