<svg width="24" height="24" viewBox="0 0 24 24" fill="none" xmlns="http://www.w3.org/2000/svg">
<path d="M6 10C6 8.34315 7.34315 7 9 7H13C14.6569 7 16 8.34315 16 10V14C16 15.6569 14.6569 17 13 17H9C7.34315 17 6 15.6569 6 14V10Z" fill="white"/>
<path fill-rule="evenodd" clip-rule="evenodd" d="M6.62055 7.25C6.70372 7.25 6.7763 7.19355 6.79677 7.11293L7.21711 5.45767C7.50764 4.31383 8.66713 3.5 10.0062 3.5H13.9938C15.3329 3.5 16.4924 4.31383 16.7829 5.45767L17.2032 7.11293C17.2237 7.19355 17.2963 7.25 17.3795 7.25H19.1429C20.7209 7.25 22 8.36929 22 9.75V18C22 19.3807 20.7209 20.5 19.1429 20.5H4.85714C3.27912 20.5 2 19.3807 2 18V9.75C2 8.36929 3.27912 7.25 4.85714 7.25H6.62055ZM12 16.5C13.933 16.5 15.5 14.933 15.5 13C15.5 11.067 13.933 9.5 12 9.5C10.067 9.5 8.5 11.067 8.5 13C8.5 14.933 10.067 16.5 12 16.5Z" fill="#222222"/>
</svg>
