<svg width="24" height="24" viewBox="0 0 24 24" fill="none" xmlns="http://www.w3.org/2000/svg">
<path fill-rule="evenodd" clip-rule="evenodd" d="M17.5336 2.15058C16.2649 1.10191 14.3951 1.29093 13.3572 2.57278L3.07069 15.2773C2.5074 15.973 2.28268 16.8873 2.45841 17.7685L3.09123 20.9414C3.26895 21.8325 4.0441 22.4733 4.94376 22.4727L8.14717 22.4708C9.03677 22.4703 9.87922 22.0666 10.4425 21.3709L20.729 8.66636C21.7669 7.38451 21.5798 5.49526 20.3112 4.44659L17.5336 2.15058ZM13.162 5.77405C13.4541 5.43207 13.9652 5.39405 14.3036 5.68912L17.806 8.44345C18.1445 8.73852 18.1821 9.25494 17.8901 9.59692C17.598 9.93889 17.0869 9.97691 16.7485 9.68184L13.2461 6.92752C12.9076 6.63245 12.87 6.11602 13.162 5.77405Z" fill="#222222"/>
</svg>
