<svg width="84" height="84" viewBox="0 0 84 84" fill="none" xmlns="http://www.w3.org/2000/svg">
<g filter="url(#filter0_d_65_2064)">
<rect x="10" y="8" width="60" height="60" rx="8" fill="white"/>
</g>
<g opacity="0.8">
<path d="M50.57 30.9824L49.4675 28.5324L47.0175 27.4299C46.335 27.1149 46.335 26.1524 47.0175 25.8374L49.4675 24.7349L50.57 22.2849C50.885 21.6024 51.8475 21.6024 52.1625 22.2849L53.265 24.7349L55.715 25.8374C56.3975 26.1524 56.3975 27.1149 55.715 27.4299L53.265 28.5324L52.1625 30.9824C51.865 31.6649 50.885 31.6649 50.57 30.9824ZM56.24 39.2599L55.68 37.9999C55.365 37.3174 54.4025 37.3174 54.0875 37.9999L53.5275 39.2599L52.25 39.8199C51.5675 40.1349 51.5675 41.0974 52.25 41.4124L53.51 41.9724L54.07 43.2499C54.385 43.9324 55.3475 43.9324 55.6625 43.2499L56.2225 41.9899L57.5 41.4299C58.1825 41.1149 58.1825 40.1524 57.5 39.8374L56.24 39.2599ZM47.42 42.1474L49.5725 43.7749C50.2725 44.2999 50.465 45.2799 50.0275 46.0499L47.1925 50.9499C46.755 51.7199 45.81 52.0349 45.005 51.6849L42.5025 50.6349C42.1525 50.8624 41.7675 51.0899 41.3825 51.2824L41.05 53.9774C40.945 54.8524 40.1925 55.5174 39.3175 55.5174H33.665C32.79 55.5174 32.0375 54.8524 31.9325 53.9774L31.6 51.2824C31.215 51.0899 30.8475 50.8799 30.48 50.6349L27.9775 51.6849C27.1725 52.0349 26.2275 51.7199 25.79 50.9499L22.955 46.0499C22.5175 45.2799 22.71 44.3174 23.41 43.7749L25.5625 42.1474C25.5625 41.9374 25.5625 41.7099 25.5625 41.4999C25.5625 41.2899 25.5625 41.0624 25.58 40.8524L23.4275 39.2249C22.7275 38.6999 22.535 37.7199 22.9725 36.9499L25.8075 32.0499C26.245 31.2799 27.19 30.9649 27.995 31.3149L30.4975 32.3649C30.8475 32.1374 31.2325 31.9099 31.6175 31.7174L31.95 29.0224C32.0375 28.1649 32.79 27.4999 33.665 27.4999H39.3175C40.1925 27.4999 40.945 28.1649 41.05 29.0399L41.3825 31.7349C41.7675 31.9274 42.135 32.1374 42.5025 32.3824L45.005 31.3324C45.81 30.9824 46.755 31.2974 47.1925 32.0674L50.0275 36.9674C50.465 37.7374 50.2725 38.6999 49.5725 39.2424L47.42 40.8699C47.4375 41.0799 47.4375 41.2899 47.4375 41.5174C47.4375 41.7449 47.4375 41.9374 47.42 42.1474ZM41.75 41.4999C41.75 38.5949 39.405 36.2499 36.5 36.2499C33.595 36.2499 31.25 38.5949 31.25 41.4999C31.25 44.4049 33.595 46.7499 36.5 46.7499C39.405 46.7499 41.75 44.4049 41.75 41.4999Z" fill="#363F68"/>
</g>
<defs>
<filter id="filter0_d_65_2064" x="0" y="0" width="84" height="84" filterUnits="userSpaceOnUse" color-interpolation-filters="sRGB">
<feFlood flood-opacity="0" result="BackgroundImageFix"/>
<feColorMatrix in="SourceAlpha" type="matrix" values="0 0 0 0 0 0 0 0 0 0 0 0 0 0 0 0 0 0 127 0" result="hardAlpha"/>
<feOffset dx="2" dy="4"/>
<feGaussianBlur stdDeviation="6"/>
<feComposite in2="hardAlpha" operator="out"/>
<feColorMatrix type="matrix" values="0 0 0 0 0 0 0 0 0 0 0 0 0 0 0 0 0 0 0.06 0"/>
<feBlend mode="normal" in2="BackgroundImageFix" result="effect1_dropShadow_65_2064"/>
<feBlend mode="normal" in="SourceGraphic" in2="effect1_dropShadow_65_2064" result="shape"/>
</filter>
</defs>
</svg>
