<svg width="84" height="84" viewBox="0 0 84 84" fill="none" xmlns="http://www.w3.org/2000/svg">
<g filter="url(#filter0_d_65_2071)">
<rect x="10" y="8" width="60" height="60" rx="8" fill="white"/>
</g>
<g opacity="0.8">
<path fill-rule="evenodd" clip-rule="evenodd" d="M40 24C46.37 24 51.6725 28.5325 52.8625 34.57C57.2431 34.8733 60.7315 38.3559 60.9852 42.7377C58.8826 40.4406 55.8596 39 52.5 39C46.1487 39 41 44.1487 41 50.5C41 51.0084 41.033 51.5091 41.0969 52H29.5C23.7075 52 19 47.2925 19 41.5C19 36.0925 23.095 31.63 28.3625 31.07C30.55 26.87 34.9425 24 40 24Z" fill="#5E6586"/>
<path d="M59.125 50.2325C59.125 49.8475 59.0725 49.4975 59.02 49.13L60.49 47.8525C60.805 47.5725 60.875 47.1175 60.665 46.75L59.6325 44.965C59.4225 44.5975 58.985 44.44 58.6 44.58L56.745 45.21C56.185 44.7375 55.555 44.37 54.855 44.1075L54.47 42.2C54.3825 41.7975 54.0325 41.5 53.6125 41.5H51.5475C51.1275 41.5 50.7775 41.7975 50.69 42.2L50.305 44.1075C49.605 44.37 48.975 44.7375 48.415 45.21L46.56 44.58C46.1575 44.44 45.7375 44.615 45.5275 44.965L44.495 46.75C44.285 47.1175 44.355 47.5725 44.67 47.8525L46.14 49.13C46.0875 49.4975 46.035 49.8475 46.035 50.2325C46.035 50.6175 46.0875 50.9675 46.14 51.335L44.67 52.6125C44.355 52.8925 44.285 53.3475 44.495 53.715L45.5275 55.5C45.7375 55.8675 46.175 56.025 46.56 55.885L48.415 55.255C48.975 55.7275 49.605 56.095 50.305 56.3575L50.69 58.265C50.7775 58.6675 51.1275 58.965 51.5475 58.965H53.6125C54.0325 58.965 54.3825 58.6675 54.47 58.265L54.855 56.3575C55.555 56.095 56.185 55.7275 56.745 55.255L58.6 55.885C59.0025 56.025 59.4225 55.85 59.6325 55.5L60.665 53.715C60.875 53.3475 60.805 52.8925 60.49 52.6125L59.02 51.335C59.0725 50.9675 59.125 50.6175 59.125 50.2325ZM52.5625 53.7325C50.6375 53.7325 49.0625 52.1575 49.0625 50.2325C49.0625 48.3075 50.6375 46.7325 52.5625 46.7325C54.4875 46.7325 56.0625 48.3075 56.0625 50.2325C56.0625 52.1575 54.4875 53.7325 52.5625 53.7325Z" fill="#363F68"/>
</g>
<defs>
<filter id="filter0_d_65_2071" x="0" y="0" width="84" height="84" filterUnits="userSpaceOnUse" color-interpolation-filters="sRGB">
<feFlood flood-opacity="0" result="BackgroundImageFix"/>
<feColorMatrix in="SourceAlpha" type="matrix" values="0 0 0 0 0 0 0 0 0 0 0 0 0 0 0 0 0 0 127 0" result="hardAlpha"/>
<feOffset dx="2" dy="4"/>
<feGaussianBlur stdDeviation="6"/>
<feComposite in2="hardAlpha" operator="out"/>
<feColorMatrix type="matrix" values="0 0 0 0 0 0 0 0 0 0 0 0 0 0 0 0 0 0 0.06 0"/>
<feBlend mode="normal" in2="BackgroundImageFix" result="effect1_dropShadow_65_2071"/>
<feBlend mode="normal" in="SourceGraphic" in2="effect1_dropShadow_65_2071" result="shape"/>
</filter>
</defs>
</svg>
