<svg width="84" height="84" viewBox="0 0 84 84" fill="none" xmlns="http://www.w3.org/2000/svg">
<g filter="url(#filter0_d_65_2059)">
<rect x="10" y="8" width="60" height="60" rx="8" fill="white"/>
</g>
<g opacity="0.8">
<path d="M53.625 43.215C53.59 43.215 53.5725 43.215 53.5375 43.2325C53.1 40.275 50.58 38 47.5 38C45.05 38 42.95 39.4525 41.97 41.535C39.205 41.675 37 43.95 37 46.75C37 49.655 39.345 52 42.25 52L53.625 51.965C56.04 51.965 58 50.005 58 47.59C58 45.175 56.04 43.215 53.625 43.215ZM33.5 24.455V28.1125C29.4225 29.565 26.5 33.4325 26.5 38C26.5 41.0975 27.865 43.845 30 45.77V41.5H33.5V52H23V48.5H27.7775C24.855 45.945 23 42.2 23 38C23 31.4725 27.4625 26.0125 33.5 24.455ZM51 27.5H46.2225C48.725 29.705 50.44 32.7675 50.8775 36.25H47.3425C46.94 33.87 45.715 31.7875 44 30.23V34.5H40.5V24H51V27.5Z" fill="#363F68"/>
</g>
<defs>
<filter id="filter0_d_65_2059" x="0" y="0" width="84" height="84" filterUnits="userSpaceOnUse" color-interpolation-filters="sRGB">
<feFlood flood-opacity="0" result="BackgroundImageFix"/>
<feColorMatrix in="SourceAlpha" type="matrix" values="0 0 0 0 0 0 0 0 0 0 0 0 0 0 0 0 0 0 127 0" result="hardAlpha"/>
<feOffset dx="2" dy="4"/>
<feGaussianBlur stdDeviation="6"/>
<feComposite in2="hardAlpha" operator="out"/>
<feColorMatrix type="matrix" values="0 0 0 0 0 0 0 0 0 0 0 0 0 0 0 0 0 0 0.06 0"/>
<feBlend mode="normal" in2="BackgroundImageFix" result="effect1_dropShadow_65_2059"/>
<feBlend mode="normal" in="SourceGraphic" in2="effect1_dropShadow_65_2059" result="shape"/>
</filter>
</defs>
</svg>
