<svg width="16" height="17" viewBox="0 0 16 17" fill="none" xmlns="http://www.w3.org/2000/svg">
<path d="M7.99325 1.83331C4.31325 1.83331 1.33325 4.81998 1.33325 8.49998C1.33325 12.18 4.31325 15.1666 7.99325 15.1666C11.6799 15.1666 14.6666 12.18 14.6666 8.49998C14.6666 4.81998 11.6799 1.83331 7.99325 1.83331ZM12.6133 5.83331H10.6466C10.4333 4.99998 10.1266 4.19998 9.72659 3.45998C10.9533 3.87998 11.9733 4.73331 12.6133 5.83331ZM7.99992 3.19331C8.55325 3.99331 8.98659 4.87998 9.27325 5.83331H6.72659C7.01325 4.87998 7.44659 3.99331 7.99992 3.19331ZM2.83992 9.83331C2.73325 9.40665 2.66659 8.95998 2.66659 8.49998C2.66659 8.03998 2.73325 7.59331 2.83992 7.16665H5.09325C5.03992 7.60665 4.99992 8.04665 4.99992 8.49998C4.99992 8.95331 5.03992 9.39331 5.09325 9.83331H2.83992ZM3.38659 11.1666H5.35325C5.56659 12 5.87325 12.8 6.27325 13.54C5.04659 13.12 4.02659 12.2733 3.38659 11.1666ZM5.35325 5.83331H3.38659C4.02659 4.72665 5.04659 3.87998 6.27325 3.45998C5.87325 4.19998 5.56659 4.99998 5.35325 5.83331ZM7.99992 13.8066C7.44659 13.0066 7.01325 12.12 6.72659 11.1666H9.27325C8.98659 12.12 8.55325 13.0066 7.99992 13.8066ZM9.55992 9.83331H6.43992C6.37992 9.39331 6.33325 8.95331 6.33325 8.49998C6.33325 8.04665 6.37992 7.59998 6.43992 7.16665H9.55992C9.61992 7.59998 9.66659 8.04665 9.66659 8.49998C9.66659 8.95331 9.61992 9.39331 9.55992 9.83331ZM9.72659 13.54C10.1266 12.8 10.4333 12 10.6466 11.1666H12.6133C11.9733 12.2666 10.9533 13.12 9.72659 13.54ZM10.9066 9.83331C10.9599 9.39331 10.9999 8.95331 10.9999 8.49998C10.9999 8.04665 10.9599 7.60665 10.9066 7.16665H13.1599C13.2666 7.59331 13.3333 8.03998 13.3333 8.49998C13.3333 8.95998 13.2666 9.40665 13.1599 9.83331H10.9066Z" fill="white"/>
</svg>
