<svg width="42" height="42" viewBox="0 0 42 42" fill="none" xmlns="http://www.w3.org/2000/svg">
<path opacity="0.3" d="M24.6225 26.6525C24.8325 25.97 24.9375 25.2525 24.9375 24.5C24.9375 23.7475 24.8325 23.03 24.6225 22.3475L27.23 20.37L25.9525 18.1475L22.925 19.425C21.945 18.375 20.65 17.605 19.1975 17.2725L18.7775 14H16.2225L15.8025 17.255C14.35 17.5875 13.055 18.3575 12.075 19.4075L9.04752 18.13L7.77002 20.3525L10.3775 22.33C10.1675 23.0125 10.0625 23.73 10.0625 24.4825C10.0625 25.235 10.1675 25.9525 10.3775 26.635L7.77002 28.6125L9.04752 30.835L12.075 29.5575C13.055 30.6075 14.35 31.3775 15.8025 31.71L16.2225 35H18.795L19.1975 31.745C20.65 31.4125 21.945 30.6425 22.925 29.5925L25.9525 30.87L27.23 28.6475L24.6225 26.6525ZM17.5 29.75C14.595 29.75 12.25 27.405 12.25 24.5C12.25 21.595 14.595 19.25 17.5 19.25C20.405 19.25 22.75 21.595 22.75 24.5C22.75 27.405 20.405 29.75 17.5 29.75Z" fill="#363F68"/>
<path d="M17.5001 22.75C18.4626 22.75 19.2501 23.5375 19.2501 24.5C19.2501 25.4625 18.4626 26.25 17.5001 26.25C16.5376 26.25 15.7501 25.4625 15.7501 24.5C15.7501 23.5375 16.5376 22.75 17.5001 22.75ZM17.5001 19.25C14.5951 19.25 12.2501 21.595 12.2501 24.5C12.2501 27.405 14.5951 29.75 17.5001 29.75C20.4051 29.75 22.7501 27.405 22.7501 24.5C22.7501 21.595 20.4051 19.25 17.5001 19.25ZM32.3751 15.75L34.2826 11.5325L38.5001 9.625L34.2826 7.7175L32.3751 3.5L30.4676 7.7175L26.2501 9.625L30.4676 11.5325L32.3751 15.75ZM37.2401 22.26L35.8751 19.25L34.5101 22.26L31.5001 23.625L34.5101 24.99L35.8751 28L37.2401 24.99L40.2501 23.625L37.2401 22.26ZM28.4376 24.5C28.4376 24.29 28.4376 24.0625 28.4201 23.8525L31.8151 21.28L27.4401 13.7025L23.5201 15.3475C23.1701 15.12 22.7851 14.8925 22.4001 14.7L21.8751 10.5H13.1251L12.6001 14.7175C12.2151 14.91 11.8476 15.1375 11.4801 15.365L7.56006 13.7025L3.18506 21.28L6.58006 23.8525C6.56256 24.0625 6.56256 24.29 6.56256 24.5C6.56256 24.71 6.56256 24.9375 6.58006 25.1475L3.18506 27.72L7.56006 35.2975L11.4801 33.6525C11.8301 33.88 12.2151 34.1075 12.6001 34.3L13.1251 38.5H21.8751L22.4001 34.2825C22.7851 34.09 23.1526 33.88 23.5201 33.635L27.4401 35.28L31.8151 27.7025L28.4201 25.13C28.4376 24.9375 28.4376 24.71 28.4376 24.5ZM25.9526 30.87L22.9251 29.5925C21.9451 30.6425 20.6501 31.4125 19.1976 31.745L18.7776 35H16.2226L15.8201 31.745C14.3676 31.4125 13.0726 30.6425 12.0926 29.5925L9.06506 30.87L7.78756 28.6475L10.3951 26.67C10.1851 25.9875 10.0801 25.27 10.0801 24.5175C10.0801 23.765 10.1851 23.0475 10.3951 22.365L7.78756 20.3875L9.06506 18.165L12.0926 19.4425C13.0726 18.3925 14.3676 17.6225 15.8201 17.29L16.2226 14H18.7951L19.1976 17.255C20.6501 17.5875 21.9451 18.3575 22.9251 19.4075L25.9526 18.13L27.2301 20.3525L24.6226 22.33C24.8326 23.0125 24.9376 23.73 24.9376 24.4825C24.9376 25.235 24.8326 25.9525 24.6226 26.635L27.2301 28.6125L25.9526 30.87Z" fill="#363F68"/>
</svg>
