<svg width="42" height="39" viewBox="0 0 42 39" fill="none" xmlns="http://www.w3.org/2000/svg">
<g opacity="0.3">
<path opacity="0.3" d="M37.6425 29.1156H26.25C25.2875 29.1156 24.5 28.3878 24.5 27.4981C24.5 26.6085 25.2875 25.8806 26.25 25.8806H28.4375V25.4762C28.4375 23.9072 29.8025 22.6455 31.5 22.6455C33.1975 22.6455 34.5625 23.9072 34.5625 25.4762V27.4981C34.5625 27.4981 37.625 27.4981 37.6425 27.4981C38.1325 27.4981 38.5175 27.854 38.5175 28.3069C38.5 28.7436 38.115 29.1156 37.6425 29.1156Z" fill="#363F68"/>
</g>
<path d="M37.625 24.2307C37.59 24.2307 37.5725 24.2307 37.5375 24.2468C37.1 21.5132 34.58 19.4104 31.5 19.4104C29.05 19.4104 26.95 20.753 25.97 22.6778C23.205 22.8072 21 24.91 21 27.4981C21 30.1832 23.345 32.3507 26.25 32.3507L37.625 32.3183C40.04 32.3183 42 30.5067 42 28.2745C42 26.0423 40.04 24.2307 37.625 24.2307ZM37.6425 29.1156H26.25C25.2875 29.1156 24.5 28.3877 24.5 27.4981C24.5 26.6084 25.2875 25.8805 26.25 25.8805H28.4375V25.4762C28.4375 23.9072 29.8025 22.6455 31.5 22.6455C33.1975 22.6455 34.5625 23.9072 34.5625 25.4762V27.4981C34.5625 27.4981 37.625 27.4981 37.6425 27.4981C38.1325 27.4981 38.5175 27.8539 38.5175 28.3068C38.5 28.7436 38.115 29.1156 37.6425 29.1156ZM17.5 6.89071V10.2714C13.4225 11.6139 10.5 15.1887 10.5 19.4104C10.5 22.2734 11.865 24.813 14 26.5923V22.6455H17.5V32.3507H7V29.1156H11.7775C8.855 26.754 7 23.2925 7 19.4104C7 13.377 11.4625 8.33032 17.5 6.89071ZM35 9.70522H30.2225C32.725 11.7433 34.44 14.574 34.8775 17.7929H31.3425C30.94 15.593 29.715 13.6682 28 12.2286V16.1753H24.5V6.47015H35V9.70522Z" fill="#363F68"/>
</svg>
