<svg width="42" height="39" viewBox="0 0 42 39" fill="none" xmlns="http://www.w3.org/2000/svg">
<path opacity="0.3" d="M22.75 11.4846V8.08777H19.25V11.4846C19.81 11.3876 20.405 11.3229 21 11.3229C21.595 11.3229 22.19 11.3876 22.75 11.4846Z" fill="#363F68"/>
<path d="M22.75 30.7334H19.25V35.586H22.75V30.7334Z" fill="#363F68"/>
<path d="M8.75 17.793H3.5V21.0281H8.75V17.793Z" fill="#363F68"/>
<path d="M38.5 17.793H33.25V21.0281H38.5V17.793Z" fill="#363F68"/>
<path d="M30.2772 26.5185L27.8147 28.7946L31.527 32.2258L33.9895 29.9498L30.2772 26.5185Z" fill="#363F68"/>
<path d="M11.7345 26.5071L8.02222 29.9384L10.4847 32.2144L14.197 28.7832L11.7345 26.5071Z" fill="#363F68"/>
<path d="M26.25 12.9727V4.85266H15.75V12.9727C13.6325 14.4609 12.25 16.774 12.25 19.4106C12.25 23.875 16.17 27.4983 21 27.4983C25.83 27.4983 29.75 23.875 29.75 19.4106C29.75 16.774 28.3675 14.4609 26.25 12.9727ZM19.25 8.08775H22.75V11.4846C22.19 11.3875 21.595 11.3228 21 11.3228C20.405 11.3228 19.81 11.3875 19.25 11.4846V8.08775ZM21 24.2632C18.1125 24.2632 15.75 22.0795 15.75 19.4106C15.75 16.7416 18.1125 14.5579 21 14.5579C23.8875 14.5579 26.25 16.7416 26.25 19.4106C26.25 22.0795 23.8875 24.2632 21 24.2632Z" fill="#363F68"/>
</svg>
