<svg width="42" height="39" viewBox="0 0 42 39" fill="none" xmlns="http://www.w3.org/2000/svg">
<path opacity="0.3" d="M5.25 16.9843C4.2875 16.9843 3.5 16.2564 3.5 15.3668C3.5 14.4771 4.2875 13.7492 5.25 13.7492C6.2125 13.7492 7 14.4771 7 15.3668C7 16.2564 6.2125 16.9843 5.25 16.9843ZM10.5 33.9686C9.5375 33.9686 8.75 33.2407 8.75 32.3511C8.75 31.4614 9.5375 30.7335 10.5 30.7335C11.4625 30.7335 12.25 31.4614 12.25 32.3511C12.25 33.2407 11.4625 33.9686 10.5 33.9686ZM19.25 4.85266C19.25 3.96301 20.0375 3.23511 21 3.23511C21.9625 3.23511 22.75 3.96301 22.75 4.85266C22.75 5.74232 21.9625 6.47021 21 6.47021C20.0375 6.47021 19.25 5.74232 19.25 4.85266ZM21 24.2633C18.585 24.2633 16.625 22.4516 16.625 20.2194C16.625 17.9872 18.585 16.1755 21 16.1755C23.415 16.1755 25.375 17.9872 25.375 20.2194C25.375 22.4516 23.415 24.2633 21 24.2633ZM31.5 30.7335C32.4625 30.7335 33.25 31.4614 33.25 32.3511C33.25 33.2407 32.4625 33.9686 31.5 33.9686C30.5375 33.9686 29.75 33.2407 29.75 32.3511C29.75 31.4614 30.5375 30.7335 31.5 30.7335ZM36.75 16.9843C35.7875 16.9843 35 16.2564 35 15.3668C35 14.4771 35.7875 13.7492 36.75 13.7492C37.7125 13.7492 38.5 14.4771 38.5 15.3668C38.5 16.2564 37.7125 16.9843 36.75 16.9843Z" fill="#363F68"/>
<path d="M36.75 10.5141C33.845 10.5141 31.5 12.6816 31.5 15.3668C31.5 15.48 31.5 15.5932 31.5175 15.7064L27.965 16.8064C26.845 14.8491 24.78 13.4257 22.33 13.0537V9.55974C24.57 9.00977 26.25 7.11723 26.25 4.85266C26.25 2.16752 23.905 0 21 0C18.095 0 15.75 2.16752 15.75 4.85266C15.75 7.11723 17.43 9.00977 19.6875 9.55974V13.0537C17.2375 13.4257 15.1725 14.8491 14.0525 16.8064L10.4825 15.7064C10.5 15.5932 10.5 15.48 10.5 15.3668C10.5 12.6816 8.155 10.5141 5.25 10.5141C2.345 10.5141 0 12.6816 0 15.3668C0 18.0519 2.345 20.2194 5.25 20.2194C7.105 20.2194 8.715 19.3298 9.66 18.0034L13.2125 19.1033C12.8625 21.1899 13.51 23.406 15.12 25.0721L12.6525 27.9351C11.9875 27.644 11.27 27.4984 10.5 27.4984C7.595 27.4984 5.25 29.6659 5.25 32.3511C5.25 35.0362 7.595 37.2037 10.5 37.2037C13.405 37.2037 15.75 35.0362 15.75 32.3511C15.75 31.2511 15.365 30.2482 14.7 29.4395L17.1675 26.5764C19.5475 27.8057 22.4525 27.7896 24.815 26.5764L27.2825 29.4395C26.635 30.2482 26.25 31.2511 26.25 32.3511C26.25 35.0362 28.595 37.2037 31.5 37.2037C34.405 37.2037 36.75 35.0362 36.75 32.3511C36.75 29.6659 34.405 27.4984 31.5 27.4984C30.73 27.4984 30.0125 27.644 29.3475 27.919L26.88 25.0559C28.5075 23.3736 29.1375 21.1738 28.7875 19.0871L32.34 17.9872C33.2675 19.3136 34.895 20.2032 36.75 20.2032C39.655 20.2032 42 18.0357 42 15.3506C42 12.6654 39.655 10.5141 36.75 10.5141ZM5.25 16.9843C4.2875 16.9843 3.5 16.2564 3.5 15.3668C3.5 14.4771 4.2875 13.7492 5.25 13.7492C6.2125 13.7492 7 14.4771 7 15.3668C7 16.2564 6.2125 16.9843 5.25 16.9843ZM10.5 33.9686C9.5375 33.9686 8.75 33.2407 8.75 32.3511C8.75 31.4614 9.5375 30.7335 10.5 30.7335C11.4625 30.7335 12.25 31.4614 12.25 32.3511C12.25 33.2407 11.4625 33.9686 10.5 33.9686ZM19.25 4.85266C19.25 3.963 20.0375 3.23511 21 3.23511C21.9625 3.23511 22.75 3.963 22.75 4.85266C22.75 5.74231 21.9625 6.47021 21 6.47021C20.0375 6.47021 19.25 5.74231 19.25 4.85266ZM21 24.2633C18.585 24.2633 16.625 22.4516 16.625 20.2194C16.625 17.9872 18.585 16.1755 21 16.1755C23.415 16.1755 25.375 17.9872 25.375 20.2194C25.375 22.4516 23.415 24.2633 21 24.2633ZM31.5 30.7335C32.4625 30.7335 33.25 31.4614 33.25 32.3511C33.25 33.2407 32.4625 33.9686 31.5 33.9686C30.5375 33.9686 29.75 33.2407 29.75 32.3511C29.75 31.4614 30.5375 30.7335 31.5 30.7335ZM36.75 16.9843C35.7875 16.9843 35 16.2564 35 15.3668C35 14.4771 35.7875 13.7492 36.75 13.7492C37.7125 13.7492 38.5 14.4771 38.5 15.3668C38.5 16.2564 37.7125 16.9843 36.75 16.9843Z" fill="#363F68"/>
</svg>
