<svg width="42" height="42" viewBox="0 0 42 42" fill="none" xmlns="http://www.w3.org/2000/svg">
<path opacity="0.3" d="M18.375 16.52L27.685 20.0025C29.855 20.8075 31.5525 22.47 32.48 24.5H33.25V13.125L24.5 7L15.75 13.125V15.75H16.3275L18.375 16.52ZM25.375 12.25H27.125V14H25.375V12.25ZM25.375 15.75H27.125V17.5H25.375V15.75ZM21.875 12.25H23.625V14H21.875V12.25ZM21.875 15.75H23.625V17.5H21.875V15.75ZM5.25 22.75H8.75V35H5.25V22.75ZM34.825 32.4975L24.4475 35.7175L12.25 32.34V22.75H15.0675L25.2525 26.5475C25.8475 26.775 26.25 27.3525 26.25 28C26.25 28 22.7675 27.9125 22.225 27.7375L18.06 26.355L16.9575 29.68L21.1225 31.0625C22.015 31.36 22.9425 31.5175 23.8875 31.5175H33.25C33.9325 31.5175 34.545 31.92 34.825 32.4975Z" fill="#363F68"/>
<path d="M27.125 12.25H25.375V14H27.125V12.25ZM23.625 12.25H21.875V14H23.625V12.25ZM27.125 15.75H25.375V17.5H27.125V15.75ZM23.625 15.75H21.875V17.5H23.625V15.75ZM36.75 11.375V24.5H33.25V13.125L24.5 7L15.75 13.125V15.75H12.25V11.375L24.5 2.625L36.75 11.375ZM33.25 28H29.75C29.75 25.9 28.4375 24.01 26.4775 23.275L15.6975 19.25H1.75V38.5H12.25V35.98L24.5 39.375L38.5 35V33.25C38.5 30.345 36.155 28 33.25 28ZM5.25 35V22.75H8.75V35H5.25ZM24.4475 35.7175L12.25 32.34V22.75H15.0675L25.2525 26.5475C25.8475 26.775 26.25 27.3525 26.25 28C26.25 28 22.7675 27.9125 22.225 27.7375L18.06 26.355L16.9575 29.68L21.1225 31.0625C22.015 31.36 22.9425 31.5175 23.8875 31.5175H33.25C33.9325 31.5175 34.545 31.92 34.825 32.4975L24.4475 35.7175Z" fill="#363F68"/>
</svg>
