<svg width="24" height="24" viewBox="0 0 24 24" fill="none" xmlns="http://www.w3.org/2000/svg">
<path fill-rule="evenodd" clip-rule="evenodd" d="M9.62852 2C9.14012 2 8.74419 2.39593 8.74419 2.88433V4.63935C6.4338 4.81082 4.60899 6.72674 4.58229 9.07463H3.42901C2.94061 9.07463 2.54468 9.47055 2.54468 9.95896C2.54468 10.4474 2.94061 10.8433 3.42901 10.8433H4.58199V13.791H3.42901C2.94061 13.791 2.54468 14.187 2.54468 14.6754C2.54468 15.1638 2.94061 15.5597 3.42901 15.5597H4.62741C4.92327 17.6317 6.63052 19.2486 8.74419 19.4054V20.8657C8.74419 21.3541 9.14012 21.75 9.62852 21.75C10.1169 21.75 10.5128 21.3541 10.5128 20.8657V19.4179H13.4606V20.8657C13.4606 21.3541 13.8565 21.75 14.3449 21.75C14.8333 21.75 15.2293 21.3541 15.2293 20.8657V19.404C17.3344 19.2392 19.0326 17.6256 19.3276 15.5597H20.8208C21.3092 15.5597 21.7051 15.1638 21.7051 14.6754C21.7051 14.187 21.3092 13.791 20.8208 13.791H19.373V10.8433H20.8208C21.3092 10.8433 21.7051 10.4474 21.7051 9.95896C21.7051 9.47055 21.3092 9.07463 20.8208 9.07463H19.3727C19.3461 6.73299 17.5309 4.82101 15.2293 4.64076V2.88433C15.2293 2.39593 14.8333 2 14.3449 2C13.8565 2 13.4606 2.39593 13.4606 2.88433V4.62687H10.5128V2.88433C10.5128 2.39593 10.1169 2 9.62852 2ZM17.873 14.9179C17.873 16.5748 16.5299 17.9179 14.873 17.9179H9.08199C7.42514 17.9179 6.08199 16.5748 6.08199 14.9179V9.12687C6.08199 7.47001 7.42514 6.12687 9.08199 6.12687H14.873C16.5299 6.12687 17.873 7.47001 17.873 9.12687V14.9179ZM10.9999 10.4H12.9999C13.3313 10.4 13.5999 10.6686 13.5999 11V13C13.5999 13.3314 13.3313 13.6 12.9999 13.6H10.9999C10.6685 13.6 10.3999 13.3314 10.3999 13V11C10.3999 10.6686 10.6685 10.4 10.9999 10.4ZM14.9999 11C14.9999 9.89543 14.1045 9 12.9999 9H10.9999C9.89533 9 8.9999 9.89543 8.9999 11V13C8.9999 14.1046 9.89533 15 10.9999 15H12.9999C14.1045 15 14.9999 14.1046 14.9999 13V11Z" fill="#222222"/>
</svg>
