<svg width="24" height="24" viewBox="0 0 24 24" fill="none" xmlns="http://www.w3.org/2000/svg">
<path fill-rule="evenodd" clip-rule="evenodd" d="M6.25 2.5C5.83591 2.5 5.5 2.83591 5.5 3.25C5.5 3.66409 5.83591 4 6.25 4H6.75V4.38646V4.92891C6.75 6.45331 7.3559 7.91598 8.43402 8.9941L11.4373 12L8.43418 15.0057C7.35603 16.0839 6.75 17.5467 6.75 19.0703V20H6.25C5.8356 20 5.5 20.335 5.5 20.75C5.5 21.165 5.8356 21.5 6.25 21.5H18.75C19.1653 21.5 19.5 21.1653 19.5 20.75C19.5 20.3347 19.1653 20 18.75 20H18.25V19.0703C18.25 17.547 17.6428 16.0843 16.5644 15.0059L13.5629 12L16.3324 9.22647L16.5644 8.9941C17.6428 7.91575 18.25 6.45299 18.25 4.92891V4H18.75C19.165 4 19.5 3.6644 19.5 3.25C19.5 2.8356 19.165 2.5 18.75 2.5H6.25Z" fill="#222222"/>
</svg>
