<svg width="24" height="24" viewBox="0 0 24 24" fill="none" xmlns="http://www.w3.org/2000/svg">
<path fill-rule="evenodd" clip-rule="evenodd" d="M6.25 2.5C5.83591 2.5 5.5 2.83591 5.5 3.25C5.5 3.66409 5.83591 4 6.25 4H6.75V4.38646V4.92891C6.75 6.45331 7.3559 7.91598 8.43402 8.9941L11.4373 12L8.43418 15.0057C7.35603 16.0839 6.75 17.5467 6.75 19.0703V20H6.25C5.8356 20 5.5 20.335 5.5 20.75C5.5 21.165 5.8356 21.5 6.25 21.5H18.75C19.1653 21.5 19.5 21.1653 19.5 20.75C19.5 20.3347 19.1653 20 18.75 20H18.25V19.0703C18.25 17.547 17.6428 16.0843 16.5644 15.0059L13.5629 12L16.3324 9.22647L16.5644 8.9941C17.6428 7.91575 18.25 6.45299 18.25 4.92891V4H18.75C19.165 4 19.5 3.6644 19.5 3.25C19.5 2.8356 19.165 2.5 18.75 2.5H6.25ZM14.925 8.51561L15.5056 7.93584C16.3029 7.13857 16.75 6.05394 16.75 4.92891V4H8.25V4.92891C8.25 5.00177 8.25187 5.07447 8.2556 5.14693C8.30938 6.19316 8.74875 7.19023 9.49436 7.93584L12.5 10.9371L14.925 8.51561ZM9.49436 16.0642C8.69712 16.8614 8.25 17.946 8.25 19.0703V20H16.75V19.0703C16.75 17.946 16.3031 16.8617 15.5059 16.0644L12.5 13.0629L9.49436 16.0642Z" fill="#222222"/>
</svg>
