<svg width="24" height="24" viewBox="0 0 24 24" fill="none" xmlns="http://www.w3.org/2000/svg">
<path fill-rule="evenodd" clip-rule="evenodd" d="M2 5.42857C2 3.53502 3.49238 2 5.33333 2H18.6667C20.5076 2 22 3.53502 22 5.42857V14.5714C22 16.465 20.5076 18 18.6667 18H11.8113L8.40082 21.5793C8.14486 21.848 7.79001 22 7.41896 22C6.67494 22 6.06984 21.4006 6.06282 20.6566L6.03775 18H5.33333C3.49238 18 2 16.465 2 14.5714V5.42857ZM11.9998 4.5C12.4517 4.5 12.818 4.86631 12.818 5.31818V10.8636C12.818 11.3155 12.4517 11.6818 11.9998 11.6818C11.548 11.6818 11.1816 11.3155 11.1816 10.8636V5.31818C11.1816 4.86631 11.548 4.5 11.9998 4.5ZM12.091 15.5C12.6935 15.5 13.1819 15.0116 13.1819 14.4091C13.1819 13.8066 12.6935 13.3182 12.091 13.3182C11.4885 13.3182 11.0001 13.8066 11.0001 14.4091C11.0001 15.0116 11.4885 15.5 12.091 15.5Z" fill="#222222"/>
</svg>
