<svg width="24" height="24" viewBox="0 0 24 24" fill="none" xmlns="http://www.w3.org/2000/svg">
<path d="M10.389 18.9628C14.3776 18.0009 17.3408 14.409 17.3408 10.125C17.3408 8.86521 17.0846 7.66526 16.6213 6.57445C20.1459 6.90521 22.9089 10.022 22.9089 13.8182C22.9089 15.6802 22.2442 17.3788 21.1508 18.6653L22.7561 20.4445C22.9761 20.6883 22.8119 21.0909 22.4925 21.0909L15.2726 21.0909C13.4999 21 11.6392 20.2777 10.389 18.9628Z" fill="#222222"/>
<path d="M8.72721 2.90906C12.543 2.90906 15.6362 6.16518 15.6362 10.1818C15.6362 14.1984 12.543 17.4546 8.72721 17.4546L7.63633 17.4545H1.50731C1.18784 17.4545 1.02363 17.052 1.24364 16.8081L2.84895 15.029C1.7556 13.7424 1.09082 12.0438 1.09082 10.1818C1.09082 6.16518 4.18414 2.90906 7.99993 2.90906H8.72721Z" fill="#222222"/>
</svg>
