<svg width="24" height="24" viewBox="0 0 24 24" fill="none" xmlns="http://www.w3.org/2000/svg">
<path fill-rule="evenodd" clip-rule="evenodd" d="M8.85985 2C7.99905 2 7.24579 2.57624 7.024 3.40442L6.67949 4.69083H2.81429C2.36457 4.69083 2 5.05384 2 5.50164C2 5.94943 2.36457 6.31245 2.81429 6.31245H20.1857C20.6354 6.31245 21 5.94943 21 5.50164C21 5.05384 20.6354 4.69083 20.1857 4.69083H16.3205L15.976 3.40442C15.7542 2.57624 15.001 2 14.1402 2H8.85985ZM14.635 4.69083L14.4024 3.82225C14.3707 3.70394 14.2631 3.62162 14.1402 3.62162H8.85985C8.73687 3.62162 8.62927 3.70394 8.59758 3.82225L8.36497 4.69083H14.635ZM3.82628 8.48982C4.27415 8.44927 4.67023 8.77793 4.71094 9.22389L5.52736 18.1662C5.64175 19.4191 6.07143 20.3784 7.96019 20.3784H15.0398C16.9286 20.3784 17.3583 19.4191 17.4726 18.1662L18.2891 9.22389C18.3298 8.77793 18.7259 8.44927 19.1737 8.48982C19.6216 8.53036 19.9517 8.92475 19.9109 9.3707L19.0945 18.313C18.9039 20.4011 18.2891 22 15.0398 22H7.96019C4.98571 22 4.09612 20.4011 3.90548 18.313L3.08906 9.3707C3.04834 8.92475 3.37841 8.53036 3.82628 8.48982ZM12.5857 11.7297C12.5857 11.2819 12.2211 10.9189 11.7714 10.9189C11.3217 10.9189 10.9571 11.2819 10.9571 11.7297V16.5946C10.9571 17.0424 11.3217 17.4054 11.7714 17.4054C12.2211 17.4054 12.5857 17.0424 12.5857 16.5946V11.7297Z" fill="#222222"/>
</svg>
