<svg width="24" height="24" viewBox="0 0 24 24" fill="none" xmlns="http://www.w3.org/2000/svg">
<path d="M17 11.75C17 12.7165 17.7835 13.5 18.75 13.5C19.7165 13.5 20.5 12.7165 20.5 11.75C20.5 10.7835 19.7165 10 18.75 10C17.7835 10 17 10.7835 17 11.75Z" fill="#222222"/>
<path d="M11.75 13.5C10.7835 13.5 10 12.7165 10 11.75C10 10.7835 10.7835 10 11.75 10C12.7165 10 13.5 10.7835 13.5 11.75C13.5 12.7165 12.7165 13.5 11.75 13.5Z" fill="#222222"/>
<path d="M4.75 13.5C3.7835 13.5 3 12.7165 3 11.75C3 10.7835 3.7835 10 4.75 10C5.7165 10 6.5 10.7835 6.5 11.75C6.5 12.7165 5.7165 13.5 4.75 13.5Z" fill="#222222"/>
</svg>
