<svg width="24" height="24" viewBox="0 0 24 24" fill="none" xmlns="http://www.w3.org/2000/svg">
<path d="M11.75 17C10.7835 17 10 17.7835 10 18.75C10 19.7165 10.7835 20.5 11.75 20.5C12.7165 20.5 13.5 19.7165 13.5 18.75C13.5 17.7835 12.7165 17 11.75 17Z" fill="#222222"/>
<path d="M10 11.75C10 10.7835 10.7835 10 11.75 10C12.7165 10 13.5 10.7835 13.5 11.75C13.5 12.7165 12.7165 13.5 11.75 13.5C10.7835 13.5 10 12.7165 10 11.75Z" fill="#222222"/>
<path d="M10 4.75C10 3.7835 10.7835 3 11.75 3C12.7165 3 13.5 3.7835 13.5 4.75C13.5 5.7165 12.7165 6.5 11.75 6.5C10.7835 6.5 10 5.7165 10 4.75Z" fill="#222222"/>
</svg>
