<svg width="24" height="24" viewBox="0 0 24 24" fill="none" xmlns="http://www.w3.org/2000/svg">
<path fill-rule="evenodd" clip-rule="evenodd" d="M12.0003 3.5C7.30571 3.5 3.5 7.30571 3.5 12.0003C3.5 16.6949 7.30571 20.5006 12.0003 20.5006C16.6949 20.5006 20.5006 16.6949 20.5006 12.0003C20.5006 7.30571 16.6949 3.5 12.0003 3.5ZM2 12.0003C2 6.47728 6.47728 2 12.0003 2C17.5233 2 22.0006 6.47728 22.0006 12.0003C22.0006 17.5233 17.5233 22.0006 12.0003 22.0006C6.47728 22.0006 2 17.5233 2 12.0003ZM8.22483 8.68744C8.73571 8.68744 9.14986 9.10159 9.14986 9.61247V10.5375C9.14986 11.0484 8.73571 11.4625 8.22483 11.4625C7.71395 11.4625 7.2998 11.0484 7.2998 10.5375V9.61247C7.2998 9.10159 7.71395 8.68744 8.22483 8.68744ZM15.7751 8.68744C16.286 8.68744 16.7002 9.10159 16.7002 9.61247V10.5375C16.7002 11.0484 16.286 11.4625 15.7751 11.4625C15.2642 11.4625 14.8501 11.0484 14.8501 10.5375V9.61247C14.8501 9.10159 15.2642 8.68744 15.7751 8.68744ZM9.28139 13.9991C8.98247 13.7124 8.5077 13.7222 8.22096 14.0212C7.93422 14.3201 7.9441 14.7949 8.24302 15.0816C9.19687 15.9966 10.4825 16.4101 11.9998 16.4101C13.5171 16.4101 14.8027 15.9966 15.7566 15.0816C16.0555 14.7949 16.0654 14.3201 15.7787 14.0212C15.4919 13.7222 15.0171 13.7124 14.7182 13.9991C14.1157 14.5771 13.2429 14.9101 11.9998 14.9101C10.7567 14.9101 9.88394 14.5771 9.28139 13.9991Z" fill="#222222"/>
</svg>
