<svg width="24" height="24" viewBox="0 0 24 24" fill="none" xmlns="http://www.w3.org/2000/svg">
<path d="M3 10.65C3 10.291 3.30279 10 3.6763 10C4.04981 10 4.3526 10.291 4.3526 10.65V13.35C4.3526 13.709 4.04981 14 3.6763 14C3.30279 14 3 13.709 3 13.35V10.65Z" fill="#222222"/>
<path d="M7.16185 6.65C7.16185 6.29101 7.46464 6 7.83815 6C8.21166 6 8.51445 6.29101 8.51445 6.65V17.35C8.51445 17.709 8.21166 18 7.83815 18C7.46464 18 7.16185 17.709 7.16185 17.35V6.65Z" fill="#222222"/>
<path d="M11.3237 2.65C11.3237 2.29101 11.6265 2 12 2C12.3735 2 12.6763 2.29101 12.6763 2.65V21.35C12.6763 21.709 12.3735 22 12 22C11.6265 22 11.3237 21.709 11.3237 21.35V2.65Z" fill="#222222"/>
<path d="M15.4855 6.65C15.4855 6.29101 15.7883 6 16.1618 6C16.5354 6 16.8382 6.29101 16.8382 6.65V17.35C16.8382 17.709 16.5354 18 16.1618 18C15.7883 18 15.4855 17.709 15.4855 17.35V6.65Z" fill="#222222"/>
<path d="M19.6474 10.65C19.6474 10.291 19.9502 10 20.3237 10C20.6972 10 21 10.291 21 10.65V13.35C21 13.709 20.6972 14 20.3237 14C19.9502 14 19.6474 13.709 19.6474 13.35V10.65Z" fill="#222222"/>
</svg>
