<svg width="24" height="24" viewBox="0 0 24 24" fill="none" xmlns="http://www.w3.org/2000/svg">
<path fill-rule="evenodd" clip-rule="evenodd" d="M2 6C2 5.44772 2.58398 5 3.30435 5H20.6957C21.416 5 22 5.44772 22 6C22 6.55228 21.416 7 20.6957 7H3.30435C2.58398 7 2 6.55228 2 6ZM2 12C2 11.4477 2.58398 11 3.30435 11H20.6957C21.416 11 22 11.4477 22 12C22 12.5523 21.416 13 20.6957 13H3.30435C2.58398 13 2 12.5523 2 12ZM3.30435 17C2.58398 17 2 17.4477 2 18C2 18.5523 2.58398 19 3.30435 19H20.6957C21.416 19 22 18.5523 22 18C22 17.4477 21.416 17 20.6957 17H3.30435Z" fill="#222222"/>
</svg>
