<svg width="24" height="24" viewBox="0 0 24 24" fill="none" xmlns="http://www.w3.org/2000/svg">
<path fill-rule="evenodd" clip-rule="evenodd" d="M1 12C1 5.92682 5.92369 1.00193 11.9964 1H12C18.0756 1 23 5.92563 23 12C23 18.0744 18.0756 23 12 23C5.92562 23 1 18.0744 1 12ZM21.4291 11.2301C21.1041 7.19571 18.2476 3.87539 14.4491 2.8601C15.5457 4.70028 16.2929 7.74132 16.3894 11.2301H21.4291ZM21.4291 12.7701H16.3894C16.2929 16.2587 15.5457 19.2997 14.4491 21.1399C18.2475 20.1246 21.1041 16.8044 21.4291 12.7701ZM14.8488 11.2301C14.7734 8.65729 14.3249 6.40247 13.6814 4.79377C13.3262 3.90584 12.9418 3.29063 12.5938 2.92258C12.2488 2.55779 12.0476 2.54 12 2.54L11.9989 2.54C11.9492 2.5403 11.7485 2.56064 11.4062 2.92258C11.0582 3.29063 10.6738 3.90584 10.3186 4.79377C9.6751 6.40247 9.22655 8.65729 9.15123 11.2301H14.8488ZM9.15123 12.7701H14.8488C14.7734 15.3428 14.3249 17.5976 13.6814 19.2062C13.3262 20.0942 12.9418 20.7094 12.5938 21.0774C12.2488 21.4422 12.0476 21.46 12 21.46C11.9524 21.46 11.7512 21.4422 11.4062 21.0774C11.0582 20.7094 10.6738 20.0942 10.3186 19.2062C9.67511 17.5976 9.22657 15.3428 9.15123 12.7701ZM7.61061 11.2301C7.7071 7.7414 8.45426 4.70042 9.55085 2.86023C5.75293 3.87569 2.89597 7.19595 2.57089 11.2301H7.61061ZM2.5709 12.7701H7.61061C7.70711 16.2587 8.45427 19.2996 9.55085 21.1398C5.75297 20.1243 2.89602 16.8041 2.5709 12.7701Z" fill="#222222"/>
</svg>
