<svg width="24" height="24" viewBox="0 0 24 24" fill="none" xmlns="http://www.w3.org/2000/svg">
<path fill-rule="evenodd" clip-rule="evenodd" d="M12.2 2C8.22954 2 5 5.22954 5 9.2C5 11.6285 6.68872 13.9964 8.5 15.3031V17.7C8.5 18.3605 9.03954 18.9 9.7 18.9H14.7C15.3605 18.9 15.9 18.3605 15.9 17.7V15.3031C17.7113 13.9964 19.4 11.6285 19.4 9.2C19.4 5.22954 16.1705 2 12.2 2ZM6.4 9.03333C6.4 5.92906 8.99311 3.4 12.2 3.4C15.4069 3.4 18 5.92906 18 9.03333C18 10.8667 17.0745 12.5905 15.5079 13.651L15.5068 13.6518L14.4 14.4114V17.2656H10V14.4114L8.89317 13.6518L8.89212 13.651C7.32545 12.5905 6.4 10.8667 6.4 9.03333Z" fill="#222222"/>
<path fill-rule="evenodd" clip-rule="evenodd" d="M8.28319 21.5C8.28319 21.0858 8.61898 20.75 9.03319 20.75H15.0332C15.4474 20.75 15.7832 21.0858 15.7832 21.5C15.7832 21.9142 15.4474 22.25 15.0332 22.25H9.03319C8.61898 22.25 8.28319 21.9142 8.28319 21.5Z" fill="#222222"/>
</svg>
