<svg width="24" height="24" viewBox="0 0 24 24" fill="none" xmlns="http://www.w3.org/2000/svg">
<path fill-rule="evenodd" clip-rule="evenodd" d="M9.47434 3.15812L14.5257 4.84189C14.8336 4.94453 15.1664 4.94453 15.4743 4.84189L19.0257 3.65812C19.997 3.33436 21 4.05731 21 5.08115V17.9189C21 18.5645 20.5869 19.1377 19.9743 19.3419L15.4743 20.8419C15.1664 20.9445 14.8336 20.9445 14.5257 20.8419L9.47434 19.1581C9.16644 19.0555 8.83356 19.0555 8.52566 19.1581L4.97434 20.3419C4.00305 20.6657 3 19.9427 3 18.9189V6.08115C3 5.4355 3.41315 4.86229 4.02566 4.65812L8.52566 3.15812C8.83356 3.05549 9.16644 3.05549 9.47434 3.15812ZM9 16.89L15 19V7.11001L9 5.00001V16.89Z" fill="#222222"/>
</svg>
