<svg width="24" height="24" viewBox="0 0 24 24" fill="none" xmlns="http://www.w3.org/2000/svg">
<path fill-rule="evenodd" clip-rule="evenodd" d="M13.9661 2.25607C9.55384 1.22641 5.01372 3.37189 3.00798 7.43447C1.00223 11.4971 2.05952 16.406 5.55985 19.2827C9.06017 22.1594 14.081 22.2457 17.6781 19.4911C18.007 19.2392 18.0694 18.7685 17.8176 18.4396C17.5658 18.1107 17.095 18.0483 16.7662 18.3001C13.7224 20.631 9.47405 20.5579 6.51224 18.1238C3.55044 15.6897 2.65583 11.536 4.35298 8.09852C6.05014 4.66098 9.89176 2.84557 13.6252 3.71682C17.3586 4.58807 19.9998 7.91638 20 11.75V12.6499C20 13.7268 19.127 14.5998 18.0501 14.5998C16.9732 14.5998 16.1002 13.7268 16.1002 12.6499V8.15012C16.1002 7.73591 15.7644 7.40012 15.3502 7.40012C14.936 7.40012 14.6002 7.73591 14.6002 8.15012V9.13469C13.8223 8.13968 12.6109 7.50007 11.25 7.50007C8.90279 7.50007 7 9.40286 7 11.7501C7 14.0973 8.90279 16.0001 11.25 16.0001C12.7783 16.0001 14.1181 15.1934 14.8671 13.9826C15.3884 15.2262 16.6172 16.0998 18.0501 16.0998C19.9554 16.0998 21.5 14.5552 21.5 12.6499V11.7499C21.4998 7.21918 18.3783 3.28573 13.9661 2.25607ZM8.5 11.7501C8.5 10.2313 9.73122 9.00007 11.25 9.00007C12.7688 9.00007 14 10.2313 14 11.7501C14 13.2689 12.7688 14.5001 11.25 14.5001C9.73122 14.5001 8.5 13.2689 8.5 11.7501Z" fill="#222222"/>
</svg>
