<svg width="24" height="24" viewBox="0 0 24 24" fill="none" xmlns="http://www.w3.org/2000/svg">
<path fill-rule="evenodd" clip-rule="evenodd" d="M15.7205 4.08435C16.8489 3.72612 18 4.56839 18 5.75232V16.9191C18 18.103 16.8489 18.9453 15.7205 18.5871L4.97049 15.1744C4.3009 14.9618 3.82914 14.3724 3.75904 13.6846L3.75 13.359V9.16502C3.75 8.40251 4.24372 7.72777 4.97049 7.49705L15.7205 4.08435ZM2.25 13.3685V9.16502C2.25 7.74893 3.16691 6.49584 4.51662 6.06736L15.2666 2.65467C17.3623 1.98938 19.5 3.55359 19.5 5.75232V7.87786C21.4545 8.00651 23 9.6326 23 11.6197C23 13.6067 21.4545 15.2328 19.5 15.3615V16.9191C19.5 19.1178 17.3623 20.6821 15.2666 20.0168L8.50979 17.8717L8.43907 18.4593L8.31228 19.5126C8.13321 21.0003 6.87099 22.1197 5.37258 22.1197C3.76933 22.1197 2.45732 20.8436 2.4128 19.241L2.26094 13.7737C2.25369 13.6854 2.25 13.5962 2.25 13.5064V13.37C2.25 13.3695 2.25 13.369 2.25 13.3685ZM3.83157 16.2957L3.91222 19.1993C3.93419 19.99 4.58153 20.6197 5.37258 20.6197C6.11189 20.6197 6.73467 20.0673 6.82303 19.3333L7.0401 17.53C7.04495 17.4897 7.05292 17.4505 7.06373 17.4127L4.51662 16.6041C4.27325 16.5268 4.04396 16.4227 3.83157 16.2957ZM19.5 13.8559C20.625 13.7316 21.5 12.7778 21.5 11.6197C21.5 10.4615 20.625 9.50775 19.5 9.38339V13.8559Z" fill="#222222"/>
</svg>
