<svg width="24" height="24" viewBox="0 0 24 24" fill="none" xmlns="http://www.w3.org/2000/svg">
<path fill-rule="evenodd" clip-rule="evenodd" d="M23 12C23 18.0751 18.0751 23 12 23C5.92487 23 1 18.0751 1 12C1 5.92487 5.92487 1 12 1C18.0751 1 23 5.92487 23 12ZM12 22C17.5228 22 22 17.5228 22 12C22 6.47715 17.5228 2 12 2C6.47715 2 2 6.47715 2 12C2 17.5228 6.47715 22 12 22Z" fill="#222222"/>
<path d="M22.9893 12C22.9893 18.0751 18.0644 23 11.9893 23C6.08182 23 1.26199 18.3432 1.00048 12.5002C0.988139 12.2243 1.21317 12 1.48931 12C1.76546 12 1.98801 12.2241 2.00159 12.4999C2.26207 17.7905 6.63411 22 11.9893 22C17.5122 22 21.9893 17.5228 21.9893 12C21.9893 6.47715 17.5122 2 11.9893 2V1C18.0644 1 22.9893 5.92487 22.9893 12Z" fill="#EEEEEE"/>
</svg>
