<svg width="24" height="24" viewBox="0 0 24 24" fill="none" xmlns="http://www.w3.org/2000/svg">
<path fill-rule="evenodd" clip-rule="evenodd" d="M9.26862 2.22079C10.7258 0.593073 13.2742 0.593071 14.7314 2.22078L15.0459 2.5721C15.4172 2.98688 15.9569 3.21043 16.5128 3.1797L16.9836 3.15367C19.1649 3.03308 20.9669 4.83509 20.8463 7.01643L20.8203 7.48724C20.7896 8.04309 21.0131 8.58279 21.4279 8.95411L21.7792 9.26862C23.4069 10.7258 23.4069 13.2742 21.7792 14.7314L21.4279 15.0459C21.0131 15.4172 20.7896 15.9569 20.8203 16.5128L20.8463 16.9836C20.9669 19.1649 19.1649 20.9669 16.9836 20.8463L16.5128 20.8203C15.9569 20.7896 15.4172 21.0131 15.0459 21.4279L14.7314 21.7792C13.2742 23.4069 10.7258 23.4069 9.26862 21.7792L8.95411 21.4279C8.58279 21.0131 8.04309 20.7896 7.48724 20.8203L7.01643 20.8463C4.83509 20.9669 3.03308 19.1649 3.15367 16.9836L3.1797 16.5128C3.21043 15.9569 2.98688 15.4172 2.5721 15.0459L2.22079 14.7314C0.593073 13.2742 0.593071 10.7258 2.22078 9.26862L2.5721 8.95411C2.98688 8.58279 3.21043 8.04309 3.1797 7.48724L3.15367 7.01643C3.03308 4.83509 4.83509 3.03308 7.01643 3.15367L7.48724 3.1797C8.04309 3.21043 8.58279 2.98688 8.95411 2.5721L9.26862 2.22079ZM11.9998 7C12.4517 7 12.818 7.36631 12.818 7.81818V13.3636C12.818 13.8155 12.4517 14.1818 11.9998 14.1818C11.548 14.1818 11.1816 13.8155 11.1816 13.3636V7.81818C11.1816 7.36631 11.548 7 11.9998 7ZM12.0909 17.9215C12.6934 17.9215 13.1818 17.4331 13.1818 16.8306C13.1818 16.2281 12.6934 15.7397 12.0909 15.7397C11.4884 15.7397 11 16.2281 11 16.8306C11 17.4331 11.4884 17.9215 12.0909 17.9215Z" fill="#222222"/>
</svg>
