<svg width="24" height="24" viewBox="0 0 24 24" fill="none" xmlns="http://www.w3.org/2000/svg">
<path fill-rule="evenodd" clip-rule="evenodd" d="M16.1018 17.1624C14.717 18.3101 12.9391 19 11 19C6.58172 19 3 15.4183 3 11C3 6.58172 6.58172 3 11 3C15.4183 3 19 6.58172 19 11C19 12.9391 18.3101 14.717 17.1624 16.1018L20.5303 19.4697C20.8232 19.7626 20.8232 20.2374 20.5303 20.5303C20.2374 20.8232 19.7626 20.8232 19.4697 20.5303L16.1018 17.1624ZM17.5 11C17.5 14.5899 14.5899 17.5 11 17.5C7.41015 17.5 4.5 14.5899 4.5 11C4.5 7.41015 7.41015 4.5 11 4.5C14.5899 4.5 17.5 7.41015 17.5 11Z" fill="#222222"/>
<path d="M11.2498 7.79999C10.9399 7.79999 10.6887 8.05121 10.6887 8.3611V10.6889H8.36092C8.05102 10.6889 7.7998 10.9401 7.7998 11.25C7.7998 11.5599 8.05102 11.8111 8.36092 11.8111H10.6887V14.1389C10.6887 14.4488 10.9399 14.7 11.2498 14.7C11.5597 14.7 11.8109 14.4488 11.8109 14.1389V11.8111H14.1387C14.4486 11.8111 14.6998 11.5599 14.6998 11.25C14.6998 10.9401 14.4486 10.6889 14.1387 10.6889H11.8109V8.3611C11.8109 8.05121 11.5597 7.79999 11.2498 7.79999Z" fill="#222222"/>
</svg>
