<svg width="24" height="24" viewBox="0 0 24 24" fill="none" xmlns="http://www.w3.org/2000/svg">
<path fill-rule="evenodd" clip-rule="evenodd" d="M3.09082 20.7273C1.98625 20.7273 1.09082 19.8318 1.09082 18.7273V5.27273C1.09082 4.16816 1.98625 3.27273 3.09082 3.27273H20.909C22.0136 3.27273 22.909 4.16816 22.909 5.27273V18.7273C22.909 19.8318 22.0136 20.7273 20.909 20.7273H3.09082ZM7.05639 8.08835C6.70354 7.80606 6.18866 7.86326 5.90638 8.21611C5.62409 8.56895 5.68129 9.08383 6.03414 9.36611L10.1255 12.6394C11.2212 13.5159 12.778 13.5159 13.8737 12.6394L17.9655 9.36613C18.3183 9.08386 18.3755 8.56898 18.0933 8.21613C17.811 7.86327 17.2961 7.80605 16.9433 8.08833L12.8515 11.3616C12.3535 11.76 11.6458 11.76 11.1478 11.3616L7.05639 8.08835Z" fill="#222222"/>
</svg>
