<svg width="24" height="24" viewBox="0 0 24 24" fill="none" xmlns="http://www.w3.org/2000/svg">
<path d="M12.9463 17.6748C12.9463 18.2271 12.4986 18.6748 11.9463 18.6748C11.394 18.6748 10.9463 18.2271 10.9463 17.6748C10.9463 17.1226 11.394 16.6748 11.9463 16.6748C12.4986 16.6748 12.9463 17.1226 12.9463 17.6748Z" fill="#222222"/>
<path fill-rule="evenodd" clip-rule="evenodd" d="M20.5 12C20.5 7.30616 16.6947 3.5 12 3.5C7.30626 3.5 3.5 7.30627 3.5 12C3.5 16.6937 7.30626 20.5 12 20.5C16.6947 20.5 20.5 16.6938 20.5 12ZM22 12C22 6.47784 17.5232 2 12 2C6.47783 2 2 6.47784 2 12C2 17.5222 6.47783 22 12 22C17.5232 22 22 17.5222 22 12Z" fill="#222222"/>
<path d="M14.6586 11.6548L13.8443 12.4871C13.7313 12.6017 13.6256 12.6992 13.5281 12.7891C13.0653 13.2158 12.7875 13.472 12.7857 14.5846L12.7858 14.5953C12.7858 15.0949 12.3807 15.5 11.881 15.5C11.3813 15.5 10.9763 15.0949 10.9763 14.5953C10.9763 13.6 11.3833 12.6952 12.0348 12.0348L13.1567 10.8948C13.4914 10.569 13.6905 10.1167 13.6905 9.61905C13.6905 8.62381 12.8762 7.80952 11.881 7.80952C10.8857 7.80952 10.0714 8.62381 10.0714 9.61905C10.0714 10.1187 9.66635 10.5238 9.16667 10.5238C8.66698 10.5238 8.2619 10.1187 8.2619 9.61906C8.2619 7.61953 9.88143 6 11.881 6C13.8805 6 15.5 7.61952 15.5 9.61905C15.5 10.4152 15.1743 11.139 14.6586 11.6548Z" fill="#222222"/>
</svg>
