<svg width="24" height="24" viewBox="0 0 24 24" fill="none" xmlns="http://www.w3.org/2000/svg">
<path fill-rule="evenodd" clip-rule="evenodd" d="M17.5336 2.15058C16.2649 1.10191 14.3951 1.29093 13.3572 2.57278L3.07069 15.2773C2.5074 15.973 2.28268 16.8873 2.45841 17.7685L3.09123 20.9414C3.26895 21.8325 4.0441 22.4733 4.94376 22.4727L8.14717 22.4708C9.03678 22.4703 9.87922 22.0666 10.4425 21.3709L18.6361 11.2513C18.668 11.224 18.6982 11.1939 18.7264 11.1609C18.7642 11.1166 18.7965 11.0694 18.8233 11.0201L20.729 8.66636C21.7669 7.38451 21.5798 5.49526 20.3112 4.44659L17.5336 2.15058ZM18.003 9.45002L19.4761 7.63066C19.9479 7.048 19.8628 6.18925 19.2862 5.71258L16.5085 3.41657C15.9319 2.9399 15.0819 3.02582 14.6102 3.60848L13.2415 5.29886L18.003 9.45002ZM12.2161 6.56529L4.32365 16.313C4.06761 16.6293 3.96546 17.0449 4.04534 17.4454L4.67816 20.6183C4.70355 20.7456 4.81428 20.8372 4.94281 20.8371L8.14622 20.8352C8.55058 20.8349 8.93352 20.6514 9.18956 20.3352L16.9776 10.7164L12.2161 6.56529Z" fill="#222222"/>
</svg>
