<svg width="24" height="24" viewBox="0 0 24 24" fill="none" xmlns="http://www.w3.org/2000/svg">
<path fill-rule="evenodd" clip-rule="evenodd" d="M17.5336 2.15056C16.2649 1.10189 14.3951 1.29092 13.3572 2.57276L3.07069 15.2773C2.5074 15.973 2.28268 16.8873 2.45841 17.7685L3.09123 20.9414C3.26895 21.8325 4.0441 22.4733 4.94376 22.4727L8.14717 22.4708C9.03677 22.4703 9.87922 22.0666 10.4425 21.3709L20.729 8.66634C21.7669 7.3845 21.5798 5.49524 20.3112 4.44657L17.5336 2.15056ZM13.162 5.77403C13.4541 5.43206 13.9652 5.39404 14.3036 5.68911L17.806 8.44343C18.1445 8.7385 18.1821 9.25493 17.8901 9.5969C17.598 9.93887 17.0869 9.9769 16.7485 9.68183L13.2461 6.9275C12.9076 6.63243 12.87 6.116 13.162 5.77403Z" fill="#222222"/>
</svg>
