<svg width="24" height="24" viewBox="0 0 24 24" fill="none" xmlns="http://www.w3.org/2000/svg">
<path fill-rule="evenodd" clip-rule="evenodd" d="M4.41748 10.3958C4.41748 6.21919 7.80333 2.83334 11.98 2.83334C16.1566 2.83334 19.5425 6.21919 19.5425 10.3958V16.3542H20.2876C20.6673 16.3542 20.9751 16.662 20.9751 17.0417C20.9751 17.4214 20.6673 17.7292 20.2876 17.7292H3.7876C3.4079 17.7292 3.1001 17.4214 3.1001 17.0417C3.1001 16.662 3.4079 16.3542 3.7876 16.3542H4.41748V10.3958ZM8.37109 19.5625C7.9914 19.5625 7.68359 19.8703 7.68359 20.25C7.68359 20.6297 7.9914 20.9375 8.37109 20.9375H15.7044C16.0841 20.9375 16.3919 20.6297 16.3919 20.25C16.3919 19.8703 16.0841 19.5625 15.7044 19.5625H8.37109Z" fill="#222222"/>
</svg>
