<svg width="24" height="24" viewBox="0 0 24 24" fill="none" xmlns="http://www.w3.org/2000/svg">
<path fill-rule="evenodd" clip-rule="evenodd" d="M18.5887 12.446C18.5759 12.4781 18.5641 12.5106 18.5534 12.5434C17.6658 15.2528 16.1361 17.7174 14.0844 19.7215L12.4169 21.3503C12.206 21.5563 11.8695 21.5575 11.6572 21.3529L9.93581 19.6942C7.86696 17.7007 6.3263 15.2358 5.43844 12.5218C5.4281 12.4902 5.4168 12.4589 5.40455 12.428C5.21493 11.9492 5.07597 11.4448 4.99433 10.921C4.99044 10.8961 4.98598 10.8712 4.98094 10.8465C4.97858 10.8349 4.97701 10.8236 4.97612 10.8128C4.97404 10.7875 4.97138 10.7623 4.96813 10.7371C4.92939 10.437 4.90931 10.1303 4.90931 9.81815C4.90931 5.90195 8.08402 2.72725 12.0002 2.72725C15.9164 2.72725 19.0911 5.90195 19.0911 9.81815C19.0911 10.7497 18.9123 11.6355 18.5887 12.446ZM3.37748 11.173C3.47807 11.8183 3.64936 12.4402 3.88318 13.0306C4.85393 15.9979 6.5384 18.693 8.8004 20.8726L10.5218 22.5313C11.371 23.3495 12.7167 23.3449 13.5603 22.5209L15.2278 20.8921C17.4685 18.7034 19.1391 16.0117 20.1084 13.0528C20.5078 12.0525 20.7275 10.961 20.7275 9.81815C20.7275 4.99821 16.8202 1.09088 12.0002 1.09088C7.18028 1.09088 3.27295 4.99821 3.27295 9.81815C3.27295 10.2006 3.29754 10.5772 3.34524 10.9466C3.35142 11.0219 3.36211 11.0975 3.37748 11.173ZM10.0911 9.52359C10.0911 8.46923 10.9459 7.6145 12.0002 7.6145C13.0546 7.6145 13.9093 8.46923 13.9093 9.52359C13.9093 10.5779 13.0546 11.4327 12.0002 11.4327C10.9459 11.4327 10.0911 10.5779 10.0911 9.52359ZM12.0002 5.97813C10.0421 5.97813 8.45477 7.56549 8.45477 9.52359C8.45477 11.4817 10.0421 13.069 12.0002 13.069C13.9583 13.069 15.5457 11.4817 15.5457 9.52359C15.5457 7.56549 13.9583 5.97813 12.0002 5.97813Z" fill="#222222"/>
</svg>
