<svg width="24" height="24" viewBox="0 0 24 24" fill="none" xmlns="http://www.w3.org/2000/svg">
<path fill-rule="evenodd" clip-rule="evenodd" d="M11.3328 2.73303C11.8016 1.75566 13.1984 1.75565 13.6672 2.73302L16.1527 7.91516L21.8738 8.66545C22.953 8.80698 23.3848 10.1318 22.595 10.8777L18.4108 14.8294L19.4613 20.4737C19.6596 21.5391 18.5293 22.3576 17.5729 21.8412L12.5 19.102L7.42712 21.8412C6.47074 22.3576 5.34041 21.5391 5.5387 20.4737L6.58923 14.8294L2.40499 10.8777C1.61516 10.1318 2.04704 8.80698 3.12619 8.66545L8.84727 7.91516L11.3328 2.73303ZM12.5 3.88617L10.1874 8.70774C9.99874 9.10115 9.62308 9.37282 9.18908 9.42974L3.86685 10.1277L7.75929 13.8038C8.07729 14.1041 8.221 14.5444 8.14113 14.9735L7.16376 20.2247L11.8835 17.6762C12.2681 17.4686 12.7319 17.4686 13.1165 17.6762L17.8362 20.2247L16.8589 14.9735C16.779 14.5444 16.9227 14.1041 17.2407 13.8038L21.1331 10.1277L15.8109 9.42974C15.3769 9.37282 15.0013 9.10115 14.8126 8.70774L12.5 3.88617Z" fill="#222222"/>
<path d="M10.1874 8.70774L12.5 3.88617L14.8126 8.70774C15.0013 9.10115 15.3769 9.37282 15.8109 9.42974L21.1331 10.1277L17.2407 13.8038C16.9227 14.1041 16.779 14.5444 16.8589 14.9735L17.8362 20.2247L13.1165 17.6762C12.7319 17.4686 12.2681 17.4686 11.8835 17.6762L7.16376 20.2247L8.14113 14.9735C8.221 14.5444 8.07729 14.1041 7.75929 13.8038L3.86685 10.1277L9.18908 9.42974C9.62308 9.37282 9.99874 9.10115 10.1874 8.70774Z" fill="#222222"/>
</svg>
