<svg width="24" height="24" viewBox="0 0 24 24" fill="none" xmlns="http://www.w3.org/2000/svg">
<path fill-rule="evenodd" clip-rule="evenodd" d="M2.2998 3.99999C2.2998 2.51339 3.51321 1.29999 4.9998 1.29999H18.9998C20.4864 1.29999 21.6998 2.51339 21.6998 3.99999V18C21.6998 19.4866 20.4864 20.7 18.9998 20.7H14.406L13.0417 23.0876C12.581 23.8938 11.4186 23.8938 10.9579 23.0876L9.59358 20.7H4.9998C3.51321 20.7 2.2998 19.4866 2.2998 18V3.99999ZM4.9998 2.69999C4.2864 2.69999 3.6998 3.28659 3.6998 3.99999V18C3.6998 18.7134 4.2864 19.3 4.9998 19.3H10.406L11.9998 22.0891L13.5936 19.3H18.9998C19.7132 19.3 20.2998 18.7134 20.2998 18V3.99999C20.2998 3.28659 19.7132 2.69999 18.9998 2.69999H4.9998ZM11.9998 6.68619L10.8031 9.30869C10.7032 9.52773 10.5276 9.70336 10.3085 9.80332L7.68601 11L10.3085 12.1967C10.5276 12.2966 10.7032 12.4722 10.8031 12.6913L11.9998 15.3138L13.1965 12.6913C13.2964 12.4722 13.4721 12.2966 13.6911 12.1967L16.3136 11L13.6911 9.80332C13.4721 9.70336 13.2964 9.52773 13.1965 9.30869L11.9998 6.68619ZM11.09 5.30751C11.4459 4.52769 12.5537 4.52769 12.9096 5.30751L14.4081 8.59164L17.6923 10.0902C18.4721 10.4461 18.4721 11.5539 17.6923 11.9097L14.4081 13.4083L12.9096 16.6925C12.5537 17.4723 11.4459 17.4723 11.09 16.6925L9.59146 13.4083L6.30733 11.9097C5.52751 11.5539 5.52751 10.4461 6.30733 10.0902L9.59146 8.59164L11.09 5.30751ZM14.2723 8.52965C14.2721 8.52957 14.2725 8.52973 14.2723 8.52965V8.52965Z" fill="#222222"/>
</svg>
