<svg width="24" height="24" viewBox="0 0 24 24" fill="none" xmlns="http://www.w3.org/2000/svg">
<path fill-rule="evenodd" clip-rule="evenodd" d="M5.10213 4.98173C5.8841 4.07012 7.02568 3.54547 8.22724 3.54547H20.9816C22.6486 3.54547 24 4.89584 24 6.5616V17.5293C24 19.1951 22.6486 20.5455 20.9816 20.5455H8.22724C7.02568 20.5455 5.8841 20.0208 5.10213 19.1092L0.726661 14.0083C-0.24222 12.8788 -0.242221 11.2121 0.726661 10.0826L5.10213 4.98173ZM8.22724 5.19063C7.5063 5.19063 6.82136 5.50542 6.35218 6.05239L1.9767 11.1533C1.5363 11.6667 1.5363 12.4243 1.9767 12.9377L6.35218 18.0386C6.82136 18.5855 7.5063 18.9003 8.22724 18.9003H20.9816C21.7393 18.9003 22.3536 18.2865 22.3536 17.5293V6.5616C22.3536 5.80444 21.7393 5.19063 20.9816 5.19063H8.22724ZM10.2343 8.23431C10.5467 7.9219 11.0533 7.9219 11.3657 8.23431L14 10.8686L16.6343 8.23431C16.9467 7.9219 17.4533 7.9219 17.7657 8.23431C18.0781 8.54673 18.0781 9.05327 17.7657 9.36569L15.1314 12L17.7657 14.6343C18.0781 14.9467 18.0781 15.4533 17.7657 15.7657C17.4533 16.0781 16.9467 16.0781 16.6343 15.7657L14 13.1314L11.3657 15.7657C11.0533 16.0781 10.5467 16.0781 10.2343 15.7657C9.9219 15.4533 9.9219 14.9467 10.2343 14.6343L12.8686 12L10.2343 9.36569C9.9219 9.05327 9.9219 8.54673 10.2343 8.23431Z" fill="#222222"/>
</svg>
