<svg width="24" height="24" viewBox="0 0 24 24" fill="none" xmlns="http://www.w3.org/2000/svg">
<path fill-rule="evenodd" clip-rule="evenodd" d="M5.74027 17.7504C5.82507 17.6646 5.91934 17.5722 6 17.5C6.87935 16.7127 7.68686 16.4241 8.66433 16.0747L8.7 16.062C9.75 15.6873 10.85 15.5 12 15.5C13.15 15.5 14.25 15.6873 15.3 16.062L15.3357 16.0747C16.3131 16.4241 17.1206 16.7127 18 17.5C18.0807 17.5722 18.1749 17.6646 18.2597 17.7504C19.6508 16.2369 20.5 14.2176 20.5 12C20.5 7.30558 16.6944 3.5 12 3.5C7.30558 3.5 3.5 7.30558 3.5 12C3.5 14.2176 4.34925 16.2369 5.74027 17.7504ZM9.51198 12.4604C10.1873 13.135 11.0166 13.4724 12 13.4724L12.2879 13.4624C13.1462 13.4022 13.8796 13.0681 14.488 12.4604C15.1626 11.785 15.5 10.9557 15.5 9.97235C15.5 8.98902 15.1626 8.15968 14.488 7.48435C13.8126 6.80968 12.9833 6.47235 12 6.47235L11.9885 6.47237C11.0102 6.47498 10.1847 6.81231 9.51198 7.48435C8.83731 8.15968 8.49998 8.98902 8.49998 9.97235C8.49998 10.9557 8.83731 11.785 9.51198 12.4604Z" fill="#222222"/>
<circle cx="12" cy="12" r="9.25" stroke="#222222" stroke-width="1.5"/>
</svg>
