<svg width="24" height="24" viewBox="0 0 24 24" fill="none" xmlns="http://www.w3.org/2000/svg">
<path d="M20.7633 12.5086C20.8477 12.7898 20.8898 13.0805 20.8898 13.3758C20.8898 14.0391 20.6719 14.6766 20.2781 15.1969C20.3625 15.4781 20.4047 15.7688 20.4047 16.0641C20.4047 16.7273 20.1867 17.3648 19.793 17.8852C19.8773 18.1664 19.9195 18.457 19.9195 18.7523C19.9195 19.9617 19.2 21.0516 18.0844 21.5273C17.8883 21.6119 17.6768 21.655 17.4633 21.6539H6.39844V11.6227H6.40547L8.41641 4.33828C8.73984 3.16406 9.81797 2.34375 11.0367 2.34375C11.7328 2.34375 12.382 2.62032 12.8625 3.12657C13.343 3.63047 13.5891 4.29141 13.5539 4.9875L13.4133 7.86797H19.0359C19.3195 7.86797 19.5961 7.94297 19.8398 8.08594C20.7867 8.63672 21.375 9.63516 21.375 10.6875C21.375 11.3508 21.157 11.9883 20.7633 12.5086ZM2.625 20.9063V12.375C2.625 11.9602 2.96016 11.625 3.375 11.625H4.89844V21.6562H3.375C2.96016 21.6562 2.625 21.3211 2.625 20.9063Z" fill="#222222"/>
</svg>
