<svg width="24" height="24" viewBox="0 0 24 24" fill="none" xmlns="http://www.w3.org/2000/svg">
<path fill-rule="evenodd" clip-rule="evenodd" d="M9 12.35C11.2091 12.35 13 10.5591 13 8.35001C13 6.14087 11.2091 4.35001 9 4.35001C6.79086 4.35001 5 6.14087 5 8.35001C5 10.5591 6.79086 12.35 9 12.35ZM14.414 11.9048C14.0791 11.8382 13.9899 11.4466 14.197 11.1751C14.7747 10.4176 15.2289 9.49519 15.2289 8.5C15.2289 7.50481 14.7747 6.58237 14.197 5.82489C13.9899 5.55336 14.0791 5.16176 14.414 5.09522C14.7274 5.03296 15.0599 5 15.3336 5C17.2204 5 18.75 6.567 18.75 8.5C18.75 10.433 17.2204 12 15.3336 12C15.0599 12 14.7274 11.967 14.414 11.9048ZM16.0652 14.5439C16.1823 14.2823 16.4449 14.1 16.7501 14.1H17.5001C19.8473 14.1 21.7501 16.0028 21.7501 18.35V18.85C21.7501 19.2642 21.4143 19.6 21.0001 19.6H18.252C17.9321 19.6 17.6833 19.3005 17.6903 18.9807C17.6981 18.627 17.6732 18.1887 17.5963 17.7165C17.5012 17.1328 17.2878 16.5699 16.952 16.0831C16.8003 15.8632 16.6528 15.6834 16.4997 15.4967L16.4997 15.4967L16.4997 15.4967C16.3986 15.3735 16.2951 15.2472 16.1862 15.1045C16.0618 14.9413 15.9814 14.7312 16.0652 14.5439ZM7 14.1C4.37665 14.1 2.25 16.2267 2.25 18.85C2.25 19.2642 2.58579 19.6 3 19.6H15C15.4142 19.6 15.75 19.2642 15.75 18.85C15.75 16.2267 13.6234 14.1 11 14.1H7Z" fill="#222222"/>
</svg>
