<svg width="24" height="24" viewBox="0 0 24 24" fill="none" xmlns="http://www.w3.org/2000/svg">
<path fill-rule="evenodd" clip-rule="evenodd" d="M12.3249 4.32403C12.5847 4.44892 12.75 4.7117 12.75 5.00001V19C12.75 19.2883 12.5847 19.5511 12.3249 19.676C12.065 19.8009 11.7566 19.7658 11.5315 19.5857L6.73691 15.75H3C2.58579 15.75 2.25 15.4142 2.25 15V9.00001C2.25 8.58579 2.58579 8.25001 3 8.25001H6.73691L11.5315 4.41436C11.7566 4.23425 12.065 4.19914 12.3249 4.32403ZM11.25 6.56048L7.46852 9.58566C7.33554 9.69205 7.1703 9.75001 7 9.75001H3.75V14.25H7C7.1703 14.25 7.33554 14.308 7.46852 14.4144L11.25 17.4395V6.56048Z" fill="#222222"/>
<path fill-rule="evenodd" clip-rule="evenodd" d="M16.0098 7.92956C16.3027 7.63671 16.7776 7.63678 17.0704 7.92972C18.1484 9.008 18.754 10.4703 18.754 11.995C18.754 13.5197 18.1484 14.9819 17.0704 16.0602C16.7776 16.3532 16.3027 16.3532 16.0098 16.0604C15.7169 15.7675 15.7168 15.2927 16.0096 14.9997C16.8064 14.2027 17.254 13.1219 17.254 11.995C17.254 10.868 16.8064 9.78721 16.0096 8.99022C15.7168 8.69728 15.7169 8.22241 16.0098 7.92956Z" fill="#222222"/>
</svg>
