<svg width="24" height="24" viewBox="0 0 24 24" fill="none" xmlns="http://www.w3.org/2000/svg">
<path d="M3.28015 2.21997C3.21149 2.14628 3.12869 2.08718 3.03669 2.04619C2.94469 2.0052 2.84538 1.98316 2.74468 1.98138C2.64397 1.9796 2.54394 1.99813 2.45056 2.03585C2.35717 2.07357 2.27233 2.12971 2.20112 2.20093C2.1299 2.27215 2.07375 2.35698 2.03603 2.45037C1.99831 2.54376 1.97979 2.64379 1.98156 2.74449C1.98334 2.8452 2.00538 2.94451 2.04637 3.03651C2.08736 3.12851 2.14647 3.21131 2.22015 3.27997L8.00015 9.05997V12C8.00007 12.727 8.19814 13.4403 8.57306 14.0632C8.94798 14.6861 9.48557 15.195 10.1281 15.5353C10.7705 15.8755 11.4936 16.0343 12.2195 15.9944C12.9455 15.9545 13.6468 15.7176 14.2482 15.309L15.3942 16.455C14.4872 17.135 13.3837 17.5018 12.2502 17.5H11.7502L11.5342 17.496C10.1802 17.4402 8.90031 16.8631 7.96209 15.8854C7.02387 14.9077 6.50004 13.605 6.50015 12.25V11.75L6.49315 11.648C6.46725 11.4597 6.37086 11.2883 6.22345 11.1684C6.07605 11.0485 5.88862 10.989 5.69903 11.0019C5.50945 11.0149 5.33185 11.0993 5.20213 11.2382C5.0724 11.377 5.00021 11.5599 5.00015 11.75V12.25L5.00415 12.486C5.06217 14.148 5.7317 15.7301 6.88436 16.9289C8.03703 18.1277 9.59167 18.8588 11.2502 18.982V21.25L11.2572 21.352C11.2831 21.5402 11.3794 21.7116 11.5269 21.8315C11.6743 21.9515 11.8617 22.011 12.0513 21.998C12.2409 21.985 12.4185 21.9006 12.5482 21.7618C12.6779 21.6229 12.7501 21.44 12.7502 21.25L12.7512 18.982C14.1075 18.8829 15.4019 18.3745 16.4632 17.524L20.7192 21.78C20.8605 21.9167 21.05 21.9923 21.2466 21.9907C21.4433 21.9891 21.6314 21.9103 21.7705 21.7713C21.9096 21.6323 21.9886 21.4443 21.9904 21.2476C21.9922 21.051 21.9167 20.8615 21.7802 20.72L3.28015 2.21997ZM13.1562 14.217C12.7751 14.4157 12.3492 14.5128 11.9197 14.499C11.4901 14.4852 11.0714 14.3608 10.7039 14.138C10.3364 13.9151 10.0325 13.6013 9.82169 13.2268C9.61084 12.8523 9.5001 12.4298 9.50015 12V10.56L13.1562 14.217ZM14.5002 5.99997V11.318L15.9302 12.748C15.9762 12.506 16.0002 12.256 16.0002 12V5.99997C16.0007 5.0299 15.6488 4.09267 15.0098 3.36278C14.3708 2.63289 13.4883 2.16008 12.5267 2.03239C11.5651 1.90469 10.5898 2.13081 9.78246 2.66864C8.97513 3.20647 8.39076 4.01936 8.13815 4.95597L9.50015 6.31797V5.99997C9.50015 5.33693 9.76355 4.70104 10.2324 4.2322C10.7012 3.76336 11.3371 3.49997 12.0002 3.49997C12.6632 3.49997 13.2991 3.76336 13.7679 4.2322C14.2368 4.70104 14.5002 5.33693 14.5002 5.99997ZM17.1962 14.014L18.3422 15.16C18.7766 14.2515 19.0015 13.257 19.0002 12.25V11.75L18.9932 11.648C18.9673 11.4597 18.8709 11.2883 18.7235 11.1684C18.576 11.0485 18.3886 10.989 18.199 11.0019C18.0095 11.0149 17.8319 11.0993 17.7021 11.2382C17.5724 11.377 17.5002 11.5599 17.5002 11.75V12.25L17.4962 12.466C17.4749 12.9942 17.3738 13.5161 17.1962 14.014Z" fill="#222222"/>
</svg>
