<svg width="24" height="24" viewBox="0 0 24 24" fill="none" xmlns="http://www.w3.org/2000/svg">
<path fill-rule="evenodd" clip-rule="evenodd" d="M7.38462 4.54286C5.25352 4.54286 3.53847 6.25702 3.53847 8.3561C3.53847 8.42358 3.54023 8.49059 3.5437 8.55707C3.54613 8.60374 3.54432 8.65017 3.53846 8.69586L3.53846 9.04435C3.53846 9.91072 3.72518 10.7673 4.08632 11.5565C5.21738 14.0283 6.97632 16.1664 9.19135 17.7604L11.1846 19.1948C11.6705 19.5446 12.3293 19.5446 12.8153 19.1948L14.8086 17.7604C17.0237 16.1663 18.7826 14.0283 19.9137 11.5565C20.2748 10.7673 20.4615 9.91073 20.4615 9.04437V8.69581C20.4557 8.65014 20.4539 8.60372 20.4563 8.55707C20.4598 8.49059 20.4615 8.42359 20.4615 8.3561C20.4615 6.25702 18.7465 4.54286 16.6154 4.54286C14.5108 4.54286 12.8116 6.21497 12.77 8.27804C12.7615 8.69792 12.4197 9.03386 12.0009 9.03386H11.9991C11.5803 9.03386 11.2385 8.69792 11.23 8.27804C11.1884 6.21497 9.48922 4.54286 7.38462 4.54286ZM21.9972 8.53089C21.999 8.55281 22 8.57499 22 8.5974V9.04437C22 10.1332 21.7653 11.2092 21.3119 12.2C20.0689 14.9165 18.1366 17.2644 15.7056 19.0139L13.7123 20.4484C12 21.5 12 21.5 10.2876 20.4483L8.29439 19.0139C5.86333 17.2644 3.9311 14.9165 2.68806 12.2C2.2347 11.2092 2 10.1332 2 9.04435L2 8.5974C2 8.57498 2.00095 8.55278 2.00282 8.53084C2.00095 8.47279 2 8.41454 2 8.3561C2 5.39109 4.41771 3 7.38462 3C9.33997 3 11.0566 4.03842 12 5.59536C12.9434 4.03842 14.66 3 16.6154 3C19.5823 3 22 5.39109 22 8.3561C22 8.41456 21.9991 8.47283 21.9972 8.53089Z" fill="#222222"/>
<path d="M3.53847 8.3561C3.53847 6.25702 5.25352 4.54286 7.38462 4.54286C9.48922 4.54286 11.1884 6.21497 11.23 8.27804C11.2385 8.69792 11.5803 9.03386 11.9991 9.03386H12.0009C12.4197 9.03386 12.7615 8.69792 12.77 8.27804C12.8116 6.21497 14.5108 4.54286 16.6154 4.54286C18.7465 4.54286 20.4615 6.25702 20.4615 8.3561C20.4615 8.42359 20.4598 8.49059 20.4563 8.55707C20.4539 8.60372 20.4557 8.65014 20.4615 8.69581V9.04437C20.4615 9.91073 20.2748 10.7673 19.9137 11.5565C18.7826 14.0283 17.0237 16.1663 14.8086 17.7604L12.8153 19.1948C12.3293 19.5446 11.6705 19.5446 11.1846 19.1948L9.19135 17.7604C6.97632 16.1664 5.21738 14.0283 4.08632 11.5565C3.72518 10.7673 3.53846 9.91072 3.53846 9.04435L3.53846 8.69586C3.54432 8.65017 3.54613 8.60374 3.5437 8.55707C3.54023 8.49059 3.53847 8.42358 3.53847 8.3561Z" fill="#222222"/>
</svg>
