<svg width="24" height="24" viewBox="0 0 24 24" fill="none" xmlns="http://www.w3.org/2000/svg">
<path fill-rule="evenodd" clip-rule="evenodd" d="M8.79324 2.5064C8.87118 1.91358 9.38336 1.5 9.95474 1.5H13.88C14.4514 1.5 14.9635 1.91357 15.0415 2.50638L15.3596 4.72507C15.757 4.91297 16.133 5.13296 16.49 5.38165L18.5901 4.53824L18.6008 4.53435C19.0952 4.35456 19.7313 4.51698 20.0323 5.05795L21.9958 8.45472L21.9998 8.46219C22.2681 8.95405 22.1696 9.59123 21.7047 9.95831L21.7022 9.96027L19.9328 11.3439C19.9517 11.5536 19.9641 11.7715 19.9641 12C19.9641 12.2285 19.9517 12.4464 19.9328 12.6561L21.7047 14.0417C22.1696 14.4088 22.2681 15.0459 21.9998 15.5378L21.9958 15.5453L20.0323 18.9421C19.7427 19.4625 19.1221 19.6698 18.5853 19.4598L18.5796 19.4576L16.4867 18.617C16.1336 18.8606 15.7587 19.0837 15.3597 19.274L15.0415 21.4936C14.9635 22.0864 14.4514 22.5 13.88 22.5H9.95474C9.38336 22.5 8.87119 22.0864 8.79325 21.4936L8.47509 19.2749C8.07769 19.087 7.70167 18.867 7.34468 18.6183L5.24457 19.4618L5.23388 19.4657C4.7395 19.6454 4.10348 19.483 3.80244 18.9421L1.83895 15.5453L1.83488 15.5378C1.56659 15.0459 1.66506 14.4088 2.13003 14.0417L2.13252 14.0397L3.90215 12.6559C3.88306 12.4434 3.87063 12.2233 3.87063 12C3.87063 11.7767 3.88306 11.5566 3.90215 11.3441L2.13253 9.96027L2.13003 9.95831C1.6852 9.60712 1.53803 8.96762 1.84452 8.44509L3.80245 5.05787C4.09206 4.53751 4.71262 4.33016 5.24944 4.54022L5.25514 4.54245L7.34804 5.383C7.7011 5.1394 8.07596 4.91629 8.47497 4.72597L8.79324 2.5064ZM10.1284 2.87383L9.72517 5.68609L9.3615 5.83514C8.82846 6.0536 8.32951 6.35467 7.85474 6.71075L7.5454 6.94275L4.91126 5.88486L3.11812 8.98698L5.35615 10.7371L5.30785 11.1235C5.27035 11.4235 5.24446 11.7161 5.24446 12C5.24446 12.2839 5.27035 12.5765 5.30785 12.8765L5.35615 13.2629L3.11812 15.013L4.91126 18.1151L7.55054 17.0552L7.86141 17.2943C8.32688 17.6524 8.82362 17.9444 9.3615 18.1649L9.72517 18.3139L10.1284 21.1262H13.7063L14.1095 18.3139L14.4732 18.1649C15.0063 17.9464 15.5052 17.6453 15.98 17.2893L16.2893 17.0573L18.9235 18.1151L20.7166 15.013L18.4786 13.2629L18.5269 12.8765C18.5644 12.5759 18.5903 12.2933 18.5903 12C18.5903 11.7067 18.5644 11.4241 18.5269 11.1235L18.4786 10.7371L20.7166 8.98698L18.9235 5.88486L16.2842 6.94481L15.9733 6.70568C15.5078 6.34763 15.0111 6.05558 14.4732 5.83514L14.1095 5.68609L13.7063 2.87383H10.1284ZM11.9174 9.25234C10.4028 9.25234 9.16969 10.4854 9.16969 12C9.16969 13.5146 10.4028 14.7477 11.9174 14.7477C13.4319 14.7477 14.665 13.5146 14.665 12C14.665 10.4854 13.4319 9.25234 11.9174 9.25234ZM7.79586 12C7.79586 9.7267 9.64406 7.8785 11.9174 7.8785C14.1907 7.8785 16.0389 9.7267 16.0389 12C16.0389 14.2733 14.1907 16.1215 11.9174 16.1215C9.64406 16.1215 7.79586 14.2733 7.79586 12Z" fill="#222222"/>
</svg>
