<svg width="24" height="24" viewBox="0 0 24 24" fill="none" xmlns="http://www.w3.org/2000/svg">
<path fill-rule="evenodd" clip-rule="evenodd" d="M3.37748 11.173C3.47807 11.8183 3.64936 12.4402 3.88318 13.0306C4.85393 15.9979 6.5384 18.693 8.8004 20.8726L10.5218 22.5313C11.371 23.3495 12.7167 23.3449 13.5603 22.5209L15.2278 20.8921C17.4685 18.7034 19.1391 16.0117 20.1084 13.0528C20.5078 12.0525 20.7275 10.961 20.7275 9.81815C20.7275 4.99821 16.8202 1.09088 12.0002 1.09088C7.18028 1.09088 3.27295 4.99821 3.27295 9.81815C3.27295 10.2006 3.29754 10.5772 3.34524 10.9466C3.35142 11.0219 3.36211 11.0975 3.37748 11.173ZM12.0002 13.0909C13.9583 13.0909 15.5457 11.5035 15.5457 9.54543C15.5457 7.58733 13.9583 5.99997 12.0002 5.99997C10.0421 5.99997 8.45477 7.58733 8.45477 9.54543C8.45477 11.5035 10.0421 13.0909 12.0002 13.0909Z" fill="#222222"/>
</svg>
