<svg width="24" height="24" viewBox="0 0 24 24" fill="none" xmlns="http://www.w3.org/2000/svg">
<path fill-rule="evenodd" clip-rule="evenodd" d="M7.5 16.2857L7.53775 19.7143L10.849 16.2857H18.6667C19.5871 16.2857 20.3333 15.5182 20.3333 14.5714V5.42857C20.3333 4.4818 19.5871 3.71429 18.6667 3.71429H5.33333C4.41286 3.71429 3.66667 4.4818 3.66667 5.42857V14.5714C3.66667 15.5182 4.41286 16.2857 5.33333 16.2857H7.5ZM2 5.42857C2 3.53502 3.49238 2 5.33333 2H18.6667C20.5076 2 22 3.53502 22 5.42857V14.5714C22 16.465 20.5076 18 18.6667 18H11.8113L8.40082 21.5793C8.14486 21.848 7.79001 22 7.41896 22C6.67494 22 6.06984 21.4006 6.06282 20.6566L6.03775 18H5.33333C3.49238 18 2 16.465 2 14.5714V5.42857Z" fill="#222222"/>
<path d="M20.3333 14.5714C20.3333 15.5182 19.5871 16.2857 18.6667 16.2857H10.849L7.53775 19.7143L7.5 16.2857H5.33333C4.41286 16.2857 3.66667 15.5182 3.66667 14.5714V5.42857C3.66667 4.4818 4.41286 3.71429 5.33333 3.71429H18.6667C19.5871 3.71429 20.3333 4.4818 20.3333 5.42857V14.5714Z" fill="#222222"/>
</svg>
