<svg width="24" height="24" viewBox="0 0 24 24" fill="none" xmlns="http://www.w3.org/2000/svg">
<path fill-rule="evenodd" clip-rule="evenodd" d="M18.0564 13.8C15.7057 13.8 13.8 15.7057 13.8 18.0564C13.8 20.4071 15.7057 22.3127 18.0564 22.3127C19.0223 22.3127 19.9135 21.9908 20.6278 21.4484L22.2094 23.0301C22.4361 23.2567 22.8035 23.2567 23.0301 23.0301C23.2567 22.8035 23.2567 22.4361 23.0301 22.2094L21.4484 20.6278C21.9908 19.9135 22.3127 19.0223 22.3127 18.0564C22.3127 15.7057 20.4071 13.8 18.0564 13.8ZM14.9606 18.0564C14.9606 16.3466 16.3466 14.9606 18.0564 14.9606C19.7661 14.9606 21.1522 16.3466 21.1522 18.0564C21.1522 19.7661 19.7661 21.1522 18.0564 21.1522C16.3466 21.1522 14.9606 19.7661 14.9606 18.0564Z" fill="#222222"/>
<path fill-rule="evenodd" clip-rule="evenodd" d="M13.4198 21.8182H4.90936C3.70437 21.8182 2.72754 20.8414 2.72754 19.6364V8.39214C2.72754 7.55651 3.04718 6.75253 3.62095 6.14501L6.39528 3.20748C7.01354 2.55286 7.87418 2.18188 8.7746 2.18188H19.0912C20.2962 2.18188 21.273 3.15872 21.273 4.3637V13.0069C20.3252 12.371 19.1848 12 17.9577 12C14.6674 12 12 14.6674 12 17.9577C12 19.4305 12.5344 20.7784 13.4198 21.8182ZM7.81818 7C7.36631 7 7 7.36631 7 7.81818C7 8.27005 7.36631 8.63636 7.81818 8.63636H14.6818C15.1337 8.63636 15.5 8.27005 15.5 7.81818C15.5 7.36631 15.1337 7 14.6818 7H7.81818ZM7 11.3182C7 10.8663 7.36631 10.5 7.81818 10.5H10.3636C10.8155 10.5 11.1818 10.8663 11.1818 11.3182C11.1818 11.7701 10.8155 12.1364 10.3636 12.1364H7.81818C7.36631 12.1364 7 11.7701 7 11.3182Z" fill="#222222"/>
</svg>
