<svg width="24" height="24" viewBox="0 0 24 24" fill="none" xmlns="http://www.w3.org/2000/svg">
<path fill-rule="evenodd" clip-rule="evenodd" d="M6 20.75C6 21.9926 7.00736 23 8.25 23H15.75C16.9926 23 18 21.9926 18 20.75V7.25C18 6.00736 16.9926 5 15.75 5H8.25C7.00736 5 6 6.00736 6 7.25L6 20.75ZM8.25 21.5C7.83579 21.5 7.5 21.1642 7.5 20.75L7.5 7.25C7.5 6.83579 7.83579 6.5 8.25 6.5L15.75 6.5C16.1642 6.5 16.5 6.83579 16.5 7.25V20.75C16.5 21.1642 16.1642 21.5 15.75 21.5H8.25Z" fill="#222222"/>
<path d="M8.63158 2C8.28277 2 8 2.3078 8 2.6875C8 3.0672 8.28277 3.375 8.63158 3.375H15.3684C15.7172 3.375 16 3.0672 16 2.6875C16 2.3078 15.7172 2 15.3684 2H8.63158Z" fill="#222222"/>
</svg>
