<svg width="24" height="24" viewBox="0 0 24 24" fill="none" xmlns="http://www.w3.org/2000/svg">
<path fill-rule="evenodd" clip-rule="evenodd" d="M3.02279 6.46154C3.02279 4.54978 4.62801 3 6.60815 3H17.1667C19.1468 3 20.752 4.54978 20.752 6.46154V18.184C20.752 20.0958 19.1468 21.6456 17.1667 21.6456H6.60815C4.69359 21.6456 3.12952 20.1967 3.02802 18.3727L3 16V9.87263L3.02279 7.4999V6.46154ZM7.1665 4.5249H9.6665V12.2769C9.6665 12.4815 9.43019 12.5977 9.26554 12.4742L7.1665 10.8999L5.06747 12.4742C4.90281 12.5977 4.6665 12.4815 4.6665 12.2769V6.99992C4.6665 5.63301 5.78579 4.5249 7.1665 4.5249Z" fill="#222222"/>
</svg>
