<svg width="24" height="24" viewBox="0 0 24 24" fill="none" xmlns="http://www.w3.org/2000/svg">
<path fill-rule="evenodd" clip-rule="evenodd" d="M3 16L3.02802 18.3727C3.12952 20.1967 4.69359 21.6456 6.60815 21.6456H17.1667C19.1468 21.6456 20.752 20.0958 20.752 18.184V6.46154C20.752 4.54978 19.1468 3 17.1667 3H6.60815C4.62801 3 3.02279 4.54978 3.02279 6.46154V7.4999L3 9.87263V16ZM4.3 13.6964V15.9923L4.32756 18.3254C4.40173 19.4144 5.35693 20.3456 6.60815 20.3456H17.1667C18.4723 20.3456 19.452 19.3351 19.452 18.184V6.46154C19.452 5.31044 18.4723 4.3 17.1667 4.3H10.9666V12.2769C10.9666 13.5775 9.48737 14.2655 8.48561 13.5142L7.16658 12.5249L5.84754 13.5142C5.36954 13.8727 4.78284 13.9035 4.3 13.6964ZM9.26561 12.4742L7.16658 10.8999L5.06754 12.4742C4.90289 12.5977 4.66658 12.4814 4.66658 12.2769V6.99987C4.66658 5.63296 5.78587 4.52485 7.16658 4.52485H9.66658V12.2769C9.66658 12.4814 9.43027 12.5977 9.26561 12.4742Z" fill="#222222"/>
</svg>
