<svg width="24" height="24" viewBox="0 0 24 24" fill="none" xmlns="http://www.w3.org/2000/svg">
<path fill-rule="evenodd" clip-rule="evenodd" d="M4.75 7C5.30228 7 5.75 6.55228 5.75 6C5.75 5.44772 5.30228 5 4.75 5C4.19772 5 3.75 5.44772 3.75 6C3.75 6.55228 4.19772 7 4.75 7ZM9.5 5.25C9.08579 5.25 8.75 5.58579 8.75 6C8.75 6.41421 9.08579 6.75 9.5 6.75H19.5C19.9142 6.75 20.25 6.41421 20.25 6C20.25 5.58579 19.9142 5.25 19.5 5.25H9.5ZM9.5 11.25C9.08579 11.25 8.75 11.5858 8.75 12C8.75 12.4142 9.08579 12.75 9.5 12.75H19.5C19.9142 12.75 20.25 12.4142 20.25 12C20.25 11.5858 19.9142 11.25 19.5 11.25H9.5ZM8.75 18C8.75 17.5858 9.08579 17.25 9.5 17.25H19.5C19.9142 17.25 20.25 17.5858 20.25 18C20.25 18.4142 19.9142 18.75 19.5 18.75H9.5C9.08579 18.75 8.75 18.4142 8.75 18ZM5.75 12C5.75 12.5523 5.30228 13 4.75 13C4.19772 13 3.75 12.5523 3.75 12C3.75 11.4477 4.19772 11 4.75 11C5.30228 11 5.75 11.4477 5.75 12ZM4.75 19C5.30228 19 5.75 18.5523 5.75 18C5.75 17.4477 5.30228 17 4.75 17C4.19772 17 3.75 17.4477 3.75 18C3.75 18.5523 4.19772 19 4.75 19Z" fill="#222222"/>
</svg>
