<svg width="24" height="24" viewBox="0 0 24 24" fill="none" xmlns="http://www.w3.org/2000/svg">
<path fill-rule="evenodd" clip-rule="evenodd" d="M3.31396 7.4545H4.06965L4.26102 6.84371H5.26566L5.45743 7.4545H6.21311L5.23158 4.54541H4.2955L3.31396 7.4545ZM5.09797 6.30961L4.77419 5.27836H4.75146L4.42836 6.30961H5.09797Z" fill="#222222"/>
<path fill-rule="evenodd" clip-rule="evenodd" d="M3.71802 10.5454V13.4545H5.02342C5.23838 13.4545 5.42114 13.4195 5.57171 13.3494C5.72228 13.2784 5.83734 13.1818 5.91688 13.0596C5.99643 12.9365 6.0362 12.7968 6.0362 12.6406C6.0362 12.5004 6.0059 12.3792 5.94529 12.277C5.88468 12.1737 5.80419 12.0932 5.70381 12.0355C5.60438 11.9777 5.49595 11.946 5.37853 11.9403V11.9119C5.48554 11.8892 5.57976 11.8494 5.6612 11.7926C5.74264 11.7358 5.80656 11.6643 5.85296 11.5781C5.89936 11.491 5.92256 11.392 5.92256 11.2812C5.92256 11.1354 5.88516 11.0071 5.81035 10.8963C5.73648 10.7855 5.62569 10.6993 5.47796 10.6377C5.33118 10.5762 5.14889 10.5454 4.93109 10.5454H3.71802ZM4.8558 12.8877H4.42114V12.1946H4.86859C4.95855 12.1946 5.03573 12.2097 5.10012 12.24C5.16451 12.2694 5.21423 12.3115 5.24927 12.3664C5.28431 12.4204 5.30182 12.4848 5.30182 12.5596C5.30182 12.6628 5.26537 12.7433 5.19245 12.8011C5.12048 12.8589 5.00826 12.8877 4.8558 12.8877ZM4.81035 11.7414H4.42114V11.1037H4.82171C4.93913 11.1037 5.03241 11.1316 5.10154 11.1875C5.17067 11.2433 5.20523 11.32 5.20523 11.4176C5.20523 11.4858 5.18819 11.544 5.1541 11.5923C5.12095 11.6406 5.07455 11.6775 5.01489 11.7031C4.95523 11.7287 4.88705 11.7414 4.81035 11.7414Z" fill="#222222"/>
<path d="M6.21313 17.5994H5.50291C5.49344 17.5265 5.47403 17.4607 5.44467 17.402C5.41531 17.3432 5.37649 17.2931 5.32819 17.2514C5.2799 17.2097 5.2226 17.178 5.15632 17.1562C5.09098 17.1335 5.01853 17.1221 4.93899 17.1221C4.79789 17.1221 4.6762 17.1567 4.57393 17.2258C4.4726 17.2949 4.39448 17.3948 4.33956 17.5255C4.28558 17.6562 4.25859 17.8144 4.25859 18C4.25859 18.1931 4.28605 18.3551 4.34098 18.4858C4.39685 18.6155 4.47497 18.7135 4.57535 18.7798C4.67668 18.8451 4.79647 18.8778 4.93473 18.8778C5.01238 18.8778 5.08293 18.8679 5.14637 18.848C5.21077 18.8281 5.26711 18.7992 5.31541 18.7613C5.36465 18.7225 5.4049 18.6756 5.43615 18.6207C5.46834 18.5648 5.4906 18.5019 5.50291 18.4318L6.21313 18.436C6.20082 18.5648 6.16342 18.6917 6.10092 18.8167C6.03937 18.9417 5.95461 19.0558 5.84666 19.1591C5.7387 19.2613 5.60707 19.3428 5.45177 19.4034C5.29742 19.464 5.12033 19.4943 4.92052 19.4943C4.65726 19.4943 4.42147 19.4365 4.21313 19.321C4.00575 19.2045 3.84192 19.035 3.72166 18.8125C3.60139 18.5899 3.54126 18.3191 3.54126 18C3.54126 17.6799 3.60234 17.4086 3.7245 17.186C3.84666 16.9635 4.0119 16.7945 4.22024 16.6789C4.42857 16.5634 4.662 16.5056 4.92052 16.5056C5.09666 16.5056 5.25954 16.5303 5.40916 16.5795C5.55878 16.6278 5.69041 16.6988 5.80404 16.7926C5.91768 16.8854 6.01001 16.9995 6.08103 17.1349C6.15206 17.2703 6.19609 17.4252 6.21313 17.5994Z" fill="#222222"/>
<path d="M9.93579 5.24996C9.52158 5.24996 9.18579 5.58575 9.18579 5.99996C9.18579 6.41418 9.52158 6.74996 9.93579 6.74996H19.9358C20.35 6.74996 20.6858 6.41418 20.6858 5.99996C20.6858 5.58575 20.35 5.24996 19.9358 5.24996H9.93579Z" fill="#222222"/>
<path d="M9.18579 12C9.18579 11.5857 9.52158 11.25 9.93579 11.25H19.9358C20.35 11.25 20.6858 11.5857 20.6858 12C20.6858 12.4142 20.35 12.75 19.9358 12.75H9.93579C9.52158 12.75 9.18579 12.4142 9.18579 12Z" fill="#222222"/>
<path d="M9.93579 17.25C9.52158 17.25 9.18579 17.5857 9.18579 18C9.18579 18.4142 9.52158 18.75 9.93579 18.75H19.9358C20.35 18.75 20.6858 18.4142 20.6858 18C20.6858 17.5857 20.35 17.25 19.9358 17.25H9.93579Z" fill="#222222"/>
</svg>
