<svg width="24" height="24" viewBox="0 0 24 24" fill="none" xmlns="http://www.w3.org/2000/svg">
<path fill-rule="evenodd" clip-rule="evenodd" d="M6.5 6C6.5 6.55228 6.05228 7 5.5 7C4.94772 7 4.5 6.55228 4.5 6C4.5 5.44772 4.94772 5 5.5 5C6.05228 5 6.5 5.44772 6.5 6ZM7.5 6C7.5 7.10457 6.60457 8 5.5 8C4.39543 8 3.5 7.10457 3.5 6C3.5 4.89543 4.39543 4 5.5 4C6.60457 4 7.5 4.89543 7.5 6ZM9.75 5C9.33579 5 9 5.33579 9 5.75C9 6.16421 9.33579 6.5 9.75 6.5H19.75C20.1642 6.5 20.5 6.16421 20.5 5.75C20.5 5.33579 20.1642 5 19.75 5H9.75ZM9.75 11C9.33579 11 9 11.3358 9 11.75C9 12.1642 9.33579 12.5 9.75 12.5H19.75C20.1642 12.5 20.5 12.1642 20.5 11.75C20.5 11.3358 20.1642 11 19.75 11H9.75ZM9 17.75C9 17.3358 9.33579 17 9.75 17H19.75C20.1642 17 20.5 17.3358 20.5 17.75C20.5 18.1642 20.1642 18.5 19.75 18.5H9.75C9.33579 18.5 9 18.1642 9 17.75ZM5.5 13C6.05228 13 6.5 12.5523 6.5 12C6.5 11.4477 6.05228 11 5.5 11C4.94772 11 4.5 11.4477 4.5 12C4.5 12.5523 4.94772 13 5.5 13ZM5.5 14C6.60457 14 7.5 13.1046 7.5 12C7.5 10.8954 6.60457 10 5.5 10C4.39543 10 3.5 10.8954 3.5 12C3.5 13.1046 4.39543 14 5.5 14ZM6.5 18C6.5 18.5523 6.05228 19 5.5 19C4.94772 19 4.5 18.5523 4.5 18C4.5 17.4477 4.94772 17 5.5 17C6.05228 17 6.5 17.4477 6.5 18ZM7.5 18C7.5 19.1046 6.60457 20 5.5 20C4.39543 20 3.5 19.1046 3.5 18C3.5 16.8954 4.39543 16 5.5 16C6.60457 16 7.5 16.8954 7.5 18Z" fill="#222222"/>
</svg>
