<svg width="24" height="24" viewBox="0 0 24 24" fill="none" xmlns="http://www.w3.org/2000/svg">
<path d="M4.31931 5.36781V7.54963H5.01392V5.36781H4.31931Z" fill="#222222"/>
<path d="M4.4159 5.01696C4.48598 5.08135 4.56979 5.11355 4.66733 5.11355C4.76581 5.11355 4.84962 5.08135 4.91875 5.01696C4.98882 4.95162 5.02386 4.87302 5.02386 4.78116C5.02386 4.69025 4.98882 4.6126 4.91875 4.54821C4.84962 4.48287 4.76581 4.4502 4.66733 4.4502C4.56979 4.4502 4.48598 4.48287 4.4159 4.54821C4.34583 4.6126 4.31079 4.69025 4.31079 4.78116C4.31079 4.87302 4.34583 4.95162 4.4159 5.01696Z" fill="#222222"/>
<path d="M3.75181 11.3678V13.5496H4.44641V11.3678H3.75181Z" fill="#222222"/>
<path d="M3.8484 11.017C3.91848 11.0814 4.00228 11.1135 4.09982 11.1135C4.19831 11.1135 4.28211 11.0814 4.35124 11.017C4.42132 10.9516 4.45635 10.873 4.45635 10.7812C4.45635 10.6903 4.42132 10.6126 4.35124 10.5482C4.28211 10.4829 4.19831 10.4502 4.09982 10.4502C4.00228 10.4502 3.91848 10.4829 3.8484 10.5482C3.77832 10.6126 3.74329 10.6903 3.74329 10.7812C3.74329 10.873 3.77832 10.9516 3.8484 11.017Z" fill="#222222"/>
<path d="M4.88675 11.3678V13.5496H5.58135V11.3678H4.88675Z" fill="#222222"/>
<path d="M4.98334 11.017C5.05342 11.0814 5.13723 11.1135 5.23476 11.1135C5.33325 11.1135 5.41706 11.0814 5.48618 11.017C5.55626 10.9516 5.5913 10.873 5.5913 10.7812C5.5913 10.6903 5.55626 10.6126 5.48618 10.5482C5.41706 10.4829 5.33325 10.4502 5.23476 10.4502C5.13723 10.4502 5.05342 10.4829 4.98334 10.5482C4.91327 10.6126 4.87823 10.6903 4.87823 10.7812C4.87823 10.873 4.91327 10.9516 4.98334 11.017Z" fill="#222222"/>
<path d="M3.37962 19.5496V17.3678H4.07422V19.5496H3.37962Z" fill="#222222"/>
<path d="M3.72763 17.1135C3.63009 17.1135 3.54628 17.0813 3.47621 17.0169C3.40613 16.9516 3.37109 16.873 3.37109 16.7811C3.37109 16.6902 3.40613 16.6126 3.47621 16.5482C3.54628 16.4828 3.63009 16.4502 3.72763 16.4502C3.82611 16.4502 3.90992 16.4828 3.97905 16.5482C4.04912 16.6126 4.08416 16.6902 4.08416 16.7811C4.08416 16.873 4.04912 16.9516 3.97905 17.0169C3.90992 17.0813 3.82611 17.1135 3.72763 17.1135Z" fill="#222222"/>
<path d="M4.51456 19.5496V17.3678H5.20916V19.5496H4.51456Z" fill="#222222"/>
<path d="M4.86257 17.1135C4.76503 17.1135 4.68123 17.0813 4.61115 17.0169C4.54107 16.9516 4.50604 16.873 4.50604 16.7811C4.50604 16.6902 4.54107 16.6126 4.61115 16.5482C4.68123 16.4828 4.76503 16.4502 4.86257 16.4502C4.96106 16.4502 5.04486 16.4828 5.11399 16.5482C5.18407 16.6126 5.21911 16.6902 5.21911 16.7811C5.21911 16.873 5.18407 16.9516 5.11399 17.0169C5.04486 17.0813 4.96106 17.1135 4.86257 17.1135Z" fill="#222222"/>
<path d="M5.6495 19.5496V17.3678H6.34411V19.5496H5.6495Z" fill="#222222"/>
<path d="M5.99751 17.1135C5.89998 17.1135 5.81617 17.0813 5.74609 17.0169C5.67602 16.9516 5.64098 16.873 5.64098 16.7811C5.64098 16.6902 5.67602 16.6126 5.74609 16.5482C5.81617 16.4828 5.89998 16.4502 5.99751 16.4502C6.096 16.4502 6.17981 16.4828 6.24893 16.5482C6.31901 16.6126 6.35405 16.6902 6.35405 16.7811C6.35405 16.873 6.31901 16.9516 6.24893 17.0169C6.17981 17.0813 6.096 17.1135 5.99751 17.1135Z" fill="#222222"/>
<path d="M9.87939 5.24991C9.46518 5.24991 9.12939 5.58569 9.12939 5.99991C9.12939 6.41412 9.46518 6.74991 9.87939 6.74991H19.8794C20.2936 6.74991 20.6294 6.41412 20.6294 5.99991C20.6294 5.58569 20.2936 5.24991 19.8794 5.24991H9.87939Z" fill="#222222"/>
<path d="M9.12939 11.9999C9.12939 11.5857 9.46518 11.2499 9.87939 11.2499H19.8794C20.2936 11.2499 20.6294 11.5857 20.6294 11.9999C20.6294 12.4141 20.2936 12.7499 19.8794 12.7499H9.87939C9.46518 12.7499 9.12939 12.4141 9.12939 11.9999Z" fill="#222222"/>
<path d="M9.87939 17.2499C9.46518 17.2499 9.12939 17.5857 9.12939 17.9999C9.12939 18.4141 9.46518 18.7499 9.87939 18.7499H19.8794C20.2936 18.7499 20.6294 18.4141 20.6294 17.9999C20.6294 17.5857 20.2936 17.2499 19.8794 17.2499H9.87939Z" fill="#222222"/>
</svg>
