<svg width="24" height="24" viewBox="0 0 24 24" fill="none" xmlns="http://www.w3.org/2000/svg">
<path fill-rule="evenodd" clip-rule="evenodd" d="M9.36511 6.00466C9.36511 5.59045 9.7009 5.25466 10.1151 5.25466H20.1151C20.5293 5.25466 20.8651 5.59045 20.8651 6.00466C20.8651 6.41888 20.5293 6.75466 20.1151 6.75466H10.1151C9.7009 6.75466 9.36511 6.41888 9.36511 6.00466Z" fill="#222222"/>
<path fill-rule="evenodd" clip-rule="evenodd" d="M9.36511 12.0047C9.36511 11.5904 9.7009 11.2547 10.1151 11.2547H20.1151C20.5293 11.2547 20.8651 11.5904 20.8651 12.0047C20.8651 12.4189 20.5293 12.7547 20.1151 12.7547H10.1151C9.7009 12.7547 9.36511 12.4189 9.36511 12.0047Z" fill="#222222"/>
<path fill-rule="evenodd" clip-rule="evenodd" d="M9.36511 18.0047C9.36511 17.5904 9.7009 17.2547 10.1151 17.2547H20.1151C20.5293 17.2547 20.8651 17.5904 20.8651 18.0047C20.8651 18.4189 20.5293 18.7547 20.1151 18.7547H10.1151C9.7009 18.7547 9.36511 18.4189 9.36511 18.0047Z" fill="#222222"/>
<path d="M4.3943 7.27348C4.18762 7.27242 4.00332 7.21755 3.84139 7.10889C3.67945 7.00022 3.55215 6.85001 3.45946 6.65825C3.36678 6.46649 3.32043 6.24543 3.32043 5.99507C3.32043 5.74472 3.36891 5.52526 3.46585 5.33669C3.5628 5.14813 3.69277 5.00111 3.85577 4.89564C4.01877 4.78911 4.19987 4.73584 4.39909 4.73584C4.52587 4.73584 4.64306 4.75768 4.75065 4.80136C4.85932 4.84504 4.9536 4.90789 5.0335 4.98992C5.1134 5.07089 5.17519 5.1673 5.21887 5.27916H5.44259L5.64874 5.98868L5.94277 7.22235H5.36109L5.08624 5.98868C5.07026 5.90665 5.04842 5.82728 5.02072 5.75058C4.99302 5.67387 4.95733 5.60516 4.91365 5.54443C4.87104 5.48264 4.81937 5.43417 4.75864 5.39901C4.69792 5.36386 4.62761 5.34628 4.54771 5.34628C4.4465 5.34628 4.36074 5.37398 4.29043 5.42938C4.22118 5.48371 4.16791 5.55882 4.13063 5.6547C4.0944 5.75058 4.07629 5.86084 4.07629 5.98548C4.07629 6.11439 4.09494 6.22891 4.13222 6.32906C4.17058 6.42813 4.22384 6.50644 4.29203 6.56396C4.36021 6.62043 4.43851 6.64866 4.52693 6.64866C4.60151 6.64866 4.66969 6.62948 4.73148 6.59113C4.79327 6.55278 4.8476 6.50218 4.89448 6.43932C4.94242 6.3754 4.98237 6.30562 5.01433 6.22998C5.04735 6.15328 5.07132 6.0771 5.08624 6.00146L5.34032 4.7678H5.91081L5.64874 6.00146L5.44259 6.68382H5.22367C5.18318 6.79461 5.12619 6.89475 5.05268 6.98424C4.97917 7.07267 4.88755 7.14298 4.77782 7.19518C4.66916 7.24738 4.54132 7.27348 4.3943 7.27348Z" fill="#222222"/>
<path d="M4.40071 11.3111H4.70593C4.93392 11.3111 5.12887 11.3532 5.2908 11.4374C5.45274 11.5215 5.57685 11.6361 5.66314 11.7809C5.7505 11.9258 5.79365 12.0883 5.79258 12.2683C5.79365 12.4612 5.74837 12.63 5.65675 12.7749C5.5662 12.9187 5.44421 13.0311 5.2908 13.1121C5.13846 13.192 4.9696 13.2319 4.78424 13.2319C4.67664 13.2319 4.5717 13.2186 4.46943 13.192C4.36715 13.1643 4.26968 13.119 4.17699 13.0562L4.15622 13.0641V12.1309C4.15728 12.2151 4.17539 12.2918 4.21055 12.361C4.24677 12.4303 4.29844 12.4857 4.36556 12.5272C4.43374 12.5688 4.51577 12.5895 4.61165 12.5895C4.69901 12.5895 4.77518 12.5725 4.84017 12.5384C4.90622 12.5032 4.95735 12.4558 4.99357 12.3962C5.0298 12.3354 5.04737 12.2673 5.04631 12.1916C5.04737 12.1043 5.02553 12.0324 4.98079 11.9759C4.93605 11.9194 4.87799 11.8779 4.80661 11.8513C4.73629 11.8246 4.65959 11.8113 4.57649 11.8113H4.40071V11.3111ZM4.54613 9.8857C4.68569 9.8857 4.82099 9.90487 4.95203 9.94322C5.08413 9.98051 5.20291 10.0364 5.30838 10.111C5.41385 10.1856 5.49748 10.2777 5.55927 10.3875C5.62106 10.4972 5.65196 10.6245 5.65196 10.7694C5.65302 10.9271 5.6136 11.0799 5.5337 11.228C5.4538 11.375 5.33981 11.4965 5.19173 11.5924C5.04365 11.6872 4.86733 11.7346 4.66279 11.7346H4.40071V11.2696H4.53495C4.63509 11.2696 4.71126 11.2504 4.76346 11.212C4.81566 11.1726 4.85135 11.1252 4.87053 11.0698C4.8897 11.0134 4.89876 10.9606 4.89769 10.9116C4.89876 10.8083 4.8684 10.7241 4.80661 10.6591C4.74588 10.5931 4.65906 10.5601 4.54613 10.5601C4.47049 10.5601 4.40338 10.576 4.34478 10.608C4.28619 10.64 4.24038 10.6879 4.20735 10.7518C4.17433 10.8147 4.15728 10.8935 4.15622 10.9883V14.1236H3.40515V10.9308C3.40622 10.7135 3.45789 10.527 3.56016 10.3715C3.6635 10.2149 3.80146 10.095 3.97404 10.0119C4.14663 9.92778 4.33732 9.8857 4.54613 9.8857Z" fill="#222222"/>
<path d="M3.2085 16.3172H3.99152L4.4118 17.9583L4.8097 16.3172H5.58634L4.76496 18.7621V19.6922H4.02987V18.7621L3.2085 16.3172Z" fill="#222222"/>
</svg>
