<svg width="24" height="24" viewBox="0 0 24 24" fill="none" xmlns="http://www.w3.org/2000/svg">
<path fill-rule="evenodd" clip-rule="evenodd" d="M4.27623 5.07353C4.2229 5.12255 4.16472 5.16095 4.10169 5.18873C4.03866 5.2165 3.96432 5.23039 3.87866 5.23039C3.83018 5.23039 3.78493 5.22141 3.74291 5.20343C3.7025 5.18382 3.66776 5.1585 3.63866 5.12745C3.60957 5.09477 3.58614 5.05801 3.56836 5.01716C3.5522 4.97631 3.54412 4.93301 3.54412 4.88725C3.54412 4.8415 3.55139 4.80229 3.56594 4.76961C3.58048 4.73529 3.60069 4.70588 3.62654 4.68137C3.6524 4.65686 3.6823 4.6348 3.71624 4.6152C3.75018 4.59559 3.78654 4.57516 3.82533 4.55392C3.90614 4.5 3.97805 4.44526 4.04108 4.38971C4.10573 4.33415 4.1631 4.28268 4.2132 4.23529C4.2633 4.18627 4.30694 4.14461 4.34411 4.11029C4.38128 4.07598 4.4136 4.05229 4.44108 4.03922C4.45724 4.03105 4.47178 4.02451 4.48471 4.01961C4.49926 4.01307 4.5138 4.00899 4.52835 4.00735C4.54289 4.00408 4.55906 4.00245 4.57683 4.00245C4.59461 4.00082 4.61724 4 4.64471 4C4.72875 4 4.79501 4.01716 4.8435 4.05147C4.8936 4.08578 4.93077 4.13072 4.95501 4.18627C4.98087 4.2402 4.99703 4.30147 5.00349 4.3701C5.00996 4.43873 5.01319 4.50817 5.01319 4.57843V6.85294C5.01319 6.92484 5.00996 6.99592 5.00349 7.06618C4.99703 7.1348 4.98087 7.19608 4.95501 7.25C4.93077 7.30392 4.8936 7.34804 4.8435 7.38235C4.79501 7.41503 4.72875 7.43137 4.64471 7.43137C4.55906 7.43137 4.49199 7.41503 4.4435 7.38235C4.39502 7.34804 4.35785 7.30392 4.33199 7.25C4.30775 7.19608 4.29239 7.1348 4.28593 7.06618C4.27946 6.99592 4.27623 6.92484 4.27623 6.85294V5.07353ZM9.82573 5.42353C9.41443 5.42353 9.08101 5.76063 9.08101 6.17647C9.08101 6.59231 9.41443 6.92941 9.82573 6.92941H19.7553C20.1666 6.92941 20.5 6.59231 20.5 6.17647C20.5 5.76063 20.1666 5.42353 19.7553 5.42353H9.82573ZM9.82573 11.4471C9.41443 11.4471 9.08101 11.7842 9.08101 12.2C9.08101 12.6158 9.41443 12.9529 9.82573 12.9529H19.7553C20.1666 12.9529 20.5 12.6158 20.5 12.2C20.5 11.7842 20.1666 11.4471 19.7553 11.4471H9.82573ZM9.08101 18.2235C9.08101 17.8077 9.41443 17.4706 9.82573 17.4706H19.7553C20.1666 17.4706 20.5 17.8077 20.5 18.2235C20.5 18.6394 20.1666 18.9765 19.7553 18.9765H9.82573C9.41443 18.9765 9.08101 18.6394 9.08101 18.2235ZM5.14604 10.5819C5.00867 10.5312 4.84867 10.5059 4.66604 10.5059C4.50443 10.5059 4.36544 10.5247 4.24908 10.5623C4.13272 10.5998 4.03413 10.6489 3.95333 10.7093C3.87252 10.7698 3.80707 10.8376 3.75697 10.9127C3.70687 10.9879 3.66808 11.0631 3.6406 11.1382C3.61313 11.2134 3.59454 11.2845 3.58485 11.3515C3.57515 11.4185 3.5703 11.4732 3.5703 11.5157C3.5703 11.6121 3.60424 11.6913 3.67212 11.7534C3.74 11.8139 3.82888 11.8441 3.93878 11.8441C3.97434 11.8441 4.01312 11.8376 4.05514 11.8245C4.09878 11.8114 4.13837 11.791 4.17393 11.7632C4.2111 11.7355 4.24181 11.6995 4.26605 11.6554C4.29029 11.6096 4.30241 11.5549 4.30241 11.4912C4.30241 11.452 4.30565 11.4111 4.31211 11.3686C4.32019 11.3245 4.33635 11.2845 4.36059 11.2485C4.38645 11.2126 4.42362 11.1832 4.47211 11.1603C4.52059 11.1358 4.58524 11.1235 4.66604 11.1235C4.69675 11.1235 4.73392 11.1268 4.77756 11.1333C4.82281 11.1382 4.86564 11.1529 4.90604 11.1775C4.94806 11.2003 4.98281 11.2363 5.01028 11.2853C5.03937 11.3343 5.05392 11.4013 5.05392 11.4863C5.05392 11.5337 5.04745 11.5802 5.03452 11.626C5.02159 11.6717 4.99412 11.7175 4.9521 11.7632C4.9117 11.8074 4.85352 11.8531 4.77756 11.9005C4.7016 11.9462 4.59978 11.9944 4.47211 12.0451C4.34443 12.0958 4.22807 12.157 4.12302 12.2289C4.01959 12.3008 3.92989 12.3825 3.85393 12.474C3.77959 12.5639 3.72141 12.6644 3.67939 12.7755C3.63899 12.885 3.61879 13.0026 3.61879 13.1284V13.5206C3.61879 13.5712 3.62444 13.6227 3.63576 13.675C3.64868 13.7257 3.6705 13.7722 3.70121 13.8147C3.73192 13.8556 3.77313 13.8899 3.82484 13.9176C3.87818 13.9438 3.94525 13.9569 4.02605 13.9569H5.23331C5.30119 13.9569 5.36906 13.9536 5.43694 13.9471C5.50482 13.9405 5.56623 13.925 5.62118 13.9005C5.67613 13.876 5.72057 13.8408 5.75451 13.7951C5.78845 13.7493 5.80542 13.6873 5.80542 13.6088C5.80542 13.532 5.78845 13.4716 5.75451 13.4275C5.72057 13.3817 5.67613 13.3474 5.62118 13.3245C5.56623 13.3016 5.50482 13.2869 5.43694 13.2804C5.36906 13.2739 5.30119 13.2706 5.23331 13.2706H4.38968V13.1186C4.38968 13.0484 4.40342 12.9863 4.4309 12.9324C4.45837 12.8768 4.49393 12.8286 4.53756 12.7877C4.5812 12.7453 4.63049 12.7085 4.68544 12.6775C4.742 12.6448 4.79857 12.617 4.85513 12.5941C5.02483 12.532 5.17755 12.4503 5.31331 12.349C5.36987 12.3065 5.42563 12.2575 5.48058 12.202C5.53553 12.1464 5.58401 12.0843 5.62603 12.0157C5.66967 11.9471 5.70441 11.8711 5.73027 11.7877C5.75775 11.7044 5.77148 11.6137 5.77148 11.5157C5.77148 11.367 5.74805 11.2314 5.70118 11.1088C5.65431 10.9846 5.58482 10.8784 5.4927 10.7902C5.40058 10.7003 5.28503 10.6309 5.14604 10.5819ZM4.68301 17.2304V17.2647L4.37756 17.8284C4.34847 17.8807 4.32746 17.9281 4.31453 17.9706C4.3016 18.0114 4.29514 18.049 4.29514 18.0833C4.29514 18.165 4.31938 18.2296 4.36787 18.277C4.41635 18.3243 4.47938 18.348 4.55695 18.348C4.6119 18.348 4.66524 18.3611 4.71695 18.3873C4.77028 18.4118 4.81715 18.4469 4.85756 18.4926C4.89958 18.5384 4.93271 18.5923 4.95695 18.6544C4.98119 18.7165 4.99331 18.7843 4.99331 18.8578C4.99331 18.9216 4.98604 18.9845 4.97149 19.0466C4.95856 19.1087 4.93432 19.1642 4.89877 19.2132C4.86321 19.2623 4.81473 19.3023 4.75332 19.3333C4.69352 19.3627 4.61675 19.3775 4.52302 19.3775C4.4616 19.3775 4.40746 19.3709 4.36059 19.3578C4.31373 19.3431 4.27332 19.326 4.23938 19.3064C4.20706 19.2868 4.18039 19.2655 4.15938 19.2426C4.13999 19.2198 4.12545 19.1993 4.11575 19.1814C4.07696 19.1029 4.02848 19.0449 3.9703 19.0074C3.91373 18.9698 3.85232 18.951 3.78606 18.951C3.73596 18.951 3.69313 18.96 3.65757 18.9779C3.62202 18.9943 3.59212 19.0172 3.56788 19.0466C3.54525 19.0743 3.52828 19.107 3.51697 19.1446C3.50566 19.1806 3.5 19.219 3.5 19.2598C3.5 19.3431 3.51535 19.4191 3.54606 19.4877C3.57838 19.5564 3.62121 19.6185 3.67454 19.674C3.72788 19.7296 3.78848 19.7778 3.85636 19.8186C3.92585 19.8578 3.99777 19.8913 4.07211 19.9191C4.14807 19.9469 4.22403 19.9673 4.29999 19.9804C4.37595 19.9935 4.44706 20 4.51332 20C4.60059 20 4.68948 19.9918 4.77998 19.9755C4.87049 19.9592 4.95776 19.9322 5.0418 19.8946C5.12745 19.857 5.20745 19.808 5.28179 19.7476C5.35775 19.6855 5.42321 19.6095 5.47815 19.5196C5.53472 19.4297 5.57916 19.3243 5.61149 19.2034C5.64542 19.0809 5.66239 18.9412 5.66239 18.7843C5.66239 18.6454 5.64542 18.5229 5.61149 18.4167C5.57916 18.3088 5.53472 18.2157 5.47815 18.1373C5.42321 18.0588 5.36018 17.9943 5.28907 17.9436C5.21796 17.8913 5.14523 17.8497 5.07089 17.8186L5.50724 17.0833C5.52179 17.0588 5.53068 17.0335 5.53391 17.0074C5.53876 16.9812 5.54118 16.9542 5.54118 16.9265C5.54118 16.8791 5.53229 16.8325 5.51452 16.7868C5.49674 16.741 5.47007 16.701 5.43452 16.6667C5.40058 16.6307 5.35775 16.6021 5.30603 16.5809C5.25593 16.5596 5.19856 16.549 5.13392 16.549H4.05272C3.99777 16.549 3.9404 16.5523 3.8806 16.5588C3.82242 16.5654 3.76909 16.5801 3.7206 16.6029C3.67212 16.6258 3.63172 16.6601 3.59939 16.7059C3.56869 16.75 3.55333 16.8105 3.55333 16.8873C3.55333 16.9657 3.56869 17.0278 3.59939 17.0735C3.63172 17.1193 3.67212 17.1536 3.7206 17.1765C3.76909 17.1993 3.82242 17.2141 3.8806 17.2206C3.9404 17.2271 3.99777 17.2304 4.05272 17.2304H4.68301Z" fill="#222222"/>
</svg>
