<svg width="24" height="24" viewBox="0 0 24 24" fill="none" xmlns="http://www.w3.org/2000/svg">
<rect x="3.25" y="4" width="17.5" height="12.5" rx="3.25" stroke="#222222" stroke-width="1.5" stroke-linecap="round"/>
<path fill-rule="evenodd" clip-rule="evenodd" d="M7.5 20C7.5 19.5858 7.81811 19.25 8.21053 19.25H15.7895C16.1819 19.25 16.5 19.5858 16.5 20C16.5 20.4142 16.1819 20.75 15.7895 20.75H8.21053C7.81811 20.75 7.5 20.4142 7.5 20Z" fill="#222222"/>
<path fill-rule="evenodd" clip-rule="evenodd" d="M14.584 9.87402C14.9287 10.1038 15.3943 10.0107 15.6241 9.66605C15.8539 9.32141 15.7608 8.85575 15.4161 8.62598L12.4163 6.62598C12.1644 6.45802 11.8362 6.45801 11.5843 6.62595L8.58407 8.62595C8.23942 8.8557 8.14628 9.32135 8.37603 9.66601C8.60578 10.0107 9.07143 10.1038 9.41609 9.87405L11.2501 8.65146L11.2501 13.25C11.2501 13.6642 11.5859 14 12.0001 14C12.4143 14 12.7501 13.6642 12.7501 13.25L12.7501 8.65132L14.584 9.87402Z" fill="#222222"/>
</svg>
