<svg width="24" height="24" viewBox="0 0 24 24" fill="none" xmlns="http://www.w3.org/2000/svg">
<path fill-rule="evenodd" clip-rule="evenodd" d="M19.6004 4.39993C19.3076 4.10699 18.8327 4.10692 18.5398 4.39977C18.2469 4.69261 18.2468 5.16749 18.5396 5.46043C20.2737 7.19506 21.2479 9.54741 21.2479 12.0002C21.2479 14.4529 20.2737 16.8053 18.5396 18.5399C18.2468 18.8329 18.2469 19.3077 18.5398 19.6006C18.8327 19.8934 19.3076 19.8934 19.6004 19.6004C21.6158 17.5845 22.7479 14.8507 22.7479 12.0002C22.7479 9.14966 21.6158 6.41585 19.6004 4.39993ZM17.0704 7.92993C16.7776 7.63699 16.3027 7.63692 16.0098 7.92977C15.7169 8.22261 15.7168 8.69749 16.0096 8.99043C16.8064 9.78742 17.254 10.8682 17.254 11.9952C17.254 13.1221 16.8064 14.2029 16.0096 14.9999C15.7168 15.2929 15.7169 15.7677 16.0098 16.0606C16.3027 16.3534 16.7776 16.3534 17.0704 16.0604C18.1484 14.9821 18.754 13.5199 18.754 11.9952C18.754 10.4705 18.1484 9.00821 17.0704 7.92993ZM12.4877 4.43018C12.439 4.38846 12.3844 4.35262 12.3249 4.32402C12.065 4.19913 11.7566 4.23425 11.5315 4.41435L6.73691 8.25H3C2.58579 8.25 2.25 8.58579 2.25 9V9.00001V15V15C2.25 15.2589 2.38117 15.4871 2.58067 15.6219C2.65205 15.6701 2.73218 15.7064 2.81819 15.7278C2.8764 15.7423 2.9373 15.75 3 15.75L6.73691 15.75L11.5315 19.5857C11.7566 19.7658 12.065 19.8009 12.3249 19.676C12.3574 19.6604 12.3884 19.6426 12.4178 19.6229C12.6235 19.485 12.75 19.2523 12.75 19C12.75 19 12.75 19 12.75 19V5.00001C12.75 5 12.75 5 12.75 5C12.75 4.77772 12.6518 4.57062 12.4877 4.43018Z" fill="#222222"/>
</svg>
