<svg width="24" height="24" viewBox="0 0 24 24" fill="none" xmlns="http://www.w3.org/2000/svg">
<path d="M12.75 5.00001C12.75 4.7117 12.5847 4.44892 12.3249 4.32403C12.065 4.19914 11.7566 4.23425 11.5315 4.41436L6.73691 8.25001H3C2.58579 8.25001 2.25 8.58579 2.25 9.00001V15C2.25 15.4142 2.58579 15.75 3 15.75H6.73691L11.5315 19.5857C11.7566 19.7658 12.065 19.8009 12.3249 19.676C12.5847 19.5511 12.75 19.2883 12.75 19V5.00001Z" fill="#222222"/>
<path d="M17.0704 7.92972C16.7776 7.63678 16.3027 7.63671 16.0098 7.92956C15.7169 8.22241 15.7168 8.69728 16.0096 8.99022C16.8064 9.78721 17.254 10.868 17.254 11.995C17.254 13.1219 16.8064 14.2027 16.0096 14.9997C15.7168 15.2927 15.7169 15.7675 16.0098 16.0604C16.3027 16.3532 16.7776 16.3532 17.0704 16.0602C18.1484 14.9819 18.754 13.5197 18.754 11.995C18.754 10.4703 18.1484 9.008 17.0704 7.92972Z" fill="#222222"/>
</svg>
