<svg width="24" height="24" viewBox="0 0 24 24" fill="none" xmlns="http://www.w3.org/2000/svg">
<path fill-rule="evenodd" clip-rule="evenodd" d="M21.2429 20.4L12 4.2249L2.75707 20.4H21.2429ZM1.72316 22C0.955335 22 0.473967 21.1705 0.854914 20.5039L11.1317 2.51943C11.5156 1.84761 12.4843 1.84761 12.8682 2.51943L23.145 20.5039C23.526 21.1705 23.0446 22 22.2768 22H1.72316Z" fill="#222222"/>
<path fill-rule="evenodd" clip-rule="evenodd" d="M11.9998 9C12.4517 9 12.818 9.36631 12.818 9.81818V14.3636C12.818 14.8155 12.4517 15.1818 11.9998 15.1818C11.548 15.1818 11.1816 14.8155 11.1816 14.3636V9.81818C11.1816 9.36631 11.548 9 11.9998 9Z" fill="#222222"/>
<path d="M13.091 17.4091C13.091 18.0116 12.6026 18.5 12.0001 18.5C11.3976 18.5 10.9092 18.0116 10.9092 17.4091C10.9092 16.8066 11.3976 16.3182 12.0001 16.3182C12.6026 16.3182 13.091 16.8066 13.091 17.4091Z" fill="#222222"/>
</svg>
