<svg width="24" height="24" viewBox="0 0 24 24" fill="none" xmlns="http://www.w3.org/2000/svg">
<path fill-rule="evenodd" clip-rule="evenodd" d="M2 8C2 4.68629 4.68629 2 8 2H16C19.3137 2 22 4.68629 22 8V16C22 19.3137 19.3137 22 16 22H8C4.68629 22 2 19.3137 2 16V8ZM11.7241 5.10827C11.8473 4.96391 12.1527 4.96391 12.2759 5.10827L13.956 7.07563C14.0802 7.22111 13.9266 7.40381 13.6801 7.40381H12.6L12.6 11.444L16.6717 11.444V10.364C16.6717 10.1174 16.857 9.96378 17.0045 10.088L19 11.7681C19.1464 11.8913 19.1464 12.1967 19 12.32L17.0045 14C16.857 14.1243 16.6717 13.9706 16.6717 13.7241V12.644L12.6 12.644V16.3394H13.6801C13.9266 16.3394 14.0802 16.5415 13.956 16.7024L12.2759 18.8788C12.1527 19.0385 11.8473 19.0385 11.7241 18.8788L10.044 16.7024C9.91976 16.5415 10.0734 16.3393 10.3199 16.3394H11.4L11.4 12.6H7.32058V13.6801C7.32058 13.9266 7.1442 14.0802 7.00376 13.956L5.10452 12.2759C4.96516 12.1527 4.96516 11.8473 5.10452 11.7241L7.00376 10.044C7.1442 9.91976 7.32058 10.0734 7.32058 10.3199V11.4L11.4 11.4L11.4 7.40381H10.3199C10.0734 7.40381 9.91976 7.22111 10.044 7.07563L11.7241 5.10827Z" fill="#222222"/>
</svg>
