<svg width="24" height="24" viewBox="0 0 24 24" fill="none" xmlns="http://www.w3.org/2000/svg">
<path fill-rule="evenodd" clip-rule="evenodd" d="M8.06267 15.9373C6.59512 15.7401 5.17812 15.0776 4.05025 13.9497C1.31658 11.2161 1.31658 6.78392 4.05025 4.05025C6.78392 1.31658 11.2161 1.31658 13.9497 4.05025C15.0776 5.17812 15.7401 6.59512 15.9373 8.06267C17.4049 8.25985 18.8219 8.92238 19.9497 10.0503C22.6834 12.7839 22.6834 17.2161 19.9497 19.9497C17.2161 22.6834 12.7839 22.6834 10.0503 19.9497C8.92238 18.8219 8.25985 17.4049 8.06267 15.9373ZM8.01682 14.5135C6.92655 14.3201 5.88258 13.8022 5.0402 12.9598C2.85327 10.7729 2.85327 7.22714 5.0402 5.0402C7.22714 2.85327 10.7729 2.85327 12.9598 5.0402C13.8022 5.88258 14.3201 6.92655 14.5135 8.01682C12.8875 8.12942 11.2933 8.80722 10.0503 10.0503C8.80722 11.2933 8.12942 12.8875 8.01682 14.5135ZM15.9832 9.48649C17.0734 9.67992 18.1174 10.1978 18.9598 11.0402C21.1467 13.2271 21.1467 16.7729 18.9598 18.9598C16.7729 21.1467 13.2271 21.1467 11.0402 18.9598C10.1978 18.1174 9.67992 17.0734 9.48649 15.9832C11.1125 15.8706 12.7067 15.1928 13.9497 13.9497C15.1928 12.7067 15.8706 11.1125 15.9832 9.48649ZM14.5847 9.41533C14.4892 10.7071 13.9476 11.972 12.9598 12.9598C11.972 13.9476 10.7071 14.4892 9.41533 14.5847C9.51082 13.2929 10.0524 12.028 11.0402 11.0402C12.028 10.0524 13.2929 9.51082 14.5847 9.41533Z" fill="#222222"/>
</svg>
