<svg width="24" height="24" viewBox="0 0 24 24" fill="none" xmlns="http://www.w3.org/2000/svg">
<path fill-rule="evenodd" clip-rule="evenodd" d="M4.0803 2C2.93138 2 2 2.95061 2 4.12325V8.14134C2 9.31398 2.93138 10.2646 4.0803 10.2646H8.0171C9.16601 10.2646 10.0974 9.31398 10.0974 8.14134V4.12325C10.0974 2.95061 9.16601 2 8.0171 2H4.0803ZM3.53606 4.12325C3.53606 3.81647 3.77973 3.56778 4.0803 3.56778H8.0171C8.31767 3.56778 8.56133 3.81647 8.56133 4.12325V8.14134C8.56133 8.44812 8.31767 8.69682 8.0171 8.69682H4.0803C3.77973 8.69682 3.53606 8.44812 3.53606 8.14134V4.12325Z" fill="#222222"/>
<path fill-rule="evenodd" clip-rule="evenodd" d="M14.7244 2C13.5755 2 12.6441 2.95061 12.6441 4.12325V8.14134C12.6441 9.31398 13.5755 10.2646 14.7244 10.2646H18.6612C19.8101 10.2646 20.7415 9.31398 20.7415 8.14134V4.12325C20.7415 2.95061 19.8101 2 18.6612 2H14.7244ZM14.1802 4.12325C14.1802 3.81647 14.4238 3.56778 14.7244 3.56778H18.6612C18.9618 3.56778 19.2055 3.81647 19.2055 4.12325V8.14134C19.2055 8.44812 18.9618 8.69682 18.6612 8.69682H14.7244C14.4238 8.69682 14.1802 8.44812 14.1802 8.14134V4.12325Z" fill="#222222"/>
<path fill-rule="evenodd" clip-rule="evenodd" d="M4.0803 12.8639C2.93138 12.8639 2 13.8145 2 14.9872V19.0052C2 20.1779 2.93138 21.1285 4.0803 21.1285H8.0171C9.16601 21.1285 10.0974 20.1779 10.0974 19.0052V14.9872C10.0974 13.8145 9.16601 12.8639 8.0171 12.8639H4.0803ZM3.53606 14.9872C3.53606 14.6804 3.77973 14.4317 4.0803 14.4317H8.0171C8.31767 14.4317 8.56133 14.6804 8.56133 14.9872V19.0052C8.56133 19.312 8.31767 19.5607 8.0171 19.5607H4.0803C3.77973 19.5607 3.53606 19.312 3.53606 19.0052V14.9872Z" fill="#222222"/>
<path fill-rule="evenodd" clip-rule="evenodd" d="M16.7672 12.2065C14.3578 12.2065 12.4046 14.2 12.4046 16.6591C12.4046 19.1183 14.3578 21.1118 16.7672 21.1118C17.698 21.1118 18.5614 20.8139 19.2699 20.3066L20.7073 21.7736C21.003 22.0755 21.4825 22.0755 21.7782 21.7736C22.0739 21.4718 22.0739 20.9824 21.7782 20.6806L20.3408 19.2136C20.8379 18.4904 21.1297 17.6091 21.1297 16.6591C21.1297 14.2 19.1766 12.2065 16.7672 12.2065ZM13.9191 16.6591C13.9191 15.0537 15.1942 13.7522 16.7672 13.7522C18.3401 13.7522 19.6153 15.0537 19.6153 16.6591C19.6153 18.2646 18.3401 19.566 16.7672 19.566C15.1942 19.566 13.9191 18.2646 13.9191 16.6591Z" fill="#222222"/>
</svg>
