<svg width="24" height="24" viewBox="0 0 24 24" fill="none" xmlns="http://www.w3.org/2000/svg">
<path fill-rule="evenodd" clip-rule="evenodd" d="M19.35 8.47875C18.67 4.92094 15.64 2.25 12 2.25C9.11 2.25 6.6 3.94125 5.35 6.41625C2.34 6.74625 0 9.37594 0 12.5625C0 15.9759 2.69 18.75 6 18.75H8.6332C8.66559 18.4101 8.83419 18.0853 9.1265 17.8608L9.85622 17.3058L9.85521 17.2501L9.85622 17.1937L9.12283 16.6365C8.64371 16.2686 8.4871 15.6154 8.75009 15.0794L8.80435 14.9804L9.89552 13.1448C10.2083 12.587 10.8798 12.3542 11.4764 12.5814L12.3667 12.9284L12.4989 12.8546L12.6285 11.9788C12.7065 11.3717 13.2041 10.9268 13.7926 10.8792L13.8973 10.875H16.1049C16.7382 10.875 17.2912 11.336 17.3712 11.9603L17.5023 12.8526L17.5586 12.8825L17.6365 12.9284L18.5564 12.57C19.0956 12.3793 19.7166 12.5635 20.0375 13.0318L20.0941 13.1229L21.2105 15.0023C21.5189 15.5521 21.3852 16.2481 20.8757 16.6393L20.1456 17.1937L20.147 17.2501L20.1456 17.3058L20.8794 17.8636C21.0121 17.9656 21.1192 18.0887 21.1992 18.2252C22.8576 17.3855 24 15.6264 24 13.5938C24 10.8713 21.95 8.66438 19.35 8.47875ZM18.7599 17.25C18.7599 17.0842 18.7449 16.9282 18.7248 16.7723L19.7823 15.9679C19.8776 15.8948 19.9026 15.7631 19.8425 15.6559L18.8401 13.9691C18.78 13.8619 18.6447 13.8229 18.5344 13.8619L17.2865 14.3494C17.0259 14.1544 16.7452 13.9935 16.4395 13.8716L16.249 12.5798C16.234 12.4628 16.1288 12.375 16.0035 12.375H13.9988C13.8735 12.375 13.7682 12.4628 13.7532 12.5798L13.5627 13.8716C13.257 13.9935 12.9764 14.1593 12.7157 14.3494L11.4678 13.8619C11.3525 13.818 11.2222 13.8619 11.1621 13.9691L10.1597 15.6559C10.0946 15.7631 10.1247 15.8948 10.2199 15.9679L11.2774 16.7723C11.2573 16.9282 11.2423 17.0891 11.2423 17.25C11.2423 17.4109 11.2573 17.5718 11.2774 17.7277L10.2199 18.5321C10.1247 18.6053 10.0996 18.7369 10.1597 18.8441L11.1621 20.5309C11.2222 20.6381 11.3576 20.6771 11.4678 20.6381L12.7157 20.1506C12.9764 20.3456 13.257 20.5065 13.5627 20.6284L13.7532 21.9202C13.7682 22.0373 13.8735 22.125 13.9988 22.125H16.0035C16.1288 22.125 16.234 22.0373 16.249 21.9202L16.4395 20.6284C16.7452 20.5065 17.0259 20.3407 17.2865 20.1506L18.5344 20.6381C18.6497 20.682 18.78 20.6381 18.8401 20.5309L19.8425 18.8441C19.9026 18.7369 19.8776 18.6053 19.7823 18.5321L18.7248 17.7277C18.7449 17.5718 18.7599 17.4158 18.7599 17.25ZM13.05 17.25C13.05 16.1747 13.9247 15.3 15 15.3C16.0753 15.3 16.95 16.1747 16.95 17.25C16.95 18.3253 16.0753 19.2 15 19.2C13.9247 19.2 13.05 18.3253 13.05 17.25Z" fill="#222222"/>
</svg>
