<svg width="24" height="24" viewBox="0 0 24 24" fill="none" xmlns="http://www.w3.org/2000/svg">
<path fill-rule="evenodd" clip-rule="evenodd" d="M19 6.5C19.8284 6.5 20.5 5.82843 20.5 5C20.5 4.17157 19.8284 3.5 19 3.5C18.1716 3.5 17.5 4.17157 17.5 5C17.5 5.82843 18.1716 6.5 19 6.5ZM19 7.5C20.3807 7.5 21.5 6.38071 21.5 5C21.5 3.61929 20.3807 2.5 19 2.5C17.6193 2.5 16.5 3.61929 16.5 5C16.5 6.38071 17.6193 7.5 19 7.5Z" fill="#222222"/>
<path fill-rule="evenodd" clip-rule="evenodd" d="M12 20.5C12.8284 20.5 13.5 19.8284 13.5 19C13.5 18.1716 12.8284 17.5 12 17.5C11.1716 17.5 10.5 18.1716 10.5 19C10.5 19.8284 11.1716 20.5 12 20.5ZM12 21.5C13.3807 21.5 14.5 20.3807 14.5 19C14.5 17.6193 13.3807 16.5 12 16.5C10.6193 16.5 9.5 17.6193 9.5 19C9.5 20.3807 10.6193 21.5 12 21.5Z" fill="#222222"/>
<path d="M5 7.5C6.02516 7.5 6.9062 6.88295 7.29198 6H9.70802C10.0938 6.88295 10.9748 7.5 12 7.5C13.3807 7.5 14.5 6.38071 14.5 5C14.5 3.61929 13.3807 2.5 12 2.5C10.7905 2.5 9.78164 3.35888 9.55001 4.5H7.44999C7.21836 3.35888 6.20948 2.5 5 2.5C3.61929 2.5 2.5 3.61929 2.5 5C2.5 6.38071 3.61929 7.5 5 7.5Z" fill="#222222"/>
<path d="M5 9.5C3.61929 9.5 2.5 10.6193 2.5 12C2.5 13.1559 3.28444 14.1285 4.35 14.4147V16.5853C3.28444 16.8715 2.5 17.8441 2.5 19C2.5 20.3807 3.61929 21.5 5 21.5C6.15588 21.5 7.12854 20.7156 7.41467 19.65H9.58533C9.52968 19.4427 9.5 19.2248 9.5 19C9.5 18.7752 9.52968 18.5573 9.58533 18.35H7.41467C7.1842 17.4917 6.50829 16.8158 5.65 16.5853V14.4147C6.50829 14.1842 7.1842 13.5083 7.41467 12.65H9.58533C9.52968 12.4427 9.5 12.2248 9.5 12C9.5 11.7752 9.52968 11.5573 9.58533 11.35H7.41467C7.12854 10.2844 6.15588 9.5 5 9.5Z" fill="#222222"/>
<path d="M14.4147 12.65C14.4703 12.4427 14.5 12.2248 14.5 12C14.5 11.7752 14.4703 11.5573 14.4147 11.35H16.5853C16.8158 10.4917 17.4917 9.8158 18.35 9.58533V7.41467C18.5573 7.47032 18.7752 7.5 19 7.5C19.2248 7.5 19.4427 7.47032 19.65 7.41467V9.58533C20.7156 9.87146 21.5 10.8441 21.5 12C21.5 13.3807 20.3807 14.5 19 14.5C17.8441 14.5 16.8715 13.7156 16.5853 12.65H14.4147Z" fill="#222222"/>
<path d="M14.4147 19.65C14.4703 19.4427 14.5 19.2248 14.5 19C14.5 18.7752 14.4703 18.5573 14.4147 18.35H16.5853C16.8715 17.2844 17.8441 16.5 19 16.5C20.3807 16.5 21.5 17.6193 21.5 19C21.5 20.3807 20.3807 21.5 19 21.5C17.8441 21.5 16.8715 20.7156 16.5853 19.65H14.4147Z" fill="#222222"/>
<path fill-rule="evenodd" clip-rule="evenodd" d="M12 13.5C12.8284 13.5 13.5 12.8284 13.5 12C13.5 11.1716 12.8284 10.5 12 10.5C11.1716 10.5 10.5 11.1716 10.5 12C10.5 12.8284 11.1716 13.5 12 13.5ZM12 14.5C13.3807 14.5 14.5 13.3807 14.5 12C14.5 10.6193 13.3807 9.50002 12 9.50002C10.6193 9.50002 9.5 10.6193 9.5 12C9.5 13.3807 10.6193 14.5 12 14.5Z" fill="#222222"/>
</svg>
