<svg width="24" height="24" viewBox="0 0 24 24" fill="none" xmlns="http://www.w3.org/2000/svg">
<path fill-rule="evenodd" clip-rule="evenodd" d="M10.94 4.08322C10.7268 4.13169 10.5603 4.2982 10.5118 4.51144C10.3532 5.2092 10.3532 5.93366 10.5118 6.63142C10.5603 6.84466 10.7268 7.01117 10.94 7.05963C11.6378 7.21822 12.3622 7.21822 13.06 7.05963C13.2732 7.01117 13.4397 6.84466 13.4882 6.63142C13.6468 5.93365 13.6468 5.2092 13.4882 4.51144C13.4397 4.2982 13.2732 4.13169 13.06 4.08322C12.3622 3.92464 11.6378 3.92464 10.94 4.08322ZM3.14292 4.29773C3.27361 3.72267 3.72267 3.27361 4.29773 3.14292C5.13617 2.95236 6.00668 2.95236 6.84512 3.14292C7.42018 3.27361 7.86924 3.72267 7.99994 4.29773C8.1905 5.13617 8.1905 6.00668 7.99994 6.84512C7.86924 7.42019 7.42018 7.86925 6.84512 7.99994C6.00668 8.1905 5.13617 8.1905 4.29773 7.99994C3.72267 7.86925 3.27361 7.42019 3.14292 6.84512C2.95236 6.00668 2.95236 5.13617 3.14292 4.29773ZM9.57149 4.29773C9.70218 3.72267 10.1512 3.27361 10.7263 3.14292C11.5647 2.95236 12.4353 2.95236 13.2737 3.14292C13.8488 3.27361 14.2978 3.72267 14.4285 4.29773C14.6191 5.13617 14.6191 6.00668 14.4285 6.84512C14.2978 7.42019 13.8488 7.86925 13.2737 7.99994C12.4353 8.1905 11.5647 8.1905 10.7263 7.99994C10.1512 7.86925 9.70218 7.42019 9.57149 6.84512C9.38093 6.00668 9.38093 5.13617 9.57149 4.29773ZM10.7263 9.57149C10.1512 9.70218 9.70218 10.1512 9.57149 10.7263C9.38093 11.5647 9.38093 12.4353 9.57149 13.2737C9.70218 13.8488 10.1512 14.2978 10.7263 14.4285C11.5647 14.6191 12.4353 14.6191 13.2737 14.4285C13.8488 14.2978 14.2978 13.8488 14.4285 13.2737C14.6191 12.4353 14.6191 11.5647 14.4285 10.7263C14.2978 10.1512 13.8488 9.70218 13.2737 9.57149C12.4353 9.38093 11.5647 9.38093 10.7263 9.57149Z" fill="#222222"/>
<path fill-rule="evenodd" clip-rule="evenodd" d="M6.84512 9.57149C6.00668 9.38093 5.13617 9.38093 4.29773 9.57149C3.72267 9.70218 3.27361 10.1512 3.14292 10.7263C2.95236 11.5647 2.95236 12.4353 3.14292 13.2737C3.27361 13.8488 3.72267 14.2978 4.29773 14.4285C5.13617 14.6191 6.00668 14.6191 6.84512 14.4285C7.42019 14.2978 7.86925 13.8488 7.99994 13.2737C8.1905 12.4353 8.1905 11.5647 7.99994 10.7263C7.86925 10.1512 7.42019 9.70218 6.84512 9.57149ZM4.51144 10.5118C4.2982 10.5603 4.13169 10.7268 4.08322 10.94C3.92464 11.6378 3.92464 12.3622 4.08322 13.06C4.13169 13.2732 4.2982 13.4397 4.51144 13.4882C5.2092 13.6468 5.93366 13.6468 6.63142 13.4882C6.84466 13.4397 7.01117 13.2732 7.05963 13.06C7.21822 12.3622 7.21822 11.6378 7.05963 10.94C7.01117 10.7268 6.84466 10.5603 6.63142 10.5118C5.93366 10.3532 5.2092 10.3532 4.51144 10.5118Z" fill="#222222"/>
<path fill-rule="evenodd" clip-rule="evenodd" d="M10.94 16.9404C10.7268 16.9888 10.5603 17.1553 10.5118 17.3686C10.3532 18.0663 10.3532 18.7908 10.5118 19.4886C10.5603 19.7018 10.7268 19.8683 10.94 19.9168C11.6378 20.0754 12.3622 20.0754 13.06 19.9168C13.2732 19.8683 13.4397 19.7018 13.4882 19.4886C13.6468 18.7908 13.6468 18.0663 13.4882 17.3686C13.4397 17.1553 13.2732 16.9888 13.06 16.9404C12.3622 16.7818 11.6378 16.7818 10.94 16.9404ZM9.57149 17.1549C9.70218 16.5798 10.1512 16.1308 10.7263 16.0001C11.5647 15.8095 12.4353 15.8095 13.2737 16.0001C13.8488 16.1308 14.2978 16.5798 14.4285 17.1549C14.6191 17.9933 14.6191 18.8638 14.4285 19.7023C14.2978 20.2773 13.8488 20.7264 13.2737 20.8571C12.4353 21.0476 11.5647 21.0476 10.7263 20.8571C10.1512 20.7264 9.70218 20.2773 9.57149 19.7023C9.38093 18.8638 9.38093 17.9933 9.57149 17.1549Z" fill="#222222"/>
<path fill-rule="evenodd" clip-rule="evenodd" d="M19.7023 9.57149C18.8638 9.38093 17.9933 9.38093 17.1549 9.57149C16.5798 9.70218 16.1308 10.1512 16.0001 10.7263C15.8095 11.5647 15.8095 12.4353 16.0001 13.2737C16.1308 13.8488 16.5798 14.2978 17.1549 14.4285C17.9933 14.6191 18.8638 14.6191 19.7023 14.4285C20.2773 14.2978 20.7264 13.8488 20.8571 13.2737C21.0476 12.4353 21.0476 11.5647 20.8571 10.7263C20.7264 10.1512 20.2773 9.70218 19.7023 9.57149ZM17.3686 10.5118C17.1553 10.5603 16.9888 10.7268 16.9404 10.94C16.7818 11.6378 16.7818 12.3622 16.9404 13.06C16.9888 13.2732 17.1553 13.4397 17.3686 13.4882C18.0663 13.6468 18.7908 13.6468 19.4886 13.4882C19.7018 13.4397 19.8683 13.2732 19.9168 13.06C20.0754 12.3622 20.0754 11.6378 19.9168 10.94C19.8683 10.7268 19.7018 10.5603 19.4886 10.5118C18.7908 10.3532 18.0663 10.3532 17.3686 10.5118Z" fill="#222222"/>
<path fill-rule="evenodd" clip-rule="evenodd" d="M3.14292 4.29773C3.27361 3.72267 3.72267 3.27361 4.29773 3.14292C5.13617 2.95236 6.00668 2.95236 6.84512 3.14292C7.42018 3.27361 7.86924 3.72267 7.99994 4.29773C8.1905 5.13617 8.1905 6.00668 7.99994 6.84512C7.86924 7.42019 7.42018 7.86925 6.84512 7.99994C6.00668 8.1905 5.13617 8.1905 4.29773 7.99994C3.72267 7.86925 3.27361 7.42019 3.14292 6.84512C2.95236 6.00668 2.95236 5.13617 3.14292 4.29773Z" fill="#222222"/>
<path fill-rule="evenodd" clip-rule="evenodd" d="M16.0001 17.1549C16.1308 16.5798 16.5798 16.1308 17.1549 16.0001C17.9933 15.8095 18.8638 15.8095 19.7023 16.0001C20.2773 16.1308 20.7264 16.5798 20.8571 17.1549C21.0476 17.9933 21.0476 18.8638 20.8571 19.7023C20.7264 20.2773 20.2773 20.7264 19.7023 20.8571C18.8638 21.0476 17.9933 21.0476 17.1549 20.8571C16.5798 20.7264 16.1308 20.2773 16.0001 19.7023C15.8095 18.8638 15.8095 17.9933 16.0001 17.1549Z" fill="#222222"/>
<path fill-rule="evenodd" clip-rule="evenodd" d="M4.11116 17.0093C4.21281 16.5621 4.56208 16.2128 5.00935 16.1112C5.66147 15.9629 6.33853 15.9629 6.99065 16.1112C7.43792 16.2128 7.78719 16.5621 7.88884 17.0093C8.03705 17.6615 8.03705 18.3385 7.88884 18.9907C7.78719 19.4379 7.43792 19.7872 6.99065 19.8888C6.33853 20.0371 5.66147 20.0371 5.00935 19.8888C4.56208 19.7872 4.21281 19.4379 4.11116 18.9907C3.96295 18.3385 3.96295 17.6615 4.11116 17.0093ZM4.84251 17.1756C4.8802 17.0097 5.00971 16.8802 5.17556 16.8425C5.71827 16.7192 6.28173 16.7192 6.82444 16.8425C6.99029 16.8802 7.1198 17.0097 7.15749 17.1756C7.28084 17.7183 7.28084 18.2817 7.15749 18.8244C7.1198 18.9903 6.99029 19.1198 6.82444 19.1575C6.28173 19.2808 5.71827 19.2808 5.17556 19.1575C5.00971 19.1198 4.8802 18.9903 4.84251 18.8244C4.71916 18.2817 4.71916 17.7183 4.84251 17.1756Z" fill="#222222"/>
<path fill-rule="evenodd" clip-rule="evenodd" d="M16.1112 5.00935C16.2128 4.56208 16.5621 4.21281 17.0093 4.11116C17.6615 3.96295 18.3385 3.96295 18.9907 4.11116C19.4379 4.21281 19.7872 4.56208 19.8888 5.00935C20.0371 5.66147 20.0371 6.33853 19.8888 6.99065C19.7872 7.43792 19.4379 7.78719 18.9907 7.88884C18.3385 8.03705 17.6615 8.03705 17.0093 7.88884C16.5621 7.78719 16.2128 7.43792 16.1112 6.99065C15.9629 6.33853 15.9629 5.66147 16.1112 5.00935ZM16.8425 5.17556C16.8802 5.00971 17.0097 4.8802 17.1756 4.84251C17.7183 4.71916 18.2817 4.71916 18.8244 4.84251C18.9903 4.8802 19.1198 5.00971 19.1575 5.17556C19.2808 5.71827 19.2808 6.28173 19.1575 6.82444C19.1198 6.99029 18.9903 7.1198 18.8244 7.15749C18.2817 7.28084 17.7183 7.28084 17.1756 7.15749C17.0097 7.1198 16.8802 6.99029 16.8425 6.82444C16.7192 6.28173 16.7192 5.71827 16.8425 5.17556Z" fill="#222222"/>
</svg>
