<svg width="24" height="24" viewBox="0 0 24 24" fill="none" xmlns="http://www.w3.org/2000/svg">
<path fill-rule="evenodd" clip-rule="evenodd" d="M19.7778 3H4.22222C2.98889 3 2 4.0125 2 5.25V18.75C2 19.9875 2.98889 21 4.22222 21H19.7778C21 21 22 19.9875 22 18.75V5.25C22 4.0125 21.0111 3 19.7778 3ZM20.3333 6.9375H3.66667V18.1875C3.66667 18.8088 4.16413 19.3125 4.77778 19.3125H19.2222C19.8359 19.3125 20.3333 18.8088 20.3333 18.1875V6.9375Z" fill="#222222"/>
<path fill-rule="evenodd" clip-rule="evenodd" d="M11 15.8182C11 15.3663 11.3663 15 11.8182 15L17.1818 15C17.6337 15 18 15.3663 18 15.8182C18 16.27 17.6337 16.6364 17.1818 16.6364L11.8182 16.6364C11.3663 16.6364 11 16.2701 11 15.8182Z" fill="#222222"/>
<path d="M6.38084 15.3432C6.09041 15.6917 6.1375 16.2096 6.48601 16.5001C6.83452 16.7905 7.35249 16.7434 7.64291 16.3949L10.5 12.9663C10.7539 12.6617 10.7539 12.2192 10.5 11.9146L7.64291 8.48604C7.35249 8.13753 6.83452 8.09044 6.48601 8.38087C6.1375 8.67129 6.09041 9.18926 6.38084 9.53777L8.79975 12.4405L6.38084 15.3432Z" fill="#222222"/>
</svg>
