<svg width="24" height="24" viewBox="0 0 24 24" fill="none" xmlns="http://www.w3.org/2000/svg">
<path fill-rule="evenodd" clip-rule="evenodd" d="M19.7778 3H4.22222C2.98889 3 2 4.0125 2 5.25V18.75C2 19.9875 2.98889 21 4.22222 21H19.7778C21 21 22 19.9875 22 18.75V5.25C22 4.0125 21.0111 3 19.7778 3ZM20.3333 6.9375H3.66667V18.1875C3.66667 18.8088 4.16413 19.3125 4.77778 19.3125H19.2222C19.8359 19.3125 20.3333 18.8088 20.3333 18.1875V6.9375Z" fill="#222222"/>
<path d="M11 10.75C11 11.1642 10.6642 11.5 10.25 11.5H6.75C6.33579 11.5 6 11.1642 6 10.75C6 10.3358 6.33579 10 6.75 10H10.25C10.6642 10 11 10.3358 11 10.75Z" fill="#222222"/>
<path d="M10.25 16C10.6642 16 11 15.6642 11 15.25C11 14.8358 10.6642 14.5 10.25 14.5H6.75C6.33579 14.5 6 14.8358 6 15.25C6 15.6642 6.33579 16 6.75 16H10.25Z" fill="#222222"/>
<path d="M18 10.75C18 11.1642 17.6642 11.5 17.25 11.5H13.75C13.3358 11.5 13 11.1642 13 10.75C13 10.3358 13.3358 10 13.75 10H17.25C17.6642 10 18 10.3358 18 10.75Z" fill="#222222"/>
<path d="M17.25 16C17.6642 16 18 15.6642 18 15.25C18 14.8358 17.6642 14.5 17.25 14.5H13.75C13.3358 14.5 13 14.8358 13 15.25C13 15.6642 13.3358 16 13.75 16H17.25Z" fill="#222222"/>
</svg>
