<svg width="24" height="24" viewBox="0 0 24 24" fill="none" xmlns="http://www.w3.org/2000/svg">
<path fill-rule="evenodd" clip-rule="evenodd" d="M21.6364 8.27273C22.0882 8.27273 22.4545 7.90642 22.4545 7.45455C22.4545 7.00268 22.0882 6.63636 21.6364 6.63636L20.5455 6.63636V5.27273C20.5455 3.46525 19.0802 2 17.2727 2L5.27273 2C3.46525 2 2 3.46525 2 5.27273L2 18.3636C2 20.1711 3.46525 21.6364 5.27273 21.6364H17.2727C19.0802 21.6364 20.5455 20.1711 20.5455 18.3636V17H21.6364C22.0882 17 22.4545 16.6337 22.4545 16.1818C22.4545 15.73 22.0882 15.3636 21.6364 15.3636H20.5455V12.5H21.6364C22.0882 12.5 22.4545 12.1337 22.4545 11.6818C22.4545 11.2299 22.0882 10.8636 21.6364 10.8636H20.5455V8.27273L21.6364 8.27273ZM18.9091 5.27273V18.3636C18.9091 19.2674 18.1765 20 17.2727 20H5.27273C4.36899 20 3.63636 19.2674 3.63636 18.3636L3.63636 5.27273C3.63636 4.36899 4.36899 3.63636 5.27273 3.63636L17.2727 3.63636C18.1765 3.63636 18.9091 4.36899 18.9091 5.27273Z" fill="#222222"/>
<rect x="5" y="6" width="6" height="6" rx="1" fill="#222222"/>
<rect x="5" y="14" width="6" height="4" rx="1" fill="#222222"/>
<rect x="18" y="18" width="6" height="6" rx="1" transform="rotate(-180 18 18)" fill="#222222"/>
<rect x="18" y="10" width="6" height="4" rx="1" transform="rotate(-180 18 10)" fill="#222222"/>
</svg>
