<svg width="24" height="24" viewBox="0 0 24 24" fill="none" xmlns="http://www.w3.org/2000/svg">
<circle cx="12" cy="7" r="2.35" stroke="#222222" stroke-width="1.3"/>
<path fill-rule="evenodd" clip-rule="evenodd" d="M12.0001 8.80005C12.3867 8.80005 12.7001 9.11345 12.7001 9.50005V13.1722L15.4334 15.4499C15.6101 15.3853 15.801 15.35 16.0001 15.35H19.0001C19.9114 15.35 20.6501 16.0888 20.6501 17V20C20.6501 20.9113 19.9114 21.65 19.0001 21.65H16.0001C15.0888 21.65 14.3501 20.9113 14.3501 20V17C14.3501 16.8065 14.3834 16.6208 14.4446 16.4483L12.0001 14.4112L9.5556 16.4483C9.61679 16.6208 9.6501 16.8065 9.6501 17V20C9.6501 20.9113 8.91137 21.65 8.0001 21.65H5.0001C4.08883 21.65 3.3501 20.9113 3.3501 20V17C3.3501 16.0888 4.08883 15.35 5.0001 15.35H8.0001C8.1992 15.35 8.39008 15.3853 8.5668 15.4499L11.3001 13.1722V9.50005C11.3001 9.11345 11.6135 8.80005 12.0001 8.80005ZM5.0001 16.65C4.8068 16.65 4.6501 16.8067 4.6501 17V20C4.6501 20.1933 4.8068 20.35 5.0001 20.35H8.0001C8.1934 20.35 8.3501 20.1933 8.3501 20V17C8.3501 16.8067 8.1934 16.65 8.0001 16.65H5.0001ZM15.6501 17C15.6501 16.8067 15.8068 16.65 16.0001 16.65H19.0001C19.1934 16.65 19.3501 16.8067 19.3501 17V20C19.3501 20.1933 19.1934 20.35 19.0001 20.35H16.0001C15.8068 20.35 15.6501 20.1933 15.6501 20V17Z" fill="#222222"/>
</svg>
