<svg width="24" height="24" viewBox="0 0 24 24" fill="none" xmlns="http://www.w3.org/2000/svg">
<path fill-rule="evenodd" clip-rule="evenodd" d="M7 3.75C6.30964 3.75 5.75 4.30964 5.75 5V19C5.75 19.6904 6.30964 20.25 7 20.25H17C17.6904 20.25 18.25 19.6904 18.25 19V5C18.25 4.30964 17.6904 3.75 17 3.75H7ZM4.25 5C4.25 3.48122 5.48122 2.25 7 2.25H17C18.5188 2.25 19.75 3.48122 19.75 5V19C19.75 20.5188 18.5188 21.75 17 21.75H7C5.48122 21.75 4.25 20.5188 4.25 19V5Z" fill="#222222"/>
<path fill-rule="evenodd" clip-rule="evenodd" d="M8.25 7C8.25 6.58579 8.58579 6.25 9 6.25H15C15.4142 6.25 15.75 6.58579 15.75 7C15.75 7.41421 15.4142 7.75 15 7.75H9C8.58579 7.75 8.25 7.41421 8.25 7ZM9 10.25C9.41421 10.25 9.75 10.5858 9.75 11V11.01C9.75 11.4242 9.41421 11.76 9 11.76C8.58579 11.76 8.25 11.4242 8.25 11.01V11C8.25 10.5858 8.58579 10.25 9 10.25ZM12 10.25C12.4142 10.25 12.75 10.5858 12.75 11V11.01C12.75 11.4242 12.4142 11.76 12 11.76C11.5858 11.76 11.25 11.4242 11.25 11.01V11C11.25 10.5858 11.5858 10.25 12 10.25ZM15 10.25C15.4142 10.25 15.75 10.5858 15.75 11V11.01C15.75 11.4242 15.4142 11.76 15 11.76C14.5858 11.76 14.25 11.4242 14.25 11.01V11C14.25 10.5858 14.5858 10.25 15 10.25ZM9 13.25C9.41421 13.25 9.75 13.5858 9.75 14V14.01C9.75 14.4242 9.41421 14.76 9 14.76C8.58579 14.76 8.25 14.4242 8.25 14.01V14C8.25 13.5858 8.58579 13.25 9 13.25ZM12 13.25C12.4142 13.25 12.75 13.5858 12.75 14V14.01C12.75 14.4242 12.4142 14.76 12 14.76C11.5858 14.76 11.25 14.4242 11.25 14.01V14C11.25 13.5858 11.5858 13.25 12 13.25ZM15 13.25C15.4142 13.25 15.75 13.5858 15.75 14V14.01C15.75 14.4242 15.4142 14.76 15 14.76C14.5858 14.76 14.25 14.4242 14.25 14.01V14C14.25 13.5858 14.5858 13.25 15 13.25ZM9 16.25C9.41421 16.25 9.75 16.5858 9.75 17V17.01C9.75 17.4242 9.41421 17.76 9 17.76C8.58579 17.76 8.25 17.4242 8.25 17.01V17C8.25 16.5858 8.58579 16.25 9 16.25ZM12 16.25C12.4142 16.25 12.75 16.5858 12.75 17V17.01C12.75 17.4242 12.4142 17.76 12 17.76C11.5858 17.76 11.25 17.4242 11.25 17.01V17C11.25 16.5858 11.5858 16.25 12 16.25ZM15 16.25C15.4142 16.25 15.75 16.5858 15.75 17V17.01C15.75 17.4242 15.4142 17.76 15 17.76C14.5858 17.76 14.25 17.4242 14.25 17.01V17C14.25 16.5858 14.5858 16.25 15 16.25Z" fill="#222222"/>
</svg>
