<svg width="24" height="24" viewBox="0 0 24 24" fill="none" xmlns="http://www.w3.org/2000/svg">
<path fill-rule="evenodd" clip-rule="evenodd" d="M16.2219 17.2825C14.8371 18.4302 13.0592 19.1201 11.1201 19.1201C6.70184 19.1201 3.12012 15.5384 3.12012 11.1201C3.12012 6.70184 6.70184 3.12012 11.1201 3.12012C15.5384 3.12012 19.1201 6.70184 19.1201 11.1201C19.1201 13.0592 18.4302 14.8371 17.2825 16.2219L20.6504 19.5898C20.9433 19.8827 20.9433 20.3576 20.6504 20.6504C20.3576 20.9433 19.8827 20.9433 19.5898 20.6504L16.2219 17.2825ZM17.6201 11.1201C17.6201 14.71 14.71 17.6201 11.1201 17.6201C7.53027 17.6201 4.62012 14.71 4.62012 11.1201C4.62012 7.53027 7.53027 4.62012 11.1201 4.62012C14.71 4.62012 17.6201 7.53027 17.6201 11.1201Z" fill="#222222"/>
<path d="M10.25 13.25C10.25 13.6642 10.5858 14 11 14C11.4142 14 11.75 13.6642 11.75 13.25V8.75C11.75 8.33579 11.4142 8 11 8C10.5858 8 10.25 8.33579 10.25 8.75V13.25Z" fill="#222222"/>
<path d="M8 13.25C8 13.6642 8.33579 14 8.75 14C9.16421 14 9.5 13.6642 9.5 13.25V11.75C9.5 11.3358 9.16421 11 8.75 11C8.33579 11 8 11.3358 8 11.75V13.25Z" fill="#222222"/>
<path d="M13.25 9.875C12.8358 9.875 12.5 10.2108 12.5 10.625V13.25C12.5 13.6642 12.8358 14 13.25 14C13.6642 14 14 13.6642 14 13.25V10.625C14 10.2108 13.6642 9.875 13.25 9.875Z" fill="#222222"/>
</svg>
