<svg width="24" height="24" viewBox="0 0 24 24" fill="none" xmlns="http://www.w3.org/2000/svg">
<path fill-rule="evenodd" clip-rule="evenodd" d="M6.00009 1.90918C3.74074 1.90918 1.90918 3.74074 1.90918 6.00009V18.0001C1.90918 20.2594 3.74074 22.091 6.00009 22.091H13.6365V21.6552C13.97 21.5519 14.2123 21.241 14.2123 20.8735V14.9697C14.2123 14.8191 14.3344 14.697 14.485 14.697H20.9533C21.298 14.697 21.593 14.4837 21.7135 14.1819H22.091V6.00009C22.091 3.74074 20.2594 1.90918 18.0001 1.90918H6.00009ZM20.4546 13.0606V6.00009C20.4546 4.64448 19.3557 3.54554 18.0001 3.54554H6.00009C4.64448 3.54554 3.54554 4.64448 3.54554 6.00009V18.0001C3.54554 19.3557 4.64448 20.4546 6.00009 20.4546H12.5759V14.9697C12.5759 13.9154 13.4306 13.0606 14.485 13.0606H20.4546Z" fill="#222222"/>
<path fill-rule="evenodd" clip-rule="evenodd" d="M21.8724 13.6252C22.1799 13.9563 22.1607 14.474 21.8295 14.7815L14.1932 21.8724C13.8621 22.1799 13.3444 22.1607 13.0369 21.8295C12.7294 21.4984 12.7486 20.9807 13.0797 20.6733L20.7161 13.5823C21.0472 13.2749 21.5649 13.294 21.8724 13.6252Z" fill="#222222"/>
<path fill-rule="evenodd" clip-rule="evenodd" d="M7 7.81818C7 7.36631 7.36631 7 7.81818 7H14.6818C15.1337 7 15.5 7.36631 15.5 7.81818C15.5 8.27005 15.1337 8.63636 14.6818 8.63636H7.81818C7.36631 8.63636 7 8.27005 7 7.81818Z" fill="#222222"/>
<path fill-rule="evenodd" clip-rule="evenodd" d="M7 11.3182C7 10.8663 7.36631 10.5 7.81818 10.5H10.3636C10.8155 10.5 11.1818 10.8663 11.1818 11.3182C11.1818 11.7701 10.8155 12.1364 10.3636 12.1364H7.81818C7.36631 12.1364 7 11.7701 7 11.3182Z" fill="#222222"/>
</svg>
