<svg width="24" height="24" viewBox="0 0 24 24" fill="none" xmlns="http://www.w3.org/2000/svg">
<path fill-rule="evenodd" clip-rule="evenodd" d="M17.4 10.6429C17.4 9.55075 16.4822 8.6 15.2683 8.6L4.73171 8.6C3.51783 8.6 2.6 9.55075 2.6 10.6429L2.6 18.3571C2.6 19.4493 3.51783 20.4 4.73171 20.4L15.2683 20.4C16.4822 20.4 17.4 19.4493 17.4 18.3571L17.4 10.6429ZM19 10.6429C19 8.63096 17.3293 7 15.2683 7L4.73171 7C2.67074 7 1 8.63096 1 10.6429L1 18.3571C0.999999 20.369 2.67074 22 4.73171 22L15.2683 22C17.3293 22 19 20.369 19 18.3571L19 10.6429Z" fill="#222222"/>
<path fill-rule="evenodd" clip-rule="evenodd" d="M8 3.75C8 3.33579 8.33579 3 8.75 3H10.25C10.6642 3 11 3.33579 11 3.75C11 4.16421 10.6642 4.5 10.25 4.5H8.75C8.33579 4.5 8 4.16421 8 3.75ZM13.75 3C13.3358 3 13 3.33579 13 3.75C13 4.16421 13.3358 4.5 13.75 4.5H15.25C15.6642 4.5 16 4.16421 16 3.75C16 3.33579 15.6642 3 15.25 3H13.75ZM18.75 3C18.3358 3 18 3.33579 18 3.75C18 4.16421 18.3358 4.5 18.75 4.5H20.25C20.6642 4.5 21 4.16421 21 3.75C21 3.33579 20.6642 3 20.25 3H18.75ZM6.5 7L6.5 6C6.5 5.58579 6.16421 5.25 5.75 5.25C5.33579 5.25 5 5.58579 5 6V7H6.5ZM19 17.25H20.25C20.6642 17.25 21 16.9142 21 16.5C21 16.0858 20.6642 15.75 20.25 15.75H19V17.25ZM22.75 5.25C23.1642 5.25 23.5 5.58579 23.5 6V7.5C23.5 7.91421 23.1642 8.25 22.75 8.25C22.3358 8.25 22 7.91421 22 7.5V6C22 5.58579 22.3358 5.25 22.75 5.25ZM23.5 10C23.5 9.58579 23.1642 9.25 22.75 9.25C22.3358 9.25 22 9.58579 22 10V11.5C22 11.9142 22.3358 12.25 22.75 12.25C23.1642 12.25 23.5 11.9142 23.5 11.5V10ZM22.75 13.25C23.1642 13.25 23.5 13.5858 23.5 14V15.5C23.5 15.9142 23.1642 16.25 22.75 16.25C22.3358 16.25 22 15.9142 22 15.5V14C22 13.5858 22.3358 13.25 22.75 13.25Z" fill="#222222"/>
</svg>
