<svg width="24" height="24" viewBox="0 0 24 24" fill="none" xmlns="http://www.w3.org/2000/svg">
<path d="M3.5 23C2.39543 23 1.5 22.1046 1.5 21L1.5 17C1.5 15.8954 2.39543 15 3.5 15L7.5 15C8.60457 15 9.5 15.8954 9.5 17L9.5 21C9.5 22.1046 8.60457 23 7.5 23L3.5 23Z" fill="#222222"/>
<path d="M17 23C15.8954 23 15 22.1046 15 21L15 17C15 15.8954 15.8954 15 17 15L21 15C22.1046 15 23 15.8954 23 17L23 21C23 22.1046 22.1046 23 21 23L17 23Z" fill="#222222"/>
<path d="M10.4766 1C9.22692 1 8.21385 2.01306 8.21385 3.26274L8.21385 6.73726C8.21385 7.98694 9.22691 9 10.4766 9H11.7073V10.8466L8.28003 11.598C6.34347 12.0226 5 13.4367 5 15.0504V16.2353C5 16.5872 5.3549 16.8725 5.79268 16.8725C6.23047 16.8725 6.58537 16.5872 6.58537 16.2353V15.0504C6.58537 14.0114 7.45034 13.101 8.69716 12.8276L12.5 11.9939L16.3028 12.8276C17.5497 13.101 18.4146 14.0114 18.4146 15.0504V16.7255C18.4146 17.0774 18.7695 17.3627 19.2073 17.3627C19.6451 17.3627 20 17.0774 20 16.7255V15.0504C20 13.4367 18.6565 12.0226 16.72 11.598L13.2927 10.8466V9H13.9511C15.2008 9 16.2139 7.98694 16.2139 6.73726V3.26274C16.2139 2.01306 15.2008 1 13.9511 1H10.4766Z" fill="#222222"/>
</svg>
