<svg width="24" height="24" viewBox="0 0 24 24" fill="none" xmlns="http://www.w3.org/2000/svg">
<path fill-rule="evenodd" clip-rule="evenodd" d="M2.18164 6.00002C2.18164 4.19255 3.64689 2.72729 5.45437 2.72729H9.67789C11.0686 2.72729 12.3074 3.60623 12.7669 4.91888L12.9109 5.33037C13.0513 5.73146 13.4298 6.00002 13.8548 6.00002H18.5453C20.3528 6.00002 21.818 7.46527 21.818 9.27275V18C21.818 19.8075 20.3528 21.2728 18.5453 21.2728H5.45437C3.64689 21.2728 2.18164 19.8075 2.18164 18V6.00002ZM13.9999 15.75C13.9999 16.1642 13.6641 16.5 13.2499 16.5H6.74988C6.33566 16.5 5.99988 16.1642 5.99988 15.75C5.99988 15.3358 6.33566 15 6.74988 15H13.2499C13.6641 15 13.9999 15.3358 13.9999 15.75ZM17.2499 12.5C17.6641 12.5 17.9999 12.1642 17.9999 11.75C17.9999 11.3358 17.6641 11 17.2499 11H6.74988C6.33566 11 5.99988 11.3358 5.99988 11.75C5.99988 12.1642 6.33566 12.5 6.74988 12.5H17.2499Z" fill="#222222"/>
</svg>
