<svg width="24" height="24" viewBox="0 0 24 24" fill="none" xmlns="http://www.w3.org/2000/svg">
<path fill-rule="evenodd" clip-rule="evenodd" d="M7 2C4.23858 2 2 4.23858 2 7V17C2 19.7614 4.23858 22 7 22H17C19.7614 22 22 19.7614 22 17V7C22 4.23858 19.7614 2 17 2H7ZM18.4209 7.73217V14.6465H20.4378V16.3753H16.6921V14.6465V7.73217H18.4209ZM11.3386 12.0543C11.3386 13.4862 11.758 14.6468 12.2761 14.6468C12.7943 14.6468 13.2136 13.4862 13.2136 12.0543C13.2136 10.6218 12.7943 9.46118 12.2761 9.46118C11.758 9.46118 11.3386 10.6218 11.3386 12.0543ZM15.0886 12.0541C15.0886 13.0266 14.8793 13.9241 14.5268 14.6466H15.7136V16.3753H12.2761C10.723 16.3753 9.46363 14.4403 9.46363 12.0541C9.46363 9.66718 10.723 7.73218 12.2761 7.73218C13.8293 7.73218 15.0886 9.66718 15.0886 12.0541ZM6.75588 13.0912V14.475C6.75588 14.57 6.679 14.6469 6.584 14.6469H3.87525V16.375H7.33213C7.96838 16.375 8.48463 15.8594 8.48463 15.2231V14.6469V12.3419C8.48463 11.7056 7.96838 11.19 7.33213 11.19H6.75588H5.7765C5.68088 11.19 5.60338 11.1119 5.60338 11.0162V9.6331C5.60338 9.5381 5.68088 9.46123 5.77588 9.46123H8.48463V7.73248H5.60338H5.02713C4.39088 7.73248 3.87525 8.2481 3.87525 8.88498V11.19V11.7656C3.87525 12.4019 4.39088 12.9181 5.02713 12.9181H6.58275C6.67838 12.9181 6.75588 12.9956 6.75588 13.0912Z" fill="#222222"/>
</svg>
