<svg width="24" height="24" viewBox="0 0 24 24" fill="none" xmlns="http://www.w3.org/2000/svg">
<path fill-rule="evenodd" clip-rule="evenodd" d="M9.54627 2.13107L3.99585 5.34447C2.76059 6.05962 2 7.37882 2 8.80617V15.6938C2 17.1211 2.76058 18.4403 3.99585 19.1555L9.54627 22.3689C10.7589 23.0709 12.2504 23.0873 13.4781 22.412L13.6676 22.3078L13.1869 21.4989L13.1798 21.4862C12.8575 20.9115 12.9765 20.1548 13.538 19.7236L13.5423 19.7204L13.832 19.5L13.538 19.2763C13.0125 18.8727 12.8201 18.1122 13.1961 17.4856L14.0825 15.9938C14.2898 15.6362 14.6264 15.4141 14.9916 15.3388L13.308 13.8693L13.1515 13.9609C13.0284 14.033 12.8936 14.0901 12.7488 14.1289C12.5003 14.1955 12.2502 14.2008 12.0132 14.1544L11.8347 14.1195L10.7573 16.036L10.8762 16.1775C11.0339 16.3651 11.1545 16.5903 11.2227 16.8448C11.4663 17.7539 10.9438 18.6837 10.0556 18.9217C9.16752 19.1597 8.2501 18.6156 8.00652 17.7066C7.76293 16.7975 8.28543 15.8677 9.17355 15.6297C9.42226 15.563 9.67257 15.5577 9.90967 15.6042L10.0883 15.6393L11.1653 13.7227L11.0464 13.5813C10.8886 13.3937 10.7679 13.1683 10.6997 12.9138C10.6536 12.7418 10.635 12.5695 10.6409 12.4016L10.6473 12.2167L7.71944 11.0032L7.60044 11.1417C7.39211 11.3842 7.11315 11.5677 6.78306 11.6562C5.89495 11.8942 4.97752 11.3501 4.73394 10.4411C4.49036 9.53201 5.01285 8.60216 5.90097 8.36419C6.78909 8.12622 7.70651 8.67024 7.95009 9.57931C7.99618 9.75132 8.01481 9.92359 8.00891 10.0915L8.00241 10.2764L10.9302 11.4901L11.0492 11.3515C11.2575 11.1089 11.5366 10.9253 11.8667 10.8369C11.9872 10.8046 12.1079 10.7867 12.2272 10.7821L12.4084 10.7751L12.8712 8.15275L12.7246 8.0419C12.43 7.8193 12.2038 7.49833 12.0998 7.11033C11.8562 6.20127 12.3787 5.27142 13.2668 5.03345C14.1549 4.79548 15.0724 5.33951 15.3159 6.24857C15.5595 7.15763 15.037 8.08749 14.1489 8.32546C14.0287 8.35768 13.9082 8.37553 13.7891 8.38017L13.6081 8.38722L13.1446 11.0097L13.2913 11.1206C13.4718 11.257 13.6266 11.4304 13.7433 11.6334L16.432 10.2813C16.3285 9.62844 16.7212 8.99327 17.3593 8.82231C18.0424 8.63925 18.7481 9.05774 18.9355 9.75702C19.1229 10.4563 18.721 11.1716 18.0378 11.3546C17.5239 11.4923 16.9973 11.2897 16.6881 10.8832L13.9578 12.2562C14.0003 12.5498 13.9658 12.8396 13.8679 13.1022L13.8037 13.2747L16.0664 15.2495L16.2229 15.1579C16.2315 15.1528 16.2403 15.1478 16.2491 15.1429C16.3651 14.4369 16.9848 14 17.6089 14H19.3944C20.0288 14 20.6586 14.4514 20.7596 15.1779L20.8165 15.5642L21.2448 15.3969L21.2625 15.3906C21.3385 15.3637 21.4181 15.3436 21.5 15.3306V8.86505C21.5 7.40628 20.7059 6.06319 19.4277 5.36018L13.4781 2.08791C12.2504 1.41267 10.7589 1.42904 9.54627 2.13107ZM13.9454 7.56576C14.4236 7.43763 14.7049 6.93693 14.5738 6.44744C14.4426 5.95794 13.9486 5.66501 13.4704 5.79314C12.9922 5.92128 12.7108 6.42197 12.842 6.91147C12.9731 7.40096 13.4671 7.6939 13.9454 7.56576ZM7.2079 9.77818C7.33906 10.2677 7.05772 10.7684 6.5795 10.8965C6.10128 11.0246 5.60729 10.7317 5.47613 10.2422C5.34497 9.75271 5.62631 9.25202 6.10453 9.12388C6.58275 8.99574 7.07675 9.28868 7.2079 9.77818Z" fill="#222222"/>
<path fill-rule="evenodd" clip-rule="evenodd" d="M21.9383 19.059C21.9568 19.203 21.9707 19.347 21.9707 19.5C21.9707 19.653 21.9568 19.797 21.9383 19.941L22.9145 20.6835C23.0024 20.751 23.0255 20.8725 22.97 20.9715L22.0447 22.5285C21.9892 22.6275 21.8689 22.668 21.7625 22.6275L20.6106 22.1775C20.37 22.353 20.111 22.506 19.8288 22.6185L19.653 23.811C19.6391 23.919 19.5419 24 19.4263 24H17.5758C17.4601 24 17.363 23.919 17.3491 23.811L17.1733 22.6185C16.8911 22.506 16.632 22.3575 16.3915 22.1775L15.2395 22.6275C15.1377 22.6635 15.0128 22.6275 14.9573 22.5285L14.0321 20.9715C13.9766 20.8725 13.9997 20.751 14.0876 20.6835L15.0637 19.941C15.0452 19.797 15.0313 19.6485 15.0313 19.5C15.0313 19.3515 15.0452 19.203 15.0637 19.059L14.0876 18.3165C13.9997 18.249 13.9719 18.1275 14.0321 18.0285L14.9573 16.4715C15.0128 16.3725 15.1331 16.332 15.2395 16.3725L16.3915 16.8225C16.632 16.647 16.8911 16.494 17.1733 16.3815L17.3491 15.189C17.363 15.081 17.4601 15 17.5758 15H19.4263C19.5419 15 19.6391 15.081 19.653 15.189L19.8288 16.3815C20.111 16.494 20.37 16.6425 20.6106 16.8225L21.7625 16.3725C21.8643 16.3365 21.9892 16.3725 22.0447 16.4715L22.97 18.0285C23.0255 18.1275 23.0024 18.249 22.9145 18.3165L21.9383 19.059ZM18.4636 17.7177C17.4711 17.7177 16.6636 18.5251 16.6636 19.5177C16.6636 20.5102 17.4711 21.3177 18.4636 21.3177C19.4562 21.3177 20.2636 20.5102 20.2636 19.5177C20.2636 18.5251 19.4562 17.7177 18.4636 17.7177Z" fill="#222222"/>
</svg>
