<svg width="24" height="24" viewBox="0 0 24 24" fill="none" xmlns="http://www.w3.org/2000/svg">
<path fill-rule="evenodd" clip-rule="evenodd" d="M3.99585 5.34447L9.54627 2.13107C10.7589 1.42904 12.2504 1.41267 13.4781 2.08791L19.4277 5.36018C20.7059 6.06319 21.5 7.40628 21.5 8.86505V15.6349C21.5 17.0936 20.7059 18.4367 19.4277 19.1397L13.4781 22.412C12.2504 23.0873 10.7589 23.0709 9.54627 22.3689L3.99585 19.1555C2.76058 18.4403 2 17.1211 2 15.6938V8.80617C2 7.37882 2.76059 6.05962 3.99585 5.34447ZM17.5076 18.282C18.3957 18.044 18.9182 17.1142 18.6746 16.2051C18.431 15.2961 17.5136 14.752 16.6255 14.99C16.4807 15.0288 16.346 15.0858 16.2229 15.1579L16.0664 15.2495L13.8037 13.2747L13.8679 13.1022C13.9658 12.8396 14.0003 12.5498 13.9578 12.2562L16.6881 10.8832C16.9973 11.2897 17.5239 11.4923 18.0378 11.3546C18.721 11.1716 19.1229 10.4563 18.9355 9.75702C18.7481 9.05774 18.0424 8.63925 17.3593 8.82231C16.7212 8.99327 16.3285 9.62844 16.432 10.2813L13.7433 11.6334C13.6266 11.4304 13.4718 11.257 13.2913 11.1206L13.1446 11.0097L13.6081 8.38722L13.7891 8.38017C13.9082 8.37553 14.0287 8.35768 14.1489 8.32546C15.037 8.08749 15.5595 7.15763 15.3159 6.24857C15.0724 5.33951 14.1549 4.79548 13.2668 5.03345C12.3787 5.27142 11.8562 6.20127 12.0998 7.11033C12.2038 7.49833 12.43 7.8193 12.7246 8.0419L12.8712 8.15275L12.4084 10.7751L12.2272 10.7821C12.1079 10.7867 11.9872 10.8046 11.8667 10.8369C11.5366 10.9253 11.2575 11.1089 11.0492 11.3515L10.9302 11.4901L8.00241 10.2764L8.00891 10.0915C8.01481 9.92359 7.99618 9.75132 7.95009 9.57931C7.70651 8.67024 6.78909 8.12622 5.90097 8.36419C5.01285 8.60216 4.49036 9.53201 4.73394 10.4411C4.97752 11.3501 5.89495 11.8942 6.78306 11.6562C7.11315 11.5677 7.39211 11.3842 7.60044 11.1417L7.71944 11.0032L10.6473 12.2167L10.6409 12.4016C10.635 12.5695 10.6536 12.7418 10.6997 12.9138C10.7679 13.1683 10.8886 13.3937 11.0464 13.5813L11.1653 13.7227L10.0883 15.6393L9.90967 15.6042C9.67257 15.5577 9.42226 15.563 9.17355 15.6297C8.28543 15.8677 7.76293 16.7975 8.00652 17.7066C8.2501 18.6156 9.16752 19.1597 10.0556 18.9217C10.9438 18.6837 11.4663 17.7539 11.2227 16.8448C11.1545 16.5903 11.0339 16.3651 10.8762 16.1775L10.7573 16.036L11.8347 14.1195L12.0132 14.1544C12.2502 14.2008 12.5003 14.1955 12.7488 14.1289C12.8936 14.0901 13.0284 14.033 13.1515 13.9609L13.308 13.8693L15.5706 15.8441L15.5064 16.0166C15.3858 16.34 15.3614 16.7047 15.4584 17.0669C15.702 17.976 16.6194 18.52 17.5076 18.282ZM17.304 17.5223C17.7822 17.3942 18.0636 16.8935 17.9324 16.404C17.8012 15.9145 17.3072 15.6216 16.829 15.7497C16.3508 15.8778 16.0695 16.3785 16.2006 16.868C16.3318 17.3575 16.8258 17.6505 17.304 17.5223ZM6.5795 10.8965C7.05772 10.7684 7.33906 10.2677 7.2079 9.77818C7.07675 9.28868 6.58275 8.99574 6.10453 9.12388C5.62631 9.25202 5.34497 9.75271 5.47613 10.2422C5.60729 10.7317 6.10128 11.0246 6.5795 10.8965ZM13.9454 7.56576C14.4236 7.43763 14.7049 6.93693 14.5738 6.44744C14.4426 5.95794 13.9486 5.66501 13.4704 5.79314C12.9922 5.92128 12.7108 6.42197 12.842 6.91147C12.9731 7.40096 13.4671 7.6939 13.9454 7.56576Z" fill="#222222"/>
</svg>
