<svg width="24" height="24" viewBox="0 0 24 24" fill="none" xmlns="http://www.w3.org/2000/svg">
<path fill-rule="evenodd" clip-rule="evenodd" d="M20 5.25C20 4.00736 18.9926 3 17.75 3L4.25 3C3.00736 3 2 4.00736 2 5.25L2 8.75C2 9.99264 3.00736 11 4.25 11L17.75 11C18.9926 11 20 9.99264 20 8.75L20 5.25ZM17.75 4.5C18.1642 4.5 18.5 4.83579 18.5 5.25L18.5 8.75C18.5 9.16421 18.1642 9.5 17.75 9.5L4.25 9.5C3.83578 9.5 3.5 9.16421 3.5 8.75L3.5 5.25C3.5 4.83579 3.83579 4.5 4.25 4.5L17.75 4.5Z" fill="#222222"/>
<path fill-rule="evenodd" clip-rule="evenodd" d="M6.25 13C5.00736 13 4 14.0074 4 15.25L4 18.75C4 19.9926 5.00736 21 6.25 21L19.75 21C20.9926 21 22 19.9926 22 18.75L22 15.25C22 14.0074 20.9926 13 19.75 13L6.25 13ZM5.5 15.25C5.5 14.8358 5.83579 14.5 6.25 14.5L19.75 14.5C20.1642 14.5 20.5 14.8358 20.5 15.25L20.5 18.75C20.5 19.1642 20.1642 19.5 19.75 19.5L6.25 19.5C5.83579 19.5 5.5 19.1642 5.5 18.75L5.5 15.25Z" fill="#222222"/>
</svg>
