<svg width="24" height="24" viewBox="0 0 24 24" fill="none" xmlns="http://www.w3.org/2000/svg">
<path fill-rule="evenodd" clip-rule="evenodd" d="M9.16981 5.7783C9.16981 4.24389 10.4137 3 11.9481 3C13.4825 3 14.7264 4.24389 14.7264 5.7783C14.7264 5.83266 14.7249 5.88662 14.7218 5.94013L14.7073 6.19268L14.9404 6.29097C16.0651 6.76521 17.054 7.49896 17.8321 8.4175L17.99 8.60393L18.2213 8.52513C18.5021 8.42943 18.8036 8.37736 19.1179 8.37736C20.6523 8.37736 21.8962 9.62125 21.8962 11.1557C21.8962 12.4257 21.0438 13.4975 19.8792 13.8285L19.6436 13.8954L19.6203 14.1392C19.5265 15.1209 19.2486 16.0485 18.8215 16.8876L18.7059 17.1146L18.8823 17.2984C19.3616 17.7979 19.6557 18.4751 19.6557 19.2217C19.6557 20.7561 18.4118 22 16.8774 22C15.9652 22 15.1557 21.5608 14.6486 20.8808L14.4966 20.677L14.2541 20.753C13.5264 20.9808 12.752 21.1038 11.9481 21.1038C11.1443 21.1038 10.3698 20.9808 9.64214 20.753L9.39959 20.677L9.24764 20.8808C8.74052 21.5608 7.93103 22 7.01887 22C5.48445 22 4.24057 20.7561 4.24057 19.2217C4.24057 18.4751 4.53459 17.7979 5.01391 17.2984L5.19028 17.1146L5.07473 16.8876C4.64764 16.0485 4.36973 15.1209 4.27589 14.1392L4.25259 13.8954L4.01703 13.8285C2.85242 13.4975 2 12.4257 2 11.1557C2 9.62125 3.24389 8.37736 4.7783 8.37736C5.09266 8.37736 5.39412 8.42943 5.67496 8.52513L5.90622 8.60393L6.06414 8.4175C6.84217 7.49896 7.83117 6.7652 8.95582 6.29097L9.18891 6.19268L9.17443 5.94013C9.17137 5.88662 9.16981 5.83266 9.16981 5.7783ZM11.9481 4.07547C11.1577 4.07547 10.494 4.61363 10.3015 5.34294C10.2648 5.48229 10.2453 5.62829 10.2453 5.7783C10.2453 6.71875 11.0077 7.48113 11.9481 7.48113C12.8886 7.48113 13.6509 6.71875 13.6509 5.7783C13.6509 5.62829 13.6315 5.48229 13.5947 5.34294C13.4023 4.61363 12.7385 4.07547 11.9481 4.07547ZM9.71729 7.43465L9.54695 7.20566L9.28561 7.32033C8.40205 7.70804 7.61959 8.28256 6.98797 8.9937L6.79004 9.21654L6.973 9.45182C7.3389 9.92236 7.5566 10.5131 7.5566 11.1557C7.5566 12.3992 6.73938 13.4528 5.61181 13.8069L5.32794 13.896L5.36326 14.1914C5.45373 14.9481 5.67161 15.6658 5.99482 16.3222L6.12005 16.5765L6.39639 16.5133C6.59617 16.4676 6.80447 16.4434 7.01887 16.4434C8.55328 16.4434 9.79717 17.6873 9.79717 19.2217C9.79717 19.2774 9.79554 19.3326 9.79232 19.3874L9.77569 19.6707L10.0476 19.7519C10.6501 19.9318 11.2882 20.0283 11.9481 20.0283C12.6081 20.0283 13.2461 19.9318 13.8486 19.7519L14.1205 19.6707L14.1039 19.3874C14.1007 19.3326 14.0991 19.2774 14.0991 19.2217C14.0991 17.6873 15.3429 16.4434 16.8774 16.4434C17.0918 16.4434 17.3001 16.4676 17.4998 16.5133L17.7762 16.5765L17.9014 16.3222C18.2246 15.6658 18.4425 14.9481 18.533 14.1914L18.5683 13.896L18.2844 13.8069C17.1568 13.4528 16.3396 12.3992 16.3396 11.1557C16.3396 10.5131 16.5573 9.92236 16.9232 9.45182L17.1062 9.21654L16.9083 8.9937C16.2766 8.28256 15.4942 7.70804 14.6106 7.32033L14.3493 7.20566L14.1789 7.43465C13.6719 8.11621 12.8615 8.5566 11.9481 8.5566C11.0347 8.5566 10.2243 8.11621 9.71729 7.43465ZM4.7783 9.45283C4.75363 9.45283 4.72905 9.45336 4.70458 9.4544C3.79819 9.49315 3.07547 10.2399 3.07547 11.1557C3.07547 11.7098 3.3406 12.2022 3.74943 12.5126C4.03523 12.7296 4.39222 12.8585 4.7783 12.8585C5.31993 12.8585 5.80261 12.6052 6.11391 12.2121C6.34371 11.9218 6.48113 11.5543 6.48113 11.1557C6.48113 11.1194 6.47999 11.0833 6.47774 11.0475C6.42175 10.1573 5.68243 9.45283 4.7783 9.45283ZM19.1179 9.45283C18.2138 9.45283 17.4745 10.1573 17.4185 11.0475C17.4162 11.0833 17.4151 11.1194 17.4151 11.1557C17.4151 11.5543 17.5525 11.9218 17.7823 12.2121C18.0936 12.6052 18.5763 12.8585 19.1179 12.8585C19.504 12.8585 19.861 12.7296 20.1468 12.5126C20.5556 12.2022 20.8208 11.7098 20.8208 11.1557C20.8208 10.2399 20.098 9.49315 19.1916 9.4544C19.1672 9.45336 19.1426 9.45283 19.1179 9.45283ZM7.01887 17.5189C6.34647 17.5189 5.76579 17.9086 5.48916 18.4729C5.37818 18.6993 5.31604 18.9538 5.31604 19.2217C5.31604 20.1621 6.07842 20.9245 7.01887 20.9245C7.38767 20.9245 7.73005 20.8069 8.00914 20.6071C8.43984 20.2988 8.7217 19.7932 8.7217 19.2217C8.7217 18.2813 7.95931 17.5189 7.01887 17.5189ZM16.8774 17.5189C15.9369 17.5189 15.1745 18.2812 15.1745 19.2217C15.1745 19.7932 15.4564 20.2988 15.8871 20.6071C16.1662 20.8069 16.5086 20.9245 16.8774 20.9245C17.8178 20.9245 18.5802 20.1621 18.5802 19.2217C18.5802 18.9538 18.518 18.6993 18.4071 18.4729C18.1304 17.9086 17.5498 17.5189 16.8774 17.5189Z" fill="#222222"/>
</svg>
