<svg width="24" height="24" viewBox="0 0 24 24" fill="none" xmlns="http://www.w3.org/2000/svg">
<path d="M11 10.75C11 11.1642 10.6642 11.5 10.25 11.5H6.75C6.33579 11.5 6 11.1642 6 10.75C6 10.3358 6.33579 10 6.75 10H10.25C10.6642 10 11 10.3358 11 10.75Z" fill="#222222"/>
<path d="M10.25 16C10.6642 16 11 15.6642 11 15.25C11 14.8358 10.6642 14.5 10.25 14.5H6.75C6.33579 14.5 6 14.8358 6 15.25C6 15.6642 6.33579 16 6.75 16H10.25Z" fill="#222222"/>
<path d="M18 10.75C18 11.1642 17.6642 11.5 17.25 11.5H13.75C13.3358 11.5 13 11.1642 13 10.75C13 10.3358 13.3358 10 13.75 10H17.25C17.6642 10 18 10.3358 18 10.75Z" fill="#222222"/>
<path d="M17.25 16C17.6642 16 18 15.6642 18 15.25C18 14.8358 17.6642 14.5 17.25 14.5H13.75C13.3358 14.5 13 14.8358 13 15.25C13 15.6642 13.3358 16 13.75 16H17.25Z" fill="#222222"/>
<path d="M2.78516 10C2.35153 10 2 9.64847 2 9.21484C2 8.78121 2.35153 8.42969 2.78516 8.42969H2.88151C3.31514 8.42969 3.66667 8.78121 3.66667 9.21484C3.66667 9.64847 3.31514 10 2.88151 10H2.78516Z" fill="#222222"/>
<path d="M21.1185 10C20.6849 10 20.3333 9.64847 20.3333 9.21484C20.3333 8.78121 20.6849 8.42969 21.1185 8.42969H21.2148C21.6485 8.42969 22 8.78121 22 9.21484C22 9.64847 21.6485 10 21.2148 10H21.1185Z" fill="#222222"/>
<path d="M20.3333 12.3333C20.3333 11.8731 20.7064 11.5 21.1667 11.5C21.6269 11.5 22 11.8731 22 12.3333V13.1667C22 13.6269 21.6269 14 21.1667 14C20.7064 14 20.3333 13.6269 20.3333 13.1667V12.3333Z" fill="#222222"/>
<path d="M20.3333 16.3333C20.3333 15.8731 20.7064 15.5 21.1667 15.5C21.6269 15.5 22 15.8731 22 16.3333V16.6667C22 17.1269 21.6269 17.5 21.1667 17.5C20.7064 17.5 20.3333 17.1269 20.3333 16.6667V16.3333Z" fill="#222222"/>
<path d="M17.752 20.1562C17.752 19.6903 17.3743 19.3125 16.9083 19.3125H15.8438C15.3778 19.3125 15 19.6903 15 20.1562C15 20.6222 15.3778 21 15.8438 21H16.9083C17.3743 21 17.752 20.6222 17.752 20.1562Z" fill="#222222"/>
<path d="M12.5218 21C12.9878 21 13.3656 20.6222 13.3656 20.1562C13.3656 19.6903 12.9878 19.3125 12.5218 19.3125H11.5C11.034 19.3125 10.6562 19.6903 10.6562 20.1562C10.6562 20.6222 11.034 21 11.5 21H12.5218Z" fill="#222222"/>
<path d="M8.15625 21C8.62224 21 9 20.6222 9 20.1562C9 19.6903 8.62224 19.3125 8.15625 19.3125H7.17708C6.71109 19.3125 6.33333 19.6903 6.33333 20.1562C6.33333 20.6222 6.71109 21 7.17708 21H8.15625Z" fill="#222222"/>
<path d="M3.15625 21C3.62224 21 4 20.6222 4 20.1562C4 19.6903 3.62224 19.3125 3.15625 19.3125H2.84375C2.37776 19.3125 2 19.6903 2 20.1562C2 20.6222 2.37776 21 2.84375 21H3.15625Z" fill="#222222"/>
<path d="M3.66667 16.6667C3.66667 17.1269 3.29357 17.5 2.83333 17.5C2.3731 17.5 2 17.1269 2 16.6667V16.3333C2 15.8731 2.3731 15.5 2.83333 15.5C3.29357 15.5 3.66667 15.8731 3.66667 16.3333V16.6667Z" fill="#222222"/>
<path d="M3.66667 13.1667C3.66667 13.6269 3.29357 14 2.83333 14C2.3731 14 2 13.6269 2 13.1667V12.3333C2 11.8731 2.3731 11.5 2.83333 11.5C3.29357 11.5 3.66667 11.8731 3.66667 12.3333V13.1667Z" fill="#222222"/>
<path d="M20.3333 8.33333C20.3333 7.8731 20.7064 7.5 21.1667 7.5C21.6269 7.5 22 7.8731 22 8.33333V9.16667C22 9.6269 21.6269 10 21.1667 10C20.7064 10 20.3333 9.6269 20.3333 9.16667V8.33333Z" fill="#222222"/>
<path d="M2 8.33333C2 7.8731 2.3731 7.5 2.83333 7.5C3.29357 7.5 3.66667 7.8731 3.66667 8.33333V9.16667C3.66667 9.6269 3.29357 10 2.83333 10C2.3731 10 2 9.6269 2 9.16667V8.33333Z" fill="#222222"/>
<path d="M2 16.3333C2 15.8731 2.3731 15.5 2.83333 15.5C3.29357 15.5 3.66667 15.8731 3.66667 16.3333L3.66667 17.1667C3.66667 17.6269 3.29357 18 2.83333 18C2.3731 18 2 17.6269 2 17.1667V16.3333Z" fill="#222222"/>
<path d="M20.3333 16.3333C20.3333 15.8731 20.7064 15.5 21.1667 15.5C21.6269 15.5 22 15.8731 22 16.3333V17.1667C22 17.6269 21.6269 18 21.1667 18C20.7064 18 20.3333 17.6269 20.3333 17.1667V16.3333Z" fill="#222222"/>
<path d="M21.8438 20.1562C21.8438 19.6903 21.466 19.3125 21 19.3125H20.5C20.034 19.3125 19.6562 19.6903 19.6562 20.1562C19.6562 20.6222 20.034 21 20.5 21H21C21.466 21 21.8438 20.6222 21.8438 20.1562Z" fill="#222222"/>
<path d="M19.7778 3H4.22222C2.98889 3 2 4.0125 2 5.25V6.92969H22V5.25C22 4.0125 21.0111 3 19.7778 3Z" fill="#222222"/>
</svg>
