<svg width="24" height="24" viewBox="0 0 24 24" fill="none" xmlns="http://www.w3.org/2000/svg">
<path fill-rule="evenodd" clip-rule="evenodd" d="M7 16V19C7 20.6569 8.34315 22 10 22H19C20.6569 22 22 20.6569 22 19V10C22 8.34315 20.6569 7 19 7H17V12.6C17 14.4778 15.6077 16 13.8902 16L7 16Z" fill="#222222"/>
<rect x="2.65" y="2.65" width="13.7" height="13.7" rx="2.35" stroke="#222222" stroke-width="1.3"/>
<path d="M7 8.75C7 8.33579 7.33579 8 7.75 8H8C8.41421 8 8.75 8.33579 8.75 8.75C8.75 9.16421 8.41421 9.5 8 9.5H7.75C7.33579 9.5 7 9.16421 7 8.75Z" fill="#222222"/>
<path d="M7 11.25C7 10.8358 7.33579 10.5 7.75 10.5H8C8.41421 10.5 8.75 10.8358 8.75 11.25C8.75 11.6642 8.41421 12 8 12H7.75C7.33579 12 7 11.6642 7 11.25Z" fill="#222222"/>
<path d="M7 13.75C7 13.3358 7.33579 13 7.75 13H8C8.41421 13 8.75 13.3358 8.75 13.75C8.75 14.1642 8.41421 14.5 8 14.5H7.75C7.33579 14.5 7 14.1642 7 13.75Z" fill="#222222"/>
<path d="M10 8.75C10 8.33579 10.3358 8 10.75 8H11C11.4142 8 11.75 8.33579 11.75 8.75C11.75 9.16421 11.4142 9.5 11 9.5H10.75C10.3358 9.5 10 9.16421 10 8.75Z" fill="#222222"/>
<path d="M10 11.227C10 10.8128 10.3358 10.477 10.75 10.477H11C11.4142 10.477 11.75 10.8128 11.75 11.227C11.75 11.6412 11.4142 11.977 11 11.977H10.75C10.3358 11.977 10 11.6412 10 11.227Z" fill="#222222"/>
<path d="M13 8.75C13 8.33579 13.3358 8 13.75 8H14C14.4142 8 14.75 8.33579 14.75 8.75C14.75 9.16421 14.4142 9.5 14 9.5H13.75C13.3358 9.5 13 9.16421 13 8.75Z" fill="#222222"/>
<path d="M10 13.75C10 13.3358 10.3358 13 10.75 13H11C11.4142 13 11.75 13.3358 11.75 13.75C11.75 14.1642 11.4142 14.5 11 14.5H10.75C10.3358 14.5 10 14.1642 10 13.75Z" fill="#222222"/>
<path d="M13 11.25C13 10.8358 13.3358 10.5 13.75 10.5H14C14.4142 10.5 14.75 10.8358 14.75 11.25C14.75 11.6642 14.4142 12 14 12H13.75C13.3358 12 13 11.6642 13 11.25Z" fill="#222222"/>
<path d="M13 13.75C13 13.3358 13.3358 13 13.75 13H14C14.4142 13 14.75 13.3358 14.75 13.75C14.75 14.1642 14.4142 14.5 14 14.5H13.75C13.3358 14.5 13 14.1642 13 13.75Z" fill="#222222"/>
</svg>
